G04 (created by PCBNEW-RS274X (2012-03-22 BZR 3475)-stable) date Fri Sep  7 17:41:54 2012*
G01*
G70*
G90*
%MOIN*%
G04 Gerber Fmt 3.4, Leading zero omitted, Abs format*
%FSLAX34Y34*%
G04 APERTURE LIST*
%ADD10C,0.006000*%
%ADD11C,0.005900*%
%ADD12C,0.003900*%
%ADD13C,0.008000*%
%ADD14C,0.007800*%
%ADD15C,0.134200*%
%ADD16C,0.081800*%
%ADD17R,0.303000X0.066800*%
%ADD18R,0.263700X0.047100*%
%ADD19R,0.032800X0.052800*%
%ADD20R,0.039200X0.039200*%
%ADD21R,0.066800X0.017600*%
%ADD22R,0.017600X0.066800*%
%ADD23R,0.052800X0.032800*%
%ADD24R,0.052800X0.043200*%
%ADD25R,0.047200X0.074700*%
G04 APERTURE END LIST*
G54D10*
G54D11*
X16211Y-17641D02*
X16176Y-17622D01*
X16138Y-17607D01*
X16100Y-17595D01*
X16061Y-17586D01*
X16021Y-17581D01*
X15982Y-17580D01*
X15942Y-17581D01*
X15902Y-17587D01*
X15862Y-17595D01*
X15824Y-17608D01*
X15787Y-17623D01*
X15751Y-17642D01*
X15522Y-18040D02*
X15524Y-18080D01*
X15529Y-18119D01*
X15538Y-18159D01*
X15550Y-18197D01*
X15566Y-18234D01*
X15584Y-18270D01*
X15606Y-18303D01*
X15630Y-18335D01*
X15657Y-18365D01*
X15687Y-18392D01*
X15719Y-18416D01*
X15752Y-18438D01*
X16211Y-18439D02*
X16245Y-18418D01*
X16277Y-18393D01*
X16307Y-18366D01*
X16334Y-18336D01*
X16359Y-18305D01*
X16380Y-18271D01*
X16399Y-18235D01*
X16414Y-18198D01*
X16427Y-18160D01*
X16435Y-18120D01*
X16441Y-18080D01*
X16442Y-18040D01*
X16069Y-22441D02*
X16107Y-22429D01*
X16143Y-22413D01*
X16179Y-22395D01*
X16212Y-22373D01*
X16244Y-22349D01*
X16273Y-22322D01*
X16300Y-22293D01*
X16324Y-22261D01*
X16346Y-22227D01*
X16364Y-22192D01*
X16379Y-22155D01*
X16391Y-22117D01*
X16400Y-22078D01*
X16405Y-22039D01*
X16406Y-22000D01*
X16405Y-21960D01*
X16399Y-21920D01*
X16391Y-21881D01*
X16379Y-21843D01*
X16363Y-21807D01*
X16345Y-21771D01*
X16323Y-21738D01*
X16299Y-21706D01*
X16272Y-21677D01*
X16243Y-21650D01*
X16211Y-21626D01*
X16177Y-21604D01*
X16142Y-21586D01*
X16105Y-21571D01*
X16067Y-21559D01*
X15831Y-21559D02*
X15793Y-21571D01*
X15756Y-21586D01*
X15721Y-21604D01*
X15687Y-21626D01*
X15655Y-21650D01*
X15626Y-21676D01*
X15599Y-21706D01*
X15574Y-21737D01*
X15553Y-21770D01*
X15534Y-21806D01*
X15519Y-21842D01*
X15507Y-21880D01*
X15498Y-21919D01*
X15492Y-21958D01*
X15491Y-21998D01*
X15492Y-22037D01*
X15497Y-22076D01*
X15505Y-22115D01*
X15517Y-22153D01*
X15532Y-22190D01*
X15550Y-22225D01*
X15572Y-22259D01*
X15596Y-22291D01*
X15622Y-22320D01*
X15652Y-22347D01*
X15683Y-22372D01*
X15716Y-22393D01*
X15752Y-22412D01*
X15788Y-22427D01*
X15826Y-22439D01*
X15550Y-19425D02*
X16475Y-19425D01*
X15550Y-18500D02*
X15550Y-19425D01*
X16475Y-18500D02*
X15550Y-18500D01*
X16475Y-19425D02*
X16475Y-18500D01*
X29460Y-22950D02*
X29451Y-23039D01*
X29425Y-23125D01*
X29383Y-23204D01*
X29326Y-23274D01*
X29257Y-23331D01*
X29178Y-23374D01*
X29092Y-23400D01*
X29003Y-23409D01*
X28914Y-23401D01*
X28828Y-23376D01*
X28749Y-23334D01*
X28679Y-23278D01*
X28621Y-23209D01*
X28578Y-23131D01*
X28551Y-23045D01*
X28541Y-22956D01*
X28548Y-22867D01*
X28573Y-22781D01*
X28614Y-22701D01*
X28670Y-22631D01*
X28738Y-22573D01*
X28816Y-22529D01*
X28902Y-22501D01*
X28991Y-22491D01*
X29079Y-22497D01*
X29166Y-22522D01*
X29246Y-22562D01*
X29317Y-22617D01*
X29375Y-22685D01*
X29420Y-22763D01*
X29448Y-22849D01*
X29459Y-22938D01*
X29460Y-22950D01*
X27550Y-22600D02*
X28450Y-22600D01*
X27550Y-23500D02*
X27550Y-22600D01*
X28450Y-23500D02*
X27550Y-23500D01*
X28450Y-22600D02*
X28450Y-23500D01*
X29400Y-19450D02*
X29400Y-18550D01*
X28500Y-19450D02*
X29400Y-19450D01*
X28500Y-18550D02*
X28500Y-19450D01*
X29400Y-18550D02*
X28500Y-18550D01*
X28374Y-18324D02*
X28401Y-18295D01*
X28425Y-18263D01*
X28447Y-18229D01*
X28465Y-18193D01*
X28481Y-18156D01*
X28493Y-18118D01*
X28502Y-18079D01*
X28507Y-18040D01*
X28509Y-18000D01*
X28507Y-17960D01*
X28502Y-17921D01*
X28493Y-17882D01*
X28481Y-17844D01*
X28465Y-17807D01*
X28447Y-17771D01*
X28425Y-17737D01*
X28401Y-17705D01*
X28374Y-17676D01*
X28345Y-17649D01*
X28313Y-17625D01*
X28279Y-17603D01*
X28243Y-17585D01*
X28206Y-17569D01*
X28168Y-17557D01*
X28129Y-17548D01*
X28090Y-17543D01*
X28050Y-17541D01*
X28010Y-17543D01*
X27971Y-17548D01*
X27932Y-17557D01*
X27894Y-17569D01*
X27857Y-17585D01*
X27821Y-17603D01*
X27787Y-17625D01*
X27755Y-17649D01*
X27726Y-17676D01*
X27699Y-17705D01*
X27675Y-17737D01*
X27653Y-17771D01*
X27635Y-17807D01*
X27619Y-17844D01*
X27607Y-17882D01*
X27598Y-17921D01*
X27593Y-17960D01*
X27591Y-18000D01*
X27593Y-18040D01*
X27598Y-18079D01*
X27607Y-18118D01*
X27619Y-18156D01*
X27635Y-18193D01*
X27653Y-18229D01*
X27675Y-18263D01*
X27699Y-18295D01*
X27726Y-18324D01*
X28590Y-18000D02*
X28592Y-18040D01*
X28597Y-18079D01*
X28606Y-18119D01*
X28618Y-18157D01*
X28634Y-18194D01*
X28652Y-18229D01*
X28674Y-18263D01*
X28698Y-18295D01*
X28725Y-18325D01*
X28755Y-18352D01*
X28787Y-18376D01*
X28821Y-18398D01*
X28856Y-18416D01*
X28893Y-18432D01*
X28931Y-18444D01*
X28971Y-18453D01*
X29010Y-18458D01*
X29050Y-18460D01*
X29510Y-18000D02*
X29508Y-17960D01*
X29503Y-17921D01*
X29494Y-17881D01*
X29482Y-17843D01*
X29466Y-17806D01*
X29448Y-17771D01*
X29426Y-17737D01*
X29402Y-17705D01*
X29375Y-17675D01*
X29345Y-17648D01*
X29313Y-17624D01*
X29280Y-17602D01*
X29244Y-17584D01*
X29207Y-17568D01*
X29169Y-17556D01*
X29129Y-17547D01*
X29090Y-17542D01*
X29050Y-17540D01*
X23428Y-21943D02*
X23473Y-21589D01*
X23559Y-21842D01*
X23709Y-21589D01*
X23664Y-21943D01*
X24040Y-21910D02*
X24021Y-21926D01*
X23968Y-21943D01*
X23934Y-21943D01*
X23886Y-21926D01*
X23857Y-21893D01*
X23844Y-21859D01*
X23835Y-21792D01*
X23842Y-21741D01*
X23867Y-21674D01*
X23888Y-21640D01*
X23926Y-21606D01*
X23979Y-21589D01*
X24013Y-21589D01*
X24061Y-21606D01*
X24076Y-21623D01*
X24457Y-21943D02*
X24502Y-21589D01*
X24480Y-21758D02*
X24683Y-21758D01*
X24660Y-21943D02*
X24705Y-21589D01*
X25035Y-21910D02*
X25016Y-21926D01*
X24963Y-21943D01*
X24929Y-21943D01*
X24881Y-21926D01*
X24852Y-21893D01*
X24839Y-21859D01*
X24830Y-21792D01*
X24837Y-21741D01*
X24862Y-21674D01*
X24883Y-21640D01*
X24921Y-21606D01*
X24974Y-21589D01*
X25008Y-21589D01*
X25056Y-21606D01*
X25071Y-21623D01*
X25182Y-21943D02*
X25227Y-21589D01*
X25385Y-21943D02*
X25259Y-21741D01*
X25430Y-21589D02*
X25201Y-21792D01*
X25540Y-21910D02*
X25555Y-21926D01*
X25536Y-21943D01*
X25521Y-21926D01*
X25540Y-21910D01*
X25536Y-21943D01*
X25553Y-21808D02*
X25561Y-21606D01*
X25581Y-21589D01*
X25595Y-21606D01*
X25553Y-21808D01*
X25581Y-21589D01*
X15193Y-21265D02*
X14957Y-21235D01*
X14991Y-21239D02*
X14974Y-21220D01*
X14957Y-21184D01*
X14957Y-21134D01*
X14974Y-21102D01*
X15008Y-21090D01*
X15193Y-21113D01*
X15008Y-21090D02*
X14974Y-21068D01*
X14957Y-21032D01*
X14957Y-20982D01*
X14974Y-20950D01*
X15008Y-20938D01*
X15193Y-20961D01*
X15176Y-20639D02*
X15193Y-20675D01*
X15193Y-20742D01*
X15176Y-20774D01*
X15160Y-20789D01*
X15126Y-20801D01*
X15025Y-20789D01*
X14991Y-20767D01*
X14974Y-20748D01*
X14957Y-20712D01*
X14957Y-20645D01*
X14974Y-20613D01*
X15193Y-20490D02*
X14839Y-20445D01*
X15193Y-20338D02*
X15008Y-20315D01*
X14974Y-20327D01*
X14957Y-20359D01*
X14957Y-20409D01*
X14974Y-20445D01*
X14991Y-20464D01*
X15176Y-20016D02*
X15193Y-20052D01*
X15193Y-20119D01*
X15176Y-20151D01*
X15160Y-20166D01*
X15126Y-20178D01*
X15025Y-20166D01*
X14991Y-20144D01*
X14974Y-20125D01*
X14957Y-20089D01*
X14957Y-20022D01*
X14974Y-19990D01*
X15193Y-19867D02*
X14839Y-19822D01*
X15058Y-19816D02*
X15193Y-19732D01*
X14957Y-19702D02*
X15092Y-19854D01*
X15160Y-19576D02*
X15176Y-19561D01*
X15193Y-19580D01*
X15176Y-19595D01*
X15160Y-19576D01*
X15193Y-19580D01*
X15193Y-19360D02*
X15176Y-19392D01*
X15160Y-19407D01*
X15126Y-19419D01*
X15025Y-19407D01*
X14991Y-19385D01*
X14974Y-19366D01*
X14957Y-19330D01*
X14957Y-19280D01*
X14974Y-19248D01*
X14991Y-19233D01*
X15025Y-19221D01*
X15126Y-19233D01*
X15160Y-19255D01*
X15176Y-19274D01*
X15193Y-19310D01*
X15193Y-19360D01*
X15193Y-19091D02*
X14957Y-19061D01*
X15025Y-19070D02*
X14991Y-19048D01*
X14974Y-19029D01*
X14957Y-18993D01*
X14957Y-18960D01*
X14957Y-18690D02*
X15244Y-18726D01*
X15278Y-18747D01*
X15294Y-18766D01*
X15311Y-18802D01*
X15311Y-18853D01*
X15294Y-18884D01*
X15176Y-18718D02*
X15193Y-18754D01*
X15193Y-18821D01*
X15176Y-18853D01*
X15160Y-18868D01*
X15126Y-18880D01*
X15025Y-18868D01*
X14991Y-18846D01*
X14974Y-18827D01*
X14957Y-18791D01*
X14957Y-18724D01*
X14974Y-18692D01*
G54D12*
X15300Y-17630D02*
X15300Y-16300D01*
X15300Y-22374D02*
X15300Y-23700D01*
X29700Y-23700D02*
X15300Y-23700D01*
X29700Y-16300D02*
X29700Y-23700D01*
X15300Y-16300D02*
X29700Y-16300D01*
X10039Y-17630D02*
X15300Y-17630D01*
X10039Y-22374D02*
X15300Y-22374D01*
X10039Y-17630D02*
X10039Y-22374D01*
G54D11*
X16700Y-19200D02*
X17700Y-19200D01*
X17700Y-19200D02*
X17700Y-19800D01*
X17700Y-19800D02*
X16700Y-19800D01*
X16700Y-19800D02*
X16700Y-19200D01*
X16700Y-19800D02*
X17700Y-19800D01*
X17700Y-19800D02*
X17700Y-20400D01*
X17700Y-20400D02*
X16700Y-20400D01*
X16700Y-20400D02*
X16700Y-19800D01*
X18900Y-18600D02*
X17900Y-18600D01*
X17900Y-18600D02*
X17900Y-18000D01*
X17900Y-18000D02*
X18900Y-18000D01*
X18900Y-18000D02*
X18900Y-18600D01*
X17700Y-21000D02*
X16700Y-21000D01*
X16700Y-21000D02*
X16700Y-20400D01*
X16700Y-20400D02*
X17700Y-20400D01*
X17700Y-20400D02*
X17700Y-21000D01*
X21700Y-21400D02*
X22700Y-21400D01*
X22700Y-21400D02*
X22700Y-22000D01*
X22700Y-22000D02*
X21700Y-22000D01*
X21700Y-22000D02*
X21700Y-21400D01*
X18900Y-22000D02*
X17900Y-22000D01*
X17900Y-22000D02*
X17900Y-21400D01*
X17900Y-21400D02*
X18900Y-21400D01*
X18900Y-21400D02*
X18900Y-22000D01*
X27000Y-18800D02*
X26000Y-18800D01*
X26000Y-18800D02*
X26000Y-18200D01*
X26000Y-18200D02*
X27000Y-18200D01*
X27000Y-18200D02*
X27000Y-18800D01*
X24400Y-18300D02*
X25400Y-18300D01*
X25400Y-18300D02*
X25400Y-18900D01*
X25400Y-18900D02*
X24400Y-18900D01*
X24400Y-18900D02*
X24400Y-18300D01*
X23540Y-18540D02*
X23660Y-18600D01*
X23660Y-18600D02*
X23540Y-18660D01*
X23540Y-18660D02*
X23540Y-18540D01*
X23075Y-18350D02*
X24125Y-18350D01*
X24125Y-18350D02*
X24125Y-18850D01*
X24125Y-18850D02*
X23075Y-18850D01*
X23075Y-18850D02*
X23075Y-18350D01*
X19080Y-21299D02*
X19001Y-21220D01*
X19001Y-21220D02*
X19001Y-18780D01*
X19001Y-18780D02*
X19080Y-18701D01*
X19080Y-18701D02*
X21520Y-18701D01*
X21520Y-18701D02*
X21599Y-18780D01*
X21520Y-21299D02*
X19080Y-21299D01*
X21599Y-18780D02*
X21599Y-21220D01*
X19080Y-21339D02*
X18961Y-21220D01*
X21639Y-21220D02*
X21520Y-21339D01*
X21520Y-18661D02*
X21639Y-18780D01*
X19080Y-18661D02*
X18961Y-18780D01*
G54D13*
X18649Y-18542D02*
X18648Y-18549D01*
X18645Y-18557D01*
X18642Y-18564D01*
X18637Y-18570D01*
X18630Y-18575D01*
X18623Y-18579D01*
X18616Y-18582D01*
X18608Y-18582D01*
X18601Y-18582D01*
X18593Y-18580D01*
X18586Y-18576D01*
X18580Y-18571D01*
X18575Y-18565D01*
X18571Y-18558D01*
X18568Y-18550D01*
X18568Y-18542D01*
X18568Y-18535D01*
X18570Y-18527D01*
X18574Y-18520D01*
X18579Y-18514D01*
X18585Y-18509D01*
X18592Y-18505D01*
X18600Y-18502D01*
X18608Y-18502D01*
X18615Y-18502D01*
X18622Y-18504D01*
X18629Y-18508D01*
X18636Y-18513D01*
X18641Y-18519D01*
X18645Y-18526D01*
X18647Y-18533D01*
X18648Y-18541D01*
X18649Y-18542D01*
G54D14*
X19411Y-19075D02*
X19409Y-19085D01*
X19406Y-19095D01*
X19401Y-19105D01*
X19395Y-19113D01*
X19386Y-19120D01*
X19377Y-19125D01*
X19367Y-19128D01*
X19356Y-19129D01*
X19346Y-19129D01*
X19336Y-19125D01*
X19326Y-19121D01*
X19318Y-19114D01*
X19311Y-19106D01*
X19306Y-19096D01*
X19303Y-19086D01*
X19302Y-19075D01*
X19302Y-19066D01*
X19305Y-19055D01*
X19310Y-19046D01*
X19317Y-19037D01*
X19325Y-19030D01*
X19334Y-19025D01*
X19345Y-19022D01*
X19355Y-19021D01*
X19365Y-19021D01*
X19375Y-19024D01*
X19385Y-19029D01*
X19393Y-19036D01*
X19400Y-19044D01*
X19406Y-19053D01*
X19409Y-19063D01*
X19410Y-19074D01*
X19411Y-19075D01*
G54D11*
X16800Y-19000D02*
X16800Y-18000D01*
X16800Y-18000D02*
X17400Y-18000D01*
X17400Y-18000D02*
X17400Y-19000D01*
X17400Y-19000D02*
X16800Y-19000D01*
X17700Y-21600D02*
X16700Y-21600D01*
X16700Y-21600D02*
X16700Y-21000D01*
X16700Y-21000D02*
X17700Y-21000D01*
X17700Y-21000D02*
X17700Y-21600D01*
X25772Y-21568D02*
X25772Y-18832D01*
X27228Y-18832D02*
X27228Y-21568D01*
X27228Y-21568D02*
X25772Y-21568D01*
X25772Y-18832D02*
X27228Y-18832D01*
X18143Y-19158D02*
X17975Y-19276D01*
X18143Y-19361D02*
X17789Y-19361D01*
X17789Y-19226D01*
X17806Y-19192D01*
X17823Y-19175D01*
X17857Y-19158D01*
X17907Y-19158D01*
X17941Y-19175D01*
X17958Y-19192D01*
X17975Y-19226D01*
X17975Y-19361D01*
X18143Y-18821D02*
X18143Y-19024D01*
X18143Y-18922D02*
X17789Y-18922D01*
X17840Y-18956D01*
X17874Y-18990D01*
X17890Y-19024D01*
X18143Y-19758D02*
X17975Y-19876D01*
X18143Y-19961D02*
X17789Y-19961D01*
X17789Y-19826D01*
X17806Y-19792D01*
X17823Y-19775D01*
X17857Y-19758D01*
X17907Y-19758D01*
X17941Y-19775D01*
X17958Y-19792D01*
X17975Y-19826D01*
X17975Y-19961D01*
X17823Y-19624D02*
X17806Y-19607D01*
X17789Y-19573D01*
X17789Y-19489D01*
X17806Y-19455D01*
X17823Y-19438D01*
X17857Y-19421D01*
X17890Y-19421D01*
X17941Y-19438D01*
X18143Y-19640D01*
X18143Y-19421D01*
X17810Y-18358D02*
X17826Y-18375D01*
X17843Y-18426D01*
X17843Y-18460D01*
X17826Y-18510D01*
X17793Y-18544D01*
X17759Y-18561D01*
X17692Y-18578D01*
X17641Y-18578D01*
X17574Y-18561D01*
X17540Y-18544D01*
X17506Y-18510D01*
X17489Y-18460D01*
X17489Y-18426D01*
X17506Y-18375D01*
X17523Y-18358D01*
X17489Y-18240D02*
X17489Y-18021D01*
X17624Y-18139D01*
X17624Y-18089D01*
X17641Y-18055D01*
X17658Y-18038D01*
X17692Y-18021D01*
X17776Y-18021D01*
X17810Y-18038D01*
X17826Y-18055D01*
X17843Y-18089D01*
X17843Y-18190D01*
X17826Y-18224D01*
X17810Y-18240D01*
X18110Y-20358D02*
X18126Y-20375D01*
X18143Y-20426D01*
X18143Y-20460D01*
X18126Y-20510D01*
X18093Y-20544D01*
X18059Y-20561D01*
X17992Y-20578D01*
X17941Y-20578D01*
X17874Y-20561D01*
X17840Y-20544D01*
X17806Y-20510D01*
X17789Y-20460D01*
X17789Y-20426D01*
X17806Y-20375D01*
X17823Y-20358D01*
X18143Y-20021D02*
X18143Y-20224D01*
X18143Y-20122D02*
X17789Y-20122D01*
X17840Y-20156D01*
X17874Y-20190D01*
X17890Y-20224D01*
X22710Y-21058D02*
X22726Y-21075D01*
X22743Y-21126D01*
X22743Y-21160D01*
X22726Y-21210D01*
X22693Y-21244D01*
X22659Y-21261D01*
X22592Y-21278D01*
X22541Y-21278D01*
X22474Y-21261D01*
X22440Y-21244D01*
X22406Y-21210D01*
X22389Y-21160D01*
X22389Y-21126D01*
X22406Y-21075D01*
X22423Y-21058D01*
X22389Y-20738D02*
X22389Y-20907D01*
X22558Y-20924D01*
X22541Y-20907D01*
X22524Y-20873D01*
X22524Y-20789D01*
X22541Y-20755D01*
X22558Y-20738D01*
X22592Y-20721D01*
X22676Y-20721D01*
X22710Y-20738D01*
X22726Y-20755D01*
X22743Y-20789D01*
X22743Y-20873D01*
X22726Y-20907D01*
X22710Y-20924D01*
X17810Y-22058D02*
X17826Y-22075D01*
X17843Y-22126D01*
X17843Y-22160D01*
X17826Y-22210D01*
X17793Y-22244D01*
X17759Y-22261D01*
X17692Y-22278D01*
X17641Y-22278D01*
X17574Y-22261D01*
X17540Y-22244D01*
X17506Y-22210D01*
X17489Y-22160D01*
X17489Y-22126D01*
X17506Y-22075D01*
X17523Y-22058D01*
X17607Y-21755D02*
X17843Y-21755D01*
X17472Y-21839D02*
X17725Y-21924D01*
X17725Y-21704D01*
X25860Y-18558D02*
X25876Y-18575D01*
X25893Y-18626D01*
X25893Y-18660D01*
X25876Y-18710D01*
X25843Y-18744D01*
X25809Y-18761D01*
X25742Y-18778D01*
X25691Y-18778D01*
X25624Y-18761D01*
X25590Y-18744D01*
X25556Y-18710D01*
X25539Y-18660D01*
X25539Y-18626D01*
X25556Y-18575D01*
X25573Y-18558D01*
X25539Y-18255D02*
X25539Y-18322D01*
X25556Y-18356D01*
X25573Y-18373D01*
X25624Y-18407D01*
X25691Y-18424D01*
X25826Y-18424D01*
X25860Y-18407D01*
X25876Y-18390D01*
X25893Y-18356D01*
X25893Y-18289D01*
X25876Y-18255D01*
X25860Y-18238D01*
X25826Y-18221D01*
X25742Y-18221D01*
X25708Y-18238D01*
X25691Y-18255D01*
X25674Y-18289D01*
X25674Y-18356D01*
X25691Y-18390D01*
X25708Y-18407D01*
X25742Y-18424D01*
X24642Y-19343D02*
X24524Y-19175D01*
X24439Y-19343D02*
X24439Y-18989D01*
X24574Y-18989D01*
X24608Y-19006D01*
X24625Y-19023D01*
X24642Y-19057D01*
X24642Y-19107D01*
X24625Y-19141D01*
X24608Y-19158D01*
X24574Y-19175D01*
X24439Y-19175D01*
X24760Y-18989D02*
X24979Y-18989D01*
X24861Y-19124D01*
X24911Y-19124D01*
X24945Y-19141D01*
X24962Y-19158D01*
X24979Y-19192D01*
X24979Y-19276D01*
X24962Y-19310D01*
X24945Y-19326D01*
X24911Y-19343D01*
X24810Y-19343D01*
X24776Y-19326D01*
X24760Y-19310D01*
X23639Y-19343D02*
X23639Y-18989D01*
X23724Y-18989D01*
X23774Y-19006D01*
X23808Y-19040D01*
X23825Y-19074D01*
X23842Y-19141D01*
X23842Y-19192D01*
X23825Y-19259D01*
X23808Y-19293D01*
X23774Y-19326D01*
X23724Y-19343D01*
X23639Y-19343D01*
X24179Y-19343D02*
X23976Y-19343D01*
X24078Y-19343D02*
X24078Y-18989D01*
X24044Y-19040D01*
X24010Y-19074D01*
X23976Y-19090D01*
X20030Y-19789D02*
X20030Y-20076D01*
X20047Y-20110D01*
X20064Y-20126D01*
X20098Y-20143D01*
X20165Y-20143D01*
X20199Y-20126D01*
X20216Y-20110D01*
X20233Y-20076D01*
X20233Y-19789D01*
X20587Y-20143D02*
X20384Y-20143D01*
X20486Y-20143D02*
X20486Y-19789D01*
X20452Y-19840D01*
X20418Y-19874D01*
X20384Y-19890D01*
X16558Y-18595D02*
X16558Y-18713D01*
X16743Y-18713D02*
X16389Y-18713D01*
X16389Y-18544D01*
X16558Y-18292D02*
X16575Y-18241D01*
X16592Y-18224D01*
X16625Y-18207D01*
X16676Y-18207D01*
X16710Y-18224D01*
X16726Y-18241D01*
X16743Y-18275D01*
X16743Y-18410D01*
X16389Y-18410D01*
X16389Y-18292D01*
X16406Y-18258D01*
X16423Y-18241D01*
X16457Y-18224D01*
X16490Y-18224D01*
X16524Y-18241D01*
X16541Y-18258D01*
X16558Y-18292D01*
X16558Y-18410D01*
X16743Y-17870D02*
X16743Y-18073D01*
X16743Y-17971D02*
X16389Y-17971D01*
X16440Y-18005D01*
X16474Y-18039D01*
X16490Y-18073D01*
X18110Y-21058D02*
X18126Y-21075D01*
X18143Y-21126D01*
X18143Y-21160D01*
X18126Y-21210D01*
X18093Y-21244D01*
X18059Y-21261D01*
X17992Y-21278D01*
X17941Y-21278D01*
X17874Y-21261D01*
X17840Y-21244D01*
X17806Y-21210D01*
X17789Y-21160D01*
X17789Y-21126D01*
X17806Y-21075D01*
X17823Y-21058D01*
X17823Y-20924D02*
X17806Y-20907D01*
X17789Y-20873D01*
X17789Y-20789D01*
X17806Y-20755D01*
X17823Y-20738D01*
X17857Y-20721D01*
X17890Y-20721D01*
X17941Y-20738D01*
X18143Y-20940D01*
X18143Y-20721D01*
X26230Y-20326D02*
X26281Y-20343D01*
X26365Y-20343D01*
X26399Y-20326D01*
X26416Y-20310D01*
X26433Y-20276D01*
X26433Y-20242D01*
X26416Y-20208D01*
X26399Y-20192D01*
X26365Y-20175D01*
X26298Y-20158D01*
X26264Y-20141D01*
X26247Y-20124D01*
X26230Y-20090D01*
X26230Y-20057D01*
X26247Y-20023D01*
X26264Y-20006D01*
X26298Y-19989D01*
X26382Y-19989D01*
X26433Y-20006D01*
X26770Y-20343D02*
X26567Y-20343D01*
X26669Y-20343D02*
X26669Y-19989D01*
X26635Y-20040D01*
X26601Y-20074D01*
X26567Y-20090D01*
%LPC*%
G54D15*
X24600Y-20600D03*
G54D16*
X28050Y-18000D03*
X27950Y-19000D03*
X28050Y-20000D03*
X27950Y-21000D03*
X28050Y-22000D03*
X29050Y-18000D03*
X28950Y-19000D03*
X29050Y-20000D03*
X28950Y-21000D03*
X29050Y-22000D03*
X16000Y-17050D03*
X17000Y-16950D03*
X18000Y-17050D03*
X19000Y-16950D03*
X20000Y-17050D03*
X21000Y-16950D03*
X22000Y-17050D03*
X23000Y-16950D03*
X24000Y-17050D03*
X25000Y-16950D03*
X26000Y-17050D03*
X27000Y-16950D03*
X28000Y-17050D03*
X29000Y-16950D03*
X16000Y-23050D03*
X17000Y-22950D03*
X18000Y-23050D03*
X19000Y-22950D03*
X20000Y-23050D03*
X21000Y-22950D03*
X22000Y-23050D03*
X23000Y-22950D03*
X24000Y-23050D03*
X25000Y-22950D03*
X26000Y-23050D03*
X27000Y-22950D03*
X28000Y-23050D03*
X29000Y-22950D03*
G54D17*
X11930Y-21377D03*
X11930Y-18623D03*
G54D18*
X12126Y-20393D03*
X12126Y-19607D03*
G54D19*
X16900Y-19500D03*
X17500Y-19500D03*
X16900Y-20100D03*
X17500Y-20100D03*
X18700Y-18300D03*
X18100Y-18300D03*
X17500Y-20700D03*
X16900Y-20700D03*
X21900Y-21700D03*
X22500Y-21700D03*
X18700Y-21700D03*
X18100Y-21700D03*
X26800Y-18500D03*
X26200Y-18500D03*
X24600Y-18600D03*
X25200Y-18600D03*
G54D20*
X23305Y-18600D03*
X23895Y-18600D03*
G54D21*
X18608Y-18918D03*
X18608Y-19115D03*
X18608Y-19312D03*
X18608Y-19508D03*
X18608Y-19705D03*
X18608Y-19902D03*
X18608Y-20098D03*
X18608Y-20295D03*
X18608Y-20492D03*
X18608Y-20688D03*
X18608Y-20885D03*
X18608Y-21082D03*
G54D22*
X19218Y-21692D03*
X19415Y-21692D03*
X19612Y-21692D03*
X19808Y-21692D03*
X20005Y-21692D03*
X20202Y-21692D03*
X20398Y-21692D03*
X20595Y-21692D03*
X20792Y-21692D03*
X20988Y-21692D03*
X21185Y-21692D03*
X21382Y-21692D03*
G54D21*
X21992Y-21082D03*
X21992Y-20885D03*
X21992Y-20688D03*
X21992Y-20492D03*
X21992Y-20295D03*
X21992Y-20098D03*
X21992Y-19902D03*
X21992Y-19705D03*
X21992Y-19508D03*
X21992Y-19312D03*
X21992Y-19115D03*
X21992Y-18918D03*
G54D22*
X21382Y-18308D03*
X21185Y-18308D03*
X20988Y-18308D03*
X20792Y-18308D03*
X20595Y-18308D03*
X20398Y-18308D03*
X20202Y-18308D03*
X20005Y-18308D03*
X19808Y-18308D03*
X19612Y-18308D03*
X19415Y-18308D03*
X19218Y-18308D03*
G54D16*
X15950Y-22000D03*
X16050Y-21000D03*
X15950Y-20000D03*
X16015Y-18960D03*
X15985Y-18040D03*
G54D23*
X17100Y-18800D03*
X17100Y-18200D03*
G54D24*
X17100Y-18500D03*
G54D19*
X17500Y-21300D03*
X16900Y-21300D03*
G54D25*
X26835Y-19235D03*
X26165Y-19235D03*
X26835Y-21165D03*
X26165Y-21165D03*
M02*
