G04 (created by PCBNEW-RS274X (2012-03-22 BZR 3475)-stable) date Wed 29 Aug 2012 11:50:49 PM CEST*
G01*
G70*
G90*
%MOIN*%
G04 Gerber Fmt 3.4, Leading zero omitted, Abs format*
%FSLAX34Y34*%
G04 APERTURE LIST*
%ADD10C,0.006000*%
%ADD11C,0.009800*%
%ADD12C,0.003900*%
%ADD13C,0.005900*%
%ADD14C,0.011800*%
%ADD15C,0.000100*%
%ADD16C,0.003500*%
%ADD17R,0.086500X0.023500*%
%ADD18R,0.082600X0.090500*%
%ADD19R,0.070800X0.090500*%
%ADD20R,0.082600X0.082600*%
%ADD21C,0.081800*%
%ADD22R,0.032800X0.032800*%
%ADD23R,0.023500X0.032800*%
%ADD24R,0.070800X0.031800*%
%ADD25R,0.066100X0.030800*%
%ADD26R,0.047200X0.052800*%
%ADD27R,0.052800X0.032800*%
%ADD28R,0.062800X0.042800*%
%ADD29R,0.032800X0.052800*%
%ADD30R,0.052800X0.047200*%
%ADD31R,0.037800X0.037800*%
%ADD32R,0.042800X0.062800*%
%ADD33R,0.052800X0.062800*%
%ADD34R,0.052800X0.043200*%
%ADD35R,0.033400X0.047200*%
G04 APERTURE END LIST*
G54D10*
G54D11*
X26255Y-22139D02*
X26206Y-21745D01*
X26213Y-21801D02*
X26181Y-21773D01*
X26122Y-21745D01*
X26037Y-21745D01*
X25984Y-21773D01*
X25963Y-21829D01*
X26002Y-22139D01*
X25963Y-21829D02*
X25928Y-21773D01*
X25869Y-21745D01*
X25784Y-21745D01*
X25731Y-21773D01*
X25710Y-21829D01*
X25749Y-22139D01*
X25210Y-22111D02*
X25270Y-22139D01*
X25383Y-22139D01*
X25435Y-22111D01*
X25460Y-22082D01*
X25481Y-22026D01*
X25460Y-21857D01*
X25425Y-21801D01*
X25393Y-21773D01*
X25334Y-21745D01*
X25221Y-21745D01*
X25168Y-21773D01*
X24960Y-22139D02*
X24886Y-21548D01*
X24707Y-22139D02*
X24668Y-21829D01*
X24689Y-21773D01*
X24742Y-21745D01*
X24827Y-21745D01*
X24886Y-21773D01*
X24918Y-21801D01*
X24168Y-22111D02*
X24228Y-22139D01*
X24341Y-22139D01*
X24393Y-22111D01*
X24418Y-22082D01*
X24439Y-22026D01*
X24418Y-21857D01*
X24383Y-21801D01*
X24351Y-21773D01*
X24292Y-21745D01*
X24179Y-21745D01*
X24126Y-21773D01*
X23918Y-22139D02*
X23844Y-21548D01*
X23834Y-21914D02*
X23693Y-22139D01*
X23644Y-21745D02*
X23897Y-21970D01*
X23433Y-22082D02*
X23408Y-22111D01*
X23440Y-22139D01*
X23464Y-22111D01*
X23433Y-22082D01*
X23440Y-22139D01*
X23075Y-22139D02*
X23127Y-22111D01*
X23152Y-22082D01*
X23173Y-22026D01*
X23152Y-21857D01*
X23117Y-21801D01*
X23085Y-21773D01*
X23026Y-21745D01*
X22941Y-21745D01*
X22888Y-21773D01*
X22864Y-21801D01*
X22843Y-21857D01*
X22864Y-22026D01*
X22899Y-22082D01*
X22930Y-22111D01*
X22990Y-22139D01*
X23075Y-22139D01*
X22624Y-22139D02*
X22575Y-21745D01*
X22589Y-21857D02*
X22554Y-21801D01*
X22522Y-21773D01*
X22463Y-21745D01*
X22406Y-21745D01*
X21956Y-21745D02*
X22016Y-22223D01*
X22051Y-22279D01*
X22082Y-22308D01*
X22143Y-22336D01*
X22227Y-22336D01*
X22279Y-22308D01*
X22001Y-22111D02*
X22061Y-22139D01*
X22174Y-22139D01*
X22226Y-22111D01*
X22251Y-22082D01*
X22272Y-22026D01*
X22251Y-21857D01*
X22216Y-21801D01*
X22184Y-21773D01*
X22125Y-21745D01*
X22012Y-21745D01*
X21959Y-21773D01*
G54D12*
X15300Y-17630D02*
X15300Y-16300D01*
X15300Y-22374D02*
X15300Y-23700D01*
X29700Y-23700D02*
X15300Y-23700D01*
X29700Y-16300D02*
X29700Y-23700D01*
X15300Y-16300D02*
X29700Y-16300D01*
X10039Y-17630D02*
X15300Y-17630D01*
X10039Y-22374D02*
X15300Y-22374D01*
X10039Y-17630D02*
X10039Y-22374D01*
G54D13*
X12047Y-20807D02*
X12047Y-21752D01*
X12047Y-21752D02*
X11201Y-21752D01*
X12047Y-19193D02*
X12047Y-18248D01*
X12047Y-18248D02*
X11201Y-18248D01*
X15174Y-19697D02*
X14546Y-19697D01*
X14546Y-20083D02*
X15174Y-20083D01*
X15173Y-20082D02*
X15182Y-20080D01*
X15190Y-20077D01*
X15198Y-20073D01*
X15205Y-20069D01*
X15213Y-20065D01*
X15219Y-20059D01*
X15226Y-20053D01*
X15231Y-20047D01*
X15237Y-20040D01*
X15241Y-20032D01*
X15245Y-20025D01*
X15248Y-20017D01*
X15251Y-20008D01*
X15252Y-20000D01*
X15253Y-19991D01*
X15253Y-19984D01*
X15253Y-19975D01*
X15252Y-19967D01*
X14468Y-19966D02*
X14466Y-19974D01*
X14466Y-19983D01*
X14466Y-19991D01*
X14467Y-19999D01*
X14468Y-20008D01*
X14471Y-20016D01*
X14474Y-20024D01*
X14478Y-20032D01*
X14482Y-20040D01*
X14487Y-20047D01*
X14493Y-20053D01*
X14499Y-20059D01*
X14506Y-20065D01*
X14513Y-20070D01*
X14521Y-20074D01*
X14529Y-20078D01*
X14537Y-20080D01*
X14546Y-20082D01*
X14547Y-19698D02*
X14538Y-19700D01*
X14530Y-19703D01*
X14522Y-19707D01*
X14515Y-19711D01*
X14507Y-19715D01*
X14501Y-19721D01*
X14494Y-19727D01*
X14489Y-19733D01*
X14483Y-19740D01*
X14479Y-19748D01*
X14475Y-19755D01*
X14472Y-19763D01*
X14469Y-19772D01*
X14468Y-19780D01*
X14467Y-19789D01*
X14467Y-19796D01*
X14467Y-19805D01*
X14468Y-19813D01*
X15252Y-19814D02*
X15254Y-19806D01*
X15254Y-19797D01*
X15254Y-19789D01*
X15253Y-19781D01*
X15252Y-19772D01*
X15249Y-19764D01*
X15246Y-19756D01*
X15242Y-19748D01*
X15238Y-19740D01*
X15233Y-19733D01*
X15227Y-19727D01*
X15221Y-19721D01*
X15214Y-19715D01*
X15207Y-19710D01*
X15199Y-19706D01*
X15191Y-19702D01*
X15183Y-19700D01*
X15174Y-19698D01*
X15174Y-20497D02*
X14546Y-20497D01*
X14546Y-20883D02*
X15174Y-20883D01*
X15173Y-20882D02*
X15182Y-20880D01*
X15190Y-20877D01*
X15198Y-20873D01*
X15205Y-20869D01*
X15213Y-20865D01*
X15219Y-20859D01*
X15226Y-20853D01*
X15231Y-20847D01*
X15237Y-20840D01*
X15241Y-20832D01*
X15245Y-20825D01*
X15248Y-20817D01*
X15251Y-20808D01*
X15252Y-20800D01*
X15253Y-20791D01*
X15253Y-20784D01*
X15253Y-20775D01*
X15252Y-20767D01*
X14468Y-20766D02*
X14466Y-20774D01*
X14466Y-20783D01*
X14466Y-20791D01*
X14467Y-20799D01*
X14468Y-20808D01*
X14471Y-20816D01*
X14474Y-20824D01*
X14478Y-20832D01*
X14482Y-20840D01*
X14487Y-20847D01*
X14493Y-20853D01*
X14499Y-20859D01*
X14506Y-20865D01*
X14513Y-20870D01*
X14521Y-20874D01*
X14529Y-20878D01*
X14537Y-20880D01*
X14546Y-20882D01*
X14547Y-20498D02*
X14538Y-20500D01*
X14530Y-20503D01*
X14522Y-20507D01*
X14515Y-20511D01*
X14507Y-20515D01*
X14501Y-20521D01*
X14494Y-20527D01*
X14489Y-20533D01*
X14483Y-20540D01*
X14479Y-20548D01*
X14475Y-20555D01*
X14472Y-20563D01*
X14469Y-20572D01*
X14468Y-20580D01*
X14467Y-20589D01*
X14467Y-20596D01*
X14467Y-20605D01*
X14468Y-20613D01*
X15252Y-20614D02*
X15254Y-20606D01*
X15254Y-20597D01*
X15254Y-20589D01*
X15253Y-20581D01*
X15252Y-20572D01*
X15249Y-20564D01*
X15246Y-20556D01*
X15242Y-20548D01*
X15238Y-20540D01*
X15233Y-20533D01*
X15227Y-20527D01*
X15221Y-20521D01*
X15214Y-20515D01*
X15207Y-20510D01*
X15199Y-20506D01*
X15191Y-20502D01*
X15183Y-20500D01*
X15174Y-20498D01*
X19657Y-20435D02*
X20444Y-20435D01*
X20444Y-20435D02*
X20444Y-22365D01*
X20444Y-22365D02*
X19657Y-22365D01*
X16743Y-20435D02*
X16743Y-22365D01*
X16743Y-22365D02*
X19657Y-22365D01*
X19657Y-22365D02*
X19657Y-20435D01*
X19657Y-20435D02*
X16743Y-20435D01*
G54D14*
X18797Y-20641D02*
X18796Y-20648D01*
X18794Y-20655D01*
X18790Y-20662D01*
X18785Y-20668D01*
X18779Y-20673D01*
X18773Y-20676D01*
X18765Y-20679D01*
X18758Y-20679D01*
X18751Y-20679D01*
X18744Y-20677D01*
X18737Y-20673D01*
X18731Y-20668D01*
X18726Y-20663D01*
X18723Y-20656D01*
X18720Y-20649D01*
X18720Y-20641D01*
X18720Y-20634D01*
X18722Y-20627D01*
X18726Y-20620D01*
X18730Y-20614D01*
X18736Y-20609D01*
X18743Y-20606D01*
X18750Y-20603D01*
X18758Y-20603D01*
X18764Y-20603D01*
X18772Y-20605D01*
X18778Y-20609D01*
X18784Y-20613D01*
X18789Y-20619D01*
X18793Y-20626D01*
X18796Y-20633D01*
X18796Y-20640D01*
X18797Y-20641D01*
G54D13*
X21375Y-18500D02*
X21375Y-17900D01*
X21475Y-18500D02*
X22725Y-18500D01*
X22725Y-18500D02*
X22725Y-17900D01*
X22725Y-17900D02*
X21475Y-17900D01*
X21475Y-17900D02*
X21475Y-18500D01*
X21900Y-19400D02*
X21900Y-20400D01*
X21900Y-20400D02*
X22500Y-20400D01*
X22500Y-20400D02*
X22500Y-19400D01*
X22500Y-19400D02*
X21900Y-19400D01*
X22850Y-17875D02*
X22850Y-19125D01*
X22850Y-19125D02*
X23550Y-19125D01*
X23550Y-19125D02*
X23550Y-17875D01*
X23550Y-17875D02*
X22850Y-17875D01*
X20600Y-22300D02*
X21600Y-22300D01*
X21600Y-22300D02*
X21600Y-21700D01*
X21600Y-21700D02*
X20600Y-21700D01*
X20600Y-21700D02*
X20600Y-22300D01*
X20400Y-17775D02*
X21000Y-17775D01*
X20400Y-17875D02*
X20400Y-19125D01*
X20400Y-19125D02*
X21000Y-19125D01*
X21000Y-19125D02*
X21000Y-17875D01*
X21000Y-17875D02*
X20400Y-17875D01*
X15174Y-20097D02*
X14546Y-20097D01*
X14546Y-20483D02*
X15174Y-20483D01*
X15173Y-20482D02*
X15182Y-20480D01*
X15190Y-20477D01*
X15198Y-20473D01*
X15205Y-20469D01*
X15213Y-20465D01*
X15219Y-20459D01*
X15226Y-20453D01*
X15231Y-20447D01*
X15237Y-20440D01*
X15241Y-20432D01*
X15245Y-20425D01*
X15248Y-20417D01*
X15251Y-20408D01*
X15252Y-20400D01*
X15253Y-20391D01*
X15253Y-20384D01*
X15253Y-20375D01*
X15252Y-20367D01*
X14468Y-20366D02*
X14466Y-20374D01*
X14466Y-20383D01*
X14466Y-20391D01*
X14467Y-20399D01*
X14468Y-20408D01*
X14471Y-20416D01*
X14474Y-20424D01*
X14478Y-20432D01*
X14482Y-20440D01*
X14487Y-20447D01*
X14493Y-20453D01*
X14499Y-20459D01*
X14506Y-20465D01*
X14513Y-20470D01*
X14521Y-20474D01*
X14529Y-20478D01*
X14537Y-20480D01*
X14546Y-20482D01*
X14547Y-20098D02*
X14538Y-20100D01*
X14530Y-20103D01*
X14522Y-20107D01*
X14515Y-20111D01*
X14507Y-20115D01*
X14501Y-20121D01*
X14494Y-20127D01*
X14489Y-20133D01*
X14483Y-20140D01*
X14479Y-20148D01*
X14475Y-20155D01*
X14472Y-20163D01*
X14469Y-20172D01*
X14468Y-20180D01*
X14467Y-20189D01*
X14467Y-20196D01*
X14467Y-20205D01*
X14468Y-20213D01*
X15252Y-20214D02*
X15254Y-20206D01*
X15254Y-20197D01*
X15254Y-20189D01*
X15253Y-20181D01*
X15252Y-20172D01*
X15249Y-20164D01*
X15246Y-20156D01*
X15242Y-20148D01*
X15238Y-20140D01*
X15233Y-20133D01*
X15227Y-20127D01*
X15221Y-20121D01*
X15214Y-20115D01*
X15207Y-20110D01*
X15199Y-20106D01*
X15191Y-20102D01*
X15183Y-20100D01*
X15174Y-20098D01*
X19550Y-17875D02*
X19550Y-19125D01*
X19550Y-19125D02*
X20250Y-19125D01*
X20250Y-19125D02*
X20250Y-17875D01*
X20250Y-17875D02*
X19550Y-17875D01*
X16875Y-18650D02*
X18125Y-18650D01*
X18125Y-18650D02*
X18125Y-17950D01*
X18125Y-17950D02*
X16875Y-17950D01*
X16875Y-17950D02*
X16875Y-18650D01*
X17586Y-19193D02*
X18214Y-19193D01*
X18214Y-18807D02*
X17586Y-18807D01*
X17587Y-18808D02*
X17578Y-18810D01*
X17570Y-18813D01*
X17562Y-18817D01*
X17555Y-18821D01*
X17547Y-18825D01*
X17541Y-18831D01*
X17534Y-18837D01*
X17529Y-18843D01*
X17523Y-18850D01*
X17519Y-18858D01*
X17515Y-18865D01*
X17512Y-18873D01*
X17509Y-18882D01*
X17508Y-18890D01*
X17507Y-18899D01*
X17507Y-18906D01*
X17507Y-18915D01*
X17508Y-18923D01*
X18292Y-18924D02*
X18294Y-18916D01*
X18294Y-18907D01*
X18294Y-18899D01*
X18293Y-18891D01*
X18292Y-18882D01*
X18289Y-18874D01*
X18286Y-18866D01*
X18282Y-18858D01*
X18278Y-18850D01*
X18273Y-18843D01*
X18267Y-18837D01*
X18261Y-18831D01*
X18254Y-18825D01*
X18247Y-18820D01*
X18239Y-18816D01*
X18231Y-18812D01*
X18223Y-18810D01*
X18214Y-18808D01*
X18213Y-19192D02*
X18222Y-19190D01*
X18230Y-19187D01*
X18238Y-19183D01*
X18245Y-19179D01*
X18253Y-19175D01*
X18259Y-19169D01*
X18266Y-19163D01*
X18271Y-19157D01*
X18277Y-19150D01*
X18281Y-19142D01*
X18285Y-19135D01*
X18288Y-19127D01*
X18291Y-19118D01*
X18292Y-19110D01*
X18293Y-19101D01*
X18293Y-19094D01*
X18293Y-19085D01*
X18292Y-19077D01*
X17508Y-19076D02*
X17506Y-19084D01*
X17506Y-19093D01*
X17506Y-19101D01*
X17507Y-19109D01*
X17508Y-19118D01*
X17511Y-19126D01*
X17514Y-19134D01*
X17518Y-19142D01*
X17522Y-19150D01*
X17527Y-19157D01*
X17533Y-19163D01*
X17539Y-19169D01*
X17546Y-19175D01*
X17553Y-19180D01*
X17561Y-19184D01*
X17569Y-19188D01*
X17577Y-19190D01*
X17586Y-19192D01*
X19900Y-19450D02*
X17900Y-19450D01*
X17900Y-19450D02*
X17900Y-20150D01*
X17900Y-20150D02*
X19900Y-20150D01*
X19900Y-20150D02*
X19900Y-19450D01*
X23700Y-20600D02*
X23700Y-19600D01*
X23700Y-19600D02*
X23100Y-19600D01*
X23100Y-19600D02*
X23100Y-20600D01*
X23100Y-20600D02*
X23700Y-20600D01*
G54D15*
G36*
X24503Y-20981D02*
X24517Y-20973D01*
X24548Y-20954D01*
X24592Y-20925D01*
X24644Y-20891D01*
X24696Y-20855D01*
X24739Y-20827D01*
X24769Y-20807D01*
X24781Y-20800D01*
X24788Y-20803D01*
X24813Y-20815D01*
X24848Y-20833D01*
X24869Y-20844D01*
X24902Y-20858D01*
X24919Y-20861D01*
X24921Y-20857D01*
X24933Y-20832D01*
X24952Y-20789D01*
X24977Y-20732D01*
X25006Y-20665D01*
X25036Y-20593D01*
X25067Y-20520D01*
X25096Y-20450D01*
X25121Y-20387D01*
X25142Y-20335D01*
X25156Y-20300D01*
X25161Y-20285D01*
X25159Y-20281D01*
X25143Y-20265D01*
X25114Y-20244D01*
X25052Y-20193D01*
X24990Y-20117D01*
X24953Y-20030D01*
X24940Y-19933D01*
X24951Y-19843D01*
X24986Y-19757D01*
X25046Y-19680D01*
X25119Y-19622D01*
X25204Y-19586D01*
X25300Y-19574D01*
X25391Y-19584D01*
X25479Y-19619D01*
X25557Y-19678D01*
X25590Y-19716D01*
X25635Y-19794D01*
X25660Y-19878D01*
X25663Y-19900D01*
X25659Y-19992D01*
X25632Y-20080D01*
X25583Y-20159D01*
X25516Y-20224D01*
X25507Y-20230D01*
X25476Y-20254D01*
X25455Y-20270D01*
X25438Y-20283D01*
X25556Y-20566D01*
X25575Y-20611D01*
X25607Y-20689D01*
X25635Y-20755D01*
X25658Y-20808D01*
X25674Y-20844D01*
X25681Y-20858D01*
X25681Y-20859D01*
X25692Y-20861D01*
X25713Y-20853D01*
X25753Y-20834D01*
X25779Y-20820D01*
X25809Y-20806D01*
X25823Y-20800D01*
X25834Y-20807D01*
X25863Y-20825D01*
X25905Y-20853D01*
X25956Y-20888D01*
X26004Y-20921D01*
X26048Y-20950D01*
X26080Y-20971D01*
X26096Y-20979D01*
X26098Y-20979D01*
X26112Y-20971D01*
X26138Y-20950D01*
X26176Y-20914D01*
X26231Y-20860D01*
X26239Y-20851D01*
X26284Y-20806D01*
X26320Y-20768D01*
X26345Y-20740D01*
X26354Y-20728D01*
X26354Y-20728D01*
X26346Y-20713D01*
X26325Y-20680D01*
X26296Y-20635D01*
X26260Y-20583D01*
X26166Y-20447D01*
X26218Y-20318D01*
X26234Y-20279D01*
X26254Y-20231D01*
X26269Y-20197D01*
X26276Y-20182D01*
X26290Y-20177D01*
X26325Y-20169D01*
X26376Y-20158D01*
X26437Y-20147D01*
X26495Y-20136D01*
X26547Y-20126D01*
X26585Y-20119D01*
X26602Y-20116D01*
X26606Y-20113D01*
X26610Y-20105D01*
X26612Y-20087D01*
X26613Y-20055D01*
X26614Y-20005D01*
X26614Y-19933D01*
X26614Y-19925D01*
X26613Y-19856D01*
X26612Y-19801D01*
X26610Y-19765D01*
X26608Y-19751D01*
X26608Y-19751D01*
X26591Y-19747D01*
X26554Y-19739D01*
X26502Y-19729D01*
X26440Y-19717D01*
X26436Y-19716D01*
X26374Y-19704D01*
X26321Y-19693D01*
X26285Y-19685D01*
X26270Y-19680D01*
X26266Y-19676D01*
X26254Y-19651D01*
X26236Y-19613D01*
X26215Y-19566D01*
X26195Y-19517D01*
X26178Y-19473D01*
X26166Y-19440D01*
X26162Y-19425D01*
X26162Y-19425D01*
X26172Y-19410D01*
X26193Y-19378D01*
X26223Y-19333D01*
X26260Y-19280D01*
X26262Y-19276D01*
X26298Y-19224D01*
X26327Y-19179D01*
X26346Y-19147D01*
X26354Y-19133D01*
X26353Y-19132D01*
X26342Y-19117D01*
X26315Y-19087D01*
X26277Y-19047D01*
X26231Y-19000D01*
X26216Y-18986D01*
X26165Y-18936D01*
X26129Y-18903D01*
X26107Y-18886D01*
X26097Y-18882D01*
X26096Y-18882D01*
X26080Y-18892D01*
X26047Y-18914D01*
X26002Y-18944D01*
X25949Y-18980D01*
X25945Y-18983D01*
X25893Y-19019D01*
X25849Y-19048D01*
X25818Y-19069D01*
X25804Y-19077D01*
X25802Y-19077D01*
X25780Y-19071D01*
X25743Y-19058D01*
X25697Y-19040D01*
X25648Y-19020D01*
X25604Y-19002D01*
X25571Y-18987D01*
X25556Y-18978D01*
X25555Y-18977D01*
X25550Y-18958D01*
X25541Y-18919D01*
X25529Y-18865D01*
X25517Y-18800D01*
X25515Y-18790D01*
X25503Y-18727D01*
X25493Y-18676D01*
X25486Y-18640D01*
X25482Y-18625D01*
X25473Y-18623D01*
X25443Y-18621D01*
X25396Y-18620D01*
X25340Y-18619D01*
X25280Y-18619D01*
X25222Y-18621D01*
X25173Y-18622D01*
X25137Y-18625D01*
X25122Y-18628D01*
X25122Y-18629D01*
X25116Y-18648D01*
X25108Y-18687D01*
X25097Y-18742D01*
X25084Y-18806D01*
X25082Y-18818D01*
X25070Y-18880D01*
X25060Y-18931D01*
X25052Y-18967D01*
X25048Y-18981D01*
X25043Y-18984D01*
X25017Y-18995D01*
X24975Y-19012D01*
X24923Y-19033D01*
X24803Y-19082D01*
X24655Y-18981D01*
X24642Y-18972D01*
X24589Y-18935D01*
X24545Y-18906D01*
X24515Y-18887D01*
X24502Y-18880D01*
X24501Y-18880D01*
X24486Y-18893D01*
X24457Y-18920D01*
X24417Y-18959D01*
X24371Y-19006D01*
X24336Y-19040D01*
X24296Y-19081D01*
X24270Y-19109D01*
X24256Y-19127D01*
X24251Y-19138D01*
X24252Y-19145D01*
X24262Y-19160D01*
X24283Y-19193D01*
X24314Y-19237D01*
X24350Y-19290D01*
X24379Y-19333D01*
X24411Y-19383D01*
X24432Y-19418D01*
X24439Y-19435D01*
X24437Y-19443D01*
X24427Y-19471D01*
X24410Y-19515D01*
X24387Y-19567D01*
X24336Y-19684D01*
X24260Y-19699D01*
X24213Y-19707D01*
X24148Y-19720D01*
X24086Y-19732D01*
X23989Y-19751D01*
X23986Y-20107D01*
X24001Y-20113D01*
X24015Y-20117D01*
X24051Y-20125D01*
X24102Y-20135D01*
X24163Y-20146D01*
X24214Y-20156D01*
X24266Y-20166D01*
X24304Y-20173D01*
X24320Y-20177D01*
X24324Y-20182D01*
X24337Y-20207D01*
X24356Y-20247D01*
X24376Y-20295D01*
X24397Y-20345D01*
X24415Y-20391D01*
X24428Y-20426D01*
X24433Y-20445D01*
X24426Y-20458D01*
X24406Y-20489D01*
X24378Y-20532D01*
X24342Y-20584D01*
X24307Y-20635D01*
X24277Y-20680D01*
X24257Y-20711D01*
X24248Y-20726D01*
X24252Y-20736D01*
X24273Y-20761D01*
X24312Y-20801D01*
X24370Y-20858D01*
X24379Y-20867D01*
X24425Y-20912D01*
X24464Y-20948D01*
X24491Y-20972D01*
X24503Y-20981D01*
X24503Y-20981D01*
G37*
G54D13*
X26100Y-18300D02*
X27100Y-18300D01*
X27100Y-18300D02*
X27100Y-17700D01*
X27100Y-17700D02*
X26100Y-17700D01*
X26100Y-17700D02*
X26100Y-18300D01*
X23700Y-18300D02*
X24700Y-18300D01*
X24700Y-18300D02*
X24700Y-17700D01*
X24700Y-17700D02*
X23700Y-17700D01*
X23700Y-17700D02*
X23700Y-18300D01*
X19500Y-19350D02*
X19500Y-17850D01*
X19500Y-17850D02*
X18300Y-17850D01*
X18300Y-17850D02*
X18300Y-19350D01*
X18300Y-19350D02*
X19500Y-19350D01*
X20600Y-19350D02*
X20600Y-20850D01*
X20600Y-20850D02*
X21800Y-20850D01*
X21800Y-20850D02*
X21800Y-19350D01*
X21800Y-19350D02*
X20600Y-19350D01*
G54D16*
X12021Y-21101D02*
X12128Y-21101D01*
X12149Y-21093D01*
X12164Y-21079D01*
X12171Y-21058D01*
X12171Y-21043D01*
X12035Y-21165D02*
X12028Y-21172D01*
X12021Y-21186D01*
X12021Y-21222D01*
X12028Y-21236D01*
X12035Y-21243D01*
X12049Y-21250D01*
X12064Y-21250D01*
X12085Y-21243D01*
X12171Y-21157D01*
X12171Y-21250D01*
G54D13*
X17370Y-19989D02*
X17370Y-20276D01*
X17353Y-20310D01*
X17336Y-20326D01*
X17302Y-20343D01*
X17235Y-20343D01*
X17201Y-20326D01*
X17184Y-20310D01*
X17167Y-20276D01*
X17167Y-19989D01*
X17016Y-20023D02*
X16999Y-20006D01*
X16965Y-19989D01*
X16881Y-19989D01*
X16847Y-20006D01*
X16830Y-20023D01*
X16813Y-20057D01*
X16813Y-20090D01*
X16830Y-20141D01*
X17032Y-20343D01*
X16813Y-20343D01*
X22661Y-18943D02*
X22661Y-18589D01*
X22576Y-18589D01*
X22526Y-18606D01*
X22492Y-18640D01*
X22475Y-18674D01*
X22458Y-18741D01*
X22458Y-18792D01*
X22475Y-18859D01*
X22492Y-18893D01*
X22526Y-18926D01*
X22576Y-18943D01*
X22661Y-18943D01*
X22340Y-18589D02*
X22121Y-18589D01*
X22239Y-18724D01*
X22189Y-18724D01*
X22155Y-18741D01*
X22138Y-18758D01*
X22121Y-18792D01*
X22121Y-18876D01*
X22138Y-18910D01*
X22155Y-18926D01*
X22189Y-18943D01*
X22290Y-18943D01*
X22324Y-18926D01*
X22340Y-18910D01*
X22258Y-19343D02*
X22376Y-19175D01*
X22461Y-19343D02*
X22461Y-18989D01*
X22326Y-18989D01*
X22292Y-19006D01*
X22275Y-19023D01*
X22258Y-19057D01*
X22258Y-19107D01*
X22275Y-19141D01*
X22292Y-19158D01*
X22326Y-19175D01*
X22461Y-19175D01*
X21955Y-18989D02*
X22022Y-18989D01*
X22056Y-19006D01*
X22073Y-19023D01*
X22107Y-19074D01*
X22124Y-19141D01*
X22124Y-19276D01*
X22107Y-19310D01*
X22090Y-19326D01*
X22056Y-19343D01*
X21989Y-19343D01*
X21955Y-19326D01*
X21938Y-19310D01*
X21921Y-19276D01*
X21921Y-19192D01*
X21938Y-19158D01*
X21955Y-19141D01*
X21989Y-19124D01*
X22056Y-19124D01*
X22090Y-19141D01*
X22107Y-19158D01*
X22124Y-19192D01*
X23958Y-18910D02*
X23975Y-18926D01*
X24026Y-18943D01*
X24060Y-18943D01*
X24110Y-18926D01*
X24144Y-18893D01*
X24161Y-18859D01*
X24178Y-18792D01*
X24178Y-18741D01*
X24161Y-18674D01*
X24144Y-18640D01*
X24110Y-18606D01*
X24060Y-18589D01*
X24026Y-18589D01*
X23975Y-18606D01*
X23958Y-18623D01*
X23790Y-18943D02*
X23722Y-18943D01*
X23689Y-18926D01*
X23672Y-18910D01*
X23638Y-18859D01*
X23621Y-18792D01*
X23621Y-18657D01*
X23638Y-18623D01*
X23655Y-18606D01*
X23689Y-18589D01*
X23756Y-18589D01*
X23790Y-18606D01*
X23807Y-18623D01*
X23824Y-18657D01*
X23824Y-18741D01*
X23807Y-18775D01*
X23790Y-18792D01*
X23756Y-18808D01*
X23689Y-18808D01*
X23655Y-18792D01*
X23638Y-18775D01*
X23621Y-18741D01*
X21277Y-21560D02*
X21294Y-21576D01*
X21345Y-21593D01*
X21379Y-21593D01*
X21429Y-21576D01*
X21463Y-21543D01*
X21480Y-21509D01*
X21497Y-21442D01*
X21497Y-21391D01*
X21480Y-21324D01*
X21463Y-21290D01*
X21429Y-21256D01*
X21379Y-21239D01*
X21345Y-21239D01*
X21294Y-21256D01*
X21277Y-21273D01*
X20940Y-21593D02*
X21143Y-21593D01*
X21041Y-21593D02*
X21041Y-21239D01*
X21075Y-21290D01*
X21109Y-21324D01*
X21143Y-21340D01*
X20721Y-21239D02*
X20688Y-21239D01*
X20654Y-21256D01*
X20637Y-21273D01*
X20620Y-21307D01*
X20603Y-21374D01*
X20603Y-21458D01*
X20620Y-21526D01*
X20637Y-21560D01*
X20654Y-21576D01*
X20688Y-21593D01*
X20721Y-21593D01*
X20755Y-21576D01*
X20772Y-21560D01*
X20789Y-21526D01*
X20806Y-21458D01*
X20806Y-21374D01*
X20789Y-21307D01*
X20772Y-21273D01*
X20755Y-21256D01*
X20721Y-21239D01*
X21661Y-19143D02*
X21661Y-18789D01*
X21576Y-18789D01*
X21526Y-18806D01*
X21492Y-18840D01*
X21475Y-18874D01*
X21458Y-18941D01*
X21458Y-18992D01*
X21475Y-19059D01*
X21492Y-19093D01*
X21526Y-19126D01*
X21576Y-19143D01*
X21661Y-19143D01*
X21324Y-18823D02*
X21307Y-18806D01*
X21273Y-18789D01*
X21189Y-18789D01*
X21155Y-18806D01*
X21138Y-18823D01*
X21121Y-18857D01*
X21121Y-18890D01*
X21138Y-18941D01*
X21340Y-19143D01*
X21121Y-19143D01*
X19958Y-17760D02*
X19975Y-17776D01*
X20026Y-17793D01*
X20060Y-17793D01*
X20110Y-17776D01*
X20144Y-17743D01*
X20161Y-17709D01*
X20178Y-17642D01*
X20178Y-17591D01*
X20161Y-17524D01*
X20144Y-17490D01*
X20110Y-17456D01*
X20060Y-17439D01*
X20026Y-17439D01*
X19975Y-17456D01*
X19958Y-17473D01*
X19840Y-17439D02*
X19604Y-17439D01*
X19756Y-17793D01*
X17208Y-19060D02*
X17225Y-19076D01*
X17276Y-19093D01*
X17310Y-19093D01*
X17360Y-19076D01*
X17394Y-19043D01*
X17411Y-19009D01*
X17428Y-18942D01*
X17428Y-18891D01*
X17411Y-18824D01*
X17394Y-18790D01*
X17360Y-18756D01*
X17310Y-18739D01*
X17276Y-18739D01*
X17225Y-18756D01*
X17208Y-18773D01*
X17006Y-18891D02*
X17040Y-18874D01*
X17057Y-18857D01*
X17074Y-18824D01*
X17074Y-18807D01*
X17057Y-18773D01*
X17040Y-18756D01*
X17006Y-18739D01*
X16939Y-18739D01*
X16905Y-18756D01*
X16888Y-18773D01*
X16871Y-18807D01*
X16871Y-18824D01*
X16888Y-18857D01*
X16905Y-18874D01*
X16939Y-18891D01*
X17006Y-18891D01*
X17040Y-18908D01*
X17057Y-18925D01*
X17074Y-18958D01*
X17074Y-19026D01*
X17057Y-19060D01*
X17040Y-19076D01*
X17006Y-19093D01*
X16939Y-19093D01*
X16905Y-19076D01*
X16888Y-19060D01*
X16871Y-19026D01*
X16871Y-18958D01*
X16888Y-18925D01*
X16905Y-18908D01*
X16939Y-18891D01*
X17659Y-19843D02*
X17828Y-19843D01*
X17828Y-19489D01*
X17558Y-19523D02*
X17541Y-19506D01*
X17507Y-19489D01*
X17423Y-19489D01*
X17389Y-19506D01*
X17372Y-19523D01*
X17355Y-19557D01*
X17355Y-19590D01*
X17372Y-19641D01*
X17574Y-19843D01*
X17355Y-19843D01*
X23459Y-21018D02*
X23628Y-21018D01*
X23628Y-20664D01*
X23155Y-21018D02*
X23358Y-21018D01*
X23256Y-21018D02*
X23256Y-20664D01*
X23290Y-20715D01*
X23324Y-20749D01*
X23358Y-20765D01*
X18670Y-17389D02*
X18670Y-17676D01*
X18653Y-17710D01*
X18636Y-17726D01*
X18602Y-17743D01*
X18535Y-17743D01*
X18501Y-17726D01*
X18484Y-17710D01*
X18467Y-17676D01*
X18467Y-17389D01*
X18147Y-17507D02*
X18147Y-17743D01*
X18231Y-17372D02*
X18316Y-17625D01*
X18096Y-17625D01*
X22170Y-20939D02*
X22170Y-21226D01*
X22153Y-21260D01*
X22136Y-21276D01*
X22102Y-21293D01*
X22035Y-21293D01*
X22001Y-21276D01*
X21984Y-21260D01*
X21967Y-21226D01*
X21967Y-20939D01*
X21832Y-20939D02*
X21613Y-20939D01*
X21731Y-21074D01*
X21681Y-21074D01*
X21647Y-21091D01*
X21630Y-21108D01*
X21613Y-21142D01*
X21613Y-21226D01*
X21630Y-21260D01*
X21647Y-21276D01*
X21681Y-21293D01*
X21782Y-21293D01*
X21816Y-21276D01*
X21832Y-21260D01*
%LPC*%
G54D17*
X11771Y-20000D03*
X11771Y-20255D03*
X11771Y-19489D03*
G54D18*
X10610Y-21516D03*
X10610Y-18484D03*
G54D17*
X11771Y-19745D03*
X11771Y-20511D03*
G54D19*
X11614Y-21220D03*
X11614Y-18780D03*
G54D20*
X10610Y-20472D03*
X10610Y-19528D03*
G54D21*
X28050Y-18000D03*
X27950Y-19000D03*
X28050Y-20000D03*
X27950Y-21000D03*
X28050Y-22000D03*
X29050Y-18000D03*
X28950Y-19000D03*
X29050Y-20000D03*
X28950Y-21000D03*
X29050Y-22000D03*
X16000Y-16950D03*
X17000Y-17050D03*
X18000Y-16950D03*
X19000Y-17050D03*
X20000Y-16950D03*
X21000Y-17050D03*
X22000Y-16950D03*
X23000Y-17050D03*
X24000Y-16950D03*
X25000Y-17050D03*
X26000Y-16950D03*
X27000Y-17050D03*
X28000Y-16950D03*
X29000Y-17050D03*
X16000Y-23050D03*
X17000Y-22950D03*
X18000Y-23050D03*
X19000Y-22950D03*
X20000Y-23050D03*
X21000Y-22950D03*
X22000Y-23050D03*
X23000Y-22950D03*
X24000Y-23050D03*
X25000Y-22950D03*
X26000Y-23050D03*
X27000Y-22950D03*
X28000Y-23050D03*
X29000Y-22950D03*
G54D22*
X14683Y-19890D03*
X15037Y-19890D03*
G54D23*
X14860Y-19890D03*
G54D22*
X14683Y-20690D03*
X15037Y-20690D03*
G54D23*
X14860Y-20690D03*
G54D24*
X19263Y-20650D03*
X19263Y-21150D03*
X19263Y-21650D03*
X19263Y-22150D03*
X17137Y-22150D03*
X17137Y-21650D03*
X17137Y-21150D03*
X17137Y-20650D03*
G54D25*
X20074Y-20650D03*
X20074Y-21150D03*
X20074Y-21650D03*
X20074Y-22150D03*
G54D26*
X21746Y-18200D03*
X22454Y-18200D03*
X22100Y-18200D03*
G54D27*
X22200Y-19600D03*
X22200Y-20200D03*
G54D28*
X23200Y-18125D03*
X23200Y-18875D03*
G54D29*
X20800Y-22000D03*
X21400Y-22000D03*
G54D30*
X20700Y-18146D03*
X20700Y-18854D03*
X20700Y-18500D03*
G54D22*
X14683Y-20290D03*
X15037Y-20290D03*
G54D23*
X14860Y-20290D03*
G54D31*
X25800Y-17900D03*
G54D21*
X15950Y-22000D03*
X16050Y-21000D03*
X15950Y-20000D03*
X16015Y-18960D03*
X15985Y-18040D03*
G54D31*
X25000Y-17900D03*
G54D28*
X19900Y-18125D03*
X19900Y-18875D03*
G54D32*
X17125Y-18300D03*
X17875Y-18300D03*
G54D31*
X22110Y-20670D03*
G54D22*
X18077Y-19000D03*
X17723Y-19000D03*
G54D23*
X17900Y-19000D03*
G54D32*
X19650Y-19800D03*
X18900Y-19800D03*
X18150Y-19800D03*
G54D33*
X19275Y-19800D03*
X18525Y-19800D03*
G54D27*
X23400Y-20400D03*
X23400Y-19800D03*
G54D34*
X23400Y-20100D03*
G54D29*
X26300Y-18000D03*
X26900Y-18000D03*
X23900Y-18000D03*
X24500Y-18000D03*
G54D35*
X18525Y-18100D03*
X19275Y-18100D03*
X18525Y-19100D03*
X18900Y-18100D03*
X19275Y-19100D03*
X21575Y-20600D03*
X20825Y-20600D03*
X21575Y-19600D03*
X21200Y-20600D03*
X20825Y-19600D03*
M02*
