G04 (created by PCBNEW-RS274X (2012-03-22 BZR 3475)-stable) date Tue 28 Aug 2012 02:22:45 AM CEST*
G01*
G70*
G90*
%MOIN*%
G04 Gerber Fmt 3.4, Leading zero omitted, Abs format*
%FSLAX34Y34*%
G04 APERTURE LIST*
%ADD10C,0.006000*%
%ADD11C,0.003900*%
%ADD12R,0.070700X0.098300*%
%ADD13R,0.035300X0.082800*%
%ADD14C,0.081800*%
%ADD15R,0.303000X0.066800*%
%ADD16R,0.263700X0.047100*%
%ADD17R,0.052800X0.032800*%
%ADD18R,0.032800X0.052800*%
%ADD19R,0.039200X0.039200*%
%ADD20R,0.017600X0.066800*%
%ADD21R,0.066800X0.017600*%
G04 APERTURE END LIST*
G54D10*
G54D11*
X15300Y-17630D02*
X15300Y-16300D01*
X15300Y-22374D02*
X15300Y-23700D01*
X29700Y-23700D02*
X15300Y-23700D01*
X29700Y-16300D02*
X29700Y-23700D01*
X15300Y-16300D02*
X29700Y-16300D01*
X10039Y-17630D02*
X15300Y-17630D01*
X10039Y-22374D02*
X15300Y-22374D01*
X10039Y-17630D02*
X10039Y-22374D01*
G54D12*
X26600Y-18460D03*
X26600Y-20940D03*
G54D13*
X24272Y-19300D03*
X23800Y-19300D03*
X23328Y-19300D03*
G54D14*
X28050Y-18000D03*
X27950Y-19000D03*
X28050Y-20000D03*
X27950Y-21000D03*
X28050Y-22000D03*
X16000Y-16950D03*
X17000Y-17050D03*
X18000Y-16950D03*
X19000Y-17050D03*
X20000Y-16950D03*
X21000Y-17050D03*
X22000Y-16950D03*
X23000Y-17050D03*
X24000Y-16950D03*
X25000Y-17050D03*
X26000Y-16950D03*
X27000Y-17050D03*
X28000Y-16950D03*
X29000Y-17050D03*
X16000Y-22950D03*
X17000Y-23050D03*
X18000Y-22992D03*
X19000Y-23050D03*
X20000Y-22950D03*
X21000Y-23050D03*
X22000Y-23050D03*
X23000Y-23050D03*
X24000Y-22950D03*
X25000Y-23050D03*
X26000Y-22950D03*
X27000Y-23050D03*
X28000Y-23050D03*
X29000Y-23050D03*
X29050Y-18000D03*
X28950Y-19000D03*
X29050Y-20000D03*
X28950Y-21000D03*
X29050Y-22000D03*
G54D15*
X11930Y-21377D03*
X11930Y-18623D03*
G54D16*
X12126Y-20393D03*
X12126Y-19607D03*
G54D17*
X17300Y-19700D03*
X17300Y-19100D03*
X18100Y-19700D03*
X18100Y-19100D03*
G54D18*
X17800Y-18600D03*
X17200Y-18600D03*
X17800Y-18000D03*
X17200Y-18000D03*
G54D17*
X18400Y-17900D03*
X18400Y-18500D03*
X19000Y-17900D03*
X19000Y-18500D03*
X23400Y-20500D03*
X23400Y-21100D03*
X25400Y-21100D03*
X25400Y-20500D03*
X24000Y-20500D03*
X24000Y-21100D03*
G54D19*
X24700Y-21095D03*
X24700Y-20505D03*
G54D20*
X21882Y-18308D03*
X21685Y-18308D03*
X21488Y-18308D03*
X21292Y-18308D03*
X21095Y-18308D03*
X20898Y-18308D03*
X20702Y-18308D03*
X20505Y-18308D03*
X20308Y-18308D03*
X20112Y-18308D03*
X19915Y-18308D03*
X19718Y-18308D03*
G54D21*
X19108Y-18918D03*
X19108Y-19115D03*
X19108Y-19312D03*
X19108Y-19508D03*
X19108Y-19705D03*
X19108Y-19902D03*
X19108Y-20098D03*
X19108Y-20295D03*
X19108Y-20492D03*
X19108Y-20688D03*
X19108Y-20885D03*
X19108Y-21082D03*
G54D20*
X19718Y-21692D03*
X19915Y-21692D03*
X20112Y-21692D03*
X20308Y-21692D03*
X20505Y-21692D03*
X20702Y-21692D03*
X20898Y-21692D03*
X21095Y-21692D03*
X21292Y-21692D03*
X21488Y-21692D03*
X21685Y-21692D03*
X21882Y-21692D03*
G54D21*
X22492Y-21082D03*
X22492Y-20885D03*
X22492Y-20688D03*
X22492Y-20492D03*
X22492Y-20295D03*
X22492Y-20098D03*
X22492Y-19902D03*
X22492Y-19705D03*
X22492Y-19508D03*
X22492Y-19312D03*
X22492Y-19115D03*
X22492Y-18918D03*
G54D14*
X15950Y-22000D03*
X16050Y-21000D03*
X15950Y-20000D03*
X16050Y-19000D03*
X15950Y-18000D03*
M02*
