G04 (created by PCBNEW-RS274X (2012-02-23 BZR 3434)-stable) date Fri 24 Feb 2012 10:42:39 AM CET*
G01*
G70*
G90*
%MOIN*%
G04 Gerber Fmt 3.4, Leading zero omitted, Abs format*
%FSLAX34Y34*%
G04 APERTURE LIST*
%ADD10C,0.006000*%
%ADD11C,0.009800*%
%ADD12C,0.005900*%
%ADD13C,0.003900*%
%ADD14C,0.008000*%
%ADD15C,0.004000*%
%ADD16R,0.037800X0.037800*%
%ADD17C,0.081800*%
%ADD18R,0.081800X0.081800*%
%ADD19R,0.106200X0.027400*%
%ADD20R,0.106200X0.086500*%
%ADD21C,0.043200*%
%ADD22R,0.052800X0.032800*%
%ADD23R,0.047200X0.031400*%
%ADD24R,0.027800X0.037800*%
%ADD25R,0.031800X0.094700*%
%ADD26R,0.032800X0.057800*%
%ADD27R,0.023500X0.057800*%
%ADD28R,0.052800X0.043200*%
%ADD29R,0.032800X0.052800*%
%ADD30R,0.043200X0.052800*%
%ADD31R,0.062800X0.042800*%
%ADD32R,0.070800X0.047200*%
%ADD33R,0.070800X0.125900*%
G04 APERTURE END LIST*
G54D10*
G54D11*
X23305Y-18339D02*
X23256Y-17945D01*
X23263Y-18001D02*
X23231Y-17973D01*
X23172Y-17945D01*
X23087Y-17945D01*
X23034Y-17973D01*
X23013Y-18029D01*
X23052Y-18339D01*
X23013Y-18029D02*
X22978Y-17973D01*
X22919Y-17945D01*
X22834Y-17945D01*
X22781Y-17973D01*
X22760Y-18029D01*
X22799Y-18339D01*
X22260Y-18311D02*
X22320Y-18339D01*
X22433Y-18339D01*
X22485Y-18311D01*
X22510Y-18282D01*
X22531Y-18226D01*
X22510Y-18057D01*
X22475Y-18001D01*
X22443Y-17973D01*
X22384Y-17945D01*
X22271Y-17945D01*
X22218Y-17973D01*
X22010Y-18339D02*
X21936Y-17748D01*
X21757Y-18339D02*
X21718Y-18029D01*
X21739Y-17973D01*
X21792Y-17945D01*
X21877Y-17945D01*
X21936Y-17973D01*
X21968Y-18001D01*
X21218Y-18311D02*
X21278Y-18339D01*
X21391Y-18339D01*
X21443Y-18311D01*
X21468Y-18282D01*
X21489Y-18226D01*
X21468Y-18057D01*
X21433Y-18001D01*
X21401Y-17973D01*
X21342Y-17945D01*
X21229Y-17945D01*
X21176Y-17973D01*
X20968Y-18339D02*
X20894Y-17748D01*
X20884Y-18114D02*
X20743Y-18339D01*
X20694Y-17945D02*
X20947Y-18170D01*
X20483Y-18282D02*
X20458Y-18311D01*
X20490Y-18339D01*
X20514Y-18311D01*
X20483Y-18282D01*
X20490Y-18339D01*
X20125Y-18339D02*
X20177Y-18311D01*
X20202Y-18282D01*
X20223Y-18226D01*
X20202Y-18057D01*
X20167Y-18001D01*
X20135Y-17973D01*
X20076Y-17945D01*
X19991Y-17945D01*
X19938Y-17973D01*
X19914Y-18001D01*
X19893Y-18057D01*
X19914Y-18226D01*
X19949Y-18282D01*
X19980Y-18311D01*
X20040Y-18339D01*
X20125Y-18339D01*
X19674Y-18339D02*
X19625Y-17945D01*
X19639Y-18057D02*
X19604Y-18001D01*
X19572Y-17973D01*
X19513Y-17945D01*
X19456Y-17945D01*
X19006Y-17945D02*
X19066Y-18423D01*
X19101Y-18479D01*
X19132Y-18508D01*
X19193Y-18536D01*
X19277Y-18536D01*
X19329Y-18508D01*
X19051Y-18311D02*
X19111Y-18339D01*
X19224Y-18339D01*
X19276Y-18311D01*
X19301Y-18282D01*
X19322Y-18226D01*
X19301Y-18057D01*
X19266Y-18001D01*
X19234Y-17973D01*
X19175Y-17945D01*
X19062Y-17945D01*
X19009Y-17973D01*
G54D12*
X24517Y-21443D02*
X24686Y-21443D01*
X24686Y-21089D01*
X24399Y-21443D02*
X24399Y-21207D01*
X24399Y-21089D02*
X24416Y-21106D01*
X24399Y-21123D01*
X24382Y-21106D01*
X24399Y-21089D01*
X24399Y-21123D01*
X24078Y-21426D02*
X24112Y-21443D01*
X24179Y-21443D01*
X24213Y-21426D01*
X24230Y-21410D01*
X24247Y-21376D01*
X24247Y-21275D01*
X24230Y-21241D01*
X24213Y-21224D01*
X24179Y-21207D01*
X24112Y-21207D01*
X24078Y-21224D01*
X23792Y-21426D02*
X23826Y-21443D01*
X23893Y-21443D01*
X23927Y-21426D01*
X23944Y-21393D01*
X23944Y-21258D01*
X23927Y-21224D01*
X23893Y-21207D01*
X23826Y-21207D01*
X23792Y-21224D01*
X23775Y-21258D01*
X23775Y-21292D01*
X23944Y-21325D01*
X23624Y-21207D02*
X23624Y-21443D01*
X23624Y-21241D02*
X23607Y-21224D01*
X23573Y-21207D01*
X23523Y-21207D01*
X23489Y-21224D01*
X23472Y-21258D01*
X23472Y-21443D01*
X23321Y-21426D02*
X23287Y-21443D01*
X23219Y-21443D01*
X23186Y-21426D01*
X23169Y-21393D01*
X23169Y-21376D01*
X23186Y-21342D01*
X23219Y-21325D01*
X23270Y-21325D01*
X23304Y-21308D01*
X23321Y-21275D01*
X23321Y-21258D01*
X23304Y-21224D01*
X23270Y-21207D01*
X23219Y-21207D01*
X23186Y-21224D01*
X22882Y-21426D02*
X22916Y-21443D01*
X22983Y-21443D01*
X23017Y-21426D01*
X23034Y-21393D01*
X23034Y-21258D01*
X23017Y-21224D01*
X22983Y-21207D01*
X22916Y-21207D01*
X22882Y-21224D01*
X22865Y-21258D01*
X22865Y-21292D01*
X23034Y-21325D01*
X22714Y-21410D02*
X22697Y-21426D01*
X22714Y-21443D01*
X22731Y-21426D01*
X22714Y-21410D01*
X22714Y-21443D01*
X22714Y-21224D02*
X22697Y-21241D01*
X22714Y-21258D01*
X22731Y-21241D01*
X22714Y-21224D01*
X22714Y-21258D01*
X25757Y-21964D02*
X25774Y-21980D01*
X25825Y-21997D01*
X25859Y-21997D01*
X25909Y-21980D01*
X25943Y-21947D01*
X25960Y-21913D01*
X25977Y-21846D01*
X25977Y-21795D01*
X25960Y-21728D01*
X25943Y-21694D01*
X25909Y-21660D01*
X25859Y-21643D01*
X25825Y-21643D01*
X25774Y-21660D01*
X25757Y-21677D01*
X25606Y-21812D02*
X25488Y-21812D01*
X25437Y-21997D02*
X25606Y-21997D01*
X25606Y-21643D01*
X25437Y-21643D01*
X25083Y-21997D02*
X25201Y-21829D01*
X25286Y-21997D02*
X25286Y-21643D01*
X25151Y-21643D01*
X25117Y-21660D01*
X25100Y-21677D01*
X25083Y-21711D01*
X25083Y-21761D01*
X25100Y-21795D01*
X25117Y-21812D01*
X25151Y-21829D01*
X25286Y-21829D01*
X24932Y-21997D02*
X24932Y-21643D01*
X24729Y-21997D01*
X24729Y-21643D01*
X24223Y-21643D02*
X24156Y-21643D01*
X24122Y-21660D01*
X24088Y-21694D01*
X24072Y-21761D01*
X24072Y-21879D01*
X24088Y-21947D01*
X24122Y-21980D01*
X24156Y-21997D01*
X24223Y-21997D01*
X24257Y-21980D01*
X24291Y-21947D01*
X24308Y-21879D01*
X24308Y-21761D01*
X24291Y-21694D01*
X24257Y-21660D01*
X24223Y-21643D01*
X23920Y-21997D02*
X23920Y-21643D01*
X23920Y-21812D02*
X23717Y-21812D01*
X23717Y-21997D02*
X23717Y-21643D01*
X23380Y-21997D02*
X23549Y-21997D01*
X23549Y-21643D01*
X23025Y-21761D02*
X22941Y-21997D01*
X22857Y-21761D01*
X22722Y-21964D02*
X22705Y-21980D01*
X22722Y-21997D01*
X22739Y-21980D01*
X22722Y-21964D01*
X22722Y-21997D01*
X22367Y-21997D02*
X22570Y-21997D01*
X22468Y-21997D02*
X22468Y-21643D01*
X22502Y-21694D01*
X22536Y-21728D01*
X22570Y-21744D01*
X22216Y-21964D02*
X22199Y-21980D01*
X22216Y-21997D01*
X22233Y-21980D01*
X22216Y-21964D01*
X22216Y-21997D01*
X21861Y-21997D02*
X22064Y-21997D01*
X21962Y-21997D02*
X21962Y-21643D01*
X21996Y-21694D01*
X22030Y-21728D01*
X22064Y-21744D01*
X21710Y-21862D02*
X21440Y-21862D01*
X21575Y-21997D02*
X21575Y-21728D01*
X22500Y-20000D02*
X22750Y-20250D01*
X22500Y-20000D02*
X22750Y-19750D01*
X22500Y-19350D02*
X22750Y-19600D01*
X22500Y-19350D02*
X22750Y-19100D01*
X22298Y-19358D02*
X22416Y-19358D01*
X22416Y-19543D02*
X22416Y-19189D01*
X22247Y-19189D01*
X21944Y-19543D02*
X22113Y-19543D01*
X22113Y-19189D01*
X21843Y-19442D02*
X21674Y-19442D01*
X21876Y-19543D02*
X21758Y-19189D01*
X21640Y-19543D01*
X21540Y-19526D02*
X21489Y-19543D01*
X21405Y-19543D01*
X21371Y-19526D01*
X21354Y-19510D01*
X21337Y-19476D01*
X21337Y-19442D01*
X21354Y-19408D01*
X21371Y-19392D01*
X21405Y-19375D01*
X21472Y-19358D01*
X21506Y-19341D01*
X21523Y-19324D01*
X21540Y-19290D01*
X21540Y-19257D01*
X21523Y-19223D01*
X21506Y-19206D01*
X21472Y-19189D01*
X21388Y-19189D01*
X21337Y-19206D01*
X21186Y-19543D02*
X21186Y-19189D01*
X21186Y-19358D02*
X20983Y-19358D01*
X20983Y-19543D02*
X20983Y-19189D01*
X22247Y-20168D02*
X22416Y-20168D01*
X22416Y-19814D01*
X22061Y-19814D02*
X21994Y-19814D01*
X21960Y-19831D01*
X21926Y-19865D01*
X21910Y-19932D01*
X21910Y-20050D01*
X21926Y-20118D01*
X21960Y-20151D01*
X21994Y-20168D01*
X22061Y-20168D01*
X22095Y-20151D01*
X22129Y-20118D01*
X22146Y-20050D01*
X22146Y-19932D01*
X22129Y-19865D01*
X22095Y-19831D01*
X22061Y-19814D01*
X21775Y-20067D02*
X21606Y-20067D01*
X21808Y-20168D02*
X21690Y-19814D01*
X21572Y-20168D01*
X21455Y-20168D02*
X21455Y-19814D01*
X21370Y-19814D01*
X21320Y-19831D01*
X21286Y-19865D01*
X21269Y-19899D01*
X21252Y-19966D01*
X21252Y-20017D01*
X21269Y-20084D01*
X21286Y-20118D01*
X21320Y-20151D01*
X21370Y-20168D01*
X21455Y-20168D01*
X21101Y-19983D02*
X20983Y-19983D01*
X20932Y-20168D02*
X21101Y-20168D01*
X21101Y-19814D01*
X20932Y-19814D01*
X20578Y-20168D02*
X20696Y-20000D01*
X20781Y-20168D02*
X20781Y-19814D01*
X20646Y-19814D01*
X20612Y-19831D01*
X20595Y-19848D01*
X20578Y-19882D01*
X20578Y-19932D01*
X20595Y-19966D01*
X20612Y-19983D01*
X20646Y-20000D01*
X20781Y-20000D01*
G54D13*
X15300Y-17630D02*
X15300Y-16300D01*
X15300Y-22374D02*
X15300Y-23700D01*
X29700Y-23700D02*
X15300Y-23700D01*
X29700Y-16300D02*
X29700Y-23700D01*
X15300Y-16300D02*
X29700Y-16300D01*
X10039Y-17630D02*
X15300Y-17630D01*
X10039Y-22374D02*
X15300Y-22374D01*
X10039Y-17630D02*
X10039Y-22374D01*
G54D12*
X18560Y-21810D02*
X18860Y-22260D01*
X18685Y-21310D02*
X18685Y-21610D01*
X18285Y-21210D02*
X18585Y-21210D01*
X18185Y-21610D02*
X18185Y-21310D01*
X18585Y-21710D02*
X18285Y-21710D01*
X18685Y-21310D02*
X18684Y-21302D01*
X18683Y-21293D01*
X18681Y-21285D01*
X18678Y-21276D01*
X18675Y-21268D01*
X18671Y-21261D01*
X18666Y-21253D01*
X18661Y-21246D01*
X18655Y-21240D01*
X18649Y-21234D01*
X18642Y-21229D01*
X18635Y-21224D01*
X18627Y-21220D01*
X18619Y-21217D01*
X18610Y-21214D01*
X18602Y-21212D01*
X18593Y-21211D01*
X18585Y-21210D01*
X18285Y-21210D02*
X18277Y-21211D01*
X18268Y-21212D01*
X18260Y-21214D01*
X18251Y-21217D01*
X18243Y-21220D01*
X18236Y-21224D01*
X18228Y-21229D01*
X18221Y-21234D01*
X18215Y-21240D01*
X18209Y-21246D01*
X18204Y-21253D01*
X18199Y-21261D01*
X18195Y-21268D01*
X18192Y-21276D01*
X18189Y-21285D01*
X18187Y-21293D01*
X18186Y-21302D01*
X18185Y-21310D01*
X18585Y-21710D02*
X18593Y-21709D01*
X18602Y-21708D01*
X18610Y-21706D01*
X18619Y-21703D01*
X18627Y-21700D01*
X18635Y-21696D01*
X18642Y-21691D01*
X18649Y-21686D01*
X18655Y-21680D01*
X18661Y-21674D01*
X18666Y-21667D01*
X18671Y-21659D01*
X18675Y-21652D01*
X18678Y-21644D01*
X18681Y-21635D01*
X18683Y-21627D01*
X18684Y-21618D01*
X18685Y-21610D01*
X18185Y-21610D02*
X18186Y-21618D01*
X18187Y-21627D01*
X18189Y-21635D01*
X18192Y-21644D01*
X18195Y-21652D01*
X18199Y-21660D01*
X18204Y-21667D01*
X18209Y-21674D01*
X18215Y-21680D01*
X18221Y-21686D01*
X18228Y-21691D01*
X18235Y-21696D01*
X18243Y-21700D01*
X18251Y-21703D01*
X18260Y-21706D01*
X18268Y-21708D01*
X18277Y-21709D01*
X18285Y-21710D01*
G54D14*
X13489Y-21496D02*
X14314Y-21496D01*
X15299Y-21220D02*
X15299Y-20866D01*
X15299Y-19134D02*
X15299Y-18780D01*
X14314Y-18504D02*
X13489Y-18504D01*
X11678Y-21496D02*
X11678Y-18504D01*
X11678Y-18504D02*
X12229Y-18504D01*
X11678Y-21496D02*
X12229Y-21496D01*
G54D12*
X18000Y-19600D02*
X18000Y-18600D01*
X18000Y-18600D02*
X17400Y-18600D01*
X17400Y-18600D02*
X17400Y-19600D01*
X17400Y-19600D02*
X18000Y-19600D01*
X18600Y-19600D02*
X18600Y-18600D01*
X18600Y-18600D02*
X18000Y-18600D01*
X18000Y-18600D02*
X18000Y-19600D01*
X18000Y-19600D02*
X18600Y-19600D01*
X17150Y-22255D02*
X17500Y-22255D01*
X17150Y-22255D02*
X17150Y-22130D01*
X17500Y-21555D02*
X17150Y-21555D01*
X17150Y-21555D02*
X17150Y-21680D01*
X17650Y-21955D02*
X17650Y-21855D01*
X17550Y-19650D02*
X17550Y-21150D01*
X17550Y-21150D02*
X18650Y-21150D01*
X18650Y-21150D02*
X18650Y-19650D01*
X18650Y-19650D02*
X17550Y-19650D01*
X25150Y-20850D02*
X27050Y-20850D01*
X27050Y-20850D02*
X27050Y-17750D01*
X27050Y-17750D02*
X25150Y-17750D01*
X25150Y-17750D02*
X25150Y-20850D01*
G54D15*
X25430Y-18910D02*
X25429Y-18917D01*
X25427Y-18924D01*
X25423Y-18931D01*
X25418Y-18937D01*
X25412Y-18942D01*
X25406Y-18945D01*
X25398Y-18948D01*
X25391Y-18948D01*
X25384Y-18948D01*
X25377Y-18946D01*
X25370Y-18942D01*
X25364Y-18937D01*
X25359Y-18932D01*
X25356Y-18925D01*
X25353Y-18918D01*
X25353Y-18910D01*
X25353Y-18903D01*
X25355Y-18896D01*
X25359Y-18889D01*
X25363Y-18883D01*
X25369Y-18878D01*
X25376Y-18875D01*
X25383Y-18872D01*
X25391Y-18872D01*
X25397Y-18872D01*
X25405Y-18874D01*
X25411Y-18878D01*
X25417Y-18882D01*
X25422Y-18888D01*
X25426Y-18895D01*
X25429Y-18902D01*
X25429Y-18909D01*
X25430Y-18910D01*
G54D12*
X19691Y-22073D02*
X20319Y-22073D01*
X20319Y-21287D02*
X19691Y-21287D01*
X19692Y-21288D02*
X19683Y-21290D01*
X19675Y-21293D01*
X19667Y-21297D01*
X19660Y-21301D01*
X19652Y-21305D01*
X19646Y-21311D01*
X19639Y-21317D01*
X19634Y-21323D01*
X19628Y-21330D01*
X19624Y-21338D01*
X19620Y-21345D01*
X19617Y-21353D01*
X19614Y-21362D01*
X19613Y-21370D01*
X19612Y-21379D01*
X19612Y-21386D01*
X19612Y-21395D01*
X19613Y-21403D01*
X20397Y-21404D02*
X20399Y-21396D01*
X20399Y-21387D01*
X20399Y-21379D01*
X20398Y-21371D01*
X20397Y-21362D01*
X20394Y-21354D01*
X20391Y-21346D01*
X20387Y-21338D01*
X20383Y-21330D01*
X20378Y-21323D01*
X20372Y-21317D01*
X20366Y-21311D01*
X20359Y-21305D01*
X20352Y-21300D01*
X20344Y-21296D01*
X20336Y-21292D01*
X20328Y-21290D01*
X20319Y-21288D01*
X20318Y-22072D02*
X20327Y-22070D01*
X20335Y-22067D01*
X20343Y-22063D01*
X20350Y-22059D01*
X20358Y-22055D01*
X20364Y-22049D01*
X20371Y-22043D01*
X20376Y-22037D01*
X20382Y-22030D01*
X20386Y-22022D01*
X20390Y-22015D01*
X20393Y-22007D01*
X20396Y-21998D01*
X20397Y-21990D01*
X20398Y-21981D01*
X20398Y-21974D01*
X20398Y-21965D01*
X20397Y-21957D01*
X19613Y-21956D02*
X19611Y-21964D01*
X19611Y-21973D01*
X19611Y-21981D01*
X19612Y-21989D01*
X19613Y-21998D01*
X19616Y-22006D01*
X19619Y-22014D01*
X19623Y-22022D01*
X19627Y-22030D01*
X19632Y-22037D01*
X19638Y-22043D01*
X19644Y-22049D01*
X19651Y-22055D01*
X19658Y-22060D01*
X19666Y-22064D01*
X19674Y-22068D01*
X19682Y-22070D01*
X19691Y-22072D01*
X18900Y-22000D02*
X19500Y-22000D01*
X19500Y-21900D02*
X19500Y-20900D01*
X19500Y-20900D02*
X18900Y-20900D01*
X18900Y-20900D02*
X18900Y-21900D01*
X18900Y-21900D02*
X19500Y-21900D01*
X23760Y-18815D02*
X24760Y-18815D01*
X24760Y-18815D02*
X24760Y-18215D01*
X24760Y-18215D02*
X23760Y-18215D01*
X23760Y-18215D02*
X23760Y-18815D01*
X17450Y-21425D02*
X17450Y-20175D01*
X17450Y-20175D02*
X16750Y-20175D01*
X16750Y-20175D02*
X16750Y-21425D01*
X16750Y-21425D02*
X17450Y-21425D01*
X23514Y-20630D02*
X23485Y-20630D01*
X23514Y-18780D02*
X23485Y-18780D01*
X22826Y-18780D02*
X22855Y-18780D01*
X22727Y-18878D02*
X22727Y-20532D01*
X23613Y-20532D02*
X23613Y-18878D01*
X22826Y-18780D02*
X22818Y-18781D01*
X22809Y-18782D01*
X22801Y-18784D01*
X22793Y-18786D01*
X22785Y-18790D01*
X22778Y-18794D01*
X22770Y-18798D01*
X22764Y-18803D01*
X22757Y-18809D01*
X22751Y-18816D01*
X22746Y-18822D01*
X22742Y-18830D01*
X22738Y-18837D01*
X22734Y-18845D01*
X22732Y-18853D01*
X22730Y-18861D01*
X22729Y-18870D01*
X22728Y-18878D01*
X22727Y-20532D02*
X22728Y-20540D01*
X22729Y-20549D01*
X22731Y-20557D01*
X22733Y-20565D01*
X22737Y-20573D01*
X22741Y-20581D01*
X22745Y-20588D01*
X22751Y-20595D01*
X22756Y-20602D01*
X22763Y-20607D01*
X22770Y-20613D01*
X22777Y-20617D01*
X22785Y-20621D01*
X22793Y-20625D01*
X22801Y-20627D01*
X22809Y-20629D01*
X22818Y-20630D01*
X22826Y-20631D01*
X23613Y-18878D02*
X23612Y-18870D01*
X23611Y-18861D01*
X23609Y-18853D01*
X23607Y-18845D01*
X23603Y-18837D01*
X23599Y-18829D01*
X23595Y-18822D01*
X23589Y-18815D01*
X23584Y-18808D01*
X23577Y-18803D01*
X23570Y-18797D01*
X23563Y-18793D01*
X23555Y-18789D01*
X23547Y-18785D01*
X23539Y-18783D01*
X23531Y-18781D01*
X23522Y-18780D01*
X23514Y-18779D01*
X23514Y-20630D02*
X23522Y-20629D01*
X23531Y-20628D01*
X23539Y-20626D01*
X23547Y-20624D01*
X23555Y-20620D01*
X23563Y-20616D01*
X23570Y-20612D01*
X23576Y-20607D01*
X23583Y-20601D01*
X23589Y-20594D01*
X23594Y-20588D01*
X23598Y-20580D01*
X23602Y-20573D01*
X23606Y-20565D01*
X23608Y-20557D01*
X23610Y-20549D01*
X23611Y-20540D01*
X23612Y-20532D01*
X24450Y-19750D02*
X24450Y-20750D01*
X24450Y-20750D02*
X25050Y-20750D01*
X25050Y-20750D02*
X25050Y-19750D01*
X25050Y-19750D02*
X24450Y-19750D01*
X21429Y-22435D02*
X21446Y-22451D01*
X21497Y-22468D01*
X21531Y-22468D01*
X21581Y-22451D01*
X21615Y-22418D01*
X21632Y-22384D01*
X21649Y-22317D01*
X21649Y-22266D01*
X21632Y-22199D01*
X21615Y-22165D01*
X21581Y-22131D01*
X21531Y-22114D01*
X21497Y-22114D01*
X21446Y-22131D01*
X21429Y-22148D01*
X21278Y-22468D02*
X21278Y-22114D01*
X21278Y-22283D02*
X21075Y-22283D01*
X21075Y-22468D02*
X21075Y-22114D01*
X20704Y-22468D02*
X20822Y-22300D01*
X20907Y-22468D02*
X20907Y-22114D01*
X20772Y-22114D01*
X20738Y-22131D01*
X20721Y-22148D01*
X20704Y-22182D01*
X20704Y-22232D01*
X20721Y-22266D01*
X20738Y-22283D01*
X20772Y-22300D01*
X20907Y-22300D01*
X20367Y-22131D02*
X20401Y-22114D01*
X20452Y-22114D01*
X20502Y-22131D01*
X20536Y-22165D01*
X20553Y-22199D01*
X20570Y-22266D01*
X20570Y-22317D01*
X20553Y-22384D01*
X20536Y-22418D01*
X20502Y-22451D01*
X20452Y-22468D01*
X20418Y-22468D01*
X20367Y-22451D01*
X20350Y-22435D01*
X20350Y-22317D01*
X20418Y-22317D01*
X20283Y-22502D02*
X20013Y-22502D01*
X19946Y-22451D02*
X19895Y-22468D01*
X19811Y-22468D01*
X19777Y-22451D01*
X19760Y-22435D01*
X19743Y-22401D01*
X19743Y-22367D01*
X19760Y-22333D01*
X19777Y-22317D01*
X19811Y-22300D01*
X19878Y-22283D01*
X19912Y-22266D01*
X19929Y-22249D01*
X19946Y-22215D01*
X19946Y-22182D01*
X19929Y-22148D01*
X19912Y-22131D01*
X19878Y-22114D01*
X19794Y-22114D01*
X19743Y-22131D01*
X19642Y-22114D02*
X19440Y-22114D01*
X19541Y-22468D02*
X19541Y-22114D01*
X19339Y-22367D02*
X19170Y-22367D01*
X19372Y-22468D02*
X19254Y-22114D01*
X19136Y-22468D01*
X19069Y-22114D02*
X18867Y-22114D01*
X18968Y-22468D02*
X18968Y-22114D01*
X27139Y-17480D02*
X27139Y-17699D01*
X27274Y-17564D01*
X27274Y-17614D01*
X27291Y-17646D01*
X27308Y-17660D01*
X27342Y-17673D01*
X27426Y-17663D01*
X27460Y-17641D01*
X27476Y-17622D01*
X27493Y-17586D01*
X27493Y-17485D01*
X27476Y-17453D01*
X27460Y-17439D01*
X27460Y-17809D02*
X27476Y-17824D01*
X27493Y-17805D01*
X27476Y-17790D01*
X27460Y-17809D01*
X27493Y-17805D01*
X27139Y-17986D02*
X27139Y-18205D01*
X27274Y-18070D01*
X27274Y-18120D01*
X27291Y-18152D01*
X27308Y-18166D01*
X27342Y-18179D01*
X27426Y-18169D01*
X27460Y-18147D01*
X27476Y-18128D01*
X27493Y-18092D01*
X27493Y-17991D01*
X27476Y-17959D01*
X27460Y-17945D01*
X27139Y-18306D02*
X27493Y-18379D01*
X27139Y-18542D01*
X27156Y-18905D02*
X27139Y-18874D01*
X27139Y-18823D01*
X27156Y-18770D01*
X27190Y-18732D01*
X27224Y-18711D01*
X27291Y-18686D01*
X27342Y-18679D01*
X27409Y-18688D01*
X27443Y-18701D01*
X27476Y-18730D01*
X27493Y-18778D01*
X27493Y-18812D01*
X27476Y-18865D01*
X27460Y-18884D01*
X27342Y-18899D01*
X27342Y-18831D01*
X27493Y-19031D02*
X27139Y-19076D01*
X27493Y-19234D01*
X27139Y-19279D01*
X27493Y-19402D02*
X27139Y-19447D01*
X27139Y-19532D01*
X27156Y-19579D01*
X27190Y-19609D01*
X27224Y-19622D01*
X27291Y-19631D01*
X27342Y-19624D01*
X27409Y-19599D01*
X27443Y-19578D01*
X27476Y-19539D01*
X27493Y-19487D01*
X27493Y-19402D01*
X27510Y-19881D02*
X27526Y-19896D01*
X27543Y-19877D01*
X27526Y-19862D01*
X27510Y-19881D01*
X27543Y-19877D01*
X27510Y-20050D02*
X27526Y-20065D01*
X27543Y-20046D01*
X27526Y-20031D01*
X27510Y-20050D01*
X27543Y-20046D01*
X27543Y-20215D02*
X27189Y-20260D01*
X27189Y-20497D02*
X27189Y-20564D01*
X27206Y-20595D01*
X27240Y-20625D01*
X27307Y-20633D01*
X27425Y-20618D01*
X27493Y-20594D01*
X27526Y-20555D01*
X27543Y-20519D01*
X27543Y-20452D01*
X27526Y-20420D01*
X27493Y-20391D01*
X27425Y-20382D01*
X27307Y-20397D01*
X27240Y-20422D01*
X27206Y-20460D01*
X27189Y-20497D01*
X27470Y-21326D02*
X27421Y-21343D01*
X27337Y-21343D01*
X27301Y-21326D01*
X27282Y-21310D01*
X27260Y-21276D01*
X27256Y-21242D01*
X27269Y-21208D01*
X27284Y-21192D01*
X27316Y-21175D01*
X27381Y-21158D01*
X27412Y-21141D01*
X27427Y-21124D01*
X27440Y-21090D01*
X27436Y-21057D01*
X27415Y-21023D01*
X27396Y-21006D01*
X27359Y-20989D01*
X27275Y-20989D01*
X27227Y-21006D01*
X27106Y-20989D02*
X27067Y-21343D01*
X26968Y-21090D01*
X26932Y-21343D01*
X26803Y-20989D01*
X26713Y-21343D02*
X26668Y-20989D01*
X26583Y-20989D01*
X26536Y-21006D01*
X26506Y-21040D01*
X26493Y-21074D01*
X26484Y-21141D01*
X26491Y-21192D01*
X26516Y-21259D01*
X26537Y-21293D01*
X26576Y-21326D01*
X26628Y-21343D01*
X26713Y-21343D01*
X26355Y-21310D02*
X26340Y-21326D01*
X26359Y-21343D01*
X26374Y-21326D01*
X26355Y-21310D01*
X26359Y-21343D01*
X26186Y-21310D02*
X26171Y-21326D01*
X26190Y-21343D01*
X26205Y-21326D01*
X26186Y-21310D01*
X26190Y-21343D01*
X25814Y-21310D02*
X25833Y-21326D01*
X25886Y-21343D01*
X25920Y-21343D01*
X25968Y-21326D01*
X25997Y-21293D01*
X26010Y-21259D01*
X26019Y-21192D01*
X26012Y-21141D01*
X25987Y-21074D01*
X25966Y-21040D01*
X25928Y-21006D01*
X25875Y-20989D01*
X25841Y-20989D01*
X25793Y-21006D01*
X25778Y-21023D01*
X25667Y-21343D02*
X25622Y-20989D01*
X25464Y-21343D02*
X25590Y-21141D01*
X25419Y-20989D02*
X25648Y-21192D01*
X27525Y-22193D02*
X27480Y-21839D01*
X27322Y-22193D01*
X27277Y-21839D01*
X26951Y-22193D02*
X27048Y-22025D01*
X27154Y-22193D02*
X27109Y-21839D01*
X26974Y-21839D01*
X26943Y-21856D01*
X26928Y-21873D01*
X26915Y-21907D01*
X26921Y-21957D01*
X26942Y-21991D01*
X26962Y-22008D01*
X26998Y-22025D01*
X27133Y-22025D01*
X26815Y-22176D02*
X26766Y-22193D01*
X26682Y-22193D01*
X26646Y-22176D01*
X26627Y-22160D01*
X26605Y-22126D01*
X26601Y-22092D01*
X26614Y-22058D01*
X26629Y-22042D01*
X26661Y-22025D01*
X26726Y-22008D01*
X26757Y-21991D01*
X26772Y-21974D01*
X26785Y-21940D01*
X26781Y-21907D01*
X26760Y-21873D01*
X26741Y-21856D01*
X26704Y-21839D01*
X26620Y-21839D01*
X26572Y-21856D01*
X26468Y-21839D02*
X26266Y-21839D01*
X26412Y-22193D02*
X26367Y-21839D01*
X17733Y-18493D02*
X17851Y-18325D01*
X17936Y-18493D02*
X17936Y-18139D01*
X17801Y-18139D01*
X17767Y-18156D01*
X17750Y-18173D01*
X17733Y-18207D01*
X17733Y-18257D01*
X17750Y-18291D01*
X17767Y-18308D01*
X17801Y-18325D01*
X17936Y-18325D01*
X17413Y-18139D02*
X17582Y-18139D01*
X17599Y-18308D01*
X17582Y-18291D01*
X17548Y-18274D01*
X17464Y-18274D01*
X17430Y-18291D01*
X17413Y-18308D01*
X17396Y-18342D01*
X17396Y-18426D01*
X17413Y-18460D01*
X17430Y-18476D01*
X17464Y-18493D01*
X17548Y-18493D01*
X17582Y-18476D01*
X17599Y-18460D01*
X18383Y-18493D02*
X18501Y-18325D01*
X18586Y-18493D02*
X18586Y-18139D01*
X18451Y-18139D01*
X18417Y-18156D01*
X18400Y-18173D01*
X18383Y-18207D01*
X18383Y-18257D01*
X18400Y-18291D01*
X18417Y-18308D01*
X18451Y-18325D01*
X18586Y-18325D01*
X18080Y-18139D02*
X18147Y-18139D01*
X18181Y-18156D01*
X18198Y-18173D01*
X18232Y-18224D01*
X18249Y-18291D01*
X18249Y-18426D01*
X18232Y-18460D01*
X18215Y-18476D01*
X18181Y-18493D01*
X18114Y-18493D01*
X18080Y-18476D01*
X18063Y-18460D01*
X18046Y-18426D01*
X18046Y-18342D01*
X18063Y-18308D01*
X18080Y-18291D01*
X18114Y-18274D01*
X18181Y-18274D01*
X18215Y-18291D01*
X18232Y-18308D01*
X18249Y-18342D01*
X18284Y-22477D02*
X18317Y-22460D01*
X18351Y-22426D01*
X18402Y-22376D01*
X18435Y-22359D01*
X18469Y-22359D01*
X18452Y-22443D02*
X18486Y-22426D01*
X18520Y-22393D01*
X18537Y-22325D01*
X18537Y-22207D01*
X18520Y-22140D01*
X18486Y-22106D01*
X18452Y-22089D01*
X18385Y-22089D01*
X18351Y-22106D01*
X18317Y-22140D01*
X18301Y-22207D01*
X18301Y-22325D01*
X18317Y-22393D01*
X18351Y-22426D01*
X18385Y-22443D01*
X18452Y-22443D01*
X17963Y-22443D02*
X18166Y-22443D01*
X18064Y-22443D02*
X18064Y-22089D01*
X18098Y-22140D01*
X18132Y-22174D01*
X18166Y-22190D01*
X19270Y-19714D02*
X19270Y-20001D01*
X19253Y-20035D01*
X19236Y-20051D01*
X19202Y-20068D01*
X19135Y-20068D01*
X19101Y-20051D01*
X19084Y-20035D01*
X19067Y-20001D01*
X19067Y-19714D01*
X18932Y-19714D02*
X18713Y-19714D01*
X18831Y-19849D01*
X18781Y-19849D01*
X18747Y-19866D01*
X18730Y-19883D01*
X18713Y-19917D01*
X18713Y-20001D01*
X18730Y-20035D01*
X18747Y-20051D01*
X18781Y-20068D01*
X18882Y-20068D01*
X18916Y-20051D01*
X18932Y-20035D01*
X24639Y-18980D02*
X24926Y-18980D01*
X24960Y-18997D01*
X24976Y-19014D01*
X24993Y-19048D01*
X24993Y-19115D01*
X24976Y-19149D01*
X24960Y-19166D01*
X24926Y-19183D01*
X24639Y-19183D01*
X24673Y-19334D02*
X24656Y-19351D01*
X24639Y-19385D01*
X24639Y-19469D01*
X24656Y-19503D01*
X24673Y-19520D01*
X24707Y-19537D01*
X24740Y-19537D01*
X24791Y-19520D01*
X24993Y-19318D01*
X24993Y-19537D01*
X21829Y-20983D02*
X21711Y-20983D01*
X21660Y-21168D02*
X21829Y-21168D01*
X21829Y-20814D01*
X21660Y-20814D01*
X21509Y-21168D02*
X21509Y-20814D01*
X21306Y-21168D01*
X21306Y-20814D01*
X21222Y-21202D02*
X20952Y-21202D01*
X20918Y-20814D02*
X20800Y-21168D01*
X20682Y-20814D01*
X20362Y-21168D02*
X20480Y-21000D01*
X20565Y-21168D02*
X20565Y-20814D01*
X20430Y-20814D01*
X20396Y-20831D01*
X20379Y-20848D01*
X20362Y-20882D01*
X20362Y-20932D01*
X20379Y-20966D01*
X20396Y-20983D01*
X20430Y-21000D01*
X20565Y-21000D01*
X20228Y-21067D02*
X20059Y-21067D01*
X20261Y-21168D02*
X20143Y-20814D01*
X20025Y-21168D01*
X19941Y-20814D02*
X19857Y-21168D01*
X19790Y-20915D01*
X19722Y-21168D01*
X19638Y-20814D01*
X19461Y-20793D02*
X19461Y-20439D01*
X19376Y-20439D01*
X19326Y-20456D01*
X19292Y-20490D01*
X19275Y-20524D01*
X19258Y-20591D01*
X19258Y-20642D01*
X19275Y-20709D01*
X19292Y-20743D01*
X19326Y-20776D01*
X19376Y-20793D01*
X19461Y-20793D01*
X19124Y-20473D02*
X19107Y-20456D01*
X19073Y-20439D01*
X18989Y-20439D01*
X18955Y-20456D01*
X18938Y-20473D01*
X18921Y-20507D01*
X18921Y-20540D01*
X18938Y-20591D01*
X19140Y-20793D01*
X18921Y-20793D01*
X24559Y-18093D02*
X24728Y-18093D01*
X24728Y-17739D01*
X24255Y-18093D02*
X24458Y-18093D01*
X24356Y-18093D02*
X24356Y-17739D01*
X24390Y-17790D01*
X24424Y-17824D01*
X24458Y-17840D01*
X17158Y-20035D02*
X17175Y-20051D01*
X17226Y-20068D01*
X17260Y-20068D01*
X17310Y-20051D01*
X17344Y-20018D01*
X17361Y-19984D01*
X17378Y-19917D01*
X17378Y-19866D01*
X17361Y-19799D01*
X17344Y-19765D01*
X17310Y-19731D01*
X17260Y-19714D01*
X17226Y-19714D01*
X17175Y-19731D01*
X17158Y-19748D01*
X16855Y-19714D02*
X16922Y-19714D01*
X16956Y-19731D01*
X16973Y-19748D01*
X17007Y-19799D01*
X17024Y-19866D01*
X17024Y-20001D01*
X17007Y-20035D01*
X16990Y-20051D01*
X16956Y-20068D01*
X16889Y-20068D01*
X16855Y-20051D01*
X16838Y-20035D01*
X16821Y-20001D01*
X16821Y-19917D01*
X16838Y-19883D01*
X16855Y-19866D01*
X16889Y-19849D01*
X16956Y-19849D01*
X16990Y-19866D01*
X17007Y-19883D01*
X17024Y-19917D01*
X24310Y-19973D02*
X24326Y-19956D01*
X24343Y-19905D01*
X24343Y-19871D01*
X24326Y-19821D01*
X24293Y-19787D01*
X24259Y-19770D01*
X24192Y-19753D01*
X24141Y-19753D01*
X24074Y-19770D01*
X24040Y-19787D01*
X24006Y-19821D01*
X23989Y-19871D01*
X23989Y-19905D01*
X24006Y-19956D01*
X24023Y-19973D01*
X24343Y-20310D02*
X24343Y-20107D01*
X24343Y-20209D02*
X23989Y-20209D01*
X24040Y-20175D01*
X24074Y-20141D01*
X24090Y-20107D01*
X23989Y-20529D02*
X23989Y-20562D01*
X24006Y-20596D01*
X24023Y-20613D01*
X24057Y-20630D01*
X24124Y-20647D01*
X24208Y-20647D01*
X24276Y-20630D01*
X24310Y-20613D01*
X24326Y-20596D01*
X24343Y-20562D01*
X24343Y-20529D01*
X24326Y-20495D01*
X24310Y-20478D01*
X24276Y-20461D01*
X24208Y-20444D01*
X24124Y-20444D01*
X24057Y-20461D01*
X24023Y-20478D01*
X24006Y-20495D01*
X23989Y-20529D01*
%LPC*%
G54D16*
X18435Y-21460D03*
G54D17*
X29050Y-18000D03*
X28950Y-19000D03*
X29050Y-20000D03*
X28950Y-21000D03*
X29050Y-22000D03*
X16000Y-22950D03*
X17000Y-23050D03*
X18000Y-22992D03*
X19000Y-23050D03*
X20000Y-22950D03*
X21000Y-23050D03*
X22000Y-23050D03*
X23000Y-23050D03*
X24000Y-22950D03*
X25000Y-23050D03*
X26000Y-22950D03*
X27000Y-23050D03*
X28000Y-23050D03*
X29000Y-23050D03*
X16000Y-16950D03*
X17000Y-17050D03*
X18000Y-16950D03*
X19000Y-17050D03*
X20000Y-16950D03*
X21000Y-17050D03*
X22000Y-16950D03*
X23000Y-17050D03*
X24000Y-16950D03*
X25000Y-17050D03*
X26000Y-16950D03*
X27000Y-17050D03*
X28000Y-16950D03*
X29000Y-17050D03*
G54D18*
X16000Y-21000D03*
G54D17*
X16000Y-20000D03*
X16000Y-19000D03*
X16000Y-18000D03*
X28050Y-18000D03*
X27950Y-19000D03*
X28050Y-20000D03*
X27950Y-21000D03*
X28050Y-22000D03*
X16000Y-22000D03*
G54D19*
X14984Y-20000D03*
X14984Y-20314D03*
X14984Y-19371D03*
X14984Y-19686D03*
G54D20*
X12819Y-21771D03*
X14984Y-21771D03*
X12819Y-18229D03*
X14984Y-18229D03*
G54D19*
X14984Y-20629D03*
G54D21*
X14000Y-20866D03*
X14000Y-19134D03*
G54D22*
X17700Y-19400D03*
X17700Y-18800D03*
X18300Y-19400D03*
X18300Y-18800D03*
G54D23*
X17774Y-22161D03*
X17774Y-21649D03*
X17026Y-21905D03*
G54D24*
X18475Y-20900D03*
X17725Y-20900D03*
X18475Y-19900D03*
X18100Y-20900D03*
X17725Y-19900D03*
G54D25*
X25350Y-18270D03*
X25850Y-18270D03*
X26350Y-18270D03*
X26850Y-18270D03*
X26850Y-20330D03*
X26350Y-20330D03*
X25850Y-20330D03*
X25350Y-20330D03*
G54D26*
X20182Y-21680D03*
X19828Y-21680D03*
G54D27*
X20005Y-21680D03*
G54D22*
X19200Y-21700D03*
X19200Y-21100D03*
G54D28*
X19200Y-21400D03*
G54D29*
X23960Y-18515D03*
X24560Y-18515D03*
G54D30*
X24260Y-18515D03*
G54D31*
X17100Y-21175D03*
X17100Y-20425D03*
G54D32*
X23170Y-20335D03*
X23170Y-19705D03*
X23170Y-19075D03*
G54D33*
X23170Y-19705D03*
G54D22*
X24750Y-19950D03*
X24750Y-20550D03*
M02*
