G04 (created by PCBNEW-RS274X (2012-02-23 BZR 3434)-stable) date Sat 25 Feb 2012 03:31:27 AM CET*
G01*
G70*
G90*
%MOIN*%
G04 Gerber Fmt 3.4, Leading zero omitted, Abs format*
%FSLAX34Y34*%
G04 APERTURE LIST*
%ADD10C,0.006000*%
%ADD11C,0.005900*%
%ADD12C,0.003900*%
%ADD13C,0.008000*%
%ADD14C,0.007800*%
%ADD15C,0.081800*%
%ADD16R,0.081800X0.081800*%
%ADD17R,0.303000X0.066800*%
%ADD18R,0.263700X0.047100*%
%ADD19C,0.043200*%
%ADD20R,0.052800X0.032800*%
%ADD21R,0.032800X0.052800*%
%ADD22R,0.027800X0.037800*%
%ADD23R,0.039200X0.039200*%
%ADD24R,0.074700X0.035300*%
%ADD25R,0.066800X0.017600*%
%ADD26R,0.017600X0.066800*%
%ADD27R,0.047200X0.064900*%
G04 APERTURE END LIST*
G54D10*
G54D11*
X22888Y-18543D02*
X22933Y-18189D01*
X23019Y-18442D01*
X23169Y-18189D01*
X23124Y-18543D01*
X23500Y-18510D02*
X23481Y-18526D01*
X23428Y-18543D01*
X23394Y-18543D01*
X23346Y-18526D01*
X23317Y-18493D01*
X23304Y-18459D01*
X23295Y-18392D01*
X23302Y-18341D01*
X23327Y-18274D01*
X23348Y-18240D01*
X23386Y-18206D01*
X23439Y-18189D01*
X23473Y-18189D01*
X23521Y-18206D01*
X23536Y-18223D01*
X23917Y-18543D02*
X23962Y-18189D01*
X23940Y-18358D02*
X24143Y-18358D01*
X24120Y-18543D02*
X24165Y-18189D01*
X24495Y-18510D02*
X24476Y-18526D01*
X24423Y-18543D01*
X24389Y-18543D01*
X24341Y-18526D01*
X24312Y-18493D01*
X24299Y-18459D01*
X24290Y-18392D01*
X24297Y-18341D01*
X24322Y-18274D01*
X24343Y-18240D01*
X24381Y-18206D01*
X24434Y-18189D01*
X24468Y-18189D01*
X24516Y-18206D01*
X24531Y-18223D01*
X24642Y-18543D02*
X24687Y-18189D01*
X24845Y-18543D02*
X24719Y-18341D01*
X24890Y-18189D02*
X24661Y-18392D01*
X25000Y-18510D02*
X25015Y-18526D01*
X24996Y-18543D01*
X24981Y-18526D01*
X25000Y-18510D01*
X24996Y-18543D01*
X25013Y-18408D02*
X25021Y-18206D01*
X25041Y-18189D01*
X25055Y-18206D01*
X25013Y-18408D01*
X25041Y-18189D01*
X14643Y-21265D02*
X14407Y-21235D01*
X14441Y-21239D02*
X14424Y-21220D01*
X14407Y-21184D01*
X14407Y-21134D01*
X14424Y-21102D01*
X14458Y-21090D01*
X14643Y-21113D01*
X14458Y-21090D02*
X14424Y-21068D01*
X14407Y-21032D01*
X14407Y-20982D01*
X14424Y-20950D01*
X14458Y-20938D01*
X14643Y-20961D01*
X14626Y-20639D02*
X14643Y-20675D01*
X14643Y-20742D01*
X14626Y-20774D01*
X14610Y-20789D01*
X14576Y-20801D01*
X14475Y-20789D01*
X14441Y-20767D01*
X14424Y-20748D01*
X14407Y-20712D01*
X14407Y-20645D01*
X14424Y-20613D01*
X14643Y-20490D02*
X14289Y-20445D01*
X14643Y-20338D02*
X14458Y-20315D01*
X14424Y-20327D01*
X14407Y-20359D01*
X14407Y-20409D01*
X14424Y-20445D01*
X14441Y-20464D01*
X14626Y-20016D02*
X14643Y-20052D01*
X14643Y-20119D01*
X14626Y-20151D01*
X14610Y-20166D01*
X14576Y-20178D01*
X14475Y-20166D01*
X14441Y-20144D01*
X14424Y-20125D01*
X14407Y-20089D01*
X14407Y-20022D01*
X14424Y-19990D01*
X14643Y-19867D02*
X14289Y-19822D01*
X14508Y-19816D02*
X14643Y-19732D01*
X14407Y-19702D02*
X14542Y-19854D01*
X14610Y-19576D02*
X14626Y-19561D01*
X14643Y-19580D01*
X14626Y-19595D01*
X14610Y-19576D01*
X14643Y-19580D01*
X14643Y-19360D02*
X14626Y-19392D01*
X14610Y-19407D01*
X14576Y-19419D01*
X14475Y-19407D01*
X14441Y-19385D01*
X14424Y-19366D01*
X14407Y-19330D01*
X14407Y-19280D01*
X14424Y-19248D01*
X14441Y-19233D01*
X14475Y-19221D01*
X14576Y-19233D01*
X14610Y-19255D01*
X14626Y-19274D01*
X14643Y-19310D01*
X14643Y-19360D01*
X14643Y-19091D02*
X14407Y-19061D01*
X14475Y-19070D02*
X14441Y-19048D01*
X14424Y-19029D01*
X14407Y-18993D01*
X14407Y-18960D01*
X14407Y-18690D02*
X14694Y-18726D01*
X14728Y-18747D01*
X14744Y-18766D01*
X14761Y-18802D01*
X14761Y-18853D01*
X14744Y-18884D01*
X14626Y-18718D02*
X14643Y-18754D01*
X14643Y-18821D01*
X14626Y-18853D01*
X14610Y-18868D01*
X14576Y-18880D01*
X14475Y-18868D01*
X14441Y-18846D01*
X14424Y-18827D01*
X14407Y-18791D01*
X14407Y-18724D01*
X14424Y-18692D01*
G54D12*
X15300Y-17630D02*
X15300Y-16300D01*
X15300Y-22374D02*
X15300Y-23700D01*
X29700Y-23700D02*
X15300Y-23700D01*
X29700Y-16300D02*
X29700Y-23700D01*
X15300Y-16300D02*
X29700Y-16300D01*
X10039Y-17630D02*
X15300Y-17630D01*
X10039Y-22374D02*
X15300Y-22374D01*
X10039Y-17630D02*
X10039Y-22374D01*
G54D11*
X25875Y-17450D02*
X25900Y-17400D01*
X26600Y-17475D02*
X26725Y-17450D01*
X26725Y-17450D02*
X26750Y-17425D01*
X28650Y-17475D02*
X28750Y-17450D01*
X28750Y-17450D02*
X28775Y-17425D01*
X27675Y-17450D02*
X27800Y-17400D01*
X27800Y-17400D02*
X27825Y-17375D01*
X25750Y-17500D02*
X25875Y-17450D01*
X16700Y-17500D02*
X16500Y-17250D01*
X16500Y-17250D02*
X16400Y-17175D01*
X17525Y-17525D02*
X17475Y-17325D01*
X17475Y-17325D02*
X17400Y-17250D01*
X17450Y-22625D02*
X17400Y-22800D01*
X17400Y-22800D02*
X17375Y-22825D01*
X27525Y-22675D02*
X27550Y-22800D01*
X27550Y-22800D02*
X27600Y-22875D01*
X28500Y-22700D02*
X28550Y-22825D01*
X28550Y-22825D02*
X28600Y-22875D01*
X16425Y-22275D02*
X16250Y-22550D01*
X28900Y-19500D02*
X29075Y-19475D01*
X29075Y-19475D02*
X29075Y-19425D01*
X28900Y-21500D02*
X29075Y-21475D01*
X29075Y-21475D02*
X29075Y-21425D01*
X28725Y-20525D02*
X29025Y-20475D01*
X29025Y-20475D02*
X29050Y-20450D01*
X28800Y-18500D02*
X29025Y-18500D01*
X29025Y-18500D02*
X29050Y-18450D01*
X28250Y-21520D02*
X27700Y-21500D01*
X28620Y-21880D02*
X28250Y-21520D01*
X17590Y-18525D02*
X17590Y-19525D01*
X17590Y-19525D02*
X16990Y-19525D01*
X16990Y-19525D02*
X16990Y-18525D01*
X16990Y-18525D02*
X17590Y-18525D01*
X18190Y-18525D02*
X18190Y-19525D01*
X18190Y-19525D02*
X17590Y-19525D01*
X17590Y-19525D02*
X17590Y-18525D01*
X17590Y-18525D02*
X18190Y-18525D01*
X20000Y-18600D02*
X19000Y-18600D01*
X19000Y-18600D02*
X19000Y-18000D01*
X19000Y-18000D02*
X20000Y-18000D01*
X20000Y-18000D02*
X20000Y-18600D01*
X16800Y-19930D02*
X17800Y-19930D01*
X17800Y-19930D02*
X17800Y-20530D01*
X17800Y-20530D02*
X16800Y-20530D01*
X16800Y-20530D02*
X16800Y-19930D01*
X17980Y-20690D02*
X17980Y-19690D01*
X17980Y-19690D02*
X18580Y-19690D01*
X18580Y-19690D02*
X18580Y-20690D01*
X18580Y-20690D02*
X17980Y-20690D01*
X18100Y-22100D02*
X18100Y-21100D01*
X18100Y-21100D02*
X18700Y-21100D01*
X18700Y-21100D02*
X18700Y-22100D01*
X18700Y-22100D02*
X18100Y-22100D01*
X20000Y-22000D02*
X19000Y-22000D01*
X19000Y-22000D02*
X19000Y-21400D01*
X19000Y-21400D02*
X20000Y-21400D01*
X20000Y-21400D02*
X20000Y-22000D01*
X17950Y-20650D02*
X17950Y-22150D01*
X17950Y-22150D02*
X16850Y-22150D01*
X16850Y-22150D02*
X16850Y-20650D01*
X16850Y-20650D02*
X17950Y-20650D01*
X22700Y-21400D02*
X23700Y-21400D01*
X23700Y-21400D02*
X23700Y-22000D01*
X23700Y-22000D02*
X22700Y-22000D01*
X22700Y-22000D02*
X22700Y-21400D01*
X23550Y-19330D02*
X24550Y-19330D01*
X24550Y-19330D02*
X24550Y-19930D01*
X24550Y-19930D02*
X23550Y-19930D01*
X23550Y-19930D02*
X23550Y-19330D01*
X26000Y-20400D02*
X26000Y-21400D01*
X26000Y-21400D02*
X25400Y-21400D01*
X25400Y-21400D02*
X25400Y-20400D01*
X25400Y-20400D02*
X26000Y-20400D01*
X26600Y-20400D02*
X26600Y-21400D01*
X26600Y-21400D02*
X26000Y-21400D01*
X26000Y-21400D02*
X26000Y-20400D01*
X26000Y-20400D02*
X26600Y-20400D01*
X26600Y-21400D02*
X26600Y-20400D01*
X26600Y-20400D02*
X27200Y-20400D01*
X27200Y-20400D02*
X27200Y-21400D01*
X27200Y-21400D02*
X26600Y-21400D01*
X26540Y-21640D02*
X26660Y-21700D01*
X26660Y-21700D02*
X26540Y-21760D01*
X26540Y-21760D02*
X26540Y-21640D01*
X26075Y-21450D02*
X27125Y-21450D01*
X27125Y-21450D02*
X27125Y-21950D01*
X27125Y-21950D02*
X26075Y-21950D01*
X26075Y-21950D02*
X26075Y-21450D01*
X24300Y-21685D02*
X24300Y-20305D01*
X24300Y-20305D02*
X25120Y-20305D01*
X25120Y-20305D02*
X25120Y-21685D01*
X25120Y-21685D02*
X24300Y-21685D01*
X22570Y-18701D02*
X22649Y-18780D01*
X22649Y-18780D02*
X22649Y-21220D01*
X22649Y-21220D02*
X22570Y-21299D01*
X22570Y-21299D02*
X20130Y-21299D01*
X20130Y-21299D02*
X20051Y-21220D01*
X20130Y-18701D02*
X22570Y-18701D01*
X20051Y-21220D02*
X20051Y-18780D01*
X22570Y-18661D02*
X22689Y-18780D01*
X20011Y-18780D02*
X20130Y-18661D01*
X20130Y-21339D02*
X20011Y-21220D01*
X22570Y-21339D02*
X22689Y-21220D01*
G54D13*
X23083Y-21458D02*
X23082Y-21465D01*
X23079Y-21473D01*
X23076Y-21480D01*
X23071Y-21486D01*
X23064Y-21491D01*
X23057Y-21495D01*
X23050Y-21498D01*
X23042Y-21498D01*
X23035Y-21498D01*
X23027Y-21496D01*
X23020Y-21492D01*
X23014Y-21487D01*
X23009Y-21481D01*
X23005Y-21474D01*
X23002Y-21466D01*
X23002Y-21458D01*
X23002Y-21451D01*
X23004Y-21443D01*
X23008Y-21436D01*
X23013Y-21430D01*
X23019Y-21425D01*
X23026Y-21421D01*
X23034Y-21418D01*
X23042Y-21418D01*
X23049Y-21418D01*
X23056Y-21420D01*
X23063Y-21424D01*
X23070Y-21429D01*
X23075Y-21435D01*
X23079Y-21442D01*
X23081Y-21449D01*
X23082Y-21457D01*
X23083Y-21458D01*
G54D14*
X22349Y-20925D02*
X22347Y-20935D01*
X22344Y-20945D01*
X22339Y-20955D01*
X22333Y-20963D01*
X22324Y-20970D01*
X22315Y-20975D01*
X22305Y-20978D01*
X22294Y-20979D01*
X22284Y-20979D01*
X22274Y-20975D01*
X22264Y-20971D01*
X22256Y-20964D01*
X22249Y-20956D01*
X22244Y-20946D01*
X22241Y-20936D01*
X22240Y-20925D01*
X22240Y-20916D01*
X22243Y-20905D01*
X22248Y-20896D01*
X22255Y-20887D01*
X22263Y-20880D01*
X22272Y-20875D01*
X22283Y-20872D01*
X22293Y-20871D01*
X22303Y-20871D01*
X22313Y-20874D01*
X22323Y-20879D01*
X22331Y-20886D01*
X22338Y-20894D01*
X22344Y-20903D01*
X22347Y-20913D01*
X22348Y-20924D01*
X22349Y-20925D01*
G54D11*
X25772Y-20368D02*
X25772Y-17632D01*
X27228Y-17632D02*
X27228Y-20368D01*
X27228Y-20368D02*
X25772Y-20368D01*
X25772Y-17632D02*
X27228Y-17632D01*
X16615Y-17843D02*
X16412Y-17843D01*
X16514Y-17843D02*
X16559Y-17489D01*
X16518Y-17540D01*
X16480Y-17574D01*
X16444Y-17590D01*
X16980Y-17489D02*
X16811Y-17489D01*
X16772Y-17658D01*
X16792Y-17641D01*
X16828Y-17624D01*
X16912Y-17624D01*
X16944Y-17641D01*
X16958Y-17658D01*
X16971Y-17692D01*
X16961Y-17776D01*
X16939Y-17810D01*
X16920Y-17826D01*
X16884Y-17843D01*
X16800Y-17843D01*
X16768Y-17826D01*
X16753Y-17810D01*
X17415Y-17843D02*
X17212Y-17843D01*
X17314Y-17843D02*
X17359Y-17489D01*
X17318Y-17540D01*
X17280Y-17574D01*
X17244Y-17590D01*
X17748Y-17607D02*
X17718Y-17843D01*
X17681Y-17472D02*
X17564Y-17725D01*
X17784Y-17725D01*
X18215Y-17843D02*
X18012Y-17843D01*
X18114Y-17843D02*
X18159Y-17489D01*
X18118Y-17540D01*
X18080Y-17574D01*
X18044Y-17590D01*
X18378Y-17489D02*
X18597Y-17489D01*
X18462Y-17624D01*
X18512Y-17624D01*
X18544Y-17641D01*
X18558Y-17658D01*
X18571Y-17692D01*
X18561Y-17776D01*
X18539Y-17810D01*
X18520Y-17826D01*
X18484Y-17843D01*
X18383Y-17843D01*
X18351Y-17826D01*
X18337Y-17810D01*
X19015Y-17843D02*
X18812Y-17843D01*
X18914Y-17843D02*
X18959Y-17489D01*
X18918Y-17540D01*
X18880Y-17574D01*
X18844Y-17590D01*
X19189Y-17523D02*
X19208Y-17506D01*
X19245Y-17489D01*
X19329Y-17489D01*
X19360Y-17506D01*
X19375Y-17523D01*
X19388Y-17557D01*
X19384Y-17590D01*
X19361Y-17641D01*
X19133Y-17843D01*
X19352Y-17843D01*
X19815Y-17843D02*
X19612Y-17843D01*
X19714Y-17843D02*
X19759Y-17489D01*
X19718Y-17540D01*
X19680Y-17574D01*
X19644Y-17590D01*
X20152Y-17843D02*
X19949Y-17843D01*
X20051Y-17843D02*
X20096Y-17489D01*
X20055Y-17540D01*
X20017Y-17574D01*
X19981Y-17590D01*
X20593Y-17658D02*
X20642Y-17675D01*
X20657Y-17692D01*
X20670Y-17725D01*
X20664Y-17776D01*
X20642Y-17810D01*
X20623Y-17826D01*
X20587Y-17843D01*
X20452Y-17843D01*
X20497Y-17489D01*
X20615Y-17489D01*
X20646Y-17506D01*
X20661Y-17523D01*
X20674Y-17557D01*
X20670Y-17590D01*
X20649Y-17624D01*
X20630Y-17641D01*
X20593Y-17658D01*
X20475Y-17658D01*
X20992Y-17843D02*
X20789Y-17843D01*
X20891Y-17843D02*
X20936Y-17489D01*
X20895Y-17540D01*
X20857Y-17574D01*
X20821Y-17590D01*
X21256Y-17489D02*
X21289Y-17489D01*
X21320Y-17506D01*
X21335Y-17523D01*
X21348Y-17557D01*
X21357Y-17624D01*
X21346Y-17708D01*
X21321Y-17776D01*
X21299Y-17810D01*
X21280Y-17826D01*
X21244Y-17843D01*
X21211Y-17843D01*
X21179Y-17826D01*
X21164Y-17810D01*
X21152Y-17776D01*
X21143Y-17708D01*
X21154Y-17624D01*
X21179Y-17557D01*
X21200Y-17523D01*
X21219Y-17506D01*
X21256Y-17489D01*
X21742Y-17742D02*
X21911Y-17742D01*
X21696Y-17843D02*
X21859Y-17489D01*
X21932Y-17843D01*
X22061Y-17489D02*
X22297Y-17489D01*
X22100Y-17843D01*
X22742Y-17742D02*
X22911Y-17742D01*
X22696Y-17843D02*
X22859Y-17489D01*
X22932Y-17843D01*
X23246Y-17489D02*
X23179Y-17489D01*
X23142Y-17506D01*
X23123Y-17523D01*
X23083Y-17574D01*
X23058Y-17641D01*
X23041Y-17776D01*
X23053Y-17810D01*
X23068Y-17826D01*
X23100Y-17843D01*
X23167Y-17843D01*
X23203Y-17826D01*
X23222Y-17810D01*
X23244Y-17776D01*
X23254Y-17692D01*
X23241Y-17658D01*
X23227Y-17641D01*
X23195Y-17624D01*
X23128Y-17624D01*
X23092Y-17641D01*
X23072Y-17658D01*
X23051Y-17692D01*
X23742Y-17742D02*
X23911Y-17742D01*
X23696Y-17843D02*
X23859Y-17489D01*
X23932Y-17843D01*
X24263Y-17489D02*
X24094Y-17489D01*
X24055Y-17658D01*
X24075Y-17641D01*
X24111Y-17624D01*
X24195Y-17624D01*
X24227Y-17641D01*
X24241Y-17658D01*
X24254Y-17692D01*
X24244Y-17776D01*
X24222Y-17810D01*
X24203Y-17826D01*
X24167Y-17843D01*
X24083Y-17843D01*
X24051Y-17826D01*
X24036Y-17810D01*
X24692Y-17742D02*
X24861Y-17742D01*
X24646Y-17843D02*
X24809Y-17489D01*
X24882Y-17843D01*
X25181Y-17607D02*
X25151Y-17843D01*
X25114Y-17472D02*
X24997Y-17725D01*
X25217Y-17725D01*
X25510Y-17389D02*
X25729Y-17389D01*
X25594Y-17524D01*
X25644Y-17524D01*
X25676Y-17541D01*
X25690Y-17558D01*
X25703Y-17592D01*
X25693Y-17676D01*
X25671Y-17710D01*
X25652Y-17726D01*
X25616Y-17743D01*
X25515Y-17743D01*
X25483Y-17726D01*
X25469Y-17710D01*
X26421Y-17223D02*
X26440Y-17206D01*
X26477Y-17189D01*
X26561Y-17189D01*
X26592Y-17206D01*
X26607Y-17223D01*
X26620Y-17257D01*
X26616Y-17290D01*
X26593Y-17341D01*
X26365Y-17543D01*
X26584Y-17543D01*
X27684Y-17543D02*
X27481Y-17543D01*
X27583Y-17543D02*
X27628Y-17189D01*
X27587Y-17240D01*
X27549Y-17274D01*
X27513Y-17290D01*
X28511Y-17189D02*
X28544Y-17189D01*
X28575Y-17206D01*
X28590Y-17223D01*
X28603Y-17257D01*
X28612Y-17324D01*
X28601Y-17408D01*
X28576Y-17476D01*
X28554Y-17510D01*
X28535Y-17526D01*
X28499Y-17543D01*
X28466Y-17543D01*
X28434Y-17526D01*
X28419Y-17510D01*
X28407Y-17476D01*
X28398Y-17408D01*
X28409Y-17324D01*
X28434Y-17257D01*
X28455Y-17223D01*
X28474Y-17206D01*
X28511Y-17189D01*
X16439Y-22645D02*
X16439Y-22426D01*
X16574Y-22561D01*
X16574Y-22511D01*
X16591Y-22479D01*
X16608Y-22465D01*
X16642Y-22452D01*
X16726Y-22462D01*
X16760Y-22484D01*
X16776Y-22503D01*
X16793Y-22539D01*
X16793Y-22640D01*
X16776Y-22672D01*
X16760Y-22686D01*
X16760Y-22316D02*
X16776Y-22301D01*
X16793Y-22320D01*
X16776Y-22335D01*
X16760Y-22316D01*
X16793Y-22320D01*
X16439Y-22139D02*
X16439Y-21920D01*
X16574Y-22055D01*
X16574Y-22005D01*
X16591Y-21973D01*
X16608Y-21959D01*
X16642Y-21946D01*
X16726Y-21956D01*
X16760Y-21978D01*
X16776Y-21997D01*
X16793Y-22033D01*
X16793Y-22134D01*
X16776Y-22166D01*
X16760Y-22180D01*
X16439Y-21819D02*
X16793Y-21746D01*
X16439Y-21583D01*
X17055Y-22256D02*
X17024Y-22239D01*
X16973Y-22239D01*
X16920Y-22256D01*
X16882Y-22290D01*
X16861Y-22324D01*
X16836Y-22391D01*
X16829Y-22442D01*
X16838Y-22509D01*
X16851Y-22543D01*
X16880Y-22576D01*
X16928Y-22593D01*
X16962Y-22593D01*
X17015Y-22576D01*
X17034Y-22560D01*
X17049Y-22442D01*
X16981Y-22442D01*
X17181Y-22593D02*
X17226Y-22239D01*
X17384Y-22593D01*
X17429Y-22239D01*
X17552Y-22593D02*
X17597Y-22239D01*
X17682Y-22239D01*
X17729Y-22256D01*
X17759Y-22290D01*
X17772Y-22324D01*
X17781Y-22391D01*
X17774Y-22442D01*
X17749Y-22509D01*
X17728Y-22543D01*
X17689Y-22576D01*
X17637Y-22593D01*
X17552Y-22593D01*
X18042Y-22442D02*
X18211Y-22442D01*
X17996Y-22543D02*
X18159Y-22189D01*
X18232Y-22543D01*
X18426Y-22341D02*
X18394Y-22324D01*
X18379Y-22307D01*
X18366Y-22274D01*
X18368Y-22257D01*
X18389Y-22223D01*
X18408Y-22206D01*
X18445Y-22189D01*
X18512Y-22189D01*
X18543Y-22206D01*
X18558Y-22223D01*
X18571Y-22257D01*
X18569Y-22274D01*
X18548Y-22307D01*
X18529Y-22324D01*
X18493Y-22341D01*
X18426Y-22341D01*
X18389Y-22358D01*
X18370Y-22375D01*
X18349Y-22408D01*
X18341Y-22476D01*
X18353Y-22510D01*
X18368Y-22526D01*
X18400Y-22543D01*
X18467Y-22543D01*
X18503Y-22526D01*
X18522Y-22510D01*
X18544Y-22476D01*
X18552Y-22408D01*
X18539Y-22375D01*
X18524Y-22358D01*
X18493Y-22341D01*
X18792Y-22442D02*
X18961Y-22442D01*
X18746Y-22543D02*
X18909Y-22189D01*
X18982Y-22543D01*
X19116Y-22543D02*
X19184Y-22543D01*
X19219Y-22526D01*
X19238Y-22510D01*
X19279Y-22459D01*
X19304Y-22392D01*
X19321Y-22257D01*
X19308Y-22223D01*
X19293Y-22206D01*
X19262Y-22189D01*
X19195Y-22189D01*
X19158Y-22206D01*
X19139Y-22223D01*
X19118Y-22257D01*
X19108Y-22341D01*
X19120Y-22375D01*
X19135Y-22392D01*
X19167Y-22408D01*
X19234Y-22408D01*
X19270Y-22392D01*
X19289Y-22375D01*
X19311Y-22341D01*
X19574Y-22392D02*
X19743Y-22392D01*
X19528Y-22493D02*
X19691Y-22139D01*
X19764Y-22493D01*
X20067Y-22493D02*
X19864Y-22493D01*
X19966Y-22493D02*
X20011Y-22139D01*
X19970Y-22190D01*
X19932Y-22224D01*
X19896Y-22240D01*
X20331Y-22139D02*
X20364Y-22139D01*
X20395Y-22156D01*
X20410Y-22173D01*
X20423Y-22207D01*
X20432Y-22274D01*
X20421Y-22358D01*
X20396Y-22426D01*
X20374Y-22460D01*
X20355Y-22476D01*
X20319Y-22493D01*
X20286Y-22493D01*
X20254Y-22476D01*
X20239Y-22460D01*
X20227Y-22426D01*
X20218Y-22358D01*
X20229Y-22274D01*
X20254Y-22207D01*
X20275Y-22173D01*
X20294Y-22156D01*
X20331Y-22139D01*
X20862Y-22358D02*
X20911Y-22375D01*
X20926Y-22392D01*
X20939Y-22425D01*
X20933Y-22476D01*
X20911Y-22510D01*
X20892Y-22526D01*
X20856Y-22543D01*
X20721Y-22543D01*
X20766Y-22189D01*
X20884Y-22189D01*
X20915Y-22206D01*
X20930Y-22223D01*
X20943Y-22257D01*
X20939Y-22290D01*
X20918Y-22324D01*
X20899Y-22341D01*
X20862Y-22358D01*
X20744Y-22358D01*
X21261Y-22543D02*
X21058Y-22543D01*
X21160Y-22543D02*
X21205Y-22189D01*
X21164Y-22240D01*
X21126Y-22274D01*
X21090Y-22290D01*
X21862Y-22358D02*
X21911Y-22375D01*
X21926Y-22392D01*
X21939Y-22425D01*
X21933Y-22476D01*
X21911Y-22510D01*
X21892Y-22526D01*
X21856Y-22543D01*
X21721Y-22543D01*
X21766Y-22189D01*
X21884Y-22189D01*
X21915Y-22206D01*
X21930Y-22223D01*
X21943Y-22257D01*
X21939Y-22290D01*
X21918Y-22324D01*
X21899Y-22341D01*
X21862Y-22358D01*
X21744Y-22358D01*
X22188Y-22189D02*
X22221Y-22189D01*
X22252Y-22206D01*
X22267Y-22223D01*
X22280Y-22257D01*
X22289Y-22324D01*
X22278Y-22408D01*
X22253Y-22476D01*
X22231Y-22510D01*
X22212Y-22526D01*
X22176Y-22543D01*
X22143Y-22543D01*
X22111Y-22526D01*
X22096Y-22510D01*
X22084Y-22476D01*
X22075Y-22408D01*
X22086Y-22324D01*
X22111Y-22257D01*
X22132Y-22223D01*
X22151Y-22206D01*
X22188Y-22189D01*
X22862Y-22358D02*
X22911Y-22375D01*
X22926Y-22392D01*
X22939Y-22425D01*
X22933Y-22476D01*
X22911Y-22510D01*
X22892Y-22526D01*
X22856Y-22543D01*
X22721Y-22543D01*
X22766Y-22189D01*
X22884Y-22189D01*
X22915Y-22206D01*
X22930Y-22223D01*
X22943Y-22257D01*
X22939Y-22290D01*
X22918Y-22324D01*
X22899Y-22341D01*
X22862Y-22358D01*
X22744Y-22358D01*
X23272Y-22189D02*
X23205Y-22189D01*
X23168Y-22206D01*
X23149Y-22223D01*
X23109Y-22274D01*
X23084Y-22341D01*
X23067Y-22476D01*
X23079Y-22510D01*
X23094Y-22526D01*
X23126Y-22543D01*
X23193Y-22543D01*
X23229Y-22526D01*
X23248Y-22510D01*
X23270Y-22476D01*
X23280Y-22392D01*
X23267Y-22358D01*
X23253Y-22341D01*
X23221Y-22324D01*
X23154Y-22324D01*
X23118Y-22341D01*
X23098Y-22358D01*
X23077Y-22392D01*
X23862Y-22358D02*
X23911Y-22375D01*
X23926Y-22392D01*
X23939Y-22425D01*
X23933Y-22476D01*
X23911Y-22510D01*
X23892Y-22526D01*
X23856Y-22543D01*
X23721Y-22543D01*
X23766Y-22189D01*
X23884Y-22189D01*
X23915Y-22206D01*
X23930Y-22223D01*
X23943Y-22257D01*
X23939Y-22290D01*
X23918Y-22324D01*
X23899Y-22341D01*
X23862Y-22358D01*
X23744Y-22358D01*
X24087Y-22189D02*
X24323Y-22189D01*
X24126Y-22543D01*
X24712Y-22358D02*
X24761Y-22375D01*
X24776Y-22392D01*
X24789Y-22425D01*
X24783Y-22476D01*
X24761Y-22510D01*
X24742Y-22526D01*
X24706Y-22543D01*
X24571Y-22543D01*
X24616Y-22189D01*
X24734Y-22189D01*
X24765Y-22206D01*
X24780Y-22223D01*
X24793Y-22257D01*
X24789Y-22290D01*
X24768Y-22324D01*
X24749Y-22341D01*
X24712Y-22358D01*
X24594Y-22358D01*
X25002Y-22341D02*
X24970Y-22324D01*
X24955Y-22307D01*
X24942Y-22274D01*
X24944Y-22257D01*
X24965Y-22223D01*
X24984Y-22206D01*
X25021Y-22189D01*
X25088Y-22189D01*
X25119Y-22206D01*
X25134Y-22223D01*
X25147Y-22257D01*
X25145Y-22274D01*
X25124Y-22307D01*
X25105Y-22324D01*
X25069Y-22341D01*
X25002Y-22341D01*
X24965Y-22358D01*
X24946Y-22375D01*
X24925Y-22408D01*
X24917Y-22476D01*
X24929Y-22510D01*
X24944Y-22526D01*
X24976Y-22543D01*
X25043Y-22543D01*
X25079Y-22526D01*
X25098Y-22510D01*
X25120Y-22476D01*
X25128Y-22408D01*
X25115Y-22375D01*
X25100Y-22358D01*
X25069Y-22341D01*
X25562Y-22358D02*
X25611Y-22375D01*
X25626Y-22392D01*
X25639Y-22425D01*
X25633Y-22476D01*
X25611Y-22510D01*
X25592Y-22526D01*
X25556Y-22543D01*
X25421Y-22543D01*
X25466Y-22189D01*
X25584Y-22189D01*
X25615Y-22206D01*
X25630Y-22223D01*
X25643Y-22257D01*
X25639Y-22290D01*
X25618Y-22324D01*
X25599Y-22341D01*
X25562Y-22358D01*
X25444Y-22358D01*
X25792Y-22543D02*
X25860Y-22543D01*
X25895Y-22526D01*
X25914Y-22510D01*
X25955Y-22459D01*
X25980Y-22392D01*
X25997Y-22257D01*
X25984Y-22223D01*
X25969Y-22206D01*
X25938Y-22189D01*
X25871Y-22189D01*
X25834Y-22206D01*
X25815Y-22223D01*
X25794Y-22257D01*
X25784Y-22341D01*
X25796Y-22375D01*
X25811Y-22392D01*
X25843Y-22408D01*
X25910Y-22408D01*
X25946Y-22392D01*
X25965Y-22375D01*
X25987Y-22341D01*
X26409Y-22510D02*
X26390Y-22526D01*
X26337Y-22543D01*
X26303Y-22543D01*
X26255Y-22526D01*
X26226Y-22493D01*
X26213Y-22459D01*
X26204Y-22392D01*
X26211Y-22341D01*
X26236Y-22274D01*
X26257Y-22240D01*
X26295Y-22206D01*
X26348Y-22189D01*
X26382Y-22189D01*
X26430Y-22206D01*
X26445Y-22223D01*
X26742Y-22543D02*
X26539Y-22543D01*
X26641Y-22543D02*
X26686Y-22189D01*
X26645Y-22240D01*
X26607Y-22274D01*
X26571Y-22290D01*
X26905Y-22189D02*
X27124Y-22189D01*
X26989Y-22324D01*
X27039Y-22324D01*
X27071Y-22341D01*
X27085Y-22358D01*
X27098Y-22392D01*
X27088Y-22476D01*
X27066Y-22510D01*
X27047Y-22526D01*
X27011Y-22543D01*
X26910Y-22543D01*
X26878Y-22526D01*
X26864Y-22510D01*
X27465Y-22643D02*
X27262Y-22643D01*
X27364Y-22643D02*
X27409Y-22289D01*
X27368Y-22340D01*
X27330Y-22374D01*
X27294Y-22390D01*
X27798Y-22407D02*
X27768Y-22643D01*
X27731Y-22272D02*
X27614Y-22525D01*
X27834Y-22525D01*
X28415Y-22693D02*
X28212Y-22693D01*
X28314Y-22693D02*
X28359Y-22339D01*
X28318Y-22390D01*
X28280Y-22424D01*
X28244Y-22440D01*
X28780Y-22339D02*
X28611Y-22339D01*
X28572Y-22508D01*
X28592Y-22491D01*
X28628Y-22474D01*
X28712Y-22474D01*
X28744Y-22491D01*
X28758Y-22508D01*
X28771Y-22542D01*
X28761Y-22626D01*
X28739Y-22660D01*
X28720Y-22676D01*
X28684Y-22693D01*
X28600Y-22693D01*
X28568Y-22676D01*
X28553Y-22660D01*
X28591Y-18686D02*
X28447Y-18830D01*
X28520Y-18758D02*
X28301Y-18476D01*
X28308Y-18541D01*
X28305Y-18591D01*
X28291Y-18628D01*
X28599Y-18178D02*
X28479Y-18297D01*
X28571Y-18444D01*
X28573Y-18418D01*
X28587Y-18381D01*
X28646Y-18321D01*
X28681Y-18311D01*
X28703Y-18313D01*
X28736Y-18328D01*
X28788Y-18394D01*
X28797Y-18434D01*
X28795Y-18459D01*
X28781Y-18496D01*
X28722Y-18555D01*
X28687Y-18566D01*
X28665Y-18565D01*
X28432Y-19348D02*
X28455Y-19394D01*
X28453Y-19417D01*
X28439Y-19450D01*
X28399Y-19481D01*
X28359Y-19490D01*
X28335Y-19488D01*
X28297Y-19474D01*
X28202Y-19379D01*
X28484Y-19160D01*
X28567Y-19244D01*
X28577Y-19278D01*
X28576Y-19300D01*
X28561Y-19334D01*
X28535Y-19354D01*
X28496Y-19363D01*
X28470Y-19362D01*
X28432Y-19348D01*
X28349Y-19264D01*
X28711Y-19387D02*
X28866Y-19542D01*
X28675Y-19542D01*
X28710Y-19578D01*
X28721Y-19612D01*
X28718Y-19634D01*
X28704Y-19667D01*
X28637Y-19720D01*
X28598Y-19728D01*
X28573Y-19726D01*
X28535Y-19713D01*
X28464Y-19641D01*
X28453Y-19607D01*
X28455Y-19585D01*
X28398Y-20593D02*
X28444Y-20570D01*
X28467Y-20572D01*
X28500Y-20586D01*
X28531Y-20626D01*
X28540Y-20666D01*
X28538Y-20690D01*
X28524Y-20728D01*
X28429Y-20823D01*
X28210Y-20541D01*
X28294Y-20458D01*
X28328Y-20448D01*
X28350Y-20449D01*
X28384Y-20464D01*
X28404Y-20490D01*
X28413Y-20529D01*
X28412Y-20555D01*
X28398Y-20593D01*
X28314Y-20676D01*
X28641Y-20278D02*
X28787Y-20466D01*
X28498Y-20229D02*
X28594Y-20491D01*
X28750Y-20335D01*
X28432Y-21323D02*
X28455Y-21369D01*
X28453Y-21392D01*
X28439Y-21425D01*
X28399Y-21456D01*
X28359Y-21465D01*
X28335Y-21463D01*
X28297Y-21449D01*
X28202Y-21354D01*
X28484Y-21135D01*
X28567Y-21219D01*
X28577Y-21253D01*
X28576Y-21275D01*
X28561Y-21309D01*
X28535Y-21329D01*
X28496Y-21338D01*
X28470Y-21337D01*
X28432Y-21323D01*
X28349Y-21239D01*
X28854Y-21505D02*
X28734Y-21386D01*
X28587Y-21478D01*
X28613Y-21480D01*
X28651Y-21493D01*
X28710Y-21553D01*
X28721Y-21587D01*
X28718Y-21609D01*
X28704Y-21642D01*
X28637Y-21695D01*
X28598Y-21703D01*
X28573Y-21701D01*
X28535Y-21688D01*
X28476Y-21628D01*
X28465Y-21594D01*
X28466Y-21572D01*
X27239Y-22204D02*
X27593Y-22131D01*
X27239Y-21968D01*
X27408Y-21873D02*
X27408Y-21755D01*
X27593Y-21727D02*
X27593Y-21896D01*
X27239Y-21851D01*
X27239Y-21682D01*
X27239Y-21564D02*
X27593Y-21373D01*
X27239Y-21328D02*
X27593Y-21609D01*
X27239Y-21244D02*
X27239Y-21042D01*
X27593Y-21188D02*
X27239Y-21143D01*
X15160Y-20789D02*
X14991Y-20789D01*
X14952Y-20958D01*
X14972Y-20941D01*
X15008Y-20924D01*
X15092Y-20924D01*
X15124Y-20941D01*
X15138Y-20958D01*
X15151Y-20992D01*
X15141Y-21076D01*
X15119Y-21110D01*
X15100Y-21126D01*
X15064Y-21143D01*
X14980Y-21143D01*
X14948Y-21126D01*
X14933Y-21110D01*
X15278Y-20789D02*
X15351Y-21143D01*
X15514Y-20789D01*
X14870Y-20143D02*
X14915Y-19789D01*
X15000Y-19789D01*
X15047Y-19806D01*
X15077Y-19840D01*
X15090Y-19874D01*
X15099Y-19941D01*
X15092Y-19992D01*
X15067Y-20059D01*
X15046Y-20093D01*
X15007Y-20126D01*
X14955Y-20143D01*
X14870Y-20143D01*
X15241Y-20008D02*
X15511Y-20008D01*
X14870Y-19093D02*
X14915Y-18739D01*
X15000Y-18739D01*
X15047Y-18756D01*
X15077Y-18790D01*
X15090Y-18824D01*
X15099Y-18891D01*
X15092Y-18942D01*
X15067Y-19009D01*
X15046Y-19043D01*
X15007Y-19076D01*
X14955Y-19093D01*
X14870Y-19093D01*
X15241Y-18958D02*
X15511Y-18958D01*
X15359Y-19093D02*
X15393Y-18824D01*
X14805Y-17856D02*
X14774Y-17839D01*
X14723Y-17839D01*
X14670Y-17856D01*
X14632Y-17890D01*
X14611Y-17924D01*
X14586Y-17991D01*
X14579Y-18042D01*
X14588Y-18109D01*
X14601Y-18143D01*
X14630Y-18176D01*
X14678Y-18193D01*
X14712Y-18193D01*
X14765Y-18176D01*
X14784Y-18160D01*
X14799Y-18042D01*
X14731Y-18042D01*
X14931Y-18193D02*
X14976Y-17839D01*
X15134Y-18193D01*
X15179Y-17839D01*
X15302Y-18193D02*
X15347Y-17839D01*
X15432Y-17839D01*
X15479Y-17856D01*
X15509Y-17890D01*
X15522Y-17924D01*
X15531Y-17991D01*
X15524Y-18042D01*
X15499Y-18109D01*
X15478Y-18143D01*
X15439Y-18176D01*
X15387Y-18193D01*
X15302Y-18193D01*
X14595Y-22143D02*
X14426Y-22143D01*
X14471Y-21789D01*
X14713Y-22143D02*
X14758Y-21789D01*
X14882Y-22143D02*
X14927Y-21789D01*
X15062Y-21789D01*
X15093Y-21806D01*
X15108Y-21823D01*
X15121Y-21857D01*
X15115Y-21907D01*
X15094Y-21941D01*
X15074Y-21958D01*
X15038Y-21975D01*
X14903Y-21975D01*
X15349Y-21789D02*
X15416Y-21789D01*
X15447Y-21806D01*
X15477Y-21840D01*
X15485Y-21907D01*
X15470Y-22025D01*
X15446Y-22093D01*
X15407Y-22126D01*
X15371Y-22143D01*
X15304Y-22143D01*
X15272Y-22126D01*
X15243Y-22093D01*
X15234Y-22025D01*
X15249Y-21907D01*
X15274Y-21840D01*
X15312Y-21806D01*
X15349Y-21789D01*
X17217Y-18418D02*
X17099Y-18250D01*
X17014Y-18418D02*
X17014Y-18064D01*
X17149Y-18064D01*
X17183Y-18081D01*
X17200Y-18098D01*
X17217Y-18132D01*
X17217Y-18182D01*
X17200Y-18216D01*
X17183Y-18233D01*
X17149Y-18250D01*
X17014Y-18250D01*
X17351Y-18098D02*
X17368Y-18081D01*
X17402Y-18064D01*
X17486Y-18064D01*
X17520Y-18081D01*
X17537Y-18098D01*
X17554Y-18132D01*
X17554Y-18165D01*
X17537Y-18216D01*
X17335Y-18418D01*
X17554Y-18418D01*
X17842Y-18418D02*
X17724Y-18250D01*
X17639Y-18418D02*
X17639Y-18064D01*
X17774Y-18064D01*
X17808Y-18081D01*
X17825Y-18098D01*
X17842Y-18132D01*
X17842Y-18182D01*
X17825Y-18216D01*
X17808Y-18233D01*
X17774Y-18250D01*
X17639Y-18250D01*
X18179Y-18418D02*
X17976Y-18418D01*
X18078Y-18418D02*
X18078Y-18064D01*
X18044Y-18115D01*
X18010Y-18149D01*
X17976Y-18165D01*
X18860Y-18358D02*
X18876Y-18375D01*
X18893Y-18426D01*
X18893Y-18460D01*
X18876Y-18510D01*
X18843Y-18544D01*
X18809Y-18561D01*
X18742Y-18578D01*
X18691Y-18578D01*
X18624Y-18561D01*
X18590Y-18544D01*
X18556Y-18510D01*
X18539Y-18460D01*
X18539Y-18426D01*
X18556Y-18375D01*
X18573Y-18358D01*
X18573Y-18224D02*
X18556Y-18207D01*
X18539Y-18173D01*
X18539Y-18089D01*
X18556Y-18055D01*
X18573Y-18038D01*
X18607Y-18021D01*
X18640Y-18021D01*
X18691Y-18038D01*
X18893Y-18240D01*
X18893Y-18021D01*
X16992Y-19860D02*
X16975Y-19876D01*
X16924Y-19893D01*
X16890Y-19893D01*
X16840Y-19876D01*
X16806Y-19843D01*
X16789Y-19809D01*
X16772Y-19742D01*
X16772Y-19691D01*
X16789Y-19624D01*
X16806Y-19590D01*
X16840Y-19556D01*
X16890Y-19539D01*
X16924Y-19539D01*
X16975Y-19556D01*
X16992Y-19573D01*
X17110Y-19539D02*
X17346Y-19539D01*
X17194Y-19893D01*
X18517Y-19560D02*
X18500Y-19576D01*
X18449Y-19593D01*
X18415Y-19593D01*
X18365Y-19576D01*
X18331Y-19543D01*
X18314Y-19509D01*
X18297Y-19442D01*
X18297Y-19391D01*
X18314Y-19324D01*
X18331Y-19290D01*
X18365Y-19256D01*
X18415Y-19239D01*
X18449Y-19239D01*
X18500Y-19256D01*
X18517Y-19273D01*
X18719Y-19391D02*
X18685Y-19374D01*
X18668Y-19357D01*
X18651Y-19324D01*
X18651Y-19307D01*
X18668Y-19273D01*
X18685Y-19256D01*
X18719Y-19239D01*
X18786Y-19239D01*
X18820Y-19256D01*
X18837Y-19273D01*
X18854Y-19307D01*
X18854Y-19324D01*
X18837Y-19357D01*
X18820Y-19374D01*
X18786Y-19391D01*
X18719Y-19391D01*
X18685Y-19408D01*
X18668Y-19425D01*
X18651Y-19458D01*
X18651Y-19526D01*
X18668Y-19560D01*
X18685Y-19576D01*
X18719Y-19593D01*
X18786Y-19593D01*
X18820Y-19576D01*
X18837Y-19560D01*
X18854Y-19526D01*
X18854Y-19458D01*
X18837Y-19425D01*
X18820Y-19408D01*
X18786Y-19391D01*
X18317Y-21035D02*
X18300Y-21051D01*
X18249Y-21068D01*
X18215Y-21068D01*
X18165Y-21051D01*
X18131Y-21018D01*
X18114Y-20984D01*
X18097Y-20917D01*
X18097Y-20866D01*
X18114Y-20799D01*
X18131Y-20765D01*
X18165Y-20731D01*
X18215Y-20714D01*
X18249Y-20714D01*
X18300Y-20731D01*
X18317Y-20748D01*
X18620Y-20714D02*
X18553Y-20714D01*
X18519Y-20731D01*
X18502Y-20748D01*
X18468Y-20799D01*
X18451Y-20866D01*
X18451Y-21001D01*
X18468Y-21035D01*
X18485Y-21051D01*
X18519Y-21068D01*
X18586Y-21068D01*
X18620Y-21051D01*
X18637Y-21035D01*
X18654Y-21001D01*
X18654Y-20917D01*
X18637Y-20883D01*
X18620Y-20866D01*
X18586Y-20849D01*
X18519Y-20849D01*
X18485Y-20866D01*
X18468Y-20883D01*
X18451Y-20917D01*
X19210Y-21083D02*
X19226Y-21100D01*
X19243Y-21151D01*
X19243Y-21185D01*
X19226Y-21235D01*
X19193Y-21269D01*
X19159Y-21286D01*
X19092Y-21303D01*
X19041Y-21303D01*
X18974Y-21286D01*
X18940Y-21269D01*
X18906Y-21235D01*
X18889Y-21185D01*
X18889Y-21151D01*
X18906Y-21100D01*
X18923Y-21083D01*
X19243Y-20746D02*
X19243Y-20949D01*
X19243Y-20847D02*
X18889Y-20847D01*
X18940Y-20881D01*
X18974Y-20915D01*
X18990Y-20949D01*
X17130Y-21214D02*
X17130Y-21501D01*
X17147Y-21535D01*
X17164Y-21551D01*
X17198Y-21568D01*
X17265Y-21568D01*
X17299Y-21551D01*
X17316Y-21535D01*
X17333Y-21501D01*
X17333Y-21214D01*
X17653Y-21332D02*
X17653Y-21568D01*
X17569Y-21197D02*
X17484Y-21450D01*
X17704Y-21450D01*
X24135Y-21758D02*
X24151Y-21775D01*
X24168Y-21826D01*
X24168Y-21860D01*
X24151Y-21910D01*
X24118Y-21944D01*
X24084Y-21961D01*
X24017Y-21978D01*
X23966Y-21978D01*
X23899Y-21961D01*
X23865Y-21944D01*
X23831Y-21910D01*
X23814Y-21860D01*
X23814Y-21826D01*
X23831Y-21775D01*
X23848Y-21758D01*
X23814Y-21640D02*
X23814Y-21421D01*
X23949Y-21539D01*
X23949Y-21489D01*
X23966Y-21455D01*
X23983Y-21438D01*
X24017Y-21421D01*
X24101Y-21421D01*
X24135Y-21438D01*
X24151Y-21455D01*
X24168Y-21489D01*
X24168Y-21590D01*
X24151Y-21624D01*
X24135Y-21640D01*
X24985Y-19658D02*
X25001Y-19675D01*
X25018Y-19726D01*
X25018Y-19760D01*
X25001Y-19810D01*
X24968Y-19844D01*
X24934Y-19861D01*
X24867Y-19878D01*
X24816Y-19878D01*
X24749Y-19861D01*
X24715Y-19844D01*
X24681Y-19810D01*
X24664Y-19760D01*
X24664Y-19726D01*
X24681Y-19675D01*
X24698Y-19658D01*
X24782Y-19355D02*
X25018Y-19355D01*
X24647Y-19439D02*
X24900Y-19524D01*
X24900Y-19304D01*
X25643Y-20058D02*
X25475Y-20176D01*
X25643Y-20261D02*
X25289Y-20261D01*
X25289Y-20126D01*
X25306Y-20092D01*
X25323Y-20075D01*
X25357Y-20058D01*
X25407Y-20058D01*
X25441Y-20075D01*
X25458Y-20092D01*
X25475Y-20126D01*
X25475Y-20261D01*
X25289Y-19940D02*
X25289Y-19721D01*
X25424Y-19839D01*
X25424Y-19789D01*
X25441Y-19755D01*
X25458Y-19738D01*
X25492Y-19721D01*
X25576Y-19721D01*
X25610Y-19738D01*
X25626Y-19755D01*
X25643Y-19789D01*
X25643Y-19890D01*
X25626Y-19924D01*
X25610Y-19940D01*
X25610Y-19333D02*
X25626Y-19350D01*
X25643Y-19401D01*
X25643Y-19435D01*
X25626Y-19485D01*
X25593Y-19519D01*
X25559Y-19536D01*
X25492Y-19553D01*
X25441Y-19553D01*
X25374Y-19536D01*
X25340Y-19519D01*
X25306Y-19485D01*
X25289Y-19435D01*
X25289Y-19401D01*
X25306Y-19350D01*
X25323Y-19333D01*
X25289Y-19013D02*
X25289Y-19182D01*
X25458Y-19199D01*
X25441Y-19182D01*
X25424Y-19148D01*
X25424Y-19064D01*
X25441Y-19030D01*
X25458Y-19013D01*
X25492Y-18996D01*
X25576Y-18996D01*
X25610Y-19013D01*
X25626Y-19030D01*
X25643Y-19064D01*
X25643Y-19148D01*
X25626Y-19182D01*
X25610Y-19199D01*
X25643Y-18608D02*
X25475Y-18726D01*
X25643Y-18811D02*
X25289Y-18811D01*
X25289Y-18676D01*
X25306Y-18642D01*
X25323Y-18625D01*
X25357Y-18608D01*
X25407Y-18608D01*
X25441Y-18625D01*
X25458Y-18642D01*
X25475Y-18676D01*
X25475Y-18811D01*
X25407Y-18305D02*
X25643Y-18305D01*
X25272Y-18389D02*
X25525Y-18474D01*
X25525Y-18254D01*
X25439Y-21918D02*
X25439Y-21564D01*
X25524Y-21564D01*
X25574Y-21581D01*
X25608Y-21615D01*
X25625Y-21649D01*
X25642Y-21716D01*
X25642Y-21767D01*
X25625Y-21834D01*
X25608Y-21868D01*
X25574Y-21901D01*
X25524Y-21918D01*
X25439Y-21918D01*
X25979Y-21918D02*
X25776Y-21918D01*
X25878Y-21918D02*
X25878Y-21564D01*
X25844Y-21615D01*
X25810Y-21649D01*
X25776Y-21665D01*
X24025Y-21018D02*
X24193Y-21018D01*
X23839Y-21136D02*
X24025Y-21018D01*
X23839Y-20900D01*
X24193Y-20597D02*
X24193Y-20800D01*
X24193Y-20698D02*
X23839Y-20698D01*
X23890Y-20732D01*
X23924Y-20766D01*
X23940Y-20800D01*
X21080Y-19789D02*
X21080Y-20076D01*
X21097Y-20110D01*
X21114Y-20126D01*
X21148Y-20143D01*
X21215Y-20143D01*
X21249Y-20126D01*
X21266Y-20110D01*
X21283Y-20076D01*
X21283Y-19789D01*
X21637Y-20143D02*
X21434Y-20143D01*
X21536Y-20143D02*
X21536Y-19789D01*
X21502Y-19840D01*
X21468Y-19874D01*
X21434Y-19890D01*
X26155Y-19276D02*
X26206Y-19293D01*
X26290Y-19293D01*
X26324Y-19276D01*
X26341Y-19260D01*
X26358Y-19226D01*
X26358Y-19192D01*
X26341Y-19158D01*
X26324Y-19142D01*
X26290Y-19125D01*
X26223Y-19108D01*
X26189Y-19091D01*
X26172Y-19074D01*
X26155Y-19040D01*
X26155Y-19007D01*
X26172Y-18973D01*
X26189Y-18956D01*
X26223Y-18939D01*
X26307Y-18939D01*
X26358Y-18956D01*
X26695Y-19293D02*
X26492Y-19293D01*
X26594Y-19293D02*
X26594Y-18939D01*
X26560Y-18990D01*
X26526Y-19024D01*
X26492Y-19040D01*
%LPC*%
G54D15*
X16000Y-16950D03*
X17000Y-17050D03*
X18000Y-16950D03*
X19000Y-17050D03*
X20000Y-16950D03*
X21000Y-17050D03*
X22000Y-16950D03*
X23000Y-17050D03*
X24000Y-16950D03*
X25000Y-17050D03*
X26000Y-16950D03*
X27000Y-17050D03*
X28000Y-16950D03*
X29000Y-17050D03*
X16000Y-22950D03*
X17000Y-23050D03*
X18000Y-22992D03*
X19000Y-23050D03*
X20000Y-22950D03*
X21000Y-23050D03*
X22000Y-23050D03*
X23000Y-23050D03*
X24000Y-22950D03*
X25000Y-23050D03*
X26000Y-22950D03*
X27000Y-23050D03*
X28000Y-23050D03*
X29000Y-23050D03*
X29050Y-18000D03*
X28950Y-19000D03*
X29050Y-20000D03*
X28950Y-21000D03*
X29050Y-22000D03*
G54D16*
X16000Y-21000D03*
G54D15*
X16000Y-20000D03*
X16000Y-19000D03*
X16000Y-18000D03*
G54D17*
X11930Y-21377D03*
X11930Y-18623D03*
G54D18*
X12126Y-20393D03*
X12126Y-19607D03*
G54D15*
X28050Y-18000D03*
X27950Y-19000D03*
X28050Y-20000D03*
X27950Y-21000D03*
X28050Y-22000D03*
X16000Y-22000D03*
G54D19*
X14000Y-20866D03*
X14000Y-19134D03*
G54D20*
X17290Y-18725D03*
X17290Y-19325D03*
X17890Y-18725D03*
X17890Y-19325D03*
G54D21*
X19800Y-18300D03*
X19200Y-18300D03*
X17000Y-20230D03*
X17600Y-20230D03*
G54D20*
X18280Y-20490D03*
X18280Y-19890D03*
X18400Y-21900D03*
X18400Y-21300D03*
G54D21*
X19800Y-21700D03*
X19200Y-21700D03*
G54D22*
X17025Y-21900D03*
X17775Y-21900D03*
X17025Y-20900D03*
X17400Y-21900D03*
X17775Y-20900D03*
G54D21*
X22900Y-21700D03*
X23500Y-21700D03*
X23750Y-19630D03*
X24350Y-19630D03*
G54D20*
X25700Y-20600D03*
X25700Y-21200D03*
X26300Y-20600D03*
X26300Y-21200D03*
X26900Y-21200D03*
X26900Y-20600D03*
G54D23*
X26305Y-21700D03*
X26895Y-21700D03*
G54D24*
X24710Y-21467D03*
X24710Y-20995D03*
X24710Y-20523D03*
G54D25*
X23042Y-21082D03*
X23042Y-20885D03*
X23042Y-20688D03*
X23042Y-20492D03*
X23042Y-20295D03*
X23042Y-20098D03*
X23042Y-19902D03*
X23042Y-19705D03*
X23042Y-19508D03*
X23042Y-19312D03*
X23042Y-19115D03*
X23042Y-18918D03*
G54D26*
X22432Y-18308D03*
X22235Y-18308D03*
X22038Y-18308D03*
X21842Y-18308D03*
X21645Y-18308D03*
X21448Y-18308D03*
X21252Y-18308D03*
X21055Y-18308D03*
X20858Y-18308D03*
X20662Y-18308D03*
X20465Y-18308D03*
X20268Y-18308D03*
G54D25*
X19658Y-18918D03*
X19658Y-19115D03*
X19658Y-19312D03*
X19658Y-19508D03*
X19658Y-19705D03*
X19658Y-19902D03*
X19658Y-20098D03*
X19658Y-20295D03*
X19658Y-20492D03*
X19658Y-20688D03*
X19658Y-20885D03*
X19658Y-21082D03*
G54D26*
X20268Y-21692D03*
X20465Y-21692D03*
X20662Y-21692D03*
X20858Y-21692D03*
X21055Y-21692D03*
X21252Y-21692D03*
X21448Y-21692D03*
X21645Y-21692D03*
X21842Y-21692D03*
X22038Y-21692D03*
X22235Y-21692D03*
X22432Y-21692D03*
G54D27*
X26835Y-17986D03*
X26165Y-17986D03*
X26835Y-20014D03*
X26165Y-20014D03*
M02*
