G04 (created by PCBNEW-RS274X (2012-02-23 BZR 3434)-stable) date Sat 25 Feb 2012 04:53:48 AM CET*
G01*
G70*
G90*
%MOIN*%
G04 Gerber Fmt 3.4, Leading zero omitted, Abs format*
%FSLAX34Y34*%
G04 APERTURE LIST*
%ADD10C,0.006000*%
%ADD11C,0.003900*%
%ADD12C,0.074000*%
%ADD13R,0.074000X0.074000*%
%ADD14R,0.295200X0.059000*%
%ADD15R,0.255900X0.039300*%
%ADD16C,0.035400*%
%ADD17R,0.045000X0.025000*%
%ADD18R,0.025000X0.045000*%
%ADD19R,0.020000X0.030000*%
%ADD20R,0.031400X0.031400*%
%ADD21R,0.066900X0.027500*%
%ADD22R,0.059000X0.009800*%
%ADD23R,0.009800X0.059000*%
%ADD24R,0.039400X0.057100*%
%ADD25C,0.021700*%
%ADD26C,0.011800*%
%ADD27C,0.005900*%
G04 APERTURE END LIST*
G54D10*
G54D11*
X15300Y-17630D02*
X15300Y-16300D01*
X15300Y-22374D02*
X15300Y-23700D01*
X29700Y-23700D02*
X15300Y-23700D01*
X29700Y-16300D02*
X29700Y-23700D01*
X15300Y-16300D02*
X29700Y-16300D01*
X10039Y-17630D02*
X15300Y-17630D01*
X10039Y-22374D02*
X15300Y-22374D01*
X10039Y-17630D02*
X10039Y-22374D01*
G54D12*
X16000Y-16950D03*
X17000Y-17050D03*
X18000Y-16950D03*
X19000Y-17050D03*
X20000Y-16950D03*
X21000Y-17050D03*
X22000Y-16950D03*
X23000Y-17050D03*
X24000Y-16950D03*
X25000Y-17050D03*
X26000Y-16950D03*
X27000Y-17050D03*
X28000Y-16950D03*
X29000Y-17050D03*
X16000Y-22950D03*
X17000Y-23050D03*
X18000Y-22992D03*
X19000Y-23050D03*
X20000Y-22950D03*
X21000Y-23050D03*
X22000Y-23050D03*
X23000Y-23050D03*
X24000Y-22950D03*
X25000Y-23050D03*
X26000Y-22950D03*
X27000Y-23050D03*
X28000Y-23050D03*
X29000Y-23050D03*
X29050Y-18000D03*
X28950Y-19000D03*
X29050Y-20000D03*
X28950Y-21000D03*
X29050Y-22000D03*
G54D13*
X16000Y-21000D03*
G54D12*
X16000Y-20000D03*
X16000Y-19000D03*
X16000Y-18000D03*
G54D14*
X11930Y-21377D03*
X11930Y-18623D03*
G54D15*
X12126Y-20393D03*
X12126Y-19607D03*
G54D12*
X28050Y-18000D03*
X27950Y-19000D03*
X28050Y-20000D03*
X27950Y-21000D03*
X28050Y-22000D03*
X16000Y-22000D03*
G54D16*
X14000Y-20866D03*
X14000Y-19134D03*
G54D17*
X17290Y-18725D03*
X17290Y-19325D03*
X17890Y-18725D03*
X17890Y-19325D03*
G54D18*
X19800Y-18300D03*
X19200Y-18300D03*
X17000Y-20230D03*
X17600Y-20230D03*
G54D17*
X18280Y-20490D03*
X18280Y-19890D03*
X18400Y-21900D03*
X18400Y-21300D03*
G54D18*
X19800Y-21700D03*
X19200Y-21700D03*
G54D19*
X17025Y-21900D03*
X17775Y-21900D03*
X17025Y-20900D03*
X17400Y-21900D03*
X17775Y-20900D03*
G54D18*
X22900Y-21700D03*
X23500Y-21700D03*
X23750Y-19630D03*
X24350Y-19630D03*
G54D17*
X25700Y-20600D03*
X25700Y-21200D03*
X26300Y-20600D03*
X26300Y-21200D03*
X26900Y-21200D03*
X26900Y-20600D03*
G54D20*
X26305Y-21700D03*
X26895Y-21700D03*
G54D21*
X24710Y-21467D03*
X24710Y-20995D03*
X24710Y-20523D03*
G54D22*
X23042Y-21082D03*
X23042Y-20885D03*
X23042Y-20688D03*
X23042Y-20492D03*
X23042Y-20295D03*
X23042Y-20098D03*
X23042Y-19902D03*
X23042Y-19705D03*
X23042Y-19508D03*
X23042Y-19312D03*
X23042Y-19115D03*
X23042Y-18918D03*
G54D23*
X22432Y-18308D03*
X22235Y-18308D03*
X22038Y-18308D03*
X21842Y-18308D03*
X21645Y-18308D03*
X21448Y-18308D03*
X21252Y-18308D03*
X21055Y-18308D03*
X20858Y-18308D03*
X20662Y-18308D03*
X20465Y-18308D03*
X20268Y-18308D03*
G54D22*
X19658Y-18918D03*
X19658Y-19115D03*
X19658Y-19312D03*
X19658Y-19508D03*
X19658Y-19705D03*
X19658Y-19902D03*
X19658Y-20098D03*
X19658Y-20295D03*
X19658Y-20492D03*
X19658Y-20688D03*
X19658Y-20885D03*
X19658Y-21082D03*
G54D23*
X20268Y-21692D03*
X20465Y-21692D03*
X20662Y-21692D03*
X20858Y-21692D03*
X21055Y-21692D03*
X21252Y-21692D03*
X21448Y-21692D03*
X21645Y-21692D03*
X21842Y-21692D03*
X22038Y-21692D03*
X22235Y-21692D03*
X22432Y-21692D03*
G54D24*
X26835Y-17986D03*
X26165Y-17986D03*
X26835Y-20014D03*
X26165Y-20014D03*
G54D25*
X21645Y-21315D03*
X22415Y-20700D03*
X25350Y-18890D03*
X27570Y-19750D03*
X22355Y-21100D03*
X22650Y-21360D03*
X27365Y-19955D03*
X26750Y-19495D03*
X22575Y-20930D03*
X26850Y-22245D03*
X20845Y-20485D03*
X20890Y-20195D03*
X22020Y-20575D03*
X22575Y-20425D03*
X19165Y-20300D03*
X19040Y-19495D03*
X18775Y-19580D03*
X19170Y-20580D03*
X17245Y-18470D03*
X17980Y-18490D03*
G54D16*
X24305Y-19150D03*
X17335Y-22290D03*
X20395Y-19560D03*
X22210Y-19245D03*
X23845Y-22055D03*
X25520Y-21850D03*
X17440Y-20600D03*
G54D25*
X25170Y-19775D03*
G54D16*
X19480Y-22360D03*
X23135Y-21925D03*
X21645Y-19050D03*
X24575Y-17980D03*
X24820Y-18875D03*
G54D25*
X26455Y-18780D03*
G54D16*
X19505Y-17905D03*
X20720Y-19050D03*
X16595Y-19870D03*
X18450Y-22365D03*
G54D10*
X21645Y-21692D02*
X21645Y-21315D01*
X26715Y-18810D02*
X26545Y-18980D01*
X28480Y-18530D02*
X27678Y-18530D01*
X22105Y-20775D02*
X22180Y-20700D01*
X28480Y-18530D02*
X29010Y-18000D01*
X26545Y-18980D02*
X26365Y-18980D01*
X20946Y-20934D02*
X21227Y-20934D01*
X25430Y-18810D02*
X25350Y-18890D01*
X27398Y-18810D02*
X26715Y-18810D01*
X21412Y-20749D02*
X21880Y-20749D01*
X20465Y-21415D02*
X20946Y-20934D01*
X21906Y-20775D02*
X22105Y-20775D01*
X21227Y-20934D02*
X21412Y-20749D01*
X26365Y-18980D02*
X26195Y-18810D01*
X22180Y-20700D02*
X22415Y-20700D01*
X27678Y-18530D02*
X27398Y-18810D01*
X21880Y-20749D02*
X21906Y-20775D01*
X29010Y-18000D02*
X29050Y-18000D01*
X26195Y-18810D02*
X25430Y-18810D01*
X20465Y-21415D02*
X20465Y-21692D01*
X28960Y-20000D02*
X29050Y-20000D01*
X21780Y-20993D02*
X21824Y-21037D01*
X22292Y-21037D02*
X22355Y-21100D01*
X21326Y-21178D02*
X21511Y-20993D01*
X28455Y-20505D02*
X28960Y-20000D01*
X21092Y-21178D02*
X21326Y-21178D01*
X27900Y-20505D02*
X28455Y-20505D01*
X27900Y-20505D02*
X27570Y-20175D01*
X27570Y-19750D02*
X27570Y-20175D01*
X21511Y-20993D02*
X21780Y-20993D01*
X20858Y-21412D02*
X21092Y-21178D01*
X21824Y-21037D02*
X22292Y-21037D01*
X20858Y-21412D02*
X20858Y-21692D01*
X27365Y-20160D02*
X27365Y-19955D01*
X28555Y-21505D02*
X28950Y-21110D01*
X27760Y-21505D02*
X27485Y-21230D01*
X21055Y-21400D02*
X21155Y-21300D01*
X22265Y-21300D02*
X22590Y-21300D01*
X21055Y-21400D02*
X21055Y-21692D01*
X21774Y-21159D02*
X22124Y-21159D01*
X22590Y-21300D02*
X22650Y-21360D01*
X21560Y-21115D02*
X21730Y-21115D01*
X28950Y-21110D02*
X28950Y-21000D01*
X27485Y-20280D02*
X27365Y-20160D01*
X28555Y-21505D02*
X27760Y-21505D01*
X21375Y-21300D02*
X21560Y-21115D01*
X22124Y-21159D02*
X22265Y-21300D01*
X21155Y-21300D02*
X21375Y-21300D01*
X27485Y-21230D02*
X27485Y-20280D01*
X21730Y-21115D02*
X21774Y-21159D01*
X21874Y-20915D02*
X22255Y-20915D01*
X22545Y-20900D02*
X22575Y-20930D01*
X28545Y-19495D02*
X28950Y-19090D01*
X20662Y-21692D02*
X20662Y-21413D01*
X21019Y-21056D02*
X21277Y-21056D01*
X22270Y-20900D02*
X22545Y-20900D01*
X22255Y-20915D02*
X22270Y-20900D01*
X21277Y-21056D02*
X21462Y-20871D01*
X21830Y-20871D02*
X21874Y-20915D01*
X28950Y-19090D02*
X28950Y-19000D01*
X21462Y-20871D02*
X21830Y-20871D01*
X20662Y-21413D02*
X21019Y-21056D01*
X28545Y-19495D02*
X26750Y-19495D01*
X23730Y-21195D02*
X23730Y-21514D01*
X26557Y-22087D02*
X26317Y-22087D01*
X26715Y-22245D02*
X26557Y-22087D01*
X26305Y-22075D02*
X26305Y-21700D01*
X23042Y-20885D02*
X23420Y-20885D01*
X26317Y-22087D02*
X26305Y-22075D01*
X26403Y-22453D02*
X27000Y-23050D01*
X23730Y-21514D02*
X24669Y-22453D01*
X24669Y-22453D02*
X26403Y-22453D01*
X23420Y-20885D02*
X23730Y-21195D01*
X26850Y-22245D02*
X26715Y-22245D01*
X24096Y-21356D02*
X24207Y-21467D01*
X23042Y-20295D02*
X23346Y-20295D01*
X23346Y-20295D02*
X24096Y-21045D01*
X24207Y-21467D02*
X24710Y-21467D01*
X24096Y-21045D02*
X24096Y-21356D01*
X23042Y-20098D02*
X23321Y-20098D01*
X23321Y-20098D02*
X23746Y-20523D01*
X23746Y-20523D02*
X24710Y-20523D01*
X23753Y-19312D02*
X23042Y-19312D01*
X27272Y-18508D02*
X24557Y-18508D01*
X28620Y-17430D02*
X27930Y-17430D01*
X24557Y-18508D02*
X23753Y-19312D01*
X27930Y-17430D02*
X27530Y-17830D01*
X27530Y-17830D02*
X27530Y-18250D01*
X29000Y-17050D02*
X28620Y-17430D01*
X27530Y-18250D02*
X27272Y-18508D01*
X28000Y-17188D02*
X27408Y-17780D01*
X27408Y-18200D02*
X27222Y-18386D01*
X27408Y-17780D02*
X27408Y-18200D01*
X23779Y-19115D02*
X24508Y-18386D01*
X28000Y-16950D02*
X28000Y-17188D01*
X23042Y-19115D02*
X23779Y-19115D01*
X27222Y-18386D02*
X24508Y-18386D01*
X19230Y-22580D02*
X19060Y-22580D01*
X19600Y-22950D02*
X19230Y-22580D01*
X18964Y-20136D02*
X19002Y-20098D01*
X20000Y-22950D02*
X19600Y-22950D01*
X19002Y-20098D02*
X19658Y-20098D01*
X19060Y-22580D02*
X18964Y-22484D01*
X18964Y-22484D02*
X18964Y-20136D01*
X25870Y-17670D02*
X25870Y-18084D01*
X25690Y-18264D02*
X24459Y-18264D01*
X23805Y-18918D02*
X24459Y-18264D01*
X23042Y-18918D02*
X23805Y-18918D01*
X27000Y-17420D02*
X27000Y-17050D01*
X27000Y-17420D02*
X26810Y-17610D01*
X26810Y-17610D02*
X25930Y-17610D01*
X25930Y-17610D02*
X25870Y-17670D01*
X25870Y-18084D02*
X25690Y-18264D01*
X23253Y-18042D02*
X23733Y-17562D01*
X25388Y-17562D02*
X26000Y-16950D01*
X22432Y-18308D02*
X22698Y-18042D01*
X22698Y-18042D02*
X23253Y-18042D01*
X23733Y-17562D02*
X25388Y-17562D01*
X23203Y-17920D02*
X23683Y-17440D01*
X23683Y-17440D02*
X24610Y-17440D01*
X22235Y-17995D02*
X22310Y-17920D01*
X22310Y-17920D02*
X23203Y-17920D01*
X24610Y-17440D02*
X25000Y-17050D01*
X22235Y-18308D02*
X22235Y-17995D01*
X22038Y-18308D02*
X22038Y-17937D01*
X23152Y-17798D02*
X24000Y-16950D01*
X22038Y-17937D02*
X22177Y-17798D01*
X22177Y-17798D02*
X23152Y-17798D01*
X22870Y-17676D02*
X22124Y-17676D01*
X21842Y-17958D02*
X21842Y-18308D01*
X23000Y-17050D02*
X23000Y-17546D01*
X22124Y-17676D02*
X21842Y-17958D01*
X23000Y-17546D02*
X22870Y-17676D01*
X21645Y-17305D02*
X21645Y-18308D01*
X22000Y-16950D02*
X21645Y-17305D01*
X19658Y-19705D02*
X18935Y-19705D01*
X18378Y-22992D02*
X18000Y-22992D01*
X18720Y-19920D02*
X18935Y-19705D01*
X18720Y-22650D02*
X18378Y-22992D01*
X18720Y-19920D02*
X18720Y-22650D01*
X19000Y-23050D02*
X18842Y-22892D01*
X18842Y-19998D02*
X18938Y-19902D01*
X18842Y-22892D02*
X18842Y-19998D01*
X18938Y-19902D02*
X19658Y-19902D01*
X20890Y-20485D02*
X21375Y-20000D01*
X21375Y-18695D02*
X21448Y-18622D01*
X21375Y-20000D02*
X21375Y-18695D01*
X21448Y-18622D02*
X21448Y-18308D01*
X20845Y-20485D02*
X20890Y-20485D01*
X20890Y-20195D02*
X21008Y-20195D01*
X21008Y-20195D02*
X21253Y-19950D01*
X21253Y-18309D02*
X21252Y-18308D01*
X21253Y-19950D02*
X21253Y-18309D01*
X21000Y-17050D02*
X20858Y-17192D01*
X20858Y-17192D02*
X20858Y-18308D01*
X20000Y-16950D02*
X20662Y-17612D01*
X20662Y-17612D02*
X20662Y-18308D01*
X18400Y-18005D02*
X18400Y-17775D01*
X19658Y-18918D02*
X19313Y-18918D01*
X18400Y-17775D02*
X19000Y-17175D01*
X19313Y-18918D02*
X18400Y-18005D01*
X19000Y-17175D02*
X19000Y-17050D01*
X18278Y-18055D02*
X18278Y-17228D01*
X18278Y-17228D02*
X18000Y-16950D01*
X19658Y-19115D02*
X19338Y-19115D01*
X19338Y-19115D02*
X18278Y-18055D01*
X18156Y-18105D02*
X18156Y-17646D01*
X17930Y-17420D02*
X17370Y-17420D01*
X17370Y-17420D02*
X17000Y-17050D01*
X18156Y-17646D02*
X17930Y-17420D01*
X19363Y-19312D02*
X18156Y-18105D01*
X19658Y-19312D02*
X19363Y-19312D01*
X17880Y-17542D02*
X16817Y-17542D01*
X19658Y-19508D02*
X19373Y-19508D01*
X18034Y-17696D02*
X17880Y-17542D01*
X16120Y-16950D02*
X16000Y-16950D01*
X16817Y-17542D02*
X16225Y-16950D01*
X16120Y-16950D02*
X16275Y-17105D01*
X19277Y-19412D02*
X19277Y-19398D01*
X19277Y-19398D02*
X18034Y-18155D01*
X16225Y-16950D02*
X16000Y-16950D01*
X18034Y-18155D02*
X18034Y-17696D01*
X16000Y-16950D02*
X16275Y-17105D01*
X19373Y-19508D02*
X19277Y-19412D01*
X21850Y-22580D02*
X22200Y-22580D01*
X21252Y-21982D02*
X21850Y-22580D01*
X23000Y-22932D02*
X23000Y-23050D01*
X22322Y-22702D02*
X22770Y-22702D01*
X21252Y-21692D02*
X21252Y-21982D01*
X22200Y-22580D02*
X22322Y-22702D01*
X22770Y-22702D02*
X23000Y-22932D01*
X22250Y-22458D02*
X21938Y-22458D01*
X24000Y-22950D02*
X23630Y-22580D01*
X22372Y-22580D02*
X23630Y-22580D01*
X21938Y-22458D02*
X21435Y-21955D01*
X21435Y-21955D02*
X21435Y-21705D01*
X22372Y-22580D02*
X22250Y-22458D01*
X21435Y-21705D02*
X21448Y-21692D01*
X22300Y-22336D02*
X22036Y-22336D01*
X22422Y-22458D02*
X22300Y-22336D01*
X21842Y-22142D02*
X21842Y-21692D01*
X22036Y-22336D02*
X21842Y-22142D01*
X25000Y-23050D02*
X24770Y-23050D01*
X24178Y-22458D02*
X22422Y-22458D01*
X24770Y-23050D02*
X24178Y-22458D01*
X22038Y-21692D02*
X22038Y-22163D01*
X24467Y-22575D02*
X24228Y-22336D01*
X22472Y-22336D02*
X22350Y-22214D01*
X22350Y-22214D02*
X22089Y-22214D01*
X24228Y-22336D02*
X22472Y-22336D01*
X24467Y-22575D02*
X25625Y-22575D01*
X25625Y-22575D02*
X26000Y-22950D01*
X22089Y-22214D02*
X22038Y-22163D01*
X23042Y-20688D02*
X23395Y-20688D01*
X23852Y-21145D02*
X23852Y-21464D01*
X23852Y-21464D02*
X24719Y-22331D01*
X27625Y-22575D02*
X28000Y-22950D01*
X24719Y-22331D02*
X26453Y-22331D01*
X27625Y-22575D02*
X26697Y-22575D01*
X28000Y-22950D02*
X28000Y-23050D01*
X26697Y-22575D02*
X26453Y-22331D01*
X23852Y-21145D02*
X23395Y-20688D01*
X26503Y-22209D02*
X26747Y-22453D01*
X23042Y-20492D02*
X23371Y-20492D01*
X23974Y-21414D02*
X24769Y-22209D01*
X23371Y-20492D02*
X23974Y-21095D01*
X26747Y-22453D02*
X27675Y-22453D01*
X27675Y-22453D02*
X27697Y-22475D01*
X23974Y-21095D02*
X23974Y-21414D01*
X27697Y-22475D02*
X28425Y-22475D01*
X24769Y-22209D02*
X26503Y-22209D01*
X28425Y-22475D02*
X29000Y-23050D01*
X21363Y-20627D02*
X21968Y-20627D01*
X20868Y-20812D02*
X21178Y-20812D01*
X21178Y-20812D02*
X21363Y-20627D01*
X21968Y-20627D02*
X22020Y-20575D01*
X20268Y-21412D02*
X20268Y-21692D01*
X20268Y-21412D02*
X20868Y-20812D01*
X21131Y-20688D02*
X21314Y-20505D01*
X21805Y-20505D02*
X21935Y-20375D01*
X21314Y-20505D02*
X21805Y-20505D01*
X22525Y-20375D02*
X22575Y-20425D01*
X21935Y-20375D02*
X22525Y-20375D01*
X19658Y-20688D02*
X21131Y-20688D01*
X19170Y-20295D02*
X19165Y-20300D01*
X17890Y-19423D02*
X17890Y-19325D01*
X19040Y-19495D02*
X18925Y-19380D01*
X18925Y-19380D02*
X18693Y-19380D01*
X19658Y-20295D02*
X19170Y-20295D01*
X18693Y-19380D02*
X18650Y-19423D01*
X18650Y-19423D02*
X17890Y-19423D01*
X19658Y-20492D02*
X19258Y-20492D01*
X19258Y-20492D02*
X19170Y-20580D01*
X17325Y-19325D02*
X17290Y-19325D01*
X17545Y-19545D02*
X18740Y-19545D01*
X17325Y-19325D02*
X17545Y-19545D01*
X18740Y-19545D02*
X18775Y-19580D01*
X15393Y-19607D02*
X16000Y-19000D01*
X17245Y-18470D02*
X17245Y-18680D01*
X12126Y-19607D02*
X15393Y-19607D01*
X17245Y-18680D02*
X17290Y-18725D01*
X17980Y-18635D02*
X17890Y-18725D01*
X12126Y-20393D02*
X15607Y-20393D01*
X17980Y-18490D02*
X17980Y-18635D01*
X15607Y-20393D02*
X16000Y-20000D01*
G54D26*
X24200Y-19150D02*
X24305Y-19150D01*
X23042Y-19508D02*
X23628Y-19508D01*
X23750Y-19600D02*
X24200Y-19150D01*
X23628Y-19508D02*
X23750Y-19630D01*
X23750Y-19630D02*
X23750Y-19600D01*
X15623Y-21377D02*
X16000Y-21000D01*
X11930Y-21377D02*
X15623Y-21377D01*
X17570Y-22290D02*
X17775Y-22085D01*
X17775Y-22085D02*
X17775Y-21900D01*
X17335Y-22290D02*
X17570Y-22290D01*
X17025Y-21900D02*
X17025Y-21980D01*
X17025Y-21980D02*
X17335Y-22290D01*
X17775Y-21900D02*
X18400Y-21900D01*
G54D10*
X27363Y-21280D02*
X27363Y-21068D01*
X28050Y-22000D02*
X28050Y-21967D01*
X28050Y-21967D02*
X27363Y-21280D01*
X26165Y-20465D02*
X26300Y-20600D01*
X24224Y-20401D02*
X24335Y-20290D01*
X24335Y-20290D02*
X25095Y-20290D01*
X23831Y-20401D02*
X24224Y-20401D01*
X27363Y-21068D02*
X27275Y-20980D01*
X26295Y-20980D02*
X25755Y-20980D01*
X26295Y-20605D02*
X26300Y-20600D01*
X23042Y-19902D02*
X23332Y-19902D01*
X26165Y-20014D02*
X26165Y-20465D01*
X25145Y-20340D02*
X25145Y-20928D01*
X26295Y-20980D02*
X26295Y-20605D01*
X25095Y-20290D02*
X25145Y-20340D01*
X25417Y-21200D02*
X25700Y-21200D01*
X27275Y-20980D02*
X26295Y-20980D01*
X25700Y-21035D02*
X25700Y-21200D01*
X25145Y-20928D02*
X25417Y-21200D01*
X23332Y-19902D02*
X23831Y-20401D01*
X25755Y-20980D02*
X25700Y-21035D01*
X23500Y-22060D02*
X23500Y-21700D01*
X22210Y-19605D02*
X22210Y-19245D01*
X17560Y-20600D02*
X17600Y-20560D01*
X22283Y-22090D02*
X22398Y-22090D01*
X22235Y-22042D02*
X22283Y-22090D01*
G54D26*
X11930Y-18623D02*
X15377Y-18623D01*
G54D10*
X25160Y-21115D02*
X25160Y-21490D01*
X22616Y-22214D02*
X22670Y-22160D01*
X20465Y-18720D02*
X20500Y-18755D01*
X21035Y-19330D02*
X20395Y-19560D01*
G54D26*
X23845Y-22065D02*
X23845Y-22055D01*
X23845Y-22045D02*
X23845Y-22065D01*
G54D10*
X24710Y-20995D02*
X25040Y-20995D01*
G54D26*
X15377Y-18623D02*
X16000Y-18000D01*
G54D10*
X19200Y-20970D02*
X19200Y-21700D01*
X17600Y-20560D02*
X17600Y-20230D01*
X19658Y-20885D02*
X19285Y-20885D01*
X22235Y-21692D02*
X22235Y-22042D01*
X23845Y-22065D02*
X23495Y-22065D01*
X21035Y-18920D02*
X21035Y-19330D01*
X20870Y-18755D02*
X21035Y-18920D01*
X22310Y-19705D02*
X22210Y-19605D01*
X25160Y-21490D02*
X25520Y-21850D01*
X22398Y-22090D02*
X22522Y-22214D01*
X25040Y-20995D02*
X25160Y-21115D01*
X19285Y-20885D02*
X19200Y-20970D01*
X17440Y-20600D02*
X17560Y-20600D01*
X20500Y-18755D02*
X20870Y-18755D01*
X23495Y-22065D02*
X23500Y-22060D01*
X22522Y-22214D02*
X22616Y-22214D01*
X23042Y-19705D02*
X22310Y-19705D01*
X20465Y-18308D02*
X20465Y-18720D01*
X26900Y-21695D02*
X26895Y-21700D01*
X26900Y-21200D02*
X26900Y-21695D01*
X17775Y-20900D02*
X17870Y-20900D01*
X17870Y-20900D02*
X18280Y-20490D01*
G54D26*
X24530Y-17980D02*
X24575Y-17980D01*
X19800Y-21224D02*
X19658Y-21082D01*
X26350Y-18659D02*
X25031Y-18659D01*
G54D10*
X25700Y-20305D02*
X25700Y-20600D01*
X25170Y-19775D02*
X25700Y-20305D01*
G54D26*
X27994Y-18000D02*
X27335Y-18659D01*
X17000Y-20020D02*
X16595Y-19870D01*
X19800Y-21700D02*
X19800Y-21224D01*
X16000Y-22950D02*
X16170Y-22950D01*
G54D10*
X20260Y-18300D02*
X20268Y-18308D01*
G54D26*
X20085Y-18300D02*
X20260Y-18300D01*
X19800Y-18300D02*
X20085Y-18300D01*
X16170Y-22950D02*
X16870Y-22250D01*
X21645Y-19050D02*
X21965Y-18730D01*
X24820Y-18875D02*
X24815Y-18875D01*
X22892Y-21692D02*
X22900Y-21700D01*
X16870Y-22250D02*
X16800Y-22180D01*
X16800Y-22180D02*
X16800Y-21125D01*
G54D10*
X26455Y-18764D02*
X26455Y-18780D01*
G54D26*
X19505Y-17905D02*
X19800Y-18200D01*
G54D10*
X22900Y-21224D02*
X23042Y-21082D01*
G54D26*
X22432Y-21692D02*
X22892Y-21692D01*
X23780Y-18730D02*
X24530Y-17980D01*
X21965Y-18730D02*
X23780Y-18730D01*
X19480Y-22360D02*
X19800Y-22040D01*
X17000Y-20230D02*
X17000Y-20020D01*
X27335Y-18659D02*
X26350Y-18659D01*
X16800Y-21125D02*
X17025Y-20900D01*
X18450Y-22365D02*
X17815Y-22365D01*
G54D10*
X26350Y-18659D02*
X26455Y-18764D01*
G54D26*
X19800Y-18200D02*
X19800Y-18300D01*
X17570Y-22610D02*
X17230Y-22610D01*
X25031Y-18659D02*
X24815Y-18875D01*
X20420Y-19050D02*
X20085Y-18715D01*
X20085Y-18715D02*
X20085Y-18300D01*
X20720Y-19050D02*
X20420Y-19050D01*
G54D10*
X22900Y-21700D02*
X22900Y-21224D01*
G54D26*
X28050Y-18000D02*
X27994Y-18000D01*
X22900Y-21710D02*
X22900Y-21700D01*
X22900Y-21710D02*
X23135Y-21925D01*
X19800Y-21700D02*
X19800Y-22040D01*
X17025Y-20900D02*
X17000Y-20875D01*
X17000Y-20875D02*
X17000Y-20230D01*
X17815Y-22365D02*
X17570Y-22610D01*
X16870Y-22250D02*
X17230Y-22610D01*
G54D10*
G36*
X22367Y-22085D02*
X22352Y-22084D01*
X22350Y-22084D01*
X22168Y-22084D01*
X22168Y-22073D01*
X22177Y-22075D01*
X22189Y-22075D01*
X22211Y-22053D01*
X22211Y-21721D01*
X22206Y-21721D01*
X22206Y-21663D01*
X22211Y-21663D01*
X22259Y-21663D01*
X22264Y-21663D01*
X22264Y-21721D01*
X22259Y-21721D01*
X22259Y-22053D01*
X22281Y-22075D01*
X22293Y-22075D01*
X22310Y-22072D01*
X22321Y-22066D01*
X22335Y-22075D01*
X22353Y-22083D01*
X22367Y-22085D01*
X22367Y-22085D01*
G37*
G54D27*
X22367Y-22085D02*
X22352Y-22084D01*
X22350Y-22084D01*
X22168Y-22084D01*
X22168Y-22073D01*
X22177Y-22075D01*
X22189Y-22075D01*
X22211Y-22053D01*
X22211Y-21721D01*
X22206Y-21721D01*
X22206Y-21663D01*
X22211Y-21663D01*
X22259Y-21663D01*
X22264Y-21663D01*
X22264Y-21721D01*
X22259Y-21721D01*
X22259Y-22053D01*
X22281Y-22075D01*
X22293Y-22075D01*
X22310Y-22072D01*
X22321Y-22066D01*
X22335Y-22075D01*
X22353Y-22083D01*
X22367Y-22085D01*
G54D10*
G36*
X24239Y-22207D02*
X24230Y-22206D01*
X24228Y-22206D01*
X23713Y-22206D01*
X23713Y-21934D01*
X23713Y-21917D01*
X23713Y-21751D01*
X23691Y-21729D01*
X23529Y-21729D01*
X23529Y-21991D01*
X23551Y-22013D01*
X23634Y-22013D01*
X23651Y-22010D01*
X23667Y-22003D01*
X23681Y-21993D01*
X23693Y-21981D01*
X23703Y-21967D01*
X23710Y-21951D01*
X23713Y-21934D01*
X23713Y-22206D01*
X22526Y-22206D01*
X22443Y-22123D01*
X22442Y-22122D01*
X22423Y-22106D01*
X22401Y-22095D01*
X22399Y-22094D01*
X22391Y-22091D01*
X22377Y-22087D01*
X22392Y-22087D01*
X22491Y-22087D01*
X22510Y-22083D01*
X22528Y-22076D01*
X22545Y-22065D01*
X22559Y-22051D01*
X22569Y-22035D01*
X22577Y-22017D01*
X22581Y-21997D01*
X22581Y-21978D01*
X22581Y-21851D01*
X22675Y-21851D01*
X22675Y-21935D01*
X22679Y-21954D01*
X22686Y-21972D01*
X22697Y-21989D01*
X22711Y-22003D01*
X22727Y-22013D01*
X22745Y-22021D01*
X22765Y-22025D01*
X22784Y-22025D01*
X22876Y-22025D01*
X22887Y-22052D01*
X22917Y-22098D01*
X22954Y-22137D01*
X22999Y-22168D01*
X23049Y-22190D01*
X23102Y-22201D01*
X23156Y-22203D01*
X23210Y-22193D01*
X23260Y-22173D01*
X23306Y-22144D01*
X23346Y-22107D01*
X23377Y-22063D01*
X23399Y-22013D01*
X23449Y-22013D01*
X23471Y-21991D01*
X23471Y-21759D01*
X23471Y-21729D01*
X23471Y-21671D01*
X23471Y-21641D01*
X23471Y-21409D01*
X23449Y-21387D01*
X23366Y-21387D01*
X23349Y-21390D01*
X23333Y-21397D01*
X23319Y-21407D01*
X23307Y-21419D01*
X23297Y-21433D01*
X23290Y-21449D01*
X23287Y-21466D01*
X23287Y-21483D01*
X23287Y-21641D01*
X23287Y-21649D01*
X23287Y-21693D01*
X23268Y-21680D01*
X23217Y-21659D01*
X23164Y-21648D01*
X23125Y-21648D01*
X23125Y-21465D01*
X23121Y-21446D01*
X23114Y-21428D01*
X23103Y-21411D01*
X23089Y-21397D01*
X23073Y-21387D01*
X23055Y-21379D01*
X23035Y-21375D01*
X23030Y-21375D01*
X23030Y-21278D01*
X23077Y-21231D01*
X23347Y-21231D01*
X23366Y-21227D01*
X23384Y-21220D01*
X23401Y-21209D01*
X23415Y-21195D01*
X23425Y-21179D01*
X23433Y-21161D01*
X23437Y-21141D01*
X23437Y-21122D01*
X23437Y-21086D01*
X23600Y-21249D01*
X23600Y-21387D01*
X23551Y-21387D01*
X23529Y-21409D01*
X23529Y-21671D01*
X23691Y-21671D01*
X23697Y-21665D01*
X24239Y-22207D01*
X24239Y-22207D01*
G37*
G54D27*
X24239Y-22207D02*
X24230Y-22206D01*
X24228Y-22206D01*
X23713Y-22206D01*
X23713Y-21934D01*
X23713Y-21917D01*
X23713Y-21751D01*
X23691Y-21729D01*
X23529Y-21729D01*
X23529Y-21991D01*
X23551Y-22013D01*
X23634Y-22013D01*
X23651Y-22010D01*
X23667Y-22003D01*
X23681Y-21993D01*
X23693Y-21981D01*
X23703Y-21967D01*
X23710Y-21951D01*
X23713Y-21934D01*
X23713Y-22206D01*
X22526Y-22206D01*
X22443Y-22123D01*
X22442Y-22122D01*
X22423Y-22106D01*
X22401Y-22095D01*
X22399Y-22094D01*
X22391Y-22091D01*
X22377Y-22087D01*
X22392Y-22087D01*
X22491Y-22087D01*
X22510Y-22083D01*
X22528Y-22076D01*
X22545Y-22065D01*
X22559Y-22051D01*
X22569Y-22035D01*
X22577Y-22017D01*
X22581Y-21997D01*
X22581Y-21978D01*
X22581Y-21851D01*
X22675Y-21851D01*
X22675Y-21935D01*
X22679Y-21954D01*
X22686Y-21972D01*
X22697Y-21989D01*
X22711Y-22003D01*
X22727Y-22013D01*
X22745Y-22021D01*
X22765Y-22025D01*
X22784Y-22025D01*
X22876Y-22025D01*
X22887Y-22052D01*
X22917Y-22098D01*
X22954Y-22137D01*
X22999Y-22168D01*
X23049Y-22190D01*
X23102Y-22201D01*
X23156Y-22203D01*
X23210Y-22193D01*
X23260Y-22173D01*
X23306Y-22144D01*
X23346Y-22107D01*
X23377Y-22063D01*
X23399Y-22013D01*
X23449Y-22013D01*
X23471Y-21991D01*
X23471Y-21759D01*
X23471Y-21729D01*
X23471Y-21671D01*
X23471Y-21641D01*
X23471Y-21409D01*
X23449Y-21387D01*
X23366Y-21387D01*
X23349Y-21390D01*
X23333Y-21397D01*
X23319Y-21407D01*
X23307Y-21419D01*
X23297Y-21433D01*
X23290Y-21449D01*
X23287Y-21466D01*
X23287Y-21483D01*
X23287Y-21641D01*
X23287Y-21649D01*
X23287Y-21693D01*
X23268Y-21680D01*
X23217Y-21659D01*
X23164Y-21648D01*
X23125Y-21648D01*
X23125Y-21465D01*
X23121Y-21446D01*
X23114Y-21428D01*
X23103Y-21411D01*
X23089Y-21397D01*
X23073Y-21387D01*
X23055Y-21379D01*
X23035Y-21375D01*
X23030Y-21375D01*
X23030Y-21278D01*
X23077Y-21231D01*
X23347Y-21231D01*
X23366Y-21227D01*
X23384Y-21220D01*
X23401Y-21209D01*
X23415Y-21195D01*
X23425Y-21179D01*
X23433Y-21161D01*
X23437Y-21141D01*
X23437Y-21122D01*
X23437Y-21086D01*
X23600Y-21249D01*
X23600Y-21387D01*
X23551Y-21387D01*
X23529Y-21409D01*
X23529Y-21671D01*
X23691Y-21671D01*
X23697Y-21665D01*
X24239Y-22207D01*
G54D10*
G36*
X27715Y-22330D02*
X27702Y-22326D01*
X27677Y-22323D01*
X27675Y-22323D01*
X27042Y-22323D01*
X27048Y-22311D01*
X27057Y-22272D01*
X27058Y-22225D01*
X27050Y-22185D01*
X27035Y-22147D01*
X27012Y-22113D01*
X26983Y-22084D01*
X26950Y-22061D01*
X26912Y-22046D01*
X26872Y-22037D01*
X26831Y-22037D01*
X26791Y-22044D01*
X26754Y-22060D01*
X26729Y-22075D01*
X26650Y-21996D01*
X26649Y-21995D01*
X26630Y-21979D01*
X26608Y-21968D01*
X26606Y-21967D01*
X26598Y-21964D01*
X26584Y-21960D01*
X26559Y-21957D01*
X26557Y-21957D01*
X26472Y-21957D01*
X26491Y-21953D01*
X26509Y-21946D01*
X26526Y-21935D01*
X26540Y-21921D01*
X26550Y-21905D01*
X26558Y-21887D01*
X26562Y-21867D01*
X26562Y-21848D01*
X26562Y-21533D01*
X26558Y-21514D01*
X26551Y-21496D01*
X26540Y-21479D01*
X26526Y-21465D01*
X26510Y-21455D01*
X26492Y-21447D01*
X26472Y-21443D01*
X26453Y-21443D01*
X26138Y-21443D01*
X26119Y-21447D01*
X26101Y-21454D01*
X26084Y-21465D01*
X26070Y-21479D01*
X26060Y-21495D01*
X26052Y-21513D01*
X26048Y-21533D01*
X26048Y-21552D01*
X26048Y-21867D01*
X26052Y-21886D01*
X26059Y-21904D01*
X26070Y-21921D01*
X26084Y-21935D01*
X26100Y-21945D01*
X26118Y-21953D01*
X26138Y-21957D01*
X26157Y-21957D01*
X26175Y-21957D01*
X26175Y-22074D01*
X26175Y-22075D01*
X26175Y-22079D01*
X24823Y-22079D01*
X24448Y-21704D01*
X25054Y-21704D01*
X25073Y-21700D01*
X25091Y-21693D01*
X25108Y-21682D01*
X25122Y-21668D01*
X25132Y-21652D01*
X25140Y-21634D01*
X25144Y-21614D01*
X25144Y-21595D01*
X25144Y-21320D01*
X25140Y-21301D01*
X25133Y-21283D01*
X25122Y-21266D01*
X25108Y-21252D01*
X25092Y-21242D01*
X25074Y-21234D01*
X25054Y-21230D01*
X25035Y-21230D01*
X24681Y-21230D01*
X24681Y-21198D01*
X24681Y-21024D01*
X24681Y-20966D01*
X24681Y-20792D01*
X24659Y-20770D01*
X24384Y-20770D01*
X24367Y-20770D01*
X24350Y-20773D01*
X24334Y-20780D01*
X24320Y-20790D01*
X24308Y-20802D01*
X24298Y-20816D01*
X24291Y-20832D01*
X24288Y-20849D01*
X24288Y-20944D01*
X24310Y-20966D01*
X24681Y-20966D01*
X24681Y-21024D01*
X24310Y-21024D01*
X24288Y-21046D01*
X24288Y-21141D01*
X24291Y-21158D01*
X24298Y-21174D01*
X24308Y-21188D01*
X24320Y-21200D01*
X24334Y-21210D01*
X24350Y-21217D01*
X24367Y-21220D01*
X24384Y-21220D01*
X24659Y-21220D01*
X24681Y-21198D01*
X24681Y-21230D01*
X24366Y-21230D01*
X24347Y-21234D01*
X24329Y-21241D01*
X24312Y-21252D01*
X24298Y-21266D01*
X24288Y-21282D01*
X24280Y-21300D01*
X24276Y-21320D01*
X24276Y-21337D01*
X24261Y-21337D01*
X24226Y-21302D01*
X24226Y-21046D01*
X24226Y-21045D01*
X24224Y-21020D01*
X24216Y-20996D01*
X24216Y-20995D01*
X24204Y-20974D01*
X24204Y-20973D01*
X24192Y-20958D01*
X24189Y-20954D01*
X24188Y-20953D01*
X24181Y-20947D01*
X23887Y-20653D01*
X24276Y-20653D01*
X24276Y-20670D01*
X24280Y-20689D01*
X24287Y-20707D01*
X24298Y-20724D01*
X24312Y-20738D01*
X24328Y-20748D01*
X24346Y-20756D01*
X24366Y-20760D01*
X24385Y-20760D01*
X25015Y-20760D01*
X25015Y-20770D01*
X24761Y-20770D01*
X24739Y-20792D01*
X24739Y-20936D01*
X24739Y-20966D01*
X24739Y-21024D01*
X24739Y-21054D01*
X24739Y-21198D01*
X24761Y-21220D01*
X25036Y-21220D01*
X25053Y-21220D01*
X25070Y-21217D01*
X25086Y-21210D01*
X25100Y-21200D01*
X25112Y-21188D01*
X25122Y-21174D01*
X25129Y-21158D01*
X25132Y-21141D01*
X25132Y-21098D01*
X25320Y-21286D01*
X25324Y-21291D01*
X25325Y-21291D01*
X25333Y-21298D01*
X25344Y-21308D01*
X25366Y-21319D01*
X25367Y-21320D01*
X25375Y-21322D01*
X25375Y-21335D01*
X25379Y-21354D01*
X25386Y-21372D01*
X25397Y-21389D01*
X25411Y-21403D01*
X25427Y-21413D01*
X25445Y-21421D01*
X25465Y-21425D01*
X25484Y-21425D01*
X25935Y-21425D01*
X25954Y-21421D01*
X25972Y-21414D01*
X25989Y-21403D01*
X26003Y-21389D01*
X26007Y-21381D01*
X26019Y-21393D01*
X26033Y-21403D01*
X26049Y-21410D01*
X26066Y-21413D01*
X26083Y-21413D01*
X26249Y-21413D01*
X26271Y-21391D01*
X26271Y-21259D01*
X26271Y-21229D01*
X26271Y-21171D01*
X26329Y-21171D01*
X26329Y-21229D01*
X26329Y-21259D01*
X26329Y-21391D01*
X26351Y-21413D01*
X26517Y-21413D01*
X26534Y-21413D01*
X26551Y-21410D01*
X26567Y-21403D01*
X26581Y-21393D01*
X26592Y-21381D01*
X26597Y-21389D01*
X26611Y-21403D01*
X26627Y-21413D01*
X26645Y-21421D01*
X26665Y-21425D01*
X26684Y-21425D01*
X26770Y-21425D01*
X26770Y-21443D01*
X26728Y-21443D01*
X26709Y-21447D01*
X26691Y-21454D01*
X26674Y-21465D01*
X26660Y-21479D01*
X26650Y-21495D01*
X26642Y-21513D01*
X26638Y-21533D01*
X26638Y-21552D01*
X26638Y-21867D01*
X26642Y-21886D01*
X26649Y-21904D01*
X26660Y-21921D01*
X26674Y-21935D01*
X26690Y-21945D01*
X26708Y-21953D01*
X26728Y-21957D01*
X26747Y-21957D01*
X27062Y-21957D01*
X27081Y-21953D01*
X27099Y-21946D01*
X27116Y-21935D01*
X27130Y-21921D01*
X27140Y-21905D01*
X27148Y-21887D01*
X27152Y-21867D01*
X27152Y-21848D01*
X27152Y-21533D01*
X27148Y-21514D01*
X27141Y-21496D01*
X27130Y-21479D01*
X27116Y-21465D01*
X27100Y-21455D01*
X27082Y-21447D01*
X27062Y-21443D01*
X27043Y-21443D01*
X27030Y-21443D01*
X27030Y-21425D01*
X27135Y-21425D01*
X27154Y-21421D01*
X27172Y-21414D01*
X27189Y-21403D01*
X27203Y-21389D01*
X27213Y-21373D01*
X27221Y-21355D01*
X27225Y-21335D01*
X27225Y-21316D01*
X27225Y-21114D01*
X27233Y-21122D01*
X27233Y-21279D01*
X27233Y-21280D01*
X27235Y-21305D01*
X27243Y-21330D01*
X27250Y-21344D01*
X27254Y-21351D01*
X27255Y-21352D01*
X27270Y-21371D01*
X27271Y-21372D01*
X27650Y-21751D01*
X27636Y-21772D01*
X27600Y-21857D01*
X27581Y-21947D01*
X27579Y-22039D01*
X27596Y-22130D01*
X27630Y-22216D01*
X27680Y-22293D01*
X27715Y-22330D01*
X27715Y-22330D01*
G37*
G54D27*
X27715Y-22330D02*
X27702Y-22326D01*
X27677Y-22323D01*
X27675Y-22323D01*
X27042Y-22323D01*
X27048Y-22311D01*
X27057Y-22272D01*
X27058Y-22225D01*
X27050Y-22185D01*
X27035Y-22147D01*
X27012Y-22113D01*
X26983Y-22084D01*
X26950Y-22061D01*
X26912Y-22046D01*
X26872Y-22037D01*
X26831Y-22037D01*
X26791Y-22044D01*
X26754Y-22060D01*
X26729Y-22075D01*
X26650Y-21996D01*
X26649Y-21995D01*
X26630Y-21979D01*
X26608Y-21968D01*
X26606Y-21967D01*
X26598Y-21964D01*
X26584Y-21960D01*
X26559Y-21957D01*
X26557Y-21957D01*
X26472Y-21957D01*
X26491Y-21953D01*
X26509Y-21946D01*
X26526Y-21935D01*
X26540Y-21921D01*
X26550Y-21905D01*
X26558Y-21887D01*
X26562Y-21867D01*
X26562Y-21848D01*
X26562Y-21533D01*
X26558Y-21514D01*
X26551Y-21496D01*
X26540Y-21479D01*
X26526Y-21465D01*
X26510Y-21455D01*
X26492Y-21447D01*
X26472Y-21443D01*
X26453Y-21443D01*
X26138Y-21443D01*
X26119Y-21447D01*
X26101Y-21454D01*
X26084Y-21465D01*
X26070Y-21479D01*
X26060Y-21495D01*
X26052Y-21513D01*
X26048Y-21533D01*
X26048Y-21552D01*
X26048Y-21867D01*
X26052Y-21886D01*
X26059Y-21904D01*
X26070Y-21921D01*
X26084Y-21935D01*
X26100Y-21945D01*
X26118Y-21953D01*
X26138Y-21957D01*
X26157Y-21957D01*
X26175Y-21957D01*
X26175Y-22074D01*
X26175Y-22075D01*
X26175Y-22079D01*
X24823Y-22079D01*
X24448Y-21704D01*
X25054Y-21704D01*
X25073Y-21700D01*
X25091Y-21693D01*
X25108Y-21682D01*
X25122Y-21668D01*
X25132Y-21652D01*
X25140Y-21634D01*
X25144Y-21614D01*
X25144Y-21595D01*
X25144Y-21320D01*
X25140Y-21301D01*
X25133Y-21283D01*
X25122Y-21266D01*
X25108Y-21252D01*
X25092Y-21242D01*
X25074Y-21234D01*
X25054Y-21230D01*
X25035Y-21230D01*
X24681Y-21230D01*
X24681Y-21198D01*
X24681Y-21024D01*
X24681Y-20966D01*
X24681Y-20792D01*
X24659Y-20770D01*
X24384Y-20770D01*
X24367Y-20770D01*
X24350Y-20773D01*
X24334Y-20780D01*
X24320Y-20790D01*
X24308Y-20802D01*
X24298Y-20816D01*
X24291Y-20832D01*
X24288Y-20849D01*
X24288Y-20944D01*
X24310Y-20966D01*
X24681Y-20966D01*
X24681Y-21024D01*
X24310Y-21024D01*
X24288Y-21046D01*
X24288Y-21141D01*
X24291Y-21158D01*
X24298Y-21174D01*
X24308Y-21188D01*
X24320Y-21200D01*
X24334Y-21210D01*
X24350Y-21217D01*
X24367Y-21220D01*
X24384Y-21220D01*
X24659Y-21220D01*
X24681Y-21198D01*
X24681Y-21230D01*
X24366Y-21230D01*
X24347Y-21234D01*
X24329Y-21241D01*
X24312Y-21252D01*
X24298Y-21266D01*
X24288Y-21282D01*
X24280Y-21300D01*
X24276Y-21320D01*
X24276Y-21337D01*
X24261Y-21337D01*
X24226Y-21302D01*
X24226Y-21046D01*
X24226Y-21045D01*
X24224Y-21020D01*
X24216Y-20996D01*
X24216Y-20995D01*
X24204Y-20974D01*
X24204Y-20973D01*
X24192Y-20958D01*
X24189Y-20954D01*
X24188Y-20953D01*
X24181Y-20947D01*
X23887Y-20653D01*
X24276Y-20653D01*
X24276Y-20670D01*
X24280Y-20689D01*
X24287Y-20707D01*
X24298Y-20724D01*
X24312Y-20738D01*
X24328Y-20748D01*
X24346Y-20756D01*
X24366Y-20760D01*
X24385Y-20760D01*
X25015Y-20760D01*
X25015Y-20770D01*
X24761Y-20770D01*
X24739Y-20792D01*
X24739Y-20936D01*
X24739Y-20966D01*
X24739Y-21024D01*
X24739Y-21054D01*
X24739Y-21198D01*
X24761Y-21220D01*
X25036Y-21220D01*
X25053Y-21220D01*
X25070Y-21217D01*
X25086Y-21210D01*
X25100Y-21200D01*
X25112Y-21188D01*
X25122Y-21174D01*
X25129Y-21158D01*
X25132Y-21141D01*
X25132Y-21098D01*
X25320Y-21286D01*
X25324Y-21291D01*
X25325Y-21291D01*
X25333Y-21298D01*
X25344Y-21308D01*
X25366Y-21319D01*
X25367Y-21320D01*
X25375Y-21322D01*
X25375Y-21335D01*
X25379Y-21354D01*
X25386Y-21372D01*
X25397Y-21389D01*
X25411Y-21403D01*
X25427Y-21413D01*
X25445Y-21421D01*
X25465Y-21425D01*
X25484Y-21425D01*
X25935Y-21425D01*
X25954Y-21421D01*
X25972Y-21414D01*
X25989Y-21403D01*
X26003Y-21389D01*
X26007Y-21381D01*
X26019Y-21393D01*
X26033Y-21403D01*
X26049Y-21410D01*
X26066Y-21413D01*
X26083Y-21413D01*
X26249Y-21413D01*
X26271Y-21391D01*
X26271Y-21259D01*
X26271Y-21229D01*
X26271Y-21171D01*
X26329Y-21171D01*
X26329Y-21229D01*
X26329Y-21259D01*
X26329Y-21391D01*
X26351Y-21413D01*
X26517Y-21413D01*
X26534Y-21413D01*
X26551Y-21410D01*
X26567Y-21403D01*
X26581Y-21393D01*
X26592Y-21381D01*
X26597Y-21389D01*
X26611Y-21403D01*
X26627Y-21413D01*
X26645Y-21421D01*
X26665Y-21425D01*
X26684Y-21425D01*
X26770Y-21425D01*
X26770Y-21443D01*
X26728Y-21443D01*
X26709Y-21447D01*
X26691Y-21454D01*
X26674Y-21465D01*
X26660Y-21479D01*
X26650Y-21495D01*
X26642Y-21513D01*
X26638Y-21533D01*
X26638Y-21552D01*
X26638Y-21867D01*
X26642Y-21886D01*
X26649Y-21904D01*
X26660Y-21921D01*
X26674Y-21935D01*
X26690Y-21945D01*
X26708Y-21953D01*
X26728Y-21957D01*
X26747Y-21957D01*
X27062Y-21957D01*
X27081Y-21953D01*
X27099Y-21946D01*
X27116Y-21935D01*
X27130Y-21921D01*
X27140Y-21905D01*
X27148Y-21887D01*
X27152Y-21867D01*
X27152Y-21848D01*
X27152Y-21533D01*
X27148Y-21514D01*
X27141Y-21496D01*
X27130Y-21479D01*
X27116Y-21465D01*
X27100Y-21455D01*
X27082Y-21447D01*
X27062Y-21443D01*
X27043Y-21443D01*
X27030Y-21443D01*
X27030Y-21425D01*
X27135Y-21425D01*
X27154Y-21421D01*
X27172Y-21414D01*
X27189Y-21403D01*
X27203Y-21389D01*
X27213Y-21373D01*
X27221Y-21355D01*
X27225Y-21335D01*
X27225Y-21316D01*
X27225Y-21114D01*
X27233Y-21122D01*
X27233Y-21279D01*
X27233Y-21280D01*
X27235Y-21305D01*
X27243Y-21330D01*
X27250Y-21344D01*
X27254Y-21351D01*
X27255Y-21352D01*
X27270Y-21371D01*
X27271Y-21372D01*
X27650Y-21751D01*
X27636Y-21772D01*
X27600Y-21857D01*
X27581Y-21947D01*
X27579Y-22039D01*
X27596Y-22130D01*
X27630Y-22216D01*
X27680Y-22293D01*
X27715Y-22330D01*
G54D10*
G36*
X29581Y-23384D02*
X29520Y-23445D01*
X29520Y-21954D01*
X29502Y-21864D01*
X29467Y-21778D01*
X29416Y-21702D01*
X29351Y-21636D01*
X29275Y-21585D01*
X29190Y-21549D01*
X29099Y-21530D01*
X29007Y-21530D01*
X28917Y-21547D01*
X28831Y-21581D01*
X28754Y-21632D01*
X28688Y-21696D01*
X28636Y-21772D01*
X28600Y-21857D01*
X28581Y-21947D01*
X28579Y-22039D01*
X28596Y-22130D01*
X28630Y-22216D01*
X28680Y-22293D01*
X28744Y-22360D01*
X28820Y-22412D01*
X28904Y-22449D01*
X28994Y-22469D01*
X29086Y-22471D01*
X29177Y-22455D01*
X29263Y-22422D01*
X29341Y-22372D01*
X29407Y-22309D01*
X29461Y-22233D01*
X29498Y-22149D01*
X29519Y-22059D01*
X29520Y-21954D01*
X29520Y-23445D01*
X29384Y-23581D01*
X21470Y-23581D01*
X21470Y-23004D01*
X21452Y-22914D01*
X21417Y-22828D01*
X21366Y-22752D01*
X21301Y-22686D01*
X21225Y-22635D01*
X21140Y-22599D01*
X21049Y-22580D01*
X20957Y-22580D01*
X20867Y-22597D01*
X20781Y-22631D01*
X20704Y-22682D01*
X20638Y-22746D01*
X20586Y-22822D01*
X20550Y-22907D01*
X20531Y-22997D01*
X20529Y-23089D01*
X20546Y-23180D01*
X20580Y-23266D01*
X20630Y-23343D01*
X20694Y-23410D01*
X20770Y-23462D01*
X20854Y-23499D01*
X20944Y-23519D01*
X21036Y-23521D01*
X21127Y-23505D01*
X21213Y-23472D01*
X21291Y-23422D01*
X21357Y-23359D01*
X21411Y-23283D01*
X21448Y-23199D01*
X21469Y-23109D01*
X21470Y-23004D01*
X21470Y-23581D01*
X17288Y-23581D01*
X17288Y-23380D01*
X17000Y-23091D01*
X16959Y-23132D01*
X16959Y-23050D01*
X16670Y-22762D01*
X16612Y-22803D01*
X16571Y-22883D01*
X16547Y-22969D01*
X16540Y-23058D01*
X16550Y-23148D01*
X16578Y-23233D01*
X16612Y-23297D01*
X16670Y-23338D01*
X16959Y-23050D01*
X16959Y-23132D01*
X16712Y-23380D01*
X16753Y-23438D01*
X16833Y-23479D01*
X16919Y-23503D01*
X17008Y-23510D01*
X17098Y-23500D01*
X17183Y-23472D01*
X17247Y-23438D01*
X17288Y-23380D01*
X17288Y-23581D01*
X15616Y-23581D01*
X15419Y-23384D01*
X15419Y-22375D01*
X15419Y-22374D01*
X15417Y-22352D01*
X15417Y-22351D01*
X15410Y-22329D01*
X15400Y-22309D01*
X15399Y-22308D01*
X15385Y-22291D01*
X15384Y-22290D01*
X15367Y-22275D01*
X15347Y-22265D01*
X15346Y-22264D01*
X15324Y-22257D01*
X15304Y-22255D01*
X15302Y-22255D01*
X15301Y-22255D01*
X15300Y-22255D01*
X14996Y-22255D01*
X14729Y-21988D01*
X14729Y-21536D01*
X15621Y-21536D01*
X15623Y-21536D01*
X15652Y-21533D01*
X15654Y-21533D01*
X15670Y-21528D01*
X15682Y-21525D01*
X15684Y-21524D01*
X15710Y-21511D01*
X15711Y-21509D01*
X15734Y-21491D01*
X15734Y-21490D01*
X15735Y-21490D01*
X15735Y-21489D01*
X15739Y-21484D01*
X15754Y-21470D01*
X16380Y-21470D01*
X16399Y-21466D01*
X16417Y-21459D01*
X16434Y-21448D01*
X16448Y-21434D01*
X16458Y-21418D01*
X16466Y-21400D01*
X16470Y-21380D01*
X16470Y-21361D01*
X16470Y-20620D01*
X16466Y-20601D01*
X16459Y-20583D01*
X16448Y-20566D01*
X16434Y-20552D01*
X16418Y-20542D01*
X16400Y-20534D01*
X16380Y-20530D01*
X16361Y-20530D01*
X15620Y-20530D01*
X15601Y-20534D01*
X15583Y-20541D01*
X15566Y-20552D01*
X15552Y-20566D01*
X15542Y-20582D01*
X15534Y-20600D01*
X15530Y-20620D01*
X15530Y-20639D01*
X15530Y-21218D01*
X14729Y-21218D01*
X14729Y-20523D01*
X15606Y-20523D01*
X15607Y-20523D01*
X15632Y-20521D01*
X15655Y-20513D01*
X15657Y-20513D01*
X15671Y-20505D01*
X15678Y-20502D01*
X15679Y-20501D01*
X15698Y-20486D01*
X15699Y-20485D01*
X15770Y-20412D01*
X15771Y-20412D01*
X15854Y-20449D01*
X15944Y-20469D01*
X16036Y-20471D01*
X16127Y-20455D01*
X16213Y-20422D01*
X16291Y-20372D01*
X16357Y-20309D01*
X16411Y-20233D01*
X16448Y-20149D01*
X16456Y-20111D01*
X16459Y-20113D01*
X16509Y-20135D01*
X16562Y-20146D01*
X16616Y-20148D01*
X16670Y-20138D01*
X16720Y-20118D01*
X16752Y-20097D01*
X16775Y-20106D01*
X16775Y-20465D01*
X16779Y-20484D01*
X16786Y-20502D01*
X16797Y-20519D01*
X16811Y-20533D01*
X16827Y-20543D01*
X16841Y-20549D01*
X16841Y-20695D01*
X16837Y-20702D01*
X16829Y-20720D01*
X16825Y-20740D01*
X16825Y-20759D01*
X16825Y-20875D01*
X16693Y-21007D01*
X16689Y-21011D01*
X16669Y-21035D01*
X16654Y-21062D01*
X16653Y-21062D01*
X16653Y-21064D01*
X16650Y-21074D01*
X16644Y-21092D01*
X16641Y-21123D01*
X16641Y-21124D01*
X16641Y-21125D01*
X16641Y-22178D01*
X16641Y-22180D01*
X16644Y-22211D01*
X16648Y-22227D01*
X16652Y-22239D01*
X16653Y-22241D01*
X16470Y-22424D01*
X16470Y-21954D01*
X16452Y-21864D01*
X16417Y-21778D01*
X16366Y-21702D01*
X16301Y-21636D01*
X16225Y-21585D01*
X16140Y-21549D01*
X16049Y-21530D01*
X15957Y-21530D01*
X15867Y-21547D01*
X15781Y-21581D01*
X15704Y-21632D01*
X15638Y-21696D01*
X15586Y-21772D01*
X15550Y-21857D01*
X15531Y-21947D01*
X15529Y-22039D01*
X15546Y-22130D01*
X15580Y-22216D01*
X15630Y-22293D01*
X15694Y-22360D01*
X15770Y-22412D01*
X15854Y-22449D01*
X15944Y-22469D01*
X16036Y-22471D01*
X16127Y-22455D01*
X16213Y-22422D01*
X16291Y-22372D01*
X16357Y-22309D01*
X16411Y-22233D01*
X16448Y-22149D01*
X16469Y-22059D01*
X16470Y-21954D01*
X16470Y-22424D01*
X16305Y-22590D01*
X16301Y-22586D01*
X16225Y-22535D01*
X16140Y-22499D01*
X16049Y-22480D01*
X15957Y-22480D01*
X15867Y-22497D01*
X15781Y-22531D01*
X15704Y-22582D01*
X15638Y-22646D01*
X15586Y-22722D01*
X15550Y-22807D01*
X15531Y-22897D01*
X15529Y-22989D01*
X15546Y-23080D01*
X15580Y-23166D01*
X15630Y-23243D01*
X15694Y-23310D01*
X15770Y-23362D01*
X15854Y-23399D01*
X15944Y-23419D01*
X16036Y-23421D01*
X16127Y-23405D01*
X16213Y-23372D01*
X16291Y-23322D01*
X16357Y-23259D01*
X16411Y-23183D01*
X16448Y-23099D01*
X16469Y-23009D01*
X16470Y-22904D01*
X16465Y-22879D01*
X16870Y-22474D01*
X16986Y-22590D01*
X16902Y-22600D01*
X16817Y-22628D01*
X16753Y-22662D01*
X16712Y-22720D01*
X16979Y-22987D01*
X16979Y-22988D01*
X17000Y-23009D01*
X17041Y-23050D01*
X17062Y-23071D01*
X17330Y-23338D01*
X17388Y-23297D01*
X17429Y-23217D01*
X17453Y-23131D01*
X17460Y-23042D01*
X17450Y-22952D01*
X17422Y-22867D01*
X17388Y-22803D01*
X17353Y-22779D01*
X17364Y-22769D01*
X17568Y-22769D01*
X17570Y-22769D01*
X17584Y-22767D01*
X17550Y-22849D01*
X17531Y-22939D01*
X17529Y-23031D01*
X17546Y-23122D01*
X17580Y-23208D01*
X17630Y-23285D01*
X17694Y-23352D01*
X17770Y-23404D01*
X17854Y-23441D01*
X17944Y-23461D01*
X18036Y-23463D01*
X18127Y-23447D01*
X18213Y-23414D01*
X18291Y-23364D01*
X18357Y-23301D01*
X18411Y-23225D01*
X18448Y-23141D01*
X18459Y-23092D01*
X18469Y-23085D01*
X18470Y-23084D01*
X18530Y-23023D01*
X18529Y-23089D01*
X18546Y-23180D01*
X18580Y-23266D01*
X18630Y-23343D01*
X18694Y-23410D01*
X18770Y-23462D01*
X18854Y-23499D01*
X18944Y-23519D01*
X19036Y-23521D01*
X19127Y-23505D01*
X19213Y-23472D01*
X19291Y-23422D01*
X19357Y-23359D01*
X19411Y-23283D01*
X19448Y-23199D01*
X19469Y-23109D01*
X19470Y-23004D01*
X19507Y-23041D01*
X19508Y-23042D01*
X19527Y-23058D01*
X19543Y-23066D01*
X19546Y-23080D01*
X19580Y-23166D01*
X19630Y-23243D01*
X19694Y-23310D01*
X19770Y-23362D01*
X19854Y-23399D01*
X19944Y-23419D01*
X20036Y-23421D01*
X20127Y-23405D01*
X20213Y-23372D01*
X20291Y-23322D01*
X20357Y-23259D01*
X20411Y-23183D01*
X20448Y-23099D01*
X20469Y-23009D01*
X20470Y-22904D01*
X20452Y-22814D01*
X20417Y-22728D01*
X20366Y-22652D01*
X20301Y-22586D01*
X20225Y-22535D01*
X20140Y-22499D01*
X20049Y-22480D01*
X19957Y-22480D01*
X19867Y-22497D01*
X19781Y-22531D01*
X19704Y-22582D01*
X19638Y-22646D01*
X19586Y-22722D01*
X19577Y-22743D01*
X19470Y-22636D01*
X19501Y-22638D01*
X19555Y-22628D01*
X19605Y-22608D01*
X19651Y-22579D01*
X19691Y-22542D01*
X19722Y-22498D01*
X19744Y-22448D01*
X19756Y-22395D01*
X19757Y-22333D01*
X19752Y-22311D01*
X19910Y-22154D01*
X19911Y-22154D01*
X19911Y-22153D01*
X19912Y-22153D01*
X19931Y-22130D01*
X19932Y-22129D01*
X19944Y-22106D01*
X19946Y-22103D01*
X19946Y-22102D01*
X19947Y-22101D01*
X19948Y-22095D01*
X19956Y-22073D01*
X19959Y-22042D01*
X19959Y-22041D01*
X19959Y-22040D01*
X19959Y-22019D01*
X19972Y-22014D01*
X19989Y-22003D01*
X20003Y-21989D01*
X20013Y-21973D01*
X20021Y-21955D01*
X20025Y-21935D01*
X20025Y-21916D01*
X20025Y-21465D01*
X20021Y-21446D01*
X20014Y-21428D01*
X20003Y-21411D01*
X19989Y-21397D01*
X19973Y-21387D01*
X19959Y-21380D01*
X19959Y-21231D01*
X19963Y-21231D01*
X19982Y-21227D01*
X20000Y-21220D01*
X20017Y-21209D01*
X20031Y-21195D01*
X20041Y-21179D01*
X20049Y-21161D01*
X20053Y-21141D01*
X20053Y-21122D01*
X20053Y-21023D01*
X20049Y-21004D01*
X20042Y-20986D01*
X20032Y-20971D01*
X20038Y-20960D01*
X20041Y-20943D01*
X20041Y-20931D01*
X20019Y-20909D01*
X19687Y-20909D01*
X19687Y-20914D01*
X19629Y-20914D01*
X19629Y-20909D01*
X19297Y-20909D01*
X19275Y-20931D01*
X19275Y-20943D01*
X19278Y-20960D01*
X19283Y-20971D01*
X19275Y-20985D01*
X19267Y-21003D01*
X19263Y-21023D01*
X19263Y-21042D01*
X19263Y-21141D01*
X19267Y-21160D01*
X19274Y-21178D01*
X19285Y-21195D01*
X19299Y-21209D01*
X19315Y-21219D01*
X19333Y-21227D01*
X19353Y-21231D01*
X19372Y-21231D01*
X19582Y-21231D01*
X19641Y-21289D01*
X19641Y-21380D01*
X19628Y-21386D01*
X19611Y-21397D01*
X19597Y-21411D01*
X19587Y-21427D01*
X19579Y-21445D01*
X19575Y-21465D01*
X19575Y-21484D01*
X19575Y-21935D01*
X19579Y-21954D01*
X19586Y-21972D01*
X19597Y-21989D01*
X19611Y-22003D01*
X19528Y-22087D01*
X19509Y-22083D01*
X19455Y-22083D01*
X19413Y-22090D01*
X19413Y-21934D01*
X19413Y-21917D01*
X19413Y-21751D01*
X19413Y-21649D01*
X19413Y-21483D01*
X19413Y-21466D01*
X19410Y-21449D01*
X19403Y-21433D01*
X19393Y-21419D01*
X19381Y-21407D01*
X19367Y-21397D01*
X19351Y-21390D01*
X19334Y-21387D01*
X19251Y-21387D01*
X19229Y-21409D01*
X19229Y-21671D01*
X19391Y-21671D01*
X19413Y-21649D01*
X19413Y-21751D01*
X19391Y-21729D01*
X19229Y-21729D01*
X19229Y-21991D01*
X19251Y-22013D01*
X19334Y-22013D01*
X19351Y-22010D01*
X19367Y-22003D01*
X19381Y-21993D01*
X19393Y-21981D01*
X19403Y-21967D01*
X19410Y-21951D01*
X19413Y-21934D01*
X19413Y-22090D01*
X19402Y-22093D01*
X19351Y-22113D01*
X19306Y-22143D01*
X19267Y-22181D01*
X19236Y-22226D01*
X19215Y-22276D01*
X19203Y-22329D01*
X19203Y-22383D01*
X19212Y-22437D01*
X19217Y-22450D01*
X19113Y-22450D01*
X19094Y-22430D01*
X19094Y-22013D01*
X19149Y-22013D01*
X19171Y-21991D01*
X19171Y-21759D01*
X19171Y-21729D01*
X19171Y-21671D01*
X19171Y-21641D01*
X19171Y-21409D01*
X19149Y-21387D01*
X19094Y-21387D01*
X19094Y-20773D01*
X19105Y-20779D01*
X19145Y-20787D01*
X19186Y-20788D01*
X19226Y-20781D01*
X19264Y-20767D01*
X19266Y-20765D01*
X19267Y-20766D01*
X19274Y-20784D01*
X19283Y-20798D01*
X19278Y-20810D01*
X19275Y-20827D01*
X19275Y-20839D01*
X19297Y-20861D01*
X19629Y-20861D01*
X19629Y-20856D01*
X19687Y-20856D01*
X19687Y-20861D01*
X20019Y-20861D01*
X20041Y-20839D01*
X20041Y-20827D01*
X20039Y-20818D01*
X20678Y-20818D01*
X20196Y-21299D01*
X20190Y-21301D01*
X20172Y-21308D01*
X20155Y-21319D01*
X20141Y-21333D01*
X20131Y-21349D01*
X20123Y-21367D01*
X20119Y-21387D01*
X20119Y-21406D01*
X20119Y-21997D01*
X20123Y-22016D01*
X20130Y-22034D01*
X20141Y-22051D01*
X20155Y-22065D01*
X20171Y-22075D01*
X20189Y-22083D01*
X20209Y-22087D01*
X20228Y-22087D01*
X20327Y-22087D01*
X20346Y-22083D01*
X20364Y-22076D01*
X20366Y-22074D01*
X20368Y-22075D01*
X20386Y-22083D01*
X20406Y-22087D01*
X20425Y-22087D01*
X20524Y-22087D01*
X20543Y-22083D01*
X20561Y-22076D01*
X20563Y-22074D01*
X20565Y-22075D01*
X20583Y-22083D01*
X20603Y-22087D01*
X20622Y-22087D01*
X20721Y-22087D01*
X20740Y-22083D01*
X20758Y-22076D01*
X20760Y-22074D01*
X20761Y-22075D01*
X20779Y-22083D01*
X20799Y-22087D01*
X20818Y-22087D01*
X20917Y-22087D01*
X20936Y-22083D01*
X20954Y-22076D01*
X20956Y-22074D01*
X20958Y-22075D01*
X20976Y-22083D01*
X20996Y-22087D01*
X21015Y-22087D01*
X21114Y-22087D01*
X21133Y-22083D01*
X21151Y-22076D01*
X21153Y-22074D01*
X21155Y-22075D01*
X21165Y-22079D01*
X21743Y-22656D01*
X21704Y-22682D01*
X21638Y-22746D01*
X21586Y-22822D01*
X21550Y-22907D01*
X21531Y-22997D01*
X21529Y-23089D01*
X21546Y-23180D01*
X21580Y-23266D01*
X21630Y-23343D01*
X21694Y-23410D01*
X21770Y-23462D01*
X21854Y-23499D01*
X21944Y-23519D01*
X22036Y-23521D01*
X22127Y-23505D01*
X22213Y-23472D01*
X22291Y-23422D01*
X22357Y-23359D01*
X22411Y-23283D01*
X22448Y-23199D01*
X22469Y-23109D01*
X22470Y-23004D01*
X22452Y-22914D01*
X22418Y-22832D01*
X22581Y-22832D01*
X22550Y-22907D01*
X22531Y-22997D01*
X22529Y-23089D01*
X22546Y-23180D01*
X22580Y-23266D01*
X22630Y-23343D01*
X22694Y-23410D01*
X22770Y-23462D01*
X22854Y-23499D01*
X22944Y-23519D01*
X23036Y-23521D01*
X23127Y-23505D01*
X23213Y-23472D01*
X23291Y-23422D01*
X23357Y-23359D01*
X23411Y-23283D01*
X23448Y-23199D01*
X23469Y-23109D01*
X23470Y-23004D01*
X23452Y-22914D01*
X23417Y-22828D01*
X23366Y-22752D01*
X23324Y-22710D01*
X23576Y-22710D01*
X23586Y-22720D01*
X23586Y-22722D01*
X23550Y-22807D01*
X23531Y-22897D01*
X23529Y-22989D01*
X23546Y-23080D01*
X23580Y-23166D01*
X23630Y-23243D01*
X23694Y-23310D01*
X23770Y-23362D01*
X23854Y-23399D01*
X23944Y-23419D01*
X24036Y-23421D01*
X24127Y-23405D01*
X24213Y-23372D01*
X24291Y-23322D01*
X24357Y-23259D01*
X24411Y-23183D01*
X24448Y-23099D01*
X24469Y-23009D01*
X24469Y-22933D01*
X24531Y-22995D01*
X24531Y-22997D01*
X24529Y-23089D01*
X24546Y-23180D01*
X24580Y-23266D01*
X24630Y-23343D01*
X24694Y-23410D01*
X24770Y-23462D01*
X24854Y-23499D01*
X24944Y-23519D01*
X25036Y-23521D01*
X25127Y-23505D01*
X25213Y-23472D01*
X25291Y-23422D01*
X25357Y-23359D01*
X25411Y-23283D01*
X25448Y-23199D01*
X25469Y-23109D01*
X25470Y-23004D01*
X25452Y-22914D01*
X25417Y-22828D01*
X25366Y-22752D01*
X25319Y-22705D01*
X25571Y-22705D01*
X25586Y-22720D01*
X25586Y-22722D01*
X25550Y-22807D01*
X25531Y-22897D01*
X25529Y-22989D01*
X25546Y-23080D01*
X25580Y-23166D01*
X25630Y-23243D01*
X25694Y-23310D01*
X25770Y-23362D01*
X25854Y-23399D01*
X25944Y-23419D01*
X26036Y-23421D01*
X26127Y-23405D01*
X26213Y-23372D01*
X26291Y-23322D01*
X26357Y-23259D01*
X26411Y-23183D01*
X26448Y-23099D01*
X26469Y-23009D01*
X26470Y-22904D01*
X26452Y-22814D01*
X26417Y-22728D01*
X26366Y-22652D01*
X26301Y-22586D01*
X26296Y-22583D01*
X26349Y-22583D01*
X26586Y-22820D01*
X26586Y-22822D01*
X26550Y-22907D01*
X26531Y-22997D01*
X26529Y-23089D01*
X26546Y-23180D01*
X26580Y-23266D01*
X26630Y-23343D01*
X26694Y-23410D01*
X26770Y-23462D01*
X26854Y-23499D01*
X26944Y-23519D01*
X27036Y-23521D01*
X27127Y-23505D01*
X27213Y-23472D01*
X27291Y-23422D01*
X27357Y-23359D01*
X27411Y-23283D01*
X27448Y-23199D01*
X27469Y-23109D01*
X27470Y-23004D01*
X27452Y-22914D01*
X27417Y-22828D01*
X27366Y-22752D01*
X27319Y-22705D01*
X27571Y-22705D01*
X27627Y-22761D01*
X27586Y-22822D01*
X27550Y-22907D01*
X27531Y-22997D01*
X27529Y-23089D01*
X27546Y-23180D01*
X27580Y-23266D01*
X27630Y-23343D01*
X27694Y-23410D01*
X27770Y-23462D01*
X27854Y-23499D01*
X27944Y-23519D01*
X28036Y-23521D01*
X28127Y-23505D01*
X28213Y-23472D01*
X28291Y-23422D01*
X28357Y-23359D01*
X28411Y-23283D01*
X28448Y-23199D01*
X28469Y-23109D01*
X28470Y-23004D01*
X28452Y-22914D01*
X28417Y-22828D01*
X28366Y-22752D01*
X28301Y-22686D01*
X28225Y-22635D01*
X28154Y-22605D01*
X28371Y-22605D01*
X28586Y-22820D01*
X28586Y-22822D01*
X28550Y-22907D01*
X28531Y-22997D01*
X28529Y-23089D01*
X28546Y-23180D01*
X28580Y-23266D01*
X28630Y-23343D01*
X28694Y-23410D01*
X28770Y-23462D01*
X28854Y-23499D01*
X28944Y-23519D01*
X29036Y-23521D01*
X29127Y-23505D01*
X29213Y-23472D01*
X29291Y-23422D01*
X29357Y-23359D01*
X29411Y-23283D01*
X29448Y-23199D01*
X29469Y-23109D01*
X29470Y-23004D01*
X29452Y-22914D01*
X29417Y-22828D01*
X29366Y-22752D01*
X29301Y-22686D01*
X29225Y-22635D01*
X29140Y-22599D01*
X29049Y-22580D01*
X28957Y-22580D01*
X28867Y-22597D01*
X28781Y-22631D01*
X28771Y-22637D01*
X28518Y-22384D01*
X28517Y-22383D01*
X28498Y-22367D01*
X28476Y-22356D01*
X28474Y-22355D01*
X28466Y-22352D01*
X28452Y-22348D01*
X28427Y-22345D01*
X28425Y-22345D01*
X28369Y-22345D01*
X28407Y-22309D01*
X28461Y-22233D01*
X28498Y-22149D01*
X28519Y-22059D01*
X28520Y-21954D01*
X28502Y-21864D01*
X28467Y-21778D01*
X28416Y-21702D01*
X28351Y-21636D01*
X28349Y-21635D01*
X28554Y-21635D01*
X28555Y-21635D01*
X28580Y-21633D01*
X28603Y-21625D01*
X28605Y-21625D01*
X28619Y-21617D01*
X28626Y-21614D01*
X28627Y-21613D01*
X28646Y-21598D01*
X28647Y-21597D01*
X28797Y-21446D01*
X28804Y-21449D01*
X28894Y-21469D01*
X28986Y-21471D01*
X29077Y-21455D01*
X29163Y-21422D01*
X29241Y-21372D01*
X29307Y-21309D01*
X29361Y-21233D01*
X29398Y-21149D01*
X29419Y-21059D01*
X29420Y-20954D01*
X29402Y-20864D01*
X29367Y-20778D01*
X29316Y-20702D01*
X29251Y-20636D01*
X29175Y-20585D01*
X29090Y-20549D01*
X28999Y-20530D01*
X28907Y-20530D01*
X28817Y-20547D01*
X28731Y-20581D01*
X28654Y-20632D01*
X28588Y-20696D01*
X28536Y-20772D01*
X28500Y-20857D01*
X28481Y-20947D01*
X28479Y-21039D01*
X28496Y-21130D01*
X28530Y-21216D01*
X28580Y-21293D01*
X28581Y-21294D01*
X28501Y-21375D01*
X28236Y-21375D01*
X28241Y-21372D01*
X28307Y-21309D01*
X28361Y-21233D01*
X28398Y-21149D01*
X28419Y-21059D01*
X28420Y-20954D01*
X28402Y-20864D01*
X28367Y-20778D01*
X28316Y-20702D01*
X28251Y-20636D01*
X28249Y-20635D01*
X28454Y-20635D01*
X28455Y-20635D01*
X28480Y-20633D01*
X28503Y-20625D01*
X28505Y-20625D01*
X28519Y-20617D01*
X28526Y-20614D01*
X28527Y-20613D01*
X28546Y-20598D01*
X28547Y-20597D01*
X28767Y-20376D01*
X28820Y-20412D01*
X28904Y-20449D01*
X28994Y-20469D01*
X29086Y-20471D01*
X29177Y-20455D01*
X29263Y-20422D01*
X29341Y-20372D01*
X29407Y-20309D01*
X29461Y-20233D01*
X29498Y-20149D01*
X29519Y-20059D01*
X29520Y-19954D01*
X29502Y-19864D01*
X29467Y-19778D01*
X29416Y-19702D01*
X29351Y-19636D01*
X29275Y-19585D01*
X29190Y-19549D01*
X29099Y-19530D01*
X29007Y-19530D01*
X28917Y-19547D01*
X28831Y-19581D01*
X28754Y-19632D01*
X28688Y-19696D01*
X28636Y-19772D01*
X28600Y-19857D01*
X28581Y-19947D01*
X28579Y-20039D01*
X28596Y-20130D01*
X28610Y-20165D01*
X28401Y-20375D01*
X28336Y-20375D01*
X28341Y-20372D01*
X28407Y-20309D01*
X28461Y-20233D01*
X28498Y-20149D01*
X28519Y-20059D01*
X28520Y-19954D01*
X28502Y-19864D01*
X28467Y-19778D01*
X28416Y-19702D01*
X28351Y-19636D01*
X28334Y-19625D01*
X28544Y-19625D01*
X28545Y-19625D01*
X28570Y-19623D01*
X28593Y-19615D01*
X28595Y-19615D01*
X28609Y-19607D01*
X28616Y-19604D01*
X28617Y-19603D01*
X28636Y-19588D01*
X28637Y-19587D01*
X28783Y-19440D01*
X28804Y-19449D01*
X28894Y-19469D01*
X28986Y-19471D01*
X29077Y-19455D01*
X29163Y-19422D01*
X29241Y-19372D01*
X29307Y-19309D01*
X29361Y-19233D01*
X29398Y-19149D01*
X29419Y-19059D01*
X29420Y-18954D01*
X29402Y-18864D01*
X29367Y-18778D01*
X29316Y-18702D01*
X29251Y-18636D01*
X29175Y-18585D01*
X29090Y-18549D01*
X28999Y-18530D01*
X28907Y-18530D01*
X28817Y-18547D01*
X28731Y-18581D01*
X28654Y-18632D01*
X28588Y-18696D01*
X28536Y-18772D01*
X28500Y-18857D01*
X28481Y-18947D01*
X28479Y-19039D01*
X28496Y-19130D01*
X28530Y-19216D01*
X28573Y-19282D01*
X28491Y-19365D01*
X28410Y-19365D01*
X28410Y-18992D01*
X28400Y-18902D01*
X28372Y-18817D01*
X28338Y-18753D01*
X28280Y-18712D01*
X27991Y-19000D01*
X28280Y-19288D01*
X28338Y-19247D01*
X28379Y-19167D01*
X28403Y-19081D01*
X28410Y-18992D01*
X28410Y-19365D01*
X28213Y-19365D01*
X28238Y-19330D01*
X27950Y-19041D01*
X27662Y-19330D01*
X27686Y-19365D01*
X26913Y-19365D01*
X26912Y-19363D01*
X26883Y-19334D01*
X26850Y-19311D01*
X26812Y-19296D01*
X26772Y-19287D01*
X26731Y-19287D01*
X26691Y-19294D01*
X26654Y-19310D01*
X26619Y-19332D01*
X26590Y-19360D01*
X26567Y-19394D01*
X26551Y-19431D01*
X26542Y-19471D01*
X26542Y-19512D01*
X26549Y-19552D01*
X26564Y-19590D01*
X26586Y-19624D01*
X26606Y-19646D01*
X26596Y-19651D01*
X26582Y-19661D01*
X26570Y-19673D01*
X26560Y-19687D01*
X26553Y-19703D01*
X26550Y-19720D01*
X26550Y-19963D01*
X26572Y-19985D01*
X26776Y-19985D01*
X26806Y-19985D01*
X26864Y-19985D01*
X26894Y-19985D01*
X27098Y-19985D01*
X27120Y-19963D01*
X27120Y-19720D01*
X27117Y-19703D01*
X27110Y-19687D01*
X27100Y-19673D01*
X27088Y-19661D01*
X27074Y-19651D01*
X27058Y-19644D01*
X27041Y-19641D01*
X27024Y-19641D01*
X26898Y-19641D01*
X26908Y-19632D01*
X26912Y-19625D01*
X27403Y-19625D01*
X27387Y-19649D01*
X27371Y-19686D01*
X27362Y-19726D01*
X27362Y-19747D01*
X27346Y-19747D01*
X27306Y-19754D01*
X27269Y-19770D01*
X27234Y-19792D01*
X27205Y-19820D01*
X27182Y-19854D01*
X27166Y-19891D01*
X27157Y-19931D01*
X27157Y-19972D01*
X27164Y-20012D01*
X27179Y-20050D01*
X27201Y-20084D01*
X27229Y-20114D01*
X27235Y-20118D01*
X27235Y-20159D01*
X27235Y-20160D01*
X27237Y-20185D01*
X27245Y-20210D01*
X27252Y-20224D01*
X27256Y-20231D01*
X27257Y-20232D01*
X27272Y-20251D01*
X27273Y-20252D01*
X27355Y-20333D01*
X27355Y-20877D01*
X27348Y-20872D01*
X27326Y-20861D01*
X27324Y-20860D01*
X27316Y-20857D01*
X27302Y-20853D01*
X27277Y-20850D01*
X27275Y-20850D01*
X27213Y-20850D01*
X27213Y-20734D01*
X27213Y-20651D01*
X27191Y-20629D01*
X26929Y-20629D01*
X26929Y-20791D01*
X26951Y-20813D01*
X27117Y-20813D01*
X27134Y-20813D01*
X27151Y-20810D01*
X27167Y-20803D01*
X27181Y-20793D01*
X27193Y-20781D01*
X27203Y-20767D01*
X27210Y-20751D01*
X27213Y-20734D01*
X27213Y-20850D01*
X26425Y-20850D01*
X26425Y-20825D01*
X26535Y-20825D01*
X26554Y-20821D01*
X26572Y-20814D01*
X26589Y-20803D01*
X26603Y-20789D01*
X26607Y-20781D01*
X26619Y-20793D01*
X26633Y-20803D01*
X26649Y-20810D01*
X26666Y-20813D01*
X26683Y-20813D01*
X26849Y-20813D01*
X26871Y-20791D01*
X26871Y-20659D01*
X26871Y-20629D01*
X26871Y-20571D01*
X26871Y-20541D01*
X26871Y-20409D01*
X26849Y-20387D01*
X26886Y-20387D01*
X26894Y-20387D01*
X26951Y-20387D01*
X26929Y-20409D01*
X26929Y-20571D01*
X27191Y-20571D01*
X27213Y-20549D01*
X27213Y-20466D01*
X27210Y-20449D01*
X27203Y-20433D01*
X27193Y-20419D01*
X27181Y-20407D01*
X27167Y-20397D01*
X27151Y-20390D01*
X27134Y-20387D01*
X27117Y-20387D01*
X27041Y-20387D01*
X27058Y-20384D01*
X27074Y-20377D01*
X27088Y-20367D01*
X27100Y-20355D01*
X27110Y-20341D01*
X27117Y-20325D01*
X27120Y-20308D01*
X27120Y-20065D01*
X27098Y-20043D01*
X26894Y-20043D01*
X26864Y-20043D01*
X26806Y-20043D01*
X26776Y-20043D01*
X26572Y-20043D01*
X26550Y-20065D01*
X26550Y-20308D01*
X26553Y-20325D01*
X26560Y-20341D01*
X26570Y-20355D01*
X26582Y-20367D01*
X26596Y-20377D01*
X26612Y-20384D01*
X26629Y-20387D01*
X26646Y-20387D01*
X26666Y-20387D01*
X26649Y-20390D01*
X26633Y-20397D01*
X26619Y-20407D01*
X26607Y-20418D01*
X26603Y-20411D01*
X26589Y-20397D01*
X26573Y-20387D01*
X26555Y-20379D01*
X26535Y-20375D01*
X26516Y-20375D01*
X26428Y-20375D01*
X26440Y-20363D01*
X26450Y-20347D01*
X26458Y-20329D01*
X26462Y-20309D01*
X26462Y-20290D01*
X26462Y-19719D01*
X26458Y-19700D01*
X26451Y-19682D01*
X26440Y-19665D01*
X26426Y-19651D01*
X26410Y-19641D01*
X26392Y-19633D01*
X26372Y-19629D01*
X26353Y-19629D01*
X25958Y-19629D01*
X25939Y-19633D01*
X25921Y-19640D01*
X25904Y-19651D01*
X25890Y-19665D01*
X25880Y-19681D01*
X25872Y-19699D01*
X25868Y-19719D01*
X25868Y-19738D01*
X25868Y-20309D01*
X25872Y-20328D01*
X25879Y-20346D01*
X25890Y-20363D01*
X25902Y-20375D01*
X25830Y-20375D01*
X25830Y-20306D01*
X25830Y-20305D01*
X25828Y-20280D01*
X25820Y-20257D01*
X25820Y-20255D01*
X25812Y-20240D01*
X25809Y-20234D01*
X25808Y-20233D01*
X25793Y-20214D01*
X25792Y-20213D01*
X25377Y-19798D01*
X25378Y-19755D01*
X25370Y-19715D01*
X25355Y-19677D01*
X25332Y-19643D01*
X25303Y-19614D01*
X25270Y-19591D01*
X25232Y-19576D01*
X25192Y-19567D01*
X25151Y-19567D01*
X25111Y-19574D01*
X25074Y-19590D01*
X25039Y-19612D01*
X25010Y-19640D01*
X24987Y-19674D01*
X24971Y-19711D01*
X24962Y-19751D01*
X24962Y-19792D01*
X24969Y-19832D01*
X24984Y-19870D01*
X25006Y-19904D01*
X25034Y-19934D01*
X25068Y-19957D01*
X25105Y-19974D01*
X25145Y-19982D01*
X25186Y-19983D01*
X25192Y-19981D01*
X25570Y-20359D01*
X25570Y-20375D01*
X25465Y-20375D01*
X25446Y-20379D01*
X25428Y-20386D01*
X25411Y-20397D01*
X25397Y-20411D01*
X25387Y-20427D01*
X25379Y-20445D01*
X25375Y-20465D01*
X25375Y-20484D01*
X25375Y-20735D01*
X25379Y-20754D01*
X25386Y-20772D01*
X25397Y-20789D01*
X25411Y-20803D01*
X25427Y-20813D01*
X25445Y-20821D01*
X25465Y-20825D01*
X25484Y-20825D01*
X25935Y-20825D01*
X25954Y-20821D01*
X25972Y-20814D01*
X25989Y-20803D01*
X26000Y-20792D01*
X26011Y-20803D01*
X26027Y-20813D01*
X26045Y-20821D01*
X26065Y-20825D01*
X26084Y-20825D01*
X26165Y-20825D01*
X26165Y-20850D01*
X25756Y-20850D01*
X25755Y-20850D01*
X25730Y-20852D01*
X25705Y-20860D01*
X25683Y-20872D01*
X25668Y-20884D01*
X25664Y-20887D01*
X25663Y-20887D01*
X25663Y-20888D01*
X25658Y-20893D01*
X25609Y-20941D01*
X25609Y-20942D01*
X25608Y-20942D01*
X25608Y-20943D01*
X25592Y-20962D01*
X25585Y-20975D01*
X25465Y-20975D01*
X25446Y-20979D01*
X25428Y-20986D01*
X25411Y-20997D01*
X25404Y-21003D01*
X25275Y-20874D01*
X25275Y-20341D01*
X25275Y-20340D01*
X25273Y-20315D01*
X25265Y-20291D01*
X25265Y-20290D01*
X25253Y-20269D01*
X25253Y-20268D01*
X25241Y-20253D01*
X25238Y-20249D01*
X25237Y-20248D01*
X25231Y-20243D01*
X25188Y-20199D01*
X25187Y-20198D01*
X25168Y-20182D01*
X25146Y-20171D01*
X25144Y-20170D01*
X25136Y-20167D01*
X25122Y-20163D01*
X25097Y-20160D01*
X25095Y-20160D01*
X24563Y-20160D01*
X24563Y-19864D01*
X24563Y-19847D01*
X24563Y-19681D01*
X24541Y-19659D01*
X24379Y-19659D01*
X24379Y-19921D01*
X24401Y-19943D01*
X24484Y-19943D01*
X24501Y-19940D01*
X24517Y-19933D01*
X24531Y-19923D01*
X24543Y-19911D01*
X24553Y-19897D01*
X24560Y-19881D01*
X24563Y-19864D01*
X24563Y-20160D01*
X24335Y-20160D01*
X24321Y-20161D01*
X24321Y-19921D01*
X24321Y-19659D01*
X24159Y-19659D01*
X24137Y-19681D01*
X24137Y-19847D01*
X24137Y-19864D01*
X24140Y-19881D01*
X24147Y-19897D01*
X24157Y-19911D01*
X24169Y-19923D01*
X24183Y-19933D01*
X24199Y-19940D01*
X24216Y-19943D01*
X24299Y-19943D01*
X24321Y-19921D01*
X24321Y-20161D01*
X24310Y-20162D01*
X24285Y-20170D01*
X24263Y-20182D01*
X24248Y-20194D01*
X24244Y-20197D01*
X24243Y-20198D01*
X24242Y-20199D01*
X24170Y-20271D01*
X23884Y-20271D01*
X23429Y-19815D01*
X23426Y-19806D01*
X23416Y-19791D01*
X23422Y-19780D01*
X23425Y-19763D01*
X23425Y-19751D01*
X23403Y-19729D01*
X23071Y-19729D01*
X23071Y-19734D01*
X23013Y-19734D01*
X23013Y-19729D01*
X22681Y-19729D01*
X22659Y-19751D01*
X22659Y-19763D01*
X22662Y-19780D01*
X22667Y-19791D01*
X22659Y-19805D01*
X22651Y-19823D01*
X22647Y-19843D01*
X22647Y-19862D01*
X22647Y-19961D01*
X22651Y-19980D01*
X22658Y-19998D01*
X22659Y-20000D01*
X22659Y-20001D01*
X22651Y-20019D01*
X22647Y-20039D01*
X22647Y-20058D01*
X22647Y-20157D01*
X22651Y-20176D01*
X22658Y-20194D01*
X22659Y-20196D01*
X22659Y-20198D01*
X22651Y-20216D01*
X22648Y-20230D01*
X22637Y-20226D01*
X22597Y-20217D01*
X22556Y-20217D01*
X22516Y-20224D01*
X22479Y-20240D01*
X22471Y-20245D01*
X21936Y-20245D01*
X21935Y-20245D01*
X21910Y-20247D01*
X21885Y-20255D01*
X21863Y-20267D01*
X21848Y-20279D01*
X21844Y-20282D01*
X21843Y-20283D01*
X21842Y-20284D01*
X21751Y-20375D01*
X21315Y-20375D01*
X21314Y-20375D01*
X21289Y-20377D01*
X21264Y-20385D01*
X21242Y-20397D01*
X21227Y-20409D01*
X21223Y-20412D01*
X21222Y-20412D01*
X21222Y-20413D01*
X21216Y-20419D01*
X21077Y-20558D01*
X21039Y-20558D01*
X21043Y-20551D01*
X21052Y-20512D01*
X21052Y-20506D01*
X21466Y-20093D01*
X21482Y-20073D01*
X21483Y-20073D01*
X21494Y-20051D01*
X21495Y-20050D01*
X21499Y-20034D01*
X21502Y-20027D01*
X21502Y-20026D01*
X21505Y-20002D01*
X21505Y-20000D01*
X21505Y-19290D01*
X21509Y-19293D01*
X21559Y-19315D01*
X21612Y-19326D01*
X21666Y-19328D01*
X21720Y-19318D01*
X21770Y-19298D01*
X21816Y-19269D01*
X21856Y-19232D01*
X21887Y-19188D01*
X21909Y-19138D01*
X21921Y-19085D01*
X21922Y-19023D01*
X21917Y-19001D01*
X22030Y-18889D01*
X22647Y-18889D01*
X22647Y-18977D01*
X22651Y-18996D01*
X22658Y-19014D01*
X22659Y-19016D01*
X22659Y-19018D01*
X22651Y-19036D01*
X22647Y-19056D01*
X22647Y-19075D01*
X22647Y-19174D01*
X22651Y-19193D01*
X22658Y-19211D01*
X22659Y-19213D01*
X22659Y-19215D01*
X22651Y-19233D01*
X22647Y-19253D01*
X22647Y-19272D01*
X22647Y-19371D01*
X22651Y-19390D01*
X22658Y-19408D01*
X22659Y-19410D01*
X22659Y-19411D01*
X22651Y-19429D01*
X22647Y-19449D01*
X22647Y-19468D01*
X22647Y-19567D01*
X22651Y-19586D01*
X22658Y-19604D01*
X22667Y-19618D01*
X22662Y-19630D01*
X22659Y-19647D01*
X22659Y-19659D01*
X22681Y-19681D01*
X23013Y-19681D01*
X23013Y-19676D01*
X23071Y-19676D01*
X23071Y-19681D01*
X23403Y-19681D01*
X23417Y-19667D01*
X23525Y-19667D01*
X23525Y-19865D01*
X23529Y-19884D01*
X23536Y-19902D01*
X23547Y-19919D01*
X23561Y-19933D01*
X23577Y-19943D01*
X23595Y-19951D01*
X23615Y-19955D01*
X23634Y-19955D01*
X23885Y-19955D01*
X23904Y-19951D01*
X23922Y-19944D01*
X23939Y-19933D01*
X23953Y-19919D01*
X23963Y-19903D01*
X23971Y-19885D01*
X23975Y-19865D01*
X23975Y-19846D01*
X23975Y-19599D01*
X24137Y-19437D01*
X24137Y-19579D01*
X24159Y-19601D01*
X24291Y-19601D01*
X24321Y-19601D01*
X24379Y-19601D01*
X24409Y-19601D01*
X24541Y-19601D01*
X24563Y-19579D01*
X24563Y-19413D01*
X24563Y-19396D01*
X24560Y-19379D01*
X24553Y-19363D01*
X24543Y-19349D01*
X24531Y-19337D01*
X24518Y-19328D01*
X24547Y-19288D01*
X24569Y-19238D01*
X24581Y-19185D01*
X24582Y-19123D01*
X24571Y-19070D01*
X24551Y-19019D01*
X24521Y-18974D01*
X24483Y-18936D01*
X24438Y-18905D01*
X24387Y-18884D01*
X24368Y-18880D01*
X24611Y-18638D01*
X24676Y-18638D01*
X24646Y-18658D01*
X24607Y-18696D01*
X24576Y-18741D01*
X24555Y-18791D01*
X24543Y-18844D01*
X24543Y-18898D01*
X24552Y-18952D01*
X24572Y-19002D01*
X24602Y-19048D01*
X24639Y-19087D01*
X24684Y-19118D01*
X24734Y-19140D01*
X24787Y-19151D01*
X24841Y-19153D01*
X24895Y-19143D01*
X24945Y-19123D01*
X24991Y-19094D01*
X25031Y-19057D01*
X25062Y-19013D01*
X25084Y-18963D01*
X25096Y-18910D01*
X25097Y-18848D01*
X25091Y-18822D01*
X25096Y-18818D01*
X25154Y-18818D01*
X25151Y-18826D01*
X25142Y-18866D01*
X25142Y-18907D01*
X25149Y-18947D01*
X25164Y-18985D01*
X25186Y-19019D01*
X25214Y-19049D01*
X25248Y-19072D01*
X25285Y-19089D01*
X25325Y-19097D01*
X25366Y-19098D01*
X25406Y-19091D01*
X25444Y-19077D01*
X25478Y-19055D01*
X25508Y-19027D01*
X25531Y-18994D01*
X25548Y-18956D01*
X25551Y-18940D01*
X26141Y-18940D01*
X26272Y-19071D01*
X26273Y-19072D01*
X26292Y-19088D01*
X26314Y-19099D01*
X26315Y-19100D01*
X26331Y-19104D01*
X26338Y-19107D01*
X26339Y-19107D01*
X26363Y-19110D01*
X26365Y-19110D01*
X26544Y-19110D01*
X26545Y-19110D01*
X26570Y-19108D01*
X26593Y-19100D01*
X26595Y-19100D01*
X26609Y-19092D01*
X26616Y-19089D01*
X26617Y-19088D01*
X26636Y-19073D01*
X26637Y-19072D01*
X26769Y-18940D01*
X27397Y-18940D01*
X27398Y-18940D01*
X27423Y-18938D01*
X27446Y-18930D01*
X27448Y-18930D01*
X27462Y-18922D01*
X27469Y-18919D01*
X27470Y-18918D01*
X27489Y-18903D01*
X27490Y-18902D01*
X27506Y-18885D01*
X27497Y-18919D01*
X27490Y-19008D01*
X27500Y-19098D01*
X27528Y-19183D01*
X27562Y-19247D01*
X27620Y-19288D01*
X27887Y-19020D01*
X27888Y-19021D01*
X27909Y-19000D01*
X27950Y-18959D01*
X27971Y-18938D01*
X27970Y-18937D01*
X28238Y-18670D01*
X28230Y-18660D01*
X28479Y-18660D01*
X28480Y-18660D01*
X28505Y-18658D01*
X28528Y-18650D01*
X28530Y-18650D01*
X28544Y-18642D01*
X28551Y-18639D01*
X28552Y-18638D01*
X28571Y-18623D01*
X28572Y-18622D01*
X28797Y-18396D01*
X28820Y-18412D01*
X28904Y-18449D01*
X28994Y-18469D01*
X29086Y-18471D01*
X29177Y-18455D01*
X29263Y-18422D01*
X29341Y-18372D01*
X29407Y-18309D01*
X29461Y-18233D01*
X29498Y-18149D01*
X29519Y-18059D01*
X29520Y-17954D01*
X29502Y-17864D01*
X29467Y-17778D01*
X29416Y-17702D01*
X29351Y-17636D01*
X29275Y-17585D01*
X29190Y-17549D01*
X29099Y-17530D01*
X29007Y-17530D01*
X28917Y-17547D01*
X28831Y-17581D01*
X28754Y-17632D01*
X28688Y-17696D01*
X28636Y-17772D01*
X28600Y-17857D01*
X28581Y-17947D01*
X28579Y-18039D01*
X28596Y-18130D01*
X28624Y-18201D01*
X28426Y-18400D01*
X28297Y-18400D01*
X28341Y-18372D01*
X28407Y-18309D01*
X28461Y-18233D01*
X28498Y-18149D01*
X28519Y-18059D01*
X28520Y-17954D01*
X28502Y-17864D01*
X28467Y-17778D01*
X28416Y-17702D01*
X28351Y-17636D01*
X28275Y-17585D01*
X28215Y-17560D01*
X28619Y-17560D01*
X28620Y-17560D01*
X28645Y-17558D01*
X28668Y-17550D01*
X28670Y-17550D01*
X28684Y-17542D01*
X28691Y-17539D01*
X28692Y-17538D01*
X28711Y-17523D01*
X28712Y-17522D01*
X28771Y-17462D01*
X28854Y-17499D01*
X28944Y-17519D01*
X29036Y-17521D01*
X29127Y-17505D01*
X29213Y-17472D01*
X29291Y-17422D01*
X29357Y-17359D01*
X29411Y-17283D01*
X29448Y-17199D01*
X29469Y-17109D01*
X29470Y-17004D01*
X29452Y-16914D01*
X29417Y-16828D01*
X29366Y-16752D01*
X29301Y-16686D01*
X29225Y-16635D01*
X29140Y-16599D01*
X29049Y-16580D01*
X28957Y-16580D01*
X28867Y-16597D01*
X28781Y-16631D01*
X28704Y-16682D01*
X28638Y-16746D01*
X28586Y-16822D01*
X28550Y-16907D01*
X28531Y-16997D01*
X28529Y-17089D01*
X28546Y-17180D01*
X28580Y-17266D01*
X28587Y-17278D01*
X28566Y-17300D01*
X28314Y-17300D01*
X28357Y-17259D01*
X28411Y-17183D01*
X28448Y-17099D01*
X28469Y-17009D01*
X28470Y-16904D01*
X28452Y-16814D01*
X28417Y-16728D01*
X28366Y-16652D01*
X28301Y-16586D01*
X28225Y-16535D01*
X28140Y-16499D01*
X28049Y-16480D01*
X27957Y-16480D01*
X27867Y-16497D01*
X27781Y-16531D01*
X27704Y-16582D01*
X27638Y-16646D01*
X27586Y-16722D01*
X27550Y-16807D01*
X27531Y-16897D01*
X27529Y-16989D01*
X27546Y-17080D01*
X27580Y-17166D01*
X27630Y-17243D01*
X27694Y-17310D01*
X27317Y-17687D01*
X27316Y-17688D01*
X27300Y-17707D01*
X27289Y-17729D01*
X27288Y-17731D01*
X27285Y-17739D01*
X27281Y-17753D01*
X27278Y-17778D01*
X27278Y-17780D01*
X27278Y-18146D01*
X27168Y-18256D01*
X27132Y-18256D01*
X27132Y-17691D01*
X27128Y-17672D01*
X27121Y-17654D01*
X27110Y-17637D01*
X27096Y-17623D01*
X27080Y-17613D01*
X27062Y-17605D01*
X27042Y-17601D01*
X27023Y-17601D01*
X27002Y-17601D01*
X27086Y-17516D01*
X27091Y-17513D01*
X27091Y-17512D01*
X27091Y-17511D01*
X27092Y-17511D01*
X27127Y-17505D01*
X27213Y-17472D01*
X27291Y-17422D01*
X27357Y-17359D01*
X27411Y-17283D01*
X27448Y-17199D01*
X27469Y-17109D01*
X27470Y-17004D01*
X27452Y-16914D01*
X27417Y-16828D01*
X27366Y-16752D01*
X27301Y-16686D01*
X27225Y-16635D01*
X27140Y-16599D01*
X27049Y-16580D01*
X26957Y-16580D01*
X26867Y-16597D01*
X26781Y-16631D01*
X26704Y-16682D01*
X26638Y-16746D01*
X26586Y-16822D01*
X26550Y-16907D01*
X26531Y-16997D01*
X26529Y-17089D01*
X26546Y-17180D01*
X26580Y-17266D01*
X26630Y-17343D01*
X26694Y-17410D01*
X26770Y-17462D01*
X26772Y-17463D01*
X26756Y-17480D01*
X25931Y-17480D01*
X25930Y-17480D01*
X25905Y-17482D01*
X25880Y-17490D01*
X25858Y-17502D01*
X25843Y-17514D01*
X25839Y-17517D01*
X25838Y-17518D01*
X25837Y-17519D01*
X25779Y-17577D01*
X25778Y-17578D01*
X25762Y-17597D01*
X25751Y-17619D01*
X25750Y-17621D01*
X25747Y-17629D01*
X25743Y-17643D01*
X25740Y-17668D01*
X25740Y-17670D01*
X25740Y-18030D01*
X25636Y-18134D01*
X24805Y-18134D01*
X24817Y-18118D01*
X24839Y-18068D01*
X24851Y-18015D01*
X24852Y-17953D01*
X24841Y-17900D01*
X24821Y-17849D01*
X24791Y-17804D01*
X24753Y-17766D01*
X24708Y-17735D01*
X24657Y-17714D01*
X24604Y-17703D01*
X24550Y-17703D01*
X24497Y-17713D01*
X24446Y-17733D01*
X24401Y-17763D01*
X24362Y-17801D01*
X24331Y-17846D01*
X24310Y-17896D01*
X24298Y-17949D01*
X24298Y-17987D01*
X23714Y-18571D01*
X22581Y-18571D01*
X22581Y-18343D01*
X22752Y-18172D01*
X23252Y-18172D01*
X23253Y-18172D01*
X23278Y-18170D01*
X23301Y-18162D01*
X23303Y-18162D01*
X23317Y-18154D01*
X23324Y-18151D01*
X23325Y-18150D01*
X23344Y-18135D01*
X23345Y-18134D01*
X23787Y-17692D01*
X25387Y-17692D01*
X25388Y-17692D01*
X25413Y-17690D01*
X25436Y-17682D01*
X25438Y-17682D01*
X25452Y-17674D01*
X25459Y-17671D01*
X25460Y-17670D01*
X25479Y-17655D01*
X25480Y-17654D01*
X25771Y-17362D01*
X25854Y-17399D01*
X25944Y-17419D01*
X26036Y-17421D01*
X26127Y-17405D01*
X26213Y-17372D01*
X26291Y-17322D01*
X26357Y-17259D01*
X26411Y-17183D01*
X26448Y-17099D01*
X26469Y-17009D01*
X26470Y-16904D01*
X26452Y-16814D01*
X26417Y-16728D01*
X26366Y-16652D01*
X26301Y-16586D01*
X26225Y-16535D01*
X26140Y-16499D01*
X26049Y-16480D01*
X25957Y-16480D01*
X25867Y-16497D01*
X25781Y-16531D01*
X25704Y-16582D01*
X25638Y-16646D01*
X25586Y-16722D01*
X25550Y-16807D01*
X25531Y-16897D01*
X25529Y-16989D01*
X25546Y-17080D01*
X25580Y-17166D01*
X25587Y-17178D01*
X25334Y-17432D01*
X25275Y-17432D01*
X25291Y-17422D01*
X25357Y-17359D01*
X25411Y-17283D01*
X25448Y-17199D01*
X25469Y-17109D01*
X25470Y-17004D01*
X25452Y-16914D01*
X25417Y-16828D01*
X25366Y-16752D01*
X25301Y-16686D01*
X25225Y-16635D01*
X25140Y-16599D01*
X25049Y-16580D01*
X24957Y-16580D01*
X24867Y-16597D01*
X24781Y-16631D01*
X24704Y-16682D01*
X24638Y-16746D01*
X24586Y-16822D01*
X24550Y-16907D01*
X24531Y-16997D01*
X24529Y-17089D01*
X24546Y-17180D01*
X24580Y-17266D01*
X24587Y-17278D01*
X24556Y-17310D01*
X24303Y-17310D01*
X24357Y-17259D01*
X24411Y-17183D01*
X24448Y-17099D01*
X24469Y-17009D01*
X24470Y-16904D01*
X24452Y-16814D01*
X24417Y-16728D01*
X24366Y-16652D01*
X24301Y-16586D01*
X24225Y-16535D01*
X24140Y-16499D01*
X24049Y-16480D01*
X23957Y-16480D01*
X23867Y-16497D01*
X23781Y-16531D01*
X23704Y-16582D01*
X23638Y-16646D01*
X23586Y-16722D01*
X23550Y-16807D01*
X23531Y-16897D01*
X23529Y-16989D01*
X23546Y-17080D01*
X23580Y-17166D01*
X23587Y-17178D01*
X23098Y-17668D01*
X23062Y-17668D01*
X23091Y-17639D01*
X23107Y-17619D01*
X23108Y-17619D01*
X23119Y-17597D01*
X23120Y-17596D01*
X23124Y-17580D01*
X23127Y-17573D01*
X23127Y-17572D01*
X23130Y-17548D01*
X23130Y-17547D01*
X23130Y-17546D01*
X23130Y-17503D01*
X23213Y-17472D01*
X23291Y-17422D01*
X23357Y-17359D01*
X23411Y-17283D01*
X23448Y-17199D01*
X23469Y-17109D01*
X23470Y-17004D01*
X23452Y-16914D01*
X23417Y-16828D01*
X23366Y-16752D01*
X23301Y-16686D01*
X23225Y-16635D01*
X23140Y-16599D01*
X23049Y-16580D01*
X22957Y-16580D01*
X22867Y-16597D01*
X22781Y-16631D01*
X22704Y-16682D01*
X22638Y-16746D01*
X22586Y-16822D01*
X22550Y-16907D01*
X22531Y-16997D01*
X22529Y-17089D01*
X22546Y-17180D01*
X22580Y-17266D01*
X22630Y-17343D01*
X22694Y-17410D01*
X22770Y-17462D01*
X22854Y-17499D01*
X22861Y-17500D01*
X22816Y-17546D01*
X22125Y-17546D01*
X22124Y-17546D01*
X22099Y-17548D01*
X22074Y-17556D01*
X22052Y-17568D01*
X22037Y-17580D01*
X22033Y-17583D01*
X22032Y-17583D01*
X22032Y-17584D01*
X22026Y-17590D01*
X21775Y-17841D01*
X21775Y-17364D01*
X21854Y-17399D01*
X21944Y-17419D01*
X22036Y-17421D01*
X22127Y-17405D01*
X22213Y-17372D01*
X22291Y-17322D01*
X22357Y-17259D01*
X22411Y-17183D01*
X22448Y-17099D01*
X22469Y-17009D01*
X22470Y-16904D01*
X22452Y-16814D01*
X22417Y-16728D01*
X22366Y-16652D01*
X22301Y-16586D01*
X22225Y-16535D01*
X22140Y-16499D01*
X22049Y-16480D01*
X21957Y-16480D01*
X21867Y-16497D01*
X21781Y-16531D01*
X21704Y-16582D01*
X21638Y-16646D01*
X21586Y-16722D01*
X21550Y-16807D01*
X21531Y-16897D01*
X21529Y-16989D01*
X21546Y-17080D01*
X21580Y-17166D01*
X21587Y-17178D01*
X21554Y-17212D01*
X21553Y-17213D01*
X21537Y-17232D01*
X21526Y-17254D01*
X21525Y-17256D01*
X21522Y-17264D01*
X21518Y-17278D01*
X21515Y-17303D01*
X21515Y-17305D01*
X21515Y-17914D01*
X21507Y-17913D01*
X21488Y-17913D01*
X21470Y-17913D01*
X21470Y-17004D01*
X21452Y-16914D01*
X21417Y-16828D01*
X21366Y-16752D01*
X21301Y-16686D01*
X21225Y-16635D01*
X21140Y-16599D01*
X21049Y-16580D01*
X20957Y-16580D01*
X20867Y-16597D01*
X20781Y-16631D01*
X20704Y-16682D01*
X20638Y-16746D01*
X20586Y-16822D01*
X20550Y-16907D01*
X20531Y-16997D01*
X20529Y-17089D01*
X20546Y-17180D01*
X20580Y-17266D01*
X20630Y-17343D01*
X20694Y-17410D01*
X20728Y-17433D01*
X20728Y-17494D01*
X20412Y-17178D01*
X20448Y-17099D01*
X20469Y-17009D01*
X20470Y-16904D01*
X20452Y-16814D01*
X20417Y-16728D01*
X20366Y-16652D01*
X20301Y-16586D01*
X20225Y-16535D01*
X20140Y-16499D01*
X20049Y-16480D01*
X19957Y-16480D01*
X19867Y-16497D01*
X19781Y-16531D01*
X19704Y-16582D01*
X19638Y-16646D01*
X19586Y-16722D01*
X19550Y-16807D01*
X19531Y-16897D01*
X19529Y-16989D01*
X19546Y-17080D01*
X19580Y-17166D01*
X19630Y-17243D01*
X19694Y-17310D01*
X19770Y-17362D01*
X19854Y-17399D01*
X19944Y-17419D01*
X20036Y-17421D01*
X20127Y-17405D01*
X20213Y-17372D01*
X20228Y-17362D01*
X20532Y-17666D01*
X20532Y-17926D01*
X20523Y-17925D01*
X20511Y-17925D01*
X20489Y-17947D01*
X20489Y-18279D01*
X20494Y-18279D01*
X20494Y-18337D01*
X20489Y-18337D01*
X20489Y-18669D01*
X20511Y-18691D01*
X20523Y-18691D01*
X20540Y-18688D01*
X20551Y-18682D01*
X20565Y-18691D01*
X20583Y-18699D01*
X20603Y-18703D01*
X20622Y-18703D01*
X20721Y-18703D01*
X20740Y-18699D01*
X20758Y-18692D01*
X20760Y-18690D01*
X20761Y-18691D01*
X20779Y-18699D01*
X20799Y-18703D01*
X20818Y-18703D01*
X20917Y-18703D01*
X20936Y-18699D01*
X20954Y-18692D01*
X20968Y-18682D01*
X20980Y-18688D01*
X20997Y-18691D01*
X21009Y-18691D01*
X21031Y-18669D01*
X21031Y-18337D01*
X21026Y-18337D01*
X21026Y-18279D01*
X21031Y-18279D01*
X21031Y-17947D01*
X21009Y-17925D01*
X20997Y-17925D01*
X20988Y-17926D01*
X20988Y-17519D01*
X21036Y-17521D01*
X21127Y-17505D01*
X21213Y-17472D01*
X21291Y-17422D01*
X21357Y-17359D01*
X21411Y-17283D01*
X21448Y-17199D01*
X21469Y-17109D01*
X21470Y-17004D01*
X21470Y-17913D01*
X21389Y-17913D01*
X21370Y-17917D01*
X21352Y-17924D01*
X21349Y-17925D01*
X21331Y-17917D01*
X21311Y-17913D01*
X21292Y-17913D01*
X21193Y-17913D01*
X21174Y-17917D01*
X21156Y-17924D01*
X21141Y-17933D01*
X21130Y-17928D01*
X21113Y-17925D01*
X21101Y-17925D01*
X21079Y-17947D01*
X21079Y-18279D01*
X21084Y-18279D01*
X21084Y-18337D01*
X21079Y-18337D01*
X21079Y-18669D01*
X21101Y-18691D01*
X21113Y-18691D01*
X21123Y-18689D01*
X21123Y-19896D01*
X21000Y-20018D01*
X20990Y-20011D01*
X20952Y-19996D01*
X20912Y-19987D01*
X20871Y-19987D01*
X20831Y-19994D01*
X20794Y-20010D01*
X20759Y-20032D01*
X20730Y-20060D01*
X20707Y-20094D01*
X20691Y-20131D01*
X20682Y-20171D01*
X20682Y-20212D01*
X20689Y-20252D01*
X20704Y-20290D01*
X20721Y-20317D01*
X20714Y-20322D01*
X20685Y-20350D01*
X20662Y-20384D01*
X20646Y-20421D01*
X20637Y-20461D01*
X20637Y-20502D01*
X20644Y-20542D01*
X20650Y-20558D01*
X20051Y-20558D01*
X20053Y-20551D01*
X20053Y-20532D01*
X20053Y-20433D01*
X20049Y-20414D01*
X20042Y-20396D01*
X20040Y-20393D01*
X20041Y-20392D01*
X20049Y-20374D01*
X20053Y-20354D01*
X20053Y-20335D01*
X20053Y-20236D01*
X20049Y-20217D01*
X20042Y-20199D01*
X20040Y-20196D01*
X20041Y-20195D01*
X20049Y-20177D01*
X20053Y-20157D01*
X20053Y-20138D01*
X20053Y-20039D01*
X20049Y-20020D01*
X20042Y-20002D01*
X20040Y-19999D01*
X20041Y-19999D01*
X20049Y-19981D01*
X20053Y-19961D01*
X20053Y-19942D01*
X20053Y-19843D01*
X20049Y-19824D01*
X20042Y-19806D01*
X20040Y-19803D01*
X20041Y-19802D01*
X20049Y-19784D01*
X20053Y-19764D01*
X20053Y-19745D01*
X20053Y-19646D01*
X20049Y-19627D01*
X20042Y-19609D01*
X20040Y-19606D01*
X20041Y-19605D01*
X20049Y-19587D01*
X20053Y-19567D01*
X20053Y-19548D01*
X20053Y-19449D01*
X20049Y-19430D01*
X20042Y-19412D01*
X20040Y-19409D01*
X20041Y-19409D01*
X20049Y-19391D01*
X20053Y-19371D01*
X20053Y-19352D01*
X20053Y-19253D01*
X20049Y-19234D01*
X20042Y-19216D01*
X20040Y-19213D01*
X20041Y-19212D01*
X20049Y-19194D01*
X20053Y-19174D01*
X20053Y-19155D01*
X20053Y-19056D01*
X20049Y-19037D01*
X20042Y-19019D01*
X20040Y-19016D01*
X20041Y-19015D01*
X20049Y-18997D01*
X20053Y-18977D01*
X20053Y-18958D01*
X20053Y-18907D01*
X20305Y-19160D01*
X20306Y-19161D01*
X20307Y-19162D01*
X20330Y-19181D01*
X20331Y-19182D01*
X20353Y-19194D01*
X20357Y-19196D01*
X20359Y-19197D01*
X20364Y-19198D01*
X20387Y-19206D01*
X20418Y-19209D01*
X20419Y-19209D01*
X20420Y-19209D01*
X20492Y-19209D01*
X20502Y-19223D01*
X20539Y-19262D01*
X20584Y-19293D01*
X20634Y-19315D01*
X20687Y-19326D01*
X20741Y-19328D01*
X20795Y-19318D01*
X20845Y-19298D01*
X20891Y-19269D01*
X20931Y-19232D01*
X20962Y-19188D01*
X20984Y-19138D01*
X20996Y-19085D01*
X20997Y-19023D01*
X20986Y-18970D01*
X20966Y-18919D01*
X20936Y-18874D01*
X20898Y-18836D01*
X20853Y-18805D01*
X20802Y-18784D01*
X20749Y-18773D01*
X20695Y-18773D01*
X20642Y-18783D01*
X20591Y-18803D01*
X20546Y-18833D01*
X20507Y-18871D01*
X20493Y-18891D01*
X20485Y-18891D01*
X20297Y-18703D01*
X20327Y-18703D01*
X20346Y-18699D01*
X20364Y-18692D01*
X20378Y-18682D01*
X20390Y-18688D01*
X20407Y-18691D01*
X20419Y-18691D01*
X20441Y-18669D01*
X20441Y-18337D01*
X20436Y-18337D01*
X20436Y-18279D01*
X20441Y-18279D01*
X20441Y-17947D01*
X20419Y-17925D01*
X20407Y-17925D01*
X20390Y-17928D01*
X20378Y-17933D01*
X20365Y-17925D01*
X20347Y-17917D01*
X20327Y-17913D01*
X20308Y-17913D01*
X20209Y-17913D01*
X20190Y-17917D01*
X20172Y-17924D01*
X20155Y-17935D01*
X20141Y-17949D01*
X20131Y-17965D01*
X20123Y-17983D01*
X20119Y-18003D01*
X20119Y-18022D01*
X20119Y-18141D01*
X20087Y-18141D01*
X20086Y-18141D01*
X20085Y-18141D01*
X20025Y-18141D01*
X20025Y-18065D01*
X20021Y-18046D01*
X20014Y-18028D01*
X20003Y-18011D01*
X19989Y-17997D01*
X19973Y-17987D01*
X19955Y-17979D01*
X19935Y-17975D01*
X19916Y-17975D01*
X19799Y-17975D01*
X19777Y-17953D01*
X19781Y-17940D01*
X19782Y-17878D01*
X19771Y-17825D01*
X19751Y-17774D01*
X19721Y-17729D01*
X19683Y-17691D01*
X19638Y-17660D01*
X19587Y-17639D01*
X19534Y-17628D01*
X19480Y-17628D01*
X19427Y-17638D01*
X19376Y-17658D01*
X19331Y-17688D01*
X19292Y-17726D01*
X19261Y-17771D01*
X19240Y-17821D01*
X19228Y-17874D01*
X19228Y-17928D01*
X19237Y-17982D01*
X19242Y-17995D01*
X19229Y-18009D01*
X19229Y-18271D01*
X19391Y-18271D01*
X19413Y-18249D01*
X19413Y-18167D01*
X19419Y-18170D01*
X19472Y-18181D01*
X19526Y-18183D01*
X19553Y-18177D01*
X19575Y-18199D01*
X19575Y-18535D01*
X19579Y-18554D01*
X19586Y-18572D01*
X19597Y-18589D01*
X19611Y-18603D01*
X19627Y-18613D01*
X19645Y-18621D01*
X19665Y-18625D01*
X19684Y-18625D01*
X19926Y-18625D01*
X19926Y-18713D01*
X19926Y-18715D01*
X19929Y-18746D01*
X19933Y-18762D01*
X19935Y-18769D01*
X19413Y-18769D01*
X19413Y-18534D01*
X19413Y-18517D01*
X19413Y-18351D01*
X19391Y-18329D01*
X19229Y-18329D01*
X19229Y-18591D01*
X19251Y-18613D01*
X19334Y-18613D01*
X19351Y-18610D01*
X19367Y-18603D01*
X19381Y-18593D01*
X19393Y-18581D01*
X19403Y-18567D01*
X19410Y-18551D01*
X19413Y-18534D01*
X19413Y-18769D01*
X19353Y-18769D01*
X19348Y-18769D01*
X19170Y-18591D01*
X19171Y-18591D01*
X19171Y-18329D01*
X19171Y-18271D01*
X19171Y-18009D01*
X19149Y-17987D01*
X19066Y-17987D01*
X19049Y-17990D01*
X19033Y-17997D01*
X19019Y-18007D01*
X19007Y-18019D01*
X18997Y-18033D01*
X18990Y-18049D01*
X18987Y-18066D01*
X18987Y-18083D01*
X18987Y-18249D01*
X19009Y-18271D01*
X19171Y-18271D01*
X19171Y-18329D01*
X19009Y-18329D01*
X18987Y-18351D01*
X18987Y-18408D01*
X18530Y-17951D01*
X18530Y-17829D01*
X18858Y-17500D01*
X18944Y-17519D01*
X19036Y-17521D01*
X19127Y-17505D01*
X19213Y-17472D01*
X19291Y-17422D01*
X19357Y-17359D01*
X19411Y-17283D01*
X19448Y-17199D01*
X19469Y-17109D01*
X19470Y-17004D01*
X19452Y-16914D01*
X19417Y-16828D01*
X19366Y-16752D01*
X19301Y-16686D01*
X19225Y-16635D01*
X19140Y-16599D01*
X19049Y-16580D01*
X18957Y-16580D01*
X18867Y-16597D01*
X18781Y-16631D01*
X18704Y-16682D01*
X18638Y-16746D01*
X18586Y-16822D01*
X18550Y-16907D01*
X18531Y-16997D01*
X18529Y-17089D01*
X18546Y-17180D01*
X18580Y-17266D01*
X18630Y-17343D01*
X18638Y-17352D01*
X18408Y-17583D01*
X18408Y-17229D01*
X18408Y-17228D01*
X18406Y-17203D01*
X18403Y-17194D01*
X18411Y-17183D01*
X18448Y-17099D01*
X18469Y-17009D01*
X18470Y-16904D01*
X18452Y-16814D01*
X18417Y-16728D01*
X18366Y-16652D01*
X18301Y-16586D01*
X18225Y-16535D01*
X18140Y-16499D01*
X18049Y-16480D01*
X17957Y-16480D01*
X17867Y-16497D01*
X17781Y-16531D01*
X17704Y-16582D01*
X17638Y-16646D01*
X17586Y-16722D01*
X17550Y-16807D01*
X17531Y-16897D01*
X17529Y-16989D01*
X17546Y-17080D01*
X17580Y-17166D01*
X17630Y-17243D01*
X17674Y-17290D01*
X17424Y-17290D01*
X17412Y-17278D01*
X17448Y-17199D01*
X17469Y-17109D01*
X17470Y-17004D01*
X17452Y-16914D01*
X17417Y-16828D01*
X17366Y-16752D01*
X17301Y-16686D01*
X17225Y-16635D01*
X17140Y-16599D01*
X17049Y-16580D01*
X16957Y-16580D01*
X16867Y-16597D01*
X16781Y-16631D01*
X16704Y-16682D01*
X16638Y-16746D01*
X16586Y-16822D01*
X16550Y-16907D01*
X16531Y-16997D01*
X16529Y-17070D01*
X16468Y-17009D01*
X16469Y-17009D01*
X16470Y-16904D01*
X16452Y-16814D01*
X16417Y-16728D01*
X16366Y-16652D01*
X16301Y-16586D01*
X16225Y-16535D01*
X16140Y-16499D01*
X16049Y-16480D01*
X15957Y-16480D01*
X15867Y-16497D01*
X15781Y-16531D01*
X15704Y-16582D01*
X15638Y-16646D01*
X15586Y-16722D01*
X15550Y-16807D01*
X15531Y-16897D01*
X15529Y-16989D01*
X15546Y-17080D01*
X15580Y-17166D01*
X15630Y-17243D01*
X15694Y-17310D01*
X15770Y-17362D01*
X15854Y-17399D01*
X15944Y-17419D01*
X16036Y-17421D01*
X16127Y-17405D01*
X16213Y-17372D01*
X16291Y-17322D01*
X16353Y-17262D01*
X16724Y-17633D01*
X16725Y-17634D01*
X16744Y-17650D01*
X16766Y-17661D01*
X16767Y-17662D01*
X16783Y-17666D01*
X16790Y-17669D01*
X16791Y-17669D01*
X16815Y-17672D01*
X16817Y-17672D01*
X17826Y-17672D01*
X17904Y-17749D01*
X17904Y-18154D01*
X17904Y-18155D01*
X17906Y-18180D01*
X17914Y-18205D01*
X17921Y-18219D01*
X17925Y-18226D01*
X17926Y-18227D01*
X17941Y-18246D01*
X17942Y-18247D01*
X17977Y-18282D01*
X17961Y-18282D01*
X17921Y-18289D01*
X17884Y-18305D01*
X17849Y-18327D01*
X17820Y-18355D01*
X17797Y-18389D01*
X17781Y-18426D01*
X17772Y-18466D01*
X17772Y-18500D01*
X17655Y-18500D01*
X17636Y-18504D01*
X17618Y-18511D01*
X17601Y-18522D01*
X17590Y-18533D01*
X17579Y-18522D01*
X17563Y-18512D01*
X17545Y-18504D01*
X17525Y-18500D01*
X17506Y-18500D01*
X17451Y-18500D01*
X17452Y-18497D01*
X17453Y-18450D01*
X17445Y-18410D01*
X17430Y-18372D01*
X17407Y-18338D01*
X17378Y-18309D01*
X17345Y-18286D01*
X17307Y-18271D01*
X17267Y-18262D01*
X17226Y-18262D01*
X17186Y-18269D01*
X17149Y-18285D01*
X17114Y-18307D01*
X17085Y-18335D01*
X17062Y-18369D01*
X17046Y-18406D01*
X17037Y-18446D01*
X17037Y-18487D01*
X17039Y-18503D01*
X17036Y-18504D01*
X17018Y-18511D01*
X17001Y-18522D01*
X16987Y-18536D01*
X16977Y-18552D01*
X16969Y-18570D01*
X16965Y-18590D01*
X16965Y-18609D01*
X16965Y-18860D01*
X16969Y-18879D01*
X16976Y-18897D01*
X16987Y-18914D01*
X17001Y-18928D01*
X17017Y-18938D01*
X17035Y-18946D01*
X17055Y-18950D01*
X17074Y-18950D01*
X17525Y-18950D01*
X17544Y-18946D01*
X17562Y-18939D01*
X17579Y-18928D01*
X17590Y-18917D01*
X17601Y-18928D01*
X17617Y-18938D01*
X17635Y-18946D01*
X17655Y-18950D01*
X17674Y-18950D01*
X18125Y-18950D01*
X18144Y-18946D01*
X18162Y-18939D01*
X18179Y-18928D01*
X18193Y-18914D01*
X18203Y-18898D01*
X18211Y-18880D01*
X18215Y-18860D01*
X18215Y-18841D01*
X18215Y-18590D01*
X18211Y-18571D01*
X18204Y-18553D01*
X18193Y-18536D01*
X18184Y-18527D01*
X18187Y-18517D01*
X18187Y-18492D01*
X18947Y-19252D01*
X18927Y-19250D01*
X18925Y-19250D01*
X18694Y-19250D01*
X18693Y-19250D01*
X18668Y-19252D01*
X18643Y-19260D01*
X18621Y-19272D01*
X18606Y-19284D01*
X18602Y-19287D01*
X18601Y-19287D01*
X18601Y-19288D01*
X18596Y-19293D01*
X18215Y-19293D01*
X18215Y-19190D01*
X18211Y-19171D01*
X18204Y-19153D01*
X18193Y-19136D01*
X18179Y-19122D01*
X18163Y-19112D01*
X18145Y-19104D01*
X18125Y-19100D01*
X18106Y-19100D01*
X17655Y-19100D01*
X17636Y-19104D01*
X17618Y-19111D01*
X17601Y-19122D01*
X17590Y-19133D01*
X17579Y-19122D01*
X17563Y-19112D01*
X17545Y-19104D01*
X17525Y-19100D01*
X17506Y-19100D01*
X17055Y-19100D01*
X17036Y-19104D01*
X17018Y-19111D01*
X17001Y-19122D01*
X16987Y-19136D01*
X16977Y-19152D01*
X16969Y-19170D01*
X16965Y-19190D01*
X16965Y-19209D01*
X16965Y-19460D01*
X16969Y-19479D01*
X16976Y-19497D01*
X16987Y-19514D01*
X17001Y-19528D01*
X17017Y-19538D01*
X17035Y-19546D01*
X17055Y-19550D01*
X17074Y-19550D01*
X17366Y-19550D01*
X17452Y-19636D01*
X17453Y-19637D01*
X17472Y-19653D01*
X17494Y-19664D01*
X17495Y-19665D01*
X17511Y-19669D01*
X17518Y-19672D01*
X17519Y-19672D01*
X17543Y-19675D01*
X17545Y-19675D01*
X18589Y-19675D01*
X18611Y-19709D01*
X18639Y-19739D01*
X18673Y-19762D01*
X18687Y-19768D01*
X18629Y-19827D01*
X18628Y-19828D01*
X18612Y-19847D01*
X18601Y-19869D01*
X18600Y-19871D01*
X18597Y-19879D01*
X18593Y-19893D01*
X18593Y-19839D01*
X18593Y-19756D01*
X18590Y-19739D01*
X18583Y-19723D01*
X18573Y-19709D01*
X18561Y-19697D01*
X18547Y-19687D01*
X18531Y-19680D01*
X18514Y-19677D01*
X18497Y-19677D01*
X18331Y-19677D01*
X18309Y-19699D01*
X18309Y-19861D01*
X18571Y-19861D01*
X18593Y-19839D01*
X18593Y-19893D01*
X18590Y-19918D01*
X18590Y-19920D01*
X18590Y-19938D01*
X18571Y-19919D01*
X18309Y-19919D01*
X18309Y-20081D01*
X18331Y-20103D01*
X18497Y-20103D01*
X18514Y-20103D01*
X18531Y-20100D01*
X18547Y-20093D01*
X18561Y-20083D01*
X18573Y-20071D01*
X18583Y-20057D01*
X18590Y-20041D01*
X18590Y-20311D01*
X18583Y-20301D01*
X18569Y-20287D01*
X18553Y-20277D01*
X18535Y-20269D01*
X18515Y-20265D01*
X18496Y-20265D01*
X18251Y-20265D01*
X18251Y-20081D01*
X18251Y-19919D01*
X18251Y-19861D01*
X18251Y-19699D01*
X18229Y-19677D01*
X18063Y-19677D01*
X18046Y-19677D01*
X18029Y-19680D01*
X18013Y-19687D01*
X17999Y-19697D01*
X17987Y-19709D01*
X17977Y-19723D01*
X17970Y-19739D01*
X17967Y-19756D01*
X17967Y-19839D01*
X17989Y-19861D01*
X18251Y-19861D01*
X18251Y-19919D01*
X17989Y-19919D01*
X17967Y-19941D01*
X17967Y-20024D01*
X17970Y-20041D01*
X17977Y-20057D01*
X17987Y-20071D01*
X17999Y-20083D01*
X18013Y-20093D01*
X18029Y-20100D01*
X18046Y-20103D01*
X18063Y-20103D01*
X18229Y-20103D01*
X18251Y-20081D01*
X18251Y-20265D01*
X18045Y-20265D01*
X18026Y-20269D01*
X18008Y-20276D01*
X17991Y-20287D01*
X17977Y-20301D01*
X17967Y-20317D01*
X17959Y-20335D01*
X17955Y-20355D01*
X17955Y-20374D01*
X17955Y-20625D01*
X17956Y-20629D01*
X17923Y-20662D01*
X17905Y-20654D01*
X17885Y-20650D01*
X17866Y-20650D01*
X17813Y-20650D01*
X17813Y-20464D01*
X17813Y-20447D01*
X17813Y-20281D01*
X17813Y-20179D01*
X17813Y-20013D01*
X17813Y-19996D01*
X17810Y-19979D01*
X17803Y-19963D01*
X17793Y-19949D01*
X17781Y-19937D01*
X17767Y-19927D01*
X17751Y-19920D01*
X17734Y-19917D01*
X17651Y-19917D01*
X17629Y-19939D01*
X17629Y-20201D01*
X17791Y-20201D01*
X17813Y-20179D01*
X17813Y-20281D01*
X17791Y-20259D01*
X17629Y-20259D01*
X17629Y-20521D01*
X17651Y-20543D01*
X17734Y-20543D01*
X17751Y-20540D01*
X17767Y-20533D01*
X17781Y-20523D01*
X17793Y-20511D01*
X17803Y-20497D01*
X17810Y-20481D01*
X17813Y-20464D01*
X17813Y-20650D01*
X17665Y-20650D01*
X17646Y-20654D01*
X17628Y-20661D01*
X17611Y-20672D01*
X17597Y-20686D01*
X17587Y-20702D01*
X17579Y-20720D01*
X17575Y-20740D01*
X17575Y-20759D01*
X17575Y-21060D01*
X17579Y-21079D01*
X17586Y-21097D01*
X17597Y-21114D01*
X17611Y-21128D01*
X17627Y-21138D01*
X17645Y-21146D01*
X17665Y-21150D01*
X17684Y-21150D01*
X17885Y-21150D01*
X17904Y-21146D01*
X17922Y-21139D01*
X17939Y-21128D01*
X17953Y-21114D01*
X17963Y-21098D01*
X17971Y-21080D01*
X17975Y-21060D01*
X17975Y-21041D01*
X17975Y-20979D01*
X18239Y-20715D01*
X18515Y-20715D01*
X18534Y-20711D01*
X18552Y-20704D01*
X18569Y-20693D01*
X18583Y-20679D01*
X18590Y-20667D01*
X18590Y-21087D01*
X18451Y-21087D01*
X18429Y-21109D01*
X18429Y-21241D01*
X18429Y-21271D01*
X18429Y-21329D01*
X18429Y-21359D01*
X18429Y-21491D01*
X18451Y-21513D01*
X18590Y-21513D01*
X18590Y-21675D01*
X18371Y-21675D01*
X18371Y-21491D01*
X18371Y-21329D01*
X18371Y-21271D01*
X18371Y-21109D01*
X18349Y-21087D01*
X18183Y-21087D01*
X18166Y-21087D01*
X18149Y-21090D01*
X18133Y-21097D01*
X18119Y-21107D01*
X18107Y-21119D01*
X18097Y-21133D01*
X18090Y-21149D01*
X18087Y-21166D01*
X18087Y-21249D01*
X18109Y-21271D01*
X18371Y-21271D01*
X18371Y-21329D01*
X18109Y-21329D01*
X18087Y-21351D01*
X18087Y-21434D01*
X18090Y-21451D01*
X18097Y-21467D01*
X18107Y-21481D01*
X18119Y-21493D01*
X18133Y-21503D01*
X18149Y-21510D01*
X18166Y-21513D01*
X18183Y-21513D01*
X18349Y-21513D01*
X18371Y-21491D01*
X18371Y-21675D01*
X18165Y-21675D01*
X18146Y-21679D01*
X18128Y-21686D01*
X18111Y-21697D01*
X18097Y-21711D01*
X18087Y-21727D01*
X18080Y-21741D01*
X17975Y-21741D01*
X17975Y-21740D01*
X17971Y-21721D01*
X17964Y-21703D01*
X17953Y-21686D01*
X17939Y-21672D01*
X17923Y-21662D01*
X17905Y-21654D01*
X17885Y-21650D01*
X17866Y-21650D01*
X17665Y-21650D01*
X17646Y-21654D01*
X17628Y-21661D01*
X17611Y-21672D01*
X17597Y-21686D01*
X17587Y-21702D01*
X17581Y-21715D01*
X17578Y-21708D01*
X17571Y-21698D01*
X17571Y-20521D01*
X17571Y-20259D01*
X17571Y-20201D01*
X17571Y-19939D01*
X17549Y-19917D01*
X17466Y-19917D01*
X17449Y-19920D01*
X17433Y-19927D01*
X17419Y-19937D01*
X17407Y-19949D01*
X17397Y-19963D01*
X17390Y-19979D01*
X17387Y-19996D01*
X17387Y-20013D01*
X17387Y-20179D01*
X17409Y-20201D01*
X17571Y-20201D01*
X17571Y-20259D01*
X17409Y-20259D01*
X17387Y-20281D01*
X17387Y-20447D01*
X17387Y-20464D01*
X17390Y-20481D01*
X17397Y-20497D01*
X17407Y-20511D01*
X17419Y-20523D01*
X17433Y-20533D01*
X17449Y-20540D01*
X17466Y-20543D01*
X17549Y-20543D01*
X17571Y-20521D01*
X17571Y-21698D01*
X17568Y-21694D01*
X17556Y-21682D01*
X17542Y-21672D01*
X17526Y-21665D01*
X17509Y-21662D01*
X17451Y-21662D01*
X17429Y-21684D01*
X17429Y-21841D01*
X17429Y-21871D01*
X17429Y-21929D01*
X17371Y-21929D01*
X17371Y-21871D01*
X17371Y-21841D01*
X17371Y-21684D01*
X17349Y-21662D01*
X17291Y-21662D01*
X17274Y-21665D01*
X17258Y-21672D01*
X17244Y-21682D01*
X17232Y-21694D01*
X17222Y-21708D01*
X17218Y-21715D01*
X17214Y-21703D01*
X17203Y-21686D01*
X17189Y-21672D01*
X17173Y-21662D01*
X17155Y-21654D01*
X17135Y-21650D01*
X17116Y-21650D01*
X16959Y-21650D01*
X16959Y-21190D01*
X16999Y-21150D01*
X17135Y-21150D01*
X17154Y-21146D01*
X17172Y-21139D01*
X17189Y-21128D01*
X17203Y-21114D01*
X17213Y-21098D01*
X17221Y-21080D01*
X17225Y-21060D01*
X17225Y-21041D01*
X17225Y-20740D01*
X17221Y-20721D01*
X17214Y-20703D01*
X17203Y-20686D01*
X17189Y-20672D01*
X17173Y-20662D01*
X17159Y-20655D01*
X17159Y-20549D01*
X17172Y-20544D01*
X17189Y-20533D01*
X17203Y-20519D01*
X17213Y-20503D01*
X17221Y-20485D01*
X17225Y-20465D01*
X17225Y-20446D01*
X17225Y-19995D01*
X17221Y-19976D01*
X17214Y-19958D01*
X17203Y-19941D01*
X17189Y-19927D01*
X17173Y-19917D01*
X17155Y-19909D01*
X17135Y-19905D01*
X17116Y-19905D01*
X17109Y-19905D01*
X17109Y-19904D01*
X17099Y-19897D01*
X17089Y-19888D01*
X17085Y-19885D01*
X17084Y-19885D01*
X17080Y-19883D01*
X17062Y-19873D01*
X17057Y-19871D01*
X17056Y-19871D01*
X17054Y-19870D01*
X16862Y-19799D01*
X16861Y-19790D01*
X16841Y-19739D01*
X16811Y-19694D01*
X16773Y-19656D01*
X16728Y-19625D01*
X16677Y-19604D01*
X16624Y-19593D01*
X16570Y-19593D01*
X16517Y-19603D01*
X16466Y-19623D01*
X16421Y-19653D01*
X16382Y-19691D01*
X16370Y-19708D01*
X16366Y-19702D01*
X16301Y-19636D01*
X16225Y-19585D01*
X16140Y-19549D01*
X16049Y-19530D01*
X15957Y-19530D01*
X15867Y-19547D01*
X15781Y-19581D01*
X15704Y-19632D01*
X15638Y-19696D01*
X15586Y-19772D01*
X15550Y-19857D01*
X15531Y-19947D01*
X15529Y-20039D01*
X15546Y-20130D01*
X15580Y-20216D01*
X15587Y-20228D01*
X15553Y-20263D01*
X14729Y-20263D01*
X14729Y-19737D01*
X15392Y-19737D01*
X15393Y-19737D01*
X15418Y-19735D01*
X15441Y-19727D01*
X15443Y-19727D01*
X15457Y-19719D01*
X15464Y-19716D01*
X15465Y-19715D01*
X15484Y-19700D01*
X15485Y-19699D01*
X15771Y-19412D01*
X15854Y-19449D01*
X15944Y-19469D01*
X16036Y-19471D01*
X16127Y-19455D01*
X16213Y-19422D01*
X16291Y-19372D01*
X16357Y-19309D01*
X16411Y-19233D01*
X16448Y-19149D01*
X16469Y-19059D01*
X16470Y-18954D01*
X16460Y-18904D01*
X16460Y-17992D01*
X16450Y-17902D01*
X16422Y-17817D01*
X16388Y-17753D01*
X16330Y-17712D01*
X16288Y-17753D01*
X16288Y-17670D01*
X16247Y-17612D01*
X16167Y-17571D01*
X16081Y-17547D01*
X15992Y-17540D01*
X15902Y-17550D01*
X15817Y-17578D01*
X15753Y-17612D01*
X15712Y-17670D01*
X16000Y-17959D01*
X16288Y-17670D01*
X16288Y-17753D01*
X16041Y-18000D01*
X16330Y-18288D01*
X16388Y-18247D01*
X16429Y-18167D01*
X16453Y-18081D01*
X16460Y-17992D01*
X16460Y-18904D01*
X16452Y-18864D01*
X16417Y-18778D01*
X16366Y-18702D01*
X16301Y-18636D01*
X16288Y-18627D01*
X16288Y-18330D01*
X16000Y-18041D01*
X15959Y-18082D01*
X15959Y-18000D01*
X15670Y-17712D01*
X15612Y-17753D01*
X15571Y-17833D01*
X15547Y-17919D01*
X15540Y-18008D01*
X15550Y-18098D01*
X15578Y-18183D01*
X15612Y-18247D01*
X15670Y-18288D01*
X15959Y-18000D01*
X15959Y-18082D01*
X15712Y-18330D01*
X15753Y-18388D01*
X15833Y-18429D01*
X15919Y-18453D01*
X16008Y-18460D01*
X16098Y-18450D01*
X16183Y-18422D01*
X16247Y-18388D01*
X16288Y-18330D01*
X16288Y-18627D01*
X16225Y-18585D01*
X16140Y-18549D01*
X16049Y-18530D01*
X15957Y-18530D01*
X15867Y-18547D01*
X15781Y-18581D01*
X15704Y-18632D01*
X15638Y-18696D01*
X15586Y-18772D01*
X15550Y-18857D01*
X15531Y-18947D01*
X15529Y-19039D01*
X15546Y-19130D01*
X15580Y-19216D01*
X15587Y-19228D01*
X15339Y-19477D01*
X14729Y-19477D01*
X14729Y-18012D01*
X14992Y-17749D01*
X15299Y-17749D01*
X15300Y-17749D01*
X15322Y-17747D01*
X15323Y-17747D01*
X15345Y-17740D01*
X15365Y-17730D01*
X15366Y-17729D01*
X15383Y-17715D01*
X15383Y-17714D01*
X15384Y-17714D01*
X15398Y-17697D01*
X15399Y-17697D01*
X15409Y-17677D01*
X15410Y-17676D01*
X15416Y-17655D01*
X15417Y-17654D01*
X15418Y-17634D01*
X15419Y-17632D01*
X15419Y-17631D01*
X15419Y-17630D01*
X15419Y-16616D01*
X15616Y-16419D01*
X29384Y-16419D01*
X29581Y-16616D01*
X29581Y-23384D01*
X29581Y-23384D01*
G37*
G54D27*
X29581Y-23384D02*
X29520Y-23445D01*
X29520Y-21954D01*
X29502Y-21864D01*
X29467Y-21778D01*
X29416Y-21702D01*
X29351Y-21636D01*
X29275Y-21585D01*
X29190Y-21549D01*
X29099Y-21530D01*
X29007Y-21530D01*
X28917Y-21547D01*
X28831Y-21581D01*
X28754Y-21632D01*
X28688Y-21696D01*
X28636Y-21772D01*
X28600Y-21857D01*
X28581Y-21947D01*
X28579Y-22039D01*
X28596Y-22130D01*
X28630Y-22216D01*
X28680Y-22293D01*
X28744Y-22360D01*
X28820Y-22412D01*
X28904Y-22449D01*
X28994Y-22469D01*
X29086Y-22471D01*
X29177Y-22455D01*
X29263Y-22422D01*
X29341Y-22372D01*
X29407Y-22309D01*
X29461Y-22233D01*
X29498Y-22149D01*
X29519Y-22059D01*
X29520Y-21954D01*
X29520Y-23445D01*
X29384Y-23581D01*
X21470Y-23581D01*
X21470Y-23004D01*
X21452Y-22914D01*
X21417Y-22828D01*
X21366Y-22752D01*
X21301Y-22686D01*
X21225Y-22635D01*
X21140Y-22599D01*
X21049Y-22580D01*
X20957Y-22580D01*
X20867Y-22597D01*
X20781Y-22631D01*
X20704Y-22682D01*
X20638Y-22746D01*
X20586Y-22822D01*
X20550Y-22907D01*
X20531Y-22997D01*
X20529Y-23089D01*
X20546Y-23180D01*
X20580Y-23266D01*
X20630Y-23343D01*
X20694Y-23410D01*
X20770Y-23462D01*
X20854Y-23499D01*
X20944Y-23519D01*
X21036Y-23521D01*
X21127Y-23505D01*
X21213Y-23472D01*
X21291Y-23422D01*
X21357Y-23359D01*
X21411Y-23283D01*
X21448Y-23199D01*
X21469Y-23109D01*
X21470Y-23004D01*
X21470Y-23581D01*
X17288Y-23581D01*
X17288Y-23380D01*
X17000Y-23091D01*
X16959Y-23132D01*
X16959Y-23050D01*
X16670Y-22762D01*
X16612Y-22803D01*
X16571Y-22883D01*
X16547Y-22969D01*
X16540Y-23058D01*
X16550Y-23148D01*
X16578Y-23233D01*
X16612Y-23297D01*
X16670Y-23338D01*
X16959Y-23050D01*
X16959Y-23132D01*
X16712Y-23380D01*
X16753Y-23438D01*
X16833Y-23479D01*
X16919Y-23503D01*
X17008Y-23510D01*
X17098Y-23500D01*
X17183Y-23472D01*
X17247Y-23438D01*
X17288Y-23380D01*
X17288Y-23581D01*
X15616Y-23581D01*
X15419Y-23384D01*
X15419Y-22375D01*
X15419Y-22374D01*
X15417Y-22352D01*
X15417Y-22351D01*
X15410Y-22329D01*
X15400Y-22309D01*
X15399Y-22308D01*
X15385Y-22291D01*
X15384Y-22290D01*
X15367Y-22275D01*
X15347Y-22265D01*
X15346Y-22264D01*
X15324Y-22257D01*
X15304Y-22255D01*
X15302Y-22255D01*
X15301Y-22255D01*
X15300Y-22255D01*
X14996Y-22255D01*
X14729Y-21988D01*
X14729Y-21536D01*
X15621Y-21536D01*
X15623Y-21536D01*
X15652Y-21533D01*
X15654Y-21533D01*
X15670Y-21528D01*
X15682Y-21525D01*
X15684Y-21524D01*
X15710Y-21511D01*
X15711Y-21509D01*
X15734Y-21491D01*
X15734Y-21490D01*
X15735Y-21490D01*
X15735Y-21489D01*
X15739Y-21484D01*
X15754Y-21470D01*
X16380Y-21470D01*
X16399Y-21466D01*
X16417Y-21459D01*
X16434Y-21448D01*
X16448Y-21434D01*
X16458Y-21418D01*
X16466Y-21400D01*
X16470Y-21380D01*
X16470Y-21361D01*
X16470Y-20620D01*
X16466Y-20601D01*
X16459Y-20583D01*
X16448Y-20566D01*
X16434Y-20552D01*
X16418Y-20542D01*
X16400Y-20534D01*
X16380Y-20530D01*
X16361Y-20530D01*
X15620Y-20530D01*
X15601Y-20534D01*
X15583Y-20541D01*
X15566Y-20552D01*
X15552Y-20566D01*
X15542Y-20582D01*
X15534Y-20600D01*
X15530Y-20620D01*
X15530Y-20639D01*
X15530Y-21218D01*
X14729Y-21218D01*
X14729Y-20523D01*
X15606Y-20523D01*
X15607Y-20523D01*
X15632Y-20521D01*
X15655Y-20513D01*
X15657Y-20513D01*
X15671Y-20505D01*
X15678Y-20502D01*
X15679Y-20501D01*
X15698Y-20486D01*
X15699Y-20485D01*
X15770Y-20412D01*
X15771Y-20412D01*
X15854Y-20449D01*
X15944Y-20469D01*
X16036Y-20471D01*
X16127Y-20455D01*
X16213Y-20422D01*
X16291Y-20372D01*
X16357Y-20309D01*
X16411Y-20233D01*
X16448Y-20149D01*
X16456Y-20111D01*
X16459Y-20113D01*
X16509Y-20135D01*
X16562Y-20146D01*
X16616Y-20148D01*
X16670Y-20138D01*
X16720Y-20118D01*
X16752Y-20097D01*
X16775Y-20106D01*
X16775Y-20465D01*
X16779Y-20484D01*
X16786Y-20502D01*
X16797Y-20519D01*
X16811Y-20533D01*
X16827Y-20543D01*
X16841Y-20549D01*
X16841Y-20695D01*
X16837Y-20702D01*
X16829Y-20720D01*
X16825Y-20740D01*
X16825Y-20759D01*
X16825Y-20875D01*
X16693Y-21007D01*
X16689Y-21011D01*
X16669Y-21035D01*
X16654Y-21062D01*
X16653Y-21062D01*
X16653Y-21064D01*
X16650Y-21074D01*
X16644Y-21092D01*
X16641Y-21123D01*
X16641Y-21124D01*
X16641Y-21125D01*
X16641Y-22178D01*
X16641Y-22180D01*
X16644Y-22211D01*
X16648Y-22227D01*
X16652Y-22239D01*
X16653Y-22241D01*
X16470Y-22424D01*
X16470Y-21954D01*
X16452Y-21864D01*
X16417Y-21778D01*
X16366Y-21702D01*
X16301Y-21636D01*
X16225Y-21585D01*
X16140Y-21549D01*
X16049Y-21530D01*
X15957Y-21530D01*
X15867Y-21547D01*
X15781Y-21581D01*
X15704Y-21632D01*
X15638Y-21696D01*
X15586Y-21772D01*
X15550Y-21857D01*
X15531Y-21947D01*
X15529Y-22039D01*
X15546Y-22130D01*
X15580Y-22216D01*
X15630Y-22293D01*
X15694Y-22360D01*
X15770Y-22412D01*
X15854Y-22449D01*
X15944Y-22469D01*
X16036Y-22471D01*
X16127Y-22455D01*
X16213Y-22422D01*
X16291Y-22372D01*
X16357Y-22309D01*
X16411Y-22233D01*
X16448Y-22149D01*
X16469Y-22059D01*
X16470Y-21954D01*
X16470Y-22424D01*
X16305Y-22590D01*
X16301Y-22586D01*
X16225Y-22535D01*
X16140Y-22499D01*
X16049Y-22480D01*
X15957Y-22480D01*
X15867Y-22497D01*
X15781Y-22531D01*
X15704Y-22582D01*
X15638Y-22646D01*
X15586Y-22722D01*
X15550Y-22807D01*
X15531Y-22897D01*
X15529Y-22989D01*
X15546Y-23080D01*
X15580Y-23166D01*
X15630Y-23243D01*
X15694Y-23310D01*
X15770Y-23362D01*
X15854Y-23399D01*
X15944Y-23419D01*
X16036Y-23421D01*
X16127Y-23405D01*
X16213Y-23372D01*
X16291Y-23322D01*
X16357Y-23259D01*
X16411Y-23183D01*
X16448Y-23099D01*
X16469Y-23009D01*
X16470Y-22904D01*
X16465Y-22879D01*
X16870Y-22474D01*
X16986Y-22590D01*
X16902Y-22600D01*
X16817Y-22628D01*
X16753Y-22662D01*
X16712Y-22720D01*
X16979Y-22987D01*
X16979Y-22988D01*
X17000Y-23009D01*
X17041Y-23050D01*
X17062Y-23071D01*
X17330Y-23338D01*
X17388Y-23297D01*
X17429Y-23217D01*
X17453Y-23131D01*
X17460Y-23042D01*
X17450Y-22952D01*
X17422Y-22867D01*
X17388Y-22803D01*
X17353Y-22779D01*
X17364Y-22769D01*
X17568Y-22769D01*
X17570Y-22769D01*
X17584Y-22767D01*
X17550Y-22849D01*
X17531Y-22939D01*
X17529Y-23031D01*
X17546Y-23122D01*
X17580Y-23208D01*
X17630Y-23285D01*
X17694Y-23352D01*
X17770Y-23404D01*
X17854Y-23441D01*
X17944Y-23461D01*
X18036Y-23463D01*
X18127Y-23447D01*
X18213Y-23414D01*
X18291Y-23364D01*
X18357Y-23301D01*
X18411Y-23225D01*
X18448Y-23141D01*
X18459Y-23092D01*
X18469Y-23085D01*
X18470Y-23084D01*
X18530Y-23023D01*
X18529Y-23089D01*
X18546Y-23180D01*
X18580Y-23266D01*
X18630Y-23343D01*
X18694Y-23410D01*
X18770Y-23462D01*
X18854Y-23499D01*
X18944Y-23519D01*
X19036Y-23521D01*
X19127Y-23505D01*
X19213Y-23472D01*
X19291Y-23422D01*
X19357Y-23359D01*
X19411Y-23283D01*
X19448Y-23199D01*
X19469Y-23109D01*
X19470Y-23004D01*
X19507Y-23041D01*
X19508Y-23042D01*
X19527Y-23058D01*
X19543Y-23066D01*
X19546Y-23080D01*
X19580Y-23166D01*
X19630Y-23243D01*
X19694Y-23310D01*
X19770Y-23362D01*
X19854Y-23399D01*
X19944Y-23419D01*
X20036Y-23421D01*
X20127Y-23405D01*
X20213Y-23372D01*
X20291Y-23322D01*
X20357Y-23259D01*
X20411Y-23183D01*
X20448Y-23099D01*
X20469Y-23009D01*
X20470Y-22904D01*
X20452Y-22814D01*
X20417Y-22728D01*
X20366Y-22652D01*
X20301Y-22586D01*
X20225Y-22535D01*
X20140Y-22499D01*
X20049Y-22480D01*
X19957Y-22480D01*
X19867Y-22497D01*
X19781Y-22531D01*
X19704Y-22582D01*
X19638Y-22646D01*
X19586Y-22722D01*
X19577Y-22743D01*
X19470Y-22636D01*
X19501Y-22638D01*
X19555Y-22628D01*
X19605Y-22608D01*
X19651Y-22579D01*
X19691Y-22542D01*
X19722Y-22498D01*
X19744Y-22448D01*
X19756Y-22395D01*
X19757Y-22333D01*
X19752Y-22311D01*
X19910Y-22154D01*
X19911Y-22154D01*
X19911Y-22153D01*
X19912Y-22153D01*
X19931Y-22130D01*
X19932Y-22129D01*
X19944Y-22106D01*
X19946Y-22103D01*
X19946Y-22102D01*
X19947Y-22101D01*
X19948Y-22095D01*
X19956Y-22073D01*
X19959Y-22042D01*
X19959Y-22041D01*
X19959Y-22040D01*
X19959Y-22019D01*
X19972Y-22014D01*
X19989Y-22003D01*
X20003Y-21989D01*
X20013Y-21973D01*
X20021Y-21955D01*
X20025Y-21935D01*
X20025Y-21916D01*
X20025Y-21465D01*
X20021Y-21446D01*
X20014Y-21428D01*
X20003Y-21411D01*
X19989Y-21397D01*
X19973Y-21387D01*
X19959Y-21380D01*
X19959Y-21231D01*
X19963Y-21231D01*
X19982Y-21227D01*
X20000Y-21220D01*
X20017Y-21209D01*
X20031Y-21195D01*
X20041Y-21179D01*
X20049Y-21161D01*
X20053Y-21141D01*
X20053Y-21122D01*
X20053Y-21023D01*
X20049Y-21004D01*
X20042Y-20986D01*
X20032Y-20971D01*
X20038Y-20960D01*
X20041Y-20943D01*
X20041Y-20931D01*
X20019Y-20909D01*
X19687Y-20909D01*
X19687Y-20914D01*
X19629Y-20914D01*
X19629Y-20909D01*
X19297Y-20909D01*
X19275Y-20931D01*
X19275Y-20943D01*
X19278Y-20960D01*
X19283Y-20971D01*
X19275Y-20985D01*
X19267Y-21003D01*
X19263Y-21023D01*
X19263Y-21042D01*
X19263Y-21141D01*
X19267Y-21160D01*
X19274Y-21178D01*
X19285Y-21195D01*
X19299Y-21209D01*
X19315Y-21219D01*
X19333Y-21227D01*
X19353Y-21231D01*
X19372Y-21231D01*
X19582Y-21231D01*
X19641Y-21289D01*
X19641Y-21380D01*
X19628Y-21386D01*
X19611Y-21397D01*
X19597Y-21411D01*
X19587Y-21427D01*
X19579Y-21445D01*
X19575Y-21465D01*
X19575Y-21484D01*
X19575Y-21935D01*
X19579Y-21954D01*
X19586Y-21972D01*
X19597Y-21989D01*
X19611Y-22003D01*
X19528Y-22087D01*
X19509Y-22083D01*
X19455Y-22083D01*
X19413Y-22090D01*
X19413Y-21934D01*
X19413Y-21917D01*
X19413Y-21751D01*
X19413Y-21649D01*
X19413Y-21483D01*
X19413Y-21466D01*
X19410Y-21449D01*
X19403Y-21433D01*
X19393Y-21419D01*
X19381Y-21407D01*
X19367Y-21397D01*
X19351Y-21390D01*
X19334Y-21387D01*
X19251Y-21387D01*
X19229Y-21409D01*
X19229Y-21671D01*
X19391Y-21671D01*
X19413Y-21649D01*
X19413Y-21751D01*
X19391Y-21729D01*
X19229Y-21729D01*
X19229Y-21991D01*
X19251Y-22013D01*
X19334Y-22013D01*
X19351Y-22010D01*
X19367Y-22003D01*
X19381Y-21993D01*
X19393Y-21981D01*
X19403Y-21967D01*
X19410Y-21951D01*
X19413Y-21934D01*
X19413Y-22090D01*
X19402Y-22093D01*
X19351Y-22113D01*
X19306Y-22143D01*
X19267Y-22181D01*
X19236Y-22226D01*
X19215Y-22276D01*
X19203Y-22329D01*
X19203Y-22383D01*
X19212Y-22437D01*
X19217Y-22450D01*
X19113Y-22450D01*
X19094Y-22430D01*
X19094Y-22013D01*
X19149Y-22013D01*
X19171Y-21991D01*
X19171Y-21759D01*
X19171Y-21729D01*
X19171Y-21671D01*
X19171Y-21641D01*
X19171Y-21409D01*
X19149Y-21387D01*
X19094Y-21387D01*
X19094Y-20773D01*
X19105Y-20779D01*
X19145Y-20787D01*
X19186Y-20788D01*
X19226Y-20781D01*
X19264Y-20767D01*
X19266Y-20765D01*
X19267Y-20766D01*
X19274Y-20784D01*
X19283Y-20798D01*
X19278Y-20810D01*
X19275Y-20827D01*
X19275Y-20839D01*
X19297Y-20861D01*
X19629Y-20861D01*
X19629Y-20856D01*
X19687Y-20856D01*
X19687Y-20861D01*
X20019Y-20861D01*
X20041Y-20839D01*
X20041Y-20827D01*
X20039Y-20818D01*
X20678Y-20818D01*
X20196Y-21299D01*
X20190Y-21301D01*
X20172Y-21308D01*
X20155Y-21319D01*
X20141Y-21333D01*
X20131Y-21349D01*
X20123Y-21367D01*
X20119Y-21387D01*
X20119Y-21406D01*
X20119Y-21997D01*
X20123Y-22016D01*
X20130Y-22034D01*
X20141Y-22051D01*
X20155Y-22065D01*
X20171Y-22075D01*
X20189Y-22083D01*
X20209Y-22087D01*
X20228Y-22087D01*
X20327Y-22087D01*
X20346Y-22083D01*
X20364Y-22076D01*
X20366Y-22074D01*
X20368Y-22075D01*
X20386Y-22083D01*
X20406Y-22087D01*
X20425Y-22087D01*
X20524Y-22087D01*
X20543Y-22083D01*
X20561Y-22076D01*
X20563Y-22074D01*
X20565Y-22075D01*
X20583Y-22083D01*
X20603Y-22087D01*
X20622Y-22087D01*
X20721Y-22087D01*
X20740Y-22083D01*
X20758Y-22076D01*
X20760Y-22074D01*
X20761Y-22075D01*
X20779Y-22083D01*
X20799Y-22087D01*
X20818Y-22087D01*
X20917Y-22087D01*
X20936Y-22083D01*
X20954Y-22076D01*
X20956Y-22074D01*
X20958Y-22075D01*
X20976Y-22083D01*
X20996Y-22087D01*
X21015Y-22087D01*
X21114Y-22087D01*
X21133Y-22083D01*
X21151Y-22076D01*
X21153Y-22074D01*
X21155Y-22075D01*
X21165Y-22079D01*
X21743Y-22656D01*
X21704Y-22682D01*
X21638Y-22746D01*
X21586Y-22822D01*
X21550Y-22907D01*
X21531Y-22997D01*
X21529Y-23089D01*
X21546Y-23180D01*
X21580Y-23266D01*
X21630Y-23343D01*
X21694Y-23410D01*
X21770Y-23462D01*
X21854Y-23499D01*
X21944Y-23519D01*
X22036Y-23521D01*
X22127Y-23505D01*
X22213Y-23472D01*
X22291Y-23422D01*
X22357Y-23359D01*
X22411Y-23283D01*
X22448Y-23199D01*
X22469Y-23109D01*
X22470Y-23004D01*
X22452Y-22914D01*
X22418Y-22832D01*
X22581Y-22832D01*
X22550Y-22907D01*
X22531Y-22997D01*
X22529Y-23089D01*
X22546Y-23180D01*
X22580Y-23266D01*
X22630Y-23343D01*
X22694Y-23410D01*
X22770Y-23462D01*
X22854Y-23499D01*
X22944Y-23519D01*
X23036Y-23521D01*
X23127Y-23505D01*
X23213Y-23472D01*
X23291Y-23422D01*
X23357Y-23359D01*
X23411Y-23283D01*
X23448Y-23199D01*
X23469Y-23109D01*
X23470Y-23004D01*
X23452Y-22914D01*
X23417Y-22828D01*
X23366Y-22752D01*
X23324Y-22710D01*
X23576Y-22710D01*
X23586Y-22720D01*
X23586Y-22722D01*
X23550Y-22807D01*
X23531Y-22897D01*
X23529Y-22989D01*
X23546Y-23080D01*
X23580Y-23166D01*
X23630Y-23243D01*
X23694Y-23310D01*
X23770Y-23362D01*
X23854Y-23399D01*
X23944Y-23419D01*
X24036Y-23421D01*
X24127Y-23405D01*
X24213Y-23372D01*
X24291Y-23322D01*
X24357Y-23259D01*
X24411Y-23183D01*
X24448Y-23099D01*
X24469Y-23009D01*
X24469Y-22933D01*
X24531Y-22995D01*
X24531Y-22997D01*
X24529Y-23089D01*
X24546Y-23180D01*
X24580Y-23266D01*
X24630Y-23343D01*
X24694Y-23410D01*
X24770Y-23462D01*
X24854Y-23499D01*
X24944Y-23519D01*
X25036Y-23521D01*
X25127Y-23505D01*
X25213Y-23472D01*
X25291Y-23422D01*
X25357Y-23359D01*
X25411Y-23283D01*
X25448Y-23199D01*
X25469Y-23109D01*
X25470Y-23004D01*
X25452Y-22914D01*
X25417Y-22828D01*
X25366Y-22752D01*
X25319Y-22705D01*
X25571Y-22705D01*
X25586Y-22720D01*
X25586Y-22722D01*
X25550Y-22807D01*
X25531Y-22897D01*
X25529Y-22989D01*
X25546Y-23080D01*
X25580Y-23166D01*
X25630Y-23243D01*
X25694Y-23310D01*
X25770Y-23362D01*
X25854Y-23399D01*
X25944Y-23419D01*
X26036Y-23421D01*
X26127Y-23405D01*
X26213Y-23372D01*
X26291Y-23322D01*
X26357Y-23259D01*
X26411Y-23183D01*
X26448Y-23099D01*
X26469Y-23009D01*
X26470Y-22904D01*
X26452Y-22814D01*
X26417Y-22728D01*
X26366Y-22652D01*
X26301Y-22586D01*
X26296Y-22583D01*
X26349Y-22583D01*
X26586Y-22820D01*
X26586Y-22822D01*
X26550Y-22907D01*
X26531Y-22997D01*
X26529Y-23089D01*
X26546Y-23180D01*
X26580Y-23266D01*
X26630Y-23343D01*
X26694Y-23410D01*
X26770Y-23462D01*
X26854Y-23499D01*
X26944Y-23519D01*
X27036Y-23521D01*
X27127Y-23505D01*
X27213Y-23472D01*
X27291Y-23422D01*
X27357Y-23359D01*
X27411Y-23283D01*
X27448Y-23199D01*
X27469Y-23109D01*
X27470Y-23004D01*
X27452Y-22914D01*
X27417Y-22828D01*
X27366Y-22752D01*
X27319Y-22705D01*
X27571Y-22705D01*
X27627Y-22761D01*
X27586Y-22822D01*
X27550Y-22907D01*
X27531Y-22997D01*
X27529Y-23089D01*
X27546Y-23180D01*
X27580Y-23266D01*
X27630Y-23343D01*
X27694Y-23410D01*
X27770Y-23462D01*
X27854Y-23499D01*
X27944Y-23519D01*
X28036Y-23521D01*
X28127Y-23505D01*
X28213Y-23472D01*
X28291Y-23422D01*
X28357Y-23359D01*
X28411Y-23283D01*
X28448Y-23199D01*
X28469Y-23109D01*
X28470Y-23004D01*
X28452Y-22914D01*
X28417Y-22828D01*
X28366Y-22752D01*
X28301Y-22686D01*
X28225Y-22635D01*
X28154Y-22605D01*
X28371Y-22605D01*
X28586Y-22820D01*
X28586Y-22822D01*
X28550Y-22907D01*
X28531Y-22997D01*
X28529Y-23089D01*
X28546Y-23180D01*
X28580Y-23266D01*
X28630Y-23343D01*
X28694Y-23410D01*
X28770Y-23462D01*
X28854Y-23499D01*
X28944Y-23519D01*
X29036Y-23521D01*
X29127Y-23505D01*
X29213Y-23472D01*
X29291Y-23422D01*
X29357Y-23359D01*
X29411Y-23283D01*
X29448Y-23199D01*
X29469Y-23109D01*
X29470Y-23004D01*
X29452Y-22914D01*
X29417Y-22828D01*
X29366Y-22752D01*
X29301Y-22686D01*
X29225Y-22635D01*
X29140Y-22599D01*
X29049Y-22580D01*
X28957Y-22580D01*
X28867Y-22597D01*
X28781Y-22631D01*
X28771Y-22637D01*
X28518Y-22384D01*
X28517Y-22383D01*
X28498Y-22367D01*
X28476Y-22356D01*
X28474Y-22355D01*
X28466Y-22352D01*
X28452Y-22348D01*
X28427Y-22345D01*
X28425Y-22345D01*
X28369Y-22345D01*
X28407Y-22309D01*
X28461Y-22233D01*
X28498Y-22149D01*
X28519Y-22059D01*
X28520Y-21954D01*
X28502Y-21864D01*
X28467Y-21778D01*
X28416Y-21702D01*
X28351Y-21636D01*
X28349Y-21635D01*
X28554Y-21635D01*
X28555Y-21635D01*
X28580Y-21633D01*
X28603Y-21625D01*
X28605Y-21625D01*
X28619Y-21617D01*
X28626Y-21614D01*
X28627Y-21613D01*
X28646Y-21598D01*
X28647Y-21597D01*
X28797Y-21446D01*
X28804Y-21449D01*
X28894Y-21469D01*
X28986Y-21471D01*
X29077Y-21455D01*
X29163Y-21422D01*
X29241Y-21372D01*
X29307Y-21309D01*
X29361Y-21233D01*
X29398Y-21149D01*
X29419Y-21059D01*
X29420Y-20954D01*
X29402Y-20864D01*
X29367Y-20778D01*
X29316Y-20702D01*
X29251Y-20636D01*
X29175Y-20585D01*
X29090Y-20549D01*
X28999Y-20530D01*
X28907Y-20530D01*
X28817Y-20547D01*
X28731Y-20581D01*
X28654Y-20632D01*
X28588Y-20696D01*
X28536Y-20772D01*
X28500Y-20857D01*
X28481Y-20947D01*
X28479Y-21039D01*
X28496Y-21130D01*
X28530Y-21216D01*
X28580Y-21293D01*
X28581Y-21294D01*
X28501Y-21375D01*
X28236Y-21375D01*
X28241Y-21372D01*
X28307Y-21309D01*
X28361Y-21233D01*
X28398Y-21149D01*
X28419Y-21059D01*
X28420Y-20954D01*
X28402Y-20864D01*
X28367Y-20778D01*
X28316Y-20702D01*
X28251Y-20636D01*
X28249Y-20635D01*
X28454Y-20635D01*
X28455Y-20635D01*
X28480Y-20633D01*
X28503Y-20625D01*
X28505Y-20625D01*
X28519Y-20617D01*
X28526Y-20614D01*
X28527Y-20613D01*
X28546Y-20598D01*
X28547Y-20597D01*
X28767Y-20376D01*
X28820Y-20412D01*
X28904Y-20449D01*
X28994Y-20469D01*
X29086Y-20471D01*
X29177Y-20455D01*
X29263Y-20422D01*
X29341Y-20372D01*
X29407Y-20309D01*
X29461Y-20233D01*
X29498Y-20149D01*
X29519Y-20059D01*
X29520Y-19954D01*
X29502Y-19864D01*
X29467Y-19778D01*
X29416Y-19702D01*
X29351Y-19636D01*
X29275Y-19585D01*
X29190Y-19549D01*
X29099Y-19530D01*
X29007Y-19530D01*
X28917Y-19547D01*
X28831Y-19581D01*
X28754Y-19632D01*
X28688Y-19696D01*
X28636Y-19772D01*
X28600Y-19857D01*
X28581Y-19947D01*
X28579Y-20039D01*
X28596Y-20130D01*
X28610Y-20165D01*
X28401Y-20375D01*
X28336Y-20375D01*
X28341Y-20372D01*
X28407Y-20309D01*
X28461Y-20233D01*
X28498Y-20149D01*
X28519Y-20059D01*
X28520Y-19954D01*
X28502Y-19864D01*
X28467Y-19778D01*
X28416Y-19702D01*
X28351Y-19636D01*
X28334Y-19625D01*
X28544Y-19625D01*
X28545Y-19625D01*
X28570Y-19623D01*
X28593Y-19615D01*
X28595Y-19615D01*
X28609Y-19607D01*
X28616Y-19604D01*
X28617Y-19603D01*
X28636Y-19588D01*
X28637Y-19587D01*
X28783Y-19440D01*
X28804Y-19449D01*
X28894Y-19469D01*
X28986Y-19471D01*
X29077Y-19455D01*
X29163Y-19422D01*
X29241Y-19372D01*
X29307Y-19309D01*
X29361Y-19233D01*
X29398Y-19149D01*
X29419Y-19059D01*
X29420Y-18954D01*
X29402Y-18864D01*
X29367Y-18778D01*
X29316Y-18702D01*
X29251Y-18636D01*
X29175Y-18585D01*
X29090Y-18549D01*
X28999Y-18530D01*
X28907Y-18530D01*
X28817Y-18547D01*
X28731Y-18581D01*
X28654Y-18632D01*
X28588Y-18696D01*
X28536Y-18772D01*
X28500Y-18857D01*
X28481Y-18947D01*
X28479Y-19039D01*
X28496Y-19130D01*
X28530Y-19216D01*
X28573Y-19282D01*
X28491Y-19365D01*
X28410Y-19365D01*
X28410Y-18992D01*
X28400Y-18902D01*
X28372Y-18817D01*
X28338Y-18753D01*
X28280Y-18712D01*
X27991Y-19000D01*
X28280Y-19288D01*
X28338Y-19247D01*
X28379Y-19167D01*
X28403Y-19081D01*
X28410Y-18992D01*
X28410Y-19365D01*
X28213Y-19365D01*
X28238Y-19330D01*
X27950Y-19041D01*
X27662Y-19330D01*
X27686Y-19365D01*
X26913Y-19365D01*
X26912Y-19363D01*
X26883Y-19334D01*
X26850Y-19311D01*
X26812Y-19296D01*
X26772Y-19287D01*
X26731Y-19287D01*
X26691Y-19294D01*
X26654Y-19310D01*
X26619Y-19332D01*
X26590Y-19360D01*
X26567Y-19394D01*
X26551Y-19431D01*
X26542Y-19471D01*
X26542Y-19512D01*
X26549Y-19552D01*
X26564Y-19590D01*
X26586Y-19624D01*
X26606Y-19646D01*
X26596Y-19651D01*
X26582Y-19661D01*
X26570Y-19673D01*
X26560Y-19687D01*
X26553Y-19703D01*
X26550Y-19720D01*
X26550Y-19963D01*
X26572Y-19985D01*
X26776Y-19985D01*
X26806Y-19985D01*
X26864Y-19985D01*
X26894Y-19985D01*
X27098Y-19985D01*
X27120Y-19963D01*
X27120Y-19720D01*
X27117Y-19703D01*
X27110Y-19687D01*
X27100Y-19673D01*
X27088Y-19661D01*
X27074Y-19651D01*
X27058Y-19644D01*
X27041Y-19641D01*
X27024Y-19641D01*
X26898Y-19641D01*
X26908Y-19632D01*
X26912Y-19625D01*
X27403Y-19625D01*
X27387Y-19649D01*
X27371Y-19686D01*
X27362Y-19726D01*
X27362Y-19747D01*
X27346Y-19747D01*
X27306Y-19754D01*
X27269Y-19770D01*
X27234Y-19792D01*
X27205Y-19820D01*
X27182Y-19854D01*
X27166Y-19891D01*
X27157Y-19931D01*
X27157Y-19972D01*
X27164Y-20012D01*
X27179Y-20050D01*
X27201Y-20084D01*
X27229Y-20114D01*
X27235Y-20118D01*
X27235Y-20159D01*
X27235Y-20160D01*
X27237Y-20185D01*
X27245Y-20210D01*
X27252Y-20224D01*
X27256Y-20231D01*
X27257Y-20232D01*
X27272Y-20251D01*
X27273Y-20252D01*
X27355Y-20333D01*
X27355Y-20877D01*
X27348Y-20872D01*
X27326Y-20861D01*
X27324Y-20860D01*
X27316Y-20857D01*
X27302Y-20853D01*
X27277Y-20850D01*
X27275Y-20850D01*
X27213Y-20850D01*
X27213Y-20734D01*
X27213Y-20651D01*
X27191Y-20629D01*
X26929Y-20629D01*
X26929Y-20791D01*
X26951Y-20813D01*
X27117Y-20813D01*
X27134Y-20813D01*
X27151Y-20810D01*
X27167Y-20803D01*
X27181Y-20793D01*
X27193Y-20781D01*
X27203Y-20767D01*
X27210Y-20751D01*
X27213Y-20734D01*
X27213Y-20850D01*
X26425Y-20850D01*
X26425Y-20825D01*
X26535Y-20825D01*
X26554Y-20821D01*
X26572Y-20814D01*
X26589Y-20803D01*
X26603Y-20789D01*
X26607Y-20781D01*
X26619Y-20793D01*
X26633Y-20803D01*
X26649Y-20810D01*
X26666Y-20813D01*
X26683Y-20813D01*
X26849Y-20813D01*
X26871Y-20791D01*
X26871Y-20659D01*
X26871Y-20629D01*
X26871Y-20571D01*
X26871Y-20541D01*
X26871Y-20409D01*
X26849Y-20387D01*
X26886Y-20387D01*
X26894Y-20387D01*
X26951Y-20387D01*
X26929Y-20409D01*
X26929Y-20571D01*
X27191Y-20571D01*
X27213Y-20549D01*
X27213Y-20466D01*
X27210Y-20449D01*
X27203Y-20433D01*
X27193Y-20419D01*
X27181Y-20407D01*
X27167Y-20397D01*
X27151Y-20390D01*
X27134Y-20387D01*
X27117Y-20387D01*
X27041Y-20387D01*
X27058Y-20384D01*
X27074Y-20377D01*
X27088Y-20367D01*
X27100Y-20355D01*
X27110Y-20341D01*
X27117Y-20325D01*
X27120Y-20308D01*
X27120Y-20065D01*
X27098Y-20043D01*
X26894Y-20043D01*
X26864Y-20043D01*
X26806Y-20043D01*
X26776Y-20043D01*
X26572Y-20043D01*
X26550Y-20065D01*
X26550Y-20308D01*
X26553Y-20325D01*
X26560Y-20341D01*
X26570Y-20355D01*
X26582Y-20367D01*
X26596Y-20377D01*
X26612Y-20384D01*
X26629Y-20387D01*
X26646Y-20387D01*
X26666Y-20387D01*
X26649Y-20390D01*
X26633Y-20397D01*
X26619Y-20407D01*
X26607Y-20418D01*
X26603Y-20411D01*
X26589Y-20397D01*
X26573Y-20387D01*
X26555Y-20379D01*
X26535Y-20375D01*
X26516Y-20375D01*
X26428Y-20375D01*
X26440Y-20363D01*
X26450Y-20347D01*
X26458Y-20329D01*
X26462Y-20309D01*
X26462Y-20290D01*
X26462Y-19719D01*
X26458Y-19700D01*
X26451Y-19682D01*
X26440Y-19665D01*
X26426Y-19651D01*
X26410Y-19641D01*
X26392Y-19633D01*
X26372Y-19629D01*
X26353Y-19629D01*
X25958Y-19629D01*
X25939Y-19633D01*
X25921Y-19640D01*
X25904Y-19651D01*
X25890Y-19665D01*
X25880Y-19681D01*
X25872Y-19699D01*
X25868Y-19719D01*
X25868Y-19738D01*
X25868Y-20309D01*
X25872Y-20328D01*
X25879Y-20346D01*
X25890Y-20363D01*
X25902Y-20375D01*
X25830Y-20375D01*
X25830Y-20306D01*
X25830Y-20305D01*
X25828Y-20280D01*
X25820Y-20257D01*
X25820Y-20255D01*
X25812Y-20240D01*
X25809Y-20234D01*
X25808Y-20233D01*
X25793Y-20214D01*
X25792Y-20213D01*
X25377Y-19798D01*
X25378Y-19755D01*
X25370Y-19715D01*
X25355Y-19677D01*
X25332Y-19643D01*
X25303Y-19614D01*
X25270Y-19591D01*
X25232Y-19576D01*
X25192Y-19567D01*
X25151Y-19567D01*
X25111Y-19574D01*
X25074Y-19590D01*
X25039Y-19612D01*
X25010Y-19640D01*
X24987Y-19674D01*
X24971Y-19711D01*
X24962Y-19751D01*
X24962Y-19792D01*
X24969Y-19832D01*
X24984Y-19870D01*
X25006Y-19904D01*
X25034Y-19934D01*
X25068Y-19957D01*
X25105Y-19974D01*
X25145Y-19982D01*
X25186Y-19983D01*
X25192Y-19981D01*
X25570Y-20359D01*
X25570Y-20375D01*
X25465Y-20375D01*
X25446Y-20379D01*
X25428Y-20386D01*
X25411Y-20397D01*
X25397Y-20411D01*
X25387Y-20427D01*
X25379Y-20445D01*
X25375Y-20465D01*
X25375Y-20484D01*
X25375Y-20735D01*
X25379Y-20754D01*
X25386Y-20772D01*
X25397Y-20789D01*
X25411Y-20803D01*
X25427Y-20813D01*
X25445Y-20821D01*
X25465Y-20825D01*
X25484Y-20825D01*
X25935Y-20825D01*
X25954Y-20821D01*
X25972Y-20814D01*
X25989Y-20803D01*
X26000Y-20792D01*
X26011Y-20803D01*
X26027Y-20813D01*
X26045Y-20821D01*
X26065Y-20825D01*
X26084Y-20825D01*
X26165Y-20825D01*
X26165Y-20850D01*
X25756Y-20850D01*
X25755Y-20850D01*
X25730Y-20852D01*
X25705Y-20860D01*
X25683Y-20872D01*
X25668Y-20884D01*
X25664Y-20887D01*
X25663Y-20887D01*
X25663Y-20888D01*
X25658Y-20893D01*
X25609Y-20941D01*
X25609Y-20942D01*
X25608Y-20942D01*
X25608Y-20943D01*
X25592Y-20962D01*
X25585Y-20975D01*
X25465Y-20975D01*
X25446Y-20979D01*
X25428Y-20986D01*
X25411Y-20997D01*
X25404Y-21003D01*
X25275Y-20874D01*
X25275Y-20341D01*
X25275Y-20340D01*
X25273Y-20315D01*
X25265Y-20291D01*
X25265Y-20290D01*
X25253Y-20269D01*
X25253Y-20268D01*
X25241Y-20253D01*
X25238Y-20249D01*
X25237Y-20248D01*
X25231Y-20243D01*
X25188Y-20199D01*
X25187Y-20198D01*
X25168Y-20182D01*
X25146Y-20171D01*
X25144Y-20170D01*
X25136Y-20167D01*
X25122Y-20163D01*
X25097Y-20160D01*
X25095Y-20160D01*
X24563Y-20160D01*
X24563Y-19864D01*
X24563Y-19847D01*
X24563Y-19681D01*
X24541Y-19659D01*
X24379Y-19659D01*
X24379Y-19921D01*
X24401Y-19943D01*
X24484Y-19943D01*
X24501Y-19940D01*
X24517Y-19933D01*
X24531Y-19923D01*
X24543Y-19911D01*
X24553Y-19897D01*
X24560Y-19881D01*
X24563Y-19864D01*
X24563Y-20160D01*
X24335Y-20160D01*
X24321Y-20161D01*
X24321Y-19921D01*
X24321Y-19659D01*
X24159Y-19659D01*
X24137Y-19681D01*
X24137Y-19847D01*
X24137Y-19864D01*
X24140Y-19881D01*
X24147Y-19897D01*
X24157Y-19911D01*
X24169Y-19923D01*
X24183Y-19933D01*
X24199Y-19940D01*
X24216Y-19943D01*
X24299Y-19943D01*
X24321Y-19921D01*
X24321Y-20161D01*
X24310Y-20162D01*
X24285Y-20170D01*
X24263Y-20182D01*
X24248Y-20194D01*
X24244Y-20197D01*
X24243Y-20198D01*
X24242Y-20199D01*
X24170Y-20271D01*
X23884Y-20271D01*
X23429Y-19815D01*
X23426Y-19806D01*
X23416Y-19791D01*
X23422Y-19780D01*
X23425Y-19763D01*
X23425Y-19751D01*
X23403Y-19729D01*
X23071Y-19729D01*
X23071Y-19734D01*
X23013Y-19734D01*
X23013Y-19729D01*
X22681Y-19729D01*
X22659Y-19751D01*
X22659Y-19763D01*
X22662Y-19780D01*
X22667Y-19791D01*
X22659Y-19805D01*
X22651Y-19823D01*
X22647Y-19843D01*
X22647Y-19862D01*
X22647Y-19961D01*
X22651Y-19980D01*
X22658Y-19998D01*
X22659Y-20000D01*
X22659Y-20001D01*
X22651Y-20019D01*
X22647Y-20039D01*
X22647Y-20058D01*
X22647Y-20157D01*
X22651Y-20176D01*
X22658Y-20194D01*
X22659Y-20196D01*
X22659Y-20198D01*
X22651Y-20216D01*
X22648Y-20230D01*
X22637Y-20226D01*
X22597Y-20217D01*
X22556Y-20217D01*
X22516Y-20224D01*
X22479Y-20240D01*
X22471Y-20245D01*
X21936Y-20245D01*
X21935Y-20245D01*
X21910Y-20247D01*
X21885Y-20255D01*
X21863Y-20267D01*
X21848Y-20279D01*
X21844Y-20282D01*
X21843Y-20283D01*
X21842Y-20284D01*
X21751Y-20375D01*
X21315Y-20375D01*
X21314Y-20375D01*
X21289Y-20377D01*
X21264Y-20385D01*
X21242Y-20397D01*
X21227Y-20409D01*
X21223Y-20412D01*
X21222Y-20412D01*
X21222Y-20413D01*
X21216Y-20419D01*
X21077Y-20558D01*
X21039Y-20558D01*
X21043Y-20551D01*
X21052Y-20512D01*
X21052Y-20506D01*
X21466Y-20093D01*
X21482Y-20073D01*
X21483Y-20073D01*
X21494Y-20051D01*
X21495Y-20050D01*
X21499Y-20034D01*
X21502Y-20027D01*
X21502Y-20026D01*
X21505Y-20002D01*
X21505Y-20000D01*
X21505Y-19290D01*
X21509Y-19293D01*
X21559Y-19315D01*
X21612Y-19326D01*
X21666Y-19328D01*
X21720Y-19318D01*
X21770Y-19298D01*
X21816Y-19269D01*
X21856Y-19232D01*
X21887Y-19188D01*
X21909Y-19138D01*
X21921Y-19085D01*
X21922Y-19023D01*
X21917Y-19001D01*
X22030Y-18889D01*
X22647Y-18889D01*
X22647Y-18977D01*
X22651Y-18996D01*
X22658Y-19014D01*
X22659Y-19016D01*
X22659Y-19018D01*
X22651Y-19036D01*
X22647Y-19056D01*
X22647Y-19075D01*
X22647Y-19174D01*
X22651Y-19193D01*
X22658Y-19211D01*
X22659Y-19213D01*
X22659Y-19215D01*
X22651Y-19233D01*
X22647Y-19253D01*
X22647Y-19272D01*
X22647Y-19371D01*
X22651Y-19390D01*
X22658Y-19408D01*
X22659Y-19410D01*
X22659Y-19411D01*
X22651Y-19429D01*
X22647Y-19449D01*
X22647Y-19468D01*
X22647Y-19567D01*
X22651Y-19586D01*
X22658Y-19604D01*
X22667Y-19618D01*
X22662Y-19630D01*
X22659Y-19647D01*
X22659Y-19659D01*
X22681Y-19681D01*
X23013Y-19681D01*
X23013Y-19676D01*
X23071Y-19676D01*
X23071Y-19681D01*
X23403Y-19681D01*
X23417Y-19667D01*
X23525Y-19667D01*
X23525Y-19865D01*
X23529Y-19884D01*
X23536Y-19902D01*
X23547Y-19919D01*
X23561Y-19933D01*
X23577Y-19943D01*
X23595Y-19951D01*
X23615Y-19955D01*
X23634Y-19955D01*
X23885Y-19955D01*
X23904Y-19951D01*
X23922Y-19944D01*
X23939Y-19933D01*
X23953Y-19919D01*
X23963Y-19903D01*
X23971Y-19885D01*
X23975Y-19865D01*
X23975Y-19846D01*
X23975Y-19599D01*
X24137Y-19437D01*
X24137Y-19579D01*
X24159Y-19601D01*
X24291Y-19601D01*
X24321Y-19601D01*
X24379Y-19601D01*
X24409Y-19601D01*
X24541Y-19601D01*
X24563Y-19579D01*
X24563Y-19413D01*
X24563Y-19396D01*
X24560Y-19379D01*
X24553Y-19363D01*
X24543Y-19349D01*
X24531Y-19337D01*
X24518Y-19328D01*
X24547Y-19288D01*
X24569Y-19238D01*
X24581Y-19185D01*
X24582Y-19123D01*
X24571Y-19070D01*
X24551Y-19019D01*
X24521Y-18974D01*
X24483Y-18936D01*
X24438Y-18905D01*
X24387Y-18884D01*
X24368Y-18880D01*
X24611Y-18638D01*
X24676Y-18638D01*
X24646Y-18658D01*
X24607Y-18696D01*
X24576Y-18741D01*
X24555Y-18791D01*
X24543Y-18844D01*
X24543Y-18898D01*
X24552Y-18952D01*
X24572Y-19002D01*
X24602Y-19048D01*
X24639Y-19087D01*
X24684Y-19118D01*
X24734Y-19140D01*
X24787Y-19151D01*
X24841Y-19153D01*
X24895Y-19143D01*
X24945Y-19123D01*
X24991Y-19094D01*
X25031Y-19057D01*
X25062Y-19013D01*
X25084Y-18963D01*
X25096Y-18910D01*
X25097Y-18848D01*
X25091Y-18822D01*
X25096Y-18818D01*
X25154Y-18818D01*
X25151Y-18826D01*
X25142Y-18866D01*
X25142Y-18907D01*
X25149Y-18947D01*
X25164Y-18985D01*
X25186Y-19019D01*
X25214Y-19049D01*
X25248Y-19072D01*
X25285Y-19089D01*
X25325Y-19097D01*
X25366Y-19098D01*
X25406Y-19091D01*
X25444Y-19077D01*
X25478Y-19055D01*
X25508Y-19027D01*
X25531Y-18994D01*
X25548Y-18956D01*
X25551Y-18940D01*
X26141Y-18940D01*
X26272Y-19071D01*
X26273Y-19072D01*
X26292Y-19088D01*
X26314Y-19099D01*
X26315Y-19100D01*
X26331Y-19104D01*
X26338Y-19107D01*
X26339Y-19107D01*
X26363Y-19110D01*
X26365Y-19110D01*
X26544Y-19110D01*
X26545Y-19110D01*
X26570Y-19108D01*
X26593Y-19100D01*
X26595Y-19100D01*
X26609Y-19092D01*
X26616Y-19089D01*
X26617Y-19088D01*
X26636Y-19073D01*
X26637Y-19072D01*
X26769Y-18940D01*
X27397Y-18940D01*
X27398Y-18940D01*
X27423Y-18938D01*
X27446Y-18930D01*
X27448Y-18930D01*
X27462Y-18922D01*
X27469Y-18919D01*
X27470Y-18918D01*
X27489Y-18903D01*
X27490Y-18902D01*
X27506Y-18885D01*
X27497Y-18919D01*
X27490Y-19008D01*
X27500Y-19098D01*
X27528Y-19183D01*
X27562Y-19247D01*
X27620Y-19288D01*
X27887Y-19020D01*
X27888Y-19021D01*
X27909Y-19000D01*
X27950Y-18959D01*
X27971Y-18938D01*
X27970Y-18937D01*
X28238Y-18670D01*
X28230Y-18660D01*
X28479Y-18660D01*
X28480Y-18660D01*
X28505Y-18658D01*
X28528Y-18650D01*
X28530Y-18650D01*
X28544Y-18642D01*
X28551Y-18639D01*
X28552Y-18638D01*
X28571Y-18623D01*
X28572Y-18622D01*
X28797Y-18396D01*
X28820Y-18412D01*
X28904Y-18449D01*
X28994Y-18469D01*
X29086Y-18471D01*
X29177Y-18455D01*
X29263Y-18422D01*
X29341Y-18372D01*
X29407Y-18309D01*
X29461Y-18233D01*
X29498Y-18149D01*
X29519Y-18059D01*
X29520Y-17954D01*
X29502Y-17864D01*
X29467Y-17778D01*
X29416Y-17702D01*
X29351Y-17636D01*
X29275Y-17585D01*
X29190Y-17549D01*
X29099Y-17530D01*
X29007Y-17530D01*
X28917Y-17547D01*
X28831Y-17581D01*
X28754Y-17632D01*
X28688Y-17696D01*
X28636Y-17772D01*
X28600Y-17857D01*
X28581Y-17947D01*
X28579Y-18039D01*
X28596Y-18130D01*
X28624Y-18201D01*
X28426Y-18400D01*
X28297Y-18400D01*
X28341Y-18372D01*
X28407Y-18309D01*
X28461Y-18233D01*
X28498Y-18149D01*
X28519Y-18059D01*
X28520Y-17954D01*
X28502Y-17864D01*
X28467Y-17778D01*
X28416Y-17702D01*
X28351Y-17636D01*
X28275Y-17585D01*
X28215Y-17560D01*
X28619Y-17560D01*
X28620Y-17560D01*
X28645Y-17558D01*
X28668Y-17550D01*
X28670Y-17550D01*
X28684Y-17542D01*
X28691Y-17539D01*
X28692Y-17538D01*
X28711Y-17523D01*
X28712Y-17522D01*
X28771Y-17462D01*
X28854Y-17499D01*
X28944Y-17519D01*
X29036Y-17521D01*
X29127Y-17505D01*
X29213Y-17472D01*
X29291Y-17422D01*
X29357Y-17359D01*
X29411Y-17283D01*
X29448Y-17199D01*
X29469Y-17109D01*
X29470Y-17004D01*
X29452Y-16914D01*
X29417Y-16828D01*
X29366Y-16752D01*
X29301Y-16686D01*
X29225Y-16635D01*
X29140Y-16599D01*
X29049Y-16580D01*
X28957Y-16580D01*
X28867Y-16597D01*
X28781Y-16631D01*
X28704Y-16682D01*
X28638Y-16746D01*
X28586Y-16822D01*
X28550Y-16907D01*
X28531Y-16997D01*
X28529Y-17089D01*
X28546Y-17180D01*
X28580Y-17266D01*
X28587Y-17278D01*
X28566Y-17300D01*
X28314Y-17300D01*
X28357Y-17259D01*
X28411Y-17183D01*
X28448Y-17099D01*
X28469Y-17009D01*
X28470Y-16904D01*
X28452Y-16814D01*
X28417Y-16728D01*
X28366Y-16652D01*
X28301Y-16586D01*
X28225Y-16535D01*
X28140Y-16499D01*
X28049Y-16480D01*
X27957Y-16480D01*
X27867Y-16497D01*
X27781Y-16531D01*
X27704Y-16582D01*
X27638Y-16646D01*
X27586Y-16722D01*
X27550Y-16807D01*
X27531Y-16897D01*
X27529Y-16989D01*
X27546Y-17080D01*
X27580Y-17166D01*
X27630Y-17243D01*
X27694Y-17310D01*
X27317Y-17687D01*
X27316Y-17688D01*
X27300Y-17707D01*
X27289Y-17729D01*
X27288Y-17731D01*
X27285Y-17739D01*
X27281Y-17753D01*
X27278Y-17778D01*
X27278Y-17780D01*
X27278Y-18146D01*
X27168Y-18256D01*
X27132Y-18256D01*
X27132Y-17691D01*
X27128Y-17672D01*
X27121Y-17654D01*
X27110Y-17637D01*
X27096Y-17623D01*
X27080Y-17613D01*
X27062Y-17605D01*
X27042Y-17601D01*
X27023Y-17601D01*
X27002Y-17601D01*
X27086Y-17516D01*
X27091Y-17513D01*
X27091Y-17512D01*
X27091Y-17511D01*
X27092Y-17511D01*
X27127Y-17505D01*
X27213Y-17472D01*
X27291Y-17422D01*
X27357Y-17359D01*
X27411Y-17283D01*
X27448Y-17199D01*
X27469Y-17109D01*
X27470Y-17004D01*
X27452Y-16914D01*
X27417Y-16828D01*
X27366Y-16752D01*
X27301Y-16686D01*
X27225Y-16635D01*
X27140Y-16599D01*
X27049Y-16580D01*
X26957Y-16580D01*
X26867Y-16597D01*
X26781Y-16631D01*
X26704Y-16682D01*
X26638Y-16746D01*
X26586Y-16822D01*
X26550Y-16907D01*
X26531Y-16997D01*
X26529Y-17089D01*
X26546Y-17180D01*
X26580Y-17266D01*
X26630Y-17343D01*
X26694Y-17410D01*
X26770Y-17462D01*
X26772Y-17463D01*
X26756Y-17480D01*
X25931Y-17480D01*
X25930Y-17480D01*
X25905Y-17482D01*
X25880Y-17490D01*
X25858Y-17502D01*
X25843Y-17514D01*
X25839Y-17517D01*
X25838Y-17518D01*
X25837Y-17519D01*
X25779Y-17577D01*
X25778Y-17578D01*
X25762Y-17597D01*
X25751Y-17619D01*
X25750Y-17621D01*
X25747Y-17629D01*
X25743Y-17643D01*
X25740Y-17668D01*
X25740Y-17670D01*
X25740Y-18030D01*
X25636Y-18134D01*
X24805Y-18134D01*
X24817Y-18118D01*
X24839Y-18068D01*
X24851Y-18015D01*
X24852Y-17953D01*
X24841Y-17900D01*
X24821Y-17849D01*
X24791Y-17804D01*
X24753Y-17766D01*
X24708Y-17735D01*
X24657Y-17714D01*
X24604Y-17703D01*
X24550Y-17703D01*
X24497Y-17713D01*
X24446Y-17733D01*
X24401Y-17763D01*
X24362Y-17801D01*
X24331Y-17846D01*
X24310Y-17896D01*
X24298Y-17949D01*
X24298Y-17987D01*
X23714Y-18571D01*
X22581Y-18571D01*
X22581Y-18343D01*
X22752Y-18172D01*
X23252Y-18172D01*
X23253Y-18172D01*
X23278Y-18170D01*
X23301Y-18162D01*
X23303Y-18162D01*
X23317Y-18154D01*
X23324Y-18151D01*
X23325Y-18150D01*
X23344Y-18135D01*
X23345Y-18134D01*
X23787Y-17692D01*
X25387Y-17692D01*
X25388Y-17692D01*
X25413Y-17690D01*
X25436Y-17682D01*
X25438Y-17682D01*
X25452Y-17674D01*
X25459Y-17671D01*
X25460Y-17670D01*
X25479Y-17655D01*
X25480Y-17654D01*
X25771Y-17362D01*
X25854Y-17399D01*
X25944Y-17419D01*
X26036Y-17421D01*
X26127Y-17405D01*
X26213Y-17372D01*
X26291Y-17322D01*
X26357Y-17259D01*
X26411Y-17183D01*
X26448Y-17099D01*
X26469Y-17009D01*
X26470Y-16904D01*
X26452Y-16814D01*
X26417Y-16728D01*
X26366Y-16652D01*
X26301Y-16586D01*
X26225Y-16535D01*
X26140Y-16499D01*
X26049Y-16480D01*
X25957Y-16480D01*
X25867Y-16497D01*
X25781Y-16531D01*
X25704Y-16582D01*
X25638Y-16646D01*
X25586Y-16722D01*
X25550Y-16807D01*
X25531Y-16897D01*
X25529Y-16989D01*
X25546Y-17080D01*
X25580Y-17166D01*
X25587Y-17178D01*
X25334Y-17432D01*
X25275Y-17432D01*
X25291Y-17422D01*
X25357Y-17359D01*
X25411Y-17283D01*
X25448Y-17199D01*
X25469Y-17109D01*
X25470Y-17004D01*
X25452Y-16914D01*
X25417Y-16828D01*
X25366Y-16752D01*
X25301Y-16686D01*
X25225Y-16635D01*
X25140Y-16599D01*
X25049Y-16580D01*
X24957Y-16580D01*
X24867Y-16597D01*
X24781Y-16631D01*
X24704Y-16682D01*
X24638Y-16746D01*
X24586Y-16822D01*
X24550Y-16907D01*
X24531Y-16997D01*
X24529Y-17089D01*
X24546Y-17180D01*
X24580Y-17266D01*
X24587Y-17278D01*
X24556Y-17310D01*
X24303Y-17310D01*
X24357Y-17259D01*
X24411Y-17183D01*
X24448Y-17099D01*
X24469Y-17009D01*
X24470Y-16904D01*
X24452Y-16814D01*
X24417Y-16728D01*
X24366Y-16652D01*
X24301Y-16586D01*
X24225Y-16535D01*
X24140Y-16499D01*
X24049Y-16480D01*
X23957Y-16480D01*
X23867Y-16497D01*
X23781Y-16531D01*
X23704Y-16582D01*
X23638Y-16646D01*
X23586Y-16722D01*
X23550Y-16807D01*
X23531Y-16897D01*
X23529Y-16989D01*
X23546Y-17080D01*
X23580Y-17166D01*
X23587Y-17178D01*
X23098Y-17668D01*
X23062Y-17668D01*
X23091Y-17639D01*
X23107Y-17619D01*
X23108Y-17619D01*
X23119Y-17597D01*
X23120Y-17596D01*
X23124Y-17580D01*
X23127Y-17573D01*
X23127Y-17572D01*
X23130Y-17548D01*
X23130Y-17547D01*
X23130Y-17546D01*
X23130Y-17503D01*
X23213Y-17472D01*
X23291Y-17422D01*
X23357Y-17359D01*
X23411Y-17283D01*
X23448Y-17199D01*
X23469Y-17109D01*
X23470Y-17004D01*
X23452Y-16914D01*
X23417Y-16828D01*
X23366Y-16752D01*
X23301Y-16686D01*
X23225Y-16635D01*
X23140Y-16599D01*
X23049Y-16580D01*
X22957Y-16580D01*
X22867Y-16597D01*
X22781Y-16631D01*
X22704Y-16682D01*
X22638Y-16746D01*
X22586Y-16822D01*
X22550Y-16907D01*
X22531Y-16997D01*
X22529Y-17089D01*
X22546Y-17180D01*
X22580Y-17266D01*
X22630Y-17343D01*
X22694Y-17410D01*
X22770Y-17462D01*
X22854Y-17499D01*
X22861Y-17500D01*
X22816Y-17546D01*
X22125Y-17546D01*
X22124Y-17546D01*
X22099Y-17548D01*
X22074Y-17556D01*
X22052Y-17568D01*
X22037Y-17580D01*
X22033Y-17583D01*
X22032Y-17583D01*
X22032Y-17584D01*
X22026Y-17590D01*
X21775Y-17841D01*
X21775Y-17364D01*
X21854Y-17399D01*
X21944Y-17419D01*
X22036Y-17421D01*
X22127Y-17405D01*
X22213Y-17372D01*
X22291Y-17322D01*
X22357Y-17259D01*
X22411Y-17183D01*
X22448Y-17099D01*
X22469Y-17009D01*
X22470Y-16904D01*
X22452Y-16814D01*
X22417Y-16728D01*
X22366Y-16652D01*
X22301Y-16586D01*
X22225Y-16535D01*
X22140Y-16499D01*
X22049Y-16480D01*
X21957Y-16480D01*
X21867Y-16497D01*
X21781Y-16531D01*
X21704Y-16582D01*
X21638Y-16646D01*
X21586Y-16722D01*
X21550Y-16807D01*
X21531Y-16897D01*
X21529Y-16989D01*
X21546Y-17080D01*
X21580Y-17166D01*
X21587Y-17178D01*
X21554Y-17212D01*
X21553Y-17213D01*
X21537Y-17232D01*
X21526Y-17254D01*
X21525Y-17256D01*
X21522Y-17264D01*
X21518Y-17278D01*
X21515Y-17303D01*
X21515Y-17305D01*
X21515Y-17914D01*
X21507Y-17913D01*
X21488Y-17913D01*
X21470Y-17913D01*
X21470Y-17004D01*
X21452Y-16914D01*
X21417Y-16828D01*
X21366Y-16752D01*
X21301Y-16686D01*
X21225Y-16635D01*
X21140Y-16599D01*
X21049Y-16580D01*
X20957Y-16580D01*
X20867Y-16597D01*
X20781Y-16631D01*
X20704Y-16682D01*
X20638Y-16746D01*
X20586Y-16822D01*
X20550Y-16907D01*
X20531Y-16997D01*
X20529Y-17089D01*
X20546Y-17180D01*
X20580Y-17266D01*
X20630Y-17343D01*
X20694Y-17410D01*
X20728Y-17433D01*
X20728Y-17494D01*
X20412Y-17178D01*
X20448Y-17099D01*
X20469Y-17009D01*
X20470Y-16904D01*
X20452Y-16814D01*
X20417Y-16728D01*
X20366Y-16652D01*
X20301Y-16586D01*
X20225Y-16535D01*
X20140Y-16499D01*
X20049Y-16480D01*
X19957Y-16480D01*
X19867Y-16497D01*
X19781Y-16531D01*
X19704Y-16582D01*
X19638Y-16646D01*
X19586Y-16722D01*
X19550Y-16807D01*
X19531Y-16897D01*
X19529Y-16989D01*
X19546Y-17080D01*
X19580Y-17166D01*
X19630Y-17243D01*
X19694Y-17310D01*
X19770Y-17362D01*
X19854Y-17399D01*
X19944Y-17419D01*
X20036Y-17421D01*
X20127Y-17405D01*
X20213Y-17372D01*
X20228Y-17362D01*
X20532Y-17666D01*
X20532Y-17926D01*
X20523Y-17925D01*
X20511Y-17925D01*
X20489Y-17947D01*
X20489Y-18279D01*
X20494Y-18279D01*
X20494Y-18337D01*
X20489Y-18337D01*
X20489Y-18669D01*
X20511Y-18691D01*
X20523Y-18691D01*
X20540Y-18688D01*
X20551Y-18682D01*
X20565Y-18691D01*
X20583Y-18699D01*
X20603Y-18703D01*
X20622Y-18703D01*
X20721Y-18703D01*
X20740Y-18699D01*
X20758Y-18692D01*
X20760Y-18690D01*
X20761Y-18691D01*
X20779Y-18699D01*
X20799Y-18703D01*
X20818Y-18703D01*
X20917Y-18703D01*
X20936Y-18699D01*
X20954Y-18692D01*
X20968Y-18682D01*
X20980Y-18688D01*
X20997Y-18691D01*
X21009Y-18691D01*
X21031Y-18669D01*
X21031Y-18337D01*
X21026Y-18337D01*
X21026Y-18279D01*
X21031Y-18279D01*
X21031Y-17947D01*
X21009Y-17925D01*
X20997Y-17925D01*
X20988Y-17926D01*
X20988Y-17519D01*
X21036Y-17521D01*
X21127Y-17505D01*
X21213Y-17472D01*
X21291Y-17422D01*
X21357Y-17359D01*
X21411Y-17283D01*
X21448Y-17199D01*
X21469Y-17109D01*
X21470Y-17004D01*
X21470Y-17913D01*
X21389Y-17913D01*
X21370Y-17917D01*
X21352Y-17924D01*
X21349Y-17925D01*
X21331Y-17917D01*
X21311Y-17913D01*
X21292Y-17913D01*
X21193Y-17913D01*
X21174Y-17917D01*
X21156Y-17924D01*
X21141Y-17933D01*
X21130Y-17928D01*
X21113Y-17925D01*
X21101Y-17925D01*
X21079Y-17947D01*
X21079Y-18279D01*
X21084Y-18279D01*
X21084Y-18337D01*
X21079Y-18337D01*
X21079Y-18669D01*
X21101Y-18691D01*
X21113Y-18691D01*
X21123Y-18689D01*
X21123Y-19896D01*
X21000Y-20018D01*
X20990Y-20011D01*
X20952Y-19996D01*
X20912Y-19987D01*
X20871Y-19987D01*
X20831Y-19994D01*
X20794Y-20010D01*
X20759Y-20032D01*
X20730Y-20060D01*
X20707Y-20094D01*
X20691Y-20131D01*
X20682Y-20171D01*
X20682Y-20212D01*
X20689Y-20252D01*
X20704Y-20290D01*
X20721Y-20317D01*
X20714Y-20322D01*
X20685Y-20350D01*
X20662Y-20384D01*
X20646Y-20421D01*
X20637Y-20461D01*
X20637Y-20502D01*
X20644Y-20542D01*
X20650Y-20558D01*
X20051Y-20558D01*
X20053Y-20551D01*
X20053Y-20532D01*
X20053Y-20433D01*
X20049Y-20414D01*
X20042Y-20396D01*
X20040Y-20393D01*
X20041Y-20392D01*
X20049Y-20374D01*
X20053Y-20354D01*
X20053Y-20335D01*
X20053Y-20236D01*
X20049Y-20217D01*
X20042Y-20199D01*
X20040Y-20196D01*
X20041Y-20195D01*
X20049Y-20177D01*
X20053Y-20157D01*
X20053Y-20138D01*
X20053Y-20039D01*
X20049Y-20020D01*
X20042Y-20002D01*
X20040Y-19999D01*
X20041Y-19999D01*
X20049Y-19981D01*
X20053Y-19961D01*
X20053Y-19942D01*
X20053Y-19843D01*
X20049Y-19824D01*
X20042Y-19806D01*
X20040Y-19803D01*
X20041Y-19802D01*
X20049Y-19784D01*
X20053Y-19764D01*
X20053Y-19745D01*
X20053Y-19646D01*
X20049Y-19627D01*
X20042Y-19609D01*
X20040Y-19606D01*
X20041Y-19605D01*
X20049Y-19587D01*
X20053Y-19567D01*
X20053Y-19548D01*
X20053Y-19449D01*
X20049Y-19430D01*
X20042Y-19412D01*
X20040Y-19409D01*
X20041Y-19409D01*
X20049Y-19391D01*
X20053Y-19371D01*
X20053Y-19352D01*
X20053Y-19253D01*
X20049Y-19234D01*
X20042Y-19216D01*
X20040Y-19213D01*
X20041Y-19212D01*
X20049Y-19194D01*
X20053Y-19174D01*
X20053Y-19155D01*
X20053Y-19056D01*
X20049Y-19037D01*
X20042Y-19019D01*
X20040Y-19016D01*
X20041Y-19015D01*
X20049Y-18997D01*
X20053Y-18977D01*
X20053Y-18958D01*
X20053Y-18907D01*
X20305Y-19160D01*
X20306Y-19161D01*
X20307Y-19162D01*
X20330Y-19181D01*
X20331Y-19182D01*
X20353Y-19194D01*
X20357Y-19196D01*
X20359Y-19197D01*
X20364Y-19198D01*
X20387Y-19206D01*
X20418Y-19209D01*
X20419Y-19209D01*
X20420Y-19209D01*
X20492Y-19209D01*
X20502Y-19223D01*
X20539Y-19262D01*
X20584Y-19293D01*
X20634Y-19315D01*
X20687Y-19326D01*
X20741Y-19328D01*
X20795Y-19318D01*
X20845Y-19298D01*
X20891Y-19269D01*
X20931Y-19232D01*
X20962Y-19188D01*
X20984Y-19138D01*
X20996Y-19085D01*
X20997Y-19023D01*
X20986Y-18970D01*
X20966Y-18919D01*
X20936Y-18874D01*
X20898Y-18836D01*
X20853Y-18805D01*
X20802Y-18784D01*
X20749Y-18773D01*
X20695Y-18773D01*
X20642Y-18783D01*
X20591Y-18803D01*
X20546Y-18833D01*
X20507Y-18871D01*
X20493Y-18891D01*
X20485Y-18891D01*
X20297Y-18703D01*
X20327Y-18703D01*
X20346Y-18699D01*
X20364Y-18692D01*
X20378Y-18682D01*
X20390Y-18688D01*
X20407Y-18691D01*
X20419Y-18691D01*
X20441Y-18669D01*
X20441Y-18337D01*
X20436Y-18337D01*
X20436Y-18279D01*
X20441Y-18279D01*
X20441Y-17947D01*
X20419Y-17925D01*
X20407Y-17925D01*
X20390Y-17928D01*
X20378Y-17933D01*
X20365Y-17925D01*
X20347Y-17917D01*
X20327Y-17913D01*
X20308Y-17913D01*
X20209Y-17913D01*
X20190Y-17917D01*
X20172Y-17924D01*
X20155Y-17935D01*
X20141Y-17949D01*
X20131Y-17965D01*
X20123Y-17983D01*
X20119Y-18003D01*
X20119Y-18022D01*
X20119Y-18141D01*
X20087Y-18141D01*
X20086Y-18141D01*
X20085Y-18141D01*
X20025Y-18141D01*
X20025Y-18065D01*
X20021Y-18046D01*
X20014Y-18028D01*
X20003Y-18011D01*
X19989Y-17997D01*
X19973Y-17987D01*
X19955Y-17979D01*
X19935Y-17975D01*
X19916Y-17975D01*
X19799Y-17975D01*
X19777Y-17953D01*
X19781Y-17940D01*
X19782Y-17878D01*
X19771Y-17825D01*
X19751Y-17774D01*
X19721Y-17729D01*
X19683Y-17691D01*
X19638Y-17660D01*
X19587Y-17639D01*
X19534Y-17628D01*
X19480Y-17628D01*
X19427Y-17638D01*
X19376Y-17658D01*
X19331Y-17688D01*
X19292Y-17726D01*
X19261Y-17771D01*
X19240Y-17821D01*
X19228Y-17874D01*
X19228Y-17928D01*
X19237Y-17982D01*
X19242Y-17995D01*
X19229Y-18009D01*
X19229Y-18271D01*
X19391Y-18271D01*
X19413Y-18249D01*
X19413Y-18167D01*
X19419Y-18170D01*
X19472Y-18181D01*
X19526Y-18183D01*
X19553Y-18177D01*
X19575Y-18199D01*
X19575Y-18535D01*
X19579Y-18554D01*
X19586Y-18572D01*
X19597Y-18589D01*
X19611Y-18603D01*
X19627Y-18613D01*
X19645Y-18621D01*
X19665Y-18625D01*
X19684Y-18625D01*
X19926Y-18625D01*
X19926Y-18713D01*
X19926Y-18715D01*
X19929Y-18746D01*
X19933Y-18762D01*
X19935Y-18769D01*
X19413Y-18769D01*
X19413Y-18534D01*
X19413Y-18517D01*
X19413Y-18351D01*
X19391Y-18329D01*
X19229Y-18329D01*
X19229Y-18591D01*
X19251Y-18613D01*
X19334Y-18613D01*
X19351Y-18610D01*
X19367Y-18603D01*
X19381Y-18593D01*
X19393Y-18581D01*
X19403Y-18567D01*
X19410Y-18551D01*
X19413Y-18534D01*
X19413Y-18769D01*
X19353Y-18769D01*
X19348Y-18769D01*
X19170Y-18591D01*
X19171Y-18591D01*
X19171Y-18329D01*
X19171Y-18271D01*
X19171Y-18009D01*
X19149Y-17987D01*
X19066Y-17987D01*
X19049Y-17990D01*
X19033Y-17997D01*
X19019Y-18007D01*
X19007Y-18019D01*
X18997Y-18033D01*
X18990Y-18049D01*
X18987Y-18066D01*
X18987Y-18083D01*
X18987Y-18249D01*
X19009Y-18271D01*
X19171Y-18271D01*
X19171Y-18329D01*
X19009Y-18329D01*
X18987Y-18351D01*
X18987Y-18408D01*
X18530Y-17951D01*
X18530Y-17829D01*
X18858Y-17500D01*
X18944Y-17519D01*
X19036Y-17521D01*
X19127Y-17505D01*
X19213Y-17472D01*
X19291Y-17422D01*
X19357Y-17359D01*
X19411Y-17283D01*
X19448Y-17199D01*
X19469Y-17109D01*
X19470Y-17004D01*
X19452Y-16914D01*
X19417Y-16828D01*
X19366Y-16752D01*
X19301Y-16686D01*
X19225Y-16635D01*
X19140Y-16599D01*
X19049Y-16580D01*
X18957Y-16580D01*
X18867Y-16597D01*
X18781Y-16631D01*
X18704Y-16682D01*
X18638Y-16746D01*
X18586Y-16822D01*
X18550Y-16907D01*
X18531Y-16997D01*
X18529Y-17089D01*
X18546Y-17180D01*
X18580Y-17266D01*
X18630Y-17343D01*
X18638Y-17352D01*
X18408Y-17583D01*
X18408Y-17229D01*
X18408Y-17228D01*
X18406Y-17203D01*
X18403Y-17194D01*
X18411Y-17183D01*
X18448Y-17099D01*
X18469Y-17009D01*
X18470Y-16904D01*
X18452Y-16814D01*
X18417Y-16728D01*
X18366Y-16652D01*
X18301Y-16586D01*
X18225Y-16535D01*
X18140Y-16499D01*
X18049Y-16480D01*
X17957Y-16480D01*
X17867Y-16497D01*
X17781Y-16531D01*
X17704Y-16582D01*
X17638Y-16646D01*
X17586Y-16722D01*
X17550Y-16807D01*
X17531Y-16897D01*
X17529Y-16989D01*
X17546Y-17080D01*
X17580Y-17166D01*
X17630Y-17243D01*
X17674Y-17290D01*
X17424Y-17290D01*
X17412Y-17278D01*
X17448Y-17199D01*
X17469Y-17109D01*
X17470Y-17004D01*
X17452Y-16914D01*
X17417Y-16828D01*
X17366Y-16752D01*
X17301Y-16686D01*
X17225Y-16635D01*
X17140Y-16599D01*
X17049Y-16580D01*
X16957Y-16580D01*
X16867Y-16597D01*
X16781Y-16631D01*
X16704Y-16682D01*
X16638Y-16746D01*
X16586Y-16822D01*
X16550Y-16907D01*
X16531Y-16997D01*
X16529Y-17070D01*
X16468Y-17009D01*
X16469Y-17009D01*
X16470Y-16904D01*
X16452Y-16814D01*
X16417Y-16728D01*
X16366Y-16652D01*
X16301Y-16586D01*
X16225Y-16535D01*
X16140Y-16499D01*
X16049Y-16480D01*
X15957Y-16480D01*
X15867Y-16497D01*
X15781Y-16531D01*
X15704Y-16582D01*
X15638Y-16646D01*
X15586Y-16722D01*
X15550Y-16807D01*
X15531Y-16897D01*
X15529Y-16989D01*
X15546Y-17080D01*
X15580Y-17166D01*
X15630Y-17243D01*
X15694Y-17310D01*
X15770Y-17362D01*
X15854Y-17399D01*
X15944Y-17419D01*
X16036Y-17421D01*
X16127Y-17405D01*
X16213Y-17372D01*
X16291Y-17322D01*
X16353Y-17262D01*
X16724Y-17633D01*
X16725Y-17634D01*
X16744Y-17650D01*
X16766Y-17661D01*
X16767Y-17662D01*
X16783Y-17666D01*
X16790Y-17669D01*
X16791Y-17669D01*
X16815Y-17672D01*
X16817Y-17672D01*
X17826Y-17672D01*
X17904Y-17749D01*
X17904Y-18154D01*
X17904Y-18155D01*
X17906Y-18180D01*
X17914Y-18205D01*
X17921Y-18219D01*
X17925Y-18226D01*
X17926Y-18227D01*
X17941Y-18246D01*
X17942Y-18247D01*
X17977Y-18282D01*
X17961Y-18282D01*
X17921Y-18289D01*
X17884Y-18305D01*
X17849Y-18327D01*
X17820Y-18355D01*
X17797Y-18389D01*
X17781Y-18426D01*
X17772Y-18466D01*
X17772Y-18500D01*
X17655Y-18500D01*
X17636Y-18504D01*
X17618Y-18511D01*
X17601Y-18522D01*
X17590Y-18533D01*
X17579Y-18522D01*
X17563Y-18512D01*
X17545Y-18504D01*
X17525Y-18500D01*
X17506Y-18500D01*
X17451Y-18500D01*
X17452Y-18497D01*
X17453Y-18450D01*
X17445Y-18410D01*
X17430Y-18372D01*
X17407Y-18338D01*
X17378Y-18309D01*
X17345Y-18286D01*
X17307Y-18271D01*
X17267Y-18262D01*
X17226Y-18262D01*
X17186Y-18269D01*
X17149Y-18285D01*
X17114Y-18307D01*
X17085Y-18335D01*
X17062Y-18369D01*
X17046Y-18406D01*
X17037Y-18446D01*
X17037Y-18487D01*
X17039Y-18503D01*
X17036Y-18504D01*
X17018Y-18511D01*
X17001Y-18522D01*
X16987Y-18536D01*
X16977Y-18552D01*
X16969Y-18570D01*
X16965Y-18590D01*
X16965Y-18609D01*
X16965Y-18860D01*
X16969Y-18879D01*
X16976Y-18897D01*
X16987Y-18914D01*
X17001Y-18928D01*
X17017Y-18938D01*
X17035Y-18946D01*
X17055Y-18950D01*
X17074Y-18950D01*
X17525Y-18950D01*
X17544Y-18946D01*
X17562Y-18939D01*
X17579Y-18928D01*
X17590Y-18917D01*
X17601Y-18928D01*
X17617Y-18938D01*
X17635Y-18946D01*
X17655Y-18950D01*
X17674Y-18950D01*
X18125Y-18950D01*
X18144Y-18946D01*
X18162Y-18939D01*
X18179Y-18928D01*
X18193Y-18914D01*
X18203Y-18898D01*
X18211Y-18880D01*
X18215Y-18860D01*
X18215Y-18841D01*
X18215Y-18590D01*
X18211Y-18571D01*
X18204Y-18553D01*
X18193Y-18536D01*
X18184Y-18527D01*
X18187Y-18517D01*
X18187Y-18492D01*
X18947Y-19252D01*
X18927Y-19250D01*
X18925Y-19250D01*
X18694Y-19250D01*
X18693Y-19250D01*
X18668Y-19252D01*
X18643Y-19260D01*
X18621Y-19272D01*
X18606Y-19284D01*
X18602Y-19287D01*
X18601Y-19287D01*
X18601Y-19288D01*
X18596Y-19293D01*
X18215Y-19293D01*
X18215Y-19190D01*
X18211Y-19171D01*
X18204Y-19153D01*
X18193Y-19136D01*
X18179Y-19122D01*
X18163Y-19112D01*
X18145Y-19104D01*
X18125Y-19100D01*
X18106Y-19100D01*
X17655Y-19100D01*
X17636Y-19104D01*
X17618Y-19111D01*
X17601Y-19122D01*
X17590Y-19133D01*
X17579Y-19122D01*
X17563Y-19112D01*
X17545Y-19104D01*
X17525Y-19100D01*
X17506Y-19100D01*
X17055Y-19100D01*
X17036Y-19104D01*
X17018Y-19111D01*
X17001Y-19122D01*
X16987Y-19136D01*
X16977Y-19152D01*
X16969Y-19170D01*
X16965Y-19190D01*
X16965Y-19209D01*
X16965Y-19460D01*
X16969Y-19479D01*
X16976Y-19497D01*
X16987Y-19514D01*
X17001Y-19528D01*
X17017Y-19538D01*
X17035Y-19546D01*
X17055Y-19550D01*
X17074Y-19550D01*
X17366Y-19550D01*
X17452Y-19636D01*
X17453Y-19637D01*
X17472Y-19653D01*
X17494Y-19664D01*
X17495Y-19665D01*
X17511Y-19669D01*
X17518Y-19672D01*
X17519Y-19672D01*
X17543Y-19675D01*
X17545Y-19675D01*
X18589Y-19675D01*
X18611Y-19709D01*
X18639Y-19739D01*
X18673Y-19762D01*
X18687Y-19768D01*
X18629Y-19827D01*
X18628Y-19828D01*
X18612Y-19847D01*
X18601Y-19869D01*
X18600Y-19871D01*
X18597Y-19879D01*
X18593Y-19893D01*
X18593Y-19839D01*
X18593Y-19756D01*
X18590Y-19739D01*
X18583Y-19723D01*
X18573Y-19709D01*
X18561Y-19697D01*
X18547Y-19687D01*
X18531Y-19680D01*
X18514Y-19677D01*
X18497Y-19677D01*
X18331Y-19677D01*
X18309Y-19699D01*
X18309Y-19861D01*
X18571Y-19861D01*
X18593Y-19839D01*
X18593Y-19893D01*
X18590Y-19918D01*
X18590Y-19920D01*
X18590Y-19938D01*
X18571Y-19919D01*
X18309Y-19919D01*
X18309Y-20081D01*
X18331Y-20103D01*
X18497Y-20103D01*
X18514Y-20103D01*
X18531Y-20100D01*
X18547Y-20093D01*
X18561Y-20083D01*
X18573Y-20071D01*
X18583Y-20057D01*
X18590Y-20041D01*
X18590Y-20311D01*
X18583Y-20301D01*
X18569Y-20287D01*
X18553Y-20277D01*
X18535Y-20269D01*
X18515Y-20265D01*
X18496Y-20265D01*
X18251Y-20265D01*
X18251Y-20081D01*
X18251Y-19919D01*
X18251Y-19861D01*
X18251Y-19699D01*
X18229Y-19677D01*
X18063Y-19677D01*
X18046Y-19677D01*
X18029Y-19680D01*
X18013Y-19687D01*
X17999Y-19697D01*
X17987Y-19709D01*
X17977Y-19723D01*
X17970Y-19739D01*
X17967Y-19756D01*
X17967Y-19839D01*
X17989Y-19861D01*
X18251Y-19861D01*
X18251Y-19919D01*
X17989Y-19919D01*
X17967Y-19941D01*
X17967Y-20024D01*
X17970Y-20041D01*
X17977Y-20057D01*
X17987Y-20071D01*
X17999Y-20083D01*
X18013Y-20093D01*
X18029Y-20100D01*
X18046Y-20103D01*
X18063Y-20103D01*
X18229Y-20103D01*
X18251Y-20081D01*
X18251Y-20265D01*
X18045Y-20265D01*
X18026Y-20269D01*
X18008Y-20276D01*
X17991Y-20287D01*
X17977Y-20301D01*
X17967Y-20317D01*
X17959Y-20335D01*
X17955Y-20355D01*
X17955Y-20374D01*
X17955Y-20625D01*
X17956Y-20629D01*
X17923Y-20662D01*
X17905Y-20654D01*
X17885Y-20650D01*
X17866Y-20650D01*
X17813Y-20650D01*
X17813Y-20464D01*
X17813Y-20447D01*
X17813Y-20281D01*
X17813Y-20179D01*
X17813Y-20013D01*
X17813Y-19996D01*
X17810Y-19979D01*
X17803Y-19963D01*
X17793Y-19949D01*
X17781Y-19937D01*
X17767Y-19927D01*
X17751Y-19920D01*
X17734Y-19917D01*
X17651Y-19917D01*
X17629Y-19939D01*
X17629Y-20201D01*
X17791Y-20201D01*
X17813Y-20179D01*
X17813Y-20281D01*
X17791Y-20259D01*
X17629Y-20259D01*
X17629Y-20521D01*
X17651Y-20543D01*
X17734Y-20543D01*
X17751Y-20540D01*
X17767Y-20533D01*
X17781Y-20523D01*
X17793Y-20511D01*
X17803Y-20497D01*
X17810Y-20481D01*
X17813Y-20464D01*
X17813Y-20650D01*
X17665Y-20650D01*
X17646Y-20654D01*
X17628Y-20661D01*
X17611Y-20672D01*
X17597Y-20686D01*
X17587Y-20702D01*
X17579Y-20720D01*
X17575Y-20740D01*
X17575Y-20759D01*
X17575Y-21060D01*
X17579Y-21079D01*
X17586Y-21097D01*
X17597Y-21114D01*
X17611Y-21128D01*
X17627Y-21138D01*
X17645Y-21146D01*
X17665Y-21150D01*
X17684Y-21150D01*
X17885Y-21150D01*
X17904Y-21146D01*
X17922Y-21139D01*
X17939Y-21128D01*
X17953Y-21114D01*
X17963Y-21098D01*
X17971Y-21080D01*
X17975Y-21060D01*
X17975Y-21041D01*
X17975Y-20979D01*
X18239Y-20715D01*
X18515Y-20715D01*
X18534Y-20711D01*
X18552Y-20704D01*
X18569Y-20693D01*
X18583Y-20679D01*
X18590Y-20667D01*
X18590Y-21087D01*
X18451Y-21087D01*
X18429Y-21109D01*
X18429Y-21241D01*
X18429Y-21271D01*
X18429Y-21329D01*
X18429Y-21359D01*
X18429Y-21491D01*
X18451Y-21513D01*
X18590Y-21513D01*
X18590Y-21675D01*
X18371Y-21675D01*
X18371Y-21491D01*
X18371Y-21329D01*
X18371Y-21271D01*
X18371Y-21109D01*
X18349Y-21087D01*
X18183Y-21087D01*
X18166Y-21087D01*
X18149Y-21090D01*
X18133Y-21097D01*
X18119Y-21107D01*
X18107Y-21119D01*
X18097Y-21133D01*
X18090Y-21149D01*
X18087Y-21166D01*
X18087Y-21249D01*
X18109Y-21271D01*
X18371Y-21271D01*
X18371Y-21329D01*
X18109Y-21329D01*
X18087Y-21351D01*
X18087Y-21434D01*
X18090Y-21451D01*
X18097Y-21467D01*
X18107Y-21481D01*
X18119Y-21493D01*
X18133Y-21503D01*
X18149Y-21510D01*
X18166Y-21513D01*
X18183Y-21513D01*
X18349Y-21513D01*
X18371Y-21491D01*
X18371Y-21675D01*
X18165Y-21675D01*
X18146Y-21679D01*
X18128Y-21686D01*
X18111Y-21697D01*
X18097Y-21711D01*
X18087Y-21727D01*
X18080Y-21741D01*
X17975Y-21741D01*
X17975Y-21740D01*
X17971Y-21721D01*
X17964Y-21703D01*
X17953Y-21686D01*
X17939Y-21672D01*
X17923Y-21662D01*
X17905Y-21654D01*
X17885Y-21650D01*
X17866Y-21650D01*
X17665Y-21650D01*
X17646Y-21654D01*
X17628Y-21661D01*
X17611Y-21672D01*
X17597Y-21686D01*
X17587Y-21702D01*
X17581Y-21715D01*
X17578Y-21708D01*
X17571Y-21698D01*
X17571Y-20521D01*
X17571Y-20259D01*
X17571Y-20201D01*
X17571Y-19939D01*
X17549Y-19917D01*
X17466Y-19917D01*
X17449Y-19920D01*
X17433Y-19927D01*
X17419Y-19937D01*
X17407Y-19949D01*
X17397Y-19963D01*
X17390Y-19979D01*
X17387Y-19996D01*
X17387Y-20013D01*
X17387Y-20179D01*
X17409Y-20201D01*
X17571Y-20201D01*
X17571Y-20259D01*
X17409Y-20259D01*
X17387Y-20281D01*
X17387Y-20447D01*
X17387Y-20464D01*
X17390Y-20481D01*
X17397Y-20497D01*
X17407Y-20511D01*
X17419Y-20523D01*
X17433Y-20533D01*
X17449Y-20540D01*
X17466Y-20543D01*
X17549Y-20543D01*
X17571Y-20521D01*
X17571Y-21698D01*
X17568Y-21694D01*
X17556Y-21682D01*
X17542Y-21672D01*
X17526Y-21665D01*
X17509Y-21662D01*
X17451Y-21662D01*
X17429Y-21684D01*
X17429Y-21841D01*
X17429Y-21871D01*
X17429Y-21929D01*
X17371Y-21929D01*
X17371Y-21871D01*
X17371Y-21841D01*
X17371Y-21684D01*
X17349Y-21662D01*
X17291Y-21662D01*
X17274Y-21665D01*
X17258Y-21672D01*
X17244Y-21682D01*
X17232Y-21694D01*
X17222Y-21708D01*
X17218Y-21715D01*
X17214Y-21703D01*
X17203Y-21686D01*
X17189Y-21672D01*
X17173Y-21662D01*
X17155Y-21654D01*
X17135Y-21650D01*
X17116Y-21650D01*
X16959Y-21650D01*
X16959Y-21190D01*
X16999Y-21150D01*
X17135Y-21150D01*
X17154Y-21146D01*
X17172Y-21139D01*
X17189Y-21128D01*
X17203Y-21114D01*
X17213Y-21098D01*
X17221Y-21080D01*
X17225Y-21060D01*
X17225Y-21041D01*
X17225Y-20740D01*
X17221Y-20721D01*
X17214Y-20703D01*
X17203Y-20686D01*
X17189Y-20672D01*
X17173Y-20662D01*
X17159Y-20655D01*
X17159Y-20549D01*
X17172Y-20544D01*
X17189Y-20533D01*
X17203Y-20519D01*
X17213Y-20503D01*
X17221Y-20485D01*
X17225Y-20465D01*
X17225Y-20446D01*
X17225Y-19995D01*
X17221Y-19976D01*
X17214Y-19958D01*
X17203Y-19941D01*
X17189Y-19927D01*
X17173Y-19917D01*
X17155Y-19909D01*
X17135Y-19905D01*
X17116Y-19905D01*
X17109Y-19905D01*
X17109Y-19904D01*
X17099Y-19897D01*
X17089Y-19888D01*
X17085Y-19885D01*
X17084Y-19885D01*
X17080Y-19883D01*
X17062Y-19873D01*
X17057Y-19871D01*
X17056Y-19871D01*
X17054Y-19870D01*
X16862Y-19799D01*
X16861Y-19790D01*
X16841Y-19739D01*
X16811Y-19694D01*
X16773Y-19656D01*
X16728Y-19625D01*
X16677Y-19604D01*
X16624Y-19593D01*
X16570Y-19593D01*
X16517Y-19603D01*
X16466Y-19623D01*
X16421Y-19653D01*
X16382Y-19691D01*
X16370Y-19708D01*
X16366Y-19702D01*
X16301Y-19636D01*
X16225Y-19585D01*
X16140Y-19549D01*
X16049Y-19530D01*
X15957Y-19530D01*
X15867Y-19547D01*
X15781Y-19581D01*
X15704Y-19632D01*
X15638Y-19696D01*
X15586Y-19772D01*
X15550Y-19857D01*
X15531Y-19947D01*
X15529Y-20039D01*
X15546Y-20130D01*
X15580Y-20216D01*
X15587Y-20228D01*
X15553Y-20263D01*
X14729Y-20263D01*
X14729Y-19737D01*
X15392Y-19737D01*
X15393Y-19737D01*
X15418Y-19735D01*
X15441Y-19727D01*
X15443Y-19727D01*
X15457Y-19719D01*
X15464Y-19716D01*
X15465Y-19715D01*
X15484Y-19700D01*
X15485Y-19699D01*
X15771Y-19412D01*
X15854Y-19449D01*
X15944Y-19469D01*
X16036Y-19471D01*
X16127Y-19455D01*
X16213Y-19422D01*
X16291Y-19372D01*
X16357Y-19309D01*
X16411Y-19233D01*
X16448Y-19149D01*
X16469Y-19059D01*
X16470Y-18954D01*
X16460Y-18904D01*
X16460Y-17992D01*
X16450Y-17902D01*
X16422Y-17817D01*
X16388Y-17753D01*
X16330Y-17712D01*
X16288Y-17753D01*
X16288Y-17670D01*
X16247Y-17612D01*
X16167Y-17571D01*
X16081Y-17547D01*
X15992Y-17540D01*
X15902Y-17550D01*
X15817Y-17578D01*
X15753Y-17612D01*
X15712Y-17670D01*
X16000Y-17959D01*
X16288Y-17670D01*
X16288Y-17753D01*
X16041Y-18000D01*
X16330Y-18288D01*
X16388Y-18247D01*
X16429Y-18167D01*
X16453Y-18081D01*
X16460Y-17992D01*
X16460Y-18904D01*
X16452Y-18864D01*
X16417Y-18778D01*
X16366Y-18702D01*
X16301Y-18636D01*
X16288Y-18627D01*
X16288Y-18330D01*
X16000Y-18041D01*
X15959Y-18082D01*
X15959Y-18000D01*
X15670Y-17712D01*
X15612Y-17753D01*
X15571Y-17833D01*
X15547Y-17919D01*
X15540Y-18008D01*
X15550Y-18098D01*
X15578Y-18183D01*
X15612Y-18247D01*
X15670Y-18288D01*
X15959Y-18000D01*
X15959Y-18082D01*
X15712Y-18330D01*
X15753Y-18388D01*
X15833Y-18429D01*
X15919Y-18453D01*
X16008Y-18460D01*
X16098Y-18450D01*
X16183Y-18422D01*
X16247Y-18388D01*
X16288Y-18330D01*
X16288Y-18627D01*
X16225Y-18585D01*
X16140Y-18549D01*
X16049Y-18530D01*
X15957Y-18530D01*
X15867Y-18547D01*
X15781Y-18581D01*
X15704Y-18632D01*
X15638Y-18696D01*
X15586Y-18772D01*
X15550Y-18857D01*
X15531Y-18947D01*
X15529Y-19039D01*
X15546Y-19130D01*
X15580Y-19216D01*
X15587Y-19228D01*
X15339Y-19477D01*
X14729Y-19477D01*
X14729Y-18012D01*
X14992Y-17749D01*
X15299Y-17749D01*
X15300Y-17749D01*
X15322Y-17747D01*
X15323Y-17747D01*
X15345Y-17740D01*
X15365Y-17730D01*
X15366Y-17729D01*
X15383Y-17715D01*
X15383Y-17714D01*
X15384Y-17714D01*
X15398Y-17697D01*
X15399Y-17697D01*
X15409Y-17677D01*
X15410Y-17676D01*
X15416Y-17655D01*
X15417Y-17654D01*
X15418Y-17634D01*
X15419Y-17632D01*
X15419Y-17631D01*
X15419Y-17630D01*
X15419Y-16616D01*
X15616Y-16419D01*
X29384Y-16419D01*
X29581Y-16616D01*
X29581Y-23384D01*
M02*
