G04 (created by PCBNEW-RS274X (2012-02-23 BZR 3434)-stable) date Fri 09 Mar 2012 12:48:31 AM CET*
G01*
G70*
G90*
%MOIN*%
G04 Gerber Fmt 3.4, Leading zero omitted, Abs format*
%FSLAX34Y34*%
G04 APERTURE LIST*
%ADD10C,0.006000*%
%ADD11C,0.009800*%
%ADD12C,0.005900*%
%ADD13C,0.003900*%
%ADD14C,0.011800*%
%ADD15C,0.000100*%
%ADD16C,0.008000*%
%ADD17C,0.081800*%
%ADD18R,0.031800X0.070800*%
%ADD19R,0.030800X0.066100*%
%ADD20R,0.052800X0.047200*%
%ADD21R,0.037800X0.037800*%
%ADD22R,0.081800X0.081800*%
%ADD23R,0.106200X0.027400*%
%ADD24R,0.106200X0.086500*%
%ADD25C,0.043200*%
%ADD26R,0.052800X0.032800*%
%ADD27R,0.047200X0.031400*%
%ADD28R,0.027800X0.037800*%
%ADD29R,0.032800X0.052800*%
%ADD30R,0.043200X0.052800*%
%ADD31R,0.062800X0.042800*%
%ADD32R,0.070800X0.047200*%
%ADD33R,0.070800X0.125900*%
G04 APERTURE END LIST*
G54D10*
G54D11*
X23330Y-18414D02*
X23281Y-18020D01*
X23288Y-18076D02*
X23256Y-18048D01*
X23197Y-18020D01*
X23112Y-18020D01*
X23059Y-18048D01*
X23038Y-18104D01*
X23077Y-18414D01*
X23038Y-18104D02*
X23003Y-18048D01*
X22944Y-18020D01*
X22859Y-18020D01*
X22806Y-18048D01*
X22785Y-18104D01*
X22824Y-18414D01*
X22285Y-18386D02*
X22345Y-18414D01*
X22458Y-18414D01*
X22510Y-18386D01*
X22535Y-18357D01*
X22556Y-18301D01*
X22535Y-18132D01*
X22500Y-18076D01*
X22468Y-18048D01*
X22409Y-18020D01*
X22296Y-18020D01*
X22243Y-18048D01*
X22035Y-18414D02*
X21961Y-17823D01*
X21782Y-18414D02*
X21743Y-18104D01*
X21764Y-18048D01*
X21817Y-18020D01*
X21902Y-18020D01*
X21961Y-18048D01*
X21993Y-18076D01*
X21243Y-18386D02*
X21303Y-18414D01*
X21416Y-18414D01*
X21468Y-18386D01*
X21493Y-18357D01*
X21514Y-18301D01*
X21493Y-18132D01*
X21458Y-18076D01*
X21426Y-18048D01*
X21367Y-18020D01*
X21254Y-18020D01*
X21201Y-18048D01*
X20993Y-18414D02*
X20919Y-17823D01*
X20909Y-18189D02*
X20768Y-18414D01*
X20719Y-18020D02*
X20972Y-18245D01*
X20508Y-18357D02*
X20483Y-18386D01*
X20515Y-18414D01*
X20539Y-18386D01*
X20508Y-18357D01*
X20515Y-18414D01*
X20150Y-18414D02*
X20202Y-18386D01*
X20227Y-18357D01*
X20248Y-18301D01*
X20227Y-18132D01*
X20192Y-18076D01*
X20160Y-18048D01*
X20101Y-18020D01*
X20016Y-18020D01*
X19963Y-18048D01*
X19939Y-18076D01*
X19918Y-18132D01*
X19939Y-18301D01*
X19974Y-18357D01*
X20005Y-18386D01*
X20065Y-18414D01*
X20150Y-18414D01*
X19699Y-18414D02*
X19650Y-18020D01*
X19664Y-18132D02*
X19629Y-18076D01*
X19597Y-18048D01*
X19538Y-18020D01*
X19481Y-18020D01*
X19031Y-18020D02*
X19091Y-18498D01*
X19126Y-18554D01*
X19157Y-18583D01*
X19218Y-18611D01*
X19302Y-18611D01*
X19354Y-18583D01*
X19076Y-18386D02*
X19136Y-18414D01*
X19249Y-18414D01*
X19301Y-18386D01*
X19326Y-18357D01*
X19347Y-18301D01*
X19326Y-18132D01*
X19291Y-18076D01*
X19259Y-18048D01*
X19200Y-18020D01*
X19087Y-18020D01*
X19034Y-18048D01*
G54D12*
X22500Y-20000D02*
X22750Y-20250D01*
X22500Y-20000D02*
X22750Y-19750D01*
X22500Y-19350D02*
X22750Y-19600D01*
X22500Y-19350D02*
X22750Y-19100D01*
X22298Y-19358D02*
X22416Y-19358D01*
X22416Y-19543D02*
X22416Y-19189D01*
X22247Y-19189D01*
X21944Y-19543D02*
X22113Y-19543D01*
X22113Y-19189D01*
X21843Y-19442D02*
X21674Y-19442D01*
X21876Y-19543D02*
X21758Y-19189D01*
X21640Y-19543D01*
X21540Y-19526D02*
X21489Y-19543D01*
X21405Y-19543D01*
X21371Y-19526D01*
X21354Y-19510D01*
X21337Y-19476D01*
X21337Y-19442D01*
X21354Y-19408D01*
X21371Y-19392D01*
X21405Y-19375D01*
X21472Y-19358D01*
X21506Y-19341D01*
X21523Y-19324D01*
X21540Y-19290D01*
X21540Y-19257D01*
X21523Y-19223D01*
X21506Y-19206D01*
X21472Y-19189D01*
X21388Y-19189D01*
X21337Y-19206D01*
X21186Y-19543D02*
X21186Y-19189D01*
X21186Y-19358D02*
X20983Y-19358D01*
X20983Y-19543D02*
X20983Y-19189D01*
X22247Y-20168D02*
X22416Y-20168D01*
X22416Y-19814D01*
X22061Y-19814D02*
X21994Y-19814D01*
X21960Y-19831D01*
X21926Y-19865D01*
X21910Y-19932D01*
X21910Y-20050D01*
X21926Y-20118D01*
X21960Y-20151D01*
X21994Y-20168D01*
X22061Y-20168D01*
X22095Y-20151D01*
X22129Y-20118D01*
X22146Y-20050D01*
X22146Y-19932D01*
X22129Y-19865D01*
X22095Y-19831D01*
X22061Y-19814D01*
X21775Y-20067D02*
X21606Y-20067D01*
X21808Y-20168D02*
X21690Y-19814D01*
X21572Y-20168D01*
X21455Y-20168D02*
X21455Y-19814D01*
X21370Y-19814D01*
X21320Y-19831D01*
X21286Y-19865D01*
X21269Y-19899D01*
X21252Y-19966D01*
X21252Y-20017D01*
X21269Y-20084D01*
X21286Y-20118D01*
X21320Y-20151D01*
X21370Y-20168D01*
X21455Y-20168D01*
X21101Y-19983D02*
X20983Y-19983D01*
X20932Y-20168D02*
X21101Y-20168D01*
X21101Y-19814D01*
X20932Y-19814D01*
X20578Y-20168D02*
X20696Y-20000D01*
X20781Y-20168D02*
X20781Y-19814D01*
X20646Y-19814D01*
X20612Y-19831D01*
X20595Y-19848D01*
X20578Y-19882D01*
X20578Y-19932D01*
X20595Y-19966D01*
X20612Y-19983D01*
X20646Y-20000D01*
X20781Y-20000D01*
G54D13*
X15300Y-17630D02*
X15300Y-16300D01*
X15300Y-22374D02*
X15300Y-23700D01*
X29700Y-23700D02*
X15300Y-23700D01*
X29700Y-16300D02*
X29700Y-23700D01*
X15300Y-16300D02*
X29700Y-16300D01*
X10039Y-17630D02*
X15300Y-17630D01*
X10039Y-22374D02*
X15300Y-22374D01*
X10039Y-17630D02*
X10039Y-22374D01*
G54D12*
X27606Y-22390D02*
X27724Y-22321D01*
X27547Y-21740D02*
X27764Y-21415D01*
X25164Y-18443D02*
X25164Y-17656D01*
X25164Y-17656D02*
X27094Y-17656D01*
X27094Y-17656D02*
X27094Y-18443D01*
X25164Y-21357D02*
X27094Y-21357D01*
X27094Y-21357D02*
X27094Y-18443D01*
X27094Y-18443D02*
X25164Y-18443D01*
X25164Y-18443D02*
X25164Y-21357D01*
G54D14*
X25409Y-19342D02*
X25408Y-19349D01*
X25406Y-19356D01*
X25402Y-19363D01*
X25397Y-19369D01*
X25391Y-19374D01*
X25385Y-19377D01*
X25377Y-19380D01*
X25370Y-19380D01*
X25363Y-19380D01*
X25356Y-19378D01*
X25349Y-19374D01*
X25343Y-19369D01*
X25338Y-19364D01*
X25335Y-19357D01*
X25332Y-19350D01*
X25332Y-19342D01*
X25332Y-19335D01*
X25334Y-19328D01*
X25338Y-19321D01*
X25342Y-19315D01*
X25348Y-19310D01*
X25355Y-19307D01*
X25362Y-19304D01*
X25370Y-19304D01*
X25376Y-19304D01*
X25384Y-19306D01*
X25390Y-19310D01*
X25396Y-19314D01*
X25401Y-19320D01*
X25405Y-19327D01*
X25408Y-19334D01*
X25408Y-19341D01*
X25409Y-19342D01*
G54D15*
G36*
X22500Y-22342D02*
X22509Y-22337D01*
X22530Y-22324D01*
X22559Y-22305D01*
X22594Y-22282D01*
X22628Y-22258D01*
X22657Y-22239D01*
X22677Y-22226D01*
X22685Y-22222D01*
X22690Y-22223D01*
X22706Y-22231D01*
X22730Y-22244D01*
X22744Y-22251D01*
X22766Y-22260D01*
X22777Y-22262D01*
X22779Y-22259D01*
X22787Y-22243D01*
X22799Y-22214D01*
X22816Y-22176D01*
X22835Y-22131D01*
X22855Y-22083D01*
X22876Y-22035D01*
X22895Y-21988D01*
X22912Y-21946D01*
X22926Y-21912D01*
X22935Y-21888D01*
X22938Y-21878D01*
X22937Y-21876D01*
X22926Y-21865D01*
X22907Y-21851D01*
X22866Y-21817D01*
X22825Y-21766D01*
X22800Y-21708D01*
X22791Y-21643D01*
X22798Y-21584D01*
X22822Y-21527D01*
X22862Y-21475D01*
X22911Y-21437D01*
X22967Y-21412D01*
X23031Y-21404D01*
X23092Y-21411D01*
X23150Y-21434D01*
X23202Y-21474D01*
X23224Y-21499D01*
X23254Y-21551D01*
X23271Y-21607D01*
X23273Y-21621D01*
X23270Y-21683D01*
X23252Y-21742D01*
X23220Y-21794D01*
X23175Y-21838D01*
X23169Y-21842D01*
X23148Y-21857D01*
X23134Y-21868D01*
X23123Y-21877D01*
X23201Y-22066D01*
X23214Y-22096D01*
X23235Y-22147D01*
X23254Y-22192D01*
X23270Y-22227D01*
X23280Y-22251D01*
X23285Y-22260D01*
X23285Y-22261D01*
X23292Y-22262D01*
X23306Y-22257D01*
X23333Y-22244D01*
X23350Y-22235D01*
X23370Y-22225D01*
X23379Y-22222D01*
X23387Y-22226D01*
X23406Y-22238D01*
X23434Y-22257D01*
X23468Y-22280D01*
X23500Y-22302D01*
X23529Y-22321D01*
X23551Y-22335D01*
X23561Y-22341D01*
X23563Y-22341D01*
X23572Y-22336D01*
X23589Y-22321D01*
X23615Y-22297D01*
X23651Y-22261D01*
X23657Y-22256D01*
X23687Y-22225D01*
X23711Y-22200D01*
X23727Y-22182D01*
X23733Y-22173D01*
X23733Y-22173D01*
X23728Y-22163D01*
X23714Y-22142D01*
X23695Y-22112D01*
X23671Y-22077D01*
X23608Y-21986D01*
X23643Y-21900D01*
X23653Y-21874D01*
X23667Y-21842D01*
X23677Y-21820D01*
X23682Y-21810D01*
X23691Y-21806D01*
X23714Y-21801D01*
X23748Y-21794D01*
X23789Y-21786D01*
X23828Y-21779D01*
X23862Y-21772D01*
X23888Y-21767D01*
X23899Y-21765D01*
X23902Y-21764D01*
X23904Y-21758D01*
X23905Y-21746D01*
X23906Y-21725D01*
X23907Y-21692D01*
X23907Y-21643D01*
X23907Y-21638D01*
X23906Y-21592D01*
X23906Y-21555D01*
X23904Y-21532D01*
X23903Y-21522D01*
X23903Y-21522D01*
X23892Y-21520D01*
X23867Y-21514D01*
X23832Y-21508D01*
X23791Y-21500D01*
X23788Y-21499D01*
X23747Y-21491D01*
X23712Y-21484D01*
X23688Y-21478D01*
X23677Y-21475D01*
X23675Y-21472D01*
X23667Y-21456D01*
X23655Y-21430D01*
X23641Y-21399D01*
X23628Y-21366D01*
X23616Y-21337D01*
X23608Y-21315D01*
X23606Y-21305D01*
X23606Y-21305D01*
X23612Y-21295D01*
X23626Y-21274D01*
X23646Y-21244D01*
X23671Y-21209D01*
X23672Y-21206D01*
X23696Y-21171D01*
X23716Y-21141D01*
X23728Y-21120D01*
X23733Y-21111D01*
X23733Y-21110D01*
X23725Y-21100D01*
X23707Y-21080D01*
X23682Y-21053D01*
X23651Y-21022D01*
X23641Y-21012D01*
X23607Y-20979D01*
X23584Y-20957D01*
X23569Y-20946D01*
X23562Y-20943D01*
X23562Y-20943D01*
X23551Y-20950D01*
X23529Y-20964D01*
X23499Y-20985D01*
X23463Y-21009D01*
X23461Y-21010D01*
X23426Y-21034D01*
X23397Y-21054D01*
X23376Y-21068D01*
X23367Y-21073D01*
X23365Y-21073D01*
X23351Y-21069D01*
X23326Y-21060D01*
X23296Y-21048D01*
X23263Y-21035D01*
X23234Y-21023D01*
X23212Y-21013D01*
X23201Y-21007D01*
X23201Y-21006D01*
X23197Y-20994D01*
X23191Y-20968D01*
X23184Y-20932D01*
X23176Y-20889D01*
X23174Y-20882D01*
X23166Y-20840D01*
X23160Y-20806D01*
X23155Y-20782D01*
X23152Y-20772D01*
X23146Y-20771D01*
X23126Y-20769D01*
X23095Y-20768D01*
X23057Y-20768D01*
X23018Y-20768D01*
X22979Y-20769D01*
X22946Y-20770D01*
X22923Y-20772D01*
X22913Y-20774D01*
X22912Y-20774D01*
X22909Y-20787D01*
X22903Y-20813D01*
X22896Y-20850D01*
X22887Y-20893D01*
X22886Y-20900D01*
X22878Y-20942D01*
X22871Y-20976D01*
X22866Y-21000D01*
X22863Y-21009D01*
X22860Y-21011D01*
X22842Y-21018D01*
X22814Y-21030D01*
X22780Y-21044D01*
X22700Y-21076D01*
X22601Y-21009D01*
X22592Y-21003D01*
X22557Y-20979D01*
X22528Y-20959D01*
X22508Y-20946D01*
X22499Y-20942D01*
X22499Y-20942D01*
X22489Y-20951D01*
X22469Y-20969D01*
X22443Y-20995D01*
X22412Y-21026D01*
X22389Y-21048D01*
X22362Y-21076D01*
X22344Y-21095D01*
X22335Y-21107D01*
X22332Y-21114D01*
X22333Y-21119D01*
X22339Y-21129D01*
X22353Y-21150D01*
X22374Y-21180D01*
X22398Y-21215D01*
X22417Y-21244D01*
X22439Y-21277D01*
X22453Y-21301D01*
X22457Y-21312D01*
X22456Y-21317D01*
X22449Y-21336D01*
X22438Y-21365D01*
X22423Y-21400D01*
X22389Y-21478D01*
X22338Y-21488D01*
X22307Y-21493D01*
X22263Y-21502D01*
X22222Y-21510D01*
X22157Y-21522D01*
X22155Y-21759D01*
X22165Y-21763D01*
X22175Y-21766D01*
X22199Y-21771D01*
X22233Y-21778D01*
X22273Y-21786D01*
X22307Y-21792D01*
X22342Y-21799D01*
X22367Y-21804D01*
X22378Y-21806D01*
X22381Y-21810D01*
X22389Y-21826D01*
X22402Y-21853D01*
X22415Y-21885D01*
X22429Y-21918D01*
X22441Y-21949D01*
X22450Y-21972D01*
X22453Y-21985D01*
X22448Y-21994D01*
X22435Y-22014D01*
X22416Y-22043D01*
X22393Y-22077D01*
X22369Y-22112D01*
X22349Y-22141D01*
X22336Y-22162D01*
X22330Y-22172D01*
X22333Y-22179D01*
X22346Y-22195D01*
X22372Y-22222D01*
X22411Y-22260D01*
X22417Y-22266D01*
X22448Y-22296D01*
X22474Y-22320D01*
X22492Y-22336D01*
X22500Y-22342D01*
X22500Y-22342D01*
G37*
G54D12*
X20225Y-22025D02*
X19625Y-22025D01*
X20225Y-21925D02*
X20225Y-20675D01*
X20225Y-20675D02*
X19625Y-20675D01*
X19625Y-20675D02*
X19625Y-21925D01*
X19625Y-21925D02*
X20225Y-21925D01*
X18560Y-21810D02*
X18860Y-22260D01*
X18685Y-21310D02*
X18685Y-21610D01*
X18285Y-21210D02*
X18585Y-21210D01*
X18185Y-21610D02*
X18185Y-21310D01*
X18585Y-21710D02*
X18285Y-21710D01*
X18685Y-21310D02*
X18684Y-21302D01*
X18683Y-21293D01*
X18681Y-21285D01*
X18678Y-21276D01*
X18675Y-21268D01*
X18671Y-21261D01*
X18666Y-21253D01*
X18661Y-21246D01*
X18655Y-21240D01*
X18649Y-21234D01*
X18642Y-21229D01*
X18635Y-21224D01*
X18627Y-21220D01*
X18619Y-21217D01*
X18610Y-21214D01*
X18602Y-21212D01*
X18593Y-21211D01*
X18585Y-21210D01*
X18285Y-21210D02*
X18277Y-21211D01*
X18268Y-21212D01*
X18260Y-21214D01*
X18251Y-21217D01*
X18243Y-21220D01*
X18236Y-21224D01*
X18228Y-21229D01*
X18221Y-21234D01*
X18215Y-21240D01*
X18209Y-21246D01*
X18204Y-21253D01*
X18199Y-21261D01*
X18195Y-21268D01*
X18192Y-21276D01*
X18189Y-21285D01*
X18187Y-21293D01*
X18186Y-21302D01*
X18185Y-21310D01*
X18585Y-21710D02*
X18593Y-21709D01*
X18602Y-21708D01*
X18610Y-21706D01*
X18619Y-21703D01*
X18627Y-21700D01*
X18635Y-21696D01*
X18642Y-21691D01*
X18649Y-21686D01*
X18655Y-21680D01*
X18661Y-21674D01*
X18666Y-21667D01*
X18671Y-21659D01*
X18675Y-21652D01*
X18678Y-21644D01*
X18681Y-21635D01*
X18683Y-21627D01*
X18684Y-21618D01*
X18685Y-21610D01*
X18185Y-21610D02*
X18186Y-21618D01*
X18187Y-21627D01*
X18189Y-21635D01*
X18192Y-21644D01*
X18195Y-21652D01*
X18199Y-21660D01*
X18204Y-21667D01*
X18209Y-21674D01*
X18215Y-21680D01*
X18221Y-21686D01*
X18228Y-21691D01*
X18235Y-21696D01*
X18243Y-21700D01*
X18251Y-21703D01*
X18260Y-21706D01*
X18268Y-21708D01*
X18277Y-21709D01*
X18285Y-21710D01*
G54D16*
X13489Y-21496D02*
X14314Y-21496D01*
X15299Y-21220D02*
X15299Y-20866D01*
X15299Y-19134D02*
X15299Y-18780D01*
X14314Y-18504D02*
X13489Y-18504D01*
X11678Y-21496D02*
X11678Y-18504D01*
X11678Y-18504D02*
X12229Y-18504D01*
X11678Y-21496D02*
X12229Y-21496D01*
G54D12*
X18000Y-19600D02*
X18000Y-18600D01*
X18000Y-18600D02*
X17400Y-18600D01*
X17400Y-18600D02*
X17400Y-19600D01*
X17400Y-19600D02*
X18000Y-19600D01*
X18600Y-19600D02*
X18600Y-18600D01*
X18600Y-18600D02*
X18000Y-18600D01*
X18000Y-18600D02*
X18000Y-19600D01*
X18000Y-19600D02*
X18600Y-19600D01*
X17150Y-22255D02*
X17500Y-22255D01*
X17150Y-22255D02*
X17150Y-22130D01*
X17500Y-21555D02*
X17150Y-21555D01*
X17150Y-21555D02*
X17150Y-21680D01*
X17650Y-21955D02*
X17650Y-21855D01*
X17550Y-19650D02*
X17550Y-21150D01*
X17550Y-21150D02*
X18650Y-21150D01*
X18650Y-21150D02*
X18650Y-19650D01*
X18650Y-19650D02*
X17550Y-19650D01*
X23760Y-18815D02*
X24760Y-18815D01*
X24760Y-18815D02*
X24760Y-18215D01*
X24760Y-18215D02*
X23760Y-18215D01*
X23760Y-18215D02*
X23760Y-18815D01*
X17450Y-21425D02*
X17450Y-20175D01*
X17450Y-20175D02*
X16750Y-20175D01*
X16750Y-20175D02*
X16750Y-21425D01*
X16750Y-21425D02*
X17450Y-21425D01*
X23514Y-20630D02*
X23485Y-20630D01*
X23514Y-18780D02*
X23485Y-18780D01*
X22826Y-18780D02*
X22855Y-18780D01*
X22727Y-18878D02*
X22727Y-20532D01*
X23613Y-20532D02*
X23613Y-18878D01*
X22826Y-18780D02*
X22818Y-18781D01*
X22809Y-18782D01*
X22801Y-18784D01*
X22793Y-18786D01*
X22785Y-18790D01*
X22778Y-18794D01*
X22770Y-18798D01*
X22764Y-18803D01*
X22757Y-18809D01*
X22751Y-18816D01*
X22746Y-18822D01*
X22742Y-18830D01*
X22738Y-18837D01*
X22734Y-18845D01*
X22732Y-18853D01*
X22730Y-18861D01*
X22729Y-18870D01*
X22728Y-18878D01*
X22727Y-20532D02*
X22728Y-20540D01*
X22729Y-20549D01*
X22731Y-20557D01*
X22733Y-20565D01*
X22737Y-20573D01*
X22741Y-20581D01*
X22745Y-20588D01*
X22751Y-20595D01*
X22756Y-20602D01*
X22763Y-20607D01*
X22770Y-20613D01*
X22777Y-20617D01*
X22785Y-20621D01*
X22793Y-20625D01*
X22801Y-20627D01*
X22809Y-20629D01*
X22818Y-20630D01*
X22826Y-20631D01*
X23613Y-18878D02*
X23612Y-18870D01*
X23611Y-18861D01*
X23609Y-18853D01*
X23607Y-18845D01*
X23603Y-18837D01*
X23599Y-18829D01*
X23595Y-18822D01*
X23589Y-18815D01*
X23584Y-18808D01*
X23577Y-18803D01*
X23570Y-18797D01*
X23563Y-18793D01*
X23555Y-18789D01*
X23547Y-18785D01*
X23539Y-18783D01*
X23531Y-18781D01*
X23522Y-18780D01*
X23514Y-18779D01*
X23514Y-20630D02*
X23522Y-20629D01*
X23531Y-20628D01*
X23539Y-20626D01*
X23547Y-20624D01*
X23555Y-20620D01*
X23563Y-20616D01*
X23570Y-20612D01*
X23576Y-20607D01*
X23583Y-20601D01*
X23589Y-20594D01*
X23594Y-20588D01*
X23598Y-20580D01*
X23602Y-20573D01*
X23606Y-20565D01*
X23608Y-20557D01*
X23610Y-20549D01*
X23611Y-20540D01*
X23612Y-20532D01*
X25064Y-21406D02*
X25064Y-20406D01*
X25064Y-20406D02*
X24464Y-20406D01*
X24464Y-20406D02*
X24464Y-21406D01*
X24464Y-21406D02*
X25064Y-21406D01*
X19500Y-22025D02*
X18900Y-22025D01*
X19500Y-21925D02*
X19500Y-20675D01*
X19500Y-20675D02*
X18900Y-20675D01*
X18900Y-20675D02*
X18900Y-21925D01*
X18900Y-21925D02*
X19500Y-21925D01*
X27139Y-17480D02*
X27139Y-17699D01*
X27274Y-17564D01*
X27274Y-17614D01*
X27291Y-17646D01*
X27308Y-17660D01*
X27342Y-17673D01*
X27426Y-17663D01*
X27460Y-17641D01*
X27476Y-17622D01*
X27493Y-17586D01*
X27493Y-17485D01*
X27476Y-17453D01*
X27460Y-17439D01*
X27460Y-17809D02*
X27476Y-17824D01*
X27493Y-17805D01*
X27476Y-17790D01*
X27460Y-17809D01*
X27493Y-17805D01*
X27139Y-17986D02*
X27139Y-18205D01*
X27274Y-18070D01*
X27274Y-18120D01*
X27291Y-18152D01*
X27308Y-18166D01*
X27342Y-18179D01*
X27426Y-18169D01*
X27460Y-18147D01*
X27476Y-18128D01*
X27493Y-18092D01*
X27493Y-17991D01*
X27476Y-17959D01*
X27460Y-17945D01*
X27139Y-18306D02*
X27493Y-18379D01*
X27139Y-18542D01*
X27156Y-18905D02*
X27139Y-18874D01*
X27139Y-18823D01*
X27156Y-18770D01*
X27190Y-18732D01*
X27224Y-18711D01*
X27291Y-18686D01*
X27342Y-18679D01*
X27409Y-18688D01*
X27443Y-18701D01*
X27476Y-18730D01*
X27493Y-18778D01*
X27493Y-18812D01*
X27476Y-18865D01*
X27460Y-18884D01*
X27342Y-18899D01*
X27342Y-18831D01*
X27493Y-19031D02*
X27139Y-19076D01*
X27493Y-19234D01*
X27139Y-19279D01*
X27493Y-19402D02*
X27139Y-19447D01*
X27139Y-19532D01*
X27156Y-19579D01*
X27190Y-19609D01*
X27224Y-19622D01*
X27291Y-19631D01*
X27342Y-19624D01*
X27409Y-19599D01*
X27443Y-19578D01*
X27476Y-19539D01*
X27493Y-19487D01*
X27493Y-19402D01*
X27510Y-19881D02*
X27526Y-19896D01*
X27543Y-19877D01*
X27526Y-19862D01*
X27510Y-19881D01*
X27543Y-19877D01*
X27510Y-20050D02*
X27526Y-20065D01*
X27543Y-20046D01*
X27526Y-20031D01*
X27510Y-20050D01*
X27543Y-20046D01*
X27543Y-20215D02*
X27189Y-20260D01*
X27189Y-20497D02*
X27189Y-20564D01*
X27206Y-20595D01*
X27240Y-20625D01*
X27307Y-20633D01*
X27425Y-20618D01*
X27493Y-20594D01*
X27526Y-20555D01*
X27543Y-20519D01*
X27543Y-20452D01*
X27526Y-20420D01*
X27493Y-20391D01*
X27425Y-20382D01*
X27307Y-20397D01*
X27240Y-20422D01*
X27206Y-20460D01*
X27189Y-20497D01*
X27524Y-21886D02*
X27475Y-21903D01*
X27391Y-21903D01*
X27355Y-21886D01*
X27336Y-21870D01*
X27314Y-21836D01*
X27310Y-21802D01*
X27323Y-21768D01*
X27338Y-21752D01*
X27370Y-21735D01*
X27435Y-21718D01*
X27466Y-21701D01*
X27481Y-21684D01*
X27494Y-21650D01*
X27490Y-21617D01*
X27469Y-21583D01*
X27450Y-21566D01*
X27413Y-21549D01*
X27329Y-21549D01*
X27281Y-21566D01*
X27160Y-21549D02*
X27121Y-21903D01*
X27022Y-21650D01*
X26986Y-21903D01*
X26857Y-21549D01*
X26767Y-21903D02*
X26722Y-21549D01*
X26637Y-21549D01*
X26590Y-21566D01*
X26560Y-21600D01*
X26547Y-21634D01*
X26538Y-21701D01*
X26545Y-21752D01*
X26570Y-21819D01*
X26591Y-21853D01*
X26630Y-21886D01*
X26682Y-21903D01*
X26767Y-21903D01*
X26409Y-21870D02*
X26394Y-21886D01*
X26413Y-21903D01*
X26428Y-21886D01*
X26409Y-21870D01*
X26413Y-21903D01*
X26240Y-21870D02*
X26225Y-21886D01*
X26244Y-21903D01*
X26259Y-21886D01*
X26240Y-21870D01*
X26244Y-21903D01*
X25868Y-21870D02*
X25887Y-21886D01*
X25940Y-21903D01*
X25974Y-21903D01*
X26022Y-21886D01*
X26051Y-21853D01*
X26064Y-21819D01*
X26073Y-21752D01*
X26066Y-21701D01*
X26041Y-21634D01*
X26020Y-21600D01*
X25982Y-21566D01*
X25929Y-21549D01*
X25895Y-21549D01*
X25847Y-21566D01*
X25832Y-21583D01*
X25721Y-21903D02*
X25676Y-21549D01*
X25518Y-21903D02*
X25644Y-21701D01*
X25473Y-21549D02*
X25702Y-21752D01*
X27527Y-22493D02*
X27482Y-22139D01*
X27324Y-22493D01*
X27279Y-22139D01*
X26953Y-22493D02*
X27050Y-22325D01*
X27156Y-22493D02*
X27111Y-22139D01*
X26976Y-22139D01*
X26945Y-22156D01*
X26930Y-22173D01*
X26917Y-22207D01*
X26923Y-22257D01*
X26944Y-22291D01*
X26964Y-22308D01*
X27000Y-22325D01*
X27135Y-22325D01*
X26817Y-22476D02*
X26768Y-22493D01*
X26684Y-22493D01*
X26648Y-22476D01*
X26629Y-22460D01*
X26607Y-22426D01*
X26603Y-22392D01*
X26616Y-22358D01*
X26631Y-22342D01*
X26663Y-22325D01*
X26728Y-22308D01*
X26759Y-22291D01*
X26774Y-22274D01*
X26787Y-22240D01*
X26783Y-22207D01*
X26762Y-22173D01*
X26743Y-22156D01*
X26706Y-22139D01*
X26622Y-22139D01*
X26574Y-22156D01*
X26470Y-22139D02*
X26268Y-22139D01*
X26414Y-22493D02*
X26369Y-22139D01*
X24710Y-19415D02*
X24997Y-19415D01*
X25031Y-19432D01*
X25047Y-19449D01*
X25064Y-19483D01*
X25064Y-19550D01*
X25047Y-19584D01*
X25031Y-19601D01*
X24997Y-19618D01*
X24710Y-19618D01*
X24744Y-19769D02*
X24727Y-19786D01*
X24710Y-19820D01*
X24710Y-19904D01*
X24727Y-19938D01*
X24744Y-19955D01*
X24778Y-19972D01*
X24811Y-19972D01*
X24862Y-19955D01*
X25064Y-19753D01*
X25064Y-19972D01*
X20211Y-20593D02*
X20211Y-20239D01*
X20126Y-20239D01*
X20076Y-20256D01*
X20042Y-20290D01*
X20025Y-20324D01*
X20008Y-20391D01*
X20008Y-20442D01*
X20025Y-20509D01*
X20042Y-20543D01*
X20076Y-20576D01*
X20126Y-20593D01*
X20211Y-20593D01*
X19890Y-20239D02*
X19671Y-20239D01*
X19789Y-20374D01*
X19739Y-20374D01*
X19705Y-20391D01*
X19688Y-20408D01*
X19671Y-20442D01*
X19671Y-20526D01*
X19688Y-20560D01*
X19705Y-20576D01*
X19739Y-20593D01*
X19840Y-20593D01*
X19874Y-20576D01*
X19890Y-20560D01*
X21429Y-22435D02*
X21446Y-22451D01*
X21497Y-22468D01*
X21531Y-22468D01*
X21581Y-22451D01*
X21615Y-22418D01*
X21632Y-22384D01*
X21649Y-22317D01*
X21649Y-22266D01*
X21632Y-22199D01*
X21615Y-22165D01*
X21581Y-22131D01*
X21531Y-22114D01*
X21497Y-22114D01*
X21446Y-22131D01*
X21429Y-22148D01*
X21278Y-22468D02*
X21278Y-22114D01*
X21278Y-22283D02*
X21075Y-22283D01*
X21075Y-22468D02*
X21075Y-22114D01*
X20704Y-22468D02*
X20822Y-22300D01*
X20907Y-22468D02*
X20907Y-22114D01*
X20772Y-22114D01*
X20738Y-22131D01*
X20721Y-22148D01*
X20704Y-22182D01*
X20704Y-22232D01*
X20721Y-22266D01*
X20738Y-22283D01*
X20772Y-22300D01*
X20907Y-22300D01*
X20367Y-22131D02*
X20401Y-22114D01*
X20452Y-22114D01*
X20502Y-22131D01*
X20536Y-22165D01*
X20553Y-22199D01*
X20570Y-22266D01*
X20570Y-22317D01*
X20553Y-22384D01*
X20536Y-22418D01*
X20502Y-22451D01*
X20452Y-22468D01*
X20418Y-22468D01*
X20367Y-22451D01*
X20350Y-22435D01*
X20350Y-22317D01*
X20418Y-22317D01*
X20283Y-22502D02*
X20013Y-22502D01*
X19946Y-22451D02*
X19895Y-22468D01*
X19811Y-22468D01*
X19777Y-22451D01*
X19760Y-22435D01*
X19743Y-22401D01*
X19743Y-22367D01*
X19760Y-22333D01*
X19777Y-22317D01*
X19811Y-22300D01*
X19878Y-22283D01*
X19912Y-22266D01*
X19929Y-22249D01*
X19946Y-22215D01*
X19946Y-22182D01*
X19929Y-22148D01*
X19912Y-22131D01*
X19878Y-22114D01*
X19794Y-22114D01*
X19743Y-22131D01*
X19642Y-22114D02*
X19440Y-22114D01*
X19541Y-22468D02*
X19541Y-22114D01*
X19339Y-22367D02*
X19170Y-22367D01*
X19372Y-22468D02*
X19254Y-22114D01*
X19136Y-22468D01*
X19069Y-22114D02*
X18867Y-22114D01*
X18968Y-22468D02*
X18968Y-22114D01*
X17733Y-18493D02*
X17851Y-18325D01*
X17936Y-18493D02*
X17936Y-18139D01*
X17801Y-18139D01*
X17767Y-18156D01*
X17750Y-18173D01*
X17733Y-18207D01*
X17733Y-18257D01*
X17750Y-18291D01*
X17767Y-18308D01*
X17801Y-18325D01*
X17936Y-18325D01*
X17413Y-18139D02*
X17582Y-18139D01*
X17599Y-18308D01*
X17582Y-18291D01*
X17548Y-18274D01*
X17464Y-18274D01*
X17430Y-18291D01*
X17413Y-18308D01*
X17396Y-18342D01*
X17396Y-18426D01*
X17413Y-18460D01*
X17430Y-18476D01*
X17464Y-18493D01*
X17548Y-18493D01*
X17582Y-18476D01*
X17599Y-18460D01*
X18383Y-18493D02*
X18501Y-18325D01*
X18586Y-18493D02*
X18586Y-18139D01*
X18451Y-18139D01*
X18417Y-18156D01*
X18400Y-18173D01*
X18383Y-18207D01*
X18383Y-18257D01*
X18400Y-18291D01*
X18417Y-18308D01*
X18451Y-18325D01*
X18586Y-18325D01*
X18080Y-18139D02*
X18147Y-18139D01*
X18181Y-18156D01*
X18198Y-18173D01*
X18232Y-18224D01*
X18249Y-18291D01*
X18249Y-18426D01*
X18232Y-18460D01*
X18215Y-18476D01*
X18181Y-18493D01*
X18114Y-18493D01*
X18080Y-18476D01*
X18063Y-18460D01*
X18046Y-18426D01*
X18046Y-18342D01*
X18063Y-18308D01*
X18080Y-18291D01*
X18114Y-18274D01*
X18181Y-18274D01*
X18215Y-18291D01*
X18232Y-18308D01*
X18249Y-18342D01*
X18284Y-22477D02*
X18317Y-22460D01*
X18351Y-22426D01*
X18402Y-22376D01*
X18435Y-22359D01*
X18469Y-22359D01*
X18452Y-22443D02*
X18486Y-22426D01*
X18520Y-22393D01*
X18537Y-22325D01*
X18537Y-22207D01*
X18520Y-22140D01*
X18486Y-22106D01*
X18452Y-22089D01*
X18385Y-22089D01*
X18351Y-22106D01*
X18317Y-22140D01*
X18301Y-22207D01*
X18301Y-22325D01*
X18317Y-22393D01*
X18351Y-22426D01*
X18385Y-22443D01*
X18452Y-22443D01*
X17963Y-22443D02*
X18166Y-22443D01*
X18064Y-22443D02*
X18064Y-22089D01*
X18098Y-22140D01*
X18132Y-22174D01*
X18166Y-22190D01*
X19320Y-19689D02*
X19320Y-19976D01*
X19303Y-20010D01*
X19286Y-20026D01*
X19252Y-20043D01*
X19185Y-20043D01*
X19151Y-20026D01*
X19134Y-20010D01*
X19117Y-19976D01*
X19117Y-19689D01*
X18982Y-19689D02*
X18763Y-19689D01*
X18881Y-19824D01*
X18831Y-19824D01*
X18797Y-19841D01*
X18780Y-19858D01*
X18763Y-19892D01*
X18763Y-19976D01*
X18780Y-20010D01*
X18797Y-20026D01*
X18831Y-20043D01*
X18932Y-20043D01*
X18966Y-20026D01*
X18982Y-20010D01*
X24559Y-18093D02*
X24728Y-18093D01*
X24728Y-17739D01*
X24255Y-18093D02*
X24458Y-18093D01*
X24356Y-18093D02*
X24356Y-17739D01*
X24390Y-17790D01*
X24424Y-17824D01*
X24458Y-17840D01*
X17158Y-20035D02*
X17175Y-20051D01*
X17226Y-20068D01*
X17260Y-20068D01*
X17310Y-20051D01*
X17344Y-20018D01*
X17361Y-19984D01*
X17378Y-19917D01*
X17378Y-19866D01*
X17361Y-19799D01*
X17344Y-19765D01*
X17310Y-19731D01*
X17260Y-19714D01*
X17226Y-19714D01*
X17175Y-19731D01*
X17158Y-19748D01*
X16990Y-20068D02*
X16922Y-20068D01*
X16889Y-20051D01*
X16872Y-20035D01*
X16838Y-19984D01*
X16821Y-19917D01*
X16821Y-19782D01*
X16838Y-19748D01*
X16855Y-19731D01*
X16889Y-19714D01*
X16956Y-19714D01*
X16990Y-19731D01*
X17007Y-19748D01*
X17024Y-19782D01*
X17024Y-19866D01*
X17007Y-19900D01*
X16990Y-19917D01*
X16956Y-19933D01*
X16889Y-19933D01*
X16855Y-19917D01*
X16838Y-19900D01*
X16821Y-19866D01*
X24362Y-20285D02*
X24378Y-20268D01*
X24395Y-20217D01*
X24395Y-20183D01*
X24378Y-20133D01*
X24345Y-20099D01*
X24311Y-20082D01*
X24244Y-20065D01*
X24193Y-20065D01*
X24126Y-20082D01*
X24092Y-20099D01*
X24058Y-20133D01*
X24041Y-20183D01*
X24041Y-20217D01*
X24058Y-20268D01*
X24075Y-20285D01*
X24395Y-20622D02*
X24395Y-20419D01*
X24395Y-20521D02*
X24041Y-20521D01*
X24092Y-20487D01*
X24126Y-20453D01*
X24142Y-20419D01*
X24041Y-20841D02*
X24041Y-20874D01*
X24058Y-20908D01*
X24075Y-20925D01*
X24109Y-20942D01*
X24176Y-20959D01*
X24260Y-20959D01*
X24328Y-20942D01*
X24362Y-20925D01*
X24378Y-20908D01*
X24395Y-20874D01*
X24395Y-20841D01*
X24378Y-20807D01*
X24362Y-20790D01*
X24328Y-20773D01*
X24260Y-20756D01*
X24176Y-20756D01*
X24109Y-20773D01*
X24075Y-20790D01*
X24058Y-20807D01*
X24041Y-20841D01*
X19461Y-20593D02*
X19461Y-20239D01*
X19376Y-20239D01*
X19326Y-20256D01*
X19292Y-20290D01*
X19275Y-20324D01*
X19258Y-20391D01*
X19258Y-20442D01*
X19275Y-20509D01*
X19292Y-20543D01*
X19326Y-20576D01*
X19376Y-20593D01*
X19461Y-20593D01*
X19124Y-20273D02*
X19107Y-20256D01*
X19073Y-20239D01*
X18989Y-20239D01*
X18955Y-20256D01*
X18938Y-20273D01*
X18921Y-20307D01*
X18921Y-20340D01*
X18938Y-20391D01*
X19140Y-20593D01*
X18921Y-20593D01*
%LPC*%
G54D17*
X28050Y-18000D03*
X27950Y-19000D03*
X28050Y-20000D03*
X27950Y-21000D03*
X28050Y-22000D03*
G54D18*
X25379Y-18837D03*
X25879Y-18837D03*
X26379Y-18837D03*
X26879Y-18837D03*
X26879Y-20963D03*
X26379Y-20963D03*
X25879Y-20963D03*
X25379Y-20963D03*
G54D19*
X25379Y-18026D03*
X25879Y-18026D03*
X26379Y-18026D03*
X26879Y-18026D03*
G54D20*
X19925Y-21654D03*
X19925Y-20946D03*
X19925Y-21300D03*
G54D17*
X16000Y-16950D03*
X17000Y-17050D03*
X18000Y-16950D03*
X19000Y-17050D03*
X20000Y-16950D03*
X21000Y-17050D03*
X22000Y-16950D03*
X23000Y-17050D03*
X24000Y-16950D03*
X25000Y-17050D03*
X26000Y-16950D03*
X27000Y-17050D03*
X28000Y-16950D03*
X29000Y-17050D03*
X16000Y-22950D03*
X17000Y-23050D03*
X18000Y-22992D03*
X19000Y-23050D03*
X20000Y-22950D03*
X21000Y-23050D03*
X22000Y-23050D03*
X23000Y-23050D03*
X24000Y-22950D03*
X25000Y-23050D03*
X26000Y-22950D03*
X27000Y-23050D03*
X28000Y-23050D03*
X29000Y-23050D03*
X29050Y-18000D03*
X28950Y-19000D03*
X29050Y-20000D03*
X28950Y-21000D03*
X29050Y-22000D03*
G54D21*
X18435Y-21460D03*
G54D22*
X16000Y-21000D03*
G54D17*
X16000Y-20000D03*
X16000Y-19000D03*
X16000Y-18000D03*
X16000Y-22000D03*
G54D23*
X14984Y-20000D03*
X14984Y-20314D03*
X14984Y-19371D03*
X14984Y-19686D03*
G54D24*
X12819Y-21771D03*
X14984Y-21771D03*
X12819Y-18229D03*
X14984Y-18229D03*
G54D23*
X14984Y-20629D03*
G54D25*
X14000Y-20866D03*
X14000Y-19134D03*
G54D26*
X17700Y-19400D03*
X17700Y-18800D03*
X18300Y-19400D03*
X18300Y-18800D03*
G54D27*
X17774Y-22161D03*
X17774Y-21649D03*
X17026Y-21905D03*
G54D28*
X18475Y-20900D03*
X17725Y-20900D03*
X18475Y-19900D03*
X18100Y-20900D03*
X17725Y-19900D03*
G54D29*
X23960Y-18515D03*
X24560Y-18515D03*
G54D30*
X24260Y-18515D03*
G54D31*
X17100Y-21175D03*
X17100Y-20425D03*
G54D32*
X23170Y-20335D03*
X23170Y-19705D03*
X23170Y-19075D03*
G54D33*
X23170Y-19705D03*
G54D26*
X24764Y-21206D03*
X24764Y-20606D03*
G54D20*
X19200Y-21654D03*
X19200Y-20946D03*
X19200Y-21300D03*
M02*
