G04 (created by PCBNEW-RS274X (2012-03-22 BZR 3475)-stable) date Thu Sep  6 12:47:49 2012*
G01*
G70*
G90*
%MOIN*%
G04 Gerber Fmt 3.4, Leading zero omitted, Abs format*
%FSLAX34Y34*%
G04 APERTURE LIST*
%ADD10C,0.006000*%
%ADD11C,0.005900*%
%ADD12C,0.003900*%
%ADD13R,0.078700X0.015700*%
%ADD14R,0.074800X0.082700*%
%ADD15R,0.063000X0.082700*%
%ADD16R,0.074800X0.074800*%
%ADD17C,0.074000*%
%ADD18R,0.025000X0.025000*%
%ADD19R,0.063000X0.024000*%
%ADD20R,0.058300X0.023000*%
%ADD21R,0.039400X0.045000*%
%ADD22R,0.045000X0.025000*%
%ADD23R,0.055000X0.035000*%
%ADD24R,0.045000X0.039400*%
%ADD25R,0.030000X0.030000*%
%ADD26R,0.035000X0.055000*%
%ADD27R,0.025600X0.039400*%
%ADD28R,0.039400X0.025600*%
%ADD29R,0.098400X0.039300*%
%ADD30C,0.021700*%
%ADD31C,0.011800*%
G04 APERTURE END LIST*
G54D10*
G54D11*
X13923Y-17847D02*
X13906Y-17864D01*
X13889Y-17898D01*
X13889Y-17982D01*
X13906Y-18016D01*
X13923Y-18033D01*
X13957Y-18050D01*
X13990Y-18050D01*
X14041Y-18033D01*
X14243Y-17831D01*
X14243Y-18050D01*
X14226Y-18353D02*
X14243Y-18319D01*
X14243Y-18252D01*
X14226Y-18218D01*
X14210Y-18201D01*
X14176Y-18184D01*
X14075Y-18184D01*
X14041Y-18201D01*
X14024Y-18218D01*
X14007Y-18252D01*
X14007Y-18319D01*
X14024Y-18353D01*
X14243Y-21842D02*
X14075Y-21724D01*
X14243Y-21639D02*
X13889Y-21639D01*
X13889Y-21774D01*
X13906Y-21808D01*
X13923Y-21825D01*
X13957Y-21842D01*
X14007Y-21842D01*
X14041Y-21825D01*
X14058Y-21808D01*
X14075Y-21774D01*
X14075Y-21639D01*
X14007Y-22145D02*
X14243Y-22145D01*
X13872Y-22061D02*
X14125Y-21976D01*
X14125Y-22196D01*
G54D12*
X15300Y-17630D02*
X15300Y-16300D01*
X15300Y-22374D02*
X15300Y-23700D01*
X29700Y-23700D02*
X15300Y-23700D01*
X29700Y-16300D02*
X29700Y-23700D01*
X15300Y-16300D02*
X29700Y-16300D01*
X10039Y-17630D02*
X15300Y-17630D01*
X10039Y-22374D02*
X15300Y-22374D01*
X10039Y-17630D02*
X10039Y-22374D01*
G54D11*
X24000Y-20775D02*
X24000Y-20225D01*
X17100Y-21397D02*
X17100Y-21003D01*
X26800Y-21503D02*
X26800Y-21897D01*
X19400Y-20797D02*
X19400Y-20403D01*
G54D13*
X11771Y-20000D03*
X11771Y-20255D03*
X11771Y-19489D03*
G54D14*
X10610Y-21516D03*
X10610Y-18484D03*
G54D13*
X11771Y-19745D03*
X11771Y-20511D03*
G54D15*
X11614Y-21220D03*
X11614Y-18780D03*
G54D16*
X10610Y-20472D03*
X10610Y-19528D03*
G54D17*
X28050Y-18000D03*
X27950Y-19000D03*
X28050Y-20000D03*
X27950Y-21000D03*
X28050Y-22000D03*
X29050Y-18000D03*
X28950Y-19000D03*
X29050Y-20000D03*
X28950Y-21000D03*
X29050Y-22000D03*
X16000Y-17050D03*
X17000Y-16950D03*
X18000Y-17050D03*
X19000Y-16950D03*
X20000Y-17050D03*
X21000Y-16950D03*
X22000Y-17050D03*
X23000Y-16950D03*
X24000Y-17050D03*
X25000Y-16950D03*
X26000Y-17050D03*
X27000Y-16950D03*
X28000Y-17050D03*
X29000Y-16950D03*
X16000Y-23050D03*
X17000Y-22950D03*
X18000Y-23050D03*
X19000Y-22950D03*
X20000Y-23050D03*
X21000Y-22950D03*
X22000Y-23050D03*
X23000Y-22950D03*
X24000Y-23050D03*
X25000Y-22950D03*
X26000Y-23050D03*
X27000Y-22950D03*
X28000Y-23050D03*
X29000Y-22950D03*
G54D18*
X14683Y-19890D03*
X15037Y-19890D03*
X14683Y-20690D03*
X15037Y-20690D03*
G54D19*
X20437Y-19350D03*
X20437Y-18850D03*
X20437Y-18350D03*
X20437Y-17850D03*
X22563Y-17850D03*
X22563Y-18350D03*
X22563Y-18850D03*
X22563Y-19350D03*
G54D20*
X19626Y-19350D03*
X19626Y-18850D03*
X19626Y-18350D03*
X19626Y-17850D03*
G54D21*
X18554Y-18000D03*
X17846Y-18000D03*
G54D22*
X18600Y-19890D03*
X18600Y-20490D03*
G54D23*
X17100Y-17925D03*
X17100Y-18675D03*
G54D22*
X23400Y-19300D03*
X23400Y-18700D03*
G54D24*
X24000Y-20854D03*
X24000Y-20146D03*
G54D18*
X14683Y-20290D03*
X15037Y-20290D03*
G54D17*
X15950Y-22000D03*
X16050Y-21000D03*
X15950Y-20000D03*
X16015Y-18960D03*
X15985Y-18040D03*
G54D25*
X17100Y-20100D03*
G54D26*
X25725Y-18300D03*
X26475Y-18300D03*
G54D23*
X24700Y-19975D03*
X24700Y-19225D03*
G54D25*
X17100Y-19500D03*
G54D18*
X25300Y-19623D03*
X25300Y-19977D03*
G54D27*
X25725Y-19000D03*
X26475Y-19000D03*
X25725Y-20000D03*
X26100Y-19000D03*
X26475Y-20000D03*
G54D28*
X17800Y-19375D03*
X17800Y-18625D03*
X18800Y-19375D03*
X17800Y-19000D03*
X18800Y-18625D03*
G54D22*
X17100Y-20900D03*
X17100Y-21500D03*
G54D26*
X26450Y-20700D03*
X25700Y-20700D03*
X24950Y-20700D03*
G54D22*
X18000Y-22000D03*
X18000Y-21400D03*
X26800Y-22000D03*
X26800Y-21400D03*
X19400Y-20300D03*
X19400Y-20900D03*
X18600Y-20890D03*
X18600Y-21490D03*
G54D29*
X19400Y-22320D03*
X19400Y-21320D03*
G54D30*
X20970Y-19010D03*
X21660Y-21760D03*
X18970Y-21760D03*
X19050Y-20440D03*
X18390Y-18630D03*
X21490Y-21000D03*
X17981Y-20130D03*
X19310Y-20000D03*
X21410Y-22090D03*
X27320Y-19090D03*
X20020Y-19150D03*
X20010Y-18700D03*
X23910Y-21890D03*
X20340Y-21100D03*
X27530Y-22150D03*
X24160Y-22010D03*
X20800Y-21220D03*
X23660Y-21760D03*
X21200Y-21040D03*
X17250Y-20660D03*
X19130Y-19780D03*
X16610Y-17630D03*
X19030Y-20720D03*
X23410Y-20420D03*
X22450Y-20900D03*
X19570Y-21260D03*
X19420Y-22080D03*
X17570Y-22430D03*
X27490Y-19720D03*
X18340Y-21270D03*
X19910Y-20540D03*
X21840Y-18460D03*
X16500Y-21490D03*
G54D31*
X21090Y-19411D02*
X22563Y-19411D01*
X26810Y-22240D02*
X27270Y-22240D01*
X22800Y-22240D02*
X26810Y-22240D01*
G54D10*
X20970Y-18590D02*
X20970Y-19010D01*
X20437Y-18350D02*
X20730Y-18350D01*
G54D31*
X18090Y-20360D02*
X18210Y-20240D01*
X19400Y-20300D02*
X19190Y-20300D01*
X20970Y-19010D02*
X20970Y-19291D01*
X17570Y-20740D02*
X17570Y-21750D01*
X21660Y-21760D02*
X22320Y-21760D01*
X20970Y-19291D02*
X21090Y-19411D01*
X18210Y-19720D02*
X18299Y-19631D01*
X18960Y-21750D02*
X18970Y-21760D01*
G54D10*
X20437Y-18350D02*
X19626Y-18350D01*
G54D31*
X17100Y-21500D02*
X17350Y-21750D01*
X17570Y-21750D02*
X18960Y-21750D01*
X18970Y-21760D02*
X21660Y-21760D01*
X18390Y-18630D02*
X18299Y-18721D01*
X28540Y-22490D02*
X27520Y-22490D01*
X28540Y-22490D02*
X29000Y-22950D01*
X26810Y-22230D02*
X26810Y-22240D01*
G54D10*
X20730Y-18350D02*
X20970Y-18590D01*
X22563Y-19350D02*
X22563Y-18850D01*
G54D31*
X22563Y-19411D02*
X22563Y-19350D01*
X19190Y-20300D02*
X19050Y-20440D01*
X26800Y-22240D02*
X26810Y-22230D01*
X22563Y-19350D02*
X22613Y-19300D01*
X18299Y-19631D02*
X18299Y-18721D01*
X17570Y-20740D02*
X17950Y-20360D01*
X17950Y-20360D02*
X18090Y-20360D01*
X22320Y-21760D02*
X22800Y-22240D01*
X17350Y-21750D02*
X17570Y-21750D01*
X18210Y-20240D02*
X18210Y-19720D01*
X26800Y-22000D02*
X26800Y-22240D01*
X27520Y-22490D02*
X27270Y-22240D01*
X22613Y-19300D02*
X23400Y-19300D01*
X24010Y-21530D02*
X24541Y-22061D01*
X26349Y-22061D02*
X26450Y-21960D01*
X26750Y-21060D02*
X26750Y-21350D01*
X26750Y-21350D02*
X26800Y-21400D01*
X26909Y-20331D02*
X26909Y-19581D01*
X24541Y-22061D02*
X26349Y-22061D01*
X26450Y-21960D02*
X26450Y-21460D01*
X27088Y-18722D02*
X27310Y-18500D01*
X22621Y-21285D02*
X22866Y-21530D01*
X26909Y-19581D02*
X27088Y-19402D01*
X27088Y-19402D02*
X27088Y-18722D01*
X29050Y-18000D02*
X28550Y-18500D01*
X26750Y-20490D02*
X26750Y-21060D01*
X28550Y-18500D02*
X27310Y-18500D01*
X26750Y-20490D02*
X26909Y-20331D01*
X26510Y-21400D02*
X26800Y-21400D01*
X22501Y-21165D02*
X22621Y-21285D01*
X26450Y-21460D02*
X26510Y-21400D01*
X21655Y-21165D02*
X22501Y-21165D01*
X26750Y-21060D02*
X26750Y-21030D01*
X22866Y-21530D02*
X24010Y-21530D01*
X21490Y-21000D02*
X21655Y-21165D01*
X19310Y-20000D02*
X19362Y-19948D01*
X18800Y-18625D02*
X18795Y-18630D01*
X18554Y-18000D02*
X18554Y-18174D01*
X18800Y-18420D02*
X18800Y-18625D01*
X18120Y-18340D02*
X18170Y-18290D01*
X15950Y-21603D02*
X15950Y-22000D01*
X18554Y-18174D02*
X18800Y-18420D01*
X18170Y-18290D02*
X18170Y-18100D01*
X18170Y-18100D02*
X18270Y-18000D01*
X18120Y-19550D02*
X17981Y-19689D01*
X19362Y-19948D02*
X23802Y-19948D01*
X18120Y-19550D02*
X18120Y-18340D01*
X17981Y-20130D02*
X17981Y-19689D01*
X18270Y-18000D02*
X18554Y-18000D01*
X15037Y-20690D02*
X15950Y-21603D01*
X23802Y-19948D02*
X24000Y-20146D01*
G54D10*
X18000Y-23050D02*
X18000Y-22000D01*
X21000Y-22500D02*
X21000Y-22950D01*
X21410Y-22090D02*
X21000Y-22500D01*
X27239Y-19171D02*
X27320Y-19090D01*
X27950Y-21000D02*
X27239Y-20289D01*
X27580Y-20630D02*
X27950Y-21000D01*
X27239Y-20289D02*
X27239Y-19171D01*
X20020Y-19350D02*
X20437Y-19350D01*
X19626Y-19350D02*
X20020Y-19350D01*
X20020Y-19340D02*
X20020Y-19350D01*
X20020Y-19150D02*
X20020Y-19350D01*
X19626Y-18850D02*
X20020Y-18850D01*
X20020Y-18710D02*
X20020Y-18850D01*
X20020Y-18850D02*
X20437Y-18850D01*
X20010Y-18700D02*
X20020Y-18710D01*
X21900Y-17850D02*
X21000Y-16950D01*
X22563Y-17850D02*
X21900Y-17850D01*
X22970Y-17690D02*
X22970Y-18020D01*
X22000Y-16950D02*
X22230Y-16950D01*
X22230Y-16950D02*
X22970Y-17690D01*
X22640Y-18350D02*
X22563Y-18350D01*
X22000Y-16950D02*
X22000Y-17050D01*
X22970Y-18020D02*
X22640Y-18350D01*
X22388Y-21438D02*
X21308Y-21438D01*
X23833Y-21967D02*
X23910Y-21890D01*
X22917Y-21967D02*
X23833Y-21967D01*
X22917Y-21967D02*
X22388Y-21438D01*
X20340Y-21100D02*
X20420Y-21020D01*
X20890Y-21020D02*
X21308Y-21438D01*
X20890Y-21020D02*
X20420Y-21020D01*
X21140Y-21560D02*
X22338Y-21560D01*
X20800Y-21220D02*
X21140Y-21560D01*
X24081Y-22089D02*
X24160Y-22010D01*
X22338Y-21560D02*
X22867Y-22089D01*
X27580Y-22100D02*
X27530Y-22150D01*
X20800Y-21220D02*
X20849Y-21269D01*
X27860Y-21510D02*
X27580Y-21790D01*
X28560Y-21510D02*
X27860Y-21510D01*
X22867Y-22089D02*
X24081Y-22089D01*
X27580Y-21790D02*
X27580Y-22100D01*
X28560Y-21510D02*
X29050Y-22000D01*
X22967Y-21845D02*
X23575Y-21845D01*
X23575Y-21845D02*
X23660Y-21760D01*
X21476Y-21316D02*
X22438Y-21316D01*
X22438Y-21316D02*
X22967Y-21845D01*
X21200Y-21040D02*
X21476Y-21316D01*
G54D31*
X24702Y-19977D02*
X24700Y-19975D01*
X24700Y-19975D02*
X24494Y-19769D01*
X25300Y-19977D02*
X24702Y-19977D01*
X17100Y-20810D02*
X17100Y-20900D01*
X24494Y-19769D02*
X19141Y-19769D01*
X19141Y-19769D02*
X19130Y-19780D01*
X24950Y-20225D02*
X24700Y-19975D01*
X24950Y-20700D02*
X24950Y-20225D01*
X17250Y-20660D02*
X17100Y-20810D01*
G54D10*
X15037Y-19890D02*
X15147Y-20000D01*
X15147Y-20000D02*
X15950Y-20000D01*
X15037Y-20290D02*
X15747Y-21000D01*
X15747Y-21000D02*
X16050Y-21000D01*
G54D31*
X17771Y-17925D02*
X17846Y-18000D01*
X17800Y-18046D02*
X17846Y-18000D01*
X17100Y-17925D02*
X17771Y-17925D01*
X16100Y-17925D02*
X17100Y-17925D01*
X15985Y-18040D02*
X16100Y-17925D01*
X17800Y-18625D02*
X17800Y-18046D01*
X25725Y-18300D02*
X25725Y-19000D01*
G54D10*
X25725Y-19205D02*
X25725Y-19000D01*
G54D31*
X26909Y-18647D02*
X26909Y-19325D01*
X26370Y-21100D02*
X24246Y-21100D01*
X26370Y-21100D02*
X26450Y-21020D01*
X25725Y-18300D02*
X25725Y-18005D01*
G54D10*
X26475Y-19165D02*
X26350Y-19290D01*
G54D31*
X24246Y-21100D02*
X24000Y-20854D01*
G54D10*
X25810Y-19290D02*
X25725Y-19205D01*
X26350Y-19290D02*
X25810Y-19290D01*
G54D31*
X26450Y-20530D02*
X26450Y-20700D01*
G54D10*
X26475Y-19000D02*
X26475Y-19165D01*
G54D31*
X25725Y-18005D02*
X25830Y-17900D01*
X26909Y-18109D02*
X26909Y-18647D01*
X26700Y-17900D02*
X26909Y-18109D01*
X25830Y-17900D02*
X26700Y-17900D01*
X26450Y-20700D02*
X26450Y-21020D01*
X26450Y-20530D02*
X26730Y-20250D01*
X27235Y-18321D02*
X26909Y-18647D01*
X28050Y-18000D02*
X27729Y-18321D01*
X27729Y-18321D02*
X27235Y-18321D01*
X26730Y-20250D02*
X26730Y-19504D01*
X26730Y-19504D02*
X26909Y-19325D01*
X26475Y-18300D02*
X26730Y-18555D01*
X17100Y-18675D02*
X17425Y-19000D01*
X26730Y-18555D02*
X26730Y-19250D01*
X25553Y-19443D02*
X25335Y-19225D01*
X19260Y-19590D02*
X19210Y-19540D01*
G54D10*
X19260Y-19590D02*
X19250Y-19580D01*
X18920Y-19710D02*
X19050Y-19580D01*
G54D31*
X19210Y-17860D02*
X19210Y-19540D01*
X16610Y-17630D02*
X18980Y-17630D01*
X24700Y-19225D02*
X24715Y-19225D01*
G54D10*
X18920Y-19710D02*
X18920Y-20280D01*
G54D31*
X26100Y-19000D02*
X26100Y-18675D01*
X24350Y-19590D02*
X19260Y-19590D01*
X18980Y-17630D02*
X19210Y-17860D01*
X11771Y-19489D02*
X15486Y-19489D01*
X15486Y-19489D02*
X16015Y-18960D01*
X26537Y-19443D02*
X25553Y-19443D01*
X26100Y-18675D02*
X26475Y-18300D01*
G54D10*
X19050Y-19580D02*
X19250Y-19580D01*
G54D31*
X25335Y-19225D02*
X24700Y-19225D01*
X26730Y-19250D02*
X26537Y-19443D01*
G54D10*
X18800Y-20400D02*
X18600Y-20400D01*
G54D31*
X19210Y-19540D02*
X19210Y-19530D01*
X16015Y-18960D02*
X16300Y-18675D01*
X16300Y-18675D02*
X17100Y-18675D01*
X24715Y-19225D02*
X24350Y-19590D01*
X17425Y-19000D02*
X17800Y-19000D01*
G54D10*
X18920Y-20280D02*
X18800Y-20400D01*
X18800Y-19600D02*
X18600Y-19800D01*
X18600Y-19890D02*
X18600Y-19800D01*
X18800Y-19375D02*
X18800Y-19600D01*
X17800Y-19375D02*
X17675Y-19500D01*
X17675Y-19500D02*
X17100Y-19500D01*
G54D31*
X26098Y-19623D02*
X25300Y-19623D01*
X26475Y-20000D02*
X26098Y-19623D01*
X25725Y-20675D02*
X25700Y-20700D01*
X25725Y-20000D02*
X25725Y-20675D01*
X18860Y-20890D02*
X19030Y-20720D01*
X19030Y-20720D02*
X19210Y-20900D01*
X18600Y-20890D02*
X18860Y-20890D01*
X19210Y-20900D02*
X19400Y-20900D01*
G54D10*
X22450Y-20900D02*
X22930Y-20900D01*
X22930Y-20900D02*
X23410Y-20420D01*
X19570Y-21260D02*
X19510Y-21320D01*
X19510Y-21320D02*
X19400Y-21320D01*
X19400Y-22100D02*
X19400Y-22320D01*
X19420Y-22080D02*
X19400Y-22100D01*
X11771Y-20255D02*
X14648Y-20255D01*
X14648Y-20255D02*
X14683Y-20290D01*
X11771Y-20511D02*
X14504Y-20511D01*
X14504Y-20511D02*
X14683Y-20690D01*
X11771Y-20000D02*
X14573Y-20000D01*
X14573Y-20000D02*
X14683Y-19890D01*
X16210Y-19480D02*
X16420Y-19690D01*
X14430Y-19660D02*
X15530Y-19660D01*
X15530Y-19660D02*
X15710Y-19480D01*
X15710Y-19480D02*
X16210Y-19480D01*
X16570Y-20100D02*
X17100Y-20100D01*
X16420Y-19950D02*
X16570Y-20100D01*
X14345Y-19745D02*
X14430Y-19660D01*
X11771Y-19745D02*
X14345Y-19745D01*
X16420Y-19690D02*
X16420Y-19950D01*
X28450Y-19500D02*
X27710Y-19500D01*
X17440Y-22430D02*
X17570Y-22430D01*
X28950Y-19000D02*
X28450Y-19500D01*
X16500Y-21490D02*
X17440Y-22430D01*
G54D31*
X18600Y-21400D02*
X18470Y-21400D01*
G54D10*
X27710Y-19500D02*
X27490Y-19720D01*
G54D31*
X19626Y-17850D02*
X20437Y-17850D01*
X18210Y-21400D02*
X18340Y-21270D01*
X18470Y-21400D02*
X18340Y-21270D01*
X18600Y-21400D02*
X18600Y-21490D01*
X18000Y-21400D02*
X18210Y-21400D01*
G54D10*
G36*
X18808Y-21277D02*
X18651Y-21277D01*
X18629Y-21299D01*
X18629Y-21431D01*
X18629Y-21461D01*
X18629Y-21519D01*
X18571Y-21519D01*
X18571Y-21461D01*
X18571Y-21431D01*
X18571Y-21299D01*
X18549Y-21277D01*
X18383Y-21277D01*
X18366Y-21277D01*
X18349Y-21280D01*
X18333Y-21287D01*
X18319Y-21297D01*
X18313Y-21303D01*
X18313Y-21266D01*
X18310Y-21249D01*
X18303Y-21233D01*
X18293Y-21219D01*
X18281Y-21207D01*
X18267Y-21197D01*
X18251Y-21190D01*
X18234Y-21187D01*
X18217Y-21187D01*
X18051Y-21187D01*
X18029Y-21209D01*
X18029Y-21341D01*
X18029Y-21371D01*
X18029Y-21429D01*
X17971Y-21429D01*
X17971Y-21371D01*
X17971Y-21341D01*
X17971Y-21209D01*
X17949Y-21187D01*
X17783Y-21187D01*
X17766Y-21187D01*
X17749Y-21190D01*
X17733Y-21197D01*
X17729Y-21199D01*
X17729Y-20805D01*
X18015Y-20519D01*
X18088Y-20519D01*
X18090Y-20519D01*
X18119Y-20516D01*
X18121Y-20516D01*
X18137Y-20511D01*
X18149Y-20508D01*
X18151Y-20507D01*
X18177Y-20494D01*
X18178Y-20492D01*
X18201Y-20474D01*
X18201Y-20473D01*
X18202Y-20473D01*
X18202Y-20472D01*
X18206Y-20467D01*
X18275Y-20399D01*
X18275Y-20625D01*
X18279Y-20644D01*
X18286Y-20662D01*
X18297Y-20679D01*
X18308Y-20690D01*
X18297Y-20701D01*
X18287Y-20717D01*
X18279Y-20735D01*
X18275Y-20755D01*
X18275Y-20774D01*
X18275Y-21025D01*
X18279Y-21044D01*
X18286Y-21062D01*
X18297Y-21079D01*
X18311Y-21093D01*
X18327Y-21103D01*
X18345Y-21111D01*
X18365Y-21115D01*
X18384Y-21115D01*
X18808Y-21115D01*
X18808Y-21133D01*
X18808Y-21277D01*
X18808Y-21277D01*
G37*
G54D11*
X18808Y-21277D02*
X18651Y-21277D01*
X18629Y-21299D01*
X18629Y-21431D01*
X18629Y-21461D01*
X18629Y-21519D01*
X18571Y-21519D01*
X18571Y-21461D01*
X18571Y-21431D01*
X18571Y-21299D01*
X18549Y-21277D01*
X18383Y-21277D01*
X18366Y-21277D01*
X18349Y-21280D01*
X18333Y-21287D01*
X18319Y-21297D01*
X18313Y-21303D01*
X18313Y-21266D01*
X18310Y-21249D01*
X18303Y-21233D01*
X18293Y-21219D01*
X18281Y-21207D01*
X18267Y-21197D01*
X18251Y-21190D01*
X18234Y-21187D01*
X18217Y-21187D01*
X18051Y-21187D01*
X18029Y-21209D01*
X18029Y-21341D01*
X18029Y-21371D01*
X18029Y-21429D01*
X17971Y-21429D01*
X17971Y-21371D01*
X17971Y-21341D01*
X17971Y-21209D01*
X17949Y-21187D01*
X17783Y-21187D01*
X17766Y-21187D01*
X17749Y-21190D01*
X17733Y-21197D01*
X17729Y-21199D01*
X17729Y-20805D01*
X18015Y-20519D01*
X18088Y-20519D01*
X18090Y-20519D01*
X18119Y-20516D01*
X18121Y-20516D01*
X18137Y-20511D01*
X18149Y-20508D01*
X18151Y-20507D01*
X18177Y-20494D01*
X18178Y-20492D01*
X18201Y-20474D01*
X18201Y-20473D01*
X18202Y-20473D01*
X18202Y-20472D01*
X18206Y-20467D01*
X18275Y-20399D01*
X18275Y-20625D01*
X18279Y-20644D01*
X18286Y-20662D01*
X18297Y-20679D01*
X18308Y-20690D01*
X18297Y-20701D01*
X18287Y-20717D01*
X18279Y-20735D01*
X18275Y-20755D01*
X18275Y-20774D01*
X18275Y-21025D01*
X18279Y-21044D01*
X18286Y-21062D01*
X18297Y-21079D01*
X18311Y-21093D01*
X18327Y-21103D01*
X18345Y-21111D01*
X18365Y-21115D01*
X18384Y-21115D01*
X18808Y-21115D01*
X18808Y-21133D01*
X18808Y-21277D01*
G54D10*
G36*
X26591Y-21175D02*
X26565Y-21175D01*
X26546Y-21179D01*
X26528Y-21186D01*
X26511Y-21197D01*
X26497Y-21211D01*
X26487Y-21227D01*
X26479Y-21243D01*
X26479Y-21244D01*
X26449Y-21253D01*
X26435Y-21260D01*
X26422Y-21267D01*
X26398Y-21287D01*
X26397Y-21288D01*
X26343Y-21342D01*
X26339Y-21346D01*
X26319Y-21370D01*
X26304Y-21397D01*
X26303Y-21397D01*
X26303Y-21399D01*
X26300Y-21409D01*
X26294Y-21427D01*
X26291Y-21458D01*
X26291Y-21459D01*
X26291Y-21460D01*
X26291Y-21894D01*
X26283Y-21902D01*
X24606Y-21902D01*
X24319Y-21614D01*
X24127Y-21423D01*
X24124Y-21419D01*
X24122Y-21418D01*
X24100Y-21399D01*
X24098Y-21398D01*
X24073Y-21384D01*
X24072Y-21383D01*
X24071Y-21383D01*
X24061Y-21380D01*
X24043Y-21374D01*
X24012Y-21371D01*
X24011Y-21371D01*
X24010Y-21371D01*
X22931Y-21371D01*
X22737Y-21177D01*
X22734Y-21173D01*
X22733Y-21172D01*
X22618Y-21058D01*
X22615Y-21054D01*
X22613Y-21053D01*
X22601Y-21043D01*
X22601Y-21042D01*
X22608Y-21037D01*
X22612Y-21030D01*
X22929Y-21030D01*
X22930Y-21030D01*
X22955Y-21028D01*
X22978Y-21020D01*
X22980Y-21020D01*
X22994Y-21012D01*
X23001Y-21009D01*
X23002Y-21008D01*
X23021Y-20993D01*
X23022Y-20992D01*
X23386Y-20627D01*
X23426Y-20628D01*
X23466Y-20621D01*
X23504Y-20607D01*
X23538Y-20585D01*
X23568Y-20557D01*
X23591Y-20524D01*
X23608Y-20486D01*
X23617Y-20447D01*
X23618Y-20400D01*
X23610Y-20360D01*
X23595Y-20322D01*
X23572Y-20288D01*
X23543Y-20259D01*
X23510Y-20236D01*
X23472Y-20221D01*
X23432Y-20212D01*
X23391Y-20212D01*
X23351Y-20219D01*
X23314Y-20235D01*
X23279Y-20257D01*
X23250Y-20285D01*
X23227Y-20319D01*
X23211Y-20356D01*
X23202Y-20396D01*
X23202Y-20437D01*
X23203Y-20442D01*
X22876Y-20770D01*
X22613Y-20770D01*
X22612Y-20768D01*
X22583Y-20739D01*
X22550Y-20716D01*
X22512Y-20701D01*
X22472Y-20692D01*
X22431Y-20692D01*
X22391Y-20699D01*
X22354Y-20715D01*
X22319Y-20737D01*
X22290Y-20765D01*
X22267Y-20799D01*
X22251Y-20836D01*
X22242Y-20876D01*
X22242Y-20917D01*
X22249Y-20957D01*
X22264Y-20995D01*
X22271Y-21006D01*
X21720Y-21006D01*
X21697Y-20983D01*
X21698Y-20980D01*
X21690Y-20940D01*
X21675Y-20902D01*
X21652Y-20868D01*
X21623Y-20839D01*
X21590Y-20816D01*
X21552Y-20801D01*
X21512Y-20792D01*
X21471Y-20792D01*
X21431Y-20799D01*
X21394Y-20815D01*
X21359Y-20837D01*
X21330Y-20865D01*
X21324Y-20873D01*
X21300Y-20856D01*
X21262Y-20841D01*
X21222Y-20832D01*
X21181Y-20832D01*
X21141Y-20839D01*
X21104Y-20855D01*
X21069Y-20877D01*
X21040Y-20905D01*
X21017Y-20939D01*
X21009Y-20955D01*
X20983Y-20929D01*
X20982Y-20928D01*
X20963Y-20912D01*
X20941Y-20901D01*
X20939Y-20900D01*
X20931Y-20897D01*
X20917Y-20893D01*
X20892Y-20890D01*
X20890Y-20890D01*
X20421Y-20890D01*
X20420Y-20890D01*
X20395Y-20892D01*
X20381Y-20896D01*
X20362Y-20892D01*
X20321Y-20892D01*
X20281Y-20899D01*
X20244Y-20915D01*
X20209Y-20937D01*
X20180Y-20965D01*
X20157Y-20999D01*
X20141Y-21036D01*
X20132Y-21076D01*
X20132Y-21117D01*
X20139Y-21157D01*
X20154Y-21195D01*
X20176Y-21229D01*
X20204Y-21259D01*
X20238Y-21282D01*
X20275Y-21299D01*
X20315Y-21307D01*
X20356Y-21308D01*
X20396Y-21301D01*
X20434Y-21287D01*
X20468Y-21265D01*
X20498Y-21237D01*
X20521Y-21204D01*
X20538Y-21166D01*
X20541Y-21150D01*
X20603Y-21150D01*
X20601Y-21156D01*
X20592Y-21196D01*
X20592Y-21237D01*
X20599Y-21277D01*
X20614Y-21315D01*
X20636Y-21349D01*
X20664Y-21379D01*
X20698Y-21402D01*
X20735Y-21419D01*
X20775Y-21427D01*
X20816Y-21428D01*
X20822Y-21426D01*
X20997Y-21601D01*
X19945Y-21601D01*
X19956Y-21594D01*
X19970Y-21580D01*
X19980Y-21564D01*
X19988Y-21546D01*
X19992Y-21526D01*
X19992Y-21507D01*
X19992Y-21114D01*
X19988Y-21095D01*
X19981Y-21077D01*
X19970Y-21060D01*
X19956Y-21046D01*
X19940Y-21036D01*
X19922Y-21028D01*
X19902Y-21024D01*
X19883Y-21024D01*
X19725Y-21024D01*
X19725Y-21016D01*
X19725Y-20765D01*
X19721Y-20746D01*
X19719Y-20740D01*
X19719Y-20459D01*
X19721Y-20455D01*
X19725Y-20435D01*
X19725Y-20416D01*
X19725Y-20165D01*
X19721Y-20146D01*
X19714Y-20128D01*
X19703Y-20111D01*
X19699Y-20107D01*
X23675Y-20107D01*
X23675Y-20353D01*
X23679Y-20372D01*
X23681Y-20377D01*
X23681Y-20622D01*
X23679Y-20627D01*
X23675Y-20647D01*
X23675Y-20666D01*
X23675Y-21061D01*
X23679Y-21080D01*
X23686Y-21098D01*
X23697Y-21115D01*
X23711Y-21129D01*
X23727Y-21139D01*
X23745Y-21147D01*
X23765Y-21151D01*
X23784Y-21151D01*
X23990Y-21151D01*
X24000Y-21161D01*
X24010Y-21151D01*
X24072Y-21151D01*
X24131Y-21210D01*
X24132Y-21211D01*
X24133Y-21212D01*
X24156Y-21231D01*
X24157Y-21232D01*
X24165Y-21236D01*
X24183Y-21246D01*
X24185Y-21246D01*
X24213Y-21256D01*
X24244Y-21259D01*
X24246Y-21259D01*
X24319Y-21259D01*
X26368Y-21259D01*
X26370Y-21259D01*
X26399Y-21256D01*
X26401Y-21256D01*
X26417Y-21251D01*
X26429Y-21248D01*
X26431Y-21247D01*
X26457Y-21234D01*
X26458Y-21232D01*
X26481Y-21214D01*
X26481Y-21213D01*
X26482Y-21213D01*
X26482Y-21212D01*
X26486Y-21207D01*
X26560Y-21134D01*
X26561Y-21134D01*
X26561Y-21133D01*
X26562Y-21133D01*
X26566Y-21128D01*
X26581Y-21110D01*
X26582Y-21108D01*
X26591Y-21092D01*
X26591Y-21175D01*
X26591Y-21175D01*
G37*
G54D11*
X26591Y-21175D02*
X26565Y-21175D01*
X26546Y-21179D01*
X26528Y-21186D01*
X26511Y-21197D01*
X26497Y-21211D01*
X26487Y-21227D01*
X26479Y-21243D01*
X26479Y-21244D01*
X26449Y-21253D01*
X26435Y-21260D01*
X26422Y-21267D01*
X26398Y-21287D01*
X26397Y-21288D01*
X26343Y-21342D01*
X26339Y-21346D01*
X26319Y-21370D01*
X26304Y-21397D01*
X26303Y-21397D01*
X26303Y-21399D01*
X26300Y-21409D01*
X26294Y-21427D01*
X26291Y-21458D01*
X26291Y-21459D01*
X26291Y-21460D01*
X26291Y-21894D01*
X26283Y-21902D01*
X24606Y-21902D01*
X24319Y-21614D01*
X24127Y-21423D01*
X24124Y-21419D01*
X24122Y-21418D01*
X24100Y-21399D01*
X24098Y-21398D01*
X24073Y-21384D01*
X24072Y-21383D01*
X24071Y-21383D01*
X24061Y-21380D01*
X24043Y-21374D01*
X24012Y-21371D01*
X24011Y-21371D01*
X24010Y-21371D01*
X22931Y-21371D01*
X22737Y-21177D01*
X22734Y-21173D01*
X22733Y-21172D01*
X22618Y-21058D01*
X22615Y-21054D01*
X22613Y-21053D01*
X22601Y-21043D01*
X22601Y-21042D01*
X22608Y-21037D01*
X22612Y-21030D01*
X22929Y-21030D01*
X22930Y-21030D01*
X22955Y-21028D01*
X22978Y-21020D01*
X22980Y-21020D01*
X22994Y-21012D01*
X23001Y-21009D01*
X23002Y-21008D01*
X23021Y-20993D01*
X23022Y-20992D01*
X23386Y-20627D01*
X23426Y-20628D01*
X23466Y-20621D01*
X23504Y-20607D01*
X23538Y-20585D01*
X23568Y-20557D01*
X23591Y-20524D01*
X23608Y-20486D01*
X23617Y-20447D01*
X23618Y-20400D01*
X23610Y-20360D01*
X23595Y-20322D01*
X23572Y-20288D01*
X23543Y-20259D01*
X23510Y-20236D01*
X23472Y-20221D01*
X23432Y-20212D01*
X23391Y-20212D01*
X23351Y-20219D01*
X23314Y-20235D01*
X23279Y-20257D01*
X23250Y-20285D01*
X23227Y-20319D01*
X23211Y-20356D01*
X23202Y-20396D01*
X23202Y-20437D01*
X23203Y-20442D01*
X22876Y-20770D01*
X22613Y-20770D01*
X22612Y-20768D01*
X22583Y-20739D01*
X22550Y-20716D01*
X22512Y-20701D01*
X22472Y-20692D01*
X22431Y-20692D01*
X22391Y-20699D01*
X22354Y-20715D01*
X22319Y-20737D01*
X22290Y-20765D01*
X22267Y-20799D01*
X22251Y-20836D01*
X22242Y-20876D01*
X22242Y-20917D01*
X22249Y-20957D01*
X22264Y-20995D01*
X22271Y-21006D01*
X21720Y-21006D01*
X21697Y-20983D01*
X21698Y-20980D01*
X21690Y-20940D01*
X21675Y-20902D01*
X21652Y-20868D01*
X21623Y-20839D01*
X21590Y-20816D01*
X21552Y-20801D01*
X21512Y-20792D01*
X21471Y-20792D01*
X21431Y-20799D01*
X21394Y-20815D01*
X21359Y-20837D01*
X21330Y-20865D01*
X21324Y-20873D01*
X21300Y-20856D01*
X21262Y-20841D01*
X21222Y-20832D01*
X21181Y-20832D01*
X21141Y-20839D01*
X21104Y-20855D01*
X21069Y-20877D01*
X21040Y-20905D01*
X21017Y-20939D01*
X21009Y-20955D01*
X20983Y-20929D01*
X20982Y-20928D01*
X20963Y-20912D01*
X20941Y-20901D01*
X20939Y-20900D01*
X20931Y-20897D01*
X20917Y-20893D01*
X20892Y-20890D01*
X20890Y-20890D01*
X20421Y-20890D01*
X20420Y-20890D01*
X20395Y-20892D01*
X20381Y-20896D01*
X20362Y-20892D01*
X20321Y-20892D01*
X20281Y-20899D01*
X20244Y-20915D01*
X20209Y-20937D01*
X20180Y-20965D01*
X20157Y-20999D01*
X20141Y-21036D01*
X20132Y-21076D01*
X20132Y-21117D01*
X20139Y-21157D01*
X20154Y-21195D01*
X20176Y-21229D01*
X20204Y-21259D01*
X20238Y-21282D01*
X20275Y-21299D01*
X20315Y-21307D01*
X20356Y-21308D01*
X20396Y-21301D01*
X20434Y-21287D01*
X20468Y-21265D01*
X20498Y-21237D01*
X20521Y-21204D01*
X20538Y-21166D01*
X20541Y-21150D01*
X20603Y-21150D01*
X20601Y-21156D01*
X20592Y-21196D01*
X20592Y-21237D01*
X20599Y-21277D01*
X20614Y-21315D01*
X20636Y-21349D01*
X20664Y-21379D01*
X20698Y-21402D01*
X20735Y-21419D01*
X20775Y-21427D01*
X20816Y-21428D01*
X20822Y-21426D01*
X20997Y-21601D01*
X19945Y-21601D01*
X19956Y-21594D01*
X19970Y-21580D01*
X19980Y-21564D01*
X19988Y-21546D01*
X19992Y-21526D01*
X19992Y-21507D01*
X19992Y-21114D01*
X19988Y-21095D01*
X19981Y-21077D01*
X19970Y-21060D01*
X19956Y-21046D01*
X19940Y-21036D01*
X19922Y-21028D01*
X19902Y-21024D01*
X19883Y-21024D01*
X19725Y-21024D01*
X19725Y-21016D01*
X19725Y-20765D01*
X19721Y-20746D01*
X19719Y-20740D01*
X19719Y-20459D01*
X19721Y-20455D01*
X19725Y-20435D01*
X19725Y-20416D01*
X19725Y-20165D01*
X19721Y-20146D01*
X19714Y-20128D01*
X19703Y-20111D01*
X19699Y-20107D01*
X23675Y-20107D01*
X23675Y-20353D01*
X23679Y-20372D01*
X23681Y-20377D01*
X23681Y-20622D01*
X23679Y-20627D01*
X23675Y-20647D01*
X23675Y-20666D01*
X23675Y-21061D01*
X23679Y-21080D01*
X23686Y-21098D01*
X23697Y-21115D01*
X23711Y-21129D01*
X23727Y-21139D01*
X23745Y-21147D01*
X23765Y-21151D01*
X23784Y-21151D01*
X23990Y-21151D01*
X24000Y-21161D01*
X24010Y-21151D01*
X24072Y-21151D01*
X24131Y-21210D01*
X24132Y-21211D01*
X24133Y-21212D01*
X24156Y-21231D01*
X24157Y-21232D01*
X24165Y-21236D01*
X24183Y-21246D01*
X24185Y-21246D01*
X24213Y-21256D01*
X24244Y-21259D01*
X24246Y-21259D01*
X24319Y-21259D01*
X26368Y-21259D01*
X26370Y-21259D01*
X26399Y-21256D01*
X26401Y-21256D01*
X26417Y-21251D01*
X26429Y-21248D01*
X26431Y-21247D01*
X26457Y-21234D01*
X26458Y-21232D01*
X26481Y-21214D01*
X26481Y-21213D01*
X26482Y-21213D01*
X26482Y-21212D01*
X26486Y-21207D01*
X26560Y-21134D01*
X26561Y-21134D01*
X26561Y-21133D01*
X26562Y-21133D01*
X26566Y-21128D01*
X26581Y-21110D01*
X26582Y-21108D01*
X26591Y-21092D01*
X26591Y-21175D01*
G54D10*
G36*
X29581Y-23384D02*
X29384Y-23581D01*
X28460Y-23581D01*
X28460Y-23042D01*
X28450Y-22952D01*
X28422Y-22867D01*
X28388Y-22803D01*
X28330Y-22762D01*
X28041Y-23050D01*
X28330Y-23338D01*
X28388Y-23297D01*
X28429Y-23217D01*
X28453Y-23131D01*
X28460Y-23042D01*
X28460Y-23581D01*
X28288Y-23581D01*
X28288Y-23380D01*
X28000Y-23091D01*
X27959Y-23132D01*
X27959Y-23050D01*
X27670Y-22762D01*
X27612Y-22803D01*
X27571Y-22883D01*
X27547Y-22969D01*
X27540Y-23058D01*
X27550Y-23148D01*
X27578Y-23233D01*
X27612Y-23297D01*
X27670Y-23338D01*
X27959Y-23050D01*
X27959Y-23132D01*
X27712Y-23380D01*
X27753Y-23438D01*
X27833Y-23479D01*
X27919Y-23503D01*
X28008Y-23510D01*
X28098Y-23500D01*
X28183Y-23472D01*
X28247Y-23438D01*
X28288Y-23380D01*
X28288Y-23581D01*
X27470Y-23581D01*
X27470Y-22904D01*
X27452Y-22814D01*
X27417Y-22728D01*
X27366Y-22652D01*
X27301Y-22586D01*
X27225Y-22535D01*
X27140Y-22499D01*
X27049Y-22480D01*
X26957Y-22480D01*
X26867Y-22497D01*
X26781Y-22531D01*
X26704Y-22582D01*
X26638Y-22646D01*
X26586Y-22722D01*
X26550Y-22807D01*
X26531Y-22897D01*
X26529Y-22989D01*
X26546Y-23080D01*
X26580Y-23166D01*
X26630Y-23243D01*
X26694Y-23310D01*
X26770Y-23362D01*
X26854Y-23399D01*
X26944Y-23419D01*
X27036Y-23421D01*
X27127Y-23405D01*
X27213Y-23372D01*
X27291Y-23322D01*
X27357Y-23259D01*
X27411Y-23183D01*
X27448Y-23099D01*
X27469Y-23009D01*
X27470Y-22904D01*
X27470Y-23581D01*
X26470Y-23581D01*
X26470Y-23004D01*
X26452Y-22914D01*
X26417Y-22828D01*
X26366Y-22752D01*
X26301Y-22686D01*
X26225Y-22635D01*
X26140Y-22599D01*
X26049Y-22580D01*
X25957Y-22580D01*
X25867Y-22597D01*
X25781Y-22631D01*
X25704Y-22682D01*
X25638Y-22746D01*
X25586Y-22822D01*
X25550Y-22907D01*
X25531Y-22997D01*
X25529Y-23089D01*
X25546Y-23180D01*
X25580Y-23266D01*
X25630Y-23343D01*
X25694Y-23410D01*
X25770Y-23462D01*
X25854Y-23499D01*
X25944Y-23519D01*
X26036Y-23521D01*
X26127Y-23505D01*
X26213Y-23472D01*
X26291Y-23422D01*
X26357Y-23359D01*
X26411Y-23283D01*
X26448Y-23199D01*
X26469Y-23109D01*
X26470Y-23004D01*
X26470Y-23581D01*
X25470Y-23581D01*
X25470Y-22904D01*
X25452Y-22814D01*
X25417Y-22728D01*
X25366Y-22652D01*
X25301Y-22586D01*
X25225Y-22535D01*
X25140Y-22499D01*
X25049Y-22480D01*
X24957Y-22480D01*
X24867Y-22497D01*
X24781Y-22531D01*
X24704Y-22582D01*
X24638Y-22646D01*
X24586Y-22722D01*
X24550Y-22807D01*
X24531Y-22897D01*
X24529Y-22989D01*
X24546Y-23080D01*
X24580Y-23166D01*
X24630Y-23243D01*
X24694Y-23310D01*
X24770Y-23362D01*
X24854Y-23399D01*
X24944Y-23419D01*
X25036Y-23421D01*
X25127Y-23405D01*
X25213Y-23372D01*
X25291Y-23322D01*
X25357Y-23259D01*
X25411Y-23183D01*
X25448Y-23099D01*
X25469Y-23009D01*
X25470Y-22904D01*
X25470Y-23581D01*
X24470Y-23581D01*
X24470Y-23004D01*
X24452Y-22914D01*
X24417Y-22828D01*
X24366Y-22752D01*
X24319Y-22704D01*
X24301Y-22686D01*
X24225Y-22635D01*
X24140Y-22599D01*
X24049Y-22580D01*
X23957Y-22580D01*
X23867Y-22597D01*
X23781Y-22631D01*
X23704Y-22682D01*
X23638Y-22746D01*
X23586Y-22822D01*
X23550Y-22907D01*
X23531Y-22997D01*
X23529Y-23089D01*
X23546Y-23180D01*
X23580Y-23266D01*
X23630Y-23343D01*
X23694Y-23410D01*
X23770Y-23462D01*
X23854Y-23499D01*
X23944Y-23519D01*
X24036Y-23521D01*
X24127Y-23505D01*
X24213Y-23472D01*
X24291Y-23422D01*
X24319Y-23395D01*
X24357Y-23359D01*
X24411Y-23283D01*
X24448Y-23199D01*
X24469Y-23109D01*
X24470Y-23004D01*
X24470Y-23581D01*
X24319Y-23581D01*
X23470Y-23581D01*
X23470Y-22904D01*
X23452Y-22814D01*
X23417Y-22728D01*
X23366Y-22652D01*
X23301Y-22586D01*
X23225Y-22535D01*
X23140Y-22499D01*
X23049Y-22480D01*
X22957Y-22480D01*
X22867Y-22497D01*
X22781Y-22531D01*
X22704Y-22582D01*
X22638Y-22646D01*
X22586Y-22722D01*
X22550Y-22807D01*
X22531Y-22897D01*
X22529Y-22989D01*
X22546Y-23080D01*
X22580Y-23166D01*
X22630Y-23243D01*
X22694Y-23310D01*
X22770Y-23362D01*
X22854Y-23399D01*
X22944Y-23419D01*
X23036Y-23421D01*
X23127Y-23405D01*
X23213Y-23372D01*
X23291Y-23322D01*
X23357Y-23259D01*
X23411Y-23183D01*
X23448Y-23099D01*
X23469Y-23009D01*
X23470Y-22904D01*
X23470Y-23581D01*
X22470Y-23581D01*
X22470Y-23004D01*
X22452Y-22914D01*
X22417Y-22828D01*
X22366Y-22752D01*
X22301Y-22686D01*
X22225Y-22635D01*
X22140Y-22599D01*
X22049Y-22580D01*
X21957Y-22580D01*
X21867Y-22597D01*
X21781Y-22631D01*
X21704Y-22682D01*
X21638Y-22746D01*
X21586Y-22822D01*
X21550Y-22907D01*
X21531Y-22997D01*
X21529Y-23089D01*
X21546Y-23180D01*
X21580Y-23266D01*
X21630Y-23343D01*
X21694Y-23410D01*
X21770Y-23462D01*
X21854Y-23499D01*
X21944Y-23519D01*
X22036Y-23521D01*
X22127Y-23505D01*
X22213Y-23472D01*
X22291Y-23422D01*
X22357Y-23359D01*
X22411Y-23283D01*
X22448Y-23199D01*
X22469Y-23109D01*
X22470Y-23004D01*
X22470Y-23581D01*
X19719Y-23581D01*
X17470Y-23581D01*
X17470Y-22904D01*
X17452Y-22814D01*
X17419Y-22732D01*
X17417Y-22728D01*
X17366Y-22652D01*
X17301Y-22586D01*
X17225Y-22535D01*
X17140Y-22499D01*
X17049Y-22480D01*
X16957Y-22480D01*
X16867Y-22497D01*
X16781Y-22531D01*
X16704Y-22582D01*
X16638Y-22646D01*
X16586Y-22722D01*
X16550Y-22807D01*
X16531Y-22897D01*
X16529Y-22989D01*
X16546Y-23080D01*
X16580Y-23166D01*
X16630Y-23243D01*
X16694Y-23310D01*
X16770Y-23362D01*
X16854Y-23399D01*
X16944Y-23419D01*
X17036Y-23421D01*
X17127Y-23405D01*
X17213Y-23372D01*
X17291Y-23322D01*
X17357Y-23259D01*
X17411Y-23183D01*
X17419Y-23164D01*
X17448Y-23099D01*
X17469Y-23009D01*
X17470Y-22904D01*
X17470Y-23581D01*
X17419Y-23581D01*
X16470Y-23581D01*
X16470Y-23004D01*
X16452Y-22914D01*
X16417Y-22828D01*
X16366Y-22752D01*
X16301Y-22686D01*
X16225Y-22635D01*
X16140Y-22599D01*
X16049Y-22580D01*
X15957Y-22580D01*
X15867Y-22597D01*
X15781Y-22631D01*
X15704Y-22682D01*
X15638Y-22746D01*
X15586Y-22822D01*
X15550Y-22907D01*
X15531Y-22997D01*
X15529Y-23089D01*
X15546Y-23180D01*
X15580Y-23266D01*
X15630Y-23343D01*
X15694Y-23410D01*
X15770Y-23462D01*
X15854Y-23499D01*
X15944Y-23519D01*
X16036Y-23521D01*
X16127Y-23505D01*
X16213Y-23472D01*
X16291Y-23422D01*
X16357Y-23359D01*
X16411Y-23283D01*
X16448Y-23199D01*
X16469Y-23109D01*
X16470Y-23004D01*
X16470Y-23581D01*
X15616Y-23581D01*
X15419Y-23384D01*
X15419Y-22375D01*
X15419Y-22374D01*
X15417Y-22352D01*
X15417Y-22351D01*
X15410Y-22329D01*
X15400Y-22309D01*
X15399Y-22308D01*
X15385Y-22291D01*
X15384Y-22290D01*
X15367Y-22275D01*
X15347Y-22265D01*
X15346Y-22264D01*
X15324Y-22257D01*
X15304Y-22255D01*
X15302Y-22255D01*
X15301Y-22255D01*
X15300Y-22255D01*
X14996Y-22255D01*
X14729Y-21988D01*
X14729Y-20915D01*
X14818Y-20915D01*
X14837Y-20911D01*
X14855Y-20904D01*
X14860Y-20900D01*
X14864Y-20903D01*
X14882Y-20911D01*
X14902Y-20915D01*
X14921Y-20915D01*
X15037Y-20915D01*
X15714Y-21592D01*
X15654Y-21632D01*
X15588Y-21696D01*
X15536Y-21772D01*
X15500Y-21857D01*
X15481Y-21947D01*
X15479Y-22039D01*
X15496Y-22130D01*
X15530Y-22216D01*
X15580Y-22293D01*
X15644Y-22360D01*
X15720Y-22412D01*
X15804Y-22449D01*
X15894Y-22469D01*
X15986Y-22471D01*
X16077Y-22455D01*
X16163Y-22422D01*
X16241Y-22372D01*
X16307Y-22309D01*
X16361Y-22233D01*
X16398Y-22149D01*
X16419Y-22059D01*
X16420Y-21954D01*
X16402Y-21864D01*
X16367Y-21778D01*
X16316Y-21702D01*
X16251Y-21636D01*
X16175Y-21585D01*
X16100Y-21553D01*
X16098Y-21544D01*
X16097Y-21542D01*
X16084Y-21516D01*
X16064Y-21492D01*
X16063Y-21491D01*
X16062Y-21490D01*
X16042Y-21470D01*
X16086Y-21471D01*
X16177Y-21455D01*
X16263Y-21422D01*
X16341Y-21372D01*
X16407Y-21309D01*
X16461Y-21233D01*
X16498Y-21149D01*
X16519Y-21059D01*
X16520Y-20954D01*
X16502Y-20864D01*
X16467Y-20778D01*
X16416Y-20702D01*
X16351Y-20636D01*
X16275Y-20585D01*
X16190Y-20549D01*
X16099Y-20530D01*
X16007Y-20530D01*
X15917Y-20547D01*
X15831Y-20581D01*
X15754Y-20632D01*
X15688Y-20696D01*
X15663Y-20732D01*
X15262Y-20331D01*
X15262Y-20155D01*
X15258Y-20136D01*
X15255Y-20130D01*
X15496Y-20130D01*
X15530Y-20216D01*
X15580Y-20293D01*
X15644Y-20360D01*
X15720Y-20412D01*
X15804Y-20449D01*
X15894Y-20469D01*
X15986Y-20471D01*
X16077Y-20455D01*
X16163Y-20422D01*
X16241Y-20372D01*
X16307Y-20309D01*
X16361Y-20233D01*
X16398Y-20149D01*
X16405Y-20119D01*
X16477Y-20191D01*
X16478Y-20192D01*
X16497Y-20208D01*
X16519Y-20219D01*
X16520Y-20220D01*
X16536Y-20224D01*
X16543Y-20227D01*
X16544Y-20227D01*
X16568Y-20230D01*
X16570Y-20230D01*
X16850Y-20230D01*
X16850Y-20260D01*
X16854Y-20279D01*
X16861Y-20297D01*
X16872Y-20314D01*
X16886Y-20328D01*
X16902Y-20338D01*
X16920Y-20346D01*
X16940Y-20350D01*
X16959Y-20350D01*
X17260Y-20350D01*
X17279Y-20346D01*
X17297Y-20339D01*
X17314Y-20328D01*
X17328Y-20314D01*
X17338Y-20298D01*
X17346Y-20280D01*
X17350Y-20260D01*
X17350Y-20241D01*
X17350Y-19940D01*
X17346Y-19921D01*
X17339Y-19903D01*
X17328Y-19886D01*
X17314Y-19872D01*
X17298Y-19862D01*
X17280Y-19854D01*
X17260Y-19850D01*
X17241Y-19850D01*
X16940Y-19850D01*
X16921Y-19854D01*
X16903Y-19861D01*
X16886Y-19872D01*
X16872Y-19886D01*
X16862Y-19902D01*
X16854Y-19920D01*
X16850Y-19940D01*
X16850Y-19959D01*
X16850Y-19970D01*
X16624Y-19970D01*
X16550Y-19896D01*
X16550Y-19690D01*
X16548Y-19665D01*
X16540Y-19641D01*
X16540Y-19640D01*
X16528Y-19619D01*
X16528Y-19618D01*
X16516Y-19603D01*
X16513Y-19599D01*
X16512Y-19598D01*
X16511Y-19597D01*
X16303Y-19389D01*
X16302Y-19388D01*
X16283Y-19372D01*
X16261Y-19361D01*
X16260Y-19360D01*
X16306Y-19332D01*
X16372Y-19269D01*
X16426Y-19193D01*
X16463Y-19109D01*
X16484Y-19019D01*
X16485Y-18914D01*
X16469Y-18834D01*
X16725Y-18834D01*
X16725Y-18860D01*
X16729Y-18879D01*
X16736Y-18897D01*
X16747Y-18914D01*
X16761Y-18928D01*
X16777Y-18938D01*
X16795Y-18946D01*
X16815Y-18950D01*
X16834Y-18950D01*
X17150Y-18950D01*
X17310Y-19110D01*
X17311Y-19111D01*
X17312Y-19112D01*
X17335Y-19131D01*
X17336Y-19132D01*
X17358Y-19144D01*
X17362Y-19146D01*
X17364Y-19147D01*
X17369Y-19148D01*
X17392Y-19156D01*
X17423Y-19159D01*
X17424Y-19159D01*
X17425Y-19159D01*
X17507Y-19159D01*
X17514Y-19175D01*
X17522Y-19187D01*
X17515Y-19199D01*
X17507Y-19217D01*
X17503Y-19237D01*
X17503Y-19256D01*
X17503Y-19370D01*
X17350Y-19370D01*
X17350Y-19340D01*
X17346Y-19321D01*
X17339Y-19303D01*
X17328Y-19286D01*
X17314Y-19272D01*
X17298Y-19262D01*
X17280Y-19254D01*
X17260Y-19250D01*
X17241Y-19250D01*
X16940Y-19250D01*
X16921Y-19254D01*
X16903Y-19261D01*
X16886Y-19272D01*
X16872Y-19286D01*
X16862Y-19302D01*
X16854Y-19320D01*
X16850Y-19340D01*
X16850Y-19359D01*
X16850Y-19660D01*
X16854Y-19679D01*
X16861Y-19697D01*
X16872Y-19714D01*
X16886Y-19728D01*
X16902Y-19738D01*
X16920Y-19746D01*
X16940Y-19750D01*
X16959Y-19750D01*
X17260Y-19750D01*
X17279Y-19746D01*
X17297Y-19739D01*
X17314Y-19728D01*
X17328Y-19714D01*
X17338Y-19698D01*
X17346Y-19680D01*
X17350Y-19660D01*
X17350Y-19641D01*
X17350Y-19630D01*
X17674Y-19630D01*
X17675Y-19630D01*
X17700Y-19628D01*
X17723Y-19620D01*
X17725Y-19620D01*
X17739Y-19612D01*
X17746Y-19609D01*
X17747Y-19608D01*
X17753Y-19603D01*
X17847Y-19603D01*
X17835Y-19626D01*
X17834Y-19626D01*
X17834Y-19628D01*
X17831Y-19638D01*
X17825Y-19656D01*
X17822Y-19687D01*
X17822Y-19688D01*
X17822Y-19689D01*
X17822Y-19994D01*
X17821Y-19995D01*
X17798Y-20029D01*
X17782Y-20066D01*
X17773Y-20106D01*
X17773Y-20147D01*
X17780Y-20187D01*
X17795Y-20225D01*
X17817Y-20259D01*
X17821Y-20263D01*
X17463Y-20622D01*
X17459Y-20626D01*
X17455Y-20629D01*
X17450Y-20600D01*
X17435Y-20562D01*
X17412Y-20528D01*
X17383Y-20499D01*
X17350Y-20476D01*
X17312Y-20461D01*
X17272Y-20452D01*
X17231Y-20452D01*
X17191Y-20459D01*
X17154Y-20475D01*
X17119Y-20497D01*
X17090Y-20525D01*
X17067Y-20559D01*
X17051Y-20596D01*
X17042Y-20636D01*
X17042Y-20643D01*
X17010Y-20675D01*
X16865Y-20675D01*
X16846Y-20679D01*
X16828Y-20686D01*
X16811Y-20697D01*
X16797Y-20711D01*
X16787Y-20727D01*
X16779Y-20745D01*
X16775Y-20765D01*
X16775Y-20784D01*
X16775Y-21035D01*
X16779Y-21054D01*
X16781Y-21059D01*
X16781Y-21340D01*
X16779Y-21345D01*
X16775Y-21365D01*
X16775Y-21384D01*
X16775Y-21635D01*
X16779Y-21654D01*
X16786Y-21672D01*
X16797Y-21689D01*
X16811Y-21703D01*
X16827Y-21713D01*
X16845Y-21721D01*
X16865Y-21725D01*
X16884Y-21725D01*
X17094Y-21725D01*
X17100Y-21731D01*
X17103Y-21727D01*
X17235Y-21860D01*
X17236Y-21861D01*
X17237Y-21862D01*
X17260Y-21881D01*
X17261Y-21882D01*
X17283Y-21894D01*
X17287Y-21896D01*
X17289Y-21897D01*
X17294Y-21898D01*
X17317Y-21906D01*
X17348Y-21909D01*
X17349Y-21909D01*
X17350Y-21909D01*
X17419Y-21909D01*
X17568Y-21909D01*
X17569Y-21909D01*
X17570Y-21909D01*
X17675Y-21909D01*
X17675Y-22135D01*
X17679Y-22154D01*
X17686Y-22172D01*
X17697Y-22189D01*
X17711Y-22203D01*
X17727Y-22213D01*
X17745Y-22221D01*
X17765Y-22225D01*
X17784Y-22225D01*
X17870Y-22225D01*
X17870Y-22596D01*
X17867Y-22597D01*
X17781Y-22631D01*
X17704Y-22682D01*
X17638Y-22746D01*
X17586Y-22822D01*
X17550Y-22907D01*
X17531Y-22997D01*
X17529Y-23089D01*
X17546Y-23180D01*
X17580Y-23266D01*
X17630Y-23343D01*
X17694Y-23410D01*
X17770Y-23462D01*
X17854Y-23499D01*
X17944Y-23519D01*
X18036Y-23521D01*
X18127Y-23505D01*
X18213Y-23472D01*
X18291Y-23422D01*
X18357Y-23359D01*
X18411Y-23283D01*
X18448Y-23199D01*
X18469Y-23109D01*
X18470Y-23004D01*
X18452Y-22914D01*
X18417Y-22828D01*
X18366Y-22752D01*
X18301Y-22686D01*
X18225Y-22635D01*
X18140Y-22599D01*
X18130Y-22596D01*
X18130Y-22225D01*
X18235Y-22225D01*
X18254Y-22221D01*
X18272Y-22214D01*
X18289Y-22203D01*
X18303Y-22189D01*
X18313Y-22173D01*
X18321Y-22155D01*
X18325Y-22135D01*
X18325Y-22116D01*
X18325Y-21909D01*
X18824Y-21909D01*
X18834Y-21919D01*
X18868Y-21942D01*
X18905Y-21959D01*
X18945Y-21967D01*
X18986Y-21968D01*
X19026Y-21961D01*
X19064Y-21947D01*
X19098Y-21925D01*
X19104Y-21919D01*
X19286Y-21919D01*
X19260Y-21945D01*
X19237Y-21979D01*
X19221Y-22016D01*
X19219Y-22024D01*
X18898Y-22024D01*
X18879Y-22028D01*
X18861Y-22035D01*
X18844Y-22046D01*
X18830Y-22060D01*
X18820Y-22076D01*
X18812Y-22094D01*
X18808Y-22114D01*
X18808Y-22133D01*
X18808Y-22520D01*
X18781Y-22531D01*
X18704Y-22582D01*
X18638Y-22646D01*
X18586Y-22722D01*
X18550Y-22807D01*
X18531Y-22897D01*
X18529Y-22989D01*
X18546Y-23080D01*
X18580Y-23166D01*
X18630Y-23243D01*
X18694Y-23310D01*
X18770Y-23362D01*
X18854Y-23399D01*
X18944Y-23419D01*
X19036Y-23421D01*
X19127Y-23405D01*
X19213Y-23372D01*
X19291Y-23322D01*
X19357Y-23259D01*
X19411Y-23183D01*
X19448Y-23099D01*
X19469Y-23009D01*
X19470Y-22904D01*
X19452Y-22814D01*
X19417Y-22728D01*
X19366Y-22652D01*
X19330Y-22616D01*
X19719Y-22616D01*
X19818Y-22616D01*
X19781Y-22631D01*
X19719Y-22672D01*
X19704Y-22682D01*
X19638Y-22746D01*
X19586Y-22822D01*
X19550Y-22907D01*
X19531Y-22997D01*
X19529Y-23089D01*
X19546Y-23180D01*
X19580Y-23266D01*
X19630Y-23343D01*
X19694Y-23410D01*
X19719Y-23427D01*
X19770Y-23462D01*
X19854Y-23499D01*
X19944Y-23519D01*
X20036Y-23521D01*
X20127Y-23505D01*
X20213Y-23472D01*
X20291Y-23422D01*
X20357Y-23359D01*
X20411Y-23283D01*
X20448Y-23199D01*
X20469Y-23109D01*
X20470Y-23004D01*
X20452Y-22914D01*
X20417Y-22828D01*
X20366Y-22752D01*
X20301Y-22686D01*
X20225Y-22635D01*
X20140Y-22599D01*
X20049Y-22580D01*
X19970Y-22580D01*
X19980Y-22564D01*
X19988Y-22546D01*
X19992Y-22526D01*
X19992Y-22507D01*
X19992Y-22114D01*
X19988Y-22095D01*
X19981Y-22077D01*
X19970Y-22060D01*
X19956Y-22046D01*
X19940Y-22036D01*
X19922Y-22028D01*
X19902Y-22024D01*
X19883Y-22024D01*
X19719Y-22024D01*
X19620Y-22024D01*
X19620Y-22020D01*
X19605Y-21982D01*
X19582Y-21948D01*
X19553Y-21919D01*
X19719Y-21919D01*
X21291Y-21919D01*
X21279Y-21927D01*
X21250Y-21955D01*
X21227Y-21989D01*
X21211Y-22026D01*
X21202Y-22066D01*
X21202Y-22107D01*
X21203Y-22112D01*
X20909Y-22407D01*
X20908Y-22408D01*
X20892Y-22427D01*
X20881Y-22449D01*
X20880Y-22451D01*
X20877Y-22459D01*
X20873Y-22473D01*
X20870Y-22496D01*
X20867Y-22497D01*
X20781Y-22531D01*
X20704Y-22582D01*
X20638Y-22646D01*
X20586Y-22722D01*
X20550Y-22807D01*
X20531Y-22897D01*
X20529Y-22989D01*
X20546Y-23080D01*
X20580Y-23166D01*
X20630Y-23243D01*
X20694Y-23310D01*
X20770Y-23362D01*
X20854Y-23399D01*
X20944Y-23419D01*
X21036Y-23421D01*
X21127Y-23405D01*
X21213Y-23372D01*
X21291Y-23322D01*
X21357Y-23259D01*
X21411Y-23183D01*
X21448Y-23099D01*
X21469Y-23009D01*
X21470Y-22904D01*
X21452Y-22814D01*
X21417Y-22728D01*
X21366Y-22652D01*
X21301Y-22586D01*
X21225Y-22535D01*
X21171Y-22512D01*
X21386Y-22297D01*
X21426Y-22298D01*
X21466Y-22291D01*
X21504Y-22277D01*
X21538Y-22255D01*
X21568Y-22227D01*
X21591Y-22194D01*
X21608Y-22156D01*
X21617Y-22117D01*
X21618Y-22070D01*
X21610Y-22030D01*
X21595Y-21992D01*
X21572Y-21958D01*
X21551Y-21937D01*
X21558Y-21942D01*
X21595Y-21959D01*
X21635Y-21967D01*
X21676Y-21968D01*
X21716Y-21961D01*
X21754Y-21947D01*
X21788Y-21925D01*
X21794Y-21919D01*
X22254Y-21919D01*
X22685Y-22350D01*
X22686Y-22351D01*
X22687Y-22352D01*
X22710Y-22371D01*
X22711Y-22372D01*
X22719Y-22376D01*
X22737Y-22386D01*
X22739Y-22386D01*
X22767Y-22396D01*
X22798Y-22399D01*
X22799Y-22399D01*
X22800Y-22399D01*
X24319Y-22399D01*
X26798Y-22399D01*
X26799Y-22399D01*
X26808Y-22399D01*
X26809Y-22399D01*
X26810Y-22399D01*
X27204Y-22399D01*
X27405Y-22600D01*
X27406Y-22601D01*
X27407Y-22602D01*
X27430Y-22621D01*
X27431Y-22622D01*
X27453Y-22634D01*
X27457Y-22636D01*
X27459Y-22637D01*
X27464Y-22638D01*
X27487Y-22646D01*
X27518Y-22649D01*
X27519Y-22649D01*
X27520Y-22649D01*
X27777Y-22649D01*
X27753Y-22662D01*
X27712Y-22720D01*
X28000Y-23009D01*
X28288Y-22720D01*
X28247Y-22662D01*
X28221Y-22649D01*
X28474Y-22649D01*
X28574Y-22748D01*
X28550Y-22807D01*
X28531Y-22897D01*
X28529Y-22989D01*
X28546Y-23080D01*
X28580Y-23166D01*
X28630Y-23243D01*
X28694Y-23310D01*
X28770Y-23362D01*
X28854Y-23399D01*
X28944Y-23419D01*
X29036Y-23421D01*
X29127Y-23405D01*
X29213Y-23372D01*
X29291Y-23322D01*
X29357Y-23259D01*
X29411Y-23183D01*
X29448Y-23099D01*
X29469Y-23009D01*
X29470Y-22904D01*
X29452Y-22814D01*
X29417Y-22728D01*
X29366Y-22652D01*
X29301Y-22586D01*
X29225Y-22535D01*
X29140Y-22499D01*
X29049Y-22480D01*
X28957Y-22480D01*
X28867Y-22497D01*
X28798Y-22524D01*
X28657Y-22383D01*
X28654Y-22379D01*
X28652Y-22378D01*
X28630Y-22359D01*
X28628Y-22358D01*
X28603Y-22344D01*
X28602Y-22343D01*
X28601Y-22343D01*
X28591Y-22340D01*
X28573Y-22334D01*
X28542Y-22331D01*
X28541Y-22331D01*
X28540Y-22331D01*
X28383Y-22331D01*
X28407Y-22309D01*
X28461Y-22233D01*
X28498Y-22149D01*
X28519Y-22059D01*
X28520Y-21954D01*
X28502Y-21864D01*
X28467Y-21778D01*
X28416Y-21702D01*
X28354Y-21640D01*
X28506Y-21640D01*
X28636Y-21770D01*
X28636Y-21772D01*
X28600Y-21857D01*
X28581Y-21947D01*
X28579Y-22039D01*
X28596Y-22130D01*
X28630Y-22216D01*
X28680Y-22293D01*
X28744Y-22360D01*
X28820Y-22412D01*
X28904Y-22449D01*
X28994Y-22469D01*
X29086Y-22471D01*
X29177Y-22455D01*
X29263Y-22422D01*
X29341Y-22372D01*
X29407Y-22309D01*
X29461Y-22233D01*
X29498Y-22149D01*
X29519Y-22059D01*
X29520Y-21954D01*
X29520Y-19954D01*
X29502Y-19864D01*
X29467Y-19778D01*
X29416Y-19702D01*
X29410Y-19695D01*
X29410Y-18992D01*
X29400Y-18902D01*
X29372Y-18817D01*
X29338Y-18753D01*
X29280Y-18712D01*
X29238Y-18753D01*
X29238Y-18670D01*
X29197Y-18612D01*
X29117Y-18571D01*
X29031Y-18547D01*
X28942Y-18540D01*
X28852Y-18550D01*
X28767Y-18578D01*
X28703Y-18612D01*
X28662Y-18670D01*
X28950Y-18959D01*
X29238Y-18670D01*
X29238Y-18753D01*
X28991Y-19000D01*
X29280Y-19288D01*
X29338Y-19247D01*
X29379Y-19167D01*
X29403Y-19081D01*
X29410Y-18992D01*
X29410Y-19695D01*
X29351Y-19636D01*
X29275Y-19585D01*
X29238Y-19569D01*
X29238Y-19330D01*
X28950Y-19041D01*
X28909Y-19082D01*
X28909Y-19000D01*
X28620Y-18712D01*
X28562Y-18753D01*
X28521Y-18833D01*
X28497Y-18919D01*
X28490Y-19008D01*
X28500Y-19098D01*
X28528Y-19183D01*
X28562Y-19247D01*
X28620Y-19288D01*
X28909Y-19000D01*
X28909Y-19082D01*
X28662Y-19330D01*
X28703Y-19388D01*
X28783Y-19429D01*
X28869Y-19453D01*
X28958Y-19460D01*
X29048Y-19450D01*
X29133Y-19422D01*
X29197Y-19388D01*
X29238Y-19330D01*
X29238Y-19569D01*
X29190Y-19549D01*
X29099Y-19530D01*
X29007Y-19530D01*
X28917Y-19547D01*
X28831Y-19581D01*
X28754Y-19632D01*
X28688Y-19696D01*
X28636Y-19772D01*
X28600Y-19857D01*
X28581Y-19947D01*
X28579Y-20039D01*
X28596Y-20130D01*
X28630Y-20216D01*
X28680Y-20293D01*
X28744Y-20360D01*
X28820Y-20412D01*
X28904Y-20449D01*
X28994Y-20469D01*
X29086Y-20471D01*
X29177Y-20455D01*
X29263Y-20422D01*
X29341Y-20372D01*
X29407Y-20309D01*
X29461Y-20233D01*
X29498Y-20149D01*
X29519Y-20059D01*
X29520Y-19954D01*
X29520Y-21954D01*
X29502Y-21864D01*
X29467Y-21778D01*
X29420Y-21707D01*
X29420Y-20954D01*
X29402Y-20864D01*
X29367Y-20778D01*
X29316Y-20702D01*
X29251Y-20636D01*
X29175Y-20585D01*
X29090Y-20549D01*
X28999Y-20530D01*
X28907Y-20530D01*
X28817Y-20547D01*
X28731Y-20581D01*
X28654Y-20632D01*
X28588Y-20696D01*
X28536Y-20772D01*
X28520Y-20809D01*
X28520Y-19954D01*
X28502Y-19864D01*
X28467Y-19778D01*
X28416Y-19702D01*
X28351Y-19636D01*
X28275Y-19585D01*
X28190Y-19549D01*
X28099Y-19530D01*
X28007Y-19530D01*
X27917Y-19547D01*
X27831Y-19581D01*
X27754Y-19632D01*
X27688Y-19696D01*
X27636Y-19772D01*
X27600Y-19857D01*
X27581Y-19947D01*
X27579Y-20039D01*
X27596Y-20130D01*
X27630Y-20216D01*
X27680Y-20293D01*
X27744Y-20360D01*
X27820Y-20412D01*
X27904Y-20449D01*
X27994Y-20469D01*
X28086Y-20471D01*
X28177Y-20455D01*
X28263Y-20422D01*
X28341Y-20372D01*
X28407Y-20309D01*
X28461Y-20233D01*
X28498Y-20149D01*
X28519Y-20059D01*
X28520Y-19954D01*
X28520Y-20809D01*
X28500Y-20857D01*
X28481Y-20947D01*
X28479Y-21039D01*
X28496Y-21130D01*
X28530Y-21216D01*
X28580Y-21293D01*
X28644Y-21360D01*
X28720Y-21412D01*
X28804Y-21449D01*
X28894Y-21469D01*
X28986Y-21471D01*
X29077Y-21455D01*
X29163Y-21422D01*
X29241Y-21372D01*
X29307Y-21309D01*
X29361Y-21233D01*
X29398Y-21149D01*
X29419Y-21059D01*
X29420Y-20954D01*
X29420Y-21707D01*
X29416Y-21702D01*
X29351Y-21636D01*
X29275Y-21585D01*
X29190Y-21549D01*
X29099Y-21530D01*
X29007Y-21530D01*
X28917Y-21547D01*
X28831Y-21581D01*
X28821Y-21587D01*
X28653Y-21419D01*
X28652Y-21418D01*
X28633Y-21402D01*
X28611Y-21391D01*
X28609Y-21390D01*
X28601Y-21387D01*
X28587Y-21383D01*
X28562Y-21380D01*
X28560Y-21380D01*
X28228Y-21380D01*
X28241Y-21372D01*
X28307Y-21309D01*
X28361Y-21233D01*
X28398Y-21149D01*
X28419Y-21059D01*
X28420Y-20954D01*
X28402Y-20864D01*
X28367Y-20778D01*
X28316Y-20702D01*
X28251Y-20636D01*
X28175Y-20585D01*
X28090Y-20549D01*
X27999Y-20530D01*
X27907Y-20530D01*
X27817Y-20547D01*
X27731Y-20581D01*
X27721Y-20587D01*
X27672Y-20538D01*
X27369Y-20235D01*
X27369Y-19292D01*
X27376Y-19291D01*
X27414Y-19277D01*
X27448Y-19255D01*
X27478Y-19227D01*
X27501Y-19194D01*
X27511Y-19169D01*
X27530Y-19216D01*
X27580Y-19293D01*
X27644Y-19360D01*
X27720Y-19412D01*
X27804Y-19449D01*
X27894Y-19469D01*
X27986Y-19471D01*
X28077Y-19455D01*
X28163Y-19422D01*
X28241Y-19372D01*
X28307Y-19309D01*
X28361Y-19233D01*
X28398Y-19149D01*
X28419Y-19059D01*
X28420Y-18954D01*
X28402Y-18864D01*
X28367Y-18778D01*
X28316Y-18702D01*
X28273Y-18659D01*
X28548Y-18659D01*
X28550Y-18659D01*
X28579Y-18656D01*
X28581Y-18656D01*
X28597Y-18651D01*
X28609Y-18648D01*
X28611Y-18647D01*
X28637Y-18634D01*
X28638Y-18632D01*
X28661Y-18614D01*
X28661Y-18613D01*
X28662Y-18613D01*
X28662Y-18612D01*
X28666Y-18607D01*
X28849Y-18424D01*
X28904Y-18449D01*
X28994Y-18469D01*
X29086Y-18471D01*
X29177Y-18455D01*
X29263Y-18422D01*
X29341Y-18372D01*
X29407Y-18309D01*
X29461Y-18233D01*
X29498Y-18149D01*
X29519Y-18059D01*
X29520Y-17954D01*
X29502Y-17864D01*
X29470Y-17785D01*
X29470Y-16904D01*
X29452Y-16814D01*
X29417Y-16728D01*
X29366Y-16652D01*
X29301Y-16586D01*
X29225Y-16535D01*
X29140Y-16499D01*
X29049Y-16480D01*
X28957Y-16480D01*
X28867Y-16497D01*
X28781Y-16531D01*
X28704Y-16582D01*
X28638Y-16646D01*
X28586Y-16722D01*
X28550Y-16807D01*
X28531Y-16897D01*
X28529Y-16989D01*
X28546Y-17080D01*
X28580Y-17166D01*
X28630Y-17243D01*
X28694Y-17310D01*
X28770Y-17362D01*
X28854Y-17399D01*
X28944Y-17419D01*
X29036Y-17421D01*
X29127Y-17405D01*
X29213Y-17372D01*
X29291Y-17322D01*
X29357Y-17259D01*
X29411Y-17183D01*
X29448Y-17099D01*
X29469Y-17009D01*
X29470Y-16904D01*
X29470Y-17785D01*
X29467Y-17778D01*
X29416Y-17702D01*
X29351Y-17636D01*
X29275Y-17585D01*
X29190Y-17549D01*
X29099Y-17530D01*
X29007Y-17530D01*
X28917Y-17547D01*
X28831Y-17581D01*
X28754Y-17632D01*
X28688Y-17696D01*
X28636Y-17772D01*
X28600Y-17857D01*
X28581Y-17947D01*
X28579Y-18039D01*
X28596Y-18130D01*
X28624Y-18201D01*
X28484Y-18341D01*
X28373Y-18341D01*
X28407Y-18309D01*
X28461Y-18233D01*
X28498Y-18149D01*
X28519Y-18059D01*
X28520Y-17954D01*
X28502Y-17864D01*
X28470Y-17785D01*
X28470Y-17004D01*
X28452Y-16914D01*
X28417Y-16828D01*
X28366Y-16752D01*
X28301Y-16686D01*
X28225Y-16635D01*
X28140Y-16599D01*
X28049Y-16580D01*
X27957Y-16580D01*
X27867Y-16597D01*
X27781Y-16631D01*
X27704Y-16682D01*
X27638Y-16746D01*
X27586Y-16822D01*
X27550Y-16907D01*
X27531Y-16997D01*
X27529Y-17089D01*
X27546Y-17180D01*
X27580Y-17266D01*
X27630Y-17343D01*
X27694Y-17410D01*
X27770Y-17462D01*
X27854Y-17499D01*
X27944Y-17519D01*
X28036Y-17521D01*
X28127Y-17505D01*
X28213Y-17472D01*
X28291Y-17422D01*
X28357Y-17359D01*
X28411Y-17283D01*
X28448Y-17199D01*
X28469Y-17109D01*
X28470Y-17004D01*
X28470Y-17785D01*
X28467Y-17778D01*
X28416Y-17702D01*
X28351Y-17636D01*
X28275Y-17585D01*
X28190Y-17549D01*
X28099Y-17530D01*
X28007Y-17530D01*
X27917Y-17547D01*
X27831Y-17581D01*
X27754Y-17632D01*
X27688Y-17696D01*
X27636Y-17772D01*
X27600Y-17857D01*
X27581Y-17947D01*
X27579Y-18039D01*
X27596Y-18130D01*
X27608Y-18162D01*
X27470Y-18162D01*
X27470Y-16904D01*
X27452Y-16814D01*
X27417Y-16728D01*
X27366Y-16652D01*
X27301Y-16586D01*
X27225Y-16535D01*
X27140Y-16499D01*
X27049Y-16480D01*
X26957Y-16480D01*
X26867Y-16497D01*
X26781Y-16531D01*
X26704Y-16582D01*
X26638Y-16646D01*
X26586Y-16722D01*
X26550Y-16807D01*
X26531Y-16897D01*
X26529Y-16989D01*
X26546Y-17080D01*
X26580Y-17166D01*
X26630Y-17243D01*
X26694Y-17310D01*
X26770Y-17362D01*
X26854Y-17399D01*
X26944Y-17419D01*
X27036Y-17421D01*
X27127Y-17405D01*
X27213Y-17372D01*
X27291Y-17322D01*
X27357Y-17259D01*
X27411Y-17183D01*
X27448Y-17099D01*
X27469Y-17009D01*
X27470Y-16904D01*
X27470Y-18162D01*
X27237Y-18162D01*
X27235Y-18162D01*
X27204Y-18165D01*
X27188Y-18169D01*
X27176Y-18173D01*
X27174Y-18174D01*
X27148Y-18187D01*
X27124Y-18207D01*
X27123Y-18207D01*
X27123Y-18208D01*
X27118Y-18214D01*
X27068Y-18264D01*
X27068Y-18111D01*
X27068Y-18109D01*
X27065Y-18080D01*
X27065Y-18078D01*
X27056Y-18050D01*
X27056Y-18048D01*
X27046Y-18030D01*
X27042Y-18022D01*
X27041Y-18021D01*
X27037Y-18017D01*
X27022Y-17998D01*
X27022Y-17997D01*
X27021Y-17996D01*
X26817Y-17793D01*
X26814Y-17789D01*
X26812Y-17788D01*
X26790Y-17769D01*
X26788Y-17768D01*
X26763Y-17754D01*
X26762Y-17753D01*
X26761Y-17753D01*
X26751Y-17750D01*
X26733Y-17744D01*
X26702Y-17741D01*
X26701Y-17741D01*
X26700Y-17741D01*
X26470Y-17741D01*
X26470Y-17004D01*
X26452Y-16914D01*
X26417Y-16828D01*
X26366Y-16752D01*
X26301Y-16686D01*
X26225Y-16635D01*
X26140Y-16599D01*
X26049Y-16580D01*
X25957Y-16580D01*
X25867Y-16597D01*
X25781Y-16631D01*
X25704Y-16682D01*
X25638Y-16746D01*
X25586Y-16822D01*
X25550Y-16907D01*
X25531Y-16997D01*
X25529Y-17089D01*
X25546Y-17180D01*
X25580Y-17266D01*
X25630Y-17343D01*
X25694Y-17410D01*
X25770Y-17462D01*
X25854Y-17499D01*
X25944Y-17519D01*
X26036Y-17521D01*
X26127Y-17505D01*
X26213Y-17472D01*
X26291Y-17422D01*
X26357Y-17359D01*
X26411Y-17283D01*
X26448Y-17199D01*
X26469Y-17109D01*
X26470Y-17004D01*
X26470Y-17741D01*
X25832Y-17741D01*
X25830Y-17741D01*
X25799Y-17744D01*
X25769Y-17753D01*
X25751Y-17763D01*
X25743Y-17767D01*
X25738Y-17771D01*
X25718Y-17787D01*
X25717Y-17787D01*
X25717Y-17788D01*
X25618Y-17887D01*
X25614Y-17891D01*
X25594Y-17915D01*
X25588Y-17925D01*
X25540Y-17925D01*
X25521Y-17929D01*
X25503Y-17936D01*
X25486Y-17947D01*
X25472Y-17961D01*
X25470Y-17964D01*
X25470Y-16904D01*
X25452Y-16814D01*
X25417Y-16728D01*
X25366Y-16652D01*
X25301Y-16586D01*
X25225Y-16535D01*
X25140Y-16499D01*
X25049Y-16480D01*
X24957Y-16480D01*
X24867Y-16497D01*
X24781Y-16531D01*
X24704Y-16582D01*
X24638Y-16646D01*
X24586Y-16722D01*
X24550Y-16807D01*
X24531Y-16897D01*
X24529Y-16989D01*
X24546Y-17080D01*
X24580Y-17166D01*
X24630Y-17243D01*
X24694Y-17310D01*
X24770Y-17362D01*
X24854Y-17399D01*
X24944Y-17419D01*
X25036Y-17421D01*
X25127Y-17405D01*
X25213Y-17372D01*
X25291Y-17322D01*
X25357Y-17259D01*
X25411Y-17183D01*
X25448Y-17099D01*
X25469Y-17009D01*
X25470Y-16904D01*
X25470Y-17964D01*
X25462Y-17977D01*
X25454Y-17995D01*
X25450Y-18015D01*
X25450Y-18034D01*
X25450Y-18585D01*
X25454Y-18604D01*
X25461Y-18622D01*
X25472Y-18639D01*
X25486Y-18653D01*
X25502Y-18663D01*
X25520Y-18671D01*
X25540Y-18675D01*
X25559Y-18675D01*
X25566Y-18675D01*
X25566Y-18707D01*
X25550Y-18714D01*
X25533Y-18725D01*
X25519Y-18739D01*
X25509Y-18755D01*
X25501Y-18773D01*
X25497Y-18793D01*
X25497Y-18812D01*
X25497Y-19162D01*
X25452Y-19118D01*
X25449Y-19114D01*
X25447Y-19113D01*
X25425Y-19094D01*
X25423Y-19093D01*
X25398Y-19079D01*
X25397Y-19078D01*
X25396Y-19078D01*
X25386Y-19075D01*
X25368Y-19069D01*
X25337Y-19066D01*
X25336Y-19066D01*
X25335Y-19066D01*
X25075Y-19066D01*
X25075Y-19040D01*
X25071Y-19021D01*
X25064Y-19003D01*
X25053Y-18986D01*
X25039Y-18972D01*
X25023Y-18962D01*
X25005Y-18954D01*
X24985Y-18950D01*
X24966Y-18950D01*
X24470Y-18950D01*
X24470Y-17004D01*
X24452Y-16914D01*
X24417Y-16828D01*
X24366Y-16752D01*
X24301Y-16686D01*
X24225Y-16635D01*
X24140Y-16599D01*
X24049Y-16580D01*
X23957Y-16580D01*
X23867Y-16597D01*
X23781Y-16631D01*
X23704Y-16682D01*
X23638Y-16746D01*
X23586Y-16822D01*
X23550Y-16907D01*
X23531Y-16997D01*
X23529Y-17089D01*
X23546Y-17180D01*
X23580Y-17266D01*
X23630Y-17343D01*
X23694Y-17410D01*
X23770Y-17462D01*
X23854Y-17499D01*
X23944Y-17519D01*
X24036Y-17521D01*
X24127Y-17505D01*
X24213Y-17472D01*
X24291Y-17422D01*
X24357Y-17359D01*
X24411Y-17283D01*
X24448Y-17199D01*
X24469Y-17109D01*
X24470Y-17004D01*
X24470Y-18950D01*
X24415Y-18950D01*
X24396Y-18954D01*
X24378Y-18961D01*
X24361Y-18972D01*
X24347Y-18986D01*
X24337Y-19002D01*
X24329Y-19020D01*
X24325Y-19040D01*
X24325Y-19059D01*
X24325Y-19390D01*
X24284Y-19431D01*
X23725Y-19431D01*
X23725Y-19416D01*
X23725Y-19165D01*
X23721Y-19146D01*
X23714Y-19128D01*
X23713Y-19126D01*
X23713Y-18834D01*
X23713Y-18751D01*
X23713Y-18649D01*
X23713Y-18566D01*
X23710Y-18549D01*
X23703Y-18533D01*
X23693Y-18519D01*
X23681Y-18507D01*
X23667Y-18497D01*
X23651Y-18490D01*
X23634Y-18487D01*
X23617Y-18487D01*
X23470Y-18487D01*
X23470Y-16904D01*
X23452Y-16814D01*
X23417Y-16728D01*
X23366Y-16652D01*
X23301Y-16586D01*
X23225Y-16535D01*
X23140Y-16499D01*
X23049Y-16480D01*
X22957Y-16480D01*
X22867Y-16497D01*
X22781Y-16531D01*
X22704Y-16582D01*
X22638Y-16646D01*
X22586Y-16722D01*
X22550Y-16807D01*
X22531Y-16897D01*
X22529Y-16989D01*
X22546Y-17080D01*
X22547Y-17083D01*
X22469Y-17005D01*
X22470Y-17004D01*
X22452Y-16914D01*
X22417Y-16828D01*
X22366Y-16752D01*
X22301Y-16686D01*
X22225Y-16635D01*
X22140Y-16599D01*
X22049Y-16580D01*
X21957Y-16580D01*
X21867Y-16597D01*
X21781Y-16631D01*
X21704Y-16682D01*
X21638Y-16746D01*
X21586Y-16822D01*
X21550Y-16907D01*
X21531Y-16997D01*
X21529Y-17089D01*
X21546Y-17180D01*
X21580Y-17266D01*
X21630Y-17343D01*
X21694Y-17410D01*
X21770Y-17462D01*
X21854Y-17499D01*
X21944Y-17519D01*
X22036Y-17521D01*
X22127Y-17505D01*
X22213Y-17472D01*
X22291Y-17422D01*
X22357Y-17359D01*
X22397Y-17301D01*
X22726Y-17630D01*
X22238Y-17630D01*
X22219Y-17634D01*
X22201Y-17641D01*
X22184Y-17652D01*
X22170Y-17666D01*
X22160Y-17682D01*
X22152Y-17700D01*
X22148Y-17720D01*
X21953Y-17720D01*
X21412Y-17179D01*
X21448Y-17099D01*
X21469Y-17009D01*
X21470Y-16904D01*
X21452Y-16814D01*
X21417Y-16728D01*
X21366Y-16652D01*
X21301Y-16586D01*
X21225Y-16535D01*
X21140Y-16499D01*
X21049Y-16480D01*
X20957Y-16480D01*
X20867Y-16497D01*
X20781Y-16531D01*
X20704Y-16582D01*
X20638Y-16646D01*
X20586Y-16722D01*
X20550Y-16807D01*
X20531Y-16897D01*
X20529Y-16989D01*
X20546Y-17080D01*
X20580Y-17166D01*
X20630Y-17243D01*
X20694Y-17310D01*
X20770Y-17362D01*
X20854Y-17399D01*
X20944Y-17419D01*
X21036Y-17421D01*
X21127Y-17405D01*
X21213Y-17372D01*
X21228Y-17362D01*
X21803Y-17936D01*
X21807Y-17941D01*
X21808Y-17941D01*
X21816Y-17948D01*
X21827Y-17958D01*
X21849Y-17969D01*
X21850Y-17970D01*
X21866Y-17974D01*
X21873Y-17977D01*
X21874Y-17977D01*
X21898Y-17980D01*
X21899Y-17980D01*
X21900Y-17980D01*
X22148Y-17980D01*
X22152Y-17999D01*
X22159Y-18017D01*
X22170Y-18034D01*
X22184Y-18048D01*
X22200Y-18058D01*
X22218Y-18066D01*
X22238Y-18070D01*
X22257Y-18070D01*
X22736Y-18070D01*
X22676Y-18130D01*
X22238Y-18130D01*
X22219Y-18134D01*
X22201Y-18141D01*
X22184Y-18152D01*
X22170Y-18166D01*
X22160Y-18182D01*
X22152Y-18200D01*
X22148Y-18220D01*
X22148Y-18239D01*
X22148Y-18480D01*
X22152Y-18499D01*
X22159Y-18517D01*
X22170Y-18534D01*
X22184Y-18548D01*
X22200Y-18558D01*
X22218Y-18566D01*
X22238Y-18570D01*
X22257Y-18570D01*
X22888Y-18570D01*
X22907Y-18566D01*
X22925Y-18559D01*
X22942Y-18548D01*
X22956Y-18534D01*
X22966Y-18518D01*
X22974Y-18500D01*
X22978Y-18480D01*
X22978Y-18461D01*
X22978Y-18220D01*
X22974Y-18201D01*
X22973Y-18199D01*
X23056Y-18116D01*
X23061Y-18113D01*
X23061Y-18112D01*
X23068Y-18103D01*
X23077Y-18093D01*
X23078Y-18093D01*
X23089Y-18071D01*
X23090Y-18070D01*
X23094Y-18054D01*
X23097Y-18047D01*
X23097Y-18046D01*
X23100Y-18022D01*
X23100Y-18020D01*
X23100Y-17691D01*
X23100Y-17690D01*
X23098Y-17665D01*
X23090Y-17642D01*
X23090Y-17640D01*
X23082Y-17625D01*
X23079Y-17619D01*
X23078Y-17618D01*
X23063Y-17599D01*
X23062Y-17598D01*
X22865Y-17401D01*
X22944Y-17419D01*
X23036Y-17421D01*
X23127Y-17405D01*
X23213Y-17372D01*
X23291Y-17322D01*
X23357Y-17259D01*
X23411Y-17183D01*
X23448Y-17099D01*
X23469Y-17009D01*
X23470Y-16904D01*
X23470Y-18487D01*
X23451Y-18487D01*
X23429Y-18509D01*
X23429Y-18671D01*
X23691Y-18671D01*
X23713Y-18649D01*
X23713Y-18751D01*
X23691Y-18729D01*
X23429Y-18729D01*
X23429Y-18891D01*
X23451Y-18913D01*
X23617Y-18913D01*
X23634Y-18913D01*
X23651Y-18910D01*
X23667Y-18903D01*
X23681Y-18893D01*
X23693Y-18881D01*
X23703Y-18867D01*
X23710Y-18851D01*
X23713Y-18834D01*
X23713Y-19126D01*
X23703Y-19111D01*
X23689Y-19097D01*
X23673Y-19087D01*
X23655Y-19079D01*
X23635Y-19075D01*
X23616Y-19075D01*
X23371Y-19075D01*
X23371Y-18891D01*
X23371Y-18729D01*
X23371Y-18671D01*
X23371Y-18509D01*
X23349Y-18487D01*
X23183Y-18487D01*
X23166Y-18487D01*
X23149Y-18490D01*
X23133Y-18497D01*
X23119Y-18507D01*
X23107Y-18519D01*
X23097Y-18533D01*
X23090Y-18549D01*
X23087Y-18566D01*
X23087Y-18649D01*
X23109Y-18671D01*
X23371Y-18671D01*
X23371Y-18729D01*
X23109Y-18729D01*
X23087Y-18751D01*
X23087Y-18834D01*
X23090Y-18851D01*
X23097Y-18867D01*
X23107Y-18881D01*
X23119Y-18893D01*
X23133Y-18903D01*
X23149Y-18910D01*
X23166Y-18913D01*
X23183Y-18913D01*
X23349Y-18913D01*
X23371Y-18891D01*
X23371Y-19075D01*
X23165Y-19075D01*
X23146Y-19079D01*
X23128Y-19086D01*
X23111Y-19097D01*
X23097Y-19111D01*
X23087Y-19127D01*
X23080Y-19141D01*
X22923Y-19141D01*
X22908Y-19134D01*
X22888Y-19130D01*
X22869Y-19130D01*
X22693Y-19130D01*
X22693Y-19070D01*
X22888Y-19070D01*
X22907Y-19066D01*
X22925Y-19059D01*
X22942Y-19048D01*
X22956Y-19034D01*
X22966Y-19018D01*
X22974Y-19000D01*
X22978Y-18980D01*
X22978Y-18961D01*
X22978Y-18720D01*
X22974Y-18701D01*
X22967Y-18683D01*
X22956Y-18666D01*
X22942Y-18652D01*
X22926Y-18642D01*
X22908Y-18634D01*
X22888Y-18630D01*
X22869Y-18630D01*
X22238Y-18630D01*
X22219Y-18634D01*
X22201Y-18641D01*
X22184Y-18652D01*
X22170Y-18666D01*
X22160Y-18682D01*
X22152Y-18700D01*
X22148Y-18720D01*
X22148Y-18739D01*
X22148Y-18980D01*
X22152Y-18999D01*
X22159Y-19017D01*
X22170Y-19034D01*
X22184Y-19048D01*
X22200Y-19058D01*
X22218Y-19066D01*
X22238Y-19070D01*
X22257Y-19070D01*
X22433Y-19070D01*
X22433Y-19130D01*
X22238Y-19130D01*
X22219Y-19134D01*
X22201Y-19141D01*
X22184Y-19152D01*
X22170Y-19166D01*
X22160Y-19182D01*
X22152Y-19200D01*
X22148Y-19220D01*
X22148Y-19239D01*
X22148Y-19252D01*
X21155Y-19252D01*
X21129Y-19225D01*
X21129Y-19145D01*
X21151Y-19114D01*
X21168Y-19076D01*
X21177Y-19037D01*
X21178Y-18990D01*
X21170Y-18950D01*
X21155Y-18912D01*
X21132Y-18878D01*
X21103Y-18849D01*
X21100Y-18846D01*
X21100Y-18591D01*
X21100Y-18590D01*
X21098Y-18565D01*
X21090Y-18542D01*
X21090Y-18540D01*
X21082Y-18525D01*
X21079Y-18519D01*
X21078Y-18518D01*
X21063Y-18499D01*
X21062Y-18498D01*
X20852Y-18288D01*
X20852Y-18220D01*
X20848Y-18201D01*
X20841Y-18183D01*
X20840Y-18181D01*
X20840Y-17979D01*
X20840Y-17901D01*
X20840Y-17799D01*
X20840Y-17721D01*
X20837Y-17704D01*
X20830Y-17688D01*
X20820Y-17674D01*
X20808Y-17662D01*
X20794Y-17652D01*
X20778Y-17645D01*
X20761Y-17642D01*
X20744Y-17642D01*
X20488Y-17642D01*
X20470Y-17660D01*
X20470Y-17004D01*
X20452Y-16914D01*
X20417Y-16828D01*
X20366Y-16752D01*
X20301Y-16686D01*
X20225Y-16635D01*
X20140Y-16599D01*
X20049Y-16580D01*
X19957Y-16580D01*
X19867Y-16597D01*
X19781Y-16631D01*
X19704Y-16682D01*
X19638Y-16746D01*
X19586Y-16822D01*
X19550Y-16907D01*
X19531Y-16997D01*
X19529Y-17089D01*
X19546Y-17180D01*
X19580Y-17266D01*
X19630Y-17343D01*
X19694Y-17410D01*
X19770Y-17462D01*
X19854Y-17499D01*
X19944Y-17519D01*
X20036Y-17521D01*
X20127Y-17505D01*
X20213Y-17472D01*
X20291Y-17422D01*
X20357Y-17359D01*
X20411Y-17283D01*
X20448Y-17199D01*
X20469Y-17109D01*
X20470Y-17004D01*
X20470Y-17660D01*
X20466Y-17664D01*
X20466Y-17821D01*
X20818Y-17821D01*
X20840Y-17799D01*
X20840Y-17901D01*
X20818Y-17879D01*
X20466Y-17879D01*
X20466Y-18036D01*
X20488Y-18058D01*
X20744Y-18058D01*
X20761Y-18058D01*
X20778Y-18055D01*
X20794Y-18048D01*
X20808Y-18038D01*
X20820Y-18026D01*
X20830Y-18012D01*
X20837Y-17996D01*
X20840Y-17979D01*
X20840Y-18181D01*
X20830Y-18166D01*
X20816Y-18152D01*
X20800Y-18142D01*
X20782Y-18134D01*
X20762Y-18130D01*
X20743Y-18130D01*
X20408Y-18130D01*
X20408Y-18036D01*
X20408Y-17879D01*
X20408Y-17821D01*
X20408Y-17664D01*
X20386Y-17642D01*
X20130Y-17642D01*
X20113Y-17642D01*
X20096Y-17645D01*
X20080Y-17652D01*
X20066Y-17662D01*
X20054Y-17674D01*
X20044Y-17688D01*
X20037Y-17704D01*
X20034Y-17721D01*
X20034Y-17799D01*
X20056Y-17821D01*
X20408Y-17821D01*
X20408Y-17879D01*
X20056Y-17879D01*
X20034Y-17901D01*
X20034Y-17979D01*
X20037Y-17996D01*
X20044Y-18012D01*
X20054Y-18026D01*
X20066Y-18038D01*
X20080Y-18048D01*
X20096Y-18055D01*
X20113Y-18058D01*
X20130Y-18058D01*
X20386Y-18058D01*
X20408Y-18036D01*
X20408Y-18130D01*
X20112Y-18130D01*
X20093Y-18134D01*
X20075Y-18141D01*
X20058Y-18152D01*
X20044Y-18166D01*
X20034Y-18182D01*
X20026Y-18200D01*
X20022Y-18220D01*
X20015Y-18220D01*
X20013Y-18206D01*
X20006Y-18188D01*
X20005Y-18186D01*
X20005Y-17974D01*
X20005Y-17901D01*
X20005Y-17799D01*
X20005Y-17726D01*
X20002Y-17709D01*
X19995Y-17693D01*
X19985Y-17679D01*
X19973Y-17667D01*
X19959Y-17657D01*
X19943Y-17650D01*
X19926Y-17647D01*
X19909Y-17647D01*
X19677Y-17647D01*
X19655Y-17669D01*
X19655Y-17821D01*
X19983Y-17821D01*
X20005Y-17799D01*
X20005Y-17901D01*
X19983Y-17879D01*
X19655Y-17879D01*
X19655Y-18031D01*
X19677Y-18053D01*
X19909Y-18053D01*
X19926Y-18053D01*
X19943Y-18050D01*
X19959Y-18043D01*
X19973Y-18033D01*
X19985Y-18021D01*
X19995Y-18007D01*
X20002Y-17991D01*
X20005Y-17974D01*
X20005Y-18186D01*
X19995Y-18171D01*
X19981Y-18157D01*
X19965Y-18147D01*
X19947Y-18139D01*
X19927Y-18135D01*
X19908Y-18135D01*
X19369Y-18135D01*
X19369Y-18053D01*
X19575Y-18053D01*
X19597Y-18031D01*
X19597Y-17909D01*
X19597Y-17879D01*
X19597Y-17821D01*
X19597Y-17791D01*
X19597Y-17669D01*
X19575Y-17647D01*
X19470Y-17647D01*
X19470Y-16904D01*
X19452Y-16814D01*
X19417Y-16728D01*
X19366Y-16652D01*
X19301Y-16586D01*
X19225Y-16535D01*
X19140Y-16499D01*
X19049Y-16480D01*
X18957Y-16480D01*
X18867Y-16497D01*
X18781Y-16531D01*
X18704Y-16582D01*
X18638Y-16646D01*
X18586Y-16722D01*
X18550Y-16807D01*
X18531Y-16897D01*
X18529Y-16989D01*
X18546Y-17080D01*
X18580Y-17166D01*
X18630Y-17243D01*
X18694Y-17310D01*
X18770Y-17362D01*
X18854Y-17399D01*
X18944Y-17419D01*
X19036Y-17421D01*
X19127Y-17405D01*
X19213Y-17372D01*
X19291Y-17322D01*
X19357Y-17259D01*
X19411Y-17183D01*
X19448Y-17099D01*
X19469Y-17009D01*
X19470Y-16904D01*
X19470Y-17647D01*
X19343Y-17647D01*
X19326Y-17647D01*
X19309Y-17650D01*
X19293Y-17657D01*
X19279Y-17667D01*
X19267Y-17679D01*
X19261Y-17686D01*
X19097Y-17523D01*
X19094Y-17519D01*
X19092Y-17518D01*
X19070Y-17499D01*
X19068Y-17498D01*
X19043Y-17484D01*
X19042Y-17483D01*
X19041Y-17483D01*
X19031Y-17480D01*
X19013Y-17474D01*
X18982Y-17471D01*
X18981Y-17471D01*
X18980Y-17471D01*
X18214Y-17471D01*
X18291Y-17422D01*
X18357Y-17359D01*
X18411Y-17283D01*
X18448Y-17199D01*
X18469Y-17109D01*
X18470Y-17004D01*
X18452Y-16914D01*
X18417Y-16828D01*
X18366Y-16752D01*
X18301Y-16686D01*
X18225Y-16635D01*
X18140Y-16599D01*
X18049Y-16580D01*
X17957Y-16580D01*
X17867Y-16597D01*
X17781Y-16631D01*
X17704Y-16682D01*
X17638Y-16746D01*
X17586Y-16822D01*
X17550Y-16907D01*
X17531Y-16997D01*
X17529Y-17089D01*
X17546Y-17180D01*
X17580Y-17266D01*
X17630Y-17343D01*
X17694Y-17410D01*
X17770Y-17462D01*
X17790Y-17471D01*
X17470Y-17471D01*
X17470Y-16904D01*
X17452Y-16814D01*
X17417Y-16728D01*
X17366Y-16652D01*
X17301Y-16586D01*
X17225Y-16535D01*
X17140Y-16499D01*
X17049Y-16480D01*
X16957Y-16480D01*
X16867Y-16497D01*
X16781Y-16531D01*
X16704Y-16582D01*
X16638Y-16646D01*
X16586Y-16722D01*
X16550Y-16807D01*
X16531Y-16897D01*
X16529Y-16989D01*
X16546Y-17080D01*
X16580Y-17166D01*
X16630Y-17243D01*
X16694Y-17310D01*
X16770Y-17362D01*
X16854Y-17399D01*
X16944Y-17419D01*
X17036Y-17421D01*
X17127Y-17405D01*
X17213Y-17372D01*
X17291Y-17322D01*
X17357Y-17259D01*
X17411Y-17183D01*
X17448Y-17099D01*
X17469Y-17009D01*
X17470Y-16904D01*
X17470Y-17471D01*
X16745Y-17471D01*
X16743Y-17469D01*
X16710Y-17446D01*
X16672Y-17431D01*
X16632Y-17422D01*
X16591Y-17422D01*
X16551Y-17429D01*
X16514Y-17445D01*
X16479Y-17467D01*
X16470Y-17475D01*
X16470Y-17004D01*
X16452Y-16914D01*
X16417Y-16828D01*
X16366Y-16752D01*
X16301Y-16686D01*
X16225Y-16635D01*
X16140Y-16599D01*
X16049Y-16580D01*
X15957Y-16580D01*
X15867Y-16597D01*
X15781Y-16631D01*
X15704Y-16682D01*
X15638Y-16746D01*
X15586Y-16822D01*
X15550Y-16907D01*
X15531Y-16997D01*
X15529Y-17089D01*
X15546Y-17180D01*
X15580Y-17266D01*
X15630Y-17343D01*
X15694Y-17410D01*
X15770Y-17462D01*
X15854Y-17499D01*
X15944Y-17519D01*
X16036Y-17521D01*
X16127Y-17505D01*
X16213Y-17472D01*
X16291Y-17422D01*
X16357Y-17359D01*
X16411Y-17283D01*
X16448Y-17199D01*
X16469Y-17109D01*
X16470Y-17004D01*
X16470Y-17475D01*
X16450Y-17495D01*
X16427Y-17529D01*
X16411Y-17566D01*
X16402Y-17606D01*
X16402Y-17647D01*
X16409Y-17687D01*
X16424Y-17725D01*
X16446Y-17759D01*
X16452Y-17766D01*
X16367Y-17766D01*
X16351Y-17742D01*
X16286Y-17676D01*
X16210Y-17625D01*
X16125Y-17589D01*
X16034Y-17570D01*
X15942Y-17570D01*
X15852Y-17587D01*
X15766Y-17621D01*
X15689Y-17672D01*
X15623Y-17736D01*
X15571Y-17812D01*
X15535Y-17897D01*
X15516Y-17987D01*
X15514Y-18079D01*
X15531Y-18170D01*
X15565Y-18256D01*
X15615Y-18333D01*
X15679Y-18400D01*
X15755Y-18452D01*
X15839Y-18489D01*
X15902Y-18503D01*
X15882Y-18507D01*
X15796Y-18541D01*
X15719Y-18592D01*
X15653Y-18656D01*
X15601Y-18732D01*
X15565Y-18817D01*
X15546Y-18907D01*
X15544Y-18999D01*
X15561Y-19090D01*
X15589Y-19161D01*
X15420Y-19330D01*
X14729Y-19330D01*
X14729Y-18012D01*
X14992Y-17749D01*
X15299Y-17749D01*
X15300Y-17749D01*
X15322Y-17747D01*
X15323Y-17747D01*
X15345Y-17740D01*
X15365Y-17730D01*
X15366Y-17729D01*
X15383Y-17715D01*
X15383Y-17714D01*
X15384Y-17714D01*
X15398Y-17697D01*
X15399Y-17697D01*
X15409Y-17677D01*
X15410Y-17676D01*
X15416Y-17655D01*
X15417Y-17654D01*
X15418Y-17634D01*
X15419Y-17632D01*
X15419Y-17631D01*
X15419Y-17630D01*
X15419Y-16616D01*
X15616Y-16419D01*
X29384Y-16419D01*
X29581Y-16616D01*
X29581Y-23384D01*
X29581Y-23384D01*
G37*
G54D11*
X29581Y-23384D02*
X29384Y-23581D01*
X28460Y-23581D01*
X28460Y-23042D01*
X28450Y-22952D01*
X28422Y-22867D01*
X28388Y-22803D01*
X28330Y-22762D01*
X28041Y-23050D01*
X28330Y-23338D01*
X28388Y-23297D01*
X28429Y-23217D01*
X28453Y-23131D01*
X28460Y-23042D01*
X28460Y-23581D01*
X28288Y-23581D01*
X28288Y-23380D01*
X28000Y-23091D01*
X27959Y-23132D01*
X27959Y-23050D01*
X27670Y-22762D01*
X27612Y-22803D01*
X27571Y-22883D01*
X27547Y-22969D01*
X27540Y-23058D01*
X27550Y-23148D01*
X27578Y-23233D01*
X27612Y-23297D01*
X27670Y-23338D01*
X27959Y-23050D01*
X27959Y-23132D01*
X27712Y-23380D01*
X27753Y-23438D01*
X27833Y-23479D01*
X27919Y-23503D01*
X28008Y-23510D01*
X28098Y-23500D01*
X28183Y-23472D01*
X28247Y-23438D01*
X28288Y-23380D01*
X28288Y-23581D01*
X27470Y-23581D01*
X27470Y-22904D01*
X27452Y-22814D01*
X27417Y-22728D01*
X27366Y-22652D01*
X27301Y-22586D01*
X27225Y-22535D01*
X27140Y-22499D01*
X27049Y-22480D01*
X26957Y-22480D01*
X26867Y-22497D01*
X26781Y-22531D01*
X26704Y-22582D01*
X26638Y-22646D01*
X26586Y-22722D01*
X26550Y-22807D01*
X26531Y-22897D01*
X26529Y-22989D01*
X26546Y-23080D01*
X26580Y-23166D01*
X26630Y-23243D01*
X26694Y-23310D01*
X26770Y-23362D01*
X26854Y-23399D01*
X26944Y-23419D01*
X27036Y-23421D01*
X27127Y-23405D01*
X27213Y-23372D01*
X27291Y-23322D01*
X27357Y-23259D01*
X27411Y-23183D01*
X27448Y-23099D01*
X27469Y-23009D01*
X27470Y-22904D01*
X27470Y-23581D01*
X26470Y-23581D01*
X26470Y-23004D01*
X26452Y-22914D01*
X26417Y-22828D01*
X26366Y-22752D01*
X26301Y-22686D01*
X26225Y-22635D01*
X26140Y-22599D01*
X26049Y-22580D01*
X25957Y-22580D01*
X25867Y-22597D01*
X25781Y-22631D01*
X25704Y-22682D01*
X25638Y-22746D01*
X25586Y-22822D01*
X25550Y-22907D01*
X25531Y-22997D01*
X25529Y-23089D01*
X25546Y-23180D01*
X25580Y-23266D01*
X25630Y-23343D01*
X25694Y-23410D01*
X25770Y-23462D01*
X25854Y-23499D01*
X25944Y-23519D01*
X26036Y-23521D01*
X26127Y-23505D01*
X26213Y-23472D01*
X26291Y-23422D01*
X26357Y-23359D01*
X26411Y-23283D01*
X26448Y-23199D01*
X26469Y-23109D01*
X26470Y-23004D01*
X26470Y-23581D01*
X25470Y-23581D01*
X25470Y-22904D01*
X25452Y-22814D01*
X25417Y-22728D01*
X25366Y-22652D01*
X25301Y-22586D01*
X25225Y-22535D01*
X25140Y-22499D01*
X25049Y-22480D01*
X24957Y-22480D01*
X24867Y-22497D01*
X24781Y-22531D01*
X24704Y-22582D01*
X24638Y-22646D01*
X24586Y-22722D01*
X24550Y-22807D01*
X24531Y-22897D01*
X24529Y-22989D01*
X24546Y-23080D01*
X24580Y-23166D01*
X24630Y-23243D01*
X24694Y-23310D01*
X24770Y-23362D01*
X24854Y-23399D01*
X24944Y-23419D01*
X25036Y-23421D01*
X25127Y-23405D01*
X25213Y-23372D01*
X25291Y-23322D01*
X25357Y-23259D01*
X25411Y-23183D01*
X25448Y-23099D01*
X25469Y-23009D01*
X25470Y-22904D01*
X25470Y-23581D01*
X24470Y-23581D01*
X24470Y-23004D01*
X24452Y-22914D01*
X24417Y-22828D01*
X24366Y-22752D01*
X24319Y-22704D01*
X24301Y-22686D01*
X24225Y-22635D01*
X24140Y-22599D01*
X24049Y-22580D01*
X23957Y-22580D01*
X23867Y-22597D01*
X23781Y-22631D01*
X23704Y-22682D01*
X23638Y-22746D01*
X23586Y-22822D01*
X23550Y-22907D01*
X23531Y-22997D01*
X23529Y-23089D01*
X23546Y-23180D01*
X23580Y-23266D01*
X23630Y-23343D01*
X23694Y-23410D01*
X23770Y-23462D01*
X23854Y-23499D01*
X23944Y-23519D01*
X24036Y-23521D01*
X24127Y-23505D01*
X24213Y-23472D01*
X24291Y-23422D01*
X24319Y-23395D01*
X24357Y-23359D01*
X24411Y-23283D01*
X24448Y-23199D01*
X24469Y-23109D01*
X24470Y-23004D01*
X24470Y-23581D01*
X24319Y-23581D01*
X23470Y-23581D01*
X23470Y-22904D01*
X23452Y-22814D01*
X23417Y-22728D01*
X23366Y-22652D01*
X23301Y-22586D01*
X23225Y-22535D01*
X23140Y-22499D01*
X23049Y-22480D01*
X22957Y-22480D01*
X22867Y-22497D01*
X22781Y-22531D01*
X22704Y-22582D01*
X22638Y-22646D01*
X22586Y-22722D01*
X22550Y-22807D01*
X22531Y-22897D01*
X22529Y-22989D01*
X22546Y-23080D01*
X22580Y-23166D01*
X22630Y-23243D01*
X22694Y-23310D01*
X22770Y-23362D01*
X22854Y-23399D01*
X22944Y-23419D01*
X23036Y-23421D01*
X23127Y-23405D01*
X23213Y-23372D01*
X23291Y-23322D01*
X23357Y-23259D01*
X23411Y-23183D01*
X23448Y-23099D01*
X23469Y-23009D01*
X23470Y-22904D01*
X23470Y-23581D01*
X22470Y-23581D01*
X22470Y-23004D01*
X22452Y-22914D01*
X22417Y-22828D01*
X22366Y-22752D01*
X22301Y-22686D01*
X22225Y-22635D01*
X22140Y-22599D01*
X22049Y-22580D01*
X21957Y-22580D01*
X21867Y-22597D01*
X21781Y-22631D01*
X21704Y-22682D01*
X21638Y-22746D01*
X21586Y-22822D01*
X21550Y-22907D01*
X21531Y-22997D01*
X21529Y-23089D01*
X21546Y-23180D01*
X21580Y-23266D01*
X21630Y-23343D01*
X21694Y-23410D01*
X21770Y-23462D01*
X21854Y-23499D01*
X21944Y-23519D01*
X22036Y-23521D01*
X22127Y-23505D01*
X22213Y-23472D01*
X22291Y-23422D01*
X22357Y-23359D01*
X22411Y-23283D01*
X22448Y-23199D01*
X22469Y-23109D01*
X22470Y-23004D01*
X22470Y-23581D01*
X19719Y-23581D01*
X17470Y-23581D01*
X17470Y-22904D01*
X17452Y-22814D01*
X17419Y-22732D01*
X17417Y-22728D01*
X17366Y-22652D01*
X17301Y-22586D01*
X17225Y-22535D01*
X17140Y-22499D01*
X17049Y-22480D01*
X16957Y-22480D01*
X16867Y-22497D01*
X16781Y-22531D01*
X16704Y-22582D01*
X16638Y-22646D01*
X16586Y-22722D01*
X16550Y-22807D01*
X16531Y-22897D01*
X16529Y-22989D01*
X16546Y-23080D01*
X16580Y-23166D01*
X16630Y-23243D01*
X16694Y-23310D01*
X16770Y-23362D01*
X16854Y-23399D01*
X16944Y-23419D01*
X17036Y-23421D01*
X17127Y-23405D01*
X17213Y-23372D01*
X17291Y-23322D01*
X17357Y-23259D01*
X17411Y-23183D01*
X17419Y-23164D01*
X17448Y-23099D01*
X17469Y-23009D01*
X17470Y-22904D01*
X17470Y-23581D01*
X17419Y-23581D01*
X16470Y-23581D01*
X16470Y-23004D01*
X16452Y-22914D01*
X16417Y-22828D01*
X16366Y-22752D01*
X16301Y-22686D01*
X16225Y-22635D01*
X16140Y-22599D01*
X16049Y-22580D01*
X15957Y-22580D01*
X15867Y-22597D01*
X15781Y-22631D01*
X15704Y-22682D01*
X15638Y-22746D01*
X15586Y-22822D01*
X15550Y-22907D01*
X15531Y-22997D01*
X15529Y-23089D01*
X15546Y-23180D01*
X15580Y-23266D01*
X15630Y-23343D01*
X15694Y-23410D01*
X15770Y-23462D01*
X15854Y-23499D01*
X15944Y-23519D01*
X16036Y-23521D01*
X16127Y-23505D01*
X16213Y-23472D01*
X16291Y-23422D01*
X16357Y-23359D01*
X16411Y-23283D01*
X16448Y-23199D01*
X16469Y-23109D01*
X16470Y-23004D01*
X16470Y-23581D01*
X15616Y-23581D01*
X15419Y-23384D01*
X15419Y-22375D01*
X15419Y-22374D01*
X15417Y-22352D01*
X15417Y-22351D01*
X15410Y-22329D01*
X15400Y-22309D01*
X15399Y-22308D01*
X15385Y-22291D01*
X15384Y-22290D01*
X15367Y-22275D01*
X15347Y-22265D01*
X15346Y-22264D01*
X15324Y-22257D01*
X15304Y-22255D01*
X15302Y-22255D01*
X15301Y-22255D01*
X15300Y-22255D01*
X14996Y-22255D01*
X14729Y-21988D01*
X14729Y-20915D01*
X14818Y-20915D01*
X14837Y-20911D01*
X14855Y-20904D01*
X14860Y-20900D01*
X14864Y-20903D01*
X14882Y-20911D01*
X14902Y-20915D01*
X14921Y-20915D01*
X15037Y-20915D01*
X15714Y-21592D01*
X15654Y-21632D01*
X15588Y-21696D01*
X15536Y-21772D01*
X15500Y-21857D01*
X15481Y-21947D01*
X15479Y-22039D01*
X15496Y-22130D01*
X15530Y-22216D01*
X15580Y-22293D01*
X15644Y-22360D01*
X15720Y-22412D01*
X15804Y-22449D01*
X15894Y-22469D01*
X15986Y-22471D01*
X16077Y-22455D01*
X16163Y-22422D01*
X16241Y-22372D01*
X16307Y-22309D01*
X16361Y-22233D01*
X16398Y-22149D01*
X16419Y-22059D01*
X16420Y-21954D01*
X16402Y-21864D01*
X16367Y-21778D01*
X16316Y-21702D01*
X16251Y-21636D01*
X16175Y-21585D01*
X16100Y-21553D01*
X16098Y-21544D01*
X16097Y-21542D01*
X16084Y-21516D01*
X16064Y-21492D01*
X16063Y-21491D01*
X16062Y-21490D01*
X16042Y-21470D01*
X16086Y-21471D01*
X16177Y-21455D01*
X16263Y-21422D01*
X16341Y-21372D01*
X16407Y-21309D01*
X16461Y-21233D01*
X16498Y-21149D01*
X16519Y-21059D01*
X16520Y-20954D01*
X16502Y-20864D01*
X16467Y-20778D01*
X16416Y-20702D01*
X16351Y-20636D01*
X16275Y-20585D01*
X16190Y-20549D01*
X16099Y-20530D01*
X16007Y-20530D01*
X15917Y-20547D01*
X15831Y-20581D01*
X15754Y-20632D01*
X15688Y-20696D01*
X15663Y-20732D01*
X15262Y-20331D01*
X15262Y-20155D01*
X15258Y-20136D01*
X15255Y-20130D01*
X15496Y-20130D01*
X15530Y-20216D01*
X15580Y-20293D01*
X15644Y-20360D01*
X15720Y-20412D01*
X15804Y-20449D01*
X15894Y-20469D01*
X15986Y-20471D01*
X16077Y-20455D01*
X16163Y-20422D01*
X16241Y-20372D01*
X16307Y-20309D01*
X16361Y-20233D01*
X16398Y-20149D01*
X16405Y-20119D01*
X16477Y-20191D01*
X16478Y-20192D01*
X16497Y-20208D01*
X16519Y-20219D01*
X16520Y-20220D01*
X16536Y-20224D01*
X16543Y-20227D01*
X16544Y-20227D01*
X16568Y-20230D01*
X16570Y-20230D01*
X16850Y-20230D01*
X16850Y-20260D01*
X16854Y-20279D01*
X16861Y-20297D01*
X16872Y-20314D01*
X16886Y-20328D01*
X16902Y-20338D01*
X16920Y-20346D01*
X16940Y-20350D01*
X16959Y-20350D01*
X17260Y-20350D01*
X17279Y-20346D01*
X17297Y-20339D01*
X17314Y-20328D01*
X17328Y-20314D01*
X17338Y-20298D01*
X17346Y-20280D01*
X17350Y-20260D01*
X17350Y-20241D01*
X17350Y-19940D01*
X17346Y-19921D01*
X17339Y-19903D01*
X17328Y-19886D01*
X17314Y-19872D01*
X17298Y-19862D01*
X17280Y-19854D01*
X17260Y-19850D01*
X17241Y-19850D01*
X16940Y-19850D01*
X16921Y-19854D01*
X16903Y-19861D01*
X16886Y-19872D01*
X16872Y-19886D01*
X16862Y-19902D01*
X16854Y-19920D01*
X16850Y-19940D01*
X16850Y-19959D01*
X16850Y-19970D01*
X16624Y-19970D01*
X16550Y-19896D01*
X16550Y-19690D01*
X16548Y-19665D01*
X16540Y-19641D01*
X16540Y-19640D01*
X16528Y-19619D01*
X16528Y-19618D01*
X16516Y-19603D01*
X16513Y-19599D01*
X16512Y-19598D01*
X16511Y-19597D01*
X16303Y-19389D01*
X16302Y-19388D01*
X16283Y-19372D01*
X16261Y-19361D01*
X16260Y-19360D01*
X16306Y-19332D01*
X16372Y-19269D01*
X16426Y-19193D01*
X16463Y-19109D01*
X16484Y-19019D01*
X16485Y-18914D01*
X16469Y-18834D01*
X16725Y-18834D01*
X16725Y-18860D01*
X16729Y-18879D01*
X16736Y-18897D01*
X16747Y-18914D01*
X16761Y-18928D01*
X16777Y-18938D01*
X16795Y-18946D01*
X16815Y-18950D01*
X16834Y-18950D01*
X17150Y-18950D01*
X17310Y-19110D01*
X17311Y-19111D01*
X17312Y-19112D01*
X17335Y-19131D01*
X17336Y-19132D01*
X17358Y-19144D01*
X17362Y-19146D01*
X17364Y-19147D01*
X17369Y-19148D01*
X17392Y-19156D01*
X17423Y-19159D01*
X17424Y-19159D01*
X17425Y-19159D01*
X17507Y-19159D01*
X17514Y-19175D01*
X17522Y-19187D01*
X17515Y-19199D01*
X17507Y-19217D01*
X17503Y-19237D01*
X17503Y-19256D01*
X17503Y-19370D01*
X17350Y-19370D01*
X17350Y-19340D01*
X17346Y-19321D01*
X17339Y-19303D01*
X17328Y-19286D01*
X17314Y-19272D01*
X17298Y-19262D01*
X17280Y-19254D01*
X17260Y-19250D01*
X17241Y-19250D01*
X16940Y-19250D01*
X16921Y-19254D01*
X16903Y-19261D01*
X16886Y-19272D01*
X16872Y-19286D01*
X16862Y-19302D01*
X16854Y-19320D01*
X16850Y-19340D01*
X16850Y-19359D01*
X16850Y-19660D01*
X16854Y-19679D01*
X16861Y-19697D01*
X16872Y-19714D01*
X16886Y-19728D01*
X16902Y-19738D01*
X16920Y-19746D01*
X16940Y-19750D01*
X16959Y-19750D01*
X17260Y-19750D01*
X17279Y-19746D01*
X17297Y-19739D01*
X17314Y-19728D01*
X17328Y-19714D01*
X17338Y-19698D01*
X17346Y-19680D01*
X17350Y-19660D01*
X17350Y-19641D01*
X17350Y-19630D01*
X17674Y-19630D01*
X17675Y-19630D01*
X17700Y-19628D01*
X17723Y-19620D01*
X17725Y-19620D01*
X17739Y-19612D01*
X17746Y-19609D01*
X17747Y-19608D01*
X17753Y-19603D01*
X17847Y-19603D01*
X17835Y-19626D01*
X17834Y-19626D01*
X17834Y-19628D01*
X17831Y-19638D01*
X17825Y-19656D01*
X17822Y-19687D01*
X17822Y-19688D01*
X17822Y-19689D01*
X17822Y-19994D01*
X17821Y-19995D01*
X17798Y-20029D01*
X17782Y-20066D01*
X17773Y-20106D01*
X17773Y-20147D01*
X17780Y-20187D01*
X17795Y-20225D01*
X17817Y-20259D01*
X17821Y-20263D01*
X17463Y-20622D01*
X17459Y-20626D01*
X17455Y-20629D01*
X17450Y-20600D01*
X17435Y-20562D01*
X17412Y-20528D01*
X17383Y-20499D01*
X17350Y-20476D01*
X17312Y-20461D01*
X17272Y-20452D01*
X17231Y-20452D01*
X17191Y-20459D01*
X17154Y-20475D01*
X17119Y-20497D01*
X17090Y-20525D01*
X17067Y-20559D01*
X17051Y-20596D01*
X17042Y-20636D01*
X17042Y-20643D01*
X17010Y-20675D01*
X16865Y-20675D01*
X16846Y-20679D01*
X16828Y-20686D01*
X16811Y-20697D01*
X16797Y-20711D01*
X16787Y-20727D01*
X16779Y-20745D01*
X16775Y-20765D01*
X16775Y-20784D01*
X16775Y-21035D01*
X16779Y-21054D01*
X16781Y-21059D01*
X16781Y-21340D01*
X16779Y-21345D01*
X16775Y-21365D01*
X16775Y-21384D01*
X16775Y-21635D01*
X16779Y-21654D01*
X16786Y-21672D01*
X16797Y-21689D01*
X16811Y-21703D01*
X16827Y-21713D01*
X16845Y-21721D01*
X16865Y-21725D01*
X16884Y-21725D01*
X17094Y-21725D01*
X17100Y-21731D01*
X17103Y-21727D01*
X17235Y-21860D01*
X17236Y-21861D01*
X17237Y-21862D01*
X17260Y-21881D01*
X17261Y-21882D01*
X17283Y-21894D01*
X17287Y-21896D01*
X17289Y-21897D01*
X17294Y-21898D01*
X17317Y-21906D01*
X17348Y-21909D01*
X17349Y-21909D01*
X17350Y-21909D01*
X17419Y-21909D01*
X17568Y-21909D01*
X17569Y-21909D01*
X17570Y-21909D01*
X17675Y-21909D01*
X17675Y-22135D01*
X17679Y-22154D01*
X17686Y-22172D01*
X17697Y-22189D01*
X17711Y-22203D01*
X17727Y-22213D01*
X17745Y-22221D01*
X17765Y-22225D01*
X17784Y-22225D01*
X17870Y-22225D01*
X17870Y-22596D01*
X17867Y-22597D01*
X17781Y-22631D01*
X17704Y-22682D01*
X17638Y-22746D01*
X17586Y-22822D01*
X17550Y-22907D01*
X17531Y-22997D01*
X17529Y-23089D01*
X17546Y-23180D01*
X17580Y-23266D01*
X17630Y-23343D01*
X17694Y-23410D01*
X17770Y-23462D01*
X17854Y-23499D01*
X17944Y-23519D01*
X18036Y-23521D01*
X18127Y-23505D01*
X18213Y-23472D01*
X18291Y-23422D01*
X18357Y-23359D01*
X18411Y-23283D01*
X18448Y-23199D01*
X18469Y-23109D01*
X18470Y-23004D01*
X18452Y-22914D01*
X18417Y-22828D01*
X18366Y-22752D01*
X18301Y-22686D01*
X18225Y-22635D01*
X18140Y-22599D01*
X18130Y-22596D01*
X18130Y-22225D01*
X18235Y-22225D01*
X18254Y-22221D01*
X18272Y-22214D01*
X18289Y-22203D01*
X18303Y-22189D01*
X18313Y-22173D01*
X18321Y-22155D01*
X18325Y-22135D01*
X18325Y-22116D01*
X18325Y-21909D01*
X18824Y-21909D01*
X18834Y-21919D01*
X18868Y-21942D01*
X18905Y-21959D01*
X18945Y-21967D01*
X18986Y-21968D01*
X19026Y-21961D01*
X19064Y-21947D01*
X19098Y-21925D01*
X19104Y-21919D01*
X19286Y-21919D01*
X19260Y-21945D01*
X19237Y-21979D01*
X19221Y-22016D01*
X19219Y-22024D01*
X18898Y-22024D01*
X18879Y-22028D01*
X18861Y-22035D01*
X18844Y-22046D01*
X18830Y-22060D01*
X18820Y-22076D01*
X18812Y-22094D01*
X18808Y-22114D01*
X18808Y-22133D01*
X18808Y-22520D01*
X18781Y-22531D01*
X18704Y-22582D01*
X18638Y-22646D01*
X18586Y-22722D01*
X18550Y-22807D01*
X18531Y-22897D01*
X18529Y-22989D01*
X18546Y-23080D01*
X18580Y-23166D01*
X18630Y-23243D01*
X18694Y-23310D01*
X18770Y-23362D01*
X18854Y-23399D01*
X18944Y-23419D01*
X19036Y-23421D01*
X19127Y-23405D01*
X19213Y-23372D01*
X19291Y-23322D01*
X19357Y-23259D01*
X19411Y-23183D01*
X19448Y-23099D01*
X19469Y-23009D01*
X19470Y-22904D01*
X19452Y-22814D01*
X19417Y-22728D01*
X19366Y-22652D01*
X19330Y-22616D01*
X19719Y-22616D01*
X19818Y-22616D01*
X19781Y-22631D01*
X19719Y-22672D01*
X19704Y-22682D01*
X19638Y-22746D01*
X19586Y-22822D01*
X19550Y-22907D01*
X19531Y-22997D01*
X19529Y-23089D01*
X19546Y-23180D01*
X19580Y-23266D01*
X19630Y-23343D01*
X19694Y-23410D01*
X19719Y-23427D01*
X19770Y-23462D01*
X19854Y-23499D01*
X19944Y-23519D01*
X20036Y-23521D01*
X20127Y-23505D01*
X20213Y-23472D01*
X20291Y-23422D01*
X20357Y-23359D01*
X20411Y-23283D01*
X20448Y-23199D01*
X20469Y-23109D01*
X20470Y-23004D01*
X20452Y-22914D01*
X20417Y-22828D01*
X20366Y-22752D01*
X20301Y-22686D01*
X20225Y-22635D01*
X20140Y-22599D01*
X20049Y-22580D01*
X19970Y-22580D01*
X19980Y-22564D01*
X19988Y-22546D01*
X19992Y-22526D01*
X19992Y-22507D01*
X19992Y-22114D01*
X19988Y-22095D01*
X19981Y-22077D01*
X19970Y-22060D01*
X19956Y-22046D01*
X19940Y-22036D01*
X19922Y-22028D01*
X19902Y-22024D01*
X19883Y-22024D01*
X19719Y-22024D01*
X19620Y-22024D01*
X19620Y-22020D01*
X19605Y-21982D01*
X19582Y-21948D01*
X19553Y-21919D01*
X19719Y-21919D01*
X21291Y-21919D01*
X21279Y-21927D01*
X21250Y-21955D01*
X21227Y-21989D01*
X21211Y-22026D01*
X21202Y-22066D01*
X21202Y-22107D01*
X21203Y-22112D01*
X20909Y-22407D01*
X20908Y-22408D01*
X20892Y-22427D01*
X20881Y-22449D01*
X20880Y-22451D01*
X20877Y-22459D01*
X20873Y-22473D01*
X20870Y-22496D01*
X20867Y-22497D01*
X20781Y-22531D01*
X20704Y-22582D01*
X20638Y-22646D01*
X20586Y-22722D01*
X20550Y-22807D01*
X20531Y-22897D01*
X20529Y-22989D01*
X20546Y-23080D01*
X20580Y-23166D01*
X20630Y-23243D01*
X20694Y-23310D01*
X20770Y-23362D01*
X20854Y-23399D01*
X20944Y-23419D01*
X21036Y-23421D01*
X21127Y-23405D01*
X21213Y-23372D01*
X21291Y-23322D01*
X21357Y-23259D01*
X21411Y-23183D01*
X21448Y-23099D01*
X21469Y-23009D01*
X21470Y-22904D01*
X21452Y-22814D01*
X21417Y-22728D01*
X21366Y-22652D01*
X21301Y-22586D01*
X21225Y-22535D01*
X21171Y-22512D01*
X21386Y-22297D01*
X21426Y-22298D01*
X21466Y-22291D01*
X21504Y-22277D01*
X21538Y-22255D01*
X21568Y-22227D01*
X21591Y-22194D01*
X21608Y-22156D01*
X21617Y-22117D01*
X21618Y-22070D01*
X21610Y-22030D01*
X21595Y-21992D01*
X21572Y-21958D01*
X21551Y-21937D01*
X21558Y-21942D01*
X21595Y-21959D01*
X21635Y-21967D01*
X21676Y-21968D01*
X21716Y-21961D01*
X21754Y-21947D01*
X21788Y-21925D01*
X21794Y-21919D01*
X22254Y-21919D01*
X22685Y-22350D01*
X22686Y-22351D01*
X22687Y-22352D01*
X22710Y-22371D01*
X22711Y-22372D01*
X22719Y-22376D01*
X22737Y-22386D01*
X22739Y-22386D01*
X22767Y-22396D01*
X22798Y-22399D01*
X22799Y-22399D01*
X22800Y-22399D01*
X24319Y-22399D01*
X26798Y-22399D01*
X26799Y-22399D01*
X26808Y-22399D01*
X26809Y-22399D01*
X26810Y-22399D01*
X27204Y-22399D01*
X27405Y-22600D01*
X27406Y-22601D01*
X27407Y-22602D01*
X27430Y-22621D01*
X27431Y-22622D01*
X27453Y-22634D01*
X27457Y-22636D01*
X27459Y-22637D01*
X27464Y-22638D01*
X27487Y-22646D01*
X27518Y-22649D01*
X27519Y-22649D01*
X27520Y-22649D01*
X27777Y-22649D01*
X27753Y-22662D01*
X27712Y-22720D01*
X28000Y-23009D01*
X28288Y-22720D01*
X28247Y-22662D01*
X28221Y-22649D01*
X28474Y-22649D01*
X28574Y-22748D01*
X28550Y-22807D01*
X28531Y-22897D01*
X28529Y-22989D01*
X28546Y-23080D01*
X28580Y-23166D01*
X28630Y-23243D01*
X28694Y-23310D01*
X28770Y-23362D01*
X28854Y-23399D01*
X28944Y-23419D01*
X29036Y-23421D01*
X29127Y-23405D01*
X29213Y-23372D01*
X29291Y-23322D01*
X29357Y-23259D01*
X29411Y-23183D01*
X29448Y-23099D01*
X29469Y-23009D01*
X29470Y-22904D01*
X29452Y-22814D01*
X29417Y-22728D01*
X29366Y-22652D01*
X29301Y-22586D01*
X29225Y-22535D01*
X29140Y-22499D01*
X29049Y-22480D01*
X28957Y-22480D01*
X28867Y-22497D01*
X28798Y-22524D01*
X28657Y-22383D01*
X28654Y-22379D01*
X28652Y-22378D01*
X28630Y-22359D01*
X28628Y-22358D01*
X28603Y-22344D01*
X28602Y-22343D01*
X28601Y-22343D01*
X28591Y-22340D01*
X28573Y-22334D01*
X28542Y-22331D01*
X28541Y-22331D01*
X28540Y-22331D01*
X28383Y-22331D01*
X28407Y-22309D01*
X28461Y-22233D01*
X28498Y-22149D01*
X28519Y-22059D01*
X28520Y-21954D01*
X28502Y-21864D01*
X28467Y-21778D01*
X28416Y-21702D01*
X28354Y-21640D01*
X28506Y-21640D01*
X28636Y-21770D01*
X28636Y-21772D01*
X28600Y-21857D01*
X28581Y-21947D01*
X28579Y-22039D01*
X28596Y-22130D01*
X28630Y-22216D01*
X28680Y-22293D01*
X28744Y-22360D01*
X28820Y-22412D01*
X28904Y-22449D01*
X28994Y-22469D01*
X29086Y-22471D01*
X29177Y-22455D01*
X29263Y-22422D01*
X29341Y-22372D01*
X29407Y-22309D01*
X29461Y-22233D01*
X29498Y-22149D01*
X29519Y-22059D01*
X29520Y-21954D01*
X29520Y-19954D01*
X29502Y-19864D01*
X29467Y-19778D01*
X29416Y-19702D01*
X29410Y-19695D01*
X29410Y-18992D01*
X29400Y-18902D01*
X29372Y-18817D01*
X29338Y-18753D01*
X29280Y-18712D01*
X29238Y-18753D01*
X29238Y-18670D01*
X29197Y-18612D01*
X29117Y-18571D01*
X29031Y-18547D01*
X28942Y-18540D01*
X28852Y-18550D01*
X28767Y-18578D01*
X28703Y-18612D01*
X28662Y-18670D01*
X28950Y-18959D01*
X29238Y-18670D01*
X29238Y-18753D01*
X28991Y-19000D01*
X29280Y-19288D01*
X29338Y-19247D01*
X29379Y-19167D01*
X29403Y-19081D01*
X29410Y-18992D01*
X29410Y-19695D01*
X29351Y-19636D01*
X29275Y-19585D01*
X29238Y-19569D01*
X29238Y-19330D01*
X28950Y-19041D01*
X28909Y-19082D01*
X28909Y-19000D01*
X28620Y-18712D01*
X28562Y-18753D01*
X28521Y-18833D01*
X28497Y-18919D01*
X28490Y-19008D01*
X28500Y-19098D01*
X28528Y-19183D01*
X28562Y-19247D01*
X28620Y-19288D01*
X28909Y-19000D01*
X28909Y-19082D01*
X28662Y-19330D01*
X28703Y-19388D01*
X28783Y-19429D01*
X28869Y-19453D01*
X28958Y-19460D01*
X29048Y-19450D01*
X29133Y-19422D01*
X29197Y-19388D01*
X29238Y-19330D01*
X29238Y-19569D01*
X29190Y-19549D01*
X29099Y-19530D01*
X29007Y-19530D01*
X28917Y-19547D01*
X28831Y-19581D01*
X28754Y-19632D01*
X28688Y-19696D01*
X28636Y-19772D01*
X28600Y-19857D01*
X28581Y-19947D01*
X28579Y-20039D01*
X28596Y-20130D01*
X28630Y-20216D01*
X28680Y-20293D01*
X28744Y-20360D01*
X28820Y-20412D01*
X28904Y-20449D01*
X28994Y-20469D01*
X29086Y-20471D01*
X29177Y-20455D01*
X29263Y-20422D01*
X29341Y-20372D01*
X29407Y-20309D01*
X29461Y-20233D01*
X29498Y-20149D01*
X29519Y-20059D01*
X29520Y-19954D01*
X29520Y-21954D01*
X29502Y-21864D01*
X29467Y-21778D01*
X29420Y-21707D01*
X29420Y-20954D01*
X29402Y-20864D01*
X29367Y-20778D01*
X29316Y-20702D01*
X29251Y-20636D01*
X29175Y-20585D01*
X29090Y-20549D01*
X28999Y-20530D01*
X28907Y-20530D01*
X28817Y-20547D01*
X28731Y-20581D01*
X28654Y-20632D01*
X28588Y-20696D01*
X28536Y-20772D01*
X28520Y-20809D01*
X28520Y-19954D01*
X28502Y-19864D01*
X28467Y-19778D01*
X28416Y-19702D01*
X28351Y-19636D01*
X28275Y-19585D01*
X28190Y-19549D01*
X28099Y-19530D01*
X28007Y-19530D01*
X27917Y-19547D01*
X27831Y-19581D01*
X27754Y-19632D01*
X27688Y-19696D01*
X27636Y-19772D01*
X27600Y-19857D01*
X27581Y-19947D01*
X27579Y-20039D01*
X27596Y-20130D01*
X27630Y-20216D01*
X27680Y-20293D01*
X27744Y-20360D01*
X27820Y-20412D01*
X27904Y-20449D01*
X27994Y-20469D01*
X28086Y-20471D01*
X28177Y-20455D01*
X28263Y-20422D01*
X28341Y-20372D01*
X28407Y-20309D01*
X28461Y-20233D01*
X28498Y-20149D01*
X28519Y-20059D01*
X28520Y-19954D01*
X28520Y-20809D01*
X28500Y-20857D01*
X28481Y-20947D01*
X28479Y-21039D01*
X28496Y-21130D01*
X28530Y-21216D01*
X28580Y-21293D01*
X28644Y-21360D01*
X28720Y-21412D01*
X28804Y-21449D01*
X28894Y-21469D01*
X28986Y-21471D01*
X29077Y-21455D01*
X29163Y-21422D01*
X29241Y-21372D01*
X29307Y-21309D01*
X29361Y-21233D01*
X29398Y-21149D01*
X29419Y-21059D01*
X29420Y-20954D01*
X29420Y-21707D01*
X29416Y-21702D01*
X29351Y-21636D01*
X29275Y-21585D01*
X29190Y-21549D01*
X29099Y-21530D01*
X29007Y-21530D01*
X28917Y-21547D01*
X28831Y-21581D01*
X28821Y-21587D01*
X28653Y-21419D01*
X28652Y-21418D01*
X28633Y-21402D01*
X28611Y-21391D01*
X28609Y-21390D01*
X28601Y-21387D01*
X28587Y-21383D01*
X28562Y-21380D01*
X28560Y-21380D01*
X28228Y-21380D01*
X28241Y-21372D01*
X28307Y-21309D01*
X28361Y-21233D01*
X28398Y-21149D01*
X28419Y-21059D01*
X28420Y-20954D01*
X28402Y-20864D01*
X28367Y-20778D01*
X28316Y-20702D01*
X28251Y-20636D01*
X28175Y-20585D01*
X28090Y-20549D01*
X27999Y-20530D01*
X27907Y-20530D01*
X27817Y-20547D01*
X27731Y-20581D01*
X27721Y-20587D01*
X27672Y-20538D01*
X27369Y-20235D01*
X27369Y-19292D01*
X27376Y-19291D01*
X27414Y-19277D01*
X27448Y-19255D01*
X27478Y-19227D01*
X27501Y-19194D01*
X27511Y-19169D01*
X27530Y-19216D01*
X27580Y-19293D01*
X27644Y-19360D01*
X27720Y-19412D01*
X27804Y-19449D01*
X27894Y-19469D01*
X27986Y-19471D01*
X28077Y-19455D01*
X28163Y-19422D01*
X28241Y-19372D01*
X28307Y-19309D01*
X28361Y-19233D01*
X28398Y-19149D01*
X28419Y-19059D01*
X28420Y-18954D01*
X28402Y-18864D01*
X28367Y-18778D01*
X28316Y-18702D01*
X28273Y-18659D01*
X28548Y-18659D01*
X28550Y-18659D01*
X28579Y-18656D01*
X28581Y-18656D01*
X28597Y-18651D01*
X28609Y-18648D01*
X28611Y-18647D01*
X28637Y-18634D01*
X28638Y-18632D01*
X28661Y-18614D01*
X28661Y-18613D01*
X28662Y-18613D01*
X28662Y-18612D01*
X28666Y-18607D01*
X28849Y-18424D01*
X28904Y-18449D01*
X28994Y-18469D01*
X29086Y-18471D01*
X29177Y-18455D01*
X29263Y-18422D01*
X29341Y-18372D01*
X29407Y-18309D01*
X29461Y-18233D01*
X29498Y-18149D01*
X29519Y-18059D01*
X29520Y-17954D01*
X29502Y-17864D01*
X29470Y-17785D01*
X29470Y-16904D01*
X29452Y-16814D01*
X29417Y-16728D01*
X29366Y-16652D01*
X29301Y-16586D01*
X29225Y-16535D01*
X29140Y-16499D01*
X29049Y-16480D01*
X28957Y-16480D01*
X28867Y-16497D01*
X28781Y-16531D01*
X28704Y-16582D01*
X28638Y-16646D01*
X28586Y-16722D01*
X28550Y-16807D01*
X28531Y-16897D01*
X28529Y-16989D01*
X28546Y-17080D01*
X28580Y-17166D01*
X28630Y-17243D01*
X28694Y-17310D01*
X28770Y-17362D01*
X28854Y-17399D01*
X28944Y-17419D01*
X29036Y-17421D01*
X29127Y-17405D01*
X29213Y-17372D01*
X29291Y-17322D01*
X29357Y-17259D01*
X29411Y-17183D01*
X29448Y-17099D01*
X29469Y-17009D01*
X29470Y-16904D01*
X29470Y-17785D01*
X29467Y-17778D01*
X29416Y-17702D01*
X29351Y-17636D01*
X29275Y-17585D01*
X29190Y-17549D01*
X29099Y-17530D01*
X29007Y-17530D01*
X28917Y-17547D01*
X28831Y-17581D01*
X28754Y-17632D01*
X28688Y-17696D01*
X28636Y-17772D01*
X28600Y-17857D01*
X28581Y-17947D01*
X28579Y-18039D01*
X28596Y-18130D01*
X28624Y-18201D01*
X28484Y-18341D01*
X28373Y-18341D01*
X28407Y-18309D01*
X28461Y-18233D01*
X28498Y-18149D01*
X28519Y-18059D01*
X28520Y-17954D01*
X28502Y-17864D01*
X28470Y-17785D01*
X28470Y-17004D01*
X28452Y-16914D01*
X28417Y-16828D01*
X28366Y-16752D01*
X28301Y-16686D01*
X28225Y-16635D01*
X28140Y-16599D01*
X28049Y-16580D01*
X27957Y-16580D01*
X27867Y-16597D01*
X27781Y-16631D01*
X27704Y-16682D01*
X27638Y-16746D01*
X27586Y-16822D01*
X27550Y-16907D01*
X27531Y-16997D01*
X27529Y-17089D01*
X27546Y-17180D01*
X27580Y-17266D01*
X27630Y-17343D01*
X27694Y-17410D01*
X27770Y-17462D01*
X27854Y-17499D01*
X27944Y-17519D01*
X28036Y-17521D01*
X28127Y-17505D01*
X28213Y-17472D01*
X28291Y-17422D01*
X28357Y-17359D01*
X28411Y-17283D01*
X28448Y-17199D01*
X28469Y-17109D01*
X28470Y-17004D01*
X28470Y-17785D01*
X28467Y-17778D01*
X28416Y-17702D01*
X28351Y-17636D01*
X28275Y-17585D01*
X28190Y-17549D01*
X28099Y-17530D01*
X28007Y-17530D01*
X27917Y-17547D01*
X27831Y-17581D01*
X27754Y-17632D01*
X27688Y-17696D01*
X27636Y-17772D01*
X27600Y-17857D01*
X27581Y-17947D01*
X27579Y-18039D01*
X27596Y-18130D01*
X27608Y-18162D01*
X27470Y-18162D01*
X27470Y-16904D01*
X27452Y-16814D01*
X27417Y-16728D01*
X27366Y-16652D01*
X27301Y-16586D01*
X27225Y-16535D01*
X27140Y-16499D01*
X27049Y-16480D01*
X26957Y-16480D01*
X26867Y-16497D01*
X26781Y-16531D01*
X26704Y-16582D01*
X26638Y-16646D01*
X26586Y-16722D01*
X26550Y-16807D01*
X26531Y-16897D01*
X26529Y-16989D01*
X26546Y-17080D01*
X26580Y-17166D01*
X26630Y-17243D01*
X26694Y-17310D01*
X26770Y-17362D01*
X26854Y-17399D01*
X26944Y-17419D01*
X27036Y-17421D01*
X27127Y-17405D01*
X27213Y-17372D01*
X27291Y-17322D01*
X27357Y-17259D01*
X27411Y-17183D01*
X27448Y-17099D01*
X27469Y-17009D01*
X27470Y-16904D01*
X27470Y-18162D01*
X27237Y-18162D01*
X27235Y-18162D01*
X27204Y-18165D01*
X27188Y-18169D01*
X27176Y-18173D01*
X27174Y-18174D01*
X27148Y-18187D01*
X27124Y-18207D01*
X27123Y-18207D01*
X27123Y-18208D01*
X27118Y-18214D01*
X27068Y-18264D01*
X27068Y-18111D01*
X27068Y-18109D01*
X27065Y-18080D01*
X27065Y-18078D01*
X27056Y-18050D01*
X27056Y-18048D01*
X27046Y-18030D01*
X27042Y-18022D01*
X27041Y-18021D01*
X27037Y-18017D01*
X27022Y-17998D01*
X27022Y-17997D01*
X27021Y-17996D01*
X26817Y-17793D01*
X26814Y-17789D01*
X26812Y-17788D01*
X26790Y-17769D01*
X26788Y-17768D01*
X26763Y-17754D01*
X26762Y-17753D01*
X26761Y-17753D01*
X26751Y-17750D01*
X26733Y-17744D01*
X26702Y-17741D01*
X26701Y-17741D01*
X26700Y-17741D01*
X26470Y-17741D01*
X26470Y-17004D01*
X26452Y-16914D01*
X26417Y-16828D01*
X26366Y-16752D01*
X26301Y-16686D01*
X26225Y-16635D01*
X26140Y-16599D01*
X26049Y-16580D01*
X25957Y-16580D01*
X25867Y-16597D01*
X25781Y-16631D01*
X25704Y-16682D01*
X25638Y-16746D01*
X25586Y-16822D01*
X25550Y-16907D01*
X25531Y-16997D01*
X25529Y-17089D01*
X25546Y-17180D01*
X25580Y-17266D01*
X25630Y-17343D01*
X25694Y-17410D01*
X25770Y-17462D01*
X25854Y-17499D01*
X25944Y-17519D01*
X26036Y-17521D01*
X26127Y-17505D01*
X26213Y-17472D01*
X26291Y-17422D01*
X26357Y-17359D01*
X26411Y-17283D01*
X26448Y-17199D01*
X26469Y-17109D01*
X26470Y-17004D01*
X26470Y-17741D01*
X25832Y-17741D01*
X25830Y-17741D01*
X25799Y-17744D01*
X25769Y-17753D01*
X25751Y-17763D01*
X25743Y-17767D01*
X25738Y-17771D01*
X25718Y-17787D01*
X25717Y-17787D01*
X25717Y-17788D01*
X25618Y-17887D01*
X25614Y-17891D01*
X25594Y-17915D01*
X25588Y-17925D01*
X25540Y-17925D01*
X25521Y-17929D01*
X25503Y-17936D01*
X25486Y-17947D01*
X25472Y-17961D01*
X25470Y-17964D01*
X25470Y-16904D01*
X25452Y-16814D01*
X25417Y-16728D01*
X25366Y-16652D01*
X25301Y-16586D01*
X25225Y-16535D01*
X25140Y-16499D01*
X25049Y-16480D01*
X24957Y-16480D01*
X24867Y-16497D01*
X24781Y-16531D01*
X24704Y-16582D01*
X24638Y-16646D01*
X24586Y-16722D01*
X24550Y-16807D01*
X24531Y-16897D01*
X24529Y-16989D01*
X24546Y-17080D01*
X24580Y-17166D01*
X24630Y-17243D01*
X24694Y-17310D01*
X24770Y-17362D01*
X24854Y-17399D01*
X24944Y-17419D01*
X25036Y-17421D01*
X25127Y-17405D01*
X25213Y-17372D01*
X25291Y-17322D01*
X25357Y-17259D01*
X25411Y-17183D01*
X25448Y-17099D01*
X25469Y-17009D01*
X25470Y-16904D01*
X25470Y-17964D01*
X25462Y-17977D01*
X25454Y-17995D01*
X25450Y-18015D01*
X25450Y-18034D01*
X25450Y-18585D01*
X25454Y-18604D01*
X25461Y-18622D01*
X25472Y-18639D01*
X25486Y-18653D01*
X25502Y-18663D01*
X25520Y-18671D01*
X25540Y-18675D01*
X25559Y-18675D01*
X25566Y-18675D01*
X25566Y-18707D01*
X25550Y-18714D01*
X25533Y-18725D01*
X25519Y-18739D01*
X25509Y-18755D01*
X25501Y-18773D01*
X25497Y-18793D01*
X25497Y-18812D01*
X25497Y-19162D01*
X25452Y-19118D01*
X25449Y-19114D01*
X25447Y-19113D01*
X25425Y-19094D01*
X25423Y-19093D01*
X25398Y-19079D01*
X25397Y-19078D01*
X25396Y-19078D01*
X25386Y-19075D01*
X25368Y-19069D01*
X25337Y-19066D01*
X25336Y-19066D01*
X25335Y-19066D01*
X25075Y-19066D01*
X25075Y-19040D01*
X25071Y-19021D01*
X25064Y-19003D01*
X25053Y-18986D01*
X25039Y-18972D01*
X25023Y-18962D01*
X25005Y-18954D01*
X24985Y-18950D01*
X24966Y-18950D01*
X24470Y-18950D01*
X24470Y-17004D01*
X24452Y-16914D01*
X24417Y-16828D01*
X24366Y-16752D01*
X24301Y-16686D01*
X24225Y-16635D01*
X24140Y-16599D01*
X24049Y-16580D01*
X23957Y-16580D01*
X23867Y-16597D01*
X23781Y-16631D01*
X23704Y-16682D01*
X23638Y-16746D01*
X23586Y-16822D01*
X23550Y-16907D01*
X23531Y-16997D01*
X23529Y-17089D01*
X23546Y-17180D01*
X23580Y-17266D01*
X23630Y-17343D01*
X23694Y-17410D01*
X23770Y-17462D01*
X23854Y-17499D01*
X23944Y-17519D01*
X24036Y-17521D01*
X24127Y-17505D01*
X24213Y-17472D01*
X24291Y-17422D01*
X24357Y-17359D01*
X24411Y-17283D01*
X24448Y-17199D01*
X24469Y-17109D01*
X24470Y-17004D01*
X24470Y-18950D01*
X24415Y-18950D01*
X24396Y-18954D01*
X24378Y-18961D01*
X24361Y-18972D01*
X24347Y-18986D01*
X24337Y-19002D01*
X24329Y-19020D01*
X24325Y-19040D01*
X24325Y-19059D01*
X24325Y-19390D01*
X24284Y-19431D01*
X23725Y-19431D01*
X23725Y-19416D01*
X23725Y-19165D01*
X23721Y-19146D01*
X23714Y-19128D01*
X23713Y-19126D01*
X23713Y-18834D01*
X23713Y-18751D01*
X23713Y-18649D01*
X23713Y-18566D01*
X23710Y-18549D01*
X23703Y-18533D01*
X23693Y-18519D01*
X23681Y-18507D01*
X23667Y-18497D01*
X23651Y-18490D01*
X23634Y-18487D01*
X23617Y-18487D01*
X23470Y-18487D01*
X23470Y-16904D01*
X23452Y-16814D01*
X23417Y-16728D01*
X23366Y-16652D01*
X23301Y-16586D01*
X23225Y-16535D01*
X23140Y-16499D01*
X23049Y-16480D01*
X22957Y-16480D01*
X22867Y-16497D01*
X22781Y-16531D01*
X22704Y-16582D01*
X22638Y-16646D01*
X22586Y-16722D01*
X22550Y-16807D01*
X22531Y-16897D01*
X22529Y-16989D01*
X22546Y-17080D01*
X22547Y-17083D01*
X22469Y-17005D01*
X22470Y-17004D01*
X22452Y-16914D01*
X22417Y-16828D01*
X22366Y-16752D01*
X22301Y-16686D01*
X22225Y-16635D01*
X22140Y-16599D01*
X22049Y-16580D01*
X21957Y-16580D01*
X21867Y-16597D01*
X21781Y-16631D01*
X21704Y-16682D01*
X21638Y-16746D01*
X21586Y-16822D01*
X21550Y-16907D01*
X21531Y-16997D01*
X21529Y-17089D01*
X21546Y-17180D01*
X21580Y-17266D01*
X21630Y-17343D01*
X21694Y-17410D01*
X21770Y-17462D01*
X21854Y-17499D01*
X21944Y-17519D01*
X22036Y-17521D01*
X22127Y-17505D01*
X22213Y-17472D01*
X22291Y-17422D01*
X22357Y-17359D01*
X22397Y-17301D01*
X22726Y-17630D01*
X22238Y-17630D01*
X22219Y-17634D01*
X22201Y-17641D01*
X22184Y-17652D01*
X22170Y-17666D01*
X22160Y-17682D01*
X22152Y-17700D01*
X22148Y-17720D01*
X21953Y-17720D01*
X21412Y-17179D01*
X21448Y-17099D01*
X21469Y-17009D01*
X21470Y-16904D01*
X21452Y-16814D01*
X21417Y-16728D01*
X21366Y-16652D01*
X21301Y-16586D01*
X21225Y-16535D01*
X21140Y-16499D01*
X21049Y-16480D01*
X20957Y-16480D01*
X20867Y-16497D01*
X20781Y-16531D01*
X20704Y-16582D01*
X20638Y-16646D01*
X20586Y-16722D01*
X20550Y-16807D01*
X20531Y-16897D01*
X20529Y-16989D01*
X20546Y-17080D01*
X20580Y-17166D01*
X20630Y-17243D01*
X20694Y-17310D01*
X20770Y-17362D01*
X20854Y-17399D01*
X20944Y-17419D01*
X21036Y-17421D01*
X21127Y-17405D01*
X21213Y-17372D01*
X21228Y-17362D01*
X21803Y-17936D01*
X21807Y-17941D01*
X21808Y-17941D01*
X21816Y-17948D01*
X21827Y-17958D01*
X21849Y-17969D01*
X21850Y-17970D01*
X21866Y-17974D01*
X21873Y-17977D01*
X21874Y-17977D01*
X21898Y-17980D01*
X21899Y-17980D01*
X21900Y-17980D01*
X22148Y-17980D01*
X22152Y-17999D01*
X22159Y-18017D01*
X22170Y-18034D01*
X22184Y-18048D01*
X22200Y-18058D01*
X22218Y-18066D01*
X22238Y-18070D01*
X22257Y-18070D01*
X22736Y-18070D01*
X22676Y-18130D01*
X22238Y-18130D01*
X22219Y-18134D01*
X22201Y-18141D01*
X22184Y-18152D01*
X22170Y-18166D01*
X22160Y-18182D01*
X22152Y-18200D01*
X22148Y-18220D01*
X22148Y-18239D01*
X22148Y-18480D01*
X22152Y-18499D01*
X22159Y-18517D01*
X22170Y-18534D01*
X22184Y-18548D01*
X22200Y-18558D01*
X22218Y-18566D01*
X22238Y-18570D01*
X22257Y-18570D01*
X22888Y-18570D01*
X22907Y-18566D01*
X22925Y-18559D01*
X22942Y-18548D01*
X22956Y-18534D01*
X22966Y-18518D01*
X22974Y-18500D01*
X22978Y-18480D01*
X22978Y-18461D01*
X22978Y-18220D01*
X22974Y-18201D01*
X22973Y-18199D01*
X23056Y-18116D01*
X23061Y-18113D01*
X23061Y-18112D01*
X23068Y-18103D01*
X23077Y-18093D01*
X23078Y-18093D01*
X23089Y-18071D01*
X23090Y-18070D01*
X23094Y-18054D01*
X23097Y-18047D01*
X23097Y-18046D01*
X23100Y-18022D01*
X23100Y-18020D01*
X23100Y-17691D01*
X23100Y-17690D01*
X23098Y-17665D01*
X23090Y-17642D01*
X23090Y-17640D01*
X23082Y-17625D01*
X23079Y-17619D01*
X23078Y-17618D01*
X23063Y-17599D01*
X23062Y-17598D01*
X22865Y-17401D01*
X22944Y-17419D01*
X23036Y-17421D01*
X23127Y-17405D01*
X23213Y-17372D01*
X23291Y-17322D01*
X23357Y-17259D01*
X23411Y-17183D01*
X23448Y-17099D01*
X23469Y-17009D01*
X23470Y-16904D01*
X23470Y-18487D01*
X23451Y-18487D01*
X23429Y-18509D01*
X23429Y-18671D01*
X23691Y-18671D01*
X23713Y-18649D01*
X23713Y-18751D01*
X23691Y-18729D01*
X23429Y-18729D01*
X23429Y-18891D01*
X23451Y-18913D01*
X23617Y-18913D01*
X23634Y-18913D01*
X23651Y-18910D01*
X23667Y-18903D01*
X23681Y-18893D01*
X23693Y-18881D01*
X23703Y-18867D01*
X23710Y-18851D01*
X23713Y-18834D01*
X23713Y-19126D01*
X23703Y-19111D01*
X23689Y-19097D01*
X23673Y-19087D01*
X23655Y-19079D01*
X23635Y-19075D01*
X23616Y-19075D01*
X23371Y-19075D01*
X23371Y-18891D01*
X23371Y-18729D01*
X23371Y-18671D01*
X23371Y-18509D01*
X23349Y-18487D01*
X23183Y-18487D01*
X23166Y-18487D01*
X23149Y-18490D01*
X23133Y-18497D01*
X23119Y-18507D01*
X23107Y-18519D01*
X23097Y-18533D01*
X23090Y-18549D01*
X23087Y-18566D01*
X23087Y-18649D01*
X23109Y-18671D01*
X23371Y-18671D01*
X23371Y-18729D01*
X23109Y-18729D01*
X23087Y-18751D01*
X23087Y-18834D01*
X23090Y-18851D01*
X23097Y-18867D01*
X23107Y-18881D01*
X23119Y-18893D01*
X23133Y-18903D01*
X23149Y-18910D01*
X23166Y-18913D01*
X23183Y-18913D01*
X23349Y-18913D01*
X23371Y-18891D01*
X23371Y-19075D01*
X23165Y-19075D01*
X23146Y-19079D01*
X23128Y-19086D01*
X23111Y-19097D01*
X23097Y-19111D01*
X23087Y-19127D01*
X23080Y-19141D01*
X22923Y-19141D01*
X22908Y-19134D01*
X22888Y-19130D01*
X22869Y-19130D01*
X22693Y-19130D01*
X22693Y-19070D01*
X22888Y-19070D01*
X22907Y-19066D01*
X22925Y-19059D01*
X22942Y-19048D01*
X22956Y-19034D01*
X22966Y-19018D01*
X22974Y-19000D01*
X22978Y-18980D01*
X22978Y-18961D01*
X22978Y-18720D01*
X22974Y-18701D01*
X22967Y-18683D01*
X22956Y-18666D01*
X22942Y-18652D01*
X22926Y-18642D01*
X22908Y-18634D01*
X22888Y-18630D01*
X22869Y-18630D01*
X22238Y-18630D01*
X22219Y-18634D01*
X22201Y-18641D01*
X22184Y-18652D01*
X22170Y-18666D01*
X22160Y-18682D01*
X22152Y-18700D01*
X22148Y-18720D01*
X22148Y-18739D01*
X22148Y-18980D01*
X22152Y-18999D01*
X22159Y-19017D01*
X22170Y-19034D01*
X22184Y-19048D01*
X22200Y-19058D01*
X22218Y-19066D01*
X22238Y-19070D01*
X22257Y-19070D01*
X22433Y-19070D01*
X22433Y-19130D01*
X22238Y-19130D01*
X22219Y-19134D01*
X22201Y-19141D01*
X22184Y-19152D01*
X22170Y-19166D01*
X22160Y-19182D01*
X22152Y-19200D01*
X22148Y-19220D01*
X22148Y-19239D01*
X22148Y-19252D01*
X21155Y-19252D01*
X21129Y-19225D01*
X21129Y-19145D01*
X21151Y-19114D01*
X21168Y-19076D01*
X21177Y-19037D01*
X21178Y-18990D01*
X21170Y-18950D01*
X21155Y-18912D01*
X21132Y-18878D01*
X21103Y-18849D01*
X21100Y-18846D01*
X21100Y-18591D01*
X21100Y-18590D01*
X21098Y-18565D01*
X21090Y-18542D01*
X21090Y-18540D01*
X21082Y-18525D01*
X21079Y-18519D01*
X21078Y-18518D01*
X21063Y-18499D01*
X21062Y-18498D01*
X20852Y-18288D01*
X20852Y-18220D01*
X20848Y-18201D01*
X20841Y-18183D01*
X20840Y-18181D01*
X20840Y-17979D01*
X20840Y-17901D01*
X20840Y-17799D01*
X20840Y-17721D01*
X20837Y-17704D01*
X20830Y-17688D01*
X20820Y-17674D01*
X20808Y-17662D01*
X20794Y-17652D01*
X20778Y-17645D01*
X20761Y-17642D01*
X20744Y-17642D01*
X20488Y-17642D01*
X20470Y-17660D01*
X20470Y-17004D01*
X20452Y-16914D01*
X20417Y-16828D01*
X20366Y-16752D01*
X20301Y-16686D01*
X20225Y-16635D01*
X20140Y-16599D01*
X20049Y-16580D01*
X19957Y-16580D01*
X19867Y-16597D01*
X19781Y-16631D01*
X19704Y-16682D01*
X19638Y-16746D01*
X19586Y-16822D01*
X19550Y-16907D01*
X19531Y-16997D01*
X19529Y-17089D01*
X19546Y-17180D01*
X19580Y-17266D01*
X19630Y-17343D01*
X19694Y-17410D01*
X19770Y-17462D01*
X19854Y-17499D01*
X19944Y-17519D01*
X20036Y-17521D01*
X20127Y-17505D01*
X20213Y-17472D01*
X20291Y-17422D01*
X20357Y-17359D01*
X20411Y-17283D01*
X20448Y-17199D01*
X20469Y-17109D01*
X20470Y-17004D01*
X20470Y-17660D01*
X20466Y-17664D01*
X20466Y-17821D01*
X20818Y-17821D01*
X20840Y-17799D01*
X20840Y-17901D01*
X20818Y-17879D01*
X20466Y-17879D01*
X20466Y-18036D01*
X20488Y-18058D01*
X20744Y-18058D01*
X20761Y-18058D01*
X20778Y-18055D01*
X20794Y-18048D01*
X20808Y-18038D01*
X20820Y-18026D01*
X20830Y-18012D01*
X20837Y-17996D01*
X20840Y-17979D01*
X20840Y-18181D01*
X20830Y-18166D01*
X20816Y-18152D01*
X20800Y-18142D01*
X20782Y-18134D01*
X20762Y-18130D01*
X20743Y-18130D01*
X20408Y-18130D01*
X20408Y-18036D01*
X20408Y-17879D01*
X20408Y-17821D01*
X20408Y-17664D01*
X20386Y-17642D01*
X20130Y-17642D01*
X20113Y-17642D01*
X20096Y-17645D01*
X20080Y-17652D01*
X20066Y-17662D01*
X20054Y-17674D01*
X20044Y-17688D01*
X20037Y-17704D01*
X20034Y-17721D01*
X20034Y-17799D01*
X20056Y-17821D01*
X20408Y-17821D01*
X20408Y-17879D01*
X20056Y-17879D01*
X20034Y-17901D01*
X20034Y-17979D01*
X20037Y-17996D01*
X20044Y-18012D01*
X20054Y-18026D01*
X20066Y-18038D01*
X20080Y-18048D01*
X20096Y-18055D01*
X20113Y-18058D01*
X20130Y-18058D01*
X20386Y-18058D01*
X20408Y-18036D01*
X20408Y-18130D01*
X20112Y-18130D01*
X20093Y-18134D01*
X20075Y-18141D01*
X20058Y-18152D01*
X20044Y-18166D01*
X20034Y-18182D01*
X20026Y-18200D01*
X20022Y-18220D01*
X20015Y-18220D01*
X20013Y-18206D01*
X20006Y-18188D01*
X20005Y-18186D01*
X20005Y-17974D01*
X20005Y-17901D01*
X20005Y-17799D01*
X20005Y-17726D01*
X20002Y-17709D01*
X19995Y-17693D01*
X19985Y-17679D01*
X19973Y-17667D01*
X19959Y-17657D01*
X19943Y-17650D01*
X19926Y-17647D01*
X19909Y-17647D01*
X19677Y-17647D01*
X19655Y-17669D01*
X19655Y-17821D01*
X19983Y-17821D01*
X20005Y-17799D01*
X20005Y-17901D01*
X19983Y-17879D01*
X19655Y-17879D01*
X19655Y-18031D01*
X19677Y-18053D01*
X19909Y-18053D01*
X19926Y-18053D01*
X19943Y-18050D01*
X19959Y-18043D01*
X19973Y-18033D01*
X19985Y-18021D01*
X19995Y-18007D01*
X20002Y-17991D01*
X20005Y-17974D01*
X20005Y-18186D01*
X19995Y-18171D01*
X19981Y-18157D01*
X19965Y-18147D01*
X19947Y-18139D01*
X19927Y-18135D01*
X19908Y-18135D01*
X19369Y-18135D01*
X19369Y-18053D01*
X19575Y-18053D01*
X19597Y-18031D01*
X19597Y-17909D01*
X19597Y-17879D01*
X19597Y-17821D01*
X19597Y-17791D01*
X19597Y-17669D01*
X19575Y-17647D01*
X19470Y-17647D01*
X19470Y-16904D01*
X19452Y-16814D01*
X19417Y-16728D01*
X19366Y-16652D01*
X19301Y-16586D01*
X19225Y-16535D01*
X19140Y-16499D01*
X19049Y-16480D01*
X18957Y-16480D01*
X18867Y-16497D01*
X18781Y-16531D01*
X18704Y-16582D01*
X18638Y-16646D01*
X18586Y-16722D01*
X18550Y-16807D01*
X18531Y-16897D01*
X18529Y-16989D01*
X18546Y-17080D01*
X18580Y-17166D01*
X18630Y-17243D01*
X18694Y-17310D01*
X18770Y-17362D01*
X18854Y-17399D01*
X18944Y-17419D01*
X19036Y-17421D01*
X19127Y-17405D01*
X19213Y-17372D01*
X19291Y-17322D01*
X19357Y-17259D01*
X19411Y-17183D01*
X19448Y-17099D01*
X19469Y-17009D01*
X19470Y-16904D01*
X19470Y-17647D01*
X19343Y-17647D01*
X19326Y-17647D01*
X19309Y-17650D01*
X19293Y-17657D01*
X19279Y-17667D01*
X19267Y-17679D01*
X19261Y-17686D01*
X19097Y-17523D01*
X19094Y-17519D01*
X19092Y-17518D01*
X19070Y-17499D01*
X19068Y-17498D01*
X19043Y-17484D01*
X19042Y-17483D01*
X19041Y-17483D01*
X19031Y-17480D01*
X19013Y-17474D01*
X18982Y-17471D01*
X18981Y-17471D01*
X18980Y-17471D01*
X18214Y-17471D01*
X18291Y-17422D01*
X18357Y-17359D01*
X18411Y-17283D01*
X18448Y-17199D01*
X18469Y-17109D01*
X18470Y-17004D01*
X18452Y-16914D01*
X18417Y-16828D01*
X18366Y-16752D01*
X18301Y-16686D01*
X18225Y-16635D01*
X18140Y-16599D01*
X18049Y-16580D01*
X17957Y-16580D01*
X17867Y-16597D01*
X17781Y-16631D01*
X17704Y-16682D01*
X17638Y-16746D01*
X17586Y-16822D01*
X17550Y-16907D01*
X17531Y-16997D01*
X17529Y-17089D01*
X17546Y-17180D01*
X17580Y-17266D01*
X17630Y-17343D01*
X17694Y-17410D01*
X17770Y-17462D01*
X17790Y-17471D01*
X17470Y-17471D01*
X17470Y-16904D01*
X17452Y-16814D01*
X17417Y-16728D01*
X17366Y-16652D01*
X17301Y-16586D01*
X17225Y-16535D01*
X17140Y-16499D01*
X17049Y-16480D01*
X16957Y-16480D01*
X16867Y-16497D01*
X16781Y-16531D01*
X16704Y-16582D01*
X16638Y-16646D01*
X16586Y-16722D01*
X16550Y-16807D01*
X16531Y-16897D01*
X16529Y-16989D01*
X16546Y-17080D01*
X16580Y-17166D01*
X16630Y-17243D01*
X16694Y-17310D01*
X16770Y-17362D01*
X16854Y-17399D01*
X16944Y-17419D01*
X17036Y-17421D01*
X17127Y-17405D01*
X17213Y-17372D01*
X17291Y-17322D01*
X17357Y-17259D01*
X17411Y-17183D01*
X17448Y-17099D01*
X17469Y-17009D01*
X17470Y-16904D01*
X17470Y-17471D01*
X16745Y-17471D01*
X16743Y-17469D01*
X16710Y-17446D01*
X16672Y-17431D01*
X16632Y-17422D01*
X16591Y-17422D01*
X16551Y-17429D01*
X16514Y-17445D01*
X16479Y-17467D01*
X16470Y-17475D01*
X16470Y-17004D01*
X16452Y-16914D01*
X16417Y-16828D01*
X16366Y-16752D01*
X16301Y-16686D01*
X16225Y-16635D01*
X16140Y-16599D01*
X16049Y-16580D01*
X15957Y-16580D01*
X15867Y-16597D01*
X15781Y-16631D01*
X15704Y-16682D01*
X15638Y-16746D01*
X15586Y-16822D01*
X15550Y-16907D01*
X15531Y-16997D01*
X15529Y-17089D01*
X15546Y-17180D01*
X15580Y-17266D01*
X15630Y-17343D01*
X15694Y-17410D01*
X15770Y-17462D01*
X15854Y-17499D01*
X15944Y-17519D01*
X16036Y-17521D01*
X16127Y-17505D01*
X16213Y-17472D01*
X16291Y-17422D01*
X16357Y-17359D01*
X16411Y-17283D01*
X16448Y-17199D01*
X16469Y-17109D01*
X16470Y-17004D01*
X16470Y-17475D01*
X16450Y-17495D01*
X16427Y-17529D01*
X16411Y-17566D01*
X16402Y-17606D01*
X16402Y-17647D01*
X16409Y-17687D01*
X16424Y-17725D01*
X16446Y-17759D01*
X16452Y-17766D01*
X16367Y-17766D01*
X16351Y-17742D01*
X16286Y-17676D01*
X16210Y-17625D01*
X16125Y-17589D01*
X16034Y-17570D01*
X15942Y-17570D01*
X15852Y-17587D01*
X15766Y-17621D01*
X15689Y-17672D01*
X15623Y-17736D01*
X15571Y-17812D01*
X15535Y-17897D01*
X15516Y-17987D01*
X15514Y-18079D01*
X15531Y-18170D01*
X15565Y-18256D01*
X15615Y-18333D01*
X15679Y-18400D01*
X15755Y-18452D01*
X15839Y-18489D01*
X15902Y-18503D01*
X15882Y-18507D01*
X15796Y-18541D01*
X15719Y-18592D01*
X15653Y-18656D01*
X15601Y-18732D01*
X15565Y-18817D01*
X15546Y-18907D01*
X15544Y-18999D01*
X15561Y-19090D01*
X15589Y-19161D01*
X15420Y-19330D01*
X14729Y-19330D01*
X14729Y-18012D01*
X14992Y-17749D01*
X15299Y-17749D01*
X15300Y-17749D01*
X15322Y-17747D01*
X15323Y-17747D01*
X15345Y-17740D01*
X15365Y-17730D01*
X15366Y-17729D01*
X15383Y-17715D01*
X15383Y-17714D01*
X15384Y-17714D01*
X15398Y-17697D01*
X15399Y-17697D01*
X15409Y-17677D01*
X15410Y-17676D01*
X15416Y-17655D01*
X15417Y-17654D01*
X15418Y-17634D01*
X15419Y-17632D01*
X15419Y-17631D01*
X15419Y-17630D01*
X15419Y-16616D01*
X15616Y-16419D01*
X29384Y-16419D01*
X29581Y-16616D01*
X29581Y-23384D01*
M02*
