G04 (created by PCBNEW-RS274X (2012-03-22 BZR 3475)-stable) date Tue 28 Aug 2012 01:49:52 AM CEST*
G01*
G70*
G90*
%MOIN*%
G04 Gerber Fmt 3.4, Leading zero omitted, Abs format*
%FSLAX34Y34*%
G04 APERTURE LIST*
%ADD10C,0.006000*%
%ADD11C,0.005900*%
%ADD12C,0.003900*%
%ADD13R,0.045000X0.025000*%
%ADD14R,0.025000X0.025000*%
%ADD15C,0.074000*%
%ADD16R,0.063000X0.024000*%
%ADD17R,0.058300X0.023000*%
%ADD18R,0.039400X0.045000*%
%ADD19R,0.055000X0.035000*%
%ADD20R,0.045000X0.039400*%
%ADD21R,0.030000X0.030000*%
%ADD22R,0.020000X0.030000*%
%ADD23R,0.078700X0.015700*%
%ADD24R,0.070800X0.074800*%
%ADD25R,0.035000X0.055000*%
%ADD26C,0.021700*%
%ADD27C,0.011800*%
G04 APERTURE END LIST*
G54D10*
G54D11*
X13923Y-17847D02*
X13906Y-17864D01*
X13889Y-17898D01*
X13889Y-17982D01*
X13906Y-18016D01*
X13923Y-18033D01*
X13957Y-18050D01*
X13990Y-18050D01*
X14041Y-18033D01*
X14243Y-17831D01*
X14243Y-18050D01*
X14226Y-18353D02*
X14243Y-18319D01*
X14243Y-18252D01*
X14226Y-18218D01*
X14210Y-18201D01*
X14176Y-18184D01*
X14075Y-18184D01*
X14041Y-18201D01*
X14024Y-18218D01*
X14007Y-18252D01*
X14007Y-18319D01*
X14024Y-18353D01*
X14243Y-21842D02*
X14075Y-21724D01*
X14243Y-21639D02*
X13889Y-21639D01*
X13889Y-21774D01*
X13906Y-21808D01*
X13923Y-21825D01*
X13957Y-21842D01*
X14007Y-21842D01*
X14041Y-21825D01*
X14058Y-21808D01*
X14075Y-21774D01*
X14075Y-21639D01*
X13889Y-21960D02*
X13889Y-22179D01*
X14024Y-22061D01*
X14024Y-22111D01*
X14041Y-22145D01*
X14058Y-22162D01*
X14092Y-22179D01*
X14176Y-22179D01*
X14210Y-22162D01*
X14226Y-22145D01*
X14243Y-22111D01*
X14243Y-22010D01*
X14226Y-21976D01*
X14210Y-21960D01*
G54D12*
X15300Y-17630D02*
X15300Y-16300D01*
X15300Y-22374D02*
X15300Y-23700D01*
X29700Y-23700D02*
X15300Y-23700D01*
X29700Y-16300D02*
X29700Y-23700D01*
X15300Y-16300D02*
X29700Y-16300D01*
X10039Y-17630D02*
X15300Y-17630D01*
X10039Y-22374D02*
X15300Y-22374D01*
X10039Y-17630D02*
X10039Y-22374D01*
G54D11*
X23150Y-19903D02*
X23150Y-20297D01*
X20100Y-18425D02*
X20100Y-18975D01*
X19000Y-19800D02*
X19550Y-19800D01*
X18250Y-19800D02*
X18800Y-19800D01*
G54D13*
X23400Y-20400D03*
X23400Y-19800D03*
G54D14*
X14683Y-19890D03*
X15037Y-19890D03*
X14683Y-20690D03*
X15037Y-20690D03*
G54D15*
X28050Y-18000D03*
X27950Y-19000D03*
X28050Y-20000D03*
X27950Y-21000D03*
X28050Y-22000D03*
G54D16*
X19263Y-20650D03*
X19263Y-21150D03*
X19263Y-21650D03*
X19263Y-22150D03*
X17137Y-22150D03*
X17137Y-21650D03*
X17137Y-21150D03*
X17137Y-20650D03*
G54D17*
X20074Y-20650D03*
X20074Y-21150D03*
X20074Y-21650D03*
X20074Y-22150D03*
G54D18*
X21746Y-18200D03*
X22454Y-18200D03*
G54D15*
X16000Y-16950D03*
X17000Y-17050D03*
X18000Y-16950D03*
X19000Y-17050D03*
X20000Y-16950D03*
X21000Y-17050D03*
X22000Y-16950D03*
X23000Y-17050D03*
X24000Y-16950D03*
X25000Y-17050D03*
X26000Y-16950D03*
X27000Y-17050D03*
X28000Y-16950D03*
X29000Y-17050D03*
X16000Y-22950D03*
X17000Y-23050D03*
X18000Y-22992D03*
X19000Y-23050D03*
X20000Y-22950D03*
X21000Y-23050D03*
X22000Y-23050D03*
X23000Y-23050D03*
X24000Y-22950D03*
X25000Y-23050D03*
X26000Y-22950D03*
X27000Y-23050D03*
X28000Y-23050D03*
X29000Y-23050D03*
X29050Y-18000D03*
X28950Y-19000D03*
X29050Y-20000D03*
X28950Y-21000D03*
X29050Y-22000D03*
G54D13*
X22200Y-19600D03*
X22200Y-20200D03*
G54D19*
X23200Y-18125D03*
X23200Y-18875D03*
G54D13*
X20900Y-21500D03*
X20900Y-22100D03*
G54D20*
X20100Y-18346D03*
X20100Y-19054D03*
G54D14*
X14683Y-20290D03*
X15037Y-20290D03*
G54D21*
X25400Y-18700D03*
G54D15*
X15950Y-22000D03*
X16050Y-21000D03*
X15950Y-20000D03*
X16050Y-19000D03*
X15950Y-18000D03*
G54D21*
X24700Y-18700D03*
G54D19*
X20900Y-18325D03*
X20900Y-19075D03*
X17100Y-18025D03*
X17100Y-18775D03*
G54D21*
X22110Y-20670D03*
G54D22*
X21575Y-20600D03*
X20825Y-20600D03*
X21575Y-19600D03*
X21200Y-20600D03*
X20825Y-19600D03*
G54D23*
X11770Y-20000D03*
X11770Y-20255D03*
X11770Y-19489D03*
G54D24*
X10609Y-21574D03*
X10609Y-18426D03*
G54D23*
X11770Y-19745D03*
X11770Y-20511D03*
G54D22*
X18525Y-18100D03*
X19275Y-18100D03*
X18525Y-19100D03*
X18900Y-18100D03*
X19275Y-19100D03*
G54D14*
X18077Y-18700D03*
X17723Y-18700D03*
G54D25*
X19650Y-19800D03*
X18900Y-19800D03*
X18150Y-19800D03*
G54D26*
X19730Y-20810D03*
X18540Y-20790D03*
X22550Y-21760D03*
X22340Y-21550D03*
X17210Y-19410D03*
X17740Y-19610D03*
X23100Y-20650D03*
X17800Y-20800D03*
X19730Y-18960D03*
X26030Y-21090D03*
X25930Y-19690D03*
X21990Y-19120D03*
X18700Y-18470D03*
X20590Y-18810D03*
X27200Y-18330D03*
X20600Y-22240D03*
X23640Y-18890D03*
X25790Y-20500D03*
X17920Y-21760D03*
X21300Y-20210D03*
X17480Y-18340D03*
X23430Y-21410D03*
X25370Y-18350D03*
X24670Y-18350D03*
X17530Y-17940D03*
G54D10*
X19730Y-20810D02*
X19890Y-20650D01*
X19730Y-20810D02*
X19570Y-20650D01*
X19570Y-20650D02*
X19263Y-20650D01*
X19890Y-20650D02*
X20074Y-20650D01*
X19263Y-21150D02*
X20074Y-21150D01*
X19263Y-21150D02*
X18900Y-21150D01*
X18900Y-21150D02*
X18540Y-20790D01*
X16800Y-22150D02*
X17137Y-22150D01*
X16000Y-22950D02*
X16800Y-22150D01*
X18000Y-22992D02*
X18000Y-22260D01*
X18000Y-22260D02*
X17390Y-21650D01*
X17390Y-21650D02*
X17137Y-21650D01*
X22550Y-21760D02*
X27190Y-21760D01*
X27190Y-21760D02*
X27950Y-21000D01*
X22740Y-21638D02*
X27140Y-21638D01*
X22340Y-21550D02*
X22652Y-21550D01*
X22652Y-21550D02*
X22740Y-21638D01*
X27470Y-20580D02*
X28050Y-20000D01*
X27140Y-21638D02*
X27470Y-21308D01*
X27470Y-21308D02*
X27470Y-20580D01*
X16470Y-19480D02*
X17140Y-19480D01*
X15950Y-20000D02*
X16470Y-19480D01*
X15037Y-19890D02*
X15840Y-19890D01*
X17140Y-19480D02*
X17210Y-19410D01*
X15840Y-19890D02*
X15950Y-20000D01*
X16450Y-20600D02*
X16450Y-19900D01*
X16740Y-19610D02*
X17740Y-19610D01*
X15340Y-20290D02*
X16050Y-21000D01*
X15037Y-20290D02*
X15340Y-20290D01*
X16050Y-21000D02*
X16450Y-20600D01*
X16450Y-19900D02*
X16740Y-19610D01*
X23100Y-20650D02*
X23150Y-20650D01*
X23150Y-20650D02*
X23400Y-20400D01*
G54D27*
X18300Y-20300D02*
X19320Y-20300D01*
X19960Y-19194D02*
X20100Y-19054D01*
X19780Y-20300D02*
X19960Y-20120D01*
X19960Y-20120D02*
X19960Y-19600D01*
X19960Y-19600D02*
X19960Y-19194D01*
G54D10*
X20100Y-19054D02*
X19824Y-19054D01*
G54D27*
X19320Y-20300D02*
X19780Y-20300D01*
X20825Y-19600D02*
X19960Y-19600D01*
X15037Y-20690D02*
X15280Y-20690D01*
X15460Y-20870D02*
X15460Y-21510D01*
X15460Y-21510D02*
X15950Y-22000D01*
X15280Y-20690D02*
X15460Y-20870D01*
X17800Y-20800D02*
X18300Y-20300D01*
G54D10*
X19824Y-19054D02*
X19730Y-18960D01*
G54D27*
X19929Y-17769D02*
X20100Y-17940D01*
X18611Y-17769D02*
X19270Y-17769D01*
X19270Y-17769D02*
X19500Y-17769D01*
X19500Y-17769D02*
X19929Y-17769D01*
X19270Y-17774D02*
X19270Y-17810D01*
X19500Y-17790D02*
X19500Y-17769D01*
X19270Y-17810D02*
X19270Y-17769D01*
X19275Y-17769D02*
X19270Y-17774D01*
X20246Y-18200D02*
X20100Y-18346D01*
X21025Y-18200D02*
X20900Y-18325D01*
X20100Y-17940D02*
X20100Y-18346D01*
X19650Y-19360D02*
X19500Y-19210D01*
X19500Y-17769D02*
X19500Y-17790D01*
X19500Y-19210D02*
X19500Y-17769D01*
X19650Y-19800D02*
X19650Y-19360D01*
X21746Y-18200D02*
X20246Y-18200D01*
X18525Y-17855D02*
X18611Y-17769D01*
X21746Y-18200D02*
X21025Y-18200D01*
X18525Y-18100D02*
X18525Y-17855D01*
X19275Y-18100D02*
X19275Y-17769D01*
X21140Y-19530D02*
X21960Y-18710D01*
X21960Y-18710D02*
X22340Y-18710D01*
X21140Y-19730D02*
X21140Y-19530D01*
X20825Y-20045D02*
X21140Y-19730D01*
X15950Y-18000D02*
X16360Y-17590D01*
X20760Y-17850D02*
X22380Y-17850D01*
X20500Y-17590D02*
X20760Y-17850D01*
X16360Y-17590D02*
X20500Y-17590D01*
X23125Y-18200D02*
X23200Y-18125D01*
X20825Y-20600D02*
X20825Y-20045D01*
X22380Y-17850D02*
X22454Y-17924D01*
X22454Y-18200D02*
X23125Y-18200D01*
X22340Y-18710D02*
X22454Y-18596D01*
X22454Y-17924D02*
X22454Y-18200D01*
X22454Y-18596D02*
X22454Y-18200D01*
G54D10*
X26030Y-19790D02*
X26030Y-21090D01*
X25930Y-19690D02*
X26030Y-19790D01*
X18900Y-18380D02*
X18810Y-18470D01*
X18900Y-18100D02*
X18900Y-18380D01*
X18810Y-18470D02*
X18700Y-18470D01*
G54D27*
X25790Y-20500D02*
X25800Y-20500D01*
G54D10*
X20680Y-18720D02*
X20590Y-18810D01*
X20900Y-18740D02*
X20880Y-18720D01*
G54D27*
X23430Y-21410D02*
X23440Y-21420D01*
G54D10*
X23640Y-18890D02*
X23625Y-18875D01*
G54D27*
X28550Y-17550D02*
X28000Y-17000D01*
X20900Y-19075D02*
X20855Y-19075D01*
X25800Y-20500D02*
X25820Y-20480D01*
G54D10*
X20520Y-22160D02*
X20520Y-22100D01*
G54D27*
X28000Y-17000D02*
X28000Y-16950D01*
X15561Y-19489D02*
X16050Y-19000D01*
X23440Y-21420D02*
X23490Y-21420D01*
G54D10*
X20900Y-19075D02*
X20900Y-18740D01*
X20880Y-18720D02*
X20680Y-18720D01*
X20600Y-22240D02*
X20520Y-22160D01*
G54D27*
X27960Y-19000D02*
X28550Y-18410D01*
X27950Y-19000D02*
X27960Y-19000D01*
G54D10*
X27220Y-18350D02*
X27250Y-18350D01*
G54D27*
X21200Y-20310D02*
X21300Y-20210D01*
G54D10*
X27200Y-18330D02*
X27220Y-18350D01*
X19263Y-22150D02*
X18310Y-22150D01*
G54D27*
X11770Y-19489D02*
X15561Y-19489D01*
G54D10*
X18310Y-22150D02*
X17920Y-21760D01*
G54D27*
X28550Y-18410D02*
X28550Y-17550D01*
X21200Y-20600D02*
X21200Y-20310D01*
G54D10*
X14504Y-20511D02*
X14683Y-20690D01*
X11770Y-20511D02*
X14504Y-20511D01*
X14573Y-20000D02*
X14683Y-19890D01*
X11770Y-20000D02*
X14573Y-20000D01*
X25370Y-18350D02*
X25400Y-18380D01*
X25400Y-18380D02*
X25400Y-18700D01*
X24700Y-18380D02*
X24700Y-18700D01*
X24670Y-18350D02*
X24700Y-18380D01*
X14648Y-20255D02*
X14683Y-20290D01*
X11770Y-20255D02*
X14648Y-20255D01*
X21575Y-19600D02*
X22200Y-19600D01*
X21575Y-20600D02*
X22040Y-20600D01*
X22040Y-20600D02*
X22110Y-20670D01*
G54D27*
X18525Y-19100D02*
X18710Y-19100D01*
X18900Y-19290D02*
X18900Y-19800D01*
X18710Y-19100D02*
X18900Y-19290D01*
X19275Y-19100D02*
X19005Y-18830D01*
X18207Y-18830D02*
X18077Y-18700D01*
X19005Y-18830D02*
X18207Y-18830D01*
X21230Y-21500D02*
X21720Y-21010D01*
X20590Y-21500D02*
X20900Y-21500D01*
X17185Y-17940D02*
X17100Y-18025D01*
X24720Y-17570D02*
X27620Y-17570D01*
X20074Y-21650D02*
X19263Y-21650D01*
X17137Y-20650D02*
X17137Y-21150D01*
X17620Y-20650D02*
X18150Y-20120D01*
X18150Y-20120D02*
X18150Y-19800D01*
X17137Y-20650D02*
X17620Y-20650D01*
X27620Y-17570D02*
X28050Y-18000D01*
X23400Y-19800D02*
X23790Y-19800D01*
X23790Y-19800D02*
X24250Y-19340D01*
X17530Y-17940D02*
X17185Y-17940D01*
X22300Y-21010D02*
X22710Y-20600D01*
X24250Y-19340D02*
X24250Y-18040D01*
X18260Y-21650D02*
X17760Y-21150D01*
X17820Y-19000D02*
X17723Y-18903D01*
X17723Y-18700D02*
X17723Y-18133D01*
X17723Y-18903D02*
X17723Y-18700D01*
X22710Y-20600D02*
X22710Y-20000D01*
X17723Y-18133D02*
X17530Y-17940D01*
X19263Y-21650D02*
X18260Y-21650D01*
X18070Y-19000D02*
X17820Y-19000D01*
X18150Y-19080D02*
X18070Y-19000D01*
X18150Y-19800D02*
X18150Y-19080D01*
X20074Y-21650D02*
X20440Y-21650D01*
X17760Y-21150D02*
X17137Y-21150D01*
X24250Y-18040D02*
X24720Y-17570D01*
X20440Y-21650D02*
X20590Y-21500D01*
X21720Y-21010D02*
X22300Y-21010D01*
X22910Y-19800D02*
X23400Y-19800D01*
X20900Y-21500D02*
X21230Y-21500D01*
X22710Y-20000D02*
X22910Y-19800D01*
G54D10*
G36*
X19341Y-18850D02*
X19249Y-18850D01*
X19122Y-18723D01*
X19119Y-18719D01*
X19117Y-18718D01*
X19095Y-18699D01*
X19093Y-18698D01*
X19068Y-18684D01*
X19067Y-18683D01*
X19066Y-18683D01*
X19056Y-18680D01*
X19038Y-18674D01*
X19007Y-18671D01*
X19006Y-18671D01*
X19005Y-18671D01*
X18302Y-18671D01*
X18302Y-18565D01*
X18298Y-18546D01*
X18291Y-18528D01*
X18280Y-18511D01*
X18266Y-18497D01*
X18250Y-18487D01*
X18232Y-18479D01*
X18212Y-18475D01*
X18193Y-18475D01*
X17942Y-18475D01*
X17923Y-18479D01*
X17905Y-18486D01*
X17899Y-18489D01*
X17896Y-18487D01*
X17882Y-18480D01*
X17882Y-18133D01*
X17879Y-18103D01*
X17879Y-18102D01*
X17870Y-18074D01*
X17870Y-18072D01*
X17862Y-18058D01*
X17856Y-18045D01*
X17836Y-18021D01*
X17835Y-18020D01*
X17737Y-17923D01*
X17738Y-17920D01*
X17730Y-17880D01*
X17715Y-17842D01*
X17692Y-17808D01*
X17663Y-17779D01*
X17630Y-17756D01*
X17612Y-17749D01*
X18407Y-17749D01*
X18394Y-17765D01*
X18379Y-17792D01*
X18378Y-17792D01*
X18378Y-17794D01*
X18375Y-17804D01*
X18369Y-17822D01*
X18366Y-17853D01*
X18366Y-17854D01*
X18366Y-17855D01*
X18366Y-17868D01*
X18361Y-17872D01*
X18347Y-17886D01*
X18337Y-17902D01*
X18329Y-17920D01*
X18325Y-17940D01*
X18325Y-17959D01*
X18325Y-18260D01*
X18329Y-18279D01*
X18336Y-18297D01*
X18347Y-18314D01*
X18361Y-18328D01*
X18377Y-18338D01*
X18395Y-18346D01*
X18415Y-18350D01*
X18434Y-18350D01*
X18635Y-18350D01*
X18654Y-18346D01*
X18672Y-18339D01*
X18689Y-18328D01*
X18703Y-18314D01*
X18713Y-18298D01*
X18718Y-18284D01*
X18722Y-18292D01*
X18732Y-18306D01*
X18744Y-18318D01*
X18758Y-18328D01*
X18774Y-18335D01*
X18791Y-18338D01*
X18849Y-18338D01*
X18871Y-18316D01*
X18871Y-18159D01*
X18871Y-18129D01*
X18871Y-18071D01*
X18929Y-18071D01*
X18929Y-18129D01*
X18929Y-18159D01*
X18929Y-18316D01*
X18951Y-18338D01*
X19009Y-18338D01*
X19026Y-18335D01*
X19042Y-18328D01*
X19056Y-18318D01*
X19068Y-18306D01*
X19078Y-18292D01*
X19081Y-18284D01*
X19086Y-18297D01*
X19097Y-18314D01*
X19111Y-18328D01*
X19127Y-18338D01*
X19145Y-18346D01*
X19165Y-18350D01*
X19184Y-18350D01*
X19341Y-18350D01*
X19341Y-18850D01*
X19341Y-18850D01*
G37*
G54D11*
X19341Y-18850D02*
X19249Y-18850D01*
X19122Y-18723D01*
X19119Y-18719D01*
X19117Y-18718D01*
X19095Y-18699D01*
X19093Y-18698D01*
X19068Y-18684D01*
X19067Y-18683D01*
X19066Y-18683D01*
X19056Y-18680D01*
X19038Y-18674D01*
X19007Y-18671D01*
X19006Y-18671D01*
X19005Y-18671D01*
X18302Y-18671D01*
X18302Y-18565D01*
X18298Y-18546D01*
X18291Y-18528D01*
X18280Y-18511D01*
X18266Y-18497D01*
X18250Y-18487D01*
X18232Y-18479D01*
X18212Y-18475D01*
X18193Y-18475D01*
X17942Y-18475D01*
X17923Y-18479D01*
X17905Y-18486D01*
X17899Y-18489D01*
X17896Y-18487D01*
X17882Y-18480D01*
X17882Y-18133D01*
X17879Y-18103D01*
X17879Y-18102D01*
X17870Y-18074D01*
X17870Y-18072D01*
X17862Y-18058D01*
X17856Y-18045D01*
X17836Y-18021D01*
X17835Y-18020D01*
X17737Y-17923D01*
X17738Y-17920D01*
X17730Y-17880D01*
X17715Y-17842D01*
X17692Y-17808D01*
X17663Y-17779D01*
X17630Y-17756D01*
X17612Y-17749D01*
X18407Y-17749D01*
X18394Y-17765D01*
X18379Y-17792D01*
X18378Y-17792D01*
X18378Y-17794D01*
X18375Y-17804D01*
X18369Y-17822D01*
X18366Y-17853D01*
X18366Y-17854D01*
X18366Y-17855D01*
X18366Y-17868D01*
X18361Y-17872D01*
X18347Y-17886D01*
X18337Y-17902D01*
X18329Y-17920D01*
X18325Y-17940D01*
X18325Y-17959D01*
X18325Y-18260D01*
X18329Y-18279D01*
X18336Y-18297D01*
X18347Y-18314D01*
X18361Y-18328D01*
X18377Y-18338D01*
X18395Y-18346D01*
X18415Y-18350D01*
X18434Y-18350D01*
X18635Y-18350D01*
X18654Y-18346D01*
X18672Y-18339D01*
X18689Y-18328D01*
X18703Y-18314D01*
X18713Y-18298D01*
X18718Y-18284D01*
X18722Y-18292D01*
X18732Y-18306D01*
X18744Y-18318D01*
X18758Y-18328D01*
X18774Y-18335D01*
X18791Y-18338D01*
X18849Y-18338D01*
X18871Y-18316D01*
X18871Y-18159D01*
X18871Y-18129D01*
X18871Y-18071D01*
X18929Y-18071D01*
X18929Y-18129D01*
X18929Y-18159D01*
X18929Y-18316D01*
X18951Y-18338D01*
X19009Y-18338D01*
X19026Y-18335D01*
X19042Y-18328D01*
X19056Y-18318D01*
X19068Y-18306D01*
X19078Y-18292D01*
X19081Y-18284D01*
X19086Y-18297D01*
X19097Y-18314D01*
X19111Y-18328D01*
X19127Y-18338D01*
X19145Y-18346D01*
X19165Y-18350D01*
X19184Y-18350D01*
X19341Y-18350D01*
X19341Y-18850D01*
G54D10*
G36*
X22295Y-18530D02*
X22274Y-18551D01*
X21962Y-18551D01*
X21960Y-18551D01*
X21929Y-18554D01*
X21899Y-18563D01*
X21881Y-18573D01*
X21873Y-18577D01*
X21868Y-18581D01*
X21848Y-18597D01*
X21847Y-18597D01*
X21847Y-18598D01*
X21263Y-19182D01*
X21263Y-19126D01*
X21263Y-19024D01*
X21263Y-18891D01*
X21260Y-18874D01*
X21253Y-18858D01*
X21243Y-18844D01*
X21231Y-18832D01*
X21217Y-18822D01*
X21201Y-18815D01*
X21184Y-18812D01*
X21167Y-18812D01*
X20951Y-18812D01*
X20929Y-18834D01*
X20929Y-19046D01*
X21241Y-19046D01*
X21263Y-19024D01*
X21263Y-19126D01*
X21241Y-19104D01*
X20929Y-19104D01*
X20929Y-19316D01*
X20951Y-19338D01*
X21107Y-19338D01*
X21033Y-19412D01*
X21029Y-19416D01*
X21021Y-19424D01*
X21021Y-19421D01*
X21014Y-19403D01*
X21003Y-19386D01*
X20989Y-19372D01*
X20973Y-19362D01*
X20955Y-19354D01*
X20935Y-19350D01*
X20916Y-19350D01*
X20871Y-19350D01*
X20871Y-19316D01*
X20871Y-19104D01*
X20871Y-19046D01*
X20871Y-18834D01*
X20849Y-18812D01*
X20633Y-18812D01*
X20616Y-18812D01*
X20599Y-18815D01*
X20583Y-18822D01*
X20569Y-18832D01*
X20557Y-18844D01*
X20547Y-18858D01*
X20540Y-18874D01*
X20537Y-18891D01*
X20537Y-19024D01*
X20559Y-19046D01*
X20871Y-19046D01*
X20871Y-19104D01*
X20559Y-19104D01*
X20537Y-19126D01*
X20537Y-19259D01*
X20540Y-19276D01*
X20547Y-19292D01*
X20557Y-19306D01*
X20569Y-19318D01*
X20583Y-19328D01*
X20599Y-19335D01*
X20616Y-19338D01*
X20633Y-19338D01*
X20849Y-19338D01*
X20871Y-19316D01*
X20871Y-19350D01*
X20715Y-19350D01*
X20696Y-19354D01*
X20678Y-19361D01*
X20661Y-19372D01*
X20647Y-19386D01*
X20637Y-19402D01*
X20629Y-19420D01*
X20625Y-19440D01*
X20625Y-19441D01*
X20119Y-19441D01*
X20119Y-19351D01*
X20335Y-19351D01*
X20354Y-19347D01*
X20372Y-19340D01*
X20389Y-19329D01*
X20403Y-19315D01*
X20413Y-19299D01*
X20421Y-19281D01*
X20425Y-19261D01*
X20425Y-19242D01*
X20425Y-18847D01*
X20421Y-18828D01*
X20414Y-18810D01*
X20403Y-18793D01*
X20389Y-18779D01*
X20373Y-18769D01*
X20355Y-18761D01*
X20335Y-18757D01*
X20316Y-18757D01*
X20229Y-18757D01*
X20229Y-18643D01*
X20335Y-18643D01*
X20354Y-18639D01*
X20372Y-18632D01*
X20389Y-18621D01*
X20403Y-18607D01*
X20413Y-18591D01*
X20421Y-18573D01*
X20425Y-18553D01*
X20425Y-18534D01*
X20425Y-18359D01*
X20525Y-18359D01*
X20525Y-18510D01*
X20529Y-18529D01*
X20536Y-18547D01*
X20547Y-18564D01*
X20561Y-18578D01*
X20577Y-18588D01*
X20595Y-18596D01*
X20615Y-18600D01*
X20634Y-18600D01*
X21185Y-18600D01*
X21204Y-18596D01*
X21222Y-18589D01*
X21239Y-18578D01*
X21253Y-18564D01*
X21263Y-18548D01*
X21271Y-18530D01*
X21275Y-18510D01*
X21275Y-18491D01*
X21275Y-18359D01*
X21449Y-18359D01*
X21449Y-18435D01*
X21453Y-18454D01*
X21460Y-18472D01*
X21471Y-18489D01*
X21485Y-18503D01*
X21501Y-18513D01*
X21519Y-18521D01*
X21539Y-18525D01*
X21558Y-18525D01*
X21953Y-18525D01*
X21972Y-18521D01*
X21990Y-18514D01*
X22007Y-18503D01*
X22021Y-18489D01*
X22031Y-18473D01*
X22039Y-18455D01*
X22043Y-18435D01*
X22043Y-18416D01*
X22043Y-18009D01*
X22157Y-18009D01*
X22157Y-18435D01*
X22161Y-18454D01*
X22168Y-18472D01*
X22179Y-18489D01*
X22193Y-18503D01*
X22209Y-18513D01*
X22227Y-18521D01*
X22247Y-18525D01*
X22266Y-18525D01*
X22295Y-18525D01*
X22295Y-18530D01*
X22295Y-18530D01*
G37*
G54D11*
X22295Y-18530D02*
X22274Y-18551D01*
X21962Y-18551D01*
X21960Y-18551D01*
X21929Y-18554D01*
X21899Y-18563D01*
X21881Y-18573D01*
X21873Y-18577D01*
X21868Y-18581D01*
X21848Y-18597D01*
X21847Y-18597D01*
X21847Y-18598D01*
X21263Y-19182D01*
X21263Y-19126D01*
X21263Y-19024D01*
X21263Y-18891D01*
X21260Y-18874D01*
X21253Y-18858D01*
X21243Y-18844D01*
X21231Y-18832D01*
X21217Y-18822D01*
X21201Y-18815D01*
X21184Y-18812D01*
X21167Y-18812D01*
X20951Y-18812D01*
X20929Y-18834D01*
X20929Y-19046D01*
X21241Y-19046D01*
X21263Y-19024D01*
X21263Y-19126D01*
X21241Y-19104D01*
X20929Y-19104D01*
X20929Y-19316D01*
X20951Y-19338D01*
X21107Y-19338D01*
X21033Y-19412D01*
X21029Y-19416D01*
X21021Y-19424D01*
X21021Y-19421D01*
X21014Y-19403D01*
X21003Y-19386D01*
X20989Y-19372D01*
X20973Y-19362D01*
X20955Y-19354D01*
X20935Y-19350D01*
X20916Y-19350D01*
X20871Y-19350D01*
X20871Y-19316D01*
X20871Y-19104D01*
X20871Y-19046D01*
X20871Y-18834D01*
X20849Y-18812D01*
X20633Y-18812D01*
X20616Y-18812D01*
X20599Y-18815D01*
X20583Y-18822D01*
X20569Y-18832D01*
X20557Y-18844D01*
X20547Y-18858D01*
X20540Y-18874D01*
X20537Y-18891D01*
X20537Y-19024D01*
X20559Y-19046D01*
X20871Y-19046D01*
X20871Y-19104D01*
X20559Y-19104D01*
X20537Y-19126D01*
X20537Y-19259D01*
X20540Y-19276D01*
X20547Y-19292D01*
X20557Y-19306D01*
X20569Y-19318D01*
X20583Y-19328D01*
X20599Y-19335D01*
X20616Y-19338D01*
X20633Y-19338D01*
X20849Y-19338D01*
X20871Y-19316D01*
X20871Y-19350D01*
X20715Y-19350D01*
X20696Y-19354D01*
X20678Y-19361D01*
X20661Y-19372D01*
X20647Y-19386D01*
X20637Y-19402D01*
X20629Y-19420D01*
X20625Y-19440D01*
X20625Y-19441D01*
X20119Y-19441D01*
X20119Y-19351D01*
X20335Y-19351D01*
X20354Y-19347D01*
X20372Y-19340D01*
X20389Y-19329D01*
X20403Y-19315D01*
X20413Y-19299D01*
X20421Y-19281D01*
X20425Y-19261D01*
X20425Y-19242D01*
X20425Y-18847D01*
X20421Y-18828D01*
X20414Y-18810D01*
X20403Y-18793D01*
X20389Y-18779D01*
X20373Y-18769D01*
X20355Y-18761D01*
X20335Y-18757D01*
X20316Y-18757D01*
X20229Y-18757D01*
X20229Y-18643D01*
X20335Y-18643D01*
X20354Y-18639D01*
X20372Y-18632D01*
X20389Y-18621D01*
X20403Y-18607D01*
X20413Y-18591D01*
X20421Y-18573D01*
X20425Y-18553D01*
X20425Y-18534D01*
X20425Y-18359D01*
X20525Y-18359D01*
X20525Y-18510D01*
X20529Y-18529D01*
X20536Y-18547D01*
X20547Y-18564D01*
X20561Y-18578D01*
X20577Y-18588D01*
X20595Y-18596D01*
X20615Y-18600D01*
X20634Y-18600D01*
X21185Y-18600D01*
X21204Y-18596D01*
X21222Y-18589D01*
X21239Y-18578D01*
X21253Y-18564D01*
X21263Y-18548D01*
X21271Y-18530D01*
X21275Y-18510D01*
X21275Y-18491D01*
X21275Y-18359D01*
X21449Y-18359D01*
X21449Y-18435D01*
X21453Y-18454D01*
X21460Y-18472D01*
X21471Y-18489D01*
X21485Y-18503D01*
X21501Y-18513D01*
X21519Y-18521D01*
X21539Y-18525D01*
X21558Y-18525D01*
X21953Y-18525D01*
X21972Y-18521D01*
X21990Y-18514D01*
X22007Y-18503D01*
X22021Y-18489D01*
X22031Y-18473D01*
X22039Y-18455D01*
X22043Y-18435D01*
X22043Y-18416D01*
X22043Y-18009D01*
X22157Y-18009D01*
X22157Y-18435D01*
X22161Y-18454D01*
X22168Y-18472D01*
X22179Y-18489D01*
X22193Y-18503D01*
X22209Y-18513D01*
X22227Y-18521D01*
X22247Y-18525D01*
X22266Y-18525D01*
X22295Y-18525D01*
X22295Y-18530D01*
G54D10*
G36*
X29581Y-23384D02*
X29520Y-23445D01*
X29520Y-21954D01*
X29520Y-19954D01*
X29520Y-17954D01*
X29502Y-17864D01*
X29470Y-17785D01*
X29470Y-17004D01*
X29452Y-16914D01*
X29417Y-16828D01*
X29366Y-16752D01*
X29301Y-16686D01*
X29225Y-16635D01*
X29140Y-16599D01*
X29049Y-16580D01*
X28957Y-16580D01*
X28867Y-16597D01*
X28781Y-16631D01*
X28704Y-16682D01*
X28638Y-16746D01*
X28586Y-16822D01*
X28550Y-16907D01*
X28531Y-16997D01*
X28529Y-17089D01*
X28546Y-17180D01*
X28580Y-17266D01*
X28630Y-17343D01*
X28694Y-17410D01*
X28770Y-17462D01*
X28854Y-17499D01*
X28944Y-17519D01*
X29036Y-17521D01*
X29127Y-17505D01*
X29213Y-17472D01*
X29291Y-17422D01*
X29357Y-17359D01*
X29411Y-17283D01*
X29448Y-17199D01*
X29469Y-17109D01*
X29470Y-17004D01*
X29470Y-17785D01*
X29467Y-17778D01*
X29416Y-17702D01*
X29351Y-17636D01*
X29275Y-17585D01*
X29190Y-17549D01*
X29099Y-17530D01*
X29007Y-17530D01*
X28917Y-17547D01*
X28831Y-17581D01*
X28754Y-17632D01*
X28688Y-17696D01*
X28636Y-17772D01*
X28600Y-17857D01*
X28581Y-17947D01*
X28579Y-18039D01*
X28596Y-18130D01*
X28630Y-18216D01*
X28680Y-18293D01*
X28744Y-18360D01*
X28820Y-18412D01*
X28904Y-18449D01*
X28994Y-18469D01*
X29086Y-18471D01*
X29177Y-18455D01*
X29263Y-18422D01*
X29341Y-18372D01*
X29407Y-18309D01*
X29461Y-18233D01*
X29498Y-18149D01*
X29519Y-18059D01*
X29520Y-17954D01*
X29520Y-19954D01*
X29502Y-19864D01*
X29467Y-19778D01*
X29420Y-19707D01*
X29420Y-18954D01*
X29402Y-18864D01*
X29367Y-18778D01*
X29316Y-18702D01*
X29251Y-18636D01*
X29175Y-18585D01*
X29090Y-18549D01*
X28999Y-18530D01*
X28907Y-18530D01*
X28817Y-18547D01*
X28731Y-18581D01*
X28654Y-18632D01*
X28588Y-18696D01*
X28536Y-18772D01*
X28500Y-18857D01*
X28481Y-18947D01*
X28479Y-19039D01*
X28496Y-19130D01*
X28530Y-19216D01*
X28580Y-19293D01*
X28644Y-19360D01*
X28720Y-19412D01*
X28804Y-19449D01*
X28894Y-19469D01*
X28986Y-19471D01*
X29077Y-19455D01*
X29163Y-19422D01*
X29241Y-19372D01*
X29307Y-19309D01*
X29361Y-19233D01*
X29398Y-19149D01*
X29419Y-19059D01*
X29420Y-18954D01*
X29420Y-19707D01*
X29416Y-19702D01*
X29351Y-19636D01*
X29275Y-19585D01*
X29190Y-19549D01*
X29099Y-19530D01*
X29007Y-19530D01*
X28917Y-19547D01*
X28831Y-19581D01*
X28754Y-19632D01*
X28688Y-19696D01*
X28636Y-19772D01*
X28600Y-19857D01*
X28581Y-19947D01*
X28579Y-20039D01*
X28596Y-20130D01*
X28630Y-20216D01*
X28680Y-20293D01*
X28744Y-20360D01*
X28820Y-20412D01*
X28904Y-20449D01*
X28994Y-20469D01*
X29086Y-20471D01*
X29177Y-20455D01*
X29263Y-20422D01*
X29341Y-20372D01*
X29407Y-20309D01*
X29461Y-20233D01*
X29498Y-20149D01*
X29519Y-20059D01*
X29520Y-19954D01*
X29520Y-21954D01*
X29502Y-21864D01*
X29467Y-21778D01*
X29420Y-21707D01*
X29420Y-20954D01*
X29402Y-20864D01*
X29367Y-20778D01*
X29316Y-20702D01*
X29251Y-20636D01*
X29175Y-20585D01*
X29090Y-20549D01*
X28999Y-20530D01*
X28907Y-20530D01*
X28817Y-20547D01*
X28731Y-20581D01*
X28654Y-20632D01*
X28588Y-20696D01*
X28536Y-20772D01*
X28520Y-20809D01*
X28520Y-19954D01*
X28502Y-19864D01*
X28467Y-19778D01*
X28416Y-19702D01*
X28410Y-19695D01*
X28410Y-18992D01*
X28400Y-18902D01*
X28372Y-18817D01*
X28338Y-18753D01*
X28280Y-18712D01*
X28238Y-18753D01*
X28238Y-18670D01*
X28197Y-18612D01*
X28117Y-18571D01*
X28031Y-18547D01*
X27942Y-18540D01*
X27852Y-18550D01*
X27767Y-18578D01*
X27703Y-18612D01*
X27662Y-18670D01*
X27950Y-18959D01*
X28238Y-18670D01*
X28238Y-18753D01*
X27991Y-19000D01*
X28280Y-19288D01*
X28338Y-19247D01*
X28379Y-19167D01*
X28403Y-19081D01*
X28410Y-18992D01*
X28410Y-19695D01*
X28351Y-19636D01*
X28275Y-19585D01*
X28238Y-19569D01*
X28238Y-19330D01*
X27950Y-19041D01*
X27909Y-19082D01*
X27909Y-19000D01*
X27620Y-18712D01*
X27562Y-18753D01*
X27521Y-18833D01*
X27497Y-18919D01*
X27490Y-19008D01*
X27500Y-19098D01*
X27528Y-19183D01*
X27562Y-19247D01*
X27620Y-19288D01*
X27909Y-19000D01*
X27909Y-19082D01*
X27662Y-19330D01*
X27703Y-19388D01*
X27783Y-19429D01*
X27869Y-19453D01*
X27958Y-19460D01*
X28048Y-19450D01*
X28133Y-19422D01*
X28197Y-19388D01*
X28238Y-19330D01*
X28238Y-19569D01*
X28190Y-19549D01*
X28099Y-19530D01*
X28007Y-19530D01*
X27917Y-19547D01*
X27831Y-19581D01*
X27754Y-19632D01*
X27688Y-19696D01*
X27636Y-19772D01*
X27600Y-19857D01*
X27581Y-19947D01*
X27579Y-20039D01*
X27596Y-20130D01*
X27630Y-20216D01*
X27637Y-20228D01*
X27379Y-20487D01*
X27378Y-20488D01*
X27362Y-20507D01*
X27351Y-20529D01*
X27350Y-20531D01*
X27347Y-20539D01*
X27343Y-20553D01*
X27340Y-20578D01*
X27340Y-20580D01*
X27340Y-21254D01*
X27086Y-21508D01*
X26238Y-21508D01*
X26238Y-21070D01*
X26230Y-21030D01*
X26215Y-20992D01*
X26192Y-20958D01*
X26163Y-20929D01*
X26160Y-20926D01*
X26160Y-19791D01*
X26160Y-19790D01*
X26158Y-19765D01*
X26150Y-19742D01*
X26150Y-19740D01*
X26142Y-19725D01*
X26139Y-19719D01*
X26138Y-19718D01*
X26137Y-19717D01*
X26137Y-19716D01*
X26138Y-19670D01*
X26130Y-19630D01*
X26115Y-19592D01*
X26092Y-19558D01*
X26063Y-19529D01*
X26030Y-19506D01*
X25992Y-19491D01*
X25952Y-19482D01*
X25911Y-19482D01*
X25871Y-19489D01*
X25834Y-19505D01*
X25799Y-19527D01*
X25770Y-19555D01*
X25747Y-19589D01*
X25731Y-19626D01*
X25722Y-19666D01*
X25722Y-19707D01*
X25729Y-19747D01*
X25744Y-19785D01*
X25766Y-19819D01*
X25794Y-19849D01*
X25828Y-19872D01*
X25865Y-19889D01*
X25900Y-19896D01*
X25900Y-20926D01*
X25899Y-20927D01*
X25870Y-20955D01*
X25847Y-20989D01*
X25831Y-21026D01*
X25822Y-21066D01*
X25822Y-21107D01*
X25829Y-21147D01*
X25844Y-21185D01*
X25866Y-21219D01*
X25894Y-21249D01*
X25928Y-21272D01*
X25965Y-21289D01*
X26005Y-21297D01*
X26046Y-21298D01*
X26086Y-21291D01*
X26124Y-21277D01*
X26158Y-21255D01*
X26188Y-21227D01*
X26211Y-21194D01*
X26228Y-21156D01*
X26237Y-21117D01*
X26238Y-21070D01*
X26238Y-21508D01*
X25650Y-21508D01*
X25650Y-18860D01*
X25650Y-18841D01*
X25650Y-18540D01*
X25646Y-18521D01*
X25639Y-18503D01*
X25628Y-18486D01*
X25614Y-18472D01*
X25598Y-18462D01*
X25580Y-18454D01*
X25560Y-18450D01*
X25552Y-18450D01*
X25568Y-18416D01*
X25577Y-18377D01*
X25578Y-18330D01*
X25570Y-18290D01*
X25555Y-18252D01*
X25532Y-18218D01*
X25503Y-18189D01*
X25470Y-18166D01*
X25432Y-18151D01*
X25392Y-18142D01*
X25351Y-18142D01*
X25311Y-18149D01*
X25274Y-18165D01*
X25239Y-18187D01*
X25210Y-18215D01*
X25187Y-18249D01*
X25171Y-18286D01*
X25162Y-18326D01*
X25162Y-18367D01*
X25169Y-18407D01*
X25184Y-18445D01*
X25196Y-18464D01*
X25186Y-18472D01*
X25172Y-18486D01*
X25162Y-18502D01*
X25154Y-18520D01*
X25150Y-18540D01*
X25150Y-18559D01*
X25150Y-18860D01*
X25154Y-18879D01*
X25161Y-18897D01*
X25172Y-18914D01*
X25186Y-18928D01*
X25202Y-18938D01*
X25220Y-18946D01*
X25240Y-18950D01*
X25259Y-18950D01*
X25560Y-18950D01*
X25579Y-18946D01*
X25597Y-18939D01*
X25614Y-18928D01*
X25628Y-18914D01*
X25638Y-18898D01*
X25646Y-18880D01*
X25650Y-18860D01*
X25650Y-21508D01*
X24950Y-21508D01*
X24950Y-18860D01*
X24950Y-18841D01*
X24950Y-18540D01*
X24946Y-18521D01*
X24939Y-18503D01*
X24928Y-18486D01*
X24914Y-18472D01*
X24898Y-18462D01*
X24880Y-18454D01*
X24860Y-18450D01*
X24852Y-18450D01*
X24868Y-18416D01*
X24877Y-18377D01*
X24878Y-18330D01*
X24870Y-18290D01*
X24855Y-18252D01*
X24832Y-18218D01*
X24803Y-18189D01*
X24770Y-18166D01*
X24732Y-18151D01*
X24692Y-18142D01*
X24651Y-18142D01*
X24611Y-18149D01*
X24574Y-18165D01*
X24539Y-18187D01*
X24510Y-18215D01*
X24487Y-18249D01*
X24471Y-18286D01*
X24462Y-18326D01*
X24462Y-18367D01*
X24469Y-18407D01*
X24484Y-18445D01*
X24496Y-18464D01*
X24486Y-18472D01*
X24472Y-18486D01*
X24462Y-18502D01*
X24454Y-18520D01*
X24450Y-18540D01*
X24450Y-18559D01*
X24450Y-18860D01*
X24454Y-18879D01*
X24461Y-18897D01*
X24472Y-18914D01*
X24486Y-18928D01*
X24502Y-18938D01*
X24520Y-18946D01*
X24540Y-18950D01*
X24559Y-18950D01*
X24860Y-18950D01*
X24879Y-18946D01*
X24897Y-18939D01*
X24914Y-18928D01*
X24928Y-18914D01*
X24938Y-18898D01*
X24946Y-18880D01*
X24950Y-18860D01*
X24950Y-21508D01*
X22794Y-21508D01*
X22745Y-21459D01*
X22744Y-21458D01*
X22725Y-21442D01*
X22703Y-21431D01*
X22701Y-21430D01*
X22693Y-21427D01*
X22679Y-21423D01*
X22654Y-21420D01*
X22652Y-21420D01*
X22503Y-21420D01*
X22502Y-21418D01*
X22473Y-21389D01*
X22440Y-21366D01*
X22402Y-21351D01*
X22362Y-21342D01*
X22321Y-21342D01*
X22281Y-21349D01*
X22244Y-21365D01*
X22209Y-21387D01*
X22180Y-21415D01*
X22157Y-21449D01*
X22141Y-21486D01*
X22132Y-21526D01*
X22132Y-21567D01*
X22139Y-21607D01*
X22154Y-21645D01*
X22176Y-21679D01*
X22204Y-21709D01*
X22238Y-21732D01*
X22275Y-21749D01*
X22315Y-21757D01*
X22342Y-21757D01*
X22342Y-21777D01*
X22349Y-21817D01*
X22364Y-21855D01*
X22386Y-21889D01*
X22414Y-21919D01*
X22448Y-21942D01*
X22485Y-21959D01*
X22525Y-21967D01*
X22566Y-21968D01*
X22606Y-21961D01*
X22644Y-21947D01*
X22678Y-21925D01*
X22708Y-21897D01*
X22712Y-21890D01*
X27189Y-21890D01*
X27190Y-21890D01*
X27215Y-21888D01*
X27238Y-21880D01*
X27240Y-21880D01*
X27254Y-21872D01*
X27261Y-21869D01*
X27262Y-21868D01*
X27281Y-21853D01*
X27282Y-21852D01*
X27720Y-21412D01*
X27804Y-21449D01*
X27894Y-21469D01*
X27986Y-21471D01*
X28077Y-21455D01*
X28163Y-21422D01*
X28241Y-21372D01*
X28307Y-21309D01*
X28361Y-21233D01*
X28398Y-21149D01*
X28419Y-21059D01*
X28420Y-20954D01*
X28402Y-20864D01*
X28367Y-20778D01*
X28316Y-20702D01*
X28251Y-20636D01*
X28175Y-20585D01*
X28090Y-20549D01*
X27999Y-20530D01*
X27907Y-20530D01*
X27817Y-20547D01*
X27731Y-20581D01*
X27654Y-20632D01*
X27600Y-20684D01*
X27600Y-20634D01*
X27821Y-20412D01*
X27904Y-20449D01*
X27994Y-20469D01*
X28086Y-20471D01*
X28177Y-20455D01*
X28263Y-20422D01*
X28341Y-20372D01*
X28407Y-20309D01*
X28461Y-20233D01*
X28498Y-20149D01*
X28519Y-20059D01*
X28520Y-19954D01*
X28520Y-20809D01*
X28500Y-20857D01*
X28481Y-20947D01*
X28479Y-21039D01*
X28496Y-21130D01*
X28530Y-21216D01*
X28580Y-21293D01*
X28644Y-21360D01*
X28720Y-21412D01*
X28804Y-21449D01*
X28894Y-21469D01*
X28986Y-21471D01*
X29077Y-21455D01*
X29163Y-21422D01*
X29241Y-21372D01*
X29307Y-21309D01*
X29361Y-21233D01*
X29398Y-21149D01*
X29419Y-21059D01*
X29420Y-20954D01*
X29420Y-21707D01*
X29416Y-21702D01*
X29351Y-21636D01*
X29275Y-21585D01*
X29190Y-21549D01*
X29099Y-21530D01*
X29007Y-21530D01*
X28917Y-21547D01*
X28831Y-21581D01*
X28754Y-21632D01*
X28688Y-21696D01*
X28636Y-21772D01*
X28600Y-21857D01*
X28581Y-21947D01*
X28579Y-22039D01*
X28596Y-22130D01*
X28630Y-22216D01*
X28680Y-22293D01*
X28744Y-22360D01*
X28820Y-22412D01*
X28904Y-22449D01*
X28994Y-22469D01*
X29086Y-22471D01*
X29177Y-22455D01*
X29263Y-22422D01*
X29341Y-22372D01*
X29407Y-22309D01*
X29461Y-22233D01*
X29498Y-22149D01*
X29519Y-22059D01*
X29520Y-21954D01*
X29520Y-23445D01*
X29470Y-23495D01*
X29470Y-23004D01*
X29452Y-22914D01*
X29417Y-22828D01*
X29366Y-22752D01*
X29301Y-22686D01*
X29225Y-22635D01*
X29140Y-22599D01*
X29049Y-22580D01*
X28957Y-22580D01*
X28867Y-22597D01*
X28781Y-22631D01*
X28704Y-22682D01*
X28638Y-22746D01*
X28586Y-22822D01*
X28550Y-22907D01*
X28531Y-22997D01*
X28529Y-23089D01*
X28546Y-23180D01*
X28580Y-23266D01*
X28630Y-23343D01*
X28694Y-23410D01*
X28770Y-23462D01*
X28854Y-23499D01*
X28944Y-23519D01*
X29036Y-23521D01*
X29127Y-23505D01*
X29213Y-23472D01*
X29291Y-23422D01*
X29357Y-23359D01*
X29411Y-23283D01*
X29448Y-23199D01*
X29469Y-23109D01*
X29470Y-23004D01*
X29470Y-23495D01*
X29384Y-23581D01*
X28520Y-23581D01*
X28520Y-21954D01*
X28502Y-21864D01*
X28467Y-21778D01*
X28416Y-21702D01*
X28351Y-21636D01*
X28275Y-21585D01*
X28190Y-21549D01*
X28099Y-21530D01*
X28007Y-21530D01*
X27917Y-21547D01*
X27831Y-21581D01*
X27754Y-21632D01*
X27688Y-21696D01*
X27636Y-21772D01*
X27600Y-21857D01*
X27581Y-21947D01*
X27579Y-22039D01*
X27596Y-22130D01*
X27630Y-22216D01*
X27680Y-22293D01*
X27744Y-22360D01*
X27820Y-22412D01*
X27904Y-22449D01*
X27994Y-22469D01*
X28086Y-22471D01*
X28177Y-22455D01*
X28263Y-22422D01*
X28341Y-22372D01*
X28407Y-22309D01*
X28461Y-22233D01*
X28498Y-22149D01*
X28519Y-22059D01*
X28520Y-21954D01*
X28520Y-23581D01*
X28470Y-23581D01*
X28470Y-23004D01*
X28452Y-22914D01*
X28417Y-22828D01*
X28366Y-22752D01*
X28301Y-22686D01*
X28225Y-22635D01*
X28140Y-22599D01*
X28049Y-22580D01*
X27957Y-22580D01*
X27867Y-22597D01*
X27781Y-22631D01*
X27704Y-22682D01*
X27638Y-22746D01*
X27586Y-22822D01*
X27550Y-22907D01*
X27531Y-22997D01*
X27529Y-23089D01*
X27546Y-23180D01*
X27580Y-23266D01*
X27630Y-23343D01*
X27694Y-23410D01*
X27770Y-23462D01*
X27854Y-23499D01*
X27944Y-23519D01*
X28036Y-23521D01*
X28127Y-23505D01*
X28213Y-23472D01*
X28291Y-23422D01*
X28357Y-23359D01*
X28411Y-23283D01*
X28448Y-23199D01*
X28469Y-23109D01*
X28470Y-23004D01*
X28470Y-23581D01*
X27470Y-23581D01*
X27470Y-23004D01*
X27452Y-22914D01*
X27417Y-22828D01*
X27366Y-22752D01*
X27301Y-22686D01*
X27225Y-22635D01*
X27140Y-22599D01*
X27049Y-22580D01*
X26957Y-22580D01*
X26867Y-22597D01*
X26781Y-22631D01*
X26704Y-22682D01*
X26638Y-22746D01*
X26586Y-22822D01*
X26550Y-22907D01*
X26531Y-22997D01*
X26529Y-23089D01*
X26546Y-23180D01*
X26580Y-23266D01*
X26630Y-23343D01*
X26694Y-23410D01*
X26770Y-23462D01*
X26854Y-23499D01*
X26944Y-23519D01*
X27036Y-23521D01*
X27127Y-23505D01*
X27213Y-23472D01*
X27291Y-23422D01*
X27357Y-23359D01*
X27411Y-23283D01*
X27448Y-23199D01*
X27469Y-23109D01*
X27470Y-23004D01*
X27470Y-23581D01*
X26470Y-23581D01*
X26470Y-22904D01*
X26452Y-22814D01*
X26417Y-22728D01*
X26366Y-22652D01*
X26301Y-22586D01*
X26225Y-22535D01*
X26140Y-22499D01*
X26049Y-22480D01*
X25957Y-22480D01*
X25867Y-22497D01*
X25781Y-22531D01*
X25704Y-22582D01*
X25638Y-22646D01*
X25586Y-22722D01*
X25550Y-22807D01*
X25531Y-22897D01*
X25529Y-22989D01*
X25546Y-23080D01*
X25580Y-23166D01*
X25630Y-23243D01*
X25694Y-23310D01*
X25770Y-23362D01*
X25854Y-23399D01*
X25944Y-23419D01*
X26036Y-23421D01*
X26127Y-23405D01*
X26213Y-23372D01*
X26291Y-23322D01*
X26357Y-23259D01*
X26411Y-23183D01*
X26448Y-23099D01*
X26469Y-23009D01*
X26470Y-22904D01*
X26470Y-23581D01*
X25470Y-23581D01*
X25470Y-23004D01*
X25452Y-22914D01*
X25417Y-22828D01*
X25366Y-22752D01*
X25301Y-22686D01*
X25225Y-22635D01*
X25140Y-22599D01*
X25049Y-22580D01*
X24957Y-22580D01*
X24867Y-22597D01*
X24781Y-22631D01*
X24704Y-22682D01*
X24638Y-22746D01*
X24586Y-22822D01*
X24550Y-22907D01*
X24531Y-22997D01*
X24529Y-23089D01*
X24546Y-23180D01*
X24580Y-23266D01*
X24630Y-23343D01*
X24694Y-23410D01*
X24770Y-23462D01*
X24854Y-23499D01*
X24944Y-23519D01*
X25036Y-23521D01*
X25127Y-23505D01*
X25213Y-23472D01*
X25291Y-23422D01*
X25357Y-23359D01*
X25411Y-23283D01*
X25448Y-23199D01*
X25469Y-23109D01*
X25470Y-23004D01*
X25470Y-23581D01*
X24470Y-23581D01*
X24470Y-22904D01*
X24452Y-22814D01*
X24417Y-22728D01*
X24366Y-22652D01*
X24301Y-22586D01*
X24225Y-22535D01*
X24140Y-22499D01*
X24049Y-22480D01*
X23957Y-22480D01*
X23867Y-22497D01*
X23781Y-22531D01*
X23704Y-22582D01*
X23638Y-22646D01*
X23586Y-22722D01*
X23550Y-22807D01*
X23531Y-22897D01*
X23529Y-22989D01*
X23546Y-23080D01*
X23580Y-23166D01*
X23630Y-23243D01*
X23694Y-23310D01*
X23770Y-23362D01*
X23854Y-23399D01*
X23944Y-23419D01*
X24036Y-23421D01*
X24127Y-23405D01*
X24213Y-23372D01*
X24291Y-23322D01*
X24357Y-23259D01*
X24411Y-23183D01*
X24448Y-23099D01*
X24469Y-23009D01*
X24470Y-22904D01*
X24470Y-23581D01*
X23470Y-23581D01*
X23470Y-23004D01*
X23452Y-22914D01*
X23417Y-22828D01*
X23366Y-22752D01*
X23301Y-22686D01*
X23225Y-22635D01*
X23140Y-22599D01*
X23049Y-22580D01*
X22957Y-22580D01*
X22867Y-22597D01*
X22781Y-22631D01*
X22704Y-22682D01*
X22638Y-22746D01*
X22586Y-22822D01*
X22550Y-22907D01*
X22531Y-22997D01*
X22529Y-23089D01*
X22546Y-23180D01*
X22580Y-23266D01*
X22630Y-23343D01*
X22694Y-23410D01*
X22770Y-23462D01*
X22854Y-23499D01*
X22944Y-23519D01*
X23036Y-23521D01*
X23127Y-23505D01*
X23213Y-23472D01*
X23291Y-23422D01*
X23357Y-23359D01*
X23411Y-23283D01*
X23448Y-23199D01*
X23469Y-23109D01*
X23470Y-23004D01*
X23470Y-23581D01*
X22470Y-23581D01*
X22470Y-23004D01*
X22452Y-22914D01*
X22417Y-22828D01*
X22366Y-22752D01*
X22301Y-22686D01*
X22225Y-22635D01*
X22140Y-22599D01*
X22049Y-22580D01*
X21957Y-22580D01*
X21867Y-22597D01*
X21781Y-22631D01*
X21704Y-22682D01*
X21638Y-22746D01*
X21586Y-22822D01*
X21550Y-22907D01*
X21531Y-22997D01*
X21529Y-23089D01*
X21546Y-23180D01*
X21580Y-23266D01*
X21630Y-23343D01*
X21694Y-23410D01*
X21770Y-23462D01*
X21854Y-23499D01*
X21944Y-23519D01*
X22036Y-23521D01*
X22127Y-23505D01*
X22213Y-23472D01*
X22291Y-23422D01*
X22357Y-23359D01*
X22411Y-23283D01*
X22448Y-23199D01*
X22469Y-23109D01*
X22470Y-23004D01*
X22470Y-23581D01*
X21470Y-23581D01*
X21470Y-23004D01*
X21452Y-22914D01*
X21417Y-22828D01*
X21366Y-22752D01*
X21301Y-22686D01*
X21225Y-22635D01*
X21213Y-22629D01*
X21213Y-22234D01*
X21213Y-22151D01*
X21213Y-22049D01*
X21213Y-21966D01*
X21210Y-21949D01*
X21203Y-21933D01*
X21193Y-21919D01*
X21181Y-21907D01*
X21167Y-21897D01*
X21151Y-21890D01*
X21134Y-21887D01*
X21117Y-21887D01*
X20951Y-21887D01*
X20929Y-21909D01*
X20929Y-22071D01*
X21191Y-22071D01*
X21213Y-22049D01*
X21213Y-22151D01*
X21191Y-22129D01*
X20929Y-22129D01*
X20929Y-22291D01*
X20951Y-22313D01*
X21117Y-22313D01*
X21134Y-22313D01*
X21151Y-22310D01*
X21167Y-22303D01*
X21181Y-22293D01*
X21193Y-22281D01*
X21203Y-22267D01*
X21210Y-22251D01*
X21213Y-22234D01*
X21213Y-22629D01*
X21140Y-22599D01*
X21049Y-22580D01*
X20957Y-22580D01*
X20871Y-22596D01*
X20871Y-22291D01*
X20871Y-22129D01*
X20871Y-22071D01*
X20871Y-21909D01*
X20849Y-21887D01*
X20683Y-21887D01*
X20666Y-21887D01*
X20649Y-21890D01*
X20633Y-21897D01*
X20619Y-21907D01*
X20607Y-21919D01*
X20597Y-21933D01*
X20590Y-21949D01*
X20587Y-21966D01*
X20587Y-22049D01*
X20609Y-22071D01*
X20871Y-22071D01*
X20871Y-22129D01*
X20609Y-22129D01*
X20587Y-22151D01*
X20587Y-22234D01*
X20590Y-22251D01*
X20597Y-22267D01*
X20607Y-22281D01*
X20619Y-22293D01*
X20633Y-22303D01*
X20649Y-22310D01*
X20666Y-22313D01*
X20683Y-22313D01*
X20849Y-22313D01*
X20871Y-22291D01*
X20871Y-22596D01*
X20867Y-22597D01*
X20781Y-22631D01*
X20704Y-22682D01*
X20638Y-22746D01*
X20586Y-22822D01*
X20550Y-22907D01*
X20531Y-22997D01*
X20529Y-23089D01*
X20546Y-23180D01*
X20580Y-23266D01*
X20630Y-23343D01*
X20694Y-23410D01*
X20770Y-23462D01*
X20854Y-23499D01*
X20944Y-23519D01*
X21036Y-23521D01*
X21127Y-23505D01*
X21213Y-23472D01*
X21291Y-23422D01*
X21357Y-23359D01*
X21411Y-23283D01*
X21448Y-23199D01*
X21469Y-23109D01*
X21470Y-23004D01*
X21470Y-23581D01*
X20470Y-23581D01*
X20470Y-22904D01*
X20453Y-22819D01*
X20453Y-22274D01*
X20453Y-22201D01*
X20453Y-22099D01*
X20453Y-22026D01*
X20450Y-22009D01*
X20443Y-21993D01*
X20433Y-21979D01*
X20421Y-21967D01*
X20407Y-21957D01*
X20391Y-21950D01*
X20374Y-21947D01*
X20357Y-21947D01*
X20125Y-21947D01*
X20103Y-21969D01*
X20103Y-22121D01*
X20431Y-22121D01*
X20453Y-22099D01*
X20453Y-22201D01*
X20431Y-22179D01*
X20103Y-22179D01*
X20103Y-22331D01*
X20125Y-22353D01*
X20357Y-22353D01*
X20374Y-22353D01*
X20391Y-22350D01*
X20407Y-22343D01*
X20421Y-22333D01*
X20433Y-22321D01*
X20443Y-22307D01*
X20450Y-22291D01*
X20453Y-22274D01*
X20453Y-22819D01*
X20452Y-22814D01*
X20417Y-22728D01*
X20366Y-22652D01*
X20301Y-22586D01*
X20225Y-22535D01*
X20140Y-22499D01*
X20049Y-22480D01*
X20045Y-22480D01*
X20045Y-22331D01*
X20045Y-22179D01*
X20045Y-22121D01*
X20045Y-21969D01*
X20023Y-21947D01*
X19791Y-21947D01*
X19774Y-21947D01*
X19757Y-21950D01*
X19741Y-21957D01*
X19727Y-21967D01*
X19715Y-21979D01*
X19705Y-21993D01*
X19698Y-22009D01*
X19695Y-22026D01*
X19695Y-22099D01*
X19717Y-22121D01*
X20045Y-22121D01*
X20045Y-22179D01*
X19717Y-22179D01*
X19695Y-22201D01*
X19695Y-22274D01*
X19698Y-22291D01*
X19705Y-22307D01*
X19715Y-22321D01*
X19727Y-22333D01*
X19741Y-22343D01*
X19757Y-22350D01*
X19774Y-22353D01*
X19791Y-22353D01*
X20023Y-22353D01*
X20045Y-22331D01*
X20045Y-22480D01*
X19957Y-22480D01*
X19867Y-22497D01*
X19781Y-22531D01*
X19704Y-22582D01*
X19666Y-22618D01*
X19666Y-22279D01*
X19666Y-22201D01*
X19666Y-22099D01*
X19666Y-22021D01*
X19663Y-22004D01*
X19656Y-21988D01*
X19646Y-21974D01*
X19634Y-21962D01*
X19620Y-21952D01*
X19604Y-21945D01*
X19587Y-21942D01*
X19570Y-21942D01*
X19314Y-21942D01*
X19292Y-21964D01*
X19292Y-22121D01*
X19644Y-22121D01*
X19666Y-22099D01*
X19666Y-22201D01*
X19644Y-22179D01*
X19292Y-22179D01*
X19292Y-22336D01*
X19314Y-22358D01*
X19570Y-22358D01*
X19587Y-22358D01*
X19604Y-22355D01*
X19620Y-22348D01*
X19634Y-22338D01*
X19646Y-22326D01*
X19656Y-22312D01*
X19663Y-22296D01*
X19666Y-22279D01*
X19666Y-22618D01*
X19638Y-22646D01*
X19586Y-22722D01*
X19550Y-22807D01*
X19531Y-22897D01*
X19529Y-22989D01*
X19546Y-23080D01*
X19580Y-23166D01*
X19630Y-23243D01*
X19694Y-23310D01*
X19770Y-23362D01*
X19854Y-23399D01*
X19944Y-23419D01*
X20036Y-23421D01*
X20127Y-23405D01*
X20213Y-23372D01*
X20291Y-23322D01*
X20357Y-23259D01*
X20411Y-23183D01*
X20448Y-23099D01*
X20469Y-23009D01*
X20470Y-22904D01*
X20470Y-23581D01*
X19470Y-23581D01*
X19470Y-23004D01*
X19452Y-22914D01*
X19417Y-22828D01*
X19366Y-22752D01*
X19301Y-22686D01*
X19234Y-22641D01*
X19234Y-22336D01*
X19234Y-22179D01*
X19234Y-22121D01*
X19234Y-21964D01*
X19212Y-21942D01*
X18956Y-21942D01*
X18939Y-21942D01*
X18922Y-21945D01*
X18906Y-21952D01*
X18892Y-21962D01*
X18880Y-21974D01*
X18870Y-21988D01*
X18863Y-22004D01*
X18860Y-22021D01*
X18860Y-22099D01*
X18882Y-22121D01*
X19234Y-22121D01*
X19234Y-22179D01*
X18882Y-22179D01*
X18860Y-22201D01*
X18860Y-22279D01*
X18863Y-22296D01*
X18870Y-22312D01*
X18880Y-22326D01*
X18892Y-22338D01*
X18906Y-22348D01*
X18922Y-22355D01*
X18939Y-22358D01*
X18956Y-22358D01*
X19212Y-22358D01*
X19234Y-22336D01*
X19234Y-22641D01*
X19225Y-22635D01*
X19140Y-22599D01*
X19049Y-22580D01*
X18957Y-22580D01*
X18867Y-22597D01*
X18781Y-22631D01*
X18704Y-22682D01*
X18638Y-22746D01*
X18586Y-22822D01*
X18550Y-22907D01*
X18531Y-22997D01*
X18529Y-23089D01*
X18546Y-23180D01*
X18580Y-23266D01*
X18630Y-23343D01*
X18694Y-23410D01*
X18770Y-23462D01*
X18854Y-23499D01*
X18944Y-23519D01*
X19036Y-23521D01*
X19127Y-23505D01*
X19213Y-23472D01*
X19291Y-23422D01*
X19357Y-23359D01*
X19411Y-23283D01*
X19448Y-23199D01*
X19469Y-23109D01*
X19470Y-23004D01*
X19470Y-23581D01*
X18470Y-23581D01*
X18470Y-22946D01*
X18452Y-22856D01*
X18417Y-22770D01*
X18366Y-22694D01*
X18301Y-22628D01*
X18225Y-22577D01*
X18140Y-22541D01*
X18130Y-22538D01*
X18130Y-22261D01*
X18130Y-22260D01*
X18128Y-22235D01*
X18120Y-22211D01*
X18120Y-22210D01*
X18108Y-22189D01*
X18108Y-22188D01*
X18096Y-22173D01*
X18093Y-22169D01*
X18092Y-22168D01*
X18085Y-22162D01*
X17552Y-21628D01*
X17552Y-21520D01*
X17548Y-21501D01*
X17541Y-21483D01*
X17530Y-21466D01*
X17516Y-21452D01*
X17500Y-21442D01*
X17482Y-21434D01*
X17462Y-21430D01*
X17443Y-21430D01*
X16812Y-21430D01*
X16793Y-21434D01*
X16775Y-21441D01*
X16758Y-21452D01*
X16744Y-21466D01*
X16734Y-21482D01*
X16726Y-21500D01*
X16722Y-21520D01*
X16722Y-21539D01*
X16722Y-21780D01*
X16726Y-21799D01*
X16733Y-21817D01*
X16744Y-21834D01*
X16758Y-21848D01*
X16774Y-21858D01*
X16792Y-21866D01*
X16812Y-21870D01*
X16831Y-21870D01*
X17426Y-21870D01*
X17496Y-21940D01*
X17482Y-21934D01*
X17462Y-21930D01*
X17443Y-21930D01*
X16812Y-21930D01*
X16793Y-21934D01*
X16775Y-21941D01*
X16758Y-21952D01*
X16744Y-21966D01*
X16734Y-21982D01*
X16726Y-22000D01*
X16722Y-22020D01*
X16722Y-22039D01*
X16722Y-22046D01*
X16709Y-22057D01*
X16708Y-22058D01*
X16228Y-22537D01*
X16225Y-22535D01*
X16140Y-22499D01*
X16049Y-22480D01*
X15957Y-22480D01*
X15867Y-22497D01*
X15781Y-22531D01*
X15704Y-22582D01*
X15638Y-22646D01*
X15586Y-22722D01*
X15550Y-22807D01*
X15531Y-22897D01*
X15529Y-22989D01*
X15546Y-23080D01*
X15580Y-23166D01*
X15630Y-23243D01*
X15694Y-23310D01*
X15770Y-23362D01*
X15854Y-23399D01*
X15944Y-23419D01*
X16036Y-23421D01*
X16127Y-23405D01*
X16213Y-23372D01*
X16291Y-23322D01*
X16357Y-23259D01*
X16411Y-23183D01*
X16448Y-23099D01*
X16469Y-23009D01*
X16470Y-22904D01*
X16452Y-22814D01*
X16417Y-22728D01*
X16412Y-22721D01*
X16775Y-22358D01*
X16792Y-22366D01*
X16812Y-22370D01*
X16831Y-22370D01*
X17462Y-22370D01*
X17481Y-22366D01*
X17499Y-22359D01*
X17516Y-22348D01*
X17530Y-22334D01*
X17540Y-22318D01*
X17548Y-22300D01*
X17552Y-22280D01*
X17552Y-22261D01*
X17552Y-22020D01*
X17548Y-22001D01*
X17542Y-21985D01*
X17870Y-22313D01*
X17870Y-22538D01*
X17867Y-22539D01*
X17781Y-22573D01*
X17704Y-22624D01*
X17638Y-22688D01*
X17586Y-22764D01*
X17550Y-22849D01*
X17531Y-22939D01*
X17529Y-23031D01*
X17546Y-23122D01*
X17580Y-23208D01*
X17630Y-23285D01*
X17694Y-23352D01*
X17770Y-23404D01*
X17854Y-23441D01*
X17944Y-23461D01*
X18036Y-23463D01*
X18127Y-23447D01*
X18213Y-23414D01*
X18291Y-23364D01*
X18357Y-23301D01*
X18411Y-23225D01*
X18448Y-23141D01*
X18469Y-23051D01*
X18470Y-22946D01*
X18470Y-23581D01*
X17470Y-23581D01*
X17470Y-23004D01*
X17452Y-22914D01*
X17417Y-22828D01*
X17366Y-22752D01*
X17301Y-22686D01*
X17225Y-22635D01*
X17140Y-22599D01*
X17049Y-22580D01*
X16957Y-22580D01*
X16867Y-22597D01*
X16781Y-22631D01*
X16704Y-22682D01*
X16638Y-22746D01*
X16586Y-22822D01*
X16550Y-22907D01*
X16531Y-22997D01*
X16529Y-23089D01*
X16546Y-23180D01*
X16580Y-23266D01*
X16630Y-23343D01*
X16694Y-23410D01*
X16770Y-23462D01*
X16854Y-23499D01*
X16944Y-23519D01*
X17036Y-23521D01*
X17127Y-23505D01*
X17213Y-23472D01*
X17291Y-23422D01*
X17357Y-23359D01*
X17411Y-23283D01*
X17448Y-23199D01*
X17469Y-23109D01*
X17470Y-23004D01*
X17470Y-23581D01*
X15616Y-23581D01*
X15419Y-23384D01*
X15419Y-22375D01*
X15419Y-22374D01*
X15417Y-22352D01*
X15417Y-22351D01*
X15410Y-22329D01*
X15400Y-22309D01*
X15399Y-22308D01*
X15385Y-22291D01*
X15384Y-22290D01*
X15367Y-22275D01*
X15347Y-22265D01*
X15346Y-22264D01*
X15324Y-22257D01*
X15304Y-22255D01*
X15302Y-22255D01*
X15301Y-22255D01*
X15300Y-22255D01*
X14996Y-22255D01*
X14729Y-21988D01*
X14729Y-20915D01*
X14818Y-20915D01*
X14837Y-20911D01*
X14855Y-20904D01*
X14860Y-20900D01*
X14864Y-20903D01*
X14882Y-20911D01*
X14902Y-20915D01*
X14921Y-20915D01*
X15172Y-20915D01*
X15191Y-20911D01*
X15209Y-20904D01*
X15226Y-20893D01*
X15240Y-20879D01*
X15241Y-20876D01*
X15301Y-20935D01*
X15301Y-21508D01*
X15301Y-21510D01*
X15304Y-21541D01*
X15308Y-21557D01*
X15312Y-21569D01*
X15313Y-21571D01*
X15326Y-21597D01*
X15346Y-21621D01*
X15347Y-21622D01*
X15348Y-21622D01*
X15352Y-21626D01*
X15524Y-21798D01*
X15500Y-21857D01*
X15481Y-21947D01*
X15479Y-22039D01*
X15496Y-22130D01*
X15530Y-22216D01*
X15580Y-22293D01*
X15644Y-22360D01*
X15720Y-22412D01*
X15804Y-22449D01*
X15894Y-22469D01*
X15986Y-22471D01*
X16077Y-22455D01*
X16163Y-22422D01*
X16241Y-22372D01*
X16307Y-22309D01*
X16361Y-22233D01*
X16398Y-22149D01*
X16419Y-22059D01*
X16420Y-21954D01*
X16402Y-21864D01*
X16367Y-21778D01*
X16316Y-21702D01*
X16251Y-21636D01*
X16175Y-21585D01*
X16090Y-21549D01*
X15999Y-21530D01*
X15907Y-21530D01*
X15817Y-21547D01*
X15748Y-21574D01*
X15619Y-21444D01*
X15619Y-21188D01*
X15630Y-21216D01*
X15680Y-21293D01*
X15744Y-21360D01*
X15820Y-21412D01*
X15904Y-21449D01*
X15994Y-21469D01*
X16086Y-21471D01*
X16177Y-21455D01*
X16263Y-21422D01*
X16341Y-21372D01*
X16407Y-21309D01*
X16461Y-21233D01*
X16498Y-21149D01*
X16519Y-21059D01*
X16520Y-20954D01*
X16502Y-20864D01*
X16467Y-20778D01*
X16462Y-20770D01*
X16536Y-20696D01*
X16541Y-20693D01*
X16541Y-20692D01*
X16548Y-20683D01*
X16557Y-20673D01*
X16558Y-20673D01*
X16569Y-20651D01*
X16570Y-20650D01*
X16574Y-20634D01*
X16577Y-20627D01*
X16577Y-20626D01*
X16580Y-20602D01*
X16580Y-20600D01*
X16580Y-19954D01*
X16794Y-19740D01*
X17576Y-19740D01*
X17604Y-19769D01*
X17638Y-19792D01*
X17675Y-19809D01*
X17715Y-19817D01*
X17756Y-19818D01*
X17796Y-19811D01*
X17834Y-19797D01*
X17868Y-19775D01*
X17875Y-19768D01*
X17875Y-20085D01*
X17879Y-20104D01*
X17886Y-20122D01*
X17897Y-20139D01*
X17901Y-20143D01*
X17554Y-20491D01*
X17544Y-20491D01*
X17541Y-20483D01*
X17530Y-20466D01*
X17516Y-20452D01*
X17500Y-20442D01*
X17482Y-20434D01*
X17462Y-20430D01*
X17443Y-20430D01*
X16812Y-20430D01*
X16793Y-20434D01*
X16775Y-20441D01*
X16758Y-20452D01*
X16744Y-20466D01*
X16734Y-20482D01*
X16726Y-20500D01*
X16722Y-20520D01*
X16722Y-20539D01*
X16722Y-20780D01*
X16726Y-20799D01*
X16733Y-20817D01*
X16744Y-20834D01*
X16758Y-20848D01*
X16774Y-20858D01*
X16792Y-20866D01*
X16812Y-20870D01*
X16831Y-20870D01*
X16978Y-20870D01*
X16978Y-20930D01*
X16812Y-20930D01*
X16793Y-20934D01*
X16775Y-20941D01*
X16758Y-20952D01*
X16744Y-20966D01*
X16734Y-20982D01*
X16726Y-21000D01*
X16722Y-21020D01*
X16722Y-21039D01*
X16722Y-21280D01*
X16726Y-21299D01*
X16733Y-21317D01*
X16744Y-21334D01*
X16758Y-21348D01*
X16774Y-21358D01*
X16792Y-21366D01*
X16812Y-21370D01*
X16831Y-21370D01*
X17462Y-21370D01*
X17481Y-21366D01*
X17499Y-21359D01*
X17516Y-21348D01*
X17530Y-21334D01*
X17540Y-21318D01*
X17544Y-21309D01*
X17694Y-21309D01*
X18145Y-21760D01*
X18146Y-21761D01*
X18147Y-21762D01*
X18152Y-21766D01*
X18170Y-21781D01*
X18172Y-21782D01*
X18197Y-21796D01*
X18199Y-21797D01*
X18204Y-21798D01*
X18227Y-21806D01*
X18258Y-21809D01*
X18259Y-21809D01*
X18260Y-21809D01*
X18855Y-21809D01*
X18859Y-21817D01*
X18870Y-21834D01*
X18884Y-21848D01*
X18900Y-21858D01*
X18918Y-21866D01*
X18938Y-21870D01*
X18957Y-21870D01*
X19588Y-21870D01*
X19607Y-21866D01*
X19625Y-21859D01*
X19642Y-21848D01*
X19656Y-21834D01*
X19666Y-21818D01*
X19670Y-21809D01*
X19692Y-21809D01*
X19694Y-21812D01*
X19705Y-21829D01*
X19719Y-21843D01*
X19735Y-21853D01*
X19753Y-21861D01*
X19773Y-21865D01*
X19792Y-21865D01*
X20375Y-21865D01*
X20394Y-21861D01*
X20412Y-21854D01*
X20429Y-21843D01*
X20443Y-21829D01*
X20453Y-21813D01*
X20455Y-21807D01*
X20469Y-21806D01*
X20471Y-21806D01*
X20487Y-21801D01*
X20499Y-21798D01*
X20501Y-21797D01*
X20527Y-21784D01*
X20528Y-21782D01*
X20551Y-21764D01*
X20551Y-21763D01*
X20552Y-21763D01*
X20552Y-21762D01*
X20556Y-21757D01*
X20611Y-21703D01*
X20627Y-21713D01*
X20645Y-21721D01*
X20665Y-21725D01*
X20684Y-21725D01*
X21135Y-21725D01*
X21154Y-21721D01*
X21172Y-21714D01*
X21189Y-21703D01*
X21203Y-21689D01*
X21213Y-21673D01*
X21219Y-21659D01*
X21228Y-21659D01*
X21230Y-21659D01*
X21259Y-21656D01*
X21261Y-21656D01*
X21277Y-21651D01*
X21289Y-21648D01*
X21291Y-21647D01*
X21317Y-21634D01*
X21318Y-21632D01*
X21341Y-21614D01*
X21341Y-21613D01*
X21342Y-21613D01*
X21342Y-21612D01*
X21346Y-21607D01*
X21785Y-21169D01*
X22298Y-21169D01*
X22300Y-21169D01*
X22329Y-21166D01*
X22331Y-21166D01*
X22347Y-21161D01*
X22359Y-21158D01*
X22361Y-21157D01*
X22387Y-21144D01*
X22388Y-21142D01*
X22411Y-21124D01*
X22411Y-21123D01*
X22412Y-21123D01*
X22412Y-21122D01*
X22416Y-21117D01*
X22820Y-20714D01*
X22821Y-20714D01*
X22821Y-20713D01*
X22822Y-20713D01*
X22841Y-20690D01*
X22842Y-20689D01*
X22846Y-20681D01*
X22856Y-20663D01*
X22856Y-20661D01*
X22866Y-20633D01*
X22869Y-20602D01*
X22869Y-20601D01*
X22869Y-20600D01*
X22869Y-20065D01*
X22975Y-19959D01*
X23021Y-19959D01*
X23021Y-20297D01*
X23023Y-20322D01*
X23031Y-20346D01*
X23043Y-20368D01*
X23058Y-20388D01*
X23075Y-20401D01*
X23075Y-20443D01*
X23041Y-20449D01*
X23004Y-20465D01*
X22969Y-20487D01*
X22940Y-20515D01*
X22917Y-20549D01*
X22901Y-20586D01*
X22892Y-20626D01*
X22892Y-20667D01*
X22899Y-20707D01*
X22914Y-20745D01*
X22936Y-20779D01*
X22964Y-20809D01*
X22998Y-20832D01*
X23035Y-20849D01*
X23075Y-20857D01*
X23116Y-20858D01*
X23156Y-20851D01*
X23194Y-20837D01*
X23228Y-20815D01*
X23258Y-20787D01*
X23281Y-20754D01*
X23298Y-20716D01*
X23307Y-20677D01*
X23359Y-20625D01*
X23635Y-20625D01*
X23654Y-20621D01*
X23672Y-20614D01*
X23689Y-20603D01*
X23703Y-20589D01*
X23713Y-20573D01*
X23721Y-20555D01*
X23725Y-20535D01*
X23725Y-20516D01*
X23725Y-20265D01*
X23721Y-20246D01*
X23714Y-20228D01*
X23703Y-20211D01*
X23689Y-20197D01*
X23673Y-20187D01*
X23655Y-20179D01*
X23635Y-20175D01*
X23616Y-20175D01*
X23279Y-20175D01*
X23279Y-20025D01*
X23635Y-20025D01*
X23654Y-20021D01*
X23672Y-20014D01*
X23689Y-20003D01*
X23703Y-19989D01*
X23713Y-19973D01*
X23719Y-19959D01*
X23788Y-19959D01*
X23790Y-19959D01*
X23819Y-19956D01*
X23821Y-19956D01*
X23837Y-19951D01*
X23849Y-19948D01*
X23851Y-19947D01*
X23877Y-19934D01*
X23878Y-19932D01*
X23901Y-19914D01*
X23901Y-19913D01*
X23902Y-19913D01*
X23902Y-19912D01*
X23906Y-19907D01*
X24360Y-19454D01*
X24361Y-19454D01*
X24361Y-19453D01*
X24362Y-19453D01*
X24381Y-19430D01*
X24382Y-19429D01*
X24394Y-19406D01*
X24396Y-19403D01*
X24396Y-19402D01*
X24397Y-19401D01*
X24398Y-19396D01*
X24406Y-19373D01*
X24409Y-19342D01*
X24409Y-19341D01*
X24409Y-19340D01*
X24409Y-18105D01*
X24785Y-17729D01*
X27554Y-17729D01*
X27624Y-17798D01*
X27600Y-17857D01*
X27581Y-17947D01*
X27579Y-18039D01*
X27596Y-18130D01*
X27630Y-18216D01*
X27680Y-18293D01*
X27744Y-18360D01*
X27820Y-18412D01*
X27904Y-18449D01*
X27994Y-18469D01*
X28086Y-18471D01*
X28177Y-18455D01*
X28263Y-18422D01*
X28341Y-18372D01*
X28407Y-18309D01*
X28461Y-18233D01*
X28498Y-18149D01*
X28519Y-18059D01*
X28520Y-17954D01*
X28502Y-17864D01*
X28467Y-17778D01*
X28460Y-17767D01*
X28460Y-16942D01*
X28450Y-16852D01*
X28422Y-16767D01*
X28388Y-16703D01*
X28330Y-16662D01*
X28288Y-16703D01*
X28288Y-16620D01*
X28247Y-16562D01*
X28167Y-16521D01*
X28081Y-16497D01*
X27992Y-16490D01*
X27902Y-16500D01*
X27817Y-16528D01*
X27753Y-16562D01*
X27712Y-16620D01*
X28000Y-16909D01*
X28288Y-16620D01*
X28288Y-16703D01*
X28041Y-16950D01*
X28330Y-17238D01*
X28388Y-17197D01*
X28429Y-17117D01*
X28453Y-17031D01*
X28460Y-16942D01*
X28460Y-17767D01*
X28416Y-17702D01*
X28351Y-17636D01*
X28288Y-17593D01*
X28288Y-17280D01*
X28000Y-16991D01*
X27959Y-17032D01*
X27959Y-16950D01*
X27670Y-16662D01*
X27612Y-16703D01*
X27571Y-16783D01*
X27547Y-16869D01*
X27540Y-16958D01*
X27550Y-17048D01*
X27578Y-17133D01*
X27612Y-17197D01*
X27670Y-17238D01*
X27959Y-16950D01*
X27959Y-17032D01*
X27712Y-17280D01*
X27753Y-17338D01*
X27833Y-17379D01*
X27919Y-17403D01*
X28008Y-17410D01*
X28098Y-17400D01*
X28183Y-17372D01*
X28247Y-17338D01*
X28288Y-17280D01*
X28288Y-17593D01*
X28275Y-17585D01*
X28190Y-17549D01*
X28099Y-17530D01*
X28007Y-17530D01*
X27917Y-17547D01*
X27848Y-17574D01*
X27737Y-17463D01*
X27734Y-17459D01*
X27732Y-17458D01*
X27710Y-17439D01*
X27708Y-17438D01*
X27683Y-17424D01*
X27682Y-17423D01*
X27681Y-17423D01*
X27671Y-17420D01*
X27653Y-17414D01*
X27622Y-17411D01*
X27621Y-17411D01*
X27620Y-17411D01*
X27302Y-17411D01*
X27357Y-17359D01*
X27411Y-17283D01*
X27448Y-17199D01*
X27469Y-17109D01*
X27470Y-17004D01*
X27452Y-16914D01*
X27417Y-16828D01*
X27366Y-16752D01*
X27301Y-16686D01*
X27225Y-16635D01*
X27140Y-16599D01*
X27049Y-16580D01*
X26957Y-16580D01*
X26867Y-16597D01*
X26781Y-16631D01*
X26704Y-16682D01*
X26638Y-16746D01*
X26586Y-16822D01*
X26550Y-16907D01*
X26531Y-16997D01*
X26529Y-17089D01*
X26546Y-17180D01*
X26580Y-17266D01*
X26630Y-17343D01*
X26694Y-17410D01*
X26695Y-17411D01*
X26092Y-17411D01*
X26127Y-17405D01*
X26213Y-17372D01*
X26291Y-17322D01*
X26357Y-17259D01*
X26411Y-17183D01*
X26448Y-17099D01*
X26469Y-17009D01*
X26470Y-16904D01*
X26452Y-16814D01*
X26417Y-16728D01*
X26366Y-16652D01*
X26301Y-16586D01*
X26225Y-16535D01*
X26140Y-16499D01*
X26049Y-16480D01*
X25957Y-16480D01*
X25867Y-16497D01*
X25781Y-16531D01*
X25704Y-16582D01*
X25638Y-16646D01*
X25586Y-16722D01*
X25550Y-16807D01*
X25531Y-16897D01*
X25529Y-16989D01*
X25546Y-17080D01*
X25580Y-17166D01*
X25630Y-17243D01*
X25694Y-17310D01*
X25770Y-17362D01*
X25854Y-17399D01*
X25908Y-17411D01*
X25302Y-17411D01*
X25357Y-17359D01*
X25411Y-17283D01*
X25448Y-17199D01*
X25469Y-17109D01*
X25470Y-17004D01*
X25452Y-16914D01*
X25417Y-16828D01*
X25366Y-16752D01*
X25301Y-16686D01*
X25225Y-16635D01*
X25140Y-16599D01*
X25049Y-16580D01*
X24957Y-16580D01*
X24867Y-16597D01*
X24781Y-16631D01*
X24704Y-16682D01*
X24638Y-16746D01*
X24586Y-16822D01*
X24550Y-16907D01*
X24531Y-16997D01*
X24529Y-17089D01*
X24546Y-17180D01*
X24580Y-17266D01*
X24630Y-17343D01*
X24694Y-17410D01*
X24698Y-17413D01*
X24689Y-17414D01*
X24659Y-17423D01*
X24641Y-17433D01*
X24633Y-17437D01*
X24628Y-17441D01*
X24608Y-17457D01*
X24607Y-17457D01*
X24607Y-17458D01*
X24470Y-17595D01*
X24470Y-16904D01*
X24452Y-16814D01*
X24417Y-16728D01*
X24366Y-16652D01*
X24301Y-16586D01*
X24225Y-16535D01*
X24140Y-16499D01*
X24049Y-16480D01*
X23957Y-16480D01*
X23867Y-16497D01*
X23781Y-16531D01*
X23704Y-16582D01*
X23638Y-16646D01*
X23586Y-16722D01*
X23550Y-16807D01*
X23531Y-16897D01*
X23529Y-16989D01*
X23546Y-17080D01*
X23580Y-17166D01*
X23630Y-17243D01*
X23694Y-17310D01*
X23770Y-17362D01*
X23854Y-17399D01*
X23944Y-17419D01*
X24036Y-17421D01*
X24127Y-17405D01*
X24213Y-17372D01*
X24291Y-17322D01*
X24357Y-17259D01*
X24411Y-17183D01*
X24448Y-17099D01*
X24469Y-17009D01*
X24470Y-16904D01*
X24470Y-17595D01*
X24143Y-17922D01*
X24139Y-17926D01*
X24119Y-17950D01*
X24104Y-17977D01*
X24103Y-17977D01*
X24103Y-17979D01*
X24100Y-17989D01*
X24094Y-18007D01*
X24091Y-18038D01*
X24091Y-18039D01*
X24091Y-18040D01*
X24091Y-19274D01*
X23724Y-19641D01*
X23719Y-19641D01*
X23714Y-19628D01*
X23703Y-19611D01*
X23689Y-19597D01*
X23673Y-19587D01*
X23655Y-19579D01*
X23635Y-19575D01*
X23616Y-19575D01*
X23563Y-19575D01*
X23563Y-19059D01*
X23563Y-18926D01*
X23563Y-18824D01*
X23563Y-18691D01*
X23560Y-18674D01*
X23553Y-18658D01*
X23543Y-18644D01*
X23531Y-18632D01*
X23517Y-18622D01*
X23501Y-18615D01*
X23484Y-18612D01*
X23467Y-18612D01*
X23251Y-18612D01*
X23229Y-18634D01*
X23229Y-18846D01*
X23541Y-18846D01*
X23563Y-18824D01*
X23563Y-18926D01*
X23541Y-18904D01*
X23229Y-18904D01*
X23229Y-19116D01*
X23251Y-19138D01*
X23467Y-19138D01*
X23484Y-19138D01*
X23501Y-19135D01*
X23517Y-19128D01*
X23531Y-19118D01*
X23543Y-19106D01*
X23553Y-19092D01*
X23560Y-19076D01*
X23563Y-19059D01*
X23563Y-19575D01*
X23171Y-19575D01*
X23171Y-19116D01*
X23171Y-18904D01*
X23171Y-18846D01*
X23171Y-18634D01*
X23149Y-18612D01*
X22933Y-18612D01*
X22916Y-18612D01*
X22899Y-18615D01*
X22883Y-18622D01*
X22869Y-18632D01*
X22857Y-18644D01*
X22847Y-18658D01*
X22840Y-18674D01*
X22837Y-18691D01*
X22837Y-18824D01*
X22859Y-18846D01*
X23171Y-18846D01*
X23171Y-18904D01*
X22859Y-18904D01*
X22837Y-18926D01*
X22837Y-19059D01*
X22840Y-19076D01*
X22847Y-19092D01*
X22857Y-19106D01*
X22869Y-19118D01*
X22883Y-19128D01*
X22899Y-19135D01*
X22916Y-19138D01*
X22933Y-19138D01*
X23149Y-19138D01*
X23171Y-19116D01*
X23171Y-19575D01*
X23165Y-19575D01*
X23146Y-19579D01*
X23128Y-19586D01*
X23111Y-19597D01*
X23097Y-19611D01*
X23087Y-19627D01*
X23080Y-19641D01*
X22912Y-19641D01*
X22910Y-19641D01*
X22879Y-19644D01*
X22849Y-19653D01*
X22835Y-19660D01*
X22822Y-19667D01*
X22798Y-19687D01*
X22797Y-19688D01*
X22603Y-19882D01*
X22599Y-19886D01*
X22579Y-19910D01*
X22564Y-19937D01*
X22563Y-19937D01*
X22563Y-19939D01*
X22560Y-19949D01*
X22554Y-19967D01*
X22551Y-19998D01*
X22551Y-19999D01*
X22551Y-20000D01*
X22551Y-20534D01*
X22513Y-20572D01*
X22513Y-20334D01*
X22513Y-20251D01*
X22513Y-20149D01*
X22513Y-20066D01*
X22510Y-20049D01*
X22503Y-20033D01*
X22493Y-20019D01*
X22481Y-20007D01*
X22467Y-19997D01*
X22451Y-19990D01*
X22434Y-19987D01*
X22417Y-19987D01*
X22251Y-19987D01*
X22229Y-20009D01*
X22229Y-20171D01*
X22491Y-20171D01*
X22513Y-20149D01*
X22513Y-20251D01*
X22491Y-20229D01*
X22229Y-20229D01*
X22229Y-20391D01*
X22251Y-20413D01*
X22417Y-20413D01*
X22434Y-20413D01*
X22451Y-20410D01*
X22467Y-20403D01*
X22481Y-20393D01*
X22493Y-20381D01*
X22503Y-20367D01*
X22510Y-20351D01*
X22513Y-20334D01*
X22513Y-20572D01*
X22360Y-20725D01*
X22360Y-20510D01*
X22356Y-20491D01*
X22349Y-20473D01*
X22338Y-20456D01*
X22324Y-20442D01*
X22308Y-20432D01*
X22290Y-20424D01*
X22270Y-20420D01*
X22251Y-20420D01*
X22171Y-20420D01*
X22171Y-20391D01*
X22171Y-20229D01*
X22171Y-20171D01*
X22171Y-20009D01*
X22149Y-19987D01*
X21983Y-19987D01*
X21966Y-19987D01*
X21949Y-19990D01*
X21933Y-19997D01*
X21919Y-20007D01*
X21907Y-20019D01*
X21897Y-20033D01*
X21890Y-20049D01*
X21887Y-20066D01*
X21887Y-20149D01*
X21909Y-20171D01*
X22171Y-20171D01*
X22171Y-20229D01*
X21909Y-20229D01*
X21887Y-20251D01*
X21887Y-20334D01*
X21890Y-20351D01*
X21897Y-20367D01*
X21907Y-20381D01*
X21919Y-20393D01*
X21933Y-20403D01*
X21949Y-20410D01*
X21966Y-20413D01*
X21983Y-20413D01*
X22149Y-20413D01*
X22171Y-20391D01*
X22171Y-20420D01*
X21950Y-20420D01*
X21931Y-20424D01*
X21913Y-20431D01*
X21896Y-20442D01*
X21882Y-20456D01*
X21873Y-20470D01*
X21775Y-20470D01*
X21775Y-20440D01*
X21771Y-20421D01*
X21764Y-20403D01*
X21753Y-20386D01*
X21739Y-20372D01*
X21723Y-20362D01*
X21705Y-20354D01*
X21685Y-20350D01*
X21666Y-20350D01*
X21465Y-20350D01*
X21446Y-20354D01*
X21428Y-20361D01*
X21411Y-20372D01*
X21397Y-20386D01*
X21387Y-20402D01*
X21381Y-20415D01*
X21378Y-20408D01*
X21368Y-20394D01*
X21356Y-20382D01*
X21342Y-20372D01*
X21326Y-20365D01*
X21309Y-20362D01*
X21251Y-20362D01*
X21229Y-20384D01*
X21229Y-20541D01*
X21229Y-20571D01*
X21229Y-20629D01*
X21229Y-20659D01*
X21229Y-20816D01*
X21251Y-20838D01*
X21309Y-20838D01*
X21326Y-20835D01*
X21342Y-20828D01*
X21356Y-20818D01*
X21368Y-20806D01*
X21378Y-20792D01*
X21381Y-20784D01*
X21386Y-20797D01*
X21397Y-20814D01*
X21411Y-20828D01*
X21427Y-20838D01*
X21445Y-20846D01*
X21465Y-20850D01*
X21484Y-20850D01*
X21685Y-20850D01*
X21704Y-20846D01*
X21722Y-20839D01*
X21739Y-20828D01*
X21753Y-20814D01*
X21763Y-20798D01*
X21771Y-20780D01*
X21775Y-20760D01*
X21775Y-20741D01*
X21775Y-20730D01*
X21860Y-20730D01*
X21860Y-20830D01*
X21864Y-20849D01*
X21864Y-20851D01*
X21720Y-20851D01*
X21689Y-20854D01*
X21659Y-20863D01*
X21645Y-20870D01*
X21632Y-20877D01*
X21608Y-20897D01*
X21607Y-20898D01*
X21198Y-21306D01*
X21189Y-21297D01*
X21173Y-21287D01*
X21155Y-21279D01*
X21135Y-21275D01*
X21116Y-21275D01*
X20665Y-21275D01*
X20646Y-21279D01*
X20628Y-21286D01*
X20611Y-21297D01*
X20597Y-21311D01*
X20587Y-21327D01*
X20580Y-21341D01*
X20559Y-21344D01*
X20543Y-21348D01*
X20531Y-21352D01*
X20529Y-21353D01*
X20503Y-21366D01*
X20479Y-21386D01*
X20478Y-21387D01*
X20477Y-21388D01*
X20416Y-21449D01*
X20413Y-21447D01*
X20395Y-21439D01*
X20375Y-21435D01*
X20356Y-21435D01*
X19773Y-21435D01*
X19754Y-21439D01*
X19736Y-21446D01*
X19719Y-21457D01*
X19705Y-21471D01*
X19695Y-21487D01*
X19693Y-21491D01*
X19670Y-21491D01*
X19667Y-21483D01*
X19656Y-21466D01*
X19642Y-21452D01*
X19626Y-21442D01*
X19608Y-21434D01*
X19588Y-21430D01*
X19569Y-21430D01*
X18938Y-21430D01*
X18919Y-21434D01*
X18901Y-21441D01*
X18884Y-21452D01*
X18870Y-21466D01*
X18860Y-21482D01*
X18856Y-21491D01*
X18325Y-21491D01*
X17877Y-21043D01*
X17874Y-21039D01*
X17872Y-21038D01*
X17850Y-21019D01*
X17848Y-21018D01*
X17826Y-21006D01*
X17856Y-21001D01*
X17894Y-20987D01*
X17928Y-20965D01*
X17958Y-20937D01*
X17981Y-20904D01*
X17998Y-20866D01*
X18007Y-20827D01*
X18007Y-20816D01*
X18365Y-20459D01*
X18877Y-20459D01*
X18870Y-20466D01*
X18860Y-20482D01*
X18852Y-20500D01*
X18848Y-20520D01*
X18848Y-20539D01*
X18848Y-20780D01*
X18852Y-20799D01*
X18859Y-20817D01*
X18870Y-20834D01*
X18884Y-20848D01*
X18900Y-20858D01*
X18918Y-20866D01*
X18938Y-20870D01*
X18957Y-20870D01*
X19530Y-20870D01*
X19544Y-20905D01*
X19560Y-20930D01*
X18938Y-20930D01*
X18919Y-20934D01*
X18901Y-20941D01*
X18885Y-20951D01*
X18747Y-20813D01*
X18748Y-20770D01*
X18740Y-20730D01*
X18725Y-20692D01*
X18702Y-20658D01*
X18673Y-20629D01*
X18640Y-20606D01*
X18602Y-20591D01*
X18562Y-20582D01*
X18521Y-20582D01*
X18481Y-20589D01*
X18444Y-20605D01*
X18409Y-20627D01*
X18380Y-20655D01*
X18357Y-20689D01*
X18341Y-20726D01*
X18332Y-20766D01*
X18332Y-20807D01*
X18339Y-20847D01*
X18354Y-20885D01*
X18376Y-20919D01*
X18404Y-20949D01*
X18438Y-20972D01*
X18475Y-20989D01*
X18515Y-20997D01*
X18556Y-20998D01*
X18562Y-20996D01*
X18807Y-21241D01*
X18808Y-21242D01*
X18827Y-21258D01*
X18848Y-21268D01*
X18848Y-21280D01*
X18852Y-21299D01*
X18859Y-21317D01*
X18870Y-21334D01*
X18884Y-21348D01*
X18900Y-21358D01*
X18918Y-21366D01*
X18938Y-21370D01*
X18957Y-21370D01*
X19588Y-21370D01*
X19607Y-21366D01*
X19625Y-21359D01*
X19642Y-21348D01*
X19656Y-21334D01*
X19666Y-21318D01*
X19674Y-21300D01*
X19678Y-21280D01*
X19684Y-21280D01*
X19687Y-21294D01*
X19694Y-21312D01*
X19705Y-21329D01*
X19719Y-21343D01*
X19735Y-21353D01*
X19753Y-21361D01*
X19773Y-21365D01*
X19792Y-21365D01*
X20375Y-21365D01*
X20394Y-21361D01*
X20412Y-21354D01*
X20429Y-21343D01*
X20443Y-21329D01*
X20453Y-21313D01*
X20461Y-21295D01*
X20465Y-21275D01*
X20465Y-21256D01*
X20465Y-21025D01*
X20461Y-21006D01*
X20454Y-20988D01*
X20443Y-20971D01*
X20429Y-20957D01*
X20413Y-20947D01*
X20395Y-20939D01*
X20375Y-20935D01*
X20356Y-20935D01*
X19896Y-20935D01*
X19911Y-20914D01*
X19928Y-20876D01*
X19930Y-20865D01*
X20375Y-20865D01*
X20394Y-20861D01*
X20412Y-20854D01*
X20429Y-20843D01*
X20443Y-20829D01*
X20453Y-20813D01*
X20461Y-20795D01*
X20465Y-20775D01*
X20465Y-20756D01*
X20465Y-20525D01*
X20461Y-20506D01*
X20454Y-20488D01*
X20443Y-20471D01*
X20429Y-20457D01*
X20413Y-20447D01*
X20395Y-20439D01*
X20375Y-20435D01*
X20356Y-20435D01*
X19865Y-20435D01*
X19867Y-20434D01*
X19868Y-20432D01*
X19891Y-20414D01*
X19891Y-20413D01*
X19892Y-20413D01*
X19892Y-20412D01*
X19896Y-20407D01*
X20070Y-20234D01*
X20071Y-20234D01*
X20071Y-20233D01*
X20072Y-20233D01*
X20091Y-20210D01*
X20092Y-20209D01*
X20104Y-20186D01*
X20106Y-20183D01*
X20106Y-20182D01*
X20107Y-20181D01*
X20108Y-20175D01*
X20116Y-20153D01*
X20119Y-20122D01*
X20119Y-20121D01*
X20119Y-20120D01*
X20119Y-19759D01*
X20625Y-19759D01*
X20625Y-19760D01*
X20629Y-19779D01*
X20636Y-19797D01*
X20647Y-19814D01*
X20661Y-19828D01*
X20677Y-19838D01*
X20695Y-19846D01*
X20715Y-19850D01*
X20734Y-19850D01*
X20795Y-19850D01*
X20718Y-19927D01*
X20714Y-19931D01*
X20694Y-19955D01*
X20679Y-19982D01*
X20678Y-19982D01*
X20678Y-19984D01*
X20675Y-19994D01*
X20669Y-20012D01*
X20666Y-20043D01*
X20666Y-20044D01*
X20666Y-20045D01*
X20666Y-20368D01*
X20661Y-20372D01*
X20647Y-20386D01*
X20637Y-20402D01*
X20629Y-20420D01*
X20625Y-20440D01*
X20625Y-20459D01*
X20625Y-20760D01*
X20629Y-20779D01*
X20636Y-20797D01*
X20647Y-20814D01*
X20661Y-20828D01*
X20677Y-20838D01*
X20695Y-20846D01*
X20715Y-20850D01*
X20734Y-20850D01*
X20935Y-20850D01*
X20954Y-20846D01*
X20972Y-20839D01*
X20989Y-20828D01*
X21003Y-20814D01*
X21013Y-20798D01*
X21018Y-20784D01*
X21022Y-20792D01*
X21032Y-20806D01*
X21044Y-20818D01*
X21058Y-20828D01*
X21074Y-20835D01*
X21091Y-20838D01*
X21149Y-20838D01*
X21171Y-20816D01*
X21171Y-20659D01*
X21171Y-20629D01*
X21171Y-20571D01*
X21171Y-20541D01*
X21171Y-20384D01*
X21149Y-20362D01*
X21091Y-20362D01*
X21074Y-20365D01*
X21058Y-20372D01*
X21044Y-20382D01*
X21032Y-20394D01*
X21022Y-20408D01*
X21018Y-20415D01*
X21014Y-20403D01*
X21003Y-20386D01*
X20989Y-20372D01*
X20984Y-20368D01*
X20984Y-20110D01*
X21250Y-19844D01*
X21251Y-19844D01*
X21251Y-19843D01*
X21252Y-19843D01*
X21271Y-19820D01*
X21272Y-19819D01*
X21284Y-19796D01*
X21286Y-19793D01*
X21286Y-19792D01*
X21287Y-19791D01*
X21288Y-19786D01*
X21296Y-19763D01*
X21299Y-19732D01*
X21299Y-19731D01*
X21299Y-19730D01*
X21299Y-19595D01*
X21375Y-19519D01*
X21375Y-19760D01*
X21379Y-19779D01*
X21386Y-19797D01*
X21397Y-19814D01*
X21411Y-19828D01*
X21427Y-19838D01*
X21445Y-19846D01*
X21465Y-19850D01*
X21484Y-19850D01*
X21685Y-19850D01*
X21704Y-19846D01*
X21722Y-19839D01*
X21739Y-19828D01*
X21753Y-19814D01*
X21763Y-19798D01*
X21771Y-19780D01*
X21775Y-19760D01*
X21775Y-19741D01*
X21775Y-19730D01*
X21875Y-19730D01*
X21875Y-19735D01*
X21879Y-19754D01*
X21886Y-19772D01*
X21897Y-19789D01*
X21911Y-19803D01*
X21927Y-19813D01*
X21945Y-19821D01*
X21965Y-19825D01*
X21984Y-19825D01*
X22435Y-19825D01*
X22454Y-19821D01*
X22472Y-19814D01*
X22489Y-19803D01*
X22503Y-19789D01*
X22513Y-19773D01*
X22521Y-19755D01*
X22525Y-19735D01*
X22525Y-19716D01*
X22525Y-19465D01*
X22521Y-19446D01*
X22514Y-19428D01*
X22503Y-19411D01*
X22489Y-19397D01*
X22473Y-19387D01*
X22455Y-19379D01*
X22435Y-19375D01*
X22416Y-19375D01*
X21965Y-19375D01*
X21946Y-19379D01*
X21928Y-19386D01*
X21911Y-19397D01*
X21897Y-19411D01*
X21887Y-19427D01*
X21879Y-19445D01*
X21875Y-19465D01*
X21875Y-19470D01*
X21775Y-19470D01*
X21775Y-19440D01*
X21771Y-19421D01*
X21764Y-19403D01*
X21753Y-19386D01*
X21739Y-19372D01*
X21723Y-19362D01*
X21705Y-19354D01*
X21685Y-19350D01*
X21666Y-19350D01*
X21544Y-19350D01*
X22025Y-18869D01*
X22338Y-18869D01*
X22340Y-18869D01*
X22369Y-18866D01*
X22371Y-18866D01*
X22387Y-18861D01*
X22399Y-18858D01*
X22401Y-18857D01*
X22427Y-18844D01*
X22428Y-18842D01*
X22451Y-18824D01*
X22451Y-18823D01*
X22452Y-18823D01*
X22452Y-18822D01*
X22456Y-18817D01*
X22564Y-18710D01*
X22565Y-18710D01*
X22565Y-18709D01*
X22566Y-18709D01*
X22585Y-18686D01*
X22586Y-18685D01*
X22598Y-18662D01*
X22600Y-18659D01*
X22600Y-18658D01*
X22601Y-18657D01*
X22602Y-18652D01*
X22610Y-18629D01*
X22613Y-18598D01*
X22613Y-18597D01*
X22613Y-18596D01*
X22613Y-18525D01*
X22661Y-18525D01*
X22680Y-18521D01*
X22698Y-18514D01*
X22715Y-18503D01*
X22729Y-18489D01*
X22739Y-18473D01*
X22747Y-18455D01*
X22751Y-18435D01*
X22751Y-18416D01*
X22751Y-18359D01*
X22843Y-18359D01*
X22847Y-18364D01*
X22861Y-18378D01*
X22877Y-18388D01*
X22895Y-18396D01*
X22915Y-18400D01*
X22934Y-18400D01*
X23485Y-18400D01*
X23504Y-18396D01*
X23522Y-18389D01*
X23539Y-18378D01*
X23553Y-18364D01*
X23563Y-18348D01*
X23571Y-18330D01*
X23575Y-18310D01*
X23575Y-18291D01*
X23575Y-17940D01*
X23571Y-17921D01*
X23564Y-17903D01*
X23553Y-17886D01*
X23539Y-17872D01*
X23523Y-17862D01*
X23505Y-17854D01*
X23485Y-17850D01*
X23470Y-17850D01*
X23470Y-17004D01*
X23452Y-16914D01*
X23417Y-16828D01*
X23366Y-16752D01*
X23301Y-16686D01*
X23225Y-16635D01*
X23140Y-16599D01*
X23049Y-16580D01*
X22957Y-16580D01*
X22867Y-16597D01*
X22781Y-16631D01*
X22704Y-16682D01*
X22638Y-16746D01*
X22586Y-16822D01*
X22550Y-16907D01*
X22531Y-16997D01*
X22529Y-17089D01*
X22546Y-17180D01*
X22580Y-17266D01*
X22630Y-17343D01*
X22694Y-17410D01*
X22770Y-17462D01*
X22854Y-17499D01*
X22944Y-17519D01*
X23036Y-17521D01*
X23127Y-17505D01*
X23213Y-17472D01*
X23291Y-17422D01*
X23357Y-17359D01*
X23411Y-17283D01*
X23448Y-17199D01*
X23469Y-17109D01*
X23470Y-17004D01*
X23470Y-17850D01*
X23466Y-17850D01*
X22915Y-17850D01*
X22896Y-17854D01*
X22878Y-17861D01*
X22861Y-17872D01*
X22847Y-17886D01*
X22837Y-17902D01*
X22829Y-17920D01*
X22825Y-17940D01*
X22825Y-17959D01*
X22825Y-18041D01*
X22751Y-18041D01*
X22751Y-17965D01*
X22747Y-17946D01*
X22740Y-17928D01*
X22729Y-17911D01*
X22715Y-17897D01*
X22699Y-17887D01*
X22681Y-17879D01*
X22661Y-17875D01*
X22642Y-17875D01*
X22604Y-17875D01*
X22601Y-17865D01*
X22601Y-17863D01*
X22591Y-17845D01*
X22587Y-17837D01*
X22586Y-17836D01*
X22582Y-17832D01*
X22567Y-17813D01*
X22567Y-17812D01*
X22566Y-17811D01*
X22497Y-17743D01*
X22494Y-17739D01*
X22492Y-17738D01*
X22470Y-17719D01*
X22470Y-16904D01*
X22452Y-16814D01*
X22417Y-16728D01*
X22366Y-16652D01*
X22301Y-16586D01*
X22225Y-16535D01*
X22140Y-16499D01*
X22049Y-16480D01*
X21957Y-16480D01*
X21867Y-16497D01*
X21781Y-16531D01*
X21704Y-16582D01*
X21638Y-16646D01*
X21586Y-16722D01*
X21550Y-16807D01*
X21531Y-16897D01*
X21529Y-16989D01*
X21546Y-17080D01*
X21580Y-17166D01*
X21630Y-17243D01*
X21694Y-17310D01*
X21770Y-17362D01*
X21854Y-17399D01*
X21944Y-17419D01*
X22036Y-17421D01*
X22127Y-17405D01*
X22213Y-17372D01*
X22291Y-17322D01*
X22357Y-17259D01*
X22411Y-17183D01*
X22448Y-17099D01*
X22469Y-17009D01*
X22470Y-16904D01*
X22470Y-17719D01*
X22468Y-17718D01*
X22443Y-17704D01*
X22442Y-17703D01*
X22441Y-17703D01*
X22431Y-17700D01*
X22413Y-17694D01*
X22382Y-17691D01*
X22381Y-17691D01*
X22380Y-17691D01*
X21470Y-17691D01*
X21470Y-17004D01*
X21452Y-16914D01*
X21417Y-16828D01*
X21366Y-16752D01*
X21301Y-16686D01*
X21225Y-16635D01*
X21140Y-16599D01*
X21049Y-16580D01*
X20957Y-16580D01*
X20867Y-16597D01*
X20781Y-16631D01*
X20704Y-16682D01*
X20638Y-16746D01*
X20586Y-16822D01*
X20550Y-16907D01*
X20531Y-16997D01*
X20529Y-17089D01*
X20546Y-17180D01*
X20580Y-17266D01*
X20630Y-17343D01*
X20694Y-17410D01*
X20770Y-17462D01*
X20854Y-17499D01*
X20944Y-17519D01*
X21036Y-17521D01*
X21127Y-17505D01*
X21213Y-17472D01*
X21291Y-17422D01*
X21357Y-17359D01*
X21411Y-17283D01*
X21448Y-17199D01*
X21469Y-17109D01*
X21470Y-17004D01*
X21470Y-17691D01*
X20825Y-17691D01*
X20617Y-17483D01*
X20614Y-17479D01*
X20612Y-17478D01*
X20590Y-17459D01*
X20588Y-17458D01*
X20563Y-17444D01*
X20562Y-17443D01*
X20561Y-17443D01*
X20551Y-17440D01*
X20533Y-17434D01*
X20502Y-17431D01*
X20501Y-17431D01*
X20500Y-17431D01*
X20470Y-17431D01*
X20470Y-16904D01*
X20452Y-16814D01*
X20417Y-16728D01*
X20366Y-16652D01*
X20301Y-16586D01*
X20225Y-16535D01*
X20140Y-16499D01*
X20049Y-16480D01*
X19957Y-16480D01*
X19867Y-16497D01*
X19781Y-16531D01*
X19704Y-16582D01*
X19638Y-16646D01*
X19586Y-16722D01*
X19550Y-16807D01*
X19531Y-16897D01*
X19529Y-16989D01*
X19546Y-17080D01*
X19580Y-17166D01*
X19630Y-17243D01*
X19694Y-17310D01*
X19770Y-17362D01*
X19854Y-17399D01*
X19944Y-17419D01*
X20036Y-17421D01*
X20127Y-17405D01*
X20213Y-17372D01*
X20291Y-17322D01*
X20357Y-17259D01*
X20411Y-17183D01*
X20448Y-17099D01*
X20469Y-17009D01*
X20470Y-16904D01*
X20470Y-17431D01*
X19276Y-17431D01*
X19291Y-17422D01*
X19357Y-17359D01*
X19411Y-17283D01*
X19448Y-17199D01*
X19469Y-17109D01*
X19470Y-17004D01*
X19452Y-16914D01*
X19417Y-16828D01*
X19366Y-16752D01*
X19301Y-16686D01*
X19225Y-16635D01*
X19140Y-16599D01*
X19049Y-16580D01*
X18957Y-16580D01*
X18867Y-16597D01*
X18781Y-16631D01*
X18704Y-16682D01*
X18638Y-16746D01*
X18586Y-16822D01*
X18550Y-16907D01*
X18531Y-16997D01*
X18529Y-17089D01*
X18546Y-17180D01*
X18580Y-17266D01*
X18630Y-17343D01*
X18694Y-17410D01*
X18724Y-17431D01*
X18470Y-17431D01*
X18470Y-16904D01*
X18452Y-16814D01*
X18417Y-16728D01*
X18366Y-16652D01*
X18301Y-16586D01*
X18225Y-16535D01*
X18140Y-16499D01*
X18049Y-16480D01*
X17957Y-16480D01*
X17867Y-16497D01*
X17781Y-16531D01*
X17704Y-16582D01*
X17638Y-16646D01*
X17586Y-16722D01*
X17550Y-16807D01*
X17531Y-16897D01*
X17529Y-16989D01*
X17546Y-17080D01*
X17580Y-17166D01*
X17630Y-17243D01*
X17694Y-17310D01*
X17770Y-17362D01*
X17854Y-17399D01*
X17944Y-17419D01*
X18036Y-17421D01*
X18127Y-17405D01*
X18213Y-17372D01*
X18291Y-17322D01*
X18357Y-17259D01*
X18411Y-17183D01*
X18448Y-17099D01*
X18469Y-17009D01*
X18470Y-16904D01*
X18470Y-17431D01*
X17276Y-17431D01*
X17291Y-17422D01*
X17357Y-17359D01*
X17411Y-17283D01*
X17448Y-17199D01*
X17469Y-17109D01*
X17470Y-17004D01*
X17452Y-16914D01*
X17417Y-16828D01*
X17366Y-16752D01*
X17301Y-16686D01*
X17225Y-16635D01*
X17140Y-16599D01*
X17049Y-16580D01*
X16957Y-16580D01*
X16867Y-16597D01*
X16781Y-16631D01*
X16704Y-16682D01*
X16638Y-16746D01*
X16586Y-16822D01*
X16550Y-16907D01*
X16531Y-16997D01*
X16529Y-17089D01*
X16546Y-17180D01*
X16580Y-17266D01*
X16630Y-17343D01*
X16694Y-17410D01*
X16724Y-17431D01*
X16470Y-17431D01*
X16470Y-16904D01*
X16452Y-16814D01*
X16417Y-16728D01*
X16366Y-16652D01*
X16301Y-16586D01*
X16225Y-16535D01*
X16140Y-16499D01*
X16049Y-16480D01*
X15957Y-16480D01*
X15867Y-16497D01*
X15781Y-16531D01*
X15704Y-16582D01*
X15638Y-16646D01*
X15586Y-16722D01*
X15550Y-16807D01*
X15531Y-16897D01*
X15529Y-16989D01*
X15546Y-17080D01*
X15580Y-17166D01*
X15630Y-17243D01*
X15694Y-17310D01*
X15770Y-17362D01*
X15854Y-17399D01*
X15944Y-17419D01*
X16036Y-17421D01*
X16127Y-17405D01*
X16213Y-17372D01*
X16291Y-17322D01*
X16357Y-17259D01*
X16411Y-17183D01*
X16448Y-17099D01*
X16469Y-17009D01*
X16470Y-16904D01*
X16470Y-17431D01*
X16362Y-17431D01*
X16360Y-17431D01*
X16329Y-17434D01*
X16299Y-17443D01*
X16285Y-17450D01*
X16272Y-17457D01*
X16248Y-17477D01*
X16247Y-17478D01*
X16150Y-17574D01*
X16090Y-17549D01*
X15999Y-17530D01*
X15907Y-17530D01*
X15817Y-17547D01*
X15731Y-17581D01*
X15654Y-17632D01*
X15588Y-17696D01*
X15536Y-17772D01*
X15500Y-17857D01*
X15481Y-17947D01*
X15479Y-18039D01*
X15496Y-18130D01*
X15530Y-18216D01*
X15580Y-18293D01*
X15644Y-18360D01*
X15720Y-18412D01*
X15804Y-18449D01*
X15894Y-18469D01*
X15986Y-18471D01*
X16077Y-18455D01*
X16163Y-18422D01*
X16241Y-18372D01*
X16307Y-18309D01*
X16361Y-18233D01*
X16398Y-18149D01*
X16419Y-18059D01*
X16420Y-17954D01*
X16402Y-17864D01*
X16375Y-17799D01*
X16425Y-17749D01*
X17447Y-17749D01*
X17434Y-17755D01*
X17422Y-17761D01*
X17405Y-17754D01*
X17385Y-17750D01*
X17366Y-17750D01*
X16815Y-17750D01*
X16796Y-17754D01*
X16778Y-17761D01*
X16761Y-17772D01*
X16747Y-17786D01*
X16737Y-17802D01*
X16729Y-17820D01*
X16725Y-17840D01*
X16725Y-17859D01*
X16725Y-18210D01*
X16729Y-18229D01*
X16736Y-18247D01*
X16747Y-18264D01*
X16761Y-18278D01*
X16777Y-18288D01*
X16795Y-18296D01*
X16815Y-18300D01*
X16834Y-18300D01*
X17385Y-18300D01*
X17404Y-18296D01*
X17422Y-18289D01*
X17439Y-18278D01*
X17453Y-18264D01*
X17463Y-18248D01*
X17471Y-18230D01*
X17475Y-18210D01*
X17475Y-18191D01*
X17475Y-18141D01*
X17505Y-18147D01*
X17512Y-18147D01*
X17564Y-18198D01*
X17564Y-18480D01*
X17551Y-18486D01*
X17534Y-18497D01*
X17520Y-18511D01*
X17510Y-18527D01*
X17502Y-18545D01*
X17498Y-18565D01*
X17498Y-18584D01*
X17498Y-18835D01*
X17502Y-18854D01*
X17509Y-18872D01*
X17520Y-18889D01*
X17534Y-18903D01*
X17550Y-18913D01*
X17565Y-18919D01*
X17565Y-18920D01*
X17567Y-18934D01*
X17571Y-18950D01*
X17575Y-18962D01*
X17576Y-18964D01*
X17589Y-18990D01*
X17609Y-19014D01*
X17610Y-19015D01*
X17611Y-19015D01*
X17615Y-19019D01*
X17705Y-19110D01*
X17706Y-19111D01*
X17707Y-19112D01*
X17730Y-19131D01*
X17731Y-19132D01*
X17753Y-19144D01*
X17757Y-19146D01*
X17759Y-19147D01*
X17764Y-19148D01*
X17787Y-19156D01*
X17818Y-19159D01*
X17819Y-19159D01*
X17820Y-19159D01*
X17991Y-19159D01*
X17991Y-19425D01*
X17965Y-19425D01*
X17946Y-19429D01*
X17928Y-19436D01*
X17911Y-19447D01*
X17897Y-19461D01*
X17892Y-19468D01*
X17873Y-19449D01*
X17840Y-19426D01*
X17802Y-19411D01*
X17762Y-19402D01*
X17721Y-19402D01*
X17681Y-19409D01*
X17644Y-19425D01*
X17609Y-19447D01*
X17580Y-19475D01*
X17576Y-19480D01*
X17463Y-19480D01*
X17463Y-18959D01*
X17463Y-18826D01*
X17463Y-18724D01*
X17463Y-18591D01*
X17460Y-18574D01*
X17453Y-18558D01*
X17443Y-18544D01*
X17431Y-18532D01*
X17417Y-18522D01*
X17401Y-18515D01*
X17384Y-18512D01*
X17367Y-18512D01*
X17151Y-18512D01*
X17129Y-18534D01*
X17129Y-18746D01*
X17441Y-18746D01*
X17463Y-18724D01*
X17463Y-18826D01*
X17441Y-18804D01*
X17129Y-18804D01*
X17129Y-19016D01*
X17151Y-19038D01*
X17367Y-19038D01*
X17384Y-19038D01*
X17401Y-19035D01*
X17417Y-19028D01*
X17431Y-19018D01*
X17443Y-19006D01*
X17453Y-18992D01*
X17460Y-18976D01*
X17463Y-18959D01*
X17463Y-19480D01*
X17406Y-19480D01*
X17408Y-19476D01*
X17417Y-19437D01*
X17418Y-19390D01*
X17410Y-19350D01*
X17395Y-19312D01*
X17372Y-19278D01*
X17343Y-19249D01*
X17310Y-19226D01*
X17272Y-19211D01*
X17232Y-19202D01*
X17191Y-19202D01*
X17151Y-19209D01*
X17114Y-19225D01*
X17079Y-19247D01*
X17071Y-19254D01*
X17071Y-19016D01*
X17071Y-18804D01*
X17071Y-18746D01*
X17071Y-18534D01*
X17049Y-18512D01*
X16833Y-18512D01*
X16816Y-18512D01*
X16799Y-18515D01*
X16783Y-18522D01*
X16769Y-18532D01*
X16757Y-18544D01*
X16747Y-18558D01*
X16740Y-18574D01*
X16737Y-18591D01*
X16737Y-18724D01*
X16759Y-18746D01*
X17071Y-18746D01*
X17071Y-18804D01*
X16759Y-18804D01*
X16737Y-18826D01*
X16737Y-18959D01*
X16740Y-18976D01*
X16747Y-18992D01*
X16757Y-19006D01*
X16769Y-19018D01*
X16783Y-19028D01*
X16799Y-19035D01*
X16816Y-19038D01*
X16833Y-19038D01*
X17049Y-19038D01*
X17071Y-19016D01*
X17071Y-19254D01*
X17050Y-19275D01*
X17027Y-19309D01*
X17011Y-19346D01*
X17010Y-19350D01*
X16510Y-19350D01*
X16510Y-18992D01*
X16500Y-18902D01*
X16472Y-18817D01*
X16438Y-18753D01*
X16380Y-18712D01*
X16338Y-18753D01*
X16338Y-18670D01*
X16297Y-18612D01*
X16217Y-18571D01*
X16131Y-18547D01*
X16042Y-18540D01*
X15952Y-18550D01*
X15867Y-18578D01*
X15803Y-18612D01*
X15762Y-18670D01*
X16050Y-18959D01*
X16338Y-18670D01*
X16338Y-18753D01*
X16091Y-19000D01*
X16380Y-19288D01*
X16438Y-19247D01*
X16479Y-19167D01*
X16503Y-19081D01*
X16510Y-18992D01*
X16510Y-19350D01*
X16471Y-19350D01*
X16470Y-19350D01*
X16445Y-19352D01*
X16420Y-19360D01*
X16405Y-19367D01*
X16399Y-19371D01*
X16379Y-19387D01*
X16378Y-19388D01*
X16338Y-19427D01*
X16338Y-19330D01*
X16050Y-19041D01*
X16009Y-19082D01*
X16009Y-19000D01*
X15720Y-18712D01*
X15662Y-18753D01*
X15621Y-18833D01*
X15597Y-18919D01*
X15590Y-19008D01*
X15600Y-19098D01*
X15628Y-19183D01*
X15662Y-19247D01*
X15720Y-19288D01*
X16009Y-19000D01*
X16009Y-19082D01*
X15762Y-19330D01*
X15803Y-19388D01*
X15883Y-19429D01*
X15969Y-19453D01*
X16058Y-19460D01*
X16148Y-19450D01*
X16233Y-19422D01*
X16297Y-19388D01*
X16338Y-19330D01*
X16338Y-19427D01*
X16178Y-19587D01*
X16175Y-19585D01*
X16090Y-19549D01*
X15999Y-19530D01*
X15907Y-19530D01*
X15817Y-19547D01*
X15731Y-19581D01*
X15654Y-19632D01*
X15588Y-19696D01*
X15544Y-19760D01*
X15262Y-19760D01*
X15262Y-19755D01*
X15258Y-19736D01*
X15251Y-19718D01*
X15240Y-19701D01*
X15226Y-19687D01*
X15210Y-19677D01*
X15192Y-19669D01*
X15172Y-19665D01*
X15153Y-19665D01*
X14902Y-19665D01*
X14883Y-19669D01*
X14865Y-19676D01*
X14859Y-19679D01*
X14856Y-19677D01*
X14838Y-19669D01*
X14818Y-19665D01*
X14799Y-19665D01*
X14729Y-19665D01*
X14729Y-18012D01*
X14992Y-17749D01*
X15299Y-17749D01*
X15300Y-17749D01*
X15322Y-17747D01*
X15323Y-17747D01*
X15345Y-17740D01*
X15365Y-17730D01*
X15366Y-17729D01*
X15383Y-17715D01*
X15383Y-17714D01*
X15384Y-17714D01*
X15398Y-17697D01*
X15399Y-17697D01*
X15409Y-17677D01*
X15410Y-17676D01*
X15416Y-17655D01*
X15417Y-17654D01*
X15418Y-17634D01*
X15419Y-17632D01*
X15419Y-17631D01*
X15419Y-17630D01*
X15419Y-16616D01*
X15616Y-16419D01*
X29384Y-16419D01*
X29581Y-16616D01*
X29581Y-23384D01*
X29581Y-23384D01*
G37*
G54D11*
X29581Y-23384D02*
X29520Y-23445D01*
X29520Y-21954D01*
X29520Y-19954D01*
X29520Y-17954D01*
X29502Y-17864D01*
X29470Y-17785D01*
X29470Y-17004D01*
X29452Y-16914D01*
X29417Y-16828D01*
X29366Y-16752D01*
X29301Y-16686D01*
X29225Y-16635D01*
X29140Y-16599D01*
X29049Y-16580D01*
X28957Y-16580D01*
X28867Y-16597D01*
X28781Y-16631D01*
X28704Y-16682D01*
X28638Y-16746D01*
X28586Y-16822D01*
X28550Y-16907D01*
X28531Y-16997D01*
X28529Y-17089D01*
X28546Y-17180D01*
X28580Y-17266D01*
X28630Y-17343D01*
X28694Y-17410D01*
X28770Y-17462D01*
X28854Y-17499D01*
X28944Y-17519D01*
X29036Y-17521D01*
X29127Y-17505D01*
X29213Y-17472D01*
X29291Y-17422D01*
X29357Y-17359D01*
X29411Y-17283D01*
X29448Y-17199D01*
X29469Y-17109D01*
X29470Y-17004D01*
X29470Y-17785D01*
X29467Y-17778D01*
X29416Y-17702D01*
X29351Y-17636D01*
X29275Y-17585D01*
X29190Y-17549D01*
X29099Y-17530D01*
X29007Y-17530D01*
X28917Y-17547D01*
X28831Y-17581D01*
X28754Y-17632D01*
X28688Y-17696D01*
X28636Y-17772D01*
X28600Y-17857D01*
X28581Y-17947D01*
X28579Y-18039D01*
X28596Y-18130D01*
X28630Y-18216D01*
X28680Y-18293D01*
X28744Y-18360D01*
X28820Y-18412D01*
X28904Y-18449D01*
X28994Y-18469D01*
X29086Y-18471D01*
X29177Y-18455D01*
X29263Y-18422D01*
X29341Y-18372D01*
X29407Y-18309D01*
X29461Y-18233D01*
X29498Y-18149D01*
X29519Y-18059D01*
X29520Y-17954D01*
X29520Y-19954D01*
X29502Y-19864D01*
X29467Y-19778D01*
X29420Y-19707D01*
X29420Y-18954D01*
X29402Y-18864D01*
X29367Y-18778D01*
X29316Y-18702D01*
X29251Y-18636D01*
X29175Y-18585D01*
X29090Y-18549D01*
X28999Y-18530D01*
X28907Y-18530D01*
X28817Y-18547D01*
X28731Y-18581D01*
X28654Y-18632D01*
X28588Y-18696D01*
X28536Y-18772D01*
X28500Y-18857D01*
X28481Y-18947D01*
X28479Y-19039D01*
X28496Y-19130D01*
X28530Y-19216D01*
X28580Y-19293D01*
X28644Y-19360D01*
X28720Y-19412D01*
X28804Y-19449D01*
X28894Y-19469D01*
X28986Y-19471D01*
X29077Y-19455D01*
X29163Y-19422D01*
X29241Y-19372D01*
X29307Y-19309D01*
X29361Y-19233D01*
X29398Y-19149D01*
X29419Y-19059D01*
X29420Y-18954D01*
X29420Y-19707D01*
X29416Y-19702D01*
X29351Y-19636D01*
X29275Y-19585D01*
X29190Y-19549D01*
X29099Y-19530D01*
X29007Y-19530D01*
X28917Y-19547D01*
X28831Y-19581D01*
X28754Y-19632D01*
X28688Y-19696D01*
X28636Y-19772D01*
X28600Y-19857D01*
X28581Y-19947D01*
X28579Y-20039D01*
X28596Y-20130D01*
X28630Y-20216D01*
X28680Y-20293D01*
X28744Y-20360D01*
X28820Y-20412D01*
X28904Y-20449D01*
X28994Y-20469D01*
X29086Y-20471D01*
X29177Y-20455D01*
X29263Y-20422D01*
X29341Y-20372D01*
X29407Y-20309D01*
X29461Y-20233D01*
X29498Y-20149D01*
X29519Y-20059D01*
X29520Y-19954D01*
X29520Y-21954D01*
X29502Y-21864D01*
X29467Y-21778D01*
X29420Y-21707D01*
X29420Y-20954D01*
X29402Y-20864D01*
X29367Y-20778D01*
X29316Y-20702D01*
X29251Y-20636D01*
X29175Y-20585D01*
X29090Y-20549D01*
X28999Y-20530D01*
X28907Y-20530D01*
X28817Y-20547D01*
X28731Y-20581D01*
X28654Y-20632D01*
X28588Y-20696D01*
X28536Y-20772D01*
X28520Y-20809D01*
X28520Y-19954D01*
X28502Y-19864D01*
X28467Y-19778D01*
X28416Y-19702D01*
X28410Y-19695D01*
X28410Y-18992D01*
X28400Y-18902D01*
X28372Y-18817D01*
X28338Y-18753D01*
X28280Y-18712D01*
X28238Y-18753D01*
X28238Y-18670D01*
X28197Y-18612D01*
X28117Y-18571D01*
X28031Y-18547D01*
X27942Y-18540D01*
X27852Y-18550D01*
X27767Y-18578D01*
X27703Y-18612D01*
X27662Y-18670D01*
X27950Y-18959D01*
X28238Y-18670D01*
X28238Y-18753D01*
X27991Y-19000D01*
X28280Y-19288D01*
X28338Y-19247D01*
X28379Y-19167D01*
X28403Y-19081D01*
X28410Y-18992D01*
X28410Y-19695D01*
X28351Y-19636D01*
X28275Y-19585D01*
X28238Y-19569D01*
X28238Y-19330D01*
X27950Y-19041D01*
X27909Y-19082D01*
X27909Y-19000D01*
X27620Y-18712D01*
X27562Y-18753D01*
X27521Y-18833D01*
X27497Y-18919D01*
X27490Y-19008D01*
X27500Y-19098D01*
X27528Y-19183D01*
X27562Y-19247D01*
X27620Y-19288D01*
X27909Y-19000D01*
X27909Y-19082D01*
X27662Y-19330D01*
X27703Y-19388D01*
X27783Y-19429D01*
X27869Y-19453D01*
X27958Y-19460D01*
X28048Y-19450D01*
X28133Y-19422D01*
X28197Y-19388D01*
X28238Y-19330D01*
X28238Y-19569D01*
X28190Y-19549D01*
X28099Y-19530D01*
X28007Y-19530D01*
X27917Y-19547D01*
X27831Y-19581D01*
X27754Y-19632D01*
X27688Y-19696D01*
X27636Y-19772D01*
X27600Y-19857D01*
X27581Y-19947D01*
X27579Y-20039D01*
X27596Y-20130D01*
X27630Y-20216D01*
X27637Y-20228D01*
X27379Y-20487D01*
X27378Y-20488D01*
X27362Y-20507D01*
X27351Y-20529D01*
X27350Y-20531D01*
X27347Y-20539D01*
X27343Y-20553D01*
X27340Y-20578D01*
X27340Y-20580D01*
X27340Y-21254D01*
X27086Y-21508D01*
X26238Y-21508D01*
X26238Y-21070D01*
X26230Y-21030D01*
X26215Y-20992D01*
X26192Y-20958D01*
X26163Y-20929D01*
X26160Y-20926D01*
X26160Y-19791D01*
X26160Y-19790D01*
X26158Y-19765D01*
X26150Y-19742D01*
X26150Y-19740D01*
X26142Y-19725D01*
X26139Y-19719D01*
X26138Y-19718D01*
X26137Y-19717D01*
X26137Y-19716D01*
X26138Y-19670D01*
X26130Y-19630D01*
X26115Y-19592D01*
X26092Y-19558D01*
X26063Y-19529D01*
X26030Y-19506D01*
X25992Y-19491D01*
X25952Y-19482D01*
X25911Y-19482D01*
X25871Y-19489D01*
X25834Y-19505D01*
X25799Y-19527D01*
X25770Y-19555D01*
X25747Y-19589D01*
X25731Y-19626D01*
X25722Y-19666D01*
X25722Y-19707D01*
X25729Y-19747D01*
X25744Y-19785D01*
X25766Y-19819D01*
X25794Y-19849D01*
X25828Y-19872D01*
X25865Y-19889D01*
X25900Y-19896D01*
X25900Y-20926D01*
X25899Y-20927D01*
X25870Y-20955D01*
X25847Y-20989D01*
X25831Y-21026D01*
X25822Y-21066D01*
X25822Y-21107D01*
X25829Y-21147D01*
X25844Y-21185D01*
X25866Y-21219D01*
X25894Y-21249D01*
X25928Y-21272D01*
X25965Y-21289D01*
X26005Y-21297D01*
X26046Y-21298D01*
X26086Y-21291D01*
X26124Y-21277D01*
X26158Y-21255D01*
X26188Y-21227D01*
X26211Y-21194D01*
X26228Y-21156D01*
X26237Y-21117D01*
X26238Y-21070D01*
X26238Y-21508D01*
X25650Y-21508D01*
X25650Y-18860D01*
X25650Y-18841D01*
X25650Y-18540D01*
X25646Y-18521D01*
X25639Y-18503D01*
X25628Y-18486D01*
X25614Y-18472D01*
X25598Y-18462D01*
X25580Y-18454D01*
X25560Y-18450D01*
X25552Y-18450D01*
X25568Y-18416D01*
X25577Y-18377D01*
X25578Y-18330D01*
X25570Y-18290D01*
X25555Y-18252D01*
X25532Y-18218D01*
X25503Y-18189D01*
X25470Y-18166D01*
X25432Y-18151D01*
X25392Y-18142D01*
X25351Y-18142D01*
X25311Y-18149D01*
X25274Y-18165D01*
X25239Y-18187D01*
X25210Y-18215D01*
X25187Y-18249D01*
X25171Y-18286D01*
X25162Y-18326D01*
X25162Y-18367D01*
X25169Y-18407D01*
X25184Y-18445D01*
X25196Y-18464D01*
X25186Y-18472D01*
X25172Y-18486D01*
X25162Y-18502D01*
X25154Y-18520D01*
X25150Y-18540D01*
X25150Y-18559D01*
X25150Y-18860D01*
X25154Y-18879D01*
X25161Y-18897D01*
X25172Y-18914D01*
X25186Y-18928D01*
X25202Y-18938D01*
X25220Y-18946D01*
X25240Y-18950D01*
X25259Y-18950D01*
X25560Y-18950D01*
X25579Y-18946D01*
X25597Y-18939D01*
X25614Y-18928D01*
X25628Y-18914D01*
X25638Y-18898D01*
X25646Y-18880D01*
X25650Y-18860D01*
X25650Y-21508D01*
X24950Y-21508D01*
X24950Y-18860D01*
X24950Y-18841D01*
X24950Y-18540D01*
X24946Y-18521D01*
X24939Y-18503D01*
X24928Y-18486D01*
X24914Y-18472D01*
X24898Y-18462D01*
X24880Y-18454D01*
X24860Y-18450D01*
X24852Y-18450D01*
X24868Y-18416D01*
X24877Y-18377D01*
X24878Y-18330D01*
X24870Y-18290D01*
X24855Y-18252D01*
X24832Y-18218D01*
X24803Y-18189D01*
X24770Y-18166D01*
X24732Y-18151D01*
X24692Y-18142D01*
X24651Y-18142D01*
X24611Y-18149D01*
X24574Y-18165D01*
X24539Y-18187D01*
X24510Y-18215D01*
X24487Y-18249D01*
X24471Y-18286D01*
X24462Y-18326D01*
X24462Y-18367D01*
X24469Y-18407D01*
X24484Y-18445D01*
X24496Y-18464D01*
X24486Y-18472D01*
X24472Y-18486D01*
X24462Y-18502D01*
X24454Y-18520D01*
X24450Y-18540D01*
X24450Y-18559D01*
X24450Y-18860D01*
X24454Y-18879D01*
X24461Y-18897D01*
X24472Y-18914D01*
X24486Y-18928D01*
X24502Y-18938D01*
X24520Y-18946D01*
X24540Y-18950D01*
X24559Y-18950D01*
X24860Y-18950D01*
X24879Y-18946D01*
X24897Y-18939D01*
X24914Y-18928D01*
X24928Y-18914D01*
X24938Y-18898D01*
X24946Y-18880D01*
X24950Y-18860D01*
X24950Y-21508D01*
X22794Y-21508D01*
X22745Y-21459D01*
X22744Y-21458D01*
X22725Y-21442D01*
X22703Y-21431D01*
X22701Y-21430D01*
X22693Y-21427D01*
X22679Y-21423D01*
X22654Y-21420D01*
X22652Y-21420D01*
X22503Y-21420D01*
X22502Y-21418D01*
X22473Y-21389D01*
X22440Y-21366D01*
X22402Y-21351D01*
X22362Y-21342D01*
X22321Y-21342D01*
X22281Y-21349D01*
X22244Y-21365D01*
X22209Y-21387D01*
X22180Y-21415D01*
X22157Y-21449D01*
X22141Y-21486D01*
X22132Y-21526D01*
X22132Y-21567D01*
X22139Y-21607D01*
X22154Y-21645D01*
X22176Y-21679D01*
X22204Y-21709D01*
X22238Y-21732D01*
X22275Y-21749D01*
X22315Y-21757D01*
X22342Y-21757D01*
X22342Y-21777D01*
X22349Y-21817D01*
X22364Y-21855D01*
X22386Y-21889D01*
X22414Y-21919D01*
X22448Y-21942D01*
X22485Y-21959D01*
X22525Y-21967D01*
X22566Y-21968D01*
X22606Y-21961D01*
X22644Y-21947D01*
X22678Y-21925D01*
X22708Y-21897D01*
X22712Y-21890D01*
X27189Y-21890D01*
X27190Y-21890D01*
X27215Y-21888D01*
X27238Y-21880D01*
X27240Y-21880D01*
X27254Y-21872D01*
X27261Y-21869D01*
X27262Y-21868D01*
X27281Y-21853D01*
X27282Y-21852D01*
X27720Y-21412D01*
X27804Y-21449D01*
X27894Y-21469D01*
X27986Y-21471D01*
X28077Y-21455D01*
X28163Y-21422D01*
X28241Y-21372D01*
X28307Y-21309D01*
X28361Y-21233D01*
X28398Y-21149D01*
X28419Y-21059D01*
X28420Y-20954D01*
X28402Y-20864D01*
X28367Y-20778D01*
X28316Y-20702D01*
X28251Y-20636D01*
X28175Y-20585D01*
X28090Y-20549D01*
X27999Y-20530D01*
X27907Y-20530D01*
X27817Y-20547D01*
X27731Y-20581D01*
X27654Y-20632D01*
X27600Y-20684D01*
X27600Y-20634D01*
X27821Y-20412D01*
X27904Y-20449D01*
X27994Y-20469D01*
X28086Y-20471D01*
X28177Y-20455D01*
X28263Y-20422D01*
X28341Y-20372D01*
X28407Y-20309D01*
X28461Y-20233D01*
X28498Y-20149D01*
X28519Y-20059D01*
X28520Y-19954D01*
X28520Y-20809D01*
X28500Y-20857D01*
X28481Y-20947D01*
X28479Y-21039D01*
X28496Y-21130D01*
X28530Y-21216D01*
X28580Y-21293D01*
X28644Y-21360D01*
X28720Y-21412D01*
X28804Y-21449D01*
X28894Y-21469D01*
X28986Y-21471D01*
X29077Y-21455D01*
X29163Y-21422D01*
X29241Y-21372D01*
X29307Y-21309D01*
X29361Y-21233D01*
X29398Y-21149D01*
X29419Y-21059D01*
X29420Y-20954D01*
X29420Y-21707D01*
X29416Y-21702D01*
X29351Y-21636D01*
X29275Y-21585D01*
X29190Y-21549D01*
X29099Y-21530D01*
X29007Y-21530D01*
X28917Y-21547D01*
X28831Y-21581D01*
X28754Y-21632D01*
X28688Y-21696D01*
X28636Y-21772D01*
X28600Y-21857D01*
X28581Y-21947D01*
X28579Y-22039D01*
X28596Y-22130D01*
X28630Y-22216D01*
X28680Y-22293D01*
X28744Y-22360D01*
X28820Y-22412D01*
X28904Y-22449D01*
X28994Y-22469D01*
X29086Y-22471D01*
X29177Y-22455D01*
X29263Y-22422D01*
X29341Y-22372D01*
X29407Y-22309D01*
X29461Y-22233D01*
X29498Y-22149D01*
X29519Y-22059D01*
X29520Y-21954D01*
X29520Y-23445D01*
X29470Y-23495D01*
X29470Y-23004D01*
X29452Y-22914D01*
X29417Y-22828D01*
X29366Y-22752D01*
X29301Y-22686D01*
X29225Y-22635D01*
X29140Y-22599D01*
X29049Y-22580D01*
X28957Y-22580D01*
X28867Y-22597D01*
X28781Y-22631D01*
X28704Y-22682D01*
X28638Y-22746D01*
X28586Y-22822D01*
X28550Y-22907D01*
X28531Y-22997D01*
X28529Y-23089D01*
X28546Y-23180D01*
X28580Y-23266D01*
X28630Y-23343D01*
X28694Y-23410D01*
X28770Y-23462D01*
X28854Y-23499D01*
X28944Y-23519D01*
X29036Y-23521D01*
X29127Y-23505D01*
X29213Y-23472D01*
X29291Y-23422D01*
X29357Y-23359D01*
X29411Y-23283D01*
X29448Y-23199D01*
X29469Y-23109D01*
X29470Y-23004D01*
X29470Y-23495D01*
X29384Y-23581D01*
X28520Y-23581D01*
X28520Y-21954D01*
X28502Y-21864D01*
X28467Y-21778D01*
X28416Y-21702D01*
X28351Y-21636D01*
X28275Y-21585D01*
X28190Y-21549D01*
X28099Y-21530D01*
X28007Y-21530D01*
X27917Y-21547D01*
X27831Y-21581D01*
X27754Y-21632D01*
X27688Y-21696D01*
X27636Y-21772D01*
X27600Y-21857D01*
X27581Y-21947D01*
X27579Y-22039D01*
X27596Y-22130D01*
X27630Y-22216D01*
X27680Y-22293D01*
X27744Y-22360D01*
X27820Y-22412D01*
X27904Y-22449D01*
X27994Y-22469D01*
X28086Y-22471D01*
X28177Y-22455D01*
X28263Y-22422D01*
X28341Y-22372D01*
X28407Y-22309D01*
X28461Y-22233D01*
X28498Y-22149D01*
X28519Y-22059D01*
X28520Y-21954D01*
X28520Y-23581D01*
X28470Y-23581D01*
X28470Y-23004D01*
X28452Y-22914D01*
X28417Y-22828D01*
X28366Y-22752D01*
X28301Y-22686D01*
X28225Y-22635D01*
X28140Y-22599D01*
X28049Y-22580D01*
X27957Y-22580D01*
X27867Y-22597D01*
X27781Y-22631D01*
X27704Y-22682D01*
X27638Y-22746D01*
X27586Y-22822D01*
X27550Y-22907D01*
X27531Y-22997D01*
X27529Y-23089D01*
X27546Y-23180D01*
X27580Y-23266D01*
X27630Y-23343D01*
X27694Y-23410D01*
X27770Y-23462D01*
X27854Y-23499D01*
X27944Y-23519D01*
X28036Y-23521D01*
X28127Y-23505D01*
X28213Y-23472D01*
X28291Y-23422D01*
X28357Y-23359D01*
X28411Y-23283D01*
X28448Y-23199D01*
X28469Y-23109D01*
X28470Y-23004D01*
X28470Y-23581D01*
X27470Y-23581D01*
X27470Y-23004D01*
X27452Y-22914D01*
X27417Y-22828D01*
X27366Y-22752D01*
X27301Y-22686D01*
X27225Y-22635D01*
X27140Y-22599D01*
X27049Y-22580D01*
X26957Y-22580D01*
X26867Y-22597D01*
X26781Y-22631D01*
X26704Y-22682D01*
X26638Y-22746D01*
X26586Y-22822D01*
X26550Y-22907D01*
X26531Y-22997D01*
X26529Y-23089D01*
X26546Y-23180D01*
X26580Y-23266D01*
X26630Y-23343D01*
X26694Y-23410D01*
X26770Y-23462D01*
X26854Y-23499D01*
X26944Y-23519D01*
X27036Y-23521D01*
X27127Y-23505D01*
X27213Y-23472D01*
X27291Y-23422D01*
X27357Y-23359D01*
X27411Y-23283D01*
X27448Y-23199D01*
X27469Y-23109D01*
X27470Y-23004D01*
X27470Y-23581D01*
X26470Y-23581D01*
X26470Y-22904D01*
X26452Y-22814D01*
X26417Y-22728D01*
X26366Y-22652D01*
X26301Y-22586D01*
X26225Y-22535D01*
X26140Y-22499D01*
X26049Y-22480D01*
X25957Y-22480D01*
X25867Y-22497D01*
X25781Y-22531D01*
X25704Y-22582D01*
X25638Y-22646D01*
X25586Y-22722D01*
X25550Y-22807D01*
X25531Y-22897D01*
X25529Y-22989D01*
X25546Y-23080D01*
X25580Y-23166D01*
X25630Y-23243D01*
X25694Y-23310D01*
X25770Y-23362D01*
X25854Y-23399D01*
X25944Y-23419D01*
X26036Y-23421D01*
X26127Y-23405D01*
X26213Y-23372D01*
X26291Y-23322D01*
X26357Y-23259D01*
X26411Y-23183D01*
X26448Y-23099D01*
X26469Y-23009D01*
X26470Y-22904D01*
X26470Y-23581D01*
X25470Y-23581D01*
X25470Y-23004D01*
X25452Y-22914D01*
X25417Y-22828D01*
X25366Y-22752D01*
X25301Y-22686D01*
X25225Y-22635D01*
X25140Y-22599D01*
X25049Y-22580D01*
X24957Y-22580D01*
X24867Y-22597D01*
X24781Y-22631D01*
X24704Y-22682D01*
X24638Y-22746D01*
X24586Y-22822D01*
X24550Y-22907D01*
X24531Y-22997D01*
X24529Y-23089D01*
X24546Y-23180D01*
X24580Y-23266D01*
X24630Y-23343D01*
X24694Y-23410D01*
X24770Y-23462D01*
X24854Y-23499D01*
X24944Y-23519D01*
X25036Y-23521D01*
X25127Y-23505D01*
X25213Y-23472D01*
X25291Y-23422D01*
X25357Y-23359D01*
X25411Y-23283D01*
X25448Y-23199D01*
X25469Y-23109D01*
X25470Y-23004D01*
X25470Y-23581D01*
X24470Y-23581D01*
X24470Y-22904D01*
X24452Y-22814D01*
X24417Y-22728D01*
X24366Y-22652D01*
X24301Y-22586D01*
X24225Y-22535D01*
X24140Y-22499D01*
X24049Y-22480D01*
X23957Y-22480D01*
X23867Y-22497D01*
X23781Y-22531D01*
X23704Y-22582D01*
X23638Y-22646D01*
X23586Y-22722D01*
X23550Y-22807D01*
X23531Y-22897D01*
X23529Y-22989D01*
X23546Y-23080D01*
X23580Y-23166D01*
X23630Y-23243D01*
X23694Y-23310D01*
X23770Y-23362D01*
X23854Y-23399D01*
X23944Y-23419D01*
X24036Y-23421D01*
X24127Y-23405D01*
X24213Y-23372D01*
X24291Y-23322D01*
X24357Y-23259D01*
X24411Y-23183D01*
X24448Y-23099D01*
X24469Y-23009D01*
X24470Y-22904D01*
X24470Y-23581D01*
X23470Y-23581D01*
X23470Y-23004D01*
X23452Y-22914D01*
X23417Y-22828D01*
X23366Y-22752D01*
X23301Y-22686D01*
X23225Y-22635D01*
X23140Y-22599D01*
X23049Y-22580D01*
X22957Y-22580D01*
X22867Y-22597D01*
X22781Y-22631D01*
X22704Y-22682D01*
X22638Y-22746D01*
X22586Y-22822D01*
X22550Y-22907D01*
X22531Y-22997D01*
X22529Y-23089D01*
X22546Y-23180D01*
X22580Y-23266D01*
X22630Y-23343D01*
X22694Y-23410D01*
X22770Y-23462D01*
X22854Y-23499D01*
X22944Y-23519D01*
X23036Y-23521D01*
X23127Y-23505D01*
X23213Y-23472D01*
X23291Y-23422D01*
X23357Y-23359D01*
X23411Y-23283D01*
X23448Y-23199D01*
X23469Y-23109D01*
X23470Y-23004D01*
X23470Y-23581D01*
X22470Y-23581D01*
X22470Y-23004D01*
X22452Y-22914D01*
X22417Y-22828D01*
X22366Y-22752D01*
X22301Y-22686D01*
X22225Y-22635D01*
X22140Y-22599D01*
X22049Y-22580D01*
X21957Y-22580D01*
X21867Y-22597D01*
X21781Y-22631D01*
X21704Y-22682D01*
X21638Y-22746D01*
X21586Y-22822D01*
X21550Y-22907D01*
X21531Y-22997D01*
X21529Y-23089D01*
X21546Y-23180D01*
X21580Y-23266D01*
X21630Y-23343D01*
X21694Y-23410D01*
X21770Y-23462D01*
X21854Y-23499D01*
X21944Y-23519D01*
X22036Y-23521D01*
X22127Y-23505D01*
X22213Y-23472D01*
X22291Y-23422D01*
X22357Y-23359D01*
X22411Y-23283D01*
X22448Y-23199D01*
X22469Y-23109D01*
X22470Y-23004D01*
X22470Y-23581D01*
X21470Y-23581D01*
X21470Y-23004D01*
X21452Y-22914D01*
X21417Y-22828D01*
X21366Y-22752D01*
X21301Y-22686D01*
X21225Y-22635D01*
X21213Y-22629D01*
X21213Y-22234D01*
X21213Y-22151D01*
X21213Y-22049D01*
X21213Y-21966D01*
X21210Y-21949D01*
X21203Y-21933D01*
X21193Y-21919D01*
X21181Y-21907D01*
X21167Y-21897D01*
X21151Y-21890D01*
X21134Y-21887D01*
X21117Y-21887D01*
X20951Y-21887D01*
X20929Y-21909D01*
X20929Y-22071D01*
X21191Y-22071D01*
X21213Y-22049D01*
X21213Y-22151D01*
X21191Y-22129D01*
X20929Y-22129D01*
X20929Y-22291D01*
X20951Y-22313D01*
X21117Y-22313D01*
X21134Y-22313D01*
X21151Y-22310D01*
X21167Y-22303D01*
X21181Y-22293D01*
X21193Y-22281D01*
X21203Y-22267D01*
X21210Y-22251D01*
X21213Y-22234D01*
X21213Y-22629D01*
X21140Y-22599D01*
X21049Y-22580D01*
X20957Y-22580D01*
X20871Y-22596D01*
X20871Y-22291D01*
X20871Y-22129D01*
X20871Y-22071D01*
X20871Y-21909D01*
X20849Y-21887D01*
X20683Y-21887D01*
X20666Y-21887D01*
X20649Y-21890D01*
X20633Y-21897D01*
X20619Y-21907D01*
X20607Y-21919D01*
X20597Y-21933D01*
X20590Y-21949D01*
X20587Y-21966D01*
X20587Y-22049D01*
X20609Y-22071D01*
X20871Y-22071D01*
X20871Y-22129D01*
X20609Y-22129D01*
X20587Y-22151D01*
X20587Y-22234D01*
X20590Y-22251D01*
X20597Y-22267D01*
X20607Y-22281D01*
X20619Y-22293D01*
X20633Y-22303D01*
X20649Y-22310D01*
X20666Y-22313D01*
X20683Y-22313D01*
X20849Y-22313D01*
X20871Y-22291D01*
X20871Y-22596D01*
X20867Y-22597D01*
X20781Y-22631D01*
X20704Y-22682D01*
X20638Y-22746D01*
X20586Y-22822D01*
X20550Y-22907D01*
X20531Y-22997D01*
X20529Y-23089D01*
X20546Y-23180D01*
X20580Y-23266D01*
X20630Y-23343D01*
X20694Y-23410D01*
X20770Y-23462D01*
X20854Y-23499D01*
X20944Y-23519D01*
X21036Y-23521D01*
X21127Y-23505D01*
X21213Y-23472D01*
X21291Y-23422D01*
X21357Y-23359D01*
X21411Y-23283D01*
X21448Y-23199D01*
X21469Y-23109D01*
X21470Y-23004D01*
X21470Y-23581D01*
X20470Y-23581D01*
X20470Y-22904D01*
X20453Y-22819D01*
X20453Y-22274D01*
X20453Y-22201D01*
X20453Y-22099D01*
X20453Y-22026D01*
X20450Y-22009D01*
X20443Y-21993D01*
X20433Y-21979D01*
X20421Y-21967D01*
X20407Y-21957D01*
X20391Y-21950D01*
X20374Y-21947D01*
X20357Y-21947D01*
X20125Y-21947D01*
X20103Y-21969D01*
X20103Y-22121D01*
X20431Y-22121D01*
X20453Y-22099D01*
X20453Y-22201D01*
X20431Y-22179D01*
X20103Y-22179D01*
X20103Y-22331D01*
X20125Y-22353D01*
X20357Y-22353D01*
X20374Y-22353D01*
X20391Y-22350D01*
X20407Y-22343D01*
X20421Y-22333D01*
X20433Y-22321D01*
X20443Y-22307D01*
X20450Y-22291D01*
X20453Y-22274D01*
X20453Y-22819D01*
X20452Y-22814D01*
X20417Y-22728D01*
X20366Y-22652D01*
X20301Y-22586D01*
X20225Y-22535D01*
X20140Y-22499D01*
X20049Y-22480D01*
X20045Y-22480D01*
X20045Y-22331D01*
X20045Y-22179D01*
X20045Y-22121D01*
X20045Y-21969D01*
X20023Y-21947D01*
X19791Y-21947D01*
X19774Y-21947D01*
X19757Y-21950D01*
X19741Y-21957D01*
X19727Y-21967D01*
X19715Y-21979D01*
X19705Y-21993D01*
X19698Y-22009D01*
X19695Y-22026D01*
X19695Y-22099D01*
X19717Y-22121D01*
X20045Y-22121D01*
X20045Y-22179D01*
X19717Y-22179D01*
X19695Y-22201D01*
X19695Y-22274D01*
X19698Y-22291D01*
X19705Y-22307D01*
X19715Y-22321D01*
X19727Y-22333D01*
X19741Y-22343D01*
X19757Y-22350D01*
X19774Y-22353D01*
X19791Y-22353D01*
X20023Y-22353D01*
X20045Y-22331D01*
X20045Y-22480D01*
X19957Y-22480D01*
X19867Y-22497D01*
X19781Y-22531D01*
X19704Y-22582D01*
X19666Y-22618D01*
X19666Y-22279D01*
X19666Y-22201D01*
X19666Y-22099D01*
X19666Y-22021D01*
X19663Y-22004D01*
X19656Y-21988D01*
X19646Y-21974D01*
X19634Y-21962D01*
X19620Y-21952D01*
X19604Y-21945D01*
X19587Y-21942D01*
X19570Y-21942D01*
X19314Y-21942D01*
X19292Y-21964D01*
X19292Y-22121D01*
X19644Y-22121D01*
X19666Y-22099D01*
X19666Y-22201D01*
X19644Y-22179D01*
X19292Y-22179D01*
X19292Y-22336D01*
X19314Y-22358D01*
X19570Y-22358D01*
X19587Y-22358D01*
X19604Y-22355D01*
X19620Y-22348D01*
X19634Y-22338D01*
X19646Y-22326D01*
X19656Y-22312D01*
X19663Y-22296D01*
X19666Y-22279D01*
X19666Y-22618D01*
X19638Y-22646D01*
X19586Y-22722D01*
X19550Y-22807D01*
X19531Y-22897D01*
X19529Y-22989D01*
X19546Y-23080D01*
X19580Y-23166D01*
X19630Y-23243D01*
X19694Y-23310D01*
X19770Y-23362D01*
X19854Y-23399D01*
X19944Y-23419D01*
X20036Y-23421D01*
X20127Y-23405D01*
X20213Y-23372D01*
X20291Y-23322D01*
X20357Y-23259D01*
X20411Y-23183D01*
X20448Y-23099D01*
X20469Y-23009D01*
X20470Y-22904D01*
X20470Y-23581D01*
X19470Y-23581D01*
X19470Y-23004D01*
X19452Y-22914D01*
X19417Y-22828D01*
X19366Y-22752D01*
X19301Y-22686D01*
X19234Y-22641D01*
X19234Y-22336D01*
X19234Y-22179D01*
X19234Y-22121D01*
X19234Y-21964D01*
X19212Y-21942D01*
X18956Y-21942D01*
X18939Y-21942D01*
X18922Y-21945D01*
X18906Y-21952D01*
X18892Y-21962D01*
X18880Y-21974D01*
X18870Y-21988D01*
X18863Y-22004D01*
X18860Y-22021D01*
X18860Y-22099D01*
X18882Y-22121D01*
X19234Y-22121D01*
X19234Y-22179D01*
X18882Y-22179D01*
X18860Y-22201D01*
X18860Y-22279D01*
X18863Y-22296D01*
X18870Y-22312D01*
X18880Y-22326D01*
X18892Y-22338D01*
X18906Y-22348D01*
X18922Y-22355D01*
X18939Y-22358D01*
X18956Y-22358D01*
X19212Y-22358D01*
X19234Y-22336D01*
X19234Y-22641D01*
X19225Y-22635D01*
X19140Y-22599D01*
X19049Y-22580D01*
X18957Y-22580D01*
X18867Y-22597D01*
X18781Y-22631D01*
X18704Y-22682D01*
X18638Y-22746D01*
X18586Y-22822D01*
X18550Y-22907D01*
X18531Y-22997D01*
X18529Y-23089D01*
X18546Y-23180D01*
X18580Y-23266D01*
X18630Y-23343D01*
X18694Y-23410D01*
X18770Y-23462D01*
X18854Y-23499D01*
X18944Y-23519D01*
X19036Y-23521D01*
X19127Y-23505D01*
X19213Y-23472D01*
X19291Y-23422D01*
X19357Y-23359D01*
X19411Y-23283D01*
X19448Y-23199D01*
X19469Y-23109D01*
X19470Y-23004D01*
X19470Y-23581D01*
X18470Y-23581D01*
X18470Y-22946D01*
X18452Y-22856D01*
X18417Y-22770D01*
X18366Y-22694D01*
X18301Y-22628D01*
X18225Y-22577D01*
X18140Y-22541D01*
X18130Y-22538D01*
X18130Y-22261D01*
X18130Y-22260D01*
X18128Y-22235D01*
X18120Y-22211D01*
X18120Y-22210D01*
X18108Y-22189D01*
X18108Y-22188D01*
X18096Y-22173D01*
X18093Y-22169D01*
X18092Y-22168D01*
X18085Y-22162D01*
X17552Y-21628D01*
X17552Y-21520D01*
X17548Y-21501D01*
X17541Y-21483D01*
X17530Y-21466D01*
X17516Y-21452D01*
X17500Y-21442D01*
X17482Y-21434D01*
X17462Y-21430D01*
X17443Y-21430D01*
X16812Y-21430D01*
X16793Y-21434D01*
X16775Y-21441D01*
X16758Y-21452D01*
X16744Y-21466D01*
X16734Y-21482D01*
X16726Y-21500D01*
X16722Y-21520D01*
X16722Y-21539D01*
X16722Y-21780D01*
X16726Y-21799D01*
X16733Y-21817D01*
X16744Y-21834D01*
X16758Y-21848D01*
X16774Y-21858D01*
X16792Y-21866D01*
X16812Y-21870D01*
X16831Y-21870D01*
X17426Y-21870D01*
X17496Y-21940D01*
X17482Y-21934D01*
X17462Y-21930D01*
X17443Y-21930D01*
X16812Y-21930D01*
X16793Y-21934D01*
X16775Y-21941D01*
X16758Y-21952D01*
X16744Y-21966D01*
X16734Y-21982D01*
X16726Y-22000D01*
X16722Y-22020D01*
X16722Y-22039D01*
X16722Y-22046D01*
X16709Y-22057D01*
X16708Y-22058D01*
X16228Y-22537D01*
X16225Y-22535D01*
X16140Y-22499D01*
X16049Y-22480D01*
X15957Y-22480D01*
X15867Y-22497D01*
X15781Y-22531D01*
X15704Y-22582D01*
X15638Y-22646D01*
X15586Y-22722D01*
X15550Y-22807D01*
X15531Y-22897D01*
X15529Y-22989D01*
X15546Y-23080D01*
X15580Y-23166D01*
X15630Y-23243D01*
X15694Y-23310D01*
X15770Y-23362D01*
X15854Y-23399D01*
X15944Y-23419D01*
X16036Y-23421D01*
X16127Y-23405D01*
X16213Y-23372D01*
X16291Y-23322D01*
X16357Y-23259D01*
X16411Y-23183D01*
X16448Y-23099D01*
X16469Y-23009D01*
X16470Y-22904D01*
X16452Y-22814D01*
X16417Y-22728D01*
X16412Y-22721D01*
X16775Y-22358D01*
X16792Y-22366D01*
X16812Y-22370D01*
X16831Y-22370D01*
X17462Y-22370D01*
X17481Y-22366D01*
X17499Y-22359D01*
X17516Y-22348D01*
X17530Y-22334D01*
X17540Y-22318D01*
X17548Y-22300D01*
X17552Y-22280D01*
X17552Y-22261D01*
X17552Y-22020D01*
X17548Y-22001D01*
X17542Y-21985D01*
X17870Y-22313D01*
X17870Y-22538D01*
X17867Y-22539D01*
X17781Y-22573D01*
X17704Y-22624D01*
X17638Y-22688D01*
X17586Y-22764D01*
X17550Y-22849D01*
X17531Y-22939D01*
X17529Y-23031D01*
X17546Y-23122D01*
X17580Y-23208D01*
X17630Y-23285D01*
X17694Y-23352D01*
X17770Y-23404D01*
X17854Y-23441D01*
X17944Y-23461D01*
X18036Y-23463D01*
X18127Y-23447D01*
X18213Y-23414D01*
X18291Y-23364D01*
X18357Y-23301D01*
X18411Y-23225D01*
X18448Y-23141D01*
X18469Y-23051D01*
X18470Y-22946D01*
X18470Y-23581D01*
X17470Y-23581D01*
X17470Y-23004D01*
X17452Y-22914D01*
X17417Y-22828D01*
X17366Y-22752D01*
X17301Y-22686D01*
X17225Y-22635D01*
X17140Y-22599D01*
X17049Y-22580D01*
X16957Y-22580D01*
X16867Y-22597D01*
X16781Y-22631D01*
X16704Y-22682D01*
X16638Y-22746D01*
X16586Y-22822D01*
X16550Y-22907D01*
X16531Y-22997D01*
X16529Y-23089D01*
X16546Y-23180D01*
X16580Y-23266D01*
X16630Y-23343D01*
X16694Y-23410D01*
X16770Y-23462D01*
X16854Y-23499D01*
X16944Y-23519D01*
X17036Y-23521D01*
X17127Y-23505D01*
X17213Y-23472D01*
X17291Y-23422D01*
X17357Y-23359D01*
X17411Y-23283D01*
X17448Y-23199D01*
X17469Y-23109D01*
X17470Y-23004D01*
X17470Y-23581D01*
X15616Y-23581D01*
X15419Y-23384D01*
X15419Y-22375D01*
X15419Y-22374D01*
X15417Y-22352D01*
X15417Y-22351D01*
X15410Y-22329D01*
X15400Y-22309D01*
X15399Y-22308D01*
X15385Y-22291D01*
X15384Y-22290D01*
X15367Y-22275D01*
X15347Y-22265D01*
X15346Y-22264D01*
X15324Y-22257D01*
X15304Y-22255D01*
X15302Y-22255D01*
X15301Y-22255D01*
X15300Y-22255D01*
X14996Y-22255D01*
X14729Y-21988D01*
X14729Y-20915D01*
X14818Y-20915D01*
X14837Y-20911D01*
X14855Y-20904D01*
X14860Y-20900D01*
X14864Y-20903D01*
X14882Y-20911D01*
X14902Y-20915D01*
X14921Y-20915D01*
X15172Y-20915D01*
X15191Y-20911D01*
X15209Y-20904D01*
X15226Y-20893D01*
X15240Y-20879D01*
X15241Y-20876D01*
X15301Y-20935D01*
X15301Y-21508D01*
X15301Y-21510D01*
X15304Y-21541D01*
X15308Y-21557D01*
X15312Y-21569D01*
X15313Y-21571D01*
X15326Y-21597D01*
X15346Y-21621D01*
X15347Y-21622D01*
X15348Y-21622D01*
X15352Y-21626D01*
X15524Y-21798D01*
X15500Y-21857D01*
X15481Y-21947D01*
X15479Y-22039D01*
X15496Y-22130D01*
X15530Y-22216D01*
X15580Y-22293D01*
X15644Y-22360D01*
X15720Y-22412D01*
X15804Y-22449D01*
X15894Y-22469D01*
X15986Y-22471D01*
X16077Y-22455D01*
X16163Y-22422D01*
X16241Y-22372D01*
X16307Y-22309D01*
X16361Y-22233D01*
X16398Y-22149D01*
X16419Y-22059D01*
X16420Y-21954D01*
X16402Y-21864D01*
X16367Y-21778D01*
X16316Y-21702D01*
X16251Y-21636D01*
X16175Y-21585D01*
X16090Y-21549D01*
X15999Y-21530D01*
X15907Y-21530D01*
X15817Y-21547D01*
X15748Y-21574D01*
X15619Y-21444D01*
X15619Y-21188D01*
X15630Y-21216D01*
X15680Y-21293D01*
X15744Y-21360D01*
X15820Y-21412D01*
X15904Y-21449D01*
X15994Y-21469D01*
X16086Y-21471D01*
X16177Y-21455D01*
X16263Y-21422D01*
X16341Y-21372D01*
X16407Y-21309D01*
X16461Y-21233D01*
X16498Y-21149D01*
X16519Y-21059D01*
X16520Y-20954D01*
X16502Y-20864D01*
X16467Y-20778D01*
X16462Y-20770D01*
X16536Y-20696D01*
X16541Y-20693D01*
X16541Y-20692D01*
X16548Y-20683D01*
X16557Y-20673D01*
X16558Y-20673D01*
X16569Y-20651D01*
X16570Y-20650D01*
X16574Y-20634D01*
X16577Y-20627D01*
X16577Y-20626D01*
X16580Y-20602D01*
X16580Y-20600D01*
X16580Y-19954D01*
X16794Y-19740D01*
X17576Y-19740D01*
X17604Y-19769D01*
X17638Y-19792D01*
X17675Y-19809D01*
X17715Y-19817D01*
X17756Y-19818D01*
X17796Y-19811D01*
X17834Y-19797D01*
X17868Y-19775D01*
X17875Y-19768D01*
X17875Y-20085D01*
X17879Y-20104D01*
X17886Y-20122D01*
X17897Y-20139D01*
X17901Y-20143D01*
X17554Y-20491D01*
X17544Y-20491D01*
X17541Y-20483D01*
X17530Y-20466D01*
X17516Y-20452D01*
X17500Y-20442D01*
X17482Y-20434D01*
X17462Y-20430D01*
X17443Y-20430D01*
X16812Y-20430D01*
X16793Y-20434D01*
X16775Y-20441D01*
X16758Y-20452D01*
X16744Y-20466D01*
X16734Y-20482D01*
X16726Y-20500D01*
X16722Y-20520D01*
X16722Y-20539D01*
X16722Y-20780D01*
X16726Y-20799D01*
X16733Y-20817D01*
X16744Y-20834D01*
X16758Y-20848D01*
X16774Y-20858D01*
X16792Y-20866D01*
X16812Y-20870D01*
X16831Y-20870D01*
X16978Y-20870D01*
X16978Y-20930D01*
X16812Y-20930D01*
X16793Y-20934D01*
X16775Y-20941D01*
X16758Y-20952D01*
X16744Y-20966D01*
X16734Y-20982D01*
X16726Y-21000D01*
X16722Y-21020D01*
X16722Y-21039D01*
X16722Y-21280D01*
X16726Y-21299D01*
X16733Y-21317D01*
X16744Y-21334D01*
X16758Y-21348D01*
X16774Y-21358D01*
X16792Y-21366D01*
X16812Y-21370D01*
X16831Y-21370D01*
X17462Y-21370D01*
X17481Y-21366D01*
X17499Y-21359D01*
X17516Y-21348D01*
X17530Y-21334D01*
X17540Y-21318D01*
X17544Y-21309D01*
X17694Y-21309D01*
X18145Y-21760D01*
X18146Y-21761D01*
X18147Y-21762D01*
X18152Y-21766D01*
X18170Y-21781D01*
X18172Y-21782D01*
X18197Y-21796D01*
X18199Y-21797D01*
X18204Y-21798D01*
X18227Y-21806D01*
X18258Y-21809D01*
X18259Y-21809D01*
X18260Y-21809D01*
X18855Y-21809D01*
X18859Y-21817D01*
X18870Y-21834D01*
X18884Y-21848D01*
X18900Y-21858D01*
X18918Y-21866D01*
X18938Y-21870D01*
X18957Y-21870D01*
X19588Y-21870D01*
X19607Y-21866D01*
X19625Y-21859D01*
X19642Y-21848D01*
X19656Y-21834D01*
X19666Y-21818D01*
X19670Y-21809D01*
X19692Y-21809D01*
X19694Y-21812D01*
X19705Y-21829D01*
X19719Y-21843D01*
X19735Y-21853D01*
X19753Y-21861D01*
X19773Y-21865D01*
X19792Y-21865D01*
X20375Y-21865D01*
X20394Y-21861D01*
X20412Y-21854D01*
X20429Y-21843D01*
X20443Y-21829D01*
X20453Y-21813D01*
X20455Y-21807D01*
X20469Y-21806D01*
X20471Y-21806D01*
X20487Y-21801D01*
X20499Y-21798D01*
X20501Y-21797D01*
X20527Y-21784D01*
X20528Y-21782D01*
X20551Y-21764D01*
X20551Y-21763D01*
X20552Y-21763D01*
X20552Y-21762D01*
X20556Y-21757D01*
X20611Y-21703D01*
X20627Y-21713D01*
X20645Y-21721D01*
X20665Y-21725D01*
X20684Y-21725D01*
X21135Y-21725D01*
X21154Y-21721D01*
X21172Y-21714D01*
X21189Y-21703D01*
X21203Y-21689D01*
X21213Y-21673D01*
X21219Y-21659D01*
X21228Y-21659D01*
X21230Y-21659D01*
X21259Y-21656D01*
X21261Y-21656D01*
X21277Y-21651D01*
X21289Y-21648D01*
X21291Y-21647D01*
X21317Y-21634D01*
X21318Y-21632D01*
X21341Y-21614D01*
X21341Y-21613D01*
X21342Y-21613D01*
X21342Y-21612D01*
X21346Y-21607D01*
X21785Y-21169D01*
X22298Y-21169D01*
X22300Y-21169D01*
X22329Y-21166D01*
X22331Y-21166D01*
X22347Y-21161D01*
X22359Y-21158D01*
X22361Y-21157D01*
X22387Y-21144D01*
X22388Y-21142D01*
X22411Y-21124D01*
X22411Y-21123D01*
X22412Y-21123D01*
X22412Y-21122D01*
X22416Y-21117D01*
X22820Y-20714D01*
X22821Y-20714D01*
X22821Y-20713D01*
X22822Y-20713D01*
X22841Y-20690D01*
X22842Y-20689D01*
X22846Y-20681D01*
X22856Y-20663D01*
X22856Y-20661D01*
X22866Y-20633D01*
X22869Y-20602D01*
X22869Y-20601D01*
X22869Y-20600D01*
X22869Y-20065D01*
X22975Y-19959D01*
X23021Y-19959D01*
X23021Y-20297D01*
X23023Y-20322D01*
X23031Y-20346D01*
X23043Y-20368D01*
X23058Y-20388D01*
X23075Y-20401D01*
X23075Y-20443D01*
X23041Y-20449D01*
X23004Y-20465D01*
X22969Y-20487D01*
X22940Y-20515D01*
X22917Y-20549D01*
X22901Y-20586D01*
X22892Y-20626D01*
X22892Y-20667D01*
X22899Y-20707D01*
X22914Y-20745D01*
X22936Y-20779D01*
X22964Y-20809D01*
X22998Y-20832D01*
X23035Y-20849D01*
X23075Y-20857D01*
X23116Y-20858D01*
X23156Y-20851D01*
X23194Y-20837D01*
X23228Y-20815D01*
X23258Y-20787D01*
X23281Y-20754D01*
X23298Y-20716D01*
X23307Y-20677D01*
X23359Y-20625D01*
X23635Y-20625D01*
X23654Y-20621D01*
X23672Y-20614D01*
X23689Y-20603D01*
X23703Y-20589D01*
X23713Y-20573D01*
X23721Y-20555D01*
X23725Y-20535D01*
X23725Y-20516D01*
X23725Y-20265D01*
X23721Y-20246D01*
X23714Y-20228D01*
X23703Y-20211D01*
X23689Y-20197D01*
X23673Y-20187D01*
X23655Y-20179D01*
X23635Y-20175D01*
X23616Y-20175D01*
X23279Y-20175D01*
X23279Y-20025D01*
X23635Y-20025D01*
X23654Y-20021D01*
X23672Y-20014D01*
X23689Y-20003D01*
X23703Y-19989D01*
X23713Y-19973D01*
X23719Y-19959D01*
X23788Y-19959D01*
X23790Y-19959D01*
X23819Y-19956D01*
X23821Y-19956D01*
X23837Y-19951D01*
X23849Y-19948D01*
X23851Y-19947D01*
X23877Y-19934D01*
X23878Y-19932D01*
X23901Y-19914D01*
X23901Y-19913D01*
X23902Y-19913D01*
X23902Y-19912D01*
X23906Y-19907D01*
X24360Y-19454D01*
X24361Y-19454D01*
X24361Y-19453D01*
X24362Y-19453D01*
X24381Y-19430D01*
X24382Y-19429D01*
X24394Y-19406D01*
X24396Y-19403D01*
X24396Y-19402D01*
X24397Y-19401D01*
X24398Y-19396D01*
X24406Y-19373D01*
X24409Y-19342D01*
X24409Y-19341D01*
X24409Y-19340D01*
X24409Y-18105D01*
X24785Y-17729D01*
X27554Y-17729D01*
X27624Y-17798D01*
X27600Y-17857D01*
X27581Y-17947D01*
X27579Y-18039D01*
X27596Y-18130D01*
X27630Y-18216D01*
X27680Y-18293D01*
X27744Y-18360D01*
X27820Y-18412D01*
X27904Y-18449D01*
X27994Y-18469D01*
X28086Y-18471D01*
X28177Y-18455D01*
X28263Y-18422D01*
X28341Y-18372D01*
X28407Y-18309D01*
X28461Y-18233D01*
X28498Y-18149D01*
X28519Y-18059D01*
X28520Y-17954D01*
X28502Y-17864D01*
X28467Y-17778D01*
X28460Y-17767D01*
X28460Y-16942D01*
X28450Y-16852D01*
X28422Y-16767D01*
X28388Y-16703D01*
X28330Y-16662D01*
X28288Y-16703D01*
X28288Y-16620D01*
X28247Y-16562D01*
X28167Y-16521D01*
X28081Y-16497D01*
X27992Y-16490D01*
X27902Y-16500D01*
X27817Y-16528D01*
X27753Y-16562D01*
X27712Y-16620D01*
X28000Y-16909D01*
X28288Y-16620D01*
X28288Y-16703D01*
X28041Y-16950D01*
X28330Y-17238D01*
X28388Y-17197D01*
X28429Y-17117D01*
X28453Y-17031D01*
X28460Y-16942D01*
X28460Y-17767D01*
X28416Y-17702D01*
X28351Y-17636D01*
X28288Y-17593D01*
X28288Y-17280D01*
X28000Y-16991D01*
X27959Y-17032D01*
X27959Y-16950D01*
X27670Y-16662D01*
X27612Y-16703D01*
X27571Y-16783D01*
X27547Y-16869D01*
X27540Y-16958D01*
X27550Y-17048D01*
X27578Y-17133D01*
X27612Y-17197D01*
X27670Y-17238D01*
X27959Y-16950D01*
X27959Y-17032D01*
X27712Y-17280D01*
X27753Y-17338D01*
X27833Y-17379D01*
X27919Y-17403D01*
X28008Y-17410D01*
X28098Y-17400D01*
X28183Y-17372D01*
X28247Y-17338D01*
X28288Y-17280D01*
X28288Y-17593D01*
X28275Y-17585D01*
X28190Y-17549D01*
X28099Y-17530D01*
X28007Y-17530D01*
X27917Y-17547D01*
X27848Y-17574D01*
X27737Y-17463D01*
X27734Y-17459D01*
X27732Y-17458D01*
X27710Y-17439D01*
X27708Y-17438D01*
X27683Y-17424D01*
X27682Y-17423D01*
X27681Y-17423D01*
X27671Y-17420D01*
X27653Y-17414D01*
X27622Y-17411D01*
X27621Y-17411D01*
X27620Y-17411D01*
X27302Y-17411D01*
X27357Y-17359D01*
X27411Y-17283D01*
X27448Y-17199D01*
X27469Y-17109D01*
X27470Y-17004D01*
X27452Y-16914D01*
X27417Y-16828D01*
X27366Y-16752D01*
X27301Y-16686D01*
X27225Y-16635D01*
X27140Y-16599D01*
X27049Y-16580D01*
X26957Y-16580D01*
X26867Y-16597D01*
X26781Y-16631D01*
X26704Y-16682D01*
X26638Y-16746D01*
X26586Y-16822D01*
X26550Y-16907D01*
X26531Y-16997D01*
X26529Y-17089D01*
X26546Y-17180D01*
X26580Y-17266D01*
X26630Y-17343D01*
X26694Y-17410D01*
X26695Y-17411D01*
X26092Y-17411D01*
X26127Y-17405D01*
X26213Y-17372D01*
X26291Y-17322D01*
X26357Y-17259D01*
X26411Y-17183D01*
X26448Y-17099D01*
X26469Y-17009D01*
X26470Y-16904D01*
X26452Y-16814D01*
X26417Y-16728D01*
X26366Y-16652D01*
X26301Y-16586D01*
X26225Y-16535D01*
X26140Y-16499D01*
X26049Y-16480D01*
X25957Y-16480D01*
X25867Y-16497D01*
X25781Y-16531D01*
X25704Y-16582D01*
X25638Y-16646D01*
X25586Y-16722D01*
X25550Y-16807D01*
X25531Y-16897D01*
X25529Y-16989D01*
X25546Y-17080D01*
X25580Y-17166D01*
X25630Y-17243D01*
X25694Y-17310D01*
X25770Y-17362D01*
X25854Y-17399D01*
X25908Y-17411D01*
X25302Y-17411D01*
X25357Y-17359D01*
X25411Y-17283D01*
X25448Y-17199D01*
X25469Y-17109D01*
X25470Y-17004D01*
X25452Y-16914D01*
X25417Y-16828D01*
X25366Y-16752D01*
X25301Y-16686D01*
X25225Y-16635D01*
X25140Y-16599D01*
X25049Y-16580D01*
X24957Y-16580D01*
X24867Y-16597D01*
X24781Y-16631D01*
X24704Y-16682D01*
X24638Y-16746D01*
X24586Y-16822D01*
X24550Y-16907D01*
X24531Y-16997D01*
X24529Y-17089D01*
X24546Y-17180D01*
X24580Y-17266D01*
X24630Y-17343D01*
X24694Y-17410D01*
X24698Y-17413D01*
X24689Y-17414D01*
X24659Y-17423D01*
X24641Y-17433D01*
X24633Y-17437D01*
X24628Y-17441D01*
X24608Y-17457D01*
X24607Y-17457D01*
X24607Y-17458D01*
X24470Y-17595D01*
X24470Y-16904D01*
X24452Y-16814D01*
X24417Y-16728D01*
X24366Y-16652D01*
X24301Y-16586D01*
X24225Y-16535D01*
X24140Y-16499D01*
X24049Y-16480D01*
X23957Y-16480D01*
X23867Y-16497D01*
X23781Y-16531D01*
X23704Y-16582D01*
X23638Y-16646D01*
X23586Y-16722D01*
X23550Y-16807D01*
X23531Y-16897D01*
X23529Y-16989D01*
X23546Y-17080D01*
X23580Y-17166D01*
X23630Y-17243D01*
X23694Y-17310D01*
X23770Y-17362D01*
X23854Y-17399D01*
X23944Y-17419D01*
X24036Y-17421D01*
X24127Y-17405D01*
X24213Y-17372D01*
X24291Y-17322D01*
X24357Y-17259D01*
X24411Y-17183D01*
X24448Y-17099D01*
X24469Y-17009D01*
X24470Y-16904D01*
X24470Y-17595D01*
X24143Y-17922D01*
X24139Y-17926D01*
X24119Y-17950D01*
X24104Y-17977D01*
X24103Y-17977D01*
X24103Y-17979D01*
X24100Y-17989D01*
X24094Y-18007D01*
X24091Y-18038D01*
X24091Y-18039D01*
X24091Y-18040D01*
X24091Y-19274D01*
X23724Y-19641D01*
X23719Y-19641D01*
X23714Y-19628D01*
X23703Y-19611D01*
X23689Y-19597D01*
X23673Y-19587D01*
X23655Y-19579D01*
X23635Y-19575D01*
X23616Y-19575D01*
X23563Y-19575D01*
X23563Y-19059D01*
X23563Y-18926D01*
X23563Y-18824D01*
X23563Y-18691D01*
X23560Y-18674D01*
X23553Y-18658D01*
X23543Y-18644D01*
X23531Y-18632D01*
X23517Y-18622D01*
X23501Y-18615D01*
X23484Y-18612D01*
X23467Y-18612D01*
X23251Y-18612D01*
X23229Y-18634D01*
X23229Y-18846D01*
X23541Y-18846D01*
X23563Y-18824D01*
X23563Y-18926D01*
X23541Y-18904D01*
X23229Y-18904D01*
X23229Y-19116D01*
X23251Y-19138D01*
X23467Y-19138D01*
X23484Y-19138D01*
X23501Y-19135D01*
X23517Y-19128D01*
X23531Y-19118D01*
X23543Y-19106D01*
X23553Y-19092D01*
X23560Y-19076D01*
X23563Y-19059D01*
X23563Y-19575D01*
X23171Y-19575D01*
X23171Y-19116D01*
X23171Y-18904D01*
X23171Y-18846D01*
X23171Y-18634D01*
X23149Y-18612D01*
X22933Y-18612D01*
X22916Y-18612D01*
X22899Y-18615D01*
X22883Y-18622D01*
X22869Y-18632D01*
X22857Y-18644D01*
X22847Y-18658D01*
X22840Y-18674D01*
X22837Y-18691D01*
X22837Y-18824D01*
X22859Y-18846D01*
X23171Y-18846D01*
X23171Y-18904D01*
X22859Y-18904D01*
X22837Y-18926D01*
X22837Y-19059D01*
X22840Y-19076D01*
X22847Y-19092D01*
X22857Y-19106D01*
X22869Y-19118D01*
X22883Y-19128D01*
X22899Y-19135D01*
X22916Y-19138D01*
X22933Y-19138D01*
X23149Y-19138D01*
X23171Y-19116D01*
X23171Y-19575D01*
X23165Y-19575D01*
X23146Y-19579D01*
X23128Y-19586D01*
X23111Y-19597D01*
X23097Y-19611D01*
X23087Y-19627D01*
X23080Y-19641D01*
X22912Y-19641D01*
X22910Y-19641D01*
X22879Y-19644D01*
X22849Y-19653D01*
X22835Y-19660D01*
X22822Y-19667D01*
X22798Y-19687D01*
X22797Y-19688D01*
X22603Y-19882D01*
X22599Y-19886D01*
X22579Y-19910D01*
X22564Y-19937D01*
X22563Y-19937D01*
X22563Y-19939D01*
X22560Y-19949D01*
X22554Y-19967D01*
X22551Y-19998D01*
X22551Y-19999D01*
X22551Y-20000D01*
X22551Y-20534D01*
X22513Y-20572D01*
X22513Y-20334D01*
X22513Y-20251D01*
X22513Y-20149D01*
X22513Y-20066D01*
X22510Y-20049D01*
X22503Y-20033D01*
X22493Y-20019D01*
X22481Y-20007D01*
X22467Y-19997D01*
X22451Y-19990D01*
X22434Y-19987D01*
X22417Y-19987D01*
X22251Y-19987D01*
X22229Y-20009D01*
X22229Y-20171D01*
X22491Y-20171D01*
X22513Y-20149D01*
X22513Y-20251D01*
X22491Y-20229D01*
X22229Y-20229D01*
X22229Y-20391D01*
X22251Y-20413D01*
X22417Y-20413D01*
X22434Y-20413D01*
X22451Y-20410D01*
X22467Y-20403D01*
X22481Y-20393D01*
X22493Y-20381D01*
X22503Y-20367D01*
X22510Y-20351D01*
X22513Y-20334D01*
X22513Y-20572D01*
X22360Y-20725D01*
X22360Y-20510D01*
X22356Y-20491D01*
X22349Y-20473D01*
X22338Y-20456D01*
X22324Y-20442D01*
X22308Y-20432D01*
X22290Y-20424D01*
X22270Y-20420D01*
X22251Y-20420D01*
X22171Y-20420D01*
X22171Y-20391D01*
X22171Y-20229D01*
X22171Y-20171D01*
X22171Y-20009D01*
X22149Y-19987D01*
X21983Y-19987D01*
X21966Y-19987D01*
X21949Y-19990D01*
X21933Y-19997D01*
X21919Y-20007D01*
X21907Y-20019D01*
X21897Y-20033D01*
X21890Y-20049D01*
X21887Y-20066D01*
X21887Y-20149D01*
X21909Y-20171D01*
X22171Y-20171D01*
X22171Y-20229D01*
X21909Y-20229D01*
X21887Y-20251D01*
X21887Y-20334D01*
X21890Y-20351D01*
X21897Y-20367D01*
X21907Y-20381D01*
X21919Y-20393D01*
X21933Y-20403D01*
X21949Y-20410D01*
X21966Y-20413D01*
X21983Y-20413D01*
X22149Y-20413D01*
X22171Y-20391D01*
X22171Y-20420D01*
X21950Y-20420D01*
X21931Y-20424D01*
X21913Y-20431D01*
X21896Y-20442D01*
X21882Y-20456D01*
X21873Y-20470D01*
X21775Y-20470D01*
X21775Y-20440D01*
X21771Y-20421D01*
X21764Y-20403D01*
X21753Y-20386D01*
X21739Y-20372D01*
X21723Y-20362D01*
X21705Y-20354D01*
X21685Y-20350D01*
X21666Y-20350D01*
X21465Y-20350D01*
X21446Y-20354D01*
X21428Y-20361D01*
X21411Y-20372D01*
X21397Y-20386D01*
X21387Y-20402D01*
X21381Y-20415D01*
X21378Y-20408D01*
X21368Y-20394D01*
X21356Y-20382D01*
X21342Y-20372D01*
X21326Y-20365D01*
X21309Y-20362D01*
X21251Y-20362D01*
X21229Y-20384D01*
X21229Y-20541D01*
X21229Y-20571D01*
X21229Y-20629D01*
X21229Y-20659D01*
X21229Y-20816D01*
X21251Y-20838D01*
X21309Y-20838D01*
X21326Y-20835D01*
X21342Y-20828D01*
X21356Y-20818D01*
X21368Y-20806D01*
X21378Y-20792D01*
X21381Y-20784D01*
X21386Y-20797D01*
X21397Y-20814D01*
X21411Y-20828D01*
X21427Y-20838D01*
X21445Y-20846D01*
X21465Y-20850D01*
X21484Y-20850D01*
X21685Y-20850D01*
X21704Y-20846D01*
X21722Y-20839D01*
X21739Y-20828D01*
X21753Y-20814D01*
X21763Y-20798D01*
X21771Y-20780D01*
X21775Y-20760D01*
X21775Y-20741D01*
X21775Y-20730D01*
X21860Y-20730D01*
X21860Y-20830D01*
X21864Y-20849D01*
X21864Y-20851D01*
X21720Y-20851D01*
X21689Y-20854D01*
X21659Y-20863D01*
X21645Y-20870D01*
X21632Y-20877D01*
X21608Y-20897D01*
X21607Y-20898D01*
X21198Y-21306D01*
X21189Y-21297D01*
X21173Y-21287D01*
X21155Y-21279D01*
X21135Y-21275D01*
X21116Y-21275D01*
X20665Y-21275D01*
X20646Y-21279D01*
X20628Y-21286D01*
X20611Y-21297D01*
X20597Y-21311D01*
X20587Y-21327D01*
X20580Y-21341D01*
X20559Y-21344D01*
X20543Y-21348D01*
X20531Y-21352D01*
X20529Y-21353D01*
X20503Y-21366D01*
X20479Y-21386D01*
X20478Y-21387D01*
X20477Y-21388D01*
X20416Y-21449D01*
X20413Y-21447D01*
X20395Y-21439D01*
X20375Y-21435D01*
X20356Y-21435D01*
X19773Y-21435D01*
X19754Y-21439D01*
X19736Y-21446D01*
X19719Y-21457D01*
X19705Y-21471D01*
X19695Y-21487D01*
X19693Y-21491D01*
X19670Y-21491D01*
X19667Y-21483D01*
X19656Y-21466D01*
X19642Y-21452D01*
X19626Y-21442D01*
X19608Y-21434D01*
X19588Y-21430D01*
X19569Y-21430D01*
X18938Y-21430D01*
X18919Y-21434D01*
X18901Y-21441D01*
X18884Y-21452D01*
X18870Y-21466D01*
X18860Y-21482D01*
X18856Y-21491D01*
X18325Y-21491D01*
X17877Y-21043D01*
X17874Y-21039D01*
X17872Y-21038D01*
X17850Y-21019D01*
X17848Y-21018D01*
X17826Y-21006D01*
X17856Y-21001D01*
X17894Y-20987D01*
X17928Y-20965D01*
X17958Y-20937D01*
X17981Y-20904D01*
X17998Y-20866D01*
X18007Y-20827D01*
X18007Y-20816D01*
X18365Y-20459D01*
X18877Y-20459D01*
X18870Y-20466D01*
X18860Y-20482D01*
X18852Y-20500D01*
X18848Y-20520D01*
X18848Y-20539D01*
X18848Y-20780D01*
X18852Y-20799D01*
X18859Y-20817D01*
X18870Y-20834D01*
X18884Y-20848D01*
X18900Y-20858D01*
X18918Y-20866D01*
X18938Y-20870D01*
X18957Y-20870D01*
X19530Y-20870D01*
X19544Y-20905D01*
X19560Y-20930D01*
X18938Y-20930D01*
X18919Y-20934D01*
X18901Y-20941D01*
X18885Y-20951D01*
X18747Y-20813D01*
X18748Y-20770D01*
X18740Y-20730D01*
X18725Y-20692D01*
X18702Y-20658D01*
X18673Y-20629D01*
X18640Y-20606D01*
X18602Y-20591D01*
X18562Y-20582D01*
X18521Y-20582D01*
X18481Y-20589D01*
X18444Y-20605D01*
X18409Y-20627D01*
X18380Y-20655D01*
X18357Y-20689D01*
X18341Y-20726D01*
X18332Y-20766D01*
X18332Y-20807D01*
X18339Y-20847D01*
X18354Y-20885D01*
X18376Y-20919D01*
X18404Y-20949D01*
X18438Y-20972D01*
X18475Y-20989D01*
X18515Y-20997D01*
X18556Y-20998D01*
X18562Y-20996D01*
X18807Y-21241D01*
X18808Y-21242D01*
X18827Y-21258D01*
X18848Y-21268D01*
X18848Y-21280D01*
X18852Y-21299D01*
X18859Y-21317D01*
X18870Y-21334D01*
X18884Y-21348D01*
X18900Y-21358D01*
X18918Y-21366D01*
X18938Y-21370D01*
X18957Y-21370D01*
X19588Y-21370D01*
X19607Y-21366D01*
X19625Y-21359D01*
X19642Y-21348D01*
X19656Y-21334D01*
X19666Y-21318D01*
X19674Y-21300D01*
X19678Y-21280D01*
X19684Y-21280D01*
X19687Y-21294D01*
X19694Y-21312D01*
X19705Y-21329D01*
X19719Y-21343D01*
X19735Y-21353D01*
X19753Y-21361D01*
X19773Y-21365D01*
X19792Y-21365D01*
X20375Y-21365D01*
X20394Y-21361D01*
X20412Y-21354D01*
X20429Y-21343D01*
X20443Y-21329D01*
X20453Y-21313D01*
X20461Y-21295D01*
X20465Y-21275D01*
X20465Y-21256D01*
X20465Y-21025D01*
X20461Y-21006D01*
X20454Y-20988D01*
X20443Y-20971D01*
X20429Y-20957D01*
X20413Y-20947D01*
X20395Y-20939D01*
X20375Y-20935D01*
X20356Y-20935D01*
X19896Y-20935D01*
X19911Y-20914D01*
X19928Y-20876D01*
X19930Y-20865D01*
X20375Y-20865D01*
X20394Y-20861D01*
X20412Y-20854D01*
X20429Y-20843D01*
X20443Y-20829D01*
X20453Y-20813D01*
X20461Y-20795D01*
X20465Y-20775D01*
X20465Y-20756D01*
X20465Y-20525D01*
X20461Y-20506D01*
X20454Y-20488D01*
X20443Y-20471D01*
X20429Y-20457D01*
X20413Y-20447D01*
X20395Y-20439D01*
X20375Y-20435D01*
X20356Y-20435D01*
X19865Y-20435D01*
X19867Y-20434D01*
X19868Y-20432D01*
X19891Y-20414D01*
X19891Y-20413D01*
X19892Y-20413D01*
X19892Y-20412D01*
X19896Y-20407D01*
X20070Y-20234D01*
X20071Y-20234D01*
X20071Y-20233D01*
X20072Y-20233D01*
X20091Y-20210D01*
X20092Y-20209D01*
X20104Y-20186D01*
X20106Y-20183D01*
X20106Y-20182D01*
X20107Y-20181D01*
X20108Y-20175D01*
X20116Y-20153D01*
X20119Y-20122D01*
X20119Y-20121D01*
X20119Y-20120D01*
X20119Y-19759D01*
X20625Y-19759D01*
X20625Y-19760D01*
X20629Y-19779D01*
X20636Y-19797D01*
X20647Y-19814D01*
X20661Y-19828D01*
X20677Y-19838D01*
X20695Y-19846D01*
X20715Y-19850D01*
X20734Y-19850D01*
X20795Y-19850D01*
X20718Y-19927D01*
X20714Y-19931D01*
X20694Y-19955D01*
X20679Y-19982D01*
X20678Y-19982D01*
X20678Y-19984D01*
X20675Y-19994D01*
X20669Y-20012D01*
X20666Y-20043D01*
X20666Y-20044D01*
X20666Y-20045D01*
X20666Y-20368D01*
X20661Y-20372D01*
X20647Y-20386D01*
X20637Y-20402D01*
X20629Y-20420D01*
X20625Y-20440D01*
X20625Y-20459D01*
X20625Y-20760D01*
X20629Y-20779D01*
X20636Y-20797D01*
X20647Y-20814D01*
X20661Y-20828D01*
X20677Y-20838D01*
X20695Y-20846D01*
X20715Y-20850D01*
X20734Y-20850D01*
X20935Y-20850D01*
X20954Y-20846D01*
X20972Y-20839D01*
X20989Y-20828D01*
X21003Y-20814D01*
X21013Y-20798D01*
X21018Y-20784D01*
X21022Y-20792D01*
X21032Y-20806D01*
X21044Y-20818D01*
X21058Y-20828D01*
X21074Y-20835D01*
X21091Y-20838D01*
X21149Y-20838D01*
X21171Y-20816D01*
X21171Y-20659D01*
X21171Y-20629D01*
X21171Y-20571D01*
X21171Y-20541D01*
X21171Y-20384D01*
X21149Y-20362D01*
X21091Y-20362D01*
X21074Y-20365D01*
X21058Y-20372D01*
X21044Y-20382D01*
X21032Y-20394D01*
X21022Y-20408D01*
X21018Y-20415D01*
X21014Y-20403D01*
X21003Y-20386D01*
X20989Y-20372D01*
X20984Y-20368D01*
X20984Y-20110D01*
X21250Y-19844D01*
X21251Y-19844D01*
X21251Y-19843D01*
X21252Y-19843D01*
X21271Y-19820D01*
X21272Y-19819D01*
X21284Y-19796D01*
X21286Y-19793D01*
X21286Y-19792D01*
X21287Y-19791D01*
X21288Y-19786D01*
X21296Y-19763D01*
X21299Y-19732D01*
X21299Y-19731D01*
X21299Y-19730D01*
X21299Y-19595D01*
X21375Y-19519D01*
X21375Y-19760D01*
X21379Y-19779D01*
X21386Y-19797D01*
X21397Y-19814D01*
X21411Y-19828D01*
X21427Y-19838D01*
X21445Y-19846D01*
X21465Y-19850D01*
X21484Y-19850D01*
X21685Y-19850D01*
X21704Y-19846D01*
X21722Y-19839D01*
X21739Y-19828D01*
X21753Y-19814D01*
X21763Y-19798D01*
X21771Y-19780D01*
X21775Y-19760D01*
X21775Y-19741D01*
X21775Y-19730D01*
X21875Y-19730D01*
X21875Y-19735D01*
X21879Y-19754D01*
X21886Y-19772D01*
X21897Y-19789D01*
X21911Y-19803D01*
X21927Y-19813D01*
X21945Y-19821D01*
X21965Y-19825D01*
X21984Y-19825D01*
X22435Y-19825D01*
X22454Y-19821D01*
X22472Y-19814D01*
X22489Y-19803D01*
X22503Y-19789D01*
X22513Y-19773D01*
X22521Y-19755D01*
X22525Y-19735D01*
X22525Y-19716D01*
X22525Y-19465D01*
X22521Y-19446D01*
X22514Y-19428D01*
X22503Y-19411D01*
X22489Y-19397D01*
X22473Y-19387D01*
X22455Y-19379D01*
X22435Y-19375D01*
X22416Y-19375D01*
X21965Y-19375D01*
X21946Y-19379D01*
X21928Y-19386D01*
X21911Y-19397D01*
X21897Y-19411D01*
X21887Y-19427D01*
X21879Y-19445D01*
X21875Y-19465D01*
X21875Y-19470D01*
X21775Y-19470D01*
X21775Y-19440D01*
X21771Y-19421D01*
X21764Y-19403D01*
X21753Y-19386D01*
X21739Y-19372D01*
X21723Y-19362D01*
X21705Y-19354D01*
X21685Y-19350D01*
X21666Y-19350D01*
X21544Y-19350D01*
X22025Y-18869D01*
X22338Y-18869D01*
X22340Y-18869D01*
X22369Y-18866D01*
X22371Y-18866D01*
X22387Y-18861D01*
X22399Y-18858D01*
X22401Y-18857D01*
X22427Y-18844D01*
X22428Y-18842D01*
X22451Y-18824D01*
X22451Y-18823D01*
X22452Y-18823D01*
X22452Y-18822D01*
X22456Y-18817D01*
X22564Y-18710D01*
X22565Y-18710D01*
X22565Y-18709D01*
X22566Y-18709D01*
X22585Y-18686D01*
X22586Y-18685D01*
X22598Y-18662D01*
X22600Y-18659D01*
X22600Y-18658D01*
X22601Y-18657D01*
X22602Y-18652D01*
X22610Y-18629D01*
X22613Y-18598D01*
X22613Y-18597D01*
X22613Y-18596D01*
X22613Y-18525D01*
X22661Y-18525D01*
X22680Y-18521D01*
X22698Y-18514D01*
X22715Y-18503D01*
X22729Y-18489D01*
X22739Y-18473D01*
X22747Y-18455D01*
X22751Y-18435D01*
X22751Y-18416D01*
X22751Y-18359D01*
X22843Y-18359D01*
X22847Y-18364D01*
X22861Y-18378D01*
X22877Y-18388D01*
X22895Y-18396D01*
X22915Y-18400D01*
X22934Y-18400D01*
X23485Y-18400D01*
X23504Y-18396D01*
X23522Y-18389D01*
X23539Y-18378D01*
X23553Y-18364D01*
X23563Y-18348D01*
X23571Y-18330D01*
X23575Y-18310D01*
X23575Y-18291D01*
X23575Y-17940D01*
X23571Y-17921D01*
X23564Y-17903D01*
X23553Y-17886D01*
X23539Y-17872D01*
X23523Y-17862D01*
X23505Y-17854D01*
X23485Y-17850D01*
X23470Y-17850D01*
X23470Y-17004D01*
X23452Y-16914D01*
X23417Y-16828D01*
X23366Y-16752D01*
X23301Y-16686D01*
X23225Y-16635D01*
X23140Y-16599D01*
X23049Y-16580D01*
X22957Y-16580D01*
X22867Y-16597D01*
X22781Y-16631D01*
X22704Y-16682D01*
X22638Y-16746D01*
X22586Y-16822D01*
X22550Y-16907D01*
X22531Y-16997D01*
X22529Y-17089D01*
X22546Y-17180D01*
X22580Y-17266D01*
X22630Y-17343D01*
X22694Y-17410D01*
X22770Y-17462D01*
X22854Y-17499D01*
X22944Y-17519D01*
X23036Y-17521D01*
X23127Y-17505D01*
X23213Y-17472D01*
X23291Y-17422D01*
X23357Y-17359D01*
X23411Y-17283D01*
X23448Y-17199D01*
X23469Y-17109D01*
X23470Y-17004D01*
X23470Y-17850D01*
X23466Y-17850D01*
X22915Y-17850D01*
X22896Y-17854D01*
X22878Y-17861D01*
X22861Y-17872D01*
X22847Y-17886D01*
X22837Y-17902D01*
X22829Y-17920D01*
X22825Y-17940D01*
X22825Y-17959D01*
X22825Y-18041D01*
X22751Y-18041D01*
X22751Y-17965D01*
X22747Y-17946D01*
X22740Y-17928D01*
X22729Y-17911D01*
X22715Y-17897D01*
X22699Y-17887D01*
X22681Y-17879D01*
X22661Y-17875D01*
X22642Y-17875D01*
X22604Y-17875D01*
X22601Y-17865D01*
X22601Y-17863D01*
X22591Y-17845D01*
X22587Y-17837D01*
X22586Y-17836D01*
X22582Y-17832D01*
X22567Y-17813D01*
X22567Y-17812D01*
X22566Y-17811D01*
X22497Y-17743D01*
X22494Y-17739D01*
X22492Y-17738D01*
X22470Y-17719D01*
X22470Y-16904D01*
X22452Y-16814D01*
X22417Y-16728D01*
X22366Y-16652D01*
X22301Y-16586D01*
X22225Y-16535D01*
X22140Y-16499D01*
X22049Y-16480D01*
X21957Y-16480D01*
X21867Y-16497D01*
X21781Y-16531D01*
X21704Y-16582D01*
X21638Y-16646D01*
X21586Y-16722D01*
X21550Y-16807D01*
X21531Y-16897D01*
X21529Y-16989D01*
X21546Y-17080D01*
X21580Y-17166D01*
X21630Y-17243D01*
X21694Y-17310D01*
X21770Y-17362D01*
X21854Y-17399D01*
X21944Y-17419D01*
X22036Y-17421D01*
X22127Y-17405D01*
X22213Y-17372D01*
X22291Y-17322D01*
X22357Y-17259D01*
X22411Y-17183D01*
X22448Y-17099D01*
X22469Y-17009D01*
X22470Y-16904D01*
X22470Y-17719D01*
X22468Y-17718D01*
X22443Y-17704D01*
X22442Y-17703D01*
X22441Y-17703D01*
X22431Y-17700D01*
X22413Y-17694D01*
X22382Y-17691D01*
X22381Y-17691D01*
X22380Y-17691D01*
X21470Y-17691D01*
X21470Y-17004D01*
X21452Y-16914D01*
X21417Y-16828D01*
X21366Y-16752D01*
X21301Y-16686D01*
X21225Y-16635D01*
X21140Y-16599D01*
X21049Y-16580D01*
X20957Y-16580D01*
X20867Y-16597D01*
X20781Y-16631D01*
X20704Y-16682D01*
X20638Y-16746D01*
X20586Y-16822D01*
X20550Y-16907D01*
X20531Y-16997D01*
X20529Y-17089D01*
X20546Y-17180D01*
X20580Y-17266D01*
X20630Y-17343D01*
X20694Y-17410D01*
X20770Y-17462D01*
X20854Y-17499D01*
X20944Y-17519D01*
X21036Y-17521D01*
X21127Y-17505D01*
X21213Y-17472D01*
X21291Y-17422D01*
X21357Y-17359D01*
X21411Y-17283D01*
X21448Y-17199D01*
X21469Y-17109D01*
X21470Y-17004D01*
X21470Y-17691D01*
X20825Y-17691D01*
X20617Y-17483D01*
X20614Y-17479D01*
X20612Y-17478D01*
X20590Y-17459D01*
X20588Y-17458D01*
X20563Y-17444D01*
X20562Y-17443D01*
X20561Y-17443D01*
X20551Y-17440D01*
X20533Y-17434D01*
X20502Y-17431D01*
X20501Y-17431D01*
X20500Y-17431D01*
X20470Y-17431D01*
X20470Y-16904D01*
X20452Y-16814D01*
X20417Y-16728D01*
X20366Y-16652D01*
X20301Y-16586D01*
X20225Y-16535D01*
X20140Y-16499D01*
X20049Y-16480D01*
X19957Y-16480D01*
X19867Y-16497D01*
X19781Y-16531D01*
X19704Y-16582D01*
X19638Y-16646D01*
X19586Y-16722D01*
X19550Y-16807D01*
X19531Y-16897D01*
X19529Y-16989D01*
X19546Y-17080D01*
X19580Y-17166D01*
X19630Y-17243D01*
X19694Y-17310D01*
X19770Y-17362D01*
X19854Y-17399D01*
X19944Y-17419D01*
X20036Y-17421D01*
X20127Y-17405D01*
X20213Y-17372D01*
X20291Y-17322D01*
X20357Y-17259D01*
X20411Y-17183D01*
X20448Y-17099D01*
X20469Y-17009D01*
X20470Y-16904D01*
X20470Y-17431D01*
X19276Y-17431D01*
X19291Y-17422D01*
X19357Y-17359D01*
X19411Y-17283D01*
X19448Y-17199D01*
X19469Y-17109D01*
X19470Y-17004D01*
X19452Y-16914D01*
X19417Y-16828D01*
X19366Y-16752D01*
X19301Y-16686D01*
X19225Y-16635D01*
X19140Y-16599D01*
X19049Y-16580D01*
X18957Y-16580D01*
X18867Y-16597D01*
X18781Y-16631D01*
X18704Y-16682D01*
X18638Y-16746D01*
X18586Y-16822D01*
X18550Y-16907D01*
X18531Y-16997D01*
X18529Y-17089D01*
X18546Y-17180D01*
X18580Y-17266D01*
X18630Y-17343D01*
X18694Y-17410D01*
X18724Y-17431D01*
X18470Y-17431D01*
X18470Y-16904D01*
X18452Y-16814D01*
X18417Y-16728D01*
X18366Y-16652D01*
X18301Y-16586D01*
X18225Y-16535D01*
X18140Y-16499D01*
X18049Y-16480D01*
X17957Y-16480D01*
X17867Y-16497D01*
X17781Y-16531D01*
X17704Y-16582D01*
X17638Y-16646D01*
X17586Y-16722D01*
X17550Y-16807D01*
X17531Y-16897D01*
X17529Y-16989D01*
X17546Y-17080D01*
X17580Y-17166D01*
X17630Y-17243D01*
X17694Y-17310D01*
X17770Y-17362D01*
X17854Y-17399D01*
X17944Y-17419D01*
X18036Y-17421D01*
X18127Y-17405D01*
X18213Y-17372D01*
X18291Y-17322D01*
X18357Y-17259D01*
X18411Y-17183D01*
X18448Y-17099D01*
X18469Y-17009D01*
X18470Y-16904D01*
X18470Y-17431D01*
X17276Y-17431D01*
X17291Y-17422D01*
X17357Y-17359D01*
X17411Y-17283D01*
X17448Y-17199D01*
X17469Y-17109D01*
X17470Y-17004D01*
X17452Y-16914D01*
X17417Y-16828D01*
X17366Y-16752D01*
X17301Y-16686D01*
X17225Y-16635D01*
X17140Y-16599D01*
X17049Y-16580D01*
X16957Y-16580D01*
X16867Y-16597D01*
X16781Y-16631D01*
X16704Y-16682D01*
X16638Y-16746D01*
X16586Y-16822D01*
X16550Y-16907D01*
X16531Y-16997D01*
X16529Y-17089D01*
X16546Y-17180D01*
X16580Y-17266D01*
X16630Y-17343D01*
X16694Y-17410D01*
X16724Y-17431D01*
X16470Y-17431D01*
X16470Y-16904D01*
X16452Y-16814D01*
X16417Y-16728D01*
X16366Y-16652D01*
X16301Y-16586D01*
X16225Y-16535D01*
X16140Y-16499D01*
X16049Y-16480D01*
X15957Y-16480D01*
X15867Y-16497D01*
X15781Y-16531D01*
X15704Y-16582D01*
X15638Y-16646D01*
X15586Y-16722D01*
X15550Y-16807D01*
X15531Y-16897D01*
X15529Y-16989D01*
X15546Y-17080D01*
X15580Y-17166D01*
X15630Y-17243D01*
X15694Y-17310D01*
X15770Y-17362D01*
X15854Y-17399D01*
X15944Y-17419D01*
X16036Y-17421D01*
X16127Y-17405D01*
X16213Y-17372D01*
X16291Y-17322D01*
X16357Y-17259D01*
X16411Y-17183D01*
X16448Y-17099D01*
X16469Y-17009D01*
X16470Y-16904D01*
X16470Y-17431D01*
X16362Y-17431D01*
X16360Y-17431D01*
X16329Y-17434D01*
X16299Y-17443D01*
X16285Y-17450D01*
X16272Y-17457D01*
X16248Y-17477D01*
X16247Y-17478D01*
X16150Y-17574D01*
X16090Y-17549D01*
X15999Y-17530D01*
X15907Y-17530D01*
X15817Y-17547D01*
X15731Y-17581D01*
X15654Y-17632D01*
X15588Y-17696D01*
X15536Y-17772D01*
X15500Y-17857D01*
X15481Y-17947D01*
X15479Y-18039D01*
X15496Y-18130D01*
X15530Y-18216D01*
X15580Y-18293D01*
X15644Y-18360D01*
X15720Y-18412D01*
X15804Y-18449D01*
X15894Y-18469D01*
X15986Y-18471D01*
X16077Y-18455D01*
X16163Y-18422D01*
X16241Y-18372D01*
X16307Y-18309D01*
X16361Y-18233D01*
X16398Y-18149D01*
X16419Y-18059D01*
X16420Y-17954D01*
X16402Y-17864D01*
X16375Y-17799D01*
X16425Y-17749D01*
X17447Y-17749D01*
X17434Y-17755D01*
X17422Y-17761D01*
X17405Y-17754D01*
X17385Y-17750D01*
X17366Y-17750D01*
X16815Y-17750D01*
X16796Y-17754D01*
X16778Y-17761D01*
X16761Y-17772D01*
X16747Y-17786D01*
X16737Y-17802D01*
X16729Y-17820D01*
X16725Y-17840D01*
X16725Y-17859D01*
X16725Y-18210D01*
X16729Y-18229D01*
X16736Y-18247D01*
X16747Y-18264D01*
X16761Y-18278D01*
X16777Y-18288D01*
X16795Y-18296D01*
X16815Y-18300D01*
X16834Y-18300D01*
X17385Y-18300D01*
X17404Y-18296D01*
X17422Y-18289D01*
X17439Y-18278D01*
X17453Y-18264D01*
X17463Y-18248D01*
X17471Y-18230D01*
X17475Y-18210D01*
X17475Y-18191D01*
X17475Y-18141D01*
X17505Y-18147D01*
X17512Y-18147D01*
X17564Y-18198D01*
X17564Y-18480D01*
X17551Y-18486D01*
X17534Y-18497D01*
X17520Y-18511D01*
X17510Y-18527D01*
X17502Y-18545D01*
X17498Y-18565D01*
X17498Y-18584D01*
X17498Y-18835D01*
X17502Y-18854D01*
X17509Y-18872D01*
X17520Y-18889D01*
X17534Y-18903D01*
X17550Y-18913D01*
X17565Y-18919D01*
X17565Y-18920D01*
X17567Y-18934D01*
X17571Y-18950D01*
X17575Y-18962D01*
X17576Y-18964D01*
X17589Y-18990D01*
X17609Y-19014D01*
X17610Y-19015D01*
X17611Y-19015D01*
X17615Y-19019D01*
X17705Y-19110D01*
X17706Y-19111D01*
X17707Y-19112D01*
X17730Y-19131D01*
X17731Y-19132D01*
X17753Y-19144D01*
X17757Y-19146D01*
X17759Y-19147D01*
X17764Y-19148D01*
X17787Y-19156D01*
X17818Y-19159D01*
X17819Y-19159D01*
X17820Y-19159D01*
X17991Y-19159D01*
X17991Y-19425D01*
X17965Y-19425D01*
X17946Y-19429D01*
X17928Y-19436D01*
X17911Y-19447D01*
X17897Y-19461D01*
X17892Y-19468D01*
X17873Y-19449D01*
X17840Y-19426D01*
X17802Y-19411D01*
X17762Y-19402D01*
X17721Y-19402D01*
X17681Y-19409D01*
X17644Y-19425D01*
X17609Y-19447D01*
X17580Y-19475D01*
X17576Y-19480D01*
X17463Y-19480D01*
X17463Y-18959D01*
X17463Y-18826D01*
X17463Y-18724D01*
X17463Y-18591D01*
X17460Y-18574D01*
X17453Y-18558D01*
X17443Y-18544D01*
X17431Y-18532D01*
X17417Y-18522D01*
X17401Y-18515D01*
X17384Y-18512D01*
X17367Y-18512D01*
X17151Y-18512D01*
X17129Y-18534D01*
X17129Y-18746D01*
X17441Y-18746D01*
X17463Y-18724D01*
X17463Y-18826D01*
X17441Y-18804D01*
X17129Y-18804D01*
X17129Y-19016D01*
X17151Y-19038D01*
X17367Y-19038D01*
X17384Y-19038D01*
X17401Y-19035D01*
X17417Y-19028D01*
X17431Y-19018D01*
X17443Y-19006D01*
X17453Y-18992D01*
X17460Y-18976D01*
X17463Y-18959D01*
X17463Y-19480D01*
X17406Y-19480D01*
X17408Y-19476D01*
X17417Y-19437D01*
X17418Y-19390D01*
X17410Y-19350D01*
X17395Y-19312D01*
X17372Y-19278D01*
X17343Y-19249D01*
X17310Y-19226D01*
X17272Y-19211D01*
X17232Y-19202D01*
X17191Y-19202D01*
X17151Y-19209D01*
X17114Y-19225D01*
X17079Y-19247D01*
X17071Y-19254D01*
X17071Y-19016D01*
X17071Y-18804D01*
X17071Y-18746D01*
X17071Y-18534D01*
X17049Y-18512D01*
X16833Y-18512D01*
X16816Y-18512D01*
X16799Y-18515D01*
X16783Y-18522D01*
X16769Y-18532D01*
X16757Y-18544D01*
X16747Y-18558D01*
X16740Y-18574D01*
X16737Y-18591D01*
X16737Y-18724D01*
X16759Y-18746D01*
X17071Y-18746D01*
X17071Y-18804D01*
X16759Y-18804D01*
X16737Y-18826D01*
X16737Y-18959D01*
X16740Y-18976D01*
X16747Y-18992D01*
X16757Y-19006D01*
X16769Y-19018D01*
X16783Y-19028D01*
X16799Y-19035D01*
X16816Y-19038D01*
X16833Y-19038D01*
X17049Y-19038D01*
X17071Y-19016D01*
X17071Y-19254D01*
X17050Y-19275D01*
X17027Y-19309D01*
X17011Y-19346D01*
X17010Y-19350D01*
X16510Y-19350D01*
X16510Y-18992D01*
X16500Y-18902D01*
X16472Y-18817D01*
X16438Y-18753D01*
X16380Y-18712D01*
X16338Y-18753D01*
X16338Y-18670D01*
X16297Y-18612D01*
X16217Y-18571D01*
X16131Y-18547D01*
X16042Y-18540D01*
X15952Y-18550D01*
X15867Y-18578D01*
X15803Y-18612D01*
X15762Y-18670D01*
X16050Y-18959D01*
X16338Y-18670D01*
X16338Y-18753D01*
X16091Y-19000D01*
X16380Y-19288D01*
X16438Y-19247D01*
X16479Y-19167D01*
X16503Y-19081D01*
X16510Y-18992D01*
X16510Y-19350D01*
X16471Y-19350D01*
X16470Y-19350D01*
X16445Y-19352D01*
X16420Y-19360D01*
X16405Y-19367D01*
X16399Y-19371D01*
X16379Y-19387D01*
X16378Y-19388D01*
X16338Y-19427D01*
X16338Y-19330D01*
X16050Y-19041D01*
X16009Y-19082D01*
X16009Y-19000D01*
X15720Y-18712D01*
X15662Y-18753D01*
X15621Y-18833D01*
X15597Y-18919D01*
X15590Y-19008D01*
X15600Y-19098D01*
X15628Y-19183D01*
X15662Y-19247D01*
X15720Y-19288D01*
X16009Y-19000D01*
X16009Y-19082D01*
X15762Y-19330D01*
X15803Y-19388D01*
X15883Y-19429D01*
X15969Y-19453D01*
X16058Y-19460D01*
X16148Y-19450D01*
X16233Y-19422D01*
X16297Y-19388D01*
X16338Y-19330D01*
X16338Y-19427D01*
X16178Y-19587D01*
X16175Y-19585D01*
X16090Y-19549D01*
X15999Y-19530D01*
X15907Y-19530D01*
X15817Y-19547D01*
X15731Y-19581D01*
X15654Y-19632D01*
X15588Y-19696D01*
X15544Y-19760D01*
X15262Y-19760D01*
X15262Y-19755D01*
X15258Y-19736D01*
X15251Y-19718D01*
X15240Y-19701D01*
X15226Y-19687D01*
X15210Y-19677D01*
X15192Y-19669D01*
X15172Y-19665D01*
X15153Y-19665D01*
X14902Y-19665D01*
X14883Y-19669D01*
X14865Y-19676D01*
X14859Y-19679D01*
X14856Y-19677D01*
X14838Y-19669D01*
X14818Y-19665D01*
X14799Y-19665D01*
X14729Y-19665D01*
X14729Y-18012D01*
X14992Y-17749D01*
X15299Y-17749D01*
X15300Y-17749D01*
X15322Y-17747D01*
X15323Y-17747D01*
X15345Y-17740D01*
X15365Y-17730D01*
X15366Y-17729D01*
X15383Y-17715D01*
X15383Y-17714D01*
X15384Y-17714D01*
X15398Y-17697D01*
X15399Y-17697D01*
X15409Y-17677D01*
X15410Y-17676D01*
X15416Y-17655D01*
X15417Y-17654D01*
X15418Y-17634D01*
X15419Y-17632D01*
X15419Y-17631D01*
X15419Y-17630D01*
X15419Y-16616D01*
X15616Y-16419D01*
X29384Y-16419D01*
X29581Y-16616D01*
X29581Y-23384D01*
M02*
