G04 (created by PCBNEW-RS274X (2012-03-22 BZR 3475)-stable) date Wed 22 Aug 2012 11:43:51 AM CEST*
G01*
G70*
G90*
%MOIN*%
G04 Gerber Fmt 3.4, Leading zero omitted, Abs format*
%FSLAX34Y34*%
G04 APERTURE LIST*
%ADD10C,0.006000*%
%ADD11C,0.005900*%
%ADD12C,0.003900*%
%ADD13C,0.008000*%
%ADD14C,0.007800*%
%ADD15C,0.003500*%
%ADD16R,0.070700X0.098300*%
%ADD17R,0.035300X0.082800*%
%ADD18C,0.081800*%
%ADD19R,0.303000X0.066800*%
%ADD20R,0.263700X0.047100*%
%ADD21R,0.052800X0.032800*%
%ADD22R,0.032800X0.052800*%
%ADD23R,0.039200X0.039200*%
%ADD24R,0.017600X0.066800*%
%ADD25R,0.066800X0.017600*%
G04 APERTURE END LIST*
G54D10*
G54D11*
X22985Y-15137D02*
X23030Y-14783D01*
X23116Y-15036D01*
X23266Y-14783D01*
X23221Y-15137D01*
X23597Y-15104D02*
X23578Y-15120D01*
X23525Y-15137D01*
X23491Y-15137D01*
X23443Y-15120D01*
X23414Y-15087D01*
X23401Y-15053D01*
X23392Y-14986D01*
X23399Y-14935D01*
X23424Y-14868D01*
X23445Y-14834D01*
X23483Y-14800D01*
X23536Y-14783D01*
X23570Y-14783D01*
X23618Y-14800D01*
X23633Y-14817D01*
X24014Y-15137D02*
X24059Y-14783D01*
X24037Y-14952D02*
X24240Y-14952D01*
X24217Y-15137D02*
X24262Y-14783D01*
X24592Y-15104D02*
X24573Y-15120D01*
X24520Y-15137D01*
X24486Y-15137D01*
X24438Y-15120D01*
X24409Y-15087D01*
X24396Y-15053D01*
X24387Y-14986D01*
X24394Y-14935D01*
X24419Y-14868D01*
X24440Y-14834D01*
X24478Y-14800D01*
X24531Y-14783D01*
X24565Y-14783D01*
X24613Y-14800D01*
X24628Y-14817D01*
X24739Y-15137D02*
X24784Y-14783D01*
X24942Y-15137D02*
X24816Y-14935D01*
X24987Y-14783D02*
X24758Y-14986D01*
X25097Y-15104D02*
X25112Y-15120D01*
X25093Y-15137D01*
X25078Y-15120D01*
X25097Y-15104D01*
X25093Y-15137D01*
X25110Y-15002D02*
X25118Y-14800D01*
X25138Y-14783D01*
X25152Y-14800D01*
X25110Y-15002D01*
X25138Y-14783D01*
X15193Y-21265D02*
X14957Y-21235D01*
X14991Y-21239D02*
X14974Y-21220D01*
X14957Y-21184D01*
X14957Y-21134D01*
X14974Y-21102D01*
X15008Y-21090D01*
X15193Y-21113D01*
X15008Y-21090D02*
X14974Y-21068D01*
X14957Y-21032D01*
X14957Y-20982D01*
X14974Y-20950D01*
X15008Y-20938D01*
X15193Y-20961D01*
X15176Y-20639D02*
X15193Y-20675D01*
X15193Y-20742D01*
X15176Y-20774D01*
X15160Y-20789D01*
X15126Y-20801D01*
X15025Y-20789D01*
X14991Y-20767D01*
X14974Y-20748D01*
X14957Y-20712D01*
X14957Y-20645D01*
X14974Y-20613D01*
X15193Y-20490D02*
X14839Y-20445D01*
X15193Y-20338D02*
X15008Y-20315D01*
X14974Y-20327D01*
X14957Y-20359D01*
X14957Y-20409D01*
X14974Y-20445D01*
X14991Y-20464D01*
X15176Y-20016D02*
X15193Y-20052D01*
X15193Y-20119D01*
X15176Y-20151D01*
X15160Y-20166D01*
X15126Y-20178D01*
X15025Y-20166D01*
X14991Y-20144D01*
X14974Y-20125D01*
X14957Y-20089D01*
X14957Y-20022D01*
X14974Y-19990D01*
X15193Y-19867D02*
X14839Y-19822D01*
X15058Y-19816D02*
X15193Y-19732D01*
X14957Y-19702D02*
X15092Y-19854D01*
X15160Y-19576D02*
X15176Y-19561D01*
X15193Y-19580D01*
X15176Y-19595D01*
X15160Y-19576D01*
X15193Y-19580D01*
X15193Y-19360D02*
X15176Y-19392D01*
X15160Y-19407D01*
X15126Y-19419D01*
X15025Y-19407D01*
X14991Y-19385D01*
X14974Y-19366D01*
X14957Y-19330D01*
X14957Y-19280D01*
X14974Y-19248D01*
X14991Y-19233D01*
X15025Y-19221D01*
X15126Y-19233D01*
X15160Y-19255D01*
X15176Y-19274D01*
X15193Y-19310D01*
X15193Y-19360D01*
X15193Y-19091D02*
X14957Y-19061D01*
X15025Y-19070D02*
X14991Y-19048D01*
X14974Y-19029D01*
X14957Y-18993D01*
X14957Y-18960D01*
X14957Y-18690D02*
X15244Y-18726D01*
X15278Y-18747D01*
X15294Y-18766D01*
X15311Y-18802D01*
X15311Y-18853D01*
X15294Y-18884D01*
X15176Y-18718D02*
X15193Y-18754D01*
X15193Y-18821D01*
X15176Y-18853D01*
X15160Y-18868D01*
X15126Y-18880D01*
X15025Y-18868D01*
X14991Y-18846D01*
X14974Y-18827D01*
X14957Y-18791D01*
X14957Y-18724D01*
X14974Y-18692D01*
G54D12*
X15300Y-17630D02*
X15300Y-16300D01*
X15300Y-22374D02*
X15300Y-23700D01*
X29700Y-23700D02*
X15300Y-23700D01*
X29700Y-16300D02*
X29700Y-23700D01*
X15300Y-16300D02*
X29700Y-16300D01*
X10039Y-17630D02*
X15300Y-17630D01*
X10039Y-22374D02*
X15300Y-22374D01*
X10039Y-17630D02*
X10039Y-22374D01*
G54D11*
X27350Y-17900D02*
X27350Y-21500D01*
X27350Y-21500D02*
X25850Y-21500D01*
X25850Y-21500D02*
X25850Y-17900D01*
X25850Y-17900D02*
X27350Y-17900D01*
X24490Y-19710D02*
X23110Y-19710D01*
X23110Y-19710D02*
X23110Y-18890D01*
X23110Y-18890D02*
X24490Y-18890D01*
X24490Y-18890D02*
X24490Y-19710D01*
X25875Y-17450D02*
X25900Y-17400D01*
X26600Y-17475D02*
X26725Y-17450D01*
X26725Y-17450D02*
X26750Y-17425D01*
X28650Y-17475D02*
X28750Y-17450D01*
X28750Y-17450D02*
X28775Y-17425D01*
X27675Y-17450D02*
X27800Y-17400D01*
X27800Y-17400D02*
X27825Y-17375D01*
X25750Y-17500D02*
X25875Y-17450D01*
X16700Y-17500D02*
X16500Y-17250D01*
X16500Y-17250D02*
X16400Y-17175D01*
X17525Y-17525D02*
X17475Y-17325D01*
X17475Y-17325D02*
X17400Y-17250D01*
X17450Y-22625D02*
X17400Y-22800D01*
X17400Y-22800D02*
X17375Y-22825D01*
X27525Y-22675D02*
X27550Y-22800D01*
X27550Y-22800D02*
X27600Y-22875D01*
X28500Y-22700D02*
X28550Y-22825D01*
X28550Y-22825D02*
X28600Y-22875D01*
X16425Y-22275D02*
X16250Y-22550D01*
X28900Y-19500D02*
X29075Y-19475D01*
X29075Y-19475D02*
X29075Y-19425D01*
X28900Y-21500D02*
X29075Y-21475D01*
X29075Y-21475D02*
X29075Y-21425D01*
X28725Y-20525D02*
X29025Y-20475D01*
X29025Y-20475D02*
X29050Y-20450D01*
X28800Y-18500D02*
X29025Y-18500D01*
X29025Y-18500D02*
X29050Y-18450D01*
X28250Y-21520D02*
X27700Y-21500D01*
X28620Y-21880D02*
X28250Y-21520D01*
X17000Y-19900D02*
X17000Y-18900D01*
X17000Y-18900D02*
X17600Y-18900D01*
X17600Y-18900D02*
X17600Y-19900D01*
X17600Y-19900D02*
X17000Y-19900D01*
X17800Y-19900D02*
X17800Y-18900D01*
X17800Y-18900D02*
X18400Y-18900D01*
X18400Y-18900D02*
X18400Y-19900D01*
X18400Y-19900D02*
X17800Y-19900D01*
X18000Y-18900D02*
X17000Y-18900D01*
X17000Y-18900D02*
X17000Y-18300D01*
X17000Y-18300D02*
X18000Y-18300D01*
X18000Y-18300D02*
X18000Y-18900D01*
X18000Y-18300D02*
X17000Y-18300D01*
X17000Y-18300D02*
X17000Y-17700D01*
X17000Y-17700D02*
X18000Y-17700D01*
X18000Y-17700D02*
X18000Y-18300D01*
X18700Y-17700D02*
X18700Y-18700D01*
X18700Y-18700D02*
X18100Y-18700D01*
X18100Y-18700D02*
X18100Y-17700D01*
X18100Y-17700D02*
X18700Y-17700D01*
X19300Y-17700D02*
X19300Y-18700D01*
X19300Y-18700D02*
X18700Y-18700D01*
X18700Y-18700D02*
X18700Y-17700D01*
X18700Y-17700D02*
X19300Y-17700D01*
X23700Y-20300D02*
X23700Y-21300D01*
X23700Y-21300D02*
X23100Y-21300D01*
X23100Y-21300D02*
X23100Y-20300D01*
X23100Y-20300D02*
X23700Y-20300D01*
X25100Y-21300D02*
X25100Y-20300D01*
X25100Y-20300D02*
X25700Y-20300D01*
X25700Y-20300D02*
X25700Y-21300D01*
X25700Y-21300D02*
X25100Y-21300D01*
X24300Y-20300D02*
X24300Y-21300D01*
X24300Y-21300D02*
X23700Y-21300D01*
X23700Y-21300D02*
X23700Y-20300D01*
X23700Y-20300D02*
X24300Y-20300D01*
X24640Y-20860D02*
X24700Y-20740D01*
X24700Y-20740D02*
X24760Y-20860D01*
X24760Y-20860D02*
X24640Y-20860D01*
X24450Y-21325D02*
X24450Y-20275D01*
X24450Y-20275D02*
X24950Y-20275D01*
X24950Y-20275D02*
X24950Y-21325D01*
X24950Y-21325D02*
X24450Y-21325D01*
X19501Y-18780D02*
X19580Y-18701D01*
X19580Y-18701D02*
X22020Y-18701D01*
X22020Y-18701D02*
X22099Y-18780D01*
X22099Y-18780D02*
X22099Y-21220D01*
X22099Y-21220D02*
X22020Y-21299D01*
X19501Y-21220D02*
X19501Y-18780D01*
X22020Y-21299D02*
X19580Y-21299D01*
X19461Y-18780D02*
X19580Y-18661D01*
X19580Y-21339D02*
X19461Y-21220D01*
X22139Y-21220D02*
X22020Y-21339D01*
X22139Y-18780D02*
X22020Y-18661D01*
G54D13*
X22299Y-18308D02*
X22298Y-18315D01*
X22295Y-18323D01*
X22292Y-18330D01*
X22287Y-18336D01*
X22280Y-18341D01*
X22273Y-18345D01*
X22266Y-18348D01*
X22258Y-18348D01*
X22251Y-18348D01*
X22243Y-18346D01*
X22236Y-18342D01*
X22230Y-18337D01*
X22225Y-18331D01*
X22221Y-18324D01*
X22218Y-18316D01*
X22218Y-18308D01*
X22218Y-18301D01*
X22220Y-18293D01*
X22224Y-18286D01*
X22229Y-18280D01*
X22235Y-18275D01*
X22242Y-18271D01*
X22250Y-18268D01*
X22258Y-18268D01*
X22265Y-18268D01*
X22272Y-18270D01*
X22279Y-18274D01*
X22286Y-18279D01*
X22291Y-18285D01*
X22295Y-18292D01*
X22297Y-18299D01*
X22298Y-18307D01*
X22299Y-18308D01*
G54D14*
X21780Y-19056D02*
X21778Y-19066D01*
X21775Y-19076D01*
X21770Y-19086D01*
X21764Y-19094D01*
X21755Y-19101D01*
X21746Y-19106D01*
X21736Y-19109D01*
X21725Y-19110D01*
X21715Y-19110D01*
X21705Y-19106D01*
X21695Y-19102D01*
X21687Y-19095D01*
X21680Y-19087D01*
X21675Y-19077D01*
X21672Y-19067D01*
X21671Y-19056D01*
X21671Y-19047D01*
X21674Y-19036D01*
X21679Y-19027D01*
X21686Y-19018D01*
X21694Y-19011D01*
X21703Y-19006D01*
X21714Y-19003D01*
X21724Y-19002D01*
X21734Y-19002D01*
X21744Y-19005D01*
X21754Y-19010D01*
X21762Y-19017D01*
X21769Y-19025D01*
X21775Y-19034D01*
X21778Y-19044D01*
X21779Y-19055D01*
X21780Y-19056D01*
G54D15*
X27644Y-19498D02*
X27658Y-19455D01*
X27658Y-19384D01*
X27644Y-19355D01*
X27630Y-19341D01*
X27601Y-19326D01*
X27573Y-19326D01*
X27544Y-19341D01*
X27530Y-19355D01*
X27516Y-19384D01*
X27501Y-19441D01*
X27487Y-19469D01*
X27473Y-19484D01*
X27444Y-19498D01*
X27416Y-19498D01*
X27387Y-19484D01*
X27373Y-19469D01*
X27358Y-19441D01*
X27358Y-19369D01*
X27373Y-19326D01*
X27658Y-19040D02*
X27658Y-19212D01*
X27658Y-19126D02*
X27358Y-19126D01*
X27401Y-19155D01*
X27430Y-19183D01*
X27444Y-19212D01*
X25795Y-23697D02*
X25809Y-23654D01*
X25809Y-23583D01*
X25795Y-23554D01*
X25781Y-23540D01*
X25752Y-23525D01*
X25724Y-23525D01*
X25695Y-23540D01*
X25681Y-23554D01*
X25667Y-23583D01*
X25652Y-23640D01*
X25638Y-23668D01*
X25624Y-23683D01*
X25595Y-23697D01*
X25567Y-23697D01*
X25538Y-23683D01*
X25524Y-23668D01*
X25509Y-23640D01*
X25509Y-23568D01*
X25524Y-23525D01*
X25509Y-23425D02*
X25809Y-23354D01*
X25595Y-23297D01*
X25809Y-23239D01*
X25509Y-23168D01*
X25809Y-23054D02*
X25509Y-23054D01*
X25509Y-22953D02*
X25509Y-22782D01*
X25809Y-22868D02*
X25509Y-22868D01*
X25781Y-22510D02*
X25795Y-22524D01*
X25809Y-22567D01*
X25809Y-22596D01*
X25795Y-22639D01*
X25767Y-22667D01*
X25738Y-22682D01*
X25681Y-22696D01*
X25638Y-22696D01*
X25581Y-22682D01*
X25552Y-22667D01*
X25524Y-22639D01*
X25509Y-22596D01*
X25509Y-22567D01*
X25524Y-22524D01*
X25538Y-22510D01*
X25809Y-22382D02*
X25509Y-22382D01*
X25652Y-22382D02*
X25652Y-22210D01*
X25809Y-22210D02*
X25509Y-22210D01*
X25695Y-22068D02*
X25695Y-21839D01*
X25809Y-21697D02*
X25509Y-21697D01*
X25724Y-21597D01*
X25509Y-21497D01*
X25809Y-21497D01*
X25509Y-21296D02*
X25509Y-21239D01*
X25524Y-21211D01*
X25552Y-21182D01*
X25609Y-21168D01*
X25709Y-21168D01*
X25767Y-21182D01*
X25795Y-21211D01*
X25809Y-21239D01*
X25809Y-21296D01*
X25795Y-21325D01*
X25767Y-21354D01*
X25709Y-21368D01*
X25609Y-21368D01*
X25552Y-21354D01*
X25524Y-21325D01*
X25509Y-21296D01*
X25809Y-21040D02*
X25509Y-21040D01*
X25724Y-20940D01*
X25509Y-20840D01*
X25809Y-20840D01*
X25652Y-20697D02*
X25652Y-20597D01*
X25809Y-20554D02*
X25809Y-20697D01*
X25509Y-20697D01*
X25509Y-20554D01*
X25809Y-20426D02*
X25509Y-20426D01*
X25809Y-20254D01*
X25509Y-20254D01*
X25509Y-20154D02*
X25509Y-19983D01*
X25809Y-20069D02*
X25509Y-20069D01*
X25724Y-19897D02*
X25724Y-19754D01*
X25809Y-19925D02*
X25509Y-19825D01*
X25809Y-19725D01*
X25809Y-19454D02*
X25667Y-19554D01*
X25809Y-19626D02*
X25509Y-19626D01*
X25509Y-19511D01*
X25524Y-19483D01*
X25538Y-19468D01*
X25567Y-19454D01*
X25609Y-19454D01*
X25638Y-19468D01*
X25652Y-19483D01*
X25667Y-19511D01*
X25667Y-19626D01*
X25667Y-19268D02*
X25809Y-19268D01*
X25509Y-19368D02*
X25667Y-19268D01*
X25509Y-19168D01*
X25695Y-19069D02*
X25695Y-18840D01*
X25538Y-18712D02*
X25524Y-18698D01*
X25509Y-18669D01*
X25509Y-18598D01*
X25524Y-18569D01*
X25538Y-18555D01*
X25567Y-18540D01*
X25595Y-18540D01*
X25638Y-18555D01*
X25809Y-18726D01*
X25809Y-18540D01*
X25695Y-18412D02*
X25695Y-18183D01*
X25795Y-18055D02*
X25809Y-18012D01*
X25809Y-17941D01*
X25795Y-17912D01*
X25781Y-17898D01*
X25752Y-17883D01*
X25724Y-17883D01*
X25695Y-17898D01*
X25681Y-17912D01*
X25667Y-17941D01*
X25652Y-17998D01*
X25638Y-18026D01*
X25624Y-18041D01*
X25595Y-18055D01*
X25567Y-18055D01*
X25538Y-18041D01*
X25524Y-18026D01*
X25509Y-17998D01*
X25509Y-17926D01*
X25524Y-17883D01*
X25809Y-17755D02*
X25509Y-17755D01*
X25724Y-17655D01*
X25509Y-17555D01*
X25809Y-17555D01*
X25809Y-17412D02*
X25509Y-17412D01*
X25509Y-17340D01*
X25524Y-17297D01*
X25552Y-17269D01*
X25581Y-17254D01*
X25638Y-17240D01*
X25681Y-17240D01*
X25738Y-17254D01*
X25767Y-17269D01*
X25795Y-17297D01*
X25809Y-17340D01*
X25809Y-17412D01*
X25695Y-17112D02*
X25695Y-16883D01*
X25809Y-16583D02*
X25809Y-16755D01*
X25809Y-16669D02*
X25509Y-16669D01*
X25552Y-16698D01*
X25581Y-16726D01*
X25595Y-16755D01*
X25809Y-16297D02*
X25809Y-16469D01*
X25809Y-16383D02*
X25509Y-16383D01*
X25552Y-16412D01*
X25581Y-16440D01*
X25595Y-16469D01*
X25509Y-16111D02*
X25509Y-16083D01*
X25524Y-16054D01*
X25538Y-16040D01*
X25567Y-16026D01*
X25624Y-16011D01*
X25695Y-16011D01*
X25752Y-16026D01*
X25781Y-16040D01*
X25795Y-16054D01*
X25809Y-16083D01*
X25809Y-16111D01*
X25795Y-16140D01*
X25781Y-16154D01*
X25752Y-16169D01*
X25695Y-16183D01*
X25624Y-16183D01*
X25567Y-16169D01*
X25538Y-16154D01*
X25524Y-16140D01*
X25509Y-16111D01*
X25809Y-15725D02*
X25809Y-15897D01*
X25809Y-15811D02*
X25509Y-15811D01*
X25552Y-15840D01*
X25581Y-15868D01*
X25595Y-15897D01*
X25809Y-15597D02*
X25509Y-15597D01*
X25809Y-15425D01*
X25509Y-15425D01*
X25652Y-15283D02*
X25652Y-15183D01*
X25809Y-15140D02*
X25809Y-15283D01*
X25509Y-15283D01*
X25509Y-15140D01*
G54D11*
X23487Y-19935D02*
X23487Y-20103D01*
X23369Y-19749D02*
X23487Y-19935D01*
X23605Y-19749D01*
X23908Y-20103D02*
X23705Y-20103D01*
X23807Y-20103D02*
X23807Y-19749D01*
X23773Y-19800D01*
X23739Y-19834D01*
X23705Y-19850D01*
X16615Y-17843D02*
X16412Y-17843D01*
X16514Y-17843D02*
X16559Y-17489D01*
X16518Y-17540D01*
X16480Y-17574D01*
X16444Y-17590D01*
X16980Y-17489D02*
X16811Y-17489D01*
X16772Y-17658D01*
X16792Y-17641D01*
X16828Y-17624D01*
X16912Y-17624D01*
X16944Y-17641D01*
X16958Y-17658D01*
X16971Y-17692D01*
X16961Y-17776D01*
X16939Y-17810D01*
X16920Y-17826D01*
X16884Y-17843D01*
X16800Y-17843D01*
X16768Y-17826D01*
X16753Y-17810D01*
X17415Y-17843D02*
X17212Y-17843D01*
X17314Y-17843D02*
X17359Y-17489D01*
X17318Y-17540D01*
X17280Y-17574D01*
X17244Y-17590D01*
X17748Y-17607D02*
X17718Y-17843D01*
X17681Y-17472D02*
X17564Y-17725D01*
X17784Y-17725D01*
X18215Y-17843D02*
X18012Y-17843D01*
X18114Y-17843D02*
X18159Y-17489D01*
X18118Y-17540D01*
X18080Y-17574D01*
X18044Y-17590D01*
X18378Y-17489D02*
X18597Y-17489D01*
X18462Y-17624D01*
X18512Y-17624D01*
X18544Y-17641D01*
X18558Y-17658D01*
X18571Y-17692D01*
X18561Y-17776D01*
X18539Y-17810D01*
X18520Y-17826D01*
X18484Y-17843D01*
X18383Y-17843D01*
X18351Y-17826D01*
X18337Y-17810D01*
X19015Y-17843D02*
X18812Y-17843D01*
X18914Y-17843D02*
X18959Y-17489D01*
X18918Y-17540D01*
X18880Y-17574D01*
X18844Y-17590D01*
X19189Y-17523D02*
X19208Y-17506D01*
X19245Y-17489D01*
X19329Y-17489D01*
X19360Y-17506D01*
X19375Y-17523D01*
X19388Y-17557D01*
X19384Y-17590D01*
X19361Y-17641D01*
X19133Y-17843D01*
X19352Y-17843D01*
X19815Y-17843D02*
X19612Y-17843D01*
X19714Y-17843D02*
X19759Y-17489D01*
X19718Y-17540D01*
X19680Y-17574D01*
X19644Y-17590D01*
X20152Y-17843D02*
X19949Y-17843D01*
X20051Y-17843D02*
X20096Y-17489D01*
X20055Y-17540D01*
X20017Y-17574D01*
X19981Y-17590D01*
X20593Y-17658D02*
X20642Y-17675D01*
X20657Y-17692D01*
X20670Y-17725D01*
X20664Y-17776D01*
X20642Y-17810D01*
X20623Y-17826D01*
X20587Y-17843D01*
X20452Y-17843D01*
X20497Y-17489D01*
X20615Y-17489D01*
X20646Y-17506D01*
X20661Y-17523D01*
X20674Y-17557D01*
X20670Y-17590D01*
X20649Y-17624D01*
X20630Y-17641D01*
X20593Y-17658D01*
X20475Y-17658D01*
X20992Y-17843D02*
X20789Y-17843D01*
X20891Y-17843D02*
X20936Y-17489D01*
X20895Y-17540D01*
X20857Y-17574D01*
X20821Y-17590D01*
X21256Y-17489D02*
X21289Y-17489D01*
X21320Y-17506D01*
X21335Y-17523D01*
X21348Y-17557D01*
X21357Y-17624D01*
X21346Y-17708D01*
X21321Y-17776D01*
X21299Y-17810D01*
X21280Y-17826D01*
X21244Y-17843D01*
X21211Y-17843D01*
X21179Y-17826D01*
X21164Y-17810D01*
X21152Y-17776D01*
X21143Y-17708D01*
X21154Y-17624D01*
X21179Y-17557D01*
X21200Y-17523D01*
X21219Y-17506D01*
X21256Y-17489D01*
X21742Y-17742D02*
X21911Y-17742D01*
X21696Y-17843D02*
X21859Y-17489D01*
X21932Y-17843D01*
X22061Y-17489D02*
X22297Y-17489D01*
X22100Y-17843D01*
X22742Y-17742D02*
X22911Y-17742D01*
X22696Y-17843D02*
X22859Y-17489D01*
X22932Y-17843D01*
X23246Y-17489D02*
X23179Y-17489D01*
X23142Y-17506D01*
X23123Y-17523D01*
X23083Y-17574D01*
X23058Y-17641D01*
X23041Y-17776D01*
X23053Y-17810D01*
X23068Y-17826D01*
X23100Y-17843D01*
X23167Y-17843D01*
X23203Y-17826D01*
X23222Y-17810D01*
X23244Y-17776D01*
X23254Y-17692D01*
X23241Y-17658D01*
X23227Y-17641D01*
X23195Y-17624D01*
X23128Y-17624D01*
X23092Y-17641D01*
X23072Y-17658D01*
X23051Y-17692D01*
X23742Y-17742D02*
X23911Y-17742D01*
X23696Y-17843D02*
X23859Y-17489D01*
X23932Y-17843D01*
X24263Y-17489D02*
X24094Y-17489D01*
X24055Y-17658D01*
X24075Y-17641D01*
X24111Y-17624D01*
X24195Y-17624D01*
X24227Y-17641D01*
X24241Y-17658D01*
X24254Y-17692D01*
X24244Y-17776D01*
X24222Y-17810D01*
X24203Y-17826D01*
X24167Y-17843D01*
X24083Y-17843D01*
X24051Y-17826D01*
X24036Y-17810D01*
X24692Y-17742D02*
X24861Y-17742D01*
X24646Y-17843D02*
X24809Y-17489D01*
X24882Y-17843D01*
X25181Y-17607D02*
X25151Y-17843D01*
X25114Y-17472D02*
X24997Y-17725D01*
X25217Y-17725D01*
X25510Y-17389D02*
X25729Y-17389D01*
X25594Y-17524D01*
X25644Y-17524D01*
X25676Y-17541D01*
X25690Y-17558D01*
X25703Y-17592D01*
X25693Y-17676D01*
X25671Y-17710D01*
X25652Y-17726D01*
X25616Y-17743D01*
X25515Y-17743D01*
X25483Y-17726D01*
X25469Y-17710D01*
X26421Y-17223D02*
X26440Y-17206D01*
X26477Y-17189D01*
X26561Y-17189D01*
X26592Y-17206D01*
X26607Y-17223D01*
X26620Y-17257D01*
X26616Y-17290D01*
X26593Y-17341D01*
X26365Y-17543D01*
X26584Y-17543D01*
X27684Y-17543D02*
X27481Y-17543D01*
X27583Y-17543D02*
X27628Y-17189D01*
X27587Y-17240D01*
X27549Y-17274D01*
X27513Y-17290D01*
X28511Y-17189D02*
X28544Y-17189D01*
X28575Y-17206D01*
X28590Y-17223D01*
X28603Y-17257D01*
X28612Y-17324D01*
X28601Y-17408D01*
X28576Y-17476D01*
X28554Y-17510D01*
X28535Y-17526D01*
X28499Y-17543D01*
X28466Y-17543D01*
X28434Y-17526D01*
X28419Y-17510D01*
X28407Y-17476D01*
X28398Y-17408D01*
X28409Y-17324D01*
X28434Y-17257D01*
X28455Y-17223D01*
X28474Y-17206D01*
X28511Y-17189D01*
X16439Y-22645D02*
X16439Y-22426D01*
X16574Y-22561D01*
X16574Y-22511D01*
X16591Y-22479D01*
X16608Y-22465D01*
X16642Y-22452D01*
X16726Y-22462D01*
X16760Y-22484D01*
X16776Y-22503D01*
X16793Y-22539D01*
X16793Y-22640D01*
X16776Y-22672D01*
X16760Y-22686D01*
X16760Y-22316D02*
X16776Y-22301D01*
X16793Y-22320D01*
X16776Y-22335D01*
X16760Y-22316D01*
X16793Y-22320D01*
X16439Y-22139D02*
X16439Y-21920D01*
X16574Y-22055D01*
X16574Y-22005D01*
X16591Y-21973D01*
X16608Y-21959D01*
X16642Y-21946D01*
X16726Y-21956D01*
X16760Y-21978D01*
X16776Y-21997D01*
X16793Y-22033D01*
X16793Y-22134D01*
X16776Y-22166D01*
X16760Y-22180D01*
X16439Y-21819D02*
X16793Y-21746D01*
X16439Y-21583D01*
X17055Y-22256D02*
X17024Y-22239D01*
X16973Y-22239D01*
X16920Y-22256D01*
X16882Y-22290D01*
X16861Y-22324D01*
X16836Y-22391D01*
X16829Y-22442D01*
X16838Y-22509D01*
X16851Y-22543D01*
X16880Y-22576D01*
X16928Y-22593D01*
X16962Y-22593D01*
X17015Y-22576D01*
X17034Y-22560D01*
X17049Y-22442D01*
X16981Y-22442D01*
X17181Y-22593D02*
X17226Y-22239D01*
X17384Y-22593D01*
X17429Y-22239D01*
X17552Y-22593D02*
X17597Y-22239D01*
X17682Y-22239D01*
X17729Y-22256D01*
X17759Y-22290D01*
X17772Y-22324D01*
X17781Y-22391D01*
X17774Y-22442D01*
X17749Y-22509D01*
X17728Y-22543D01*
X17689Y-22576D01*
X17637Y-22593D01*
X17552Y-22593D01*
X18042Y-22442D02*
X18211Y-22442D01*
X17996Y-22543D02*
X18159Y-22189D01*
X18232Y-22543D01*
X18426Y-22341D02*
X18394Y-22324D01*
X18379Y-22307D01*
X18366Y-22274D01*
X18368Y-22257D01*
X18389Y-22223D01*
X18408Y-22206D01*
X18445Y-22189D01*
X18512Y-22189D01*
X18543Y-22206D01*
X18558Y-22223D01*
X18571Y-22257D01*
X18569Y-22274D01*
X18548Y-22307D01*
X18529Y-22324D01*
X18493Y-22341D01*
X18426Y-22341D01*
X18389Y-22358D01*
X18370Y-22375D01*
X18349Y-22408D01*
X18341Y-22476D01*
X18353Y-22510D01*
X18368Y-22526D01*
X18400Y-22543D01*
X18467Y-22543D01*
X18503Y-22526D01*
X18522Y-22510D01*
X18544Y-22476D01*
X18552Y-22408D01*
X18539Y-22375D01*
X18524Y-22358D01*
X18493Y-22341D01*
X18792Y-22442D02*
X18961Y-22442D01*
X18746Y-22543D02*
X18909Y-22189D01*
X18982Y-22543D01*
X19116Y-22543D02*
X19184Y-22543D01*
X19219Y-22526D01*
X19238Y-22510D01*
X19279Y-22459D01*
X19304Y-22392D01*
X19321Y-22257D01*
X19308Y-22223D01*
X19293Y-22206D01*
X19262Y-22189D01*
X19195Y-22189D01*
X19158Y-22206D01*
X19139Y-22223D01*
X19118Y-22257D01*
X19108Y-22341D01*
X19120Y-22375D01*
X19135Y-22392D01*
X19167Y-22408D01*
X19234Y-22408D01*
X19270Y-22392D01*
X19289Y-22375D01*
X19311Y-22341D01*
X19574Y-22392D02*
X19743Y-22392D01*
X19528Y-22493D02*
X19691Y-22139D01*
X19764Y-22493D01*
X20067Y-22493D02*
X19864Y-22493D01*
X19966Y-22493D02*
X20011Y-22139D01*
X19970Y-22190D01*
X19932Y-22224D01*
X19896Y-22240D01*
X20331Y-22139D02*
X20364Y-22139D01*
X20395Y-22156D01*
X20410Y-22173D01*
X20423Y-22207D01*
X20432Y-22274D01*
X20421Y-22358D01*
X20396Y-22426D01*
X20374Y-22460D01*
X20355Y-22476D01*
X20319Y-22493D01*
X20286Y-22493D01*
X20254Y-22476D01*
X20239Y-22460D01*
X20227Y-22426D01*
X20218Y-22358D01*
X20229Y-22274D01*
X20254Y-22207D01*
X20275Y-22173D01*
X20294Y-22156D01*
X20331Y-22139D01*
X20862Y-22358D02*
X20911Y-22375D01*
X20926Y-22392D01*
X20939Y-22425D01*
X20933Y-22476D01*
X20911Y-22510D01*
X20892Y-22526D01*
X20856Y-22543D01*
X20721Y-22543D01*
X20766Y-22189D01*
X20884Y-22189D01*
X20915Y-22206D01*
X20930Y-22223D01*
X20943Y-22257D01*
X20939Y-22290D01*
X20918Y-22324D01*
X20899Y-22341D01*
X20862Y-22358D01*
X20744Y-22358D01*
X21261Y-22543D02*
X21058Y-22543D01*
X21160Y-22543D02*
X21205Y-22189D01*
X21164Y-22240D01*
X21126Y-22274D01*
X21090Y-22290D01*
X21862Y-22358D02*
X21911Y-22375D01*
X21926Y-22392D01*
X21939Y-22425D01*
X21933Y-22476D01*
X21911Y-22510D01*
X21892Y-22526D01*
X21856Y-22543D01*
X21721Y-22543D01*
X21766Y-22189D01*
X21884Y-22189D01*
X21915Y-22206D01*
X21930Y-22223D01*
X21943Y-22257D01*
X21939Y-22290D01*
X21918Y-22324D01*
X21899Y-22341D01*
X21862Y-22358D01*
X21744Y-22358D01*
X22188Y-22189D02*
X22221Y-22189D01*
X22252Y-22206D01*
X22267Y-22223D01*
X22280Y-22257D01*
X22289Y-22324D01*
X22278Y-22408D01*
X22253Y-22476D01*
X22231Y-22510D01*
X22212Y-22526D01*
X22176Y-22543D01*
X22143Y-22543D01*
X22111Y-22526D01*
X22096Y-22510D01*
X22084Y-22476D01*
X22075Y-22408D01*
X22086Y-22324D01*
X22111Y-22257D01*
X22132Y-22223D01*
X22151Y-22206D01*
X22188Y-22189D01*
X22862Y-22358D02*
X22911Y-22375D01*
X22926Y-22392D01*
X22939Y-22425D01*
X22933Y-22476D01*
X22911Y-22510D01*
X22892Y-22526D01*
X22856Y-22543D01*
X22721Y-22543D01*
X22766Y-22189D01*
X22884Y-22189D01*
X22915Y-22206D01*
X22930Y-22223D01*
X22943Y-22257D01*
X22939Y-22290D01*
X22918Y-22324D01*
X22899Y-22341D01*
X22862Y-22358D01*
X22744Y-22358D01*
X23272Y-22189D02*
X23205Y-22189D01*
X23168Y-22206D01*
X23149Y-22223D01*
X23109Y-22274D01*
X23084Y-22341D01*
X23067Y-22476D01*
X23079Y-22510D01*
X23094Y-22526D01*
X23126Y-22543D01*
X23193Y-22543D01*
X23229Y-22526D01*
X23248Y-22510D01*
X23270Y-22476D01*
X23280Y-22392D01*
X23267Y-22358D01*
X23253Y-22341D01*
X23221Y-22324D01*
X23154Y-22324D01*
X23118Y-22341D01*
X23098Y-22358D01*
X23077Y-22392D01*
X23862Y-22358D02*
X23911Y-22375D01*
X23926Y-22392D01*
X23939Y-22425D01*
X23933Y-22476D01*
X23911Y-22510D01*
X23892Y-22526D01*
X23856Y-22543D01*
X23721Y-22543D01*
X23766Y-22189D01*
X23884Y-22189D01*
X23915Y-22206D01*
X23930Y-22223D01*
X23943Y-22257D01*
X23939Y-22290D01*
X23918Y-22324D01*
X23899Y-22341D01*
X23862Y-22358D01*
X23744Y-22358D01*
X24087Y-22189D02*
X24323Y-22189D01*
X24126Y-22543D01*
X24712Y-22358D02*
X24761Y-22375D01*
X24776Y-22392D01*
X24789Y-22425D01*
X24783Y-22476D01*
X24761Y-22510D01*
X24742Y-22526D01*
X24706Y-22543D01*
X24571Y-22543D01*
X24616Y-22189D01*
X24734Y-22189D01*
X24765Y-22206D01*
X24780Y-22223D01*
X24793Y-22257D01*
X24789Y-22290D01*
X24768Y-22324D01*
X24749Y-22341D01*
X24712Y-22358D01*
X24594Y-22358D01*
X25002Y-22341D02*
X24970Y-22324D01*
X24955Y-22307D01*
X24942Y-22274D01*
X24944Y-22257D01*
X24965Y-22223D01*
X24984Y-22206D01*
X25021Y-22189D01*
X25088Y-22189D01*
X25119Y-22206D01*
X25134Y-22223D01*
X25147Y-22257D01*
X25145Y-22274D01*
X25124Y-22307D01*
X25105Y-22324D01*
X25069Y-22341D01*
X25002Y-22341D01*
X24965Y-22358D01*
X24946Y-22375D01*
X24925Y-22408D01*
X24917Y-22476D01*
X24929Y-22510D01*
X24944Y-22526D01*
X24976Y-22543D01*
X25043Y-22543D01*
X25079Y-22526D01*
X25098Y-22510D01*
X25120Y-22476D01*
X25128Y-22408D01*
X25115Y-22375D01*
X25100Y-22358D01*
X25069Y-22341D01*
X25562Y-22358D02*
X25611Y-22375D01*
X25626Y-22392D01*
X25639Y-22425D01*
X25633Y-22476D01*
X25611Y-22510D01*
X25592Y-22526D01*
X25556Y-22543D01*
X25421Y-22543D01*
X25466Y-22189D01*
X25584Y-22189D01*
X25615Y-22206D01*
X25630Y-22223D01*
X25643Y-22257D01*
X25639Y-22290D01*
X25618Y-22324D01*
X25599Y-22341D01*
X25562Y-22358D01*
X25444Y-22358D01*
X25792Y-22543D02*
X25860Y-22543D01*
X25895Y-22526D01*
X25914Y-22510D01*
X25955Y-22459D01*
X25980Y-22392D01*
X25997Y-22257D01*
X25984Y-22223D01*
X25969Y-22206D01*
X25938Y-22189D01*
X25871Y-22189D01*
X25834Y-22206D01*
X25815Y-22223D01*
X25794Y-22257D01*
X25784Y-22341D01*
X25796Y-22375D01*
X25811Y-22392D01*
X25843Y-22408D01*
X25910Y-22408D01*
X25946Y-22392D01*
X25965Y-22375D01*
X25987Y-22341D01*
X26409Y-22510D02*
X26390Y-22526D01*
X26337Y-22543D01*
X26303Y-22543D01*
X26255Y-22526D01*
X26226Y-22493D01*
X26213Y-22459D01*
X26204Y-22392D01*
X26211Y-22341D01*
X26236Y-22274D01*
X26257Y-22240D01*
X26295Y-22206D01*
X26348Y-22189D01*
X26382Y-22189D01*
X26430Y-22206D01*
X26445Y-22223D01*
X26742Y-22543D02*
X26539Y-22543D01*
X26641Y-22543D02*
X26686Y-22189D01*
X26645Y-22240D01*
X26607Y-22274D01*
X26571Y-22290D01*
X26905Y-22189D02*
X27124Y-22189D01*
X26989Y-22324D01*
X27039Y-22324D01*
X27071Y-22341D01*
X27085Y-22358D01*
X27098Y-22392D01*
X27088Y-22476D01*
X27066Y-22510D01*
X27047Y-22526D01*
X27011Y-22543D01*
X26910Y-22543D01*
X26878Y-22526D01*
X26864Y-22510D01*
X27465Y-22643D02*
X27262Y-22643D01*
X27364Y-22643D02*
X27409Y-22289D01*
X27368Y-22340D01*
X27330Y-22374D01*
X27294Y-22390D01*
X27798Y-22407D02*
X27768Y-22643D01*
X27731Y-22272D02*
X27614Y-22525D01*
X27834Y-22525D01*
X28415Y-22693D02*
X28212Y-22693D01*
X28314Y-22693D02*
X28359Y-22339D01*
X28318Y-22390D01*
X28280Y-22424D01*
X28244Y-22440D01*
X28780Y-22339D02*
X28611Y-22339D01*
X28572Y-22508D01*
X28592Y-22491D01*
X28628Y-22474D01*
X28712Y-22474D01*
X28744Y-22491D01*
X28758Y-22508D01*
X28771Y-22542D01*
X28761Y-22626D01*
X28739Y-22660D01*
X28720Y-22676D01*
X28684Y-22693D01*
X28600Y-22693D01*
X28568Y-22676D01*
X28553Y-22660D01*
X28591Y-18686D02*
X28447Y-18830D01*
X28520Y-18758D02*
X28301Y-18476D01*
X28308Y-18541D01*
X28305Y-18591D01*
X28291Y-18628D01*
X28599Y-18178D02*
X28479Y-18297D01*
X28571Y-18444D01*
X28573Y-18418D01*
X28587Y-18381D01*
X28646Y-18321D01*
X28681Y-18311D01*
X28703Y-18313D01*
X28736Y-18328D01*
X28788Y-18394D01*
X28797Y-18434D01*
X28795Y-18459D01*
X28781Y-18496D01*
X28722Y-18555D01*
X28687Y-18566D01*
X28665Y-18565D01*
X28432Y-19348D02*
X28455Y-19394D01*
X28453Y-19417D01*
X28439Y-19450D01*
X28399Y-19481D01*
X28359Y-19490D01*
X28335Y-19488D01*
X28297Y-19474D01*
X28202Y-19379D01*
X28484Y-19160D01*
X28567Y-19244D01*
X28577Y-19278D01*
X28576Y-19300D01*
X28561Y-19334D01*
X28535Y-19354D01*
X28496Y-19363D01*
X28470Y-19362D01*
X28432Y-19348D01*
X28349Y-19264D01*
X28711Y-19387D02*
X28866Y-19542D01*
X28675Y-19542D01*
X28710Y-19578D01*
X28721Y-19612D01*
X28718Y-19634D01*
X28704Y-19667D01*
X28637Y-19720D01*
X28598Y-19728D01*
X28573Y-19726D01*
X28535Y-19713D01*
X28464Y-19641D01*
X28453Y-19607D01*
X28455Y-19585D01*
X28398Y-20593D02*
X28444Y-20570D01*
X28467Y-20572D01*
X28500Y-20586D01*
X28531Y-20626D01*
X28540Y-20666D01*
X28538Y-20690D01*
X28524Y-20728D01*
X28429Y-20823D01*
X28210Y-20541D01*
X28294Y-20458D01*
X28328Y-20448D01*
X28350Y-20449D01*
X28384Y-20464D01*
X28404Y-20490D01*
X28413Y-20529D01*
X28412Y-20555D01*
X28398Y-20593D01*
X28314Y-20676D01*
X28641Y-20278D02*
X28787Y-20466D01*
X28498Y-20229D02*
X28594Y-20491D01*
X28750Y-20335D01*
X28432Y-21323D02*
X28455Y-21369D01*
X28453Y-21392D01*
X28439Y-21425D01*
X28399Y-21456D01*
X28359Y-21465D01*
X28335Y-21463D01*
X28297Y-21449D01*
X28202Y-21354D01*
X28484Y-21135D01*
X28567Y-21219D01*
X28577Y-21253D01*
X28576Y-21275D01*
X28561Y-21309D01*
X28535Y-21329D01*
X28496Y-21338D01*
X28470Y-21337D01*
X28432Y-21323D01*
X28349Y-21239D01*
X28854Y-21505D02*
X28734Y-21386D01*
X28587Y-21478D01*
X28613Y-21480D01*
X28651Y-21493D01*
X28710Y-21553D01*
X28721Y-21587D01*
X28718Y-21609D01*
X28704Y-21642D01*
X28637Y-21695D01*
X28598Y-21703D01*
X28573Y-21701D01*
X28535Y-21688D01*
X28476Y-21628D01*
X28465Y-21594D01*
X28466Y-21572D01*
X27239Y-22204D02*
X27593Y-22131D01*
X27239Y-21968D01*
X27408Y-21873D02*
X27408Y-21755D01*
X27593Y-21727D02*
X27593Y-21896D01*
X27239Y-21851D01*
X27239Y-21682D01*
X27239Y-21564D02*
X27593Y-21373D01*
X27239Y-21328D02*
X27593Y-21609D01*
X27239Y-21244D02*
X27239Y-21042D01*
X27593Y-21188D02*
X27239Y-21143D01*
X17257Y-20293D02*
X17139Y-20125D01*
X17054Y-20293D02*
X17054Y-19939D01*
X17189Y-19939D01*
X17223Y-19956D01*
X17240Y-19973D01*
X17257Y-20007D01*
X17257Y-20057D01*
X17240Y-20091D01*
X17223Y-20108D01*
X17189Y-20125D01*
X17054Y-20125D01*
X17391Y-19973D02*
X17408Y-19956D01*
X17442Y-19939D01*
X17526Y-19939D01*
X17560Y-19956D01*
X17577Y-19973D01*
X17594Y-20007D01*
X17594Y-20040D01*
X17577Y-20091D01*
X17375Y-20293D01*
X17594Y-20293D01*
X18032Y-20293D02*
X17914Y-20125D01*
X17829Y-20293D02*
X17829Y-19939D01*
X17964Y-19939D01*
X17998Y-19956D01*
X18015Y-19973D01*
X18032Y-20007D01*
X18032Y-20057D01*
X18015Y-20091D01*
X17998Y-20108D01*
X17964Y-20125D01*
X17829Y-20125D01*
X18369Y-20293D02*
X18166Y-20293D01*
X18268Y-20293D02*
X18268Y-19939D01*
X18234Y-19990D01*
X18200Y-20024D01*
X18166Y-20040D01*
X16860Y-18658D02*
X16876Y-18675D01*
X16893Y-18726D01*
X16893Y-18760D01*
X16876Y-18810D01*
X16843Y-18844D01*
X16809Y-18861D01*
X16742Y-18878D01*
X16691Y-18878D01*
X16624Y-18861D01*
X16590Y-18844D01*
X16556Y-18810D01*
X16539Y-18760D01*
X16539Y-18726D01*
X16556Y-18675D01*
X16573Y-18658D01*
X16573Y-18524D02*
X16556Y-18507D01*
X16539Y-18473D01*
X16539Y-18389D01*
X16556Y-18355D01*
X16573Y-18338D01*
X16607Y-18321D01*
X16640Y-18321D01*
X16691Y-18338D01*
X16893Y-18540D01*
X16893Y-18321D01*
X16935Y-18083D02*
X16951Y-18100D01*
X16968Y-18151D01*
X16968Y-18185D01*
X16951Y-18235D01*
X16918Y-18269D01*
X16884Y-18286D01*
X16817Y-18303D01*
X16766Y-18303D01*
X16699Y-18286D01*
X16665Y-18269D01*
X16631Y-18235D01*
X16614Y-18185D01*
X16614Y-18151D01*
X16631Y-18100D01*
X16648Y-18083D01*
X16614Y-17780D02*
X16614Y-17847D01*
X16631Y-17881D01*
X16648Y-17898D01*
X16699Y-17932D01*
X16766Y-17949D01*
X16901Y-17949D01*
X16935Y-17932D01*
X16951Y-17915D01*
X16968Y-17881D01*
X16968Y-17814D01*
X16951Y-17780D01*
X16935Y-17763D01*
X16901Y-17746D01*
X16817Y-17746D01*
X16783Y-17763D01*
X16766Y-17780D01*
X16749Y-17814D01*
X16749Y-17881D01*
X16766Y-17915D01*
X16783Y-17932D01*
X16817Y-17949D01*
X17667Y-18710D02*
X17650Y-18726D01*
X17599Y-18743D01*
X17565Y-18743D01*
X17515Y-18726D01*
X17481Y-18693D01*
X17464Y-18659D01*
X17447Y-18592D01*
X17447Y-18541D01*
X17464Y-18474D01*
X17481Y-18440D01*
X17515Y-18406D01*
X17565Y-18389D01*
X17599Y-18389D01*
X17650Y-18406D01*
X17667Y-18423D01*
X18004Y-18743D02*
X17801Y-18743D01*
X17903Y-18743D02*
X17903Y-18389D01*
X17869Y-18440D01*
X17835Y-18474D01*
X17801Y-18490D01*
X18942Y-19135D02*
X18925Y-19151D01*
X18874Y-19168D01*
X18840Y-19168D01*
X18790Y-19151D01*
X18756Y-19118D01*
X18739Y-19084D01*
X18722Y-19017D01*
X18722Y-18966D01*
X18739Y-18899D01*
X18756Y-18865D01*
X18790Y-18831D01*
X18840Y-18814D01*
X18874Y-18814D01*
X18925Y-18831D01*
X18942Y-18848D01*
X19060Y-18814D02*
X19279Y-18814D01*
X19161Y-18949D01*
X19211Y-18949D01*
X19245Y-18966D01*
X19262Y-18983D01*
X19279Y-19017D01*
X19279Y-19101D01*
X19262Y-19135D01*
X19245Y-19151D01*
X19211Y-19168D01*
X19110Y-19168D01*
X19076Y-19151D01*
X19060Y-19135D01*
X23372Y-21735D02*
X23355Y-21751D01*
X23304Y-21768D01*
X23270Y-21768D01*
X23220Y-21751D01*
X23186Y-21718D01*
X23169Y-21684D01*
X23152Y-21617D01*
X23152Y-21566D01*
X23169Y-21499D01*
X23186Y-21465D01*
X23220Y-21431D01*
X23270Y-21414D01*
X23304Y-21414D01*
X23355Y-21431D01*
X23372Y-21448D01*
X23675Y-21532D02*
X23675Y-21768D01*
X23591Y-21397D02*
X23506Y-21650D01*
X23726Y-21650D01*
X26310Y-22483D02*
X26326Y-22500D01*
X26343Y-22551D01*
X26343Y-22585D01*
X26326Y-22635D01*
X26293Y-22669D01*
X26259Y-22686D01*
X26192Y-22703D01*
X26141Y-22703D01*
X26074Y-22686D01*
X26040Y-22669D01*
X26006Y-22635D01*
X25989Y-22585D01*
X25989Y-22551D01*
X26006Y-22500D01*
X26023Y-22483D01*
X25989Y-22163D02*
X25989Y-22332D01*
X26158Y-22349D01*
X26141Y-22332D01*
X26124Y-22298D01*
X26124Y-22214D01*
X26141Y-22180D01*
X26158Y-22163D01*
X26192Y-22146D01*
X26276Y-22146D01*
X26310Y-22163D01*
X26326Y-22180D01*
X26343Y-22214D01*
X26343Y-22298D01*
X26326Y-22332D01*
X26310Y-22349D01*
X25543Y-23208D02*
X25375Y-23326D01*
X25543Y-23411D02*
X25189Y-23411D01*
X25189Y-23276D01*
X25206Y-23242D01*
X25223Y-23225D01*
X25257Y-23208D01*
X25307Y-23208D01*
X25341Y-23225D01*
X25358Y-23242D01*
X25375Y-23276D01*
X25375Y-23411D01*
X25307Y-22905D02*
X25543Y-22905D01*
X25172Y-22989D02*
X25425Y-23074D01*
X25425Y-22854D01*
X24918Y-21961D02*
X24564Y-21961D01*
X24564Y-21876D01*
X24581Y-21826D01*
X24615Y-21792D01*
X24649Y-21775D01*
X24716Y-21758D01*
X24767Y-21758D01*
X24834Y-21775D01*
X24868Y-21792D01*
X24901Y-21826D01*
X24918Y-21876D01*
X24918Y-21961D01*
X24918Y-21421D02*
X24918Y-21624D01*
X24918Y-21522D02*
X24564Y-21522D01*
X24615Y-21556D01*
X24649Y-21590D01*
X24665Y-21624D01*
X20589Y-20270D02*
X20876Y-20270D01*
X20910Y-20253D01*
X20926Y-20236D01*
X20943Y-20202D01*
X20943Y-20135D01*
X20926Y-20101D01*
X20910Y-20084D01*
X20876Y-20067D01*
X20589Y-20067D01*
X20943Y-19713D02*
X20943Y-19916D01*
X20943Y-19814D02*
X20589Y-19814D01*
X20640Y-19848D01*
X20674Y-19882D01*
X20690Y-19916D01*
%LPC*%
G54D16*
X26600Y-18460D03*
X26600Y-20940D03*
G54D17*
X24272Y-19300D03*
X23800Y-19300D03*
X23328Y-19300D03*
G54D18*
X28050Y-18000D03*
X27950Y-19000D03*
X28050Y-20000D03*
X27950Y-21000D03*
X28050Y-22000D03*
X16000Y-16950D03*
X17000Y-17050D03*
X18000Y-16950D03*
X19000Y-17050D03*
X20000Y-16950D03*
X21000Y-17050D03*
X22000Y-16950D03*
X23000Y-17050D03*
X24000Y-16950D03*
X25000Y-17050D03*
X26000Y-16950D03*
X27000Y-17050D03*
X28000Y-16950D03*
X29000Y-17050D03*
X16000Y-22950D03*
X17000Y-23050D03*
X18000Y-22992D03*
X19000Y-23050D03*
X20000Y-22950D03*
X21000Y-23050D03*
X22000Y-23050D03*
X23000Y-23050D03*
X24000Y-22950D03*
X25000Y-23050D03*
X26000Y-22950D03*
X27000Y-23050D03*
X28000Y-23050D03*
X29000Y-23050D03*
X29050Y-18000D03*
X28950Y-19000D03*
X29050Y-20000D03*
X28950Y-21000D03*
X29050Y-22000D03*
G54D19*
X11930Y-21377D03*
X11930Y-18623D03*
G54D20*
X12126Y-20393D03*
X12126Y-19607D03*
G54D21*
X17300Y-19700D03*
X17300Y-19100D03*
X18100Y-19700D03*
X18100Y-19100D03*
G54D22*
X17800Y-18600D03*
X17200Y-18600D03*
X17800Y-18000D03*
X17200Y-18000D03*
G54D21*
X18400Y-17900D03*
X18400Y-18500D03*
X19000Y-17900D03*
X19000Y-18500D03*
X23400Y-20500D03*
X23400Y-21100D03*
X25400Y-21100D03*
X25400Y-20500D03*
X24000Y-20500D03*
X24000Y-21100D03*
G54D23*
X24700Y-21095D03*
X24700Y-20505D03*
G54D24*
X21882Y-18308D03*
X21685Y-18308D03*
X21488Y-18308D03*
X21292Y-18308D03*
X21095Y-18308D03*
X20898Y-18308D03*
X20702Y-18308D03*
X20505Y-18308D03*
X20308Y-18308D03*
X20112Y-18308D03*
X19915Y-18308D03*
X19718Y-18308D03*
G54D25*
X19108Y-18918D03*
X19108Y-19115D03*
X19108Y-19312D03*
X19108Y-19508D03*
X19108Y-19705D03*
X19108Y-19902D03*
X19108Y-20098D03*
X19108Y-20295D03*
X19108Y-20492D03*
X19108Y-20688D03*
X19108Y-20885D03*
X19108Y-21082D03*
G54D24*
X19718Y-21692D03*
X19915Y-21692D03*
X20112Y-21692D03*
X20308Y-21692D03*
X20505Y-21692D03*
X20702Y-21692D03*
X20898Y-21692D03*
X21095Y-21692D03*
X21292Y-21692D03*
X21488Y-21692D03*
X21685Y-21692D03*
X21882Y-21692D03*
G54D25*
X22492Y-21082D03*
X22492Y-20885D03*
X22492Y-20688D03*
X22492Y-20492D03*
X22492Y-20295D03*
X22492Y-20098D03*
X22492Y-19902D03*
X22492Y-19705D03*
X22492Y-19508D03*
X22492Y-19312D03*
X22492Y-19115D03*
X22492Y-18918D03*
G54D18*
X15950Y-22000D03*
X16050Y-21000D03*
X15950Y-20000D03*
X16050Y-19000D03*
X15950Y-18000D03*
M02*
