M48
METRIC,TZ
T1C0.300
T2C1.016
%
G90
G05
T1
X41.910Y-54.585
X42.189Y-44.780
X43.815Y-52.476
X44.628Y-56.972
X45.672Y-51.130
X46.584Y-54.026
X46.711Y-47.320
X48.184Y-55.270
X48.336Y-52.629
X48.387Y-51.918
X48.590Y-50.241
X49.047Y-50.800
X49.327Y-56.083
X49.708Y-54.000
X50.571Y-52.172
X50.825Y-47.498
X50.851Y-48.641
X51.664Y-53.594
X52.832Y-53.899
X53.264Y-48.285
X53.848Y-53.442
X54.381Y-56.109
X54.585Y-53.340
X55.016Y-55.270
X55.474Y-46.888
X57.023Y-53.086
X59.461Y-51.867
X60.096Y-55.270
X60.731Y-55.601
X61.366Y-55.905
X69.393Y-48.489
X69.825Y-50.089
X69.926Y-56.261
T2
X40.513Y-50.800
X40.513Y-55.880
X40.602Y-45.822
X40.640Y-43.307
X40.640Y-58.547
X40.678Y-48.158
X40.767Y-53.340
X43.180Y-43.053
X43.180Y-58.293
X45.720Y-43.307
X45.720Y-58.547
X48.260Y-43.053
X48.260Y-58.293
X50.800Y-43.307
X50.800Y-58.547
X53.340Y-43.053
X53.340Y-58.293
X55.880Y-43.307
X55.880Y-58.547
X58.420Y-43.053
X58.420Y-58.293
X60.960Y-43.307
X60.960Y-58.547
X63.500Y-43.053
X63.500Y-58.293
X66.040Y-43.307
X66.040Y-58.547
X68.580Y-43.053
X68.580Y-58.293
X70.993Y-48.260
X70.993Y-53.340
X71.120Y-43.307
X71.120Y-58.547
X71.247Y-45.720
X71.247Y-50.800
X71.247Y-55.880
X73.533Y-48.260
X73.533Y-53.340
X73.660Y-43.053
X73.660Y-58.293
X73.787Y-45.720
X73.787Y-50.800
X73.787Y-55.880
T0
M30
