G04 (created by PCBNEW (2013-07-14 BZR 4242)-stable) date Sun 28 Jul 2013 01:40:19 AM CEST*
%MOIN*%
G04 Gerber Fmt 3.4, Leading zero omitted, Abs format*
%FSLAX34Y34*%
G01*
G70*
G90*
G04 APERTURE LIST*
%ADD10C,0.005906*%
%ADD11C,0.003900*%
%ADD12C,0.081800*%
%ADD13R,0.042800X0.070800*%
%ADD14R,0.052800X0.070800*%
%ADD15R,0.047200X0.033400*%
%ADD16R,0.037800X0.037800*%
%ADD17R,0.106200X0.047100*%
%ADD18C,0.134200*%
%ADD19R,0.086500X0.023500*%
%ADD20R,0.082600X0.090500*%
%ADD21R,0.070800X0.090500*%
%ADD22R,0.082600X0.082600*%
%ADD23R,0.032800X0.032800*%
%ADD24R,0.023500X0.032800*%
%ADD25R,0.070800X0.031800*%
%ADD26R,0.066100X0.030800*%
%ADD27R,0.047200X0.052800*%
%ADD28R,0.032800X0.052800*%
%ADD29R,0.062800X0.042800*%
%ADD30R,0.052800X0.032800*%
%ADD31R,0.042800X0.062800*%
%ADD32R,0.043200X0.052800*%
G04 APERTURE END LIST*
G54D10*
G54D11*
X29700Y-16300D02*
X29700Y-23700D01*
X29700Y-23700D02*
X15300Y-23700D01*
X15300Y-17630D02*
X15300Y-16300D01*
X15300Y-22374D02*
X15300Y-23700D01*
X29700Y-23700D02*
X15300Y-23700D01*
X29700Y-16300D02*
X29700Y-23700D01*
X15300Y-16300D02*
X29700Y-16300D01*
X10039Y-17630D02*
X15300Y-17630D01*
X10039Y-22374D02*
X15300Y-22374D01*
X10039Y-17630D02*
X10039Y-22374D01*
G54D12*
X26000Y-22050D03*
X27000Y-21950D03*
X28000Y-22050D03*
X29000Y-21950D03*
X24000Y-18000D03*
X25000Y-17900D03*
X26000Y-18000D03*
X27000Y-17900D03*
X28000Y-18000D03*
X29000Y-17900D03*
G54D13*
X27707Y-19657D03*
X26957Y-19657D03*
X26207Y-19657D03*
G54D14*
X27332Y-19657D03*
X26582Y-19657D03*
G54D15*
X17695Y-19340D03*
X17695Y-18590D03*
X18695Y-19340D03*
X17695Y-18965D03*
X18695Y-18590D03*
G54D16*
X16995Y-19465D03*
G54D17*
X19143Y-22244D03*
X19143Y-21378D03*
G54D18*
X25255Y-20413D03*
G54D19*
X11771Y-20000D03*
X11771Y-20255D03*
X11771Y-19489D03*
G54D20*
X10610Y-21516D03*
X10610Y-18484D03*
G54D19*
X11771Y-19745D03*
X11771Y-20511D03*
G54D21*
X11614Y-21220D03*
X11614Y-18780D03*
G54D22*
X10610Y-20472D03*
X10610Y-19528D03*
G54D12*
X16000Y-17050D03*
X17000Y-16950D03*
X18000Y-17050D03*
X19000Y-16950D03*
X20000Y-17050D03*
X21000Y-16950D03*
X22000Y-17050D03*
X23000Y-16950D03*
X24000Y-17050D03*
X25000Y-16950D03*
X26000Y-17050D03*
X27000Y-16950D03*
X28000Y-17050D03*
X29000Y-16950D03*
X16000Y-23050D03*
X17000Y-22950D03*
X18000Y-23050D03*
X19000Y-22950D03*
X20000Y-23050D03*
X21000Y-22950D03*
X22000Y-23050D03*
X23000Y-22950D03*
X24000Y-23050D03*
X25000Y-22950D03*
X26000Y-23050D03*
X27000Y-22950D03*
X28000Y-23050D03*
X29000Y-22950D03*
G54D23*
X14683Y-19890D03*
X15037Y-19890D03*
G54D24*
X14860Y-19890D03*
G54D23*
X14683Y-20690D03*
X15037Y-20690D03*
G54D24*
X14860Y-20690D03*
G54D25*
X20275Y-19372D03*
X20275Y-18872D03*
X20275Y-18372D03*
X20275Y-17872D03*
X22401Y-17872D03*
X22401Y-18372D03*
X22401Y-18872D03*
X22401Y-19372D03*
G54D26*
X19464Y-19372D03*
X19464Y-18872D03*
X19464Y-18372D03*
X19464Y-17872D03*
G54D27*
X18449Y-17965D03*
X17741Y-17965D03*
X18095Y-17965D03*
G54D28*
X18700Y-20000D03*
X18100Y-20000D03*
G54D29*
X16995Y-17890D03*
X16995Y-18640D03*
G54D30*
X23188Y-19394D03*
X23188Y-18794D03*
G54D27*
X20054Y-20000D03*
X19346Y-20000D03*
X19700Y-20000D03*
G54D23*
X14683Y-20290D03*
X15037Y-20290D03*
G54D24*
X14860Y-20290D03*
G54D12*
X15950Y-22000D03*
X16050Y-21000D03*
X15950Y-20000D03*
X16015Y-18960D03*
X15985Y-18040D03*
G54D31*
X29132Y-20957D03*
X28382Y-20957D03*
X27082Y-20957D03*
X27832Y-20957D03*
G54D23*
X27734Y-20257D03*
X27380Y-20257D03*
G54D24*
X27557Y-20257D03*
G54D28*
X17613Y-22165D03*
X18213Y-22165D03*
G54D32*
X17913Y-22165D03*
G54D28*
X17613Y-21456D03*
X18213Y-21456D03*
G54D32*
X17913Y-21456D03*
G54D28*
X17600Y-20700D03*
X18200Y-20700D03*
G54D32*
X17900Y-20700D03*
G54D28*
X18200Y-20700D03*
X18800Y-20700D03*
G54D15*
X29257Y-19482D03*
X29257Y-20232D03*
X28257Y-19482D03*
X29257Y-19857D03*
X28257Y-20232D03*
G54D16*
X17100Y-20100D03*
M02*
