G04 (created by PCBNEW-RS274X (2012-02-23 BZR 3434)-stable) date Fri 09 Mar 2012 12:48:31 AM CET*
G01*
G70*
G90*
%MOIN*%
G04 Gerber Fmt 3.4, Leading zero omitted, Abs format*
%FSLAX34Y34*%
G04 APERTURE LIST*
%ADD10C,0.006000*%
%ADD11C,0.005900*%
%ADD12C,0.003900*%
%ADD13C,0.074000*%
%ADD14R,0.024000X0.063000*%
%ADD15R,0.023000X0.058300*%
%ADD16R,0.045000X0.039400*%
%ADD17R,0.030000X0.030000*%
%ADD18R,0.074000X0.074000*%
%ADD19R,0.098400X0.019600*%
%ADD20R,0.098400X0.078700*%
%ADD21C,0.035400*%
%ADD22R,0.045000X0.025000*%
%ADD23R,0.039400X0.023600*%
%ADD24R,0.020000X0.030000*%
%ADD25R,0.025000X0.045000*%
%ADD26R,0.055000X0.035000*%
%ADD27R,0.063000X0.039400*%
%ADD28C,0.021700*%
%ADD29C,0.011800*%
G04 APERTURE END LIST*
G54D10*
G54D11*
X13923Y-17847D02*
X13906Y-17864D01*
X13889Y-17898D01*
X13889Y-17982D01*
X13906Y-18016D01*
X13923Y-18033D01*
X13957Y-18050D01*
X13990Y-18050D01*
X14041Y-18033D01*
X14243Y-17831D01*
X14243Y-18050D01*
X14226Y-18353D02*
X14243Y-18319D01*
X14243Y-18252D01*
X14226Y-18218D01*
X14210Y-18201D01*
X14176Y-18184D01*
X14075Y-18184D01*
X14041Y-18201D01*
X14024Y-18218D01*
X14007Y-18252D01*
X14007Y-18319D01*
X14024Y-18353D01*
X14243Y-21842D02*
X14075Y-21724D01*
X14243Y-21639D02*
X13889Y-21639D01*
X13889Y-21774D01*
X13906Y-21808D01*
X13923Y-21825D01*
X13957Y-21842D01*
X14007Y-21842D01*
X14041Y-21825D01*
X14058Y-21808D01*
X14075Y-21774D01*
X14075Y-21639D01*
X13923Y-21976D02*
X13906Y-21993D01*
X13889Y-22027D01*
X13889Y-22111D01*
X13906Y-22145D01*
X13923Y-22162D01*
X13957Y-22179D01*
X13990Y-22179D01*
X14041Y-22162D01*
X14243Y-21960D01*
X14243Y-22179D01*
G54D12*
X15300Y-17630D02*
X15300Y-16300D01*
X15300Y-22374D02*
X15300Y-23700D01*
X29700Y-23700D02*
X15300Y-23700D01*
X29700Y-16300D02*
X29700Y-23700D01*
X15300Y-16300D02*
X29700Y-16300D01*
X10039Y-17630D02*
X15300Y-17630D01*
X10039Y-22374D02*
X15300Y-22374D01*
X10039Y-17630D02*
X10039Y-22374D01*
G54D11*
X24457Y-18515D02*
X24063Y-18515D01*
X23170Y-20256D02*
X23170Y-19784D01*
X19200Y-21575D02*
X19200Y-21025D01*
G54D13*
X28050Y-18000D03*
X27950Y-19000D03*
X28050Y-20000D03*
X27950Y-21000D03*
X28050Y-22000D03*
G54D14*
X25379Y-18837D03*
X25879Y-18837D03*
X26379Y-18837D03*
X26879Y-18837D03*
X26879Y-20963D03*
X26379Y-20963D03*
X25879Y-20963D03*
X25379Y-20963D03*
G54D15*
X25379Y-18026D03*
X25879Y-18026D03*
X26379Y-18026D03*
X26879Y-18026D03*
G54D16*
X19925Y-21654D03*
X19925Y-20946D03*
G54D13*
X16000Y-16950D03*
X17000Y-17050D03*
X18000Y-16950D03*
X19000Y-17050D03*
X20000Y-16950D03*
X21000Y-17050D03*
X22000Y-16950D03*
X23000Y-17050D03*
X24000Y-16950D03*
X25000Y-17050D03*
X26000Y-16950D03*
X27000Y-17050D03*
X28000Y-16950D03*
X29000Y-17050D03*
X16000Y-22950D03*
X17000Y-23050D03*
X18000Y-22992D03*
X19000Y-23050D03*
X20000Y-22950D03*
X21000Y-23050D03*
X22000Y-23050D03*
X23000Y-23050D03*
X24000Y-22950D03*
X25000Y-23050D03*
X26000Y-22950D03*
X27000Y-23050D03*
X28000Y-23050D03*
X29000Y-23050D03*
X29050Y-18000D03*
X28950Y-19000D03*
X29050Y-20000D03*
X28950Y-21000D03*
X29050Y-22000D03*
G54D17*
X18435Y-21460D03*
G54D18*
X16000Y-21000D03*
G54D13*
X16000Y-20000D03*
X16000Y-19000D03*
X16000Y-18000D03*
X16000Y-22000D03*
G54D19*
X14984Y-20000D03*
X14984Y-20314D03*
X14984Y-19371D03*
X14984Y-19686D03*
G54D20*
X12819Y-21771D03*
X14984Y-21771D03*
X12819Y-18229D03*
X14984Y-18229D03*
G54D19*
X14984Y-20629D03*
G54D21*
X14000Y-20866D03*
X14000Y-19134D03*
G54D22*
X17700Y-19400D03*
X17700Y-18800D03*
X18300Y-19400D03*
X18300Y-18800D03*
G54D23*
X17774Y-22161D03*
X17774Y-21649D03*
X17026Y-21905D03*
G54D24*
X18475Y-20900D03*
X17725Y-20900D03*
X18475Y-19900D03*
X18100Y-20900D03*
X17725Y-19900D03*
G54D25*
X23960Y-18515D03*
X24560Y-18515D03*
G54D26*
X17100Y-21175D03*
X17100Y-20425D03*
G54D27*
X23170Y-20335D03*
X23170Y-19705D03*
X23170Y-19075D03*
G54D22*
X24764Y-21206D03*
X24764Y-20606D03*
G54D16*
X19200Y-21654D03*
X19200Y-20946D03*
G54D28*
X21645Y-21315D03*
X25587Y-18890D03*
X22415Y-20700D03*
X27531Y-20394D03*
X22355Y-21100D03*
X27315Y-20646D03*
X22650Y-21360D03*
X22575Y-20930D03*
X27280Y-20185D03*
X26850Y-22245D03*
X20845Y-20485D03*
X20890Y-20195D03*
X22020Y-20575D03*
X22575Y-20425D03*
X19040Y-19495D03*
X19165Y-20300D03*
X18775Y-19580D03*
X19170Y-20580D03*
X17245Y-18470D03*
X17980Y-18490D03*
G54D21*
X24305Y-19150D03*
X17335Y-22290D03*
X20395Y-19560D03*
G54D28*
X23843Y-22075D03*
G54D21*
X22210Y-19245D03*
X17440Y-20600D03*
G54D28*
X22803Y-22122D03*
X22602Y-22126D03*
X24173Y-20787D03*
G54D21*
X21645Y-19050D03*
G54D28*
X26171Y-18819D03*
G54D21*
X19480Y-22360D03*
G54D28*
X25413Y-20551D03*
G54D21*
X24820Y-18875D03*
X19505Y-17905D03*
G54D28*
X23150Y-21854D03*
G54D21*
X24575Y-17980D03*
X16595Y-19870D03*
X20720Y-19050D03*
X18450Y-22365D03*
G54D10*
X22825Y-19705D02*
X23170Y-19705D01*
X22438Y-20220D02*
X22715Y-20220D01*
X21645Y-20665D02*
X21935Y-20375D01*
X22715Y-20220D02*
X22760Y-20175D01*
X21935Y-20375D02*
X22283Y-20375D01*
X22760Y-19770D02*
X22825Y-19705D01*
X22760Y-20175D02*
X22760Y-19770D01*
X21645Y-21315D02*
X21645Y-20665D01*
X22283Y-20375D02*
X22438Y-20220D01*
X25432Y-18890D02*
X25379Y-18837D01*
X25657Y-18960D02*
X25657Y-19193D01*
X25657Y-19193D02*
X25757Y-19293D01*
X26130Y-21323D02*
X26130Y-19937D01*
X22983Y-21044D02*
X23498Y-21044D01*
X25587Y-18890D02*
X25657Y-18960D01*
X24469Y-21434D02*
X26019Y-21434D01*
X26019Y-21434D02*
X26130Y-21323D01*
X25587Y-18890D02*
X25432Y-18890D01*
X25379Y-18837D02*
X25379Y-18026D01*
X24206Y-21171D02*
X24469Y-21434D01*
X22639Y-20700D02*
X22983Y-21044D01*
X25757Y-19293D02*
X25757Y-19564D01*
X25757Y-19564D02*
X26130Y-19937D01*
X23625Y-21171D02*
X24206Y-21171D01*
X23498Y-21044D02*
X23625Y-21171D01*
X22415Y-20700D02*
X22639Y-20700D01*
X26225Y-21681D02*
X26630Y-21276D01*
X24372Y-21681D02*
X26225Y-21681D01*
X22407Y-21152D02*
X22726Y-21152D01*
X26630Y-21276D02*
X26630Y-20626D01*
X26862Y-20394D02*
X27531Y-20394D01*
X24106Y-21415D02*
X24372Y-21681D01*
X22726Y-21152D02*
X22862Y-21288D01*
X23525Y-21415D02*
X24106Y-21415D01*
X25879Y-18026D02*
X25879Y-18837D01*
X22862Y-21288D02*
X23398Y-21288D01*
X23398Y-21288D02*
X23525Y-21415D01*
X27189Y-19984D02*
X27374Y-19984D01*
X27531Y-20394D02*
X27531Y-20141D01*
X27374Y-19984D02*
X27531Y-20141D01*
X25879Y-19514D02*
X25879Y-18837D01*
X26472Y-20425D02*
X26834Y-20063D01*
X27110Y-20063D02*
X27189Y-19984D01*
X26834Y-20063D02*
X27110Y-20063D01*
X25879Y-19514D02*
X26252Y-19887D01*
X26252Y-20425D02*
X26472Y-20425D01*
X26252Y-19887D02*
X26252Y-20425D01*
X26630Y-20626D02*
X26862Y-20394D01*
X22355Y-21100D02*
X22407Y-21152D01*
X26306Y-21804D02*
X26879Y-21231D01*
X24323Y-21804D02*
X26306Y-21804D01*
X26879Y-20963D02*
X26998Y-20963D01*
X23475Y-21537D02*
X24056Y-21537D01*
X22700Y-21410D02*
X23348Y-21410D01*
X26879Y-21231D02*
X26879Y-20963D01*
X23348Y-21410D02*
X23475Y-21537D01*
X24056Y-21537D02*
X24323Y-21804D01*
X27315Y-20646D02*
X26998Y-20963D01*
X22650Y-21360D02*
X22700Y-21410D01*
X24423Y-21560D02*
X26111Y-21560D01*
X26379Y-21292D02*
X26379Y-20963D01*
X27280Y-20185D02*
X26884Y-20185D01*
X22575Y-20930D02*
X22676Y-20930D01*
X22912Y-21166D02*
X23448Y-21166D01*
X24156Y-21293D02*
X24423Y-21560D01*
X22676Y-20930D02*
X22912Y-21166D01*
X26111Y-21560D02*
X26379Y-21292D01*
X23448Y-21166D02*
X23575Y-21293D01*
X26379Y-20963D02*
X26379Y-20690D01*
X26884Y-20185D02*
X26379Y-20690D01*
X23575Y-21293D02*
X24156Y-21293D01*
X27000Y-22395D02*
X26850Y-22245D01*
X27000Y-22395D02*
X27000Y-23050D01*
X22000Y-23050D02*
X21652Y-22702D01*
X20930Y-20570D02*
X20845Y-20485D01*
X21320Y-22702D02*
X20930Y-22312D01*
X21652Y-22702D02*
X21320Y-22702D01*
X20930Y-22312D02*
X20930Y-20570D01*
X20808Y-22362D02*
X20808Y-20743D01*
X20635Y-20400D02*
X20840Y-20195D01*
X20635Y-20570D02*
X20635Y-20400D01*
X21000Y-23050D02*
X21000Y-22554D01*
X20840Y-20195D02*
X20890Y-20195D01*
X21000Y-22554D02*
X20808Y-22362D01*
X20808Y-20743D02*
X20635Y-20570D01*
X26980Y-21498D02*
X27102Y-21498D01*
X27102Y-21498D02*
X27244Y-21356D01*
X27244Y-21213D02*
X27457Y-21000D01*
X27457Y-21000D02*
X27950Y-21000D01*
X23248Y-21654D02*
X23375Y-21781D01*
X22020Y-20575D02*
X22033Y-20588D01*
X27244Y-21356D02*
X27244Y-21213D01*
X23375Y-21781D02*
X23956Y-21781D01*
X23956Y-21781D02*
X24223Y-22048D01*
X22033Y-21235D02*
X22480Y-21682D01*
X22033Y-20588D02*
X22033Y-21235D01*
X23051Y-21654D02*
X23248Y-21654D01*
X23023Y-21682D02*
X23051Y-21654D01*
X26430Y-22048D02*
X26980Y-21498D01*
X24223Y-22048D02*
X26430Y-22048D01*
X22480Y-21682D02*
X23023Y-21682D01*
X22531Y-21561D02*
X22967Y-21561D01*
X26920Y-21373D02*
X27055Y-21373D01*
X22155Y-20725D02*
X22155Y-21185D01*
X22215Y-20665D02*
X22155Y-20725D01*
X23298Y-21532D02*
X23425Y-21659D01*
X22405Y-20425D02*
X22215Y-20615D01*
X22575Y-20425D02*
X22405Y-20425D01*
X27055Y-21373D02*
X27122Y-21306D01*
X27122Y-21306D02*
X27122Y-21156D01*
X27122Y-21156D02*
X28050Y-20228D01*
X26367Y-21926D02*
X26920Y-21373D01*
X24006Y-21659D02*
X24273Y-21926D01*
X22215Y-20615D02*
X22215Y-20665D01*
X22155Y-21185D02*
X22531Y-21561D01*
X22967Y-21561D02*
X22996Y-21532D01*
X28050Y-20228D02*
X28050Y-20000D01*
X24273Y-21926D02*
X26367Y-21926D01*
X22996Y-21532D02*
X23298Y-21532D01*
X23425Y-21659D02*
X24006Y-21659D01*
X18897Y-19743D02*
X19040Y-19600D01*
X18897Y-19961D02*
X18897Y-19743D01*
X19040Y-19600D02*
X19040Y-19495D01*
X19165Y-20300D02*
X19165Y-20229D01*
X19165Y-20229D02*
X18897Y-19961D01*
X18965Y-20385D02*
X18965Y-20201D01*
X19170Y-20580D02*
X19160Y-20580D01*
X19160Y-20580D02*
X18965Y-20385D01*
X18775Y-20011D02*
X18775Y-19580D01*
X18965Y-20201D02*
X18775Y-20011D01*
X17245Y-18893D02*
X17245Y-18470D01*
X14984Y-20000D02*
X15405Y-20000D01*
X15890Y-19450D02*
X16963Y-19450D01*
X15890Y-19450D02*
X16000Y-19340D01*
X15570Y-19770D02*
X15890Y-19450D01*
X17077Y-19336D02*
X17077Y-19061D01*
X16000Y-19340D02*
X16000Y-19000D01*
X17077Y-19061D02*
X17245Y-18893D01*
X15570Y-19835D02*
X15570Y-19770D01*
X16963Y-19450D02*
X17077Y-19336D01*
X15405Y-20000D02*
X15570Y-19835D01*
X16070Y-20000D02*
X16490Y-19580D01*
X17199Y-19111D02*
X17375Y-18935D01*
X17004Y-19580D02*
X17199Y-19385D01*
X17199Y-19385D02*
X17199Y-19111D01*
X16490Y-19580D02*
X17004Y-19580D01*
X15686Y-20314D02*
X16000Y-20000D01*
X16000Y-20000D02*
X16070Y-20000D01*
X14984Y-20314D02*
X15686Y-20314D01*
X17515Y-18490D02*
X17980Y-18490D01*
X17375Y-18935D02*
X17375Y-18630D01*
X17375Y-18630D02*
X17515Y-18490D01*
G54D29*
X24305Y-19150D02*
X23960Y-18805D01*
X23960Y-18515D02*
X23960Y-18805D01*
X16980Y-19910D02*
X16710Y-20180D01*
X16000Y-20730D02*
X16000Y-21000D01*
X16710Y-20180D02*
X16550Y-20180D01*
X17143Y-19910D02*
X16980Y-19910D01*
X17725Y-19425D02*
X17700Y-19400D01*
X17653Y-19400D02*
X17143Y-19910D01*
X17700Y-19400D02*
X17653Y-19400D01*
X18255Y-20110D02*
X18315Y-20170D01*
X17725Y-19900D02*
X17725Y-19425D01*
X18155Y-19900D02*
X17725Y-19900D01*
X14984Y-20629D02*
X15629Y-20629D01*
X18805Y-21750D02*
X18805Y-20950D01*
X18155Y-19900D02*
X18255Y-20000D01*
X18315Y-20170D02*
X18720Y-20170D01*
X18231Y-21881D02*
X17999Y-21649D01*
X19200Y-20946D02*
X18805Y-20946D01*
X18720Y-20170D02*
X18805Y-20255D01*
X18231Y-21881D02*
X18674Y-21881D01*
X18674Y-21881D02*
X18805Y-21750D01*
X15629Y-20629D02*
X16000Y-21000D01*
X18805Y-20946D02*
X18801Y-20950D01*
X18805Y-20950D02*
X18805Y-20255D01*
X16550Y-20180D02*
X16000Y-20730D01*
X18255Y-20000D02*
X18255Y-20110D01*
X17774Y-21649D02*
X17999Y-21649D01*
X18801Y-20950D02*
X18805Y-20950D01*
X26975Y-21985D02*
X27500Y-22510D01*
X21000Y-19960D02*
X20190Y-19960D01*
X21383Y-22551D02*
X23709Y-22551D01*
X21081Y-22249D02*
X21383Y-22551D01*
X23709Y-22551D02*
X23803Y-22457D01*
X27500Y-22510D02*
X28540Y-22510D01*
X23803Y-22457D02*
X26263Y-22457D01*
X26263Y-22457D02*
X26735Y-21985D01*
X21135Y-20401D02*
X21135Y-20095D01*
X29050Y-22000D02*
X28540Y-22510D01*
X21135Y-20095D02*
X21000Y-19960D01*
X26735Y-21985D02*
X26975Y-21985D01*
X21081Y-20455D02*
X21135Y-20401D01*
X19925Y-20946D02*
X19925Y-20225D01*
X20190Y-19960D02*
X19925Y-20225D01*
X21081Y-20455D02*
X21081Y-22249D01*
X19200Y-22060D02*
X19865Y-22060D01*
X18224Y-22161D02*
X18325Y-22060D01*
X17774Y-22161D02*
X18224Y-22161D01*
X19865Y-22060D02*
X19925Y-22000D01*
X18325Y-22060D02*
X19200Y-22060D01*
X17464Y-22161D02*
X17774Y-22161D01*
X17335Y-22290D02*
X17464Y-22161D01*
X19200Y-22060D02*
X19200Y-21654D01*
X19925Y-22000D02*
X19925Y-21654D01*
X17100Y-21175D02*
X17100Y-21050D01*
X17100Y-21050D02*
X17250Y-20900D01*
X16095Y-21905D02*
X16000Y-22000D01*
X17026Y-21249D02*
X17100Y-21175D01*
X17250Y-20900D02*
X17725Y-20900D01*
X17026Y-21905D02*
X16095Y-21905D01*
X17026Y-21905D02*
X17026Y-21249D01*
G54D10*
X17430Y-20425D02*
X17440Y-20435D01*
X24173Y-20787D02*
X24016Y-20630D01*
X22799Y-22126D02*
X22803Y-22122D01*
X17100Y-20425D02*
X17430Y-20425D01*
X22602Y-22126D02*
X22799Y-22126D01*
X23170Y-19075D02*
X23170Y-18643D01*
X24016Y-20630D02*
X23858Y-20630D01*
X17440Y-20435D02*
X17440Y-20600D01*
X23170Y-18643D02*
X23169Y-18642D01*
G54D29*
X17100Y-20425D02*
X17265Y-20425D01*
G54D10*
X18475Y-20900D02*
X18475Y-21420D01*
X18475Y-21420D02*
X18435Y-21460D01*
X18300Y-19725D02*
X18475Y-19900D01*
X18300Y-19400D02*
X18300Y-19725D01*
G54D29*
X24409Y-21043D02*
X24409Y-21101D01*
X25136Y-21206D02*
X25379Y-20963D01*
X24820Y-18875D02*
X24820Y-20161D01*
G54D10*
X23268Y-20922D02*
X23548Y-20922D01*
X25379Y-20963D02*
X25379Y-20585D01*
X23170Y-20824D02*
X23268Y-20922D01*
G54D29*
X24560Y-18515D02*
X24560Y-18615D01*
X19359Y-22239D02*
X19480Y-22360D01*
X24560Y-18615D02*
X24820Y-18875D01*
X24575Y-17980D02*
X24560Y-17995D01*
X24514Y-21206D02*
X24764Y-21206D01*
X24409Y-20433D02*
X24409Y-21043D01*
G54D10*
X23548Y-20922D02*
X23669Y-21043D01*
G54D29*
X18576Y-22239D02*
X19359Y-22239D01*
G54D10*
X23170Y-20335D02*
X23170Y-20824D01*
G54D29*
X24409Y-21101D02*
X24514Y-21206D01*
G54D10*
X23669Y-21043D02*
X24409Y-21043D01*
G54D29*
X24488Y-20354D02*
X24409Y-20433D01*
G54D10*
X26171Y-18819D02*
X26361Y-18819D01*
X26379Y-18837D02*
X26379Y-18026D01*
X26361Y-18819D02*
X26379Y-18837D01*
G54D29*
X16595Y-19870D02*
X16734Y-19731D01*
X17350Y-19185D02*
X17435Y-19100D01*
X19505Y-18240D02*
X19505Y-17905D01*
X17350Y-19448D02*
X17350Y-19185D01*
G54D10*
X25379Y-20963D02*
X25879Y-20963D01*
G54D29*
X24820Y-20161D02*
X24627Y-20354D01*
X24627Y-20354D02*
X24488Y-20354D01*
X23150Y-22277D02*
X23150Y-21854D01*
X24764Y-21206D02*
X25136Y-21206D01*
X17067Y-19731D02*
X17350Y-19448D01*
X21645Y-19050D02*
X21645Y-20145D01*
X21645Y-19050D02*
X20720Y-19050D01*
X21260Y-20530D02*
X21645Y-20145D01*
X21260Y-20530D02*
X21260Y-22174D01*
X23055Y-22372D02*
X23150Y-22277D01*
G54D10*
X25379Y-20585D02*
X25413Y-20551D01*
G54D29*
X16734Y-19731D02*
X17067Y-19731D01*
X21260Y-22174D02*
X21458Y-22372D01*
X24560Y-17995D02*
X24560Y-18515D01*
X21458Y-22372D02*
X23055Y-22372D01*
X18645Y-19100D02*
X19505Y-18240D01*
X18450Y-22365D02*
X18576Y-22239D01*
X17435Y-19100D02*
X18645Y-19100D01*
G54D10*
G36*
X18646Y-20679D02*
X18639Y-20672D01*
X18623Y-20662D01*
X18605Y-20654D01*
X18585Y-20650D01*
X18566Y-20650D01*
X18365Y-20650D01*
X18346Y-20654D01*
X18328Y-20661D01*
X18311Y-20672D01*
X18297Y-20686D01*
X18287Y-20702D01*
X18281Y-20715D01*
X18278Y-20708D01*
X18268Y-20694D01*
X18256Y-20682D01*
X18242Y-20672D01*
X18226Y-20665D01*
X18209Y-20662D01*
X18151Y-20662D01*
X18129Y-20684D01*
X18129Y-20841D01*
X18129Y-20871D01*
X18129Y-20929D01*
X18129Y-20959D01*
X18129Y-21116D01*
X18151Y-21138D01*
X18209Y-21138D01*
X18226Y-21135D01*
X18242Y-21128D01*
X18256Y-21118D01*
X18268Y-21106D01*
X18278Y-21092D01*
X18281Y-21084D01*
X18286Y-21097D01*
X18297Y-21114D01*
X18311Y-21128D01*
X18327Y-21138D01*
X18345Y-21146D01*
X18345Y-21210D01*
X18275Y-21210D01*
X18256Y-21214D01*
X18238Y-21221D01*
X18221Y-21232D01*
X18207Y-21246D01*
X18197Y-21262D01*
X18189Y-21280D01*
X18185Y-21300D01*
X18185Y-21319D01*
X18185Y-21611D01*
X18116Y-21542D01*
X18113Y-21538D01*
X18111Y-21537D01*
X18089Y-21518D01*
X18087Y-21517D01*
X18067Y-21506D01*
X18067Y-21502D01*
X18060Y-21484D01*
X18049Y-21467D01*
X18035Y-21453D01*
X18019Y-21443D01*
X18001Y-21435D01*
X17981Y-21431D01*
X17962Y-21431D01*
X17567Y-21431D01*
X17548Y-21435D01*
X17530Y-21442D01*
X17513Y-21453D01*
X17499Y-21467D01*
X17489Y-21483D01*
X17481Y-21501D01*
X17477Y-21521D01*
X17477Y-21540D01*
X17477Y-21777D01*
X17481Y-21796D01*
X17488Y-21814D01*
X17499Y-21831D01*
X17513Y-21845D01*
X17529Y-21855D01*
X17547Y-21863D01*
X17567Y-21867D01*
X17586Y-21867D01*
X17981Y-21867D01*
X17990Y-21864D01*
X18113Y-21987D01*
X18117Y-21992D01*
X18119Y-21993D01*
X18129Y-22002D01*
X18062Y-22002D01*
X18060Y-21996D01*
X18049Y-21979D01*
X18035Y-21965D01*
X18019Y-21955D01*
X18001Y-21947D01*
X17981Y-21943D01*
X17962Y-21943D01*
X17567Y-21943D01*
X17548Y-21947D01*
X17530Y-21954D01*
X17513Y-21965D01*
X17499Y-21979D01*
X17489Y-21995D01*
X17485Y-22002D01*
X17466Y-22002D01*
X17464Y-22002D01*
X17433Y-22005D01*
X17403Y-22014D01*
X17394Y-22019D01*
X17393Y-22019D01*
X17364Y-22013D01*
X17323Y-22013D01*
X17323Y-21777D01*
X17319Y-21758D01*
X17312Y-21740D01*
X17301Y-21723D01*
X17287Y-21709D01*
X17271Y-21699D01*
X17253Y-21691D01*
X17233Y-21687D01*
X17214Y-21687D01*
X17185Y-21687D01*
X17185Y-21450D01*
X17385Y-21450D01*
X17404Y-21446D01*
X17422Y-21439D01*
X17439Y-21428D01*
X17453Y-21414D01*
X17463Y-21398D01*
X17471Y-21380D01*
X17475Y-21360D01*
X17475Y-21341D01*
X17475Y-21059D01*
X17525Y-21059D01*
X17525Y-21060D01*
X17529Y-21079D01*
X17536Y-21097D01*
X17547Y-21114D01*
X17561Y-21128D01*
X17577Y-21138D01*
X17595Y-21146D01*
X17615Y-21150D01*
X17634Y-21150D01*
X17835Y-21150D01*
X17854Y-21146D01*
X17872Y-21139D01*
X17889Y-21128D01*
X17903Y-21114D01*
X17913Y-21098D01*
X17918Y-21084D01*
X17922Y-21092D01*
X17932Y-21106D01*
X17944Y-21118D01*
X17958Y-21128D01*
X17974Y-21135D01*
X17991Y-21138D01*
X18049Y-21138D01*
X18071Y-21116D01*
X18071Y-20959D01*
X18071Y-20929D01*
X18071Y-20871D01*
X18071Y-20841D01*
X18071Y-20684D01*
X18049Y-20662D01*
X17991Y-20662D01*
X17974Y-20665D01*
X17958Y-20672D01*
X17944Y-20682D01*
X17932Y-20694D01*
X17922Y-20708D01*
X17918Y-20715D01*
X17914Y-20703D01*
X17903Y-20686D01*
X17889Y-20672D01*
X17873Y-20662D01*
X17855Y-20654D01*
X17835Y-20650D01*
X17816Y-20650D01*
X17615Y-20650D01*
X17596Y-20654D01*
X17578Y-20661D01*
X17561Y-20672D01*
X17547Y-20686D01*
X17537Y-20702D01*
X17529Y-20720D01*
X17525Y-20740D01*
X17525Y-20741D01*
X17463Y-20741D01*
X17463Y-20609D01*
X17463Y-20476D01*
X17463Y-20374D01*
X17463Y-20241D01*
X17460Y-20224D01*
X17453Y-20208D01*
X17443Y-20194D01*
X17431Y-20182D01*
X17417Y-20172D01*
X17401Y-20165D01*
X17384Y-20162D01*
X17367Y-20162D01*
X17151Y-20162D01*
X17129Y-20184D01*
X17129Y-20396D01*
X17441Y-20396D01*
X17463Y-20374D01*
X17463Y-20476D01*
X17441Y-20454D01*
X17129Y-20454D01*
X17129Y-20666D01*
X17151Y-20688D01*
X17367Y-20688D01*
X17384Y-20688D01*
X17401Y-20685D01*
X17417Y-20678D01*
X17431Y-20668D01*
X17443Y-20656D01*
X17453Y-20642D01*
X17460Y-20626D01*
X17463Y-20609D01*
X17463Y-20741D01*
X17252Y-20741D01*
X17250Y-20741D01*
X17219Y-20744D01*
X17203Y-20748D01*
X17191Y-20752D01*
X17189Y-20753D01*
X17163Y-20766D01*
X17139Y-20786D01*
X17138Y-20787D01*
X17137Y-20788D01*
X17071Y-20854D01*
X17071Y-20666D01*
X17071Y-20454D01*
X16759Y-20454D01*
X16737Y-20476D01*
X16737Y-20609D01*
X16740Y-20626D01*
X16747Y-20642D01*
X16757Y-20656D01*
X16769Y-20668D01*
X16783Y-20678D01*
X16799Y-20685D01*
X16816Y-20688D01*
X16833Y-20688D01*
X17049Y-20688D01*
X17071Y-20666D01*
X17071Y-20854D01*
X17025Y-20900D01*
X16815Y-20900D01*
X16796Y-20904D01*
X16778Y-20911D01*
X16761Y-20922D01*
X16747Y-20936D01*
X16737Y-20952D01*
X16729Y-20970D01*
X16725Y-20990D01*
X16725Y-21009D01*
X16725Y-21360D01*
X16729Y-21379D01*
X16736Y-21397D01*
X16747Y-21414D01*
X16761Y-21428D01*
X16777Y-21438D01*
X16795Y-21446D01*
X16815Y-21450D01*
X16834Y-21450D01*
X16867Y-21450D01*
X16867Y-21687D01*
X16819Y-21687D01*
X16800Y-21691D01*
X16782Y-21698D01*
X16765Y-21709D01*
X16751Y-21723D01*
X16741Y-21739D01*
X16737Y-21746D01*
X16395Y-21746D01*
X16366Y-21702D01*
X16301Y-21636D01*
X16225Y-21585D01*
X16140Y-21549D01*
X16049Y-21530D01*
X15957Y-21530D01*
X15867Y-21547D01*
X15781Y-21581D01*
X15704Y-21632D01*
X15638Y-21696D01*
X15586Y-21772D01*
X15576Y-21795D01*
X15576Y-21454D01*
X15582Y-21458D01*
X15600Y-21466D01*
X15620Y-21470D01*
X15639Y-21470D01*
X16380Y-21470D01*
X16399Y-21466D01*
X16417Y-21459D01*
X16434Y-21448D01*
X16448Y-21434D01*
X16458Y-21418D01*
X16466Y-21400D01*
X16470Y-21380D01*
X16470Y-21361D01*
X16470Y-20620D01*
X16466Y-20601D01*
X16459Y-20583D01*
X16448Y-20566D01*
X16434Y-20552D01*
X16418Y-20542D01*
X16414Y-20540D01*
X16615Y-20339D01*
X16708Y-20339D01*
X16710Y-20339D01*
X16737Y-20336D01*
X16737Y-20374D01*
X16759Y-20396D01*
X17071Y-20396D01*
X17071Y-20184D01*
X17049Y-20162D01*
X16952Y-20162D01*
X17045Y-20069D01*
X17141Y-20069D01*
X17143Y-20069D01*
X17172Y-20066D01*
X17174Y-20066D01*
X17190Y-20061D01*
X17202Y-20058D01*
X17204Y-20057D01*
X17230Y-20044D01*
X17231Y-20042D01*
X17254Y-20024D01*
X17254Y-20023D01*
X17255Y-20023D01*
X17255Y-20022D01*
X17259Y-20017D01*
X17525Y-19752D01*
X17525Y-19759D01*
X17525Y-20060D01*
X17529Y-20079D01*
X17536Y-20097D01*
X17547Y-20114D01*
X17561Y-20128D01*
X17577Y-20138D01*
X17595Y-20146D01*
X17615Y-20150D01*
X17634Y-20150D01*
X17835Y-20150D01*
X17854Y-20146D01*
X17872Y-20139D01*
X17889Y-20128D01*
X17903Y-20114D01*
X17913Y-20098D01*
X17921Y-20080D01*
X17925Y-20060D01*
X17925Y-20059D01*
X18089Y-20059D01*
X18096Y-20065D01*
X18096Y-20108D01*
X18096Y-20110D01*
X18099Y-20141D01*
X18103Y-20157D01*
X18107Y-20169D01*
X18108Y-20171D01*
X18121Y-20197D01*
X18141Y-20221D01*
X18142Y-20222D01*
X18143Y-20222D01*
X18147Y-20226D01*
X18200Y-20280D01*
X18201Y-20281D01*
X18202Y-20282D01*
X18225Y-20301D01*
X18226Y-20302D01*
X18234Y-20306D01*
X18252Y-20316D01*
X18254Y-20316D01*
X18282Y-20326D01*
X18313Y-20329D01*
X18315Y-20329D01*
X18646Y-20329D01*
X18646Y-20679D01*
X18646Y-20679D01*
G37*
G54D11*
X18646Y-20679D02*
X18639Y-20672D01*
X18623Y-20662D01*
X18605Y-20654D01*
X18585Y-20650D01*
X18566Y-20650D01*
X18365Y-20650D01*
X18346Y-20654D01*
X18328Y-20661D01*
X18311Y-20672D01*
X18297Y-20686D01*
X18287Y-20702D01*
X18281Y-20715D01*
X18278Y-20708D01*
X18268Y-20694D01*
X18256Y-20682D01*
X18242Y-20672D01*
X18226Y-20665D01*
X18209Y-20662D01*
X18151Y-20662D01*
X18129Y-20684D01*
X18129Y-20841D01*
X18129Y-20871D01*
X18129Y-20929D01*
X18129Y-20959D01*
X18129Y-21116D01*
X18151Y-21138D01*
X18209Y-21138D01*
X18226Y-21135D01*
X18242Y-21128D01*
X18256Y-21118D01*
X18268Y-21106D01*
X18278Y-21092D01*
X18281Y-21084D01*
X18286Y-21097D01*
X18297Y-21114D01*
X18311Y-21128D01*
X18327Y-21138D01*
X18345Y-21146D01*
X18345Y-21210D01*
X18275Y-21210D01*
X18256Y-21214D01*
X18238Y-21221D01*
X18221Y-21232D01*
X18207Y-21246D01*
X18197Y-21262D01*
X18189Y-21280D01*
X18185Y-21300D01*
X18185Y-21319D01*
X18185Y-21611D01*
X18116Y-21542D01*
X18113Y-21538D01*
X18111Y-21537D01*
X18089Y-21518D01*
X18087Y-21517D01*
X18067Y-21506D01*
X18067Y-21502D01*
X18060Y-21484D01*
X18049Y-21467D01*
X18035Y-21453D01*
X18019Y-21443D01*
X18001Y-21435D01*
X17981Y-21431D01*
X17962Y-21431D01*
X17567Y-21431D01*
X17548Y-21435D01*
X17530Y-21442D01*
X17513Y-21453D01*
X17499Y-21467D01*
X17489Y-21483D01*
X17481Y-21501D01*
X17477Y-21521D01*
X17477Y-21540D01*
X17477Y-21777D01*
X17481Y-21796D01*
X17488Y-21814D01*
X17499Y-21831D01*
X17513Y-21845D01*
X17529Y-21855D01*
X17547Y-21863D01*
X17567Y-21867D01*
X17586Y-21867D01*
X17981Y-21867D01*
X17990Y-21864D01*
X18113Y-21987D01*
X18117Y-21992D01*
X18119Y-21993D01*
X18129Y-22002D01*
X18062Y-22002D01*
X18060Y-21996D01*
X18049Y-21979D01*
X18035Y-21965D01*
X18019Y-21955D01*
X18001Y-21947D01*
X17981Y-21943D01*
X17962Y-21943D01*
X17567Y-21943D01*
X17548Y-21947D01*
X17530Y-21954D01*
X17513Y-21965D01*
X17499Y-21979D01*
X17489Y-21995D01*
X17485Y-22002D01*
X17466Y-22002D01*
X17464Y-22002D01*
X17433Y-22005D01*
X17403Y-22014D01*
X17394Y-22019D01*
X17393Y-22019D01*
X17364Y-22013D01*
X17323Y-22013D01*
X17323Y-21777D01*
X17319Y-21758D01*
X17312Y-21740D01*
X17301Y-21723D01*
X17287Y-21709D01*
X17271Y-21699D01*
X17253Y-21691D01*
X17233Y-21687D01*
X17214Y-21687D01*
X17185Y-21687D01*
X17185Y-21450D01*
X17385Y-21450D01*
X17404Y-21446D01*
X17422Y-21439D01*
X17439Y-21428D01*
X17453Y-21414D01*
X17463Y-21398D01*
X17471Y-21380D01*
X17475Y-21360D01*
X17475Y-21341D01*
X17475Y-21059D01*
X17525Y-21059D01*
X17525Y-21060D01*
X17529Y-21079D01*
X17536Y-21097D01*
X17547Y-21114D01*
X17561Y-21128D01*
X17577Y-21138D01*
X17595Y-21146D01*
X17615Y-21150D01*
X17634Y-21150D01*
X17835Y-21150D01*
X17854Y-21146D01*
X17872Y-21139D01*
X17889Y-21128D01*
X17903Y-21114D01*
X17913Y-21098D01*
X17918Y-21084D01*
X17922Y-21092D01*
X17932Y-21106D01*
X17944Y-21118D01*
X17958Y-21128D01*
X17974Y-21135D01*
X17991Y-21138D01*
X18049Y-21138D01*
X18071Y-21116D01*
X18071Y-20959D01*
X18071Y-20929D01*
X18071Y-20871D01*
X18071Y-20841D01*
X18071Y-20684D01*
X18049Y-20662D01*
X17991Y-20662D01*
X17974Y-20665D01*
X17958Y-20672D01*
X17944Y-20682D01*
X17932Y-20694D01*
X17922Y-20708D01*
X17918Y-20715D01*
X17914Y-20703D01*
X17903Y-20686D01*
X17889Y-20672D01*
X17873Y-20662D01*
X17855Y-20654D01*
X17835Y-20650D01*
X17816Y-20650D01*
X17615Y-20650D01*
X17596Y-20654D01*
X17578Y-20661D01*
X17561Y-20672D01*
X17547Y-20686D01*
X17537Y-20702D01*
X17529Y-20720D01*
X17525Y-20740D01*
X17525Y-20741D01*
X17463Y-20741D01*
X17463Y-20609D01*
X17463Y-20476D01*
X17463Y-20374D01*
X17463Y-20241D01*
X17460Y-20224D01*
X17453Y-20208D01*
X17443Y-20194D01*
X17431Y-20182D01*
X17417Y-20172D01*
X17401Y-20165D01*
X17384Y-20162D01*
X17367Y-20162D01*
X17151Y-20162D01*
X17129Y-20184D01*
X17129Y-20396D01*
X17441Y-20396D01*
X17463Y-20374D01*
X17463Y-20476D01*
X17441Y-20454D01*
X17129Y-20454D01*
X17129Y-20666D01*
X17151Y-20688D01*
X17367Y-20688D01*
X17384Y-20688D01*
X17401Y-20685D01*
X17417Y-20678D01*
X17431Y-20668D01*
X17443Y-20656D01*
X17453Y-20642D01*
X17460Y-20626D01*
X17463Y-20609D01*
X17463Y-20741D01*
X17252Y-20741D01*
X17250Y-20741D01*
X17219Y-20744D01*
X17203Y-20748D01*
X17191Y-20752D01*
X17189Y-20753D01*
X17163Y-20766D01*
X17139Y-20786D01*
X17138Y-20787D01*
X17137Y-20788D01*
X17071Y-20854D01*
X17071Y-20666D01*
X17071Y-20454D01*
X16759Y-20454D01*
X16737Y-20476D01*
X16737Y-20609D01*
X16740Y-20626D01*
X16747Y-20642D01*
X16757Y-20656D01*
X16769Y-20668D01*
X16783Y-20678D01*
X16799Y-20685D01*
X16816Y-20688D01*
X16833Y-20688D01*
X17049Y-20688D01*
X17071Y-20666D01*
X17071Y-20854D01*
X17025Y-20900D01*
X16815Y-20900D01*
X16796Y-20904D01*
X16778Y-20911D01*
X16761Y-20922D01*
X16747Y-20936D01*
X16737Y-20952D01*
X16729Y-20970D01*
X16725Y-20990D01*
X16725Y-21009D01*
X16725Y-21360D01*
X16729Y-21379D01*
X16736Y-21397D01*
X16747Y-21414D01*
X16761Y-21428D01*
X16777Y-21438D01*
X16795Y-21446D01*
X16815Y-21450D01*
X16834Y-21450D01*
X16867Y-21450D01*
X16867Y-21687D01*
X16819Y-21687D01*
X16800Y-21691D01*
X16782Y-21698D01*
X16765Y-21709D01*
X16751Y-21723D01*
X16741Y-21739D01*
X16737Y-21746D01*
X16395Y-21746D01*
X16366Y-21702D01*
X16301Y-21636D01*
X16225Y-21585D01*
X16140Y-21549D01*
X16049Y-21530D01*
X15957Y-21530D01*
X15867Y-21547D01*
X15781Y-21581D01*
X15704Y-21632D01*
X15638Y-21696D01*
X15586Y-21772D01*
X15576Y-21795D01*
X15576Y-21454D01*
X15582Y-21458D01*
X15600Y-21466D01*
X15620Y-21470D01*
X15639Y-21470D01*
X16380Y-21470D01*
X16399Y-21466D01*
X16417Y-21459D01*
X16434Y-21448D01*
X16448Y-21434D01*
X16458Y-21418D01*
X16466Y-21400D01*
X16470Y-21380D01*
X16470Y-21361D01*
X16470Y-20620D01*
X16466Y-20601D01*
X16459Y-20583D01*
X16448Y-20566D01*
X16434Y-20552D01*
X16418Y-20542D01*
X16414Y-20540D01*
X16615Y-20339D01*
X16708Y-20339D01*
X16710Y-20339D01*
X16737Y-20336D01*
X16737Y-20374D01*
X16759Y-20396D01*
X17071Y-20396D01*
X17071Y-20184D01*
X17049Y-20162D01*
X16952Y-20162D01*
X17045Y-20069D01*
X17141Y-20069D01*
X17143Y-20069D01*
X17172Y-20066D01*
X17174Y-20066D01*
X17190Y-20061D01*
X17202Y-20058D01*
X17204Y-20057D01*
X17230Y-20044D01*
X17231Y-20042D01*
X17254Y-20024D01*
X17254Y-20023D01*
X17255Y-20023D01*
X17255Y-20022D01*
X17259Y-20017D01*
X17525Y-19752D01*
X17525Y-19759D01*
X17525Y-20060D01*
X17529Y-20079D01*
X17536Y-20097D01*
X17547Y-20114D01*
X17561Y-20128D01*
X17577Y-20138D01*
X17595Y-20146D01*
X17615Y-20150D01*
X17634Y-20150D01*
X17835Y-20150D01*
X17854Y-20146D01*
X17872Y-20139D01*
X17889Y-20128D01*
X17903Y-20114D01*
X17913Y-20098D01*
X17921Y-20080D01*
X17925Y-20060D01*
X17925Y-20059D01*
X18089Y-20059D01*
X18096Y-20065D01*
X18096Y-20108D01*
X18096Y-20110D01*
X18099Y-20141D01*
X18103Y-20157D01*
X18107Y-20169D01*
X18108Y-20171D01*
X18121Y-20197D01*
X18141Y-20221D01*
X18142Y-20222D01*
X18143Y-20222D01*
X18147Y-20226D01*
X18200Y-20280D01*
X18201Y-20281D01*
X18202Y-20282D01*
X18225Y-20301D01*
X18226Y-20302D01*
X18234Y-20306D01*
X18252Y-20316D01*
X18254Y-20316D01*
X18282Y-20326D01*
X18313Y-20329D01*
X18315Y-20329D01*
X18646Y-20329D01*
X18646Y-20679D01*
G54D10*
G36*
X26317Y-22178D02*
X26197Y-22298D01*
X24786Y-22298D01*
X23803Y-22298D01*
X23772Y-22301D01*
X23742Y-22310D01*
X23728Y-22317D01*
X23715Y-22324D01*
X23691Y-22344D01*
X23690Y-22345D01*
X23643Y-22392D01*
X23573Y-22392D01*
X23259Y-22392D01*
X23260Y-22391D01*
X23261Y-22391D01*
X23261Y-22390D01*
X23262Y-22390D01*
X23281Y-22367D01*
X23282Y-22366D01*
X23294Y-22343D01*
X23296Y-22340D01*
X23296Y-22339D01*
X23297Y-22338D01*
X23298Y-22333D01*
X23306Y-22310D01*
X23309Y-22279D01*
X23309Y-22278D01*
X23309Y-22277D01*
X23309Y-21989D01*
X23331Y-21958D01*
X23348Y-21920D01*
X23350Y-21908D01*
X23373Y-21911D01*
X23375Y-21911D01*
X23573Y-21911D01*
X23902Y-21911D01*
X24130Y-22139D01*
X24131Y-22140D01*
X24150Y-22156D01*
X24172Y-22167D01*
X24173Y-22168D01*
X24189Y-22172D01*
X24196Y-22175D01*
X24197Y-22175D01*
X24221Y-22178D01*
X24223Y-22178D01*
X24786Y-22178D01*
X26317Y-22178D01*
X26317Y-22178D01*
G37*
G54D11*
X26317Y-22178D02*
X26197Y-22298D01*
X24786Y-22298D01*
X23803Y-22298D01*
X23772Y-22301D01*
X23742Y-22310D01*
X23728Y-22317D01*
X23715Y-22324D01*
X23691Y-22344D01*
X23690Y-22345D01*
X23643Y-22392D01*
X23573Y-22392D01*
X23259Y-22392D01*
X23260Y-22391D01*
X23261Y-22391D01*
X23261Y-22390D01*
X23262Y-22390D01*
X23281Y-22367D01*
X23282Y-22366D01*
X23294Y-22343D01*
X23296Y-22340D01*
X23296Y-22339D01*
X23297Y-22338D01*
X23298Y-22333D01*
X23306Y-22310D01*
X23309Y-22279D01*
X23309Y-22278D01*
X23309Y-22277D01*
X23309Y-21989D01*
X23331Y-21958D01*
X23348Y-21920D01*
X23350Y-21908D01*
X23373Y-21911D01*
X23375Y-21911D01*
X23573Y-21911D01*
X23902Y-21911D01*
X24130Y-22139D01*
X24131Y-22140D01*
X24150Y-22156D01*
X24172Y-22167D01*
X24173Y-22168D01*
X24189Y-22172D01*
X24196Y-22175D01*
X24197Y-22175D01*
X24221Y-22178D01*
X24223Y-22178D01*
X24786Y-22178D01*
X26317Y-22178D01*
G54D10*
G36*
X29581Y-23384D02*
X29470Y-23495D01*
X29470Y-23004D01*
X29452Y-22914D01*
X29417Y-22828D01*
X29366Y-22752D01*
X29301Y-22686D01*
X29225Y-22635D01*
X29140Y-22599D01*
X29049Y-22580D01*
X28957Y-22580D01*
X28867Y-22597D01*
X28781Y-22631D01*
X28704Y-22682D01*
X28638Y-22746D01*
X28586Y-22822D01*
X28550Y-22907D01*
X28531Y-22997D01*
X28529Y-23089D01*
X28546Y-23180D01*
X28580Y-23266D01*
X28630Y-23343D01*
X28694Y-23410D01*
X28770Y-23462D01*
X28854Y-23499D01*
X28944Y-23519D01*
X29036Y-23521D01*
X29127Y-23505D01*
X29213Y-23472D01*
X29291Y-23422D01*
X29357Y-23359D01*
X29411Y-23283D01*
X29448Y-23199D01*
X29469Y-23109D01*
X29470Y-23004D01*
X29470Y-23495D01*
X29384Y-23581D01*
X24786Y-23581D01*
X23573Y-23581D01*
X20470Y-23581D01*
X20470Y-22904D01*
X20452Y-22814D01*
X20417Y-22728D01*
X20366Y-22652D01*
X20301Y-22586D01*
X20239Y-22544D01*
X20225Y-22535D01*
X20140Y-22499D01*
X20049Y-22480D01*
X19957Y-22480D01*
X19867Y-22497D01*
X19781Y-22531D01*
X19704Y-22582D01*
X19638Y-22646D01*
X19586Y-22722D01*
X19550Y-22807D01*
X19531Y-22897D01*
X19529Y-22989D01*
X19546Y-23080D01*
X19580Y-23166D01*
X19630Y-23243D01*
X19694Y-23310D01*
X19770Y-23362D01*
X19854Y-23399D01*
X19944Y-23419D01*
X20036Y-23421D01*
X20127Y-23405D01*
X20213Y-23372D01*
X20239Y-23355D01*
X20291Y-23322D01*
X20357Y-23259D01*
X20411Y-23183D01*
X20448Y-23099D01*
X20469Y-23009D01*
X20470Y-22904D01*
X20470Y-23581D01*
X20239Y-23581D01*
X19514Y-23581D01*
X19470Y-23581D01*
X19470Y-23004D01*
X19452Y-22914D01*
X19417Y-22828D01*
X19366Y-22752D01*
X19301Y-22686D01*
X19225Y-22635D01*
X19140Y-22599D01*
X19049Y-22580D01*
X18957Y-22580D01*
X18867Y-22597D01*
X18781Y-22631D01*
X18704Y-22682D01*
X18638Y-22746D01*
X18586Y-22822D01*
X18550Y-22907D01*
X18531Y-22997D01*
X18529Y-23089D01*
X18546Y-23180D01*
X18580Y-23266D01*
X18630Y-23343D01*
X18694Y-23410D01*
X18770Y-23462D01*
X18854Y-23499D01*
X18944Y-23519D01*
X19036Y-23521D01*
X19127Y-23505D01*
X19213Y-23472D01*
X19291Y-23422D01*
X19357Y-23359D01*
X19411Y-23283D01*
X19448Y-23199D01*
X19469Y-23109D01*
X19470Y-23004D01*
X19470Y-23581D01*
X18470Y-23581D01*
X18470Y-22946D01*
X18452Y-22856D01*
X18417Y-22770D01*
X18366Y-22694D01*
X18301Y-22628D01*
X18225Y-22577D01*
X18140Y-22541D01*
X18049Y-22522D01*
X17957Y-22522D01*
X17867Y-22539D01*
X17781Y-22573D01*
X17704Y-22624D01*
X17638Y-22688D01*
X17586Y-22764D01*
X17550Y-22849D01*
X17531Y-22939D01*
X17529Y-23031D01*
X17546Y-23122D01*
X17580Y-23208D01*
X17630Y-23285D01*
X17694Y-23352D01*
X17770Y-23404D01*
X17854Y-23441D01*
X17944Y-23461D01*
X18036Y-23463D01*
X18127Y-23447D01*
X18213Y-23414D01*
X18291Y-23364D01*
X18357Y-23301D01*
X18411Y-23225D01*
X18448Y-23141D01*
X18469Y-23051D01*
X18470Y-22946D01*
X18470Y-23581D01*
X17458Y-23581D01*
X17458Y-23040D01*
X17448Y-22952D01*
X17420Y-22866D01*
X17387Y-22805D01*
X17328Y-22763D01*
X17287Y-22804D01*
X17287Y-22722D01*
X17245Y-22663D01*
X17165Y-22623D01*
X17079Y-22599D01*
X16990Y-22592D01*
X16902Y-22602D01*
X16816Y-22630D01*
X16755Y-22663D01*
X16713Y-22722D01*
X17000Y-23009D01*
X17287Y-22722D01*
X17287Y-22804D01*
X17041Y-23050D01*
X17328Y-23337D01*
X17387Y-23295D01*
X17427Y-23215D01*
X17451Y-23129D01*
X17458Y-23040D01*
X17458Y-23581D01*
X17287Y-23581D01*
X17287Y-23378D01*
X17000Y-23091D01*
X16959Y-23132D01*
X16959Y-23050D01*
X16672Y-22763D01*
X16613Y-22805D01*
X16573Y-22885D01*
X16549Y-22971D01*
X16542Y-23060D01*
X16552Y-23148D01*
X16580Y-23234D01*
X16613Y-23295D01*
X16672Y-23337D01*
X16959Y-23050D01*
X16959Y-23132D01*
X16713Y-23378D01*
X16755Y-23437D01*
X16835Y-23477D01*
X16921Y-23501D01*
X17010Y-23508D01*
X17098Y-23498D01*
X17184Y-23470D01*
X17245Y-23437D01*
X17287Y-23378D01*
X17287Y-23581D01*
X16470Y-23581D01*
X16470Y-22904D01*
X16452Y-22814D01*
X16417Y-22728D01*
X16366Y-22652D01*
X16301Y-22586D01*
X16225Y-22535D01*
X16140Y-22499D01*
X16049Y-22480D01*
X15957Y-22480D01*
X15867Y-22497D01*
X15781Y-22531D01*
X15704Y-22582D01*
X15638Y-22646D01*
X15586Y-22722D01*
X15550Y-22807D01*
X15531Y-22897D01*
X15529Y-22989D01*
X15546Y-23080D01*
X15580Y-23166D01*
X15630Y-23243D01*
X15694Y-23310D01*
X15770Y-23362D01*
X15854Y-23399D01*
X15944Y-23419D01*
X16036Y-23421D01*
X16127Y-23405D01*
X16213Y-23372D01*
X16291Y-23322D01*
X16357Y-23259D01*
X16411Y-23183D01*
X16448Y-23099D01*
X16469Y-23009D01*
X16470Y-22904D01*
X16470Y-23581D01*
X15616Y-23581D01*
X15419Y-23384D01*
X15419Y-22375D01*
X15419Y-22374D01*
X15417Y-22352D01*
X15417Y-22351D01*
X15410Y-22329D01*
X15400Y-22309D01*
X15399Y-22308D01*
X15385Y-22291D01*
X15384Y-22290D01*
X15367Y-22275D01*
X15347Y-22265D01*
X15346Y-22264D01*
X15486Y-22264D01*
X15505Y-22260D01*
X15523Y-22253D01*
X15540Y-22242D01*
X15554Y-22228D01*
X15564Y-22212D01*
X15571Y-22194D01*
X15580Y-22216D01*
X15630Y-22293D01*
X15694Y-22360D01*
X15770Y-22412D01*
X15854Y-22449D01*
X15944Y-22469D01*
X16036Y-22471D01*
X16127Y-22455D01*
X16213Y-22422D01*
X16291Y-22372D01*
X16357Y-22309D01*
X16411Y-22233D01*
X16448Y-22149D01*
X16467Y-22064D01*
X16737Y-22064D01*
X16740Y-22070D01*
X16751Y-22087D01*
X16765Y-22101D01*
X16781Y-22111D01*
X16799Y-22119D01*
X16819Y-22123D01*
X16838Y-22123D01*
X17113Y-22123D01*
X17091Y-22156D01*
X17070Y-22206D01*
X17058Y-22259D01*
X17058Y-22313D01*
X17067Y-22367D01*
X17087Y-22417D01*
X17117Y-22463D01*
X17154Y-22502D01*
X17199Y-22533D01*
X17249Y-22555D01*
X17302Y-22566D01*
X17356Y-22568D01*
X17410Y-22558D01*
X17460Y-22538D01*
X17506Y-22509D01*
X17546Y-22472D01*
X17577Y-22428D01*
X17598Y-22379D01*
X17981Y-22379D01*
X18000Y-22375D01*
X18018Y-22368D01*
X18035Y-22357D01*
X18049Y-22343D01*
X18059Y-22327D01*
X18062Y-22320D01*
X18176Y-22320D01*
X18173Y-22334D01*
X18173Y-22388D01*
X18182Y-22442D01*
X18202Y-22492D01*
X18232Y-22538D01*
X18269Y-22577D01*
X18314Y-22608D01*
X18364Y-22630D01*
X18417Y-22641D01*
X18471Y-22643D01*
X18525Y-22633D01*
X18575Y-22613D01*
X18621Y-22584D01*
X18661Y-22547D01*
X18692Y-22503D01*
X18714Y-22453D01*
X18726Y-22400D01*
X18726Y-22398D01*
X19205Y-22398D01*
X19212Y-22437D01*
X19232Y-22487D01*
X19262Y-22533D01*
X19299Y-22572D01*
X19344Y-22603D01*
X19394Y-22625D01*
X19447Y-22636D01*
X19501Y-22638D01*
X19514Y-22635D01*
X19555Y-22628D01*
X19605Y-22608D01*
X19651Y-22579D01*
X19691Y-22542D01*
X19722Y-22498D01*
X19744Y-22448D01*
X19756Y-22395D01*
X19757Y-22333D01*
X19746Y-22280D01*
X19726Y-22229D01*
X19719Y-22219D01*
X19863Y-22219D01*
X19865Y-22219D01*
X19894Y-22216D01*
X19896Y-22216D01*
X19912Y-22211D01*
X19924Y-22208D01*
X19926Y-22207D01*
X19952Y-22194D01*
X19953Y-22192D01*
X19976Y-22174D01*
X19976Y-22173D01*
X19977Y-22173D01*
X19977Y-22172D01*
X19981Y-22167D01*
X20035Y-22114D01*
X20036Y-22114D01*
X20036Y-22113D01*
X20037Y-22113D01*
X20056Y-22090D01*
X20057Y-22089D01*
X20061Y-22081D01*
X20071Y-22063D01*
X20071Y-22061D01*
X20081Y-22033D01*
X20084Y-22002D01*
X20084Y-22000D01*
X20084Y-21951D01*
X20160Y-21951D01*
X20179Y-21947D01*
X20197Y-21940D01*
X20214Y-21929D01*
X20228Y-21915D01*
X20238Y-21899D01*
X20239Y-21896D01*
X20246Y-21881D01*
X20250Y-21861D01*
X20250Y-21842D01*
X20250Y-21447D01*
X20246Y-21428D01*
X20239Y-21410D01*
X20239Y-21188D01*
X20246Y-21173D01*
X20250Y-21153D01*
X20250Y-21134D01*
X20250Y-20739D01*
X20246Y-20720D01*
X20239Y-20702D01*
X20228Y-20685D01*
X20214Y-20671D01*
X20198Y-20661D01*
X20180Y-20653D01*
X20160Y-20649D01*
X20141Y-20649D01*
X20084Y-20649D01*
X20084Y-20290D01*
X20255Y-20119D01*
X20696Y-20119D01*
X20691Y-20131D01*
X20682Y-20168D01*
X20544Y-20307D01*
X20543Y-20308D01*
X20527Y-20327D01*
X20516Y-20349D01*
X20515Y-20351D01*
X20512Y-20359D01*
X20508Y-20373D01*
X20505Y-20398D01*
X20505Y-20400D01*
X20505Y-20569D01*
X20505Y-20570D01*
X20507Y-20595D01*
X20515Y-20620D01*
X20522Y-20634D01*
X20526Y-20641D01*
X20527Y-20642D01*
X20542Y-20661D01*
X20543Y-20662D01*
X20678Y-20796D01*
X20678Y-22361D01*
X20678Y-22362D01*
X20680Y-22387D01*
X20688Y-22412D01*
X20695Y-22426D01*
X20699Y-22433D01*
X20700Y-22434D01*
X20715Y-22453D01*
X20716Y-22454D01*
X20861Y-22599D01*
X20781Y-22631D01*
X20704Y-22682D01*
X20638Y-22746D01*
X20586Y-22822D01*
X20550Y-22907D01*
X20531Y-22997D01*
X20529Y-23089D01*
X20546Y-23180D01*
X20580Y-23266D01*
X20630Y-23343D01*
X20694Y-23410D01*
X20770Y-23462D01*
X20854Y-23499D01*
X20944Y-23519D01*
X21036Y-23521D01*
X21127Y-23505D01*
X21213Y-23472D01*
X21291Y-23422D01*
X21357Y-23359D01*
X21411Y-23283D01*
X21448Y-23199D01*
X21469Y-23109D01*
X21470Y-23004D01*
X21452Y-22914D01*
X21418Y-22832D01*
X21581Y-22832D01*
X21550Y-22907D01*
X21531Y-22997D01*
X21529Y-23089D01*
X21546Y-23180D01*
X21580Y-23266D01*
X21630Y-23343D01*
X21694Y-23410D01*
X21770Y-23462D01*
X21854Y-23499D01*
X21944Y-23519D01*
X22036Y-23521D01*
X22127Y-23505D01*
X22213Y-23472D01*
X22291Y-23422D01*
X22357Y-23359D01*
X22411Y-23283D01*
X22448Y-23199D01*
X22469Y-23109D01*
X22470Y-23004D01*
X22452Y-22914D01*
X22417Y-22828D01*
X22366Y-22752D01*
X22324Y-22710D01*
X22675Y-22710D01*
X22638Y-22746D01*
X22586Y-22822D01*
X22550Y-22907D01*
X22531Y-22997D01*
X22529Y-23089D01*
X22546Y-23180D01*
X22580Y-23266D01*
X22630Y-23343D01*
X22694Y-23410D01*
X22770Y-23462D01*
X22854Y-23499D01*
X22944Y-23519D01*
X23036Y-23521D01*
X23127Y-23505D01*
X23213Y-23472D01*
X23291Y-23422D01*
X23357Y-23359D01*
X23411Y-23283D01*
X23448Y-23199D01*
X23469Y-23109D01*
X23470Y-23004D01*
X23452Y-22914D01*
X23417Y-22828D01*
X23366Y-22752D01*
X23324Y-22710D01*
X23573Y-22710D01*
X23594Y-22710D01*
X23586Y-22722D01*
X23573Y-22752D01*
X23550Y-22807D01*
X23531Y-22897D01*
X23529Y-22989D01*
X23546Y-23080D01*
X23573Y-23148D01*
X23580Y-23166D01*
X23630Y-23243D01*
X23694Y-23310D01*
X23770Y-23362D01*
X23854Y-23399D01*
X23944Y-23419D01*
X24036Y-23421D01*
X24127Y-23405D01*
X24213Y-23372D01*
X24291Y-23322D01*
X24357Y-23259D01*
X24411Y-23183D01*
X24448Y-23099D01*
X24469Y-23009D01*
X24470Y-22904D01*
X24452Y-22814D01*
X24417Y-22728D01*
X24366Y-22652D01*
X24330Y-22616D01*
X24786Y-22616D01*
X24818Y-22616D01*
X24786Y-22629D01*
X24781Y-22631D01*
X24704Y-22682D01*
X24638Y-22746D01*
X24586Y-22822D01*
X24550Y-22907D01*
X24531Y-22997D01*
X24529Y-23089D01*
X24546Y-23180D01*
X24580Y-23266D01*
X24630Y-23343D01*
X24694Y-23410D01*
X24770Y-23462D01*
X24786Y-23469D01*
X24854Y-23499D01*
X24944Y-23519D01*
X25036Y-23521D01*
X25127Y-23505D01*
X25213Y-23472D01*
X25291Y-23422D01*
X25357Y-23359D01*
X25411Y-23283D01*
X25448Y-23199D01*
X25469Y-23109D01*
X25470Y-23004D01*
X25452Y-22914D01*
X25417Y-22828D01*
X25366Y-22752D01*
X25301Y-22686D01*
X25225Y-22635D01*
X25180Y-22616D01*
X25668Y-22616D01*
X25638Y-22646D01*
X25586Y-22722D01*
X25550Y-22807D01*
X25531Y-22897D01*
X25529Y-22989D01*
X25546Y-23080D01*
X25580Y-23166D01*
X25630Y-23243D01*
X25694Y-23310D01*
X25770Y-23362D01*
X25854Y-23399D01*
X25944Y-23419D01*
X26036Y-23421D01*
X26127Y-23405D01*
X26213Y-23372D01*
X26291Y-23322D01*
X26357Y-23259D01*
X26411Y-23183D01*
X26448Y-23099D01*
X26469Y-23009D01*
X26470Y-22904D01*
X26452Y-22814D01*
X26417Y-22728D01*
X26366Y-22652D01*
X26320Y-22605D01*
X26322Y-22605D01*
X26324Y-22604D01*
X26350Y-22591D01*
X26351Y-22589D01*
X26374Y-22571D01*
X26374Y-22570D01*
X26375Y-22570D01*
X26375Y-22569D01*
X26379Y-22564D01*
X26648Y-22296D01*
X26649Y-22302D01*
X26664Y-22340D01*
X26686Y-22374D01*
X26714Y-22404D01*
X26748Y-22427D01*
X26785Y-22444D01*
X26825Y-22452D01*
X26866Y-22453D01*
X26870Y-22452D01*
X26870Y-22596D01*
X26867Y-22597D01*
X26781Y-22631D01*
X26704Y-22682D01*
X26638Y-22746D01*
X26586Y-22822D01*
X26550Y-22907D01*
X26531Y-22997D01*
X26529Y-23089D01*
X26546Y-23180D01*
X26580Y-23266D01*
X26630Y-23343D01*
X26694Y-23410D01*
X26770Y-23462D01*
X26854Y-23499D01*
X26944Y-23519D01*
X27036Y-23521D01*
X27127Y-23505D01*
X27213Y-23472D01*
X27291Y-23422D01*
X27357Y-23359D01*
X27411Y-23283D01*
X27448Y-23199D01*
X27469Y-23109D01*
X27470Y-23004D01*
X27452Y-22914D01*
X27417Y-22828D01*
X27366Y-22752D01*
X27301Y-22686D01*
X27225Y-22635D01*
X27140Y-22599D01*
X27130Y-22596D01*
X27130Y-22396D01*
X27130Y-22395D01*
X27128Y-22370D01*
X27124Y-22358D01*
X27385Y-22620D01*
X27386Y-22621D01*
X27387Y-22622D01*
X27410Y-22641D01*
X27411Y-22642D01*
X27433Y-22654D01*
X27437Y-22656D01*
X27439Y-22657D01*
X27444Y-22658D01*
X27467Y-22666D01*
X27498Y-22669D01*
X27499Y-22669D01*
X27500Y-22669D01*
X27723Y-22669D01*
X27704Y-22682D01*
X27638Y-22746D01*
X27586Y-22822D01*
X27550Y-22907D01*
X27531Y-22997D01*
X27529Y-23089D01*
X27546Y-23180D01*
X27580Y-23266D01*
X27630Y-23343D01*
X27694Y-23410D01*
X27770Y-23462D01*
X27854Y-23499D01*
X27944Y-23519D01*
X28036Y-23521D01*
X28127Y-23505D01*
X28213Y-23472D01*
X28291Y-23422D01*
X28357Y-23359D01*
X28411Y-23283D01*
X28448Y-23199D01*
X28469Y-23109D01*
X28470Y-23004D01*
X28452Y-22914D01*
X28417Y-22828D01*
X28366Y-22752D01*
X28301Y-22686D01*
X28275Y-22669D01*
X28538Y-22669D01*
X28540Y-22669D01*
X28569Y-22666D01*
X28571Y-22666D01*
X28587Y-22661D01*
X28599Y-22658D01*
X28601Y-22657D01*
X28627Y-22644D01*
X28628Y-22642D01*
X28651Y-22624D01*
X28651Y-22623D01*
X28652Y-22623D01*
X28652Y-22622D01*
X28656Y-22617D01*
X28849Y-22424D01*
X28904Y-22449D01*
X28994Y-22469D01*
X29086Y-22471D01*
X29177Y-22455D01*
X29263Y-22422D01*
X29341Y-22372D01*
X29407Y-22309D01*
X29461Y-22233D01*
X29498Y-22149D01*
X29519Y-22059D01*
X29520Y-21954D01*
X29520Y-19954D01*
X29520Y-17954D01*
X29502Y-17864D01*
X29470Y-17785D01*
X29470Y-17004D01*
X29452Y-16914D01*
X29417Y-16828D01*
X29366Y-16752D01*
X29301Y-16686D01*
X29225Y-16635D01*
X29140Y-16599D01*
X29049Y-16580D01*
X28957Y-16580D01*
X28867Y-16597D01*
X28781Y-16631D01*
X28704Y-16682D01*
X28638Y-16746D01*
X28586Y-16822D01*
X28550Y-16907D01*
X28531Y-16997D01*
X28529Y-17089D01*
X28546Y-17180D01*
X28580Y-17266D01*
X28630Y-17343D01*
X28694Y-17410D01*
X28770Y-17462D01*
X28854Y-17499D01*
X28944Y-17519D01*
X29036Y-17521D01*
X29127Y-17505D01*
X29213Y-17472D01*
X29291Y-17422D01*
X29357Y-17359D01*
X29411Y-17283D01*
X29448Y-17199D01*
X29469Y-17109D01*
X29470Y-17004D01*
X29470Y-17785D01*
X29467Y-17778D01*
X29416Y-17702D01*
X29351Y-17636D01*
X29275Y-17585D01*
X29190Y-17549D01*
X29099Y-17530D01*
X29007Y-17530D01*
X28917Y-17547D01*
X28831Y-17581D01*
X28754Y-17632D01*
X28688Y-17696D01*
X28636Y-17772D01*
X28600Y-17857D01*
X28581Y-17947D01*
X28579Y-18039D01*
X28596Y-18130D01*
X28630Y-18216D01*
X28680Y-18293D01*
X28744Y-18360D01*
X28820Y-18412D01*
X28904Y-18449D01*
X28994Y-18469D01*
X29086Y-18471D01*
X29177Y-18455D01*
X29263Y-18422D01*
X29341Y-18372D01*
X29407Y-18309D01*
X29461Y-18233D01*
X29498Y-18149D01*
X29519Y-18059D01*
X29520Y-17954D01*
X29520Y-19954D01*
X29502Y-19864D01*
X29467Y-19778D01*
X29420Y-19707D01*
X29420Y-18954D01*
X29402Y-18864D01*
X29367Y-18778D01*
X29316Y-18702D01*
X29251Y-18636D01*
X29175Y-18585D01*
X29090Y-18549D01*
X28999Y-18530D01*
X28907Y-18530D01*
X28817Y-18547D01*
X28731Y-18581D01*
X28654Y-18632D01*
X28588Y-18696D01*
X28536Y-18772D01*
X28520Y-18809D01*
X28520Y-17954D01*
X28502Y-17864D01*
X28470Y-17785D01*
X28470Y-16904D01*
X28452Y-16814D01*
X28417Y-16728D01*
X28366Y-16652D01*
X28301Y-16586D01*
X28225Y-16535D01*
X28140Y-16499D01*
X28049Y-16480D01*
X27957Y-16480D01*
X27867Y-16497D01*
X27781Y-16531D01*
X27704Y-16582D01*
X27638Y-16646D01*
X27586Y-16722D01*
X27550Y-16807D01*
X27531Y-16897D01*
X27529Y-16989D01*
X27546Y-17080D01*
X27580Y-17166D01*
X27630Y-17243D01*
X27694Y-17310D01*
X27770Y-17362D01*
X27854Y-17399D01*
X27944Y-17419D01*
X28036Y-17421D01*
X28127Y-17405D01*
X28213Y-17372D01*
X28291Y-17322D01*
X28357Y-17259D01*
X28411Y-17183D01*
X28448Y-17099D01*
X28469Y-17009D01*
X28470Y-16904D01*
X28470Y-17785D01*
X28467Y-17778D01*
X28416Y-17702D01*
X28351Y-17636D01*
X28275Y-17585D01*
X28190Y-17549D01*
X28099Y-17530D01*
X28007Y-17530D01*
X27917Y-17547D01*
X27831Y-17581D01*
X27754Y-17632D01*
X27688Y-17696D01*
X27636Y-17772D01*
X27600Y-17857D01*
X27581Y-17947D01*
X27579Y-18039D01*
X27596Y-18130D01*
X27630Y-18216D01*
X27680Y-18293D01*
X27744Y-18360D01*
X27820Y-18412D01*
X27904Y-18449D01*
X27994Y-18469D01*
X28086Y-18471D01*
X28177Y-18455D01*
X28263Y-18422D01*
X28341Y-18372D01*
X28407Y-18309D01*
X28461Y-18233D01*
X28498Y-18149D01*
X28519Y-18059D01*
X28520Y-17954D01*
X28520Y-18809D01*
X28500Y-18857D01*
X28481Y-18947D01*
X28479Y-19039D01*
X28496Y-19130D01*
X28530Y-19216D01*
X28580Y-19293D01*
X28644Y-19360D01*
X28720Y-19412D01*
X28804Y-19449D01*
X28894Y-19469D01*
X28986Y-19471D01*
X29077Y-19455D01*
X29163Y-19422D01*
X29241Y-19372D01*
X29307Y-19309D01*
X29361Y-19233D01*
X29398Y-19149D01*
X29419Y-19059D01*
X29420Y-18954D01*
X29420Y-19707D01*
X29416Y-19702D01*
X29351Y-19636D01*
X29275Y-19585D01*
X29190Y-19549D01*
X29099Y-19530D01*
X29007Y-19530D01*
X28917Y-19547D01*
X28831Y-19581D01*
X28754Y-19632D01*
X28688Y-19696D01*
X28636Y-19772D01*
X28600Y-19857D01*
X28581Y-19947D01*
X28579Y-20039D01*
X28596Y-20130D01*
X28630Y-20216D01*
X28680Y-20293D01*
X28744Y-20360D01*
X28820Y-20412D01*
X28904Y-20449D01*
X28994Y-20469D01*
X29086Y-20471D01*
X29177Y-20455D01*
X29263Y-20422D01*
X29341Y-20372D01*
X29407Y-20309D01*
X29461Y-20233D01*
X29498Y-20149D01*
X29519Y-20059D01*
X29520Y-19954D01*
X29520Y-21954D01*
X29502Y-21864D01*
X29467Y-21778D01*
X29420Y-21707D01*
X29420Y-20954D01*
X29402Y-20864D01*
X29367Y-20778D01*
X29316Y-20702D01*
X29251Y-20636D01*
X29175Y-20585D01*
X29090Y-20549D01*
X28999Y-20530D01*
X28907Y-20530D01*
X28817Y-20547D01*
X28731Y-20581D01*
X28654Y-20632D01*
X28588Y-20696D01*
X28536Y-20772D01*
X28500Y-20857D01*
X28481Y-20947D01*
X28479Y-21039D01*
X28496Y-21130D01*
X28530Y-21216D01*
X28580Y-21293D01*
X28644Y-21360D01*
X28720Y-21412D01*
X28804Y-21449D01*
X28894Y-21469D01*
X28986Y-21471D01*
X29077Y-21455D01*
X29163Y-21422D01*
X29241Y-21372D01*
X29307Y-21309D01*
X29361Y-21233D01*
X29398Y-21149D01*
X29419Y-21059D01*
X29420Y-20954D01*
X29420Y-21707D01*
X29416Y-21702D01*
X29351Y-21636D01*
X29275Y-21585D01*
X29190Y-21549D01*
X29099Y-21530D01*
X29007Y-21530D01*
X28917Y-21547D01*
X28831Y-21581D01*
X28754Y-21632D01*
X28688Y-21696D01*
X28636Y-21772D01*
X28600Y-21857D01*
X28581Y-21947D01*
X28579Y-22039D01*
X28596Y-22130D01*
X28624Y-22201D01*
X28474Y-22351D01*
X28363Y-22351D01*
X28407Y-22309D01*
X28461Y-22233D01*
X28498Y-22149D01*
X28519Y-22059D01*
X28520Y-21954D01*
X28502Y-21864D01*
X28467Y-21778D01*
X28416Y-21702D01*
X28351Y-21636D01*
X28275Y-21585D01*
X28190Y-21549D01*
X28099Y-21530D01*
X28007Y-21530D01*
X27917Y-21547D01*
X27831Y-21581D01*
X27754Y-21632D01*
X27688Y-21696D01*
X27636Y-21772D01*
X27600Y-21857D01*
X27581Y-21947D01*
X27579Y-22039D01*
X27596Y-22130D01*
X27630Y-22216D01*
X27680Y-22293D01*
X27735Y-22351D01*
X27565Y-22351D01*
X27092Y-21878D01*
X27089Y-21874D01*
X27087Y-21873D01*
X27065Y-21854D01*
X27063Y-21853D01*
X27038Y-21839D01*
X27037Y-21838D01*
X27036Y-21838D01*
X27026Y-21835D01*
X27008Y-21829D01*
X26977Y-21826D01*
X26976Y-21826D01*
X26975Y-21826D01*
X26836Y-21826D01*
X27034Y-21628D01*
X27101Y-21628D01*
X27102Y-21628D01*
X27127Y-21626D01*
X27150Y-21618D01*
X27152Y-21618D01*
X27166Y-21610D01*
X27173Y-21607D01*
X27174Y-21606D01*
X27193Y-21591D01*
X27194Y-21590D01*
X27335Y-21449D01*
X27351Y-21429D01*
X27352Y-21429D01*
X27363Y-21407D01*
X27364Y-21406D01*
X27368Y-21390D01*
X27371Y-21383D01*
X27371Y-21382D01*
X27374Y-21358D01*
X27374Y-21357D01*
X27374Y-21356D01*
X27374Y-21267D01*
X27500Y-21140D01*
X27530Y-21216D01*
X27580Y-21293D01*
X27644Y-21360D01*
X27720Y-21412D01*
X27804Y-21449D01*
X27894Y-21469D01*
X27986Y-21471D01*
X28077Y-21455D01*
X28163Y-21422D01*
X28241Y-21372D01*
X28307Y-21309D01*
X28361Y-21233D01*
X28398Y-21149D01*
X28419Y-21059D01*
X28420Y-20954D01*
X28402Y-20864D01*
X28367Y-20778D01*
X28316Y-20702D01*
X28251Y-20636D01*
X28175Y-20585D01*
X28090Y-20549D01*
X27999Y-20530D01*
X27932Y-20530D01*
X27993Y-20468D01*
X27994Y-20469D01*
X28086Y-20471D01*
X28177Y-20455D01*
X28263Y-20422D01*
X28341Y-20372D01*
X28407Y-20309D01*
X28461Y-20233D01*
X28498Y-20149D01*
X28519Y-20059D01*
X28520Y-19954D01*
X28502Y-19864D01*
X28467Y-19778D01*
X28416Y-19702D01*
X28408Y-19693D01*
X28408Y-18990D01*
X28398Y-18902D01*
X28370Y-18816D01*
X28337Y-18755D01*
X28278Y-18713D01*
X28237Y-18754D01*
X28237Y-18672D01*
X28195Y-18613D01*
X28115Y-18573D01*
X28029Y-18549D01*
X27940Y-18542D01*
X27852Y-18552D01*
X27766Y-18580D01*
X27705Y-18613D01*
X27663Y-18672D01*
X27950Y-18959D01*
X28237Y-18672D01*
X28237Y-18754D01*
X27991Y-19000D01*
X28278Y-19287D01*
X28337Y-19245D01*
X28377Y-19165D01*
X28401Y-19079D01*
X28408Y-18990D01*
X28408Y-19693D01*
X28351Y-19636D01*
X28275Y-19585D01*
X28237Y-19568D01*
X28237Y-19328D01*
X27950Y-19041D01*
X27909Y-19082D01*
X27909Y-19000D01*
X27622Y-18713D01*
X27563Y-18755D01*
X27523Y-18835D01*
X27499Y-18921D01*
X27492Y-19010D01*
X27502Y-19098D01*
X27530Y-19184D01*
X27563Y-19245D01*
X27622Y-19287D01*
X27909Y-19000D01*
X27909Y-19082D01*
X27663Y-19328D01*
X27705Y-19387D01*
X27785Y-19427D01*
X27871Y-19451D01*
X27960Y-19458D01*
X28048Y-19448D01*
X28134Y-19420D01*
X28195Y-19387D01*
X28237Y-19328D01*
X28237Y-19568D01*
X28190Y-19549D01*
X28099Y-19530D01*
X28007Y-19530D01*
X27917Y-19547D01*
X27831Y-19581D01*
X27754Y-19632D01*
X27688Y-19696D01*
X27636Y-19772D01*
X27600Y-19857D01*
X27581Y-19947D01*
X27579Y-20005D01*
X27470Y-19896D01*
X27470Y-17004D01*
X27452Y-16914D01*
X27417Y-16828D01*
X27366Y-16752D01*
X27301Y-16686D01*
X27225Y-16635D01*
X27140Y-16599D01*
X27049Y-16580D01*
X26957Y-16580D01*
X26867Y-16597D01*
X26781Y-16631D01*
X26704Y-16682D01*
X26638Y-16746D01*
X26586Y-16822D01*
X26550Y-16907D01*
X26531Y-16997D01*
X26529Y-17089D01*
X26546Y-17180D01*
X26580Y-17266D01*
X26630Y-17343D01*
X26694Y-17410D01*
X26770Y-17462D01*
X26854Y-17499D01*
X26944Y-17519D01*
X27036Y-17521D01*
X27127Y-17505D01*
X27213Y-17472D01*
X27291Y-17422D01*
X27357Y-17359D01*
X27411Y-17283D01*
X27448Y-17199D01*
X27469Y-17109D01*
X27470Y-17004D01*
X27470Y-19896D01*
X27467Y-19893D01*
X27466Y-19892D01*
X27447Y-19876D01*
X27425Y-19865D01*
X27423Y-19864D01*
X27415Y-19861D01*
X27401Y-19857D01*
X27376Y-19854D01*
X27374Y-19854D01*
X27190Y-19854D01*
X27189Y-19854D01*
X27164Y-19856D01*
X27139Y-19864D01*
X27117Y-19876D01*
X27102Y-19888D01*
X27098Y-19891D01*
X27097Y-19891D01*
X27097Y-19892D01*
X27092Y-19897D01*
X27087Y-19902D01*
X27087Y-19161D01*
X27087Y-19144D01*
X27087Y-18888D01*
X27087Y-18786D01*
X27087Y-18530D01*
X27087Y-18513D01*
X27084Y-18496D01*
X27082Y-18491D01*
X27082Y-18326D01*
X27082Y-18309D01*
X27082Y-18077D01*
X27082Y-17975D01*
X27082Y-17743D01*
X27082Y-17726D01*
X27079Y-17709D01*
X27072Y-17693D01*
X27062Y-17679D01*
X27050Y-17667D01*
X27036Y-17657D01*
X27020Y-17650D01*
X27003Y-17647D01*
X26930Y-17647D01*
X26908Y-17669D01*
X26908Y-17997D01*
X27060Y-17997D01*
X27082Y-17975D01*
X27082Y-18077D01*
X27060Y-18055D01*
X26908Y-18055D01*
X26908Y-18383D01*
X26930Y-18405D01*
X27003Y-18405D01*
X27020Y-18402D01*
X27036Y-18395D01*
X27050Y-18385D01*
X27062Y-18373D01*
X27072Y-18359D01*
X27079Y-18343D01*
X27082Y-18326D01*
X27082Y-18491D01*
X27077Y-18480D01*
X27067Y-18466D01*
X27055Y-18454D01*
X27041Y-18444D01*
X27025Y-18437D01*
X27008Y-18434D01*
X26930Y-18434D01*
X26908Y-18456D01*
X26908Y-18808D01*
X27065Y-18808D01*
X27087Y-18786D01*
X27087Y-18888D01*
X27065Y-18866D01*
X26908Y-18866D01*
X26908Y-19218D01*
X26930Y-19240D01*
X27008Y-19240D01*
X27025Y-19237D01*
X27041Y-19230D01*
X27055Y-19220D01*
X27067Y-19208D01*
X27077Y-19194D01*
X27084Y-19178D01*
X27087Y-19161D01*
X27087Y-19902D01*
X27056Y-19933D01*
X26850Y-19933D01*
X26850Y-19218D01*
X26850Y-18866D01*
X26850Y-18808D01*
X26850Y-18456D01*
X26850Y-18383D01*
X26850Y-18055D01*
X26850Y-17997D01*
X26850Y-17669D01*
X26828Y-17647D01*
X26755Y-17647D01*
X26738Y-17650D01*
X26722Y-17657D01*
X26708Y-17667D01*
X26696Y-17679D01*
X26686Y-17693D01*
X26679Y-17709D01*
X26676Y-17726D01*
X26676Y-17743D01*
X26676Y-17975D01*
X26698Y-17997D01*
X26850Y-17997D01*
X26850Y-18055D01*
X26698Y-18055D01*
X26676Y-18077D01*
X26676Y-18309D01*
X26676Y-18326D01*
X26679Y-18343D01*
X26686Y-18359D01*
X26696Y-18373D01*
X26708Y-18385D01*
X26722Y-18395D01*
X26738Y-18402D01*
X26755Y-18405D01*
X26828Y-18405D01*
X26850Y-18383D01*
X26850Y-18456D01*
X26828Y-18434D01*
X26750Y-18434D01*
X26733Y-18437D01*
X26717Y-18444D01*
X26703Y-18454D01*
X26691Y-18466D01*
X26681Y-18480D01*
X26674Y-18496D01*
X26671Y-18513D01*
X26671Y-18530D01*
X26671Y-18786D01*
X26693Y-18808D01*
X26850Y-18808D01*
X26850Y-18866D01*
X26693Y-18866D01*
X26671Y-18888D01*
X26671Y-19144D01*
X26671Y-19161D01*
X26674Y-19178D01*
X26681Y-19194D01*
X26691Y-19208D01*
X26703Y-19220D01*
X26717Y-19230D01*
X26733Y-19237D01*
X26750Y-19240D01*
X26828Y-19240D01*
X26850Y-19218D01*
X26850Y-19933D01*
X26834Y-19933D01*
X26809Y-19935D01*
X26784Y-19943D01*
X26762Y-19955D01*
X26747Y-19967D01*
X26743Y-19970D01*
X26742Y-19971D01*
X26741Y-19972D01*
X26418Y-20295D01*
X26382Y-20295D01*
X26382Y-19888D01*
X26382Y-19887D01*
X26380Y-19862D01*
X26372Y-19839D01*
X26372Y-19837D01*
X26364Y-19822D01*
X26361Y-19816D01*
X26360Y-19815D01*
X26345Y-19796D01*
X26344Y-19795D01*
X26009Y-19460D01*
X26009Y-19252D01*
X26028Y-19248D01*
X26046Y-19241D01*
X26063Y-19230D01*
X26077Y-19216D01*
X26087Y-19200D01*
X26095Y-19182D01*
X26099Y-19162D01*
X26099Y-19143D01*
X26099Y-19014D01*
X26106Y-19018D01*
X26146Y-19026D01*
X26159Y-19026D01*
X26159Y-19162D01*
X26163Y-19181D01*
X26170Y-19199D01*
X26181Y-19216D01*
X26195Y-19230D01*
X26211Y-19240D01*
X26229Y-19248D01*
X26249Y-19252D01*
X26268Y-19252D01*
X26509Y-19252D01*
X26528Y-19248D01*
X26546Y-19241D01*
X26563Y-19230D01*
X26577Y-19216D01*
X26587Y-19200D01*
X26595Y-19182D01*
X26599Y-19162D01*
X26599Y-19143D01*
X26599Y-18512D01*
X26595Y-18493D01*
X26588Y-18475D01*
X26577Y-18458D01*
X26563Y-18444D01*
X26547Y-18434D01*
X26529Y-18426D01*
X26509Y-18422D01*
X26509Y-18415D01*
X26523Y-18413D01*
X26541Y-18406D01*
X26558Y-18395D01*
X26572Y-18381D01*
X26582Y-18365D01*
X26590Y-18347D01*
X26594Y-18327D01*
X26594Y-18308D01*
X26594Y-17725D01*
X26590Y-17706D01*
X26583Y-17688D01*
X26572Y-17671D01*
X26558Y-17657D01*
X26542Y-17647D01*
X26524Y-17639D01*
X26504Y-17635D01*
X26485Y-17635D01*
X26470Y-17635D01*
X26470Y-16904D01*
X26452Y-16814D01*
X26417Y-16728D01*
X26366Y-16652D01*
X26301Y-16586D01*
X26225Y-16535D01*
X26140Y-16499D01*
X26049Y-16480D01*
X25957Y-16480D01*
X25867Y-16497D01*
X25781Y-16531D01*
X25704Y-16582D01*
X25638Y-16646D01*
X25586Y-16722D01*
X25550Y-16807D01*
X25531Y-16897D01*
X25529Y-16989D01*
X25546Y-17080D01*
X25580Y-17166D01*
X25630Y-17243D01*
X25694Y-17310D01*
X25770Y-17362D01*
X25854Y-17399D01*
X25944Y-17419D01*
X26036Y-17421D01*
X26127Y-17405D01*
X26213Y-17372D01*
X26291Y-17322D01*
X26357Y-17259D01*
X26411Y-17183D01*
X26448Y-17099D01*
X26469Y-17009D01*
X26470Y-16904D01*
X26470Y-17635D01*
X26254Y-17635D01*
X26235Y-17639D01*
X26217Y-17646D01*
X26200Y-17657D01*
X26186Y-17671D01*
X26176Y-17687D01*
X26168Y-17705D01*
X26164Y-17725D01*
X26164Y-17744D01*
X26164Y-18327D01*
X26168Y-18346D01*
X26175Y-18364D01*
X26186Y-18381D01*
X26200Y-18395D01*
X26216Y-18405D01*
X26234Y-18413D01*
X26249Y-18416D01*
X26249Y-18422D01*
X26230Y-18426D01*
X26212Y-18433D01*
X26195Y-18444D01*
X26181Y-18458D01*
X26171Y-18474D01*
X26163Y-18492D01*
X26159Y-18512D01*
X26159Y-18531D01*
X26159Y-18611D01*
X26152Y-18611D01*
X26112Y-18618D01*
X26099Y-18623D01*
X26099Y-18512D01*
X26095Y-18493D01*
X26088Y-18475D01*
X26077Y-18458D01*
X26063Y-18444D01*
X26047Y-18434D01*
X26029Y-18426D01*
X26009Y-18422D01*
X26009Y-18415D01*
X26023Y-18413D01*
X26041Y-18406D01*
X26058Y-18395D01*
X26072Y-18381D01*
X26082Y-18365D01*
X26090Y-18347D01*
X26094Y-18327D01*
X26094Y-18308D01*
X26094Y-17725D01*
X26090Y-17706D01*
X26083Y-17688D01*
X26072Y-17671D01*
X26058Y-17657D01*
X26042Y-17647D01*
X26024Y-17639D01*
X26004Y-17635D01*
X25985Y-17635D01*
X25754Y-17635D01*
X25735Y-17639D01*
X25717Y-17646D01*
X25700Y-17657D01*
X25686Y-17671D01*
X25676Y-17687D01*
X25668Y-17705D01*
X25664Y-17725D01*
X25664Y-17744D01*
X25664Y-18327D01*
X25668Y-18346D01*
X25675Y-18364D01*
X25686Y-18381D01*
X25700Y-18395D01*
X25716Y-18405D01*
X25734Y-18413D01*
X25749Y-18416D01*
X25749Y-18422D01*
X25730Y-18426D01*
X25712Y-18433D01*
X25695Y-18444D01*
X25681Y-18458D01*
X25671Y-18474D01*
X25663Y-18492D01*
X25659Y-18512D01*
X25659Y-18531D01*
X25659Y-18694D01*
X25649Y-18691D01*
X25609Y-18682D01*
X25599Y-18682D01*
X25599Y-18512D01*
X25595Y-18493D01*
X25588Y-18475D01*
X25577Y-18458D01*
X25563Y-18444D01*
X25547Y-18434D01*
X25529Y-18426D01*
X25509Y-18422D01*
X25509Y-18415D01*
X25523Y-18413D01*
X25541Y-18406D01*
X25558Y-18395D01*
X25572Y-18381D01*
X25582Y-18365D01*
X25590Y-18347D01*
X25594Y-18327D01*
X25594Y-18308D01*
X25594Y-17725D01*
X25590Y-17706D01*
X25583Y-17688D01*
X25572Y-17671D01*
X25558Y-17657D01*
X25542Y-17647D01*
X25524Y-17639D01*
X25504Y-17635D01*
X25485Y-17635D01*
X25470Y-17635D01*
X25470Y-17004D01*
X25452Y-16914D01*
X25417Y-16828D01*
X25366Y-16752D01*
X25301Y-16686D01*
X25225Y-16635D01*
X25140Y-16599D01*
X25049Y-16580D01*
X24957Y-16580D01*
X24867Y-16597D01*
X24781Y-16631D01*
X24704Y-16682D01*
X24638Y-16746D01*
X24586Y-16822D01*
X24550Y-16907D01*
X24531Y-16997D01*
X24529Y-17089D01*
X24546Y-17180D01*
X24580Y-17266D01*
X24630Y-17343D01*
X24694Y-17410D01*
X24770Y-17462D01*
X24854Y-17499D01*
X24944Y-17519D01*
X25036Y-17521D01*
X25127Y-17505D01*
X25213Y-17472D01*
X25291Y-17422D01*
X25357Y-17359D01*
X25411Y-17283D01*
X25448Y-17199D01*
X25469Y-17109D01*
X25470Y-17004D01*
X25470Y-17635D01*
X25254Y-17635D01*
X25235Y-17639D01*
X25217Y-17646D01*
X25200Y-17657D01*
X25186Y-17671D01*
X25176Y-17687D01*
X25168Y-17705D01*
X25164Y-17725D01*
X25164Y-17744D01*
X25164Y-18327D01*
X25168Y-18346D01*
X25175Y-18364D01*
X25186Y-18381D01*
X25200Y-18395D01*
X25216Y-18405D01*
X25234Y-18413D01*
X25249Y-18416D01*
X25249Y-18422D01*
X25230Y-18426D01*
X25212Y-18433D01*
X25195Y-18444D01*
X25181Y-18458D01*
X25171Y-18474D01*
X25163Y-18492D01*
X25159Y-18512D01*
X25159Y-18531D01*
X25159Y-19162D01*
X25163Y-19181D01*
X25170Y-19199D01*
X25181Y-19216D01*
X25195Y-19230D01*
X25211Y-19240D01*
X25229Y-19248D01*
X25249Y-19252D01*
X25268Y-19252D01*
X25509Y-19252D01*
X25528Y-19248D01*
X25537Y-19244D01*
X25544Y-19257D01*
X25548Y-19264D01*
X25549Y-19265D01*
X25564Y-19284D01*
X25565Y-19285D01*
X25627Y-19347D01*
X25627Y-19563D01*
X25627Y-19564D01*
X25629Y-19589D01*
X25637Y-19614D01*
X25644Y-19628D01*
X25648Y-19635D01*
X25649Y-19636D01*
X25664Y-19655D01*
X25665Y-19656D01*
X26000Y-19991D01*
X26000Y-20548D01*
X25990Y-20548D01*
X25749Y-20548D01*
X25730Y-20552D01*
X25712Y-20559D01*
X25695Y-20570D01*
X25681Y-20584D01*
X25671Y-20600D01*
X25663Y-20618D01*
X25659Y-20638D01*
X25659Y-20657D01*
X25659Y-20833D01*
X25599Y-20833D01*
X25599Y-20643D01*
X25611Y-20617D01*
X25620Y-20578D01*
X25621Y-20531D01*
X25613Y-20491D01*
X25598Y-20453D01*
X25575Y-20419D01*
X25546Y-20390D01*
X25513Y-20367D01*
X25475Y-20352D01*
X25435Y-20343D01*
X25394Y-20343D01*
X25354Y-20350D01*
X25317Y-20366D01*
X25282Y-20388D01*
X25253Y-20416D01*
X25230Y-20450D01*
X25214Y-20487D01*
X25205Y-20527D01*
X25205Y-20563D01*
X25195Y-20570D01*
X25181Y-20584D01*
X25171Y-20600D01*
X25163Y-20618D01*
X25159Y-20638D01*
X25159Y-20657D01*
X25159Y-20958D01*
X25079Y-21038D01*
X25078Y-21034D01*
X25077Y-21032D01*
X25077Y-20740D01*
X25077Y-20657D01*
X25055Y-20635D01*
X24793Y-20635D01*
X24793Y-20797D01*
X24815Y-20819D01*
X24981Y-20819D01*
X24998Y-20819D01*
X25015Y-20816D01*
X25031Y-20809D01*
X25045Y-20799D01*
X25057Y-20787D01*
X25067Y-20773D01*
X25074Y-20757D01*
X25077Y-20740D01*
X25077Y-21032D01*
X25067Y-21017D01*
X25053Y-21003D01*
X25037Y-20993D01*
X25019Y-20985D01*
X24999Y-20981D01*
X24980Y-20981D01*
X24786Y-20981D01*
X24568Y-20981D01*
X24568Y-20819D01*
X24713Y-20819D01*
X24735Y-20797D01*
X24735Y-20665D01*
X24735Y-20635D01*
X24735Y-20577D01*
X24793Y-20577D01*
X24823Y-20577D01*
X25055Y-20577D01*
X25077Y-20555D01*
X25077Y-20472D01*
X25074Y-20455D01*
X25067Y-20439D01*
X25057Y-20425D01*
X25045Y-20413D01*
X25031Y-20403D01*
X25015Y-20396D01*
X24998Y-20393D01*
X24981Y-20393D01*
X24823Y-20393D01*
X24815Y-20393D01*
X24812Y-20393D01*
X24930Y-20275D01*
X24931Y-20275D01*
X24931Y-20274D01*
X24932Y-20274D01*
X24951Y-20251D01*
X24952Y-20250D01*
X24956Y-20242D01*
X24966Y-20224D01*
X24966Y-20222D01*
X24976Y-20194D01*
X24979Y-20163D01*
X24979Y-20161D01*
X24979Y-19101D01*
X24991Y-19094D01*
X25031Y-19057D01*
X25062Y-19013D01*
X25084Y-18963D01*
X25096Y-18910D01*
X25097Y-18848D01*
X25086Y-18795D01*
X25066Y-18744D01*
X25036Y-18699D01*
X24998Y-18661D01*
X24953Y-18630D01*
X24902Y-18609D01*
X24849Y-18598D01*
X24795Y-18598D01*
X24786Y-18599D01*
X24785Y-18599D01*
X24785Y-18516D01*
X24786Y-18515D01*
X24785Y-18514D01*
X24785Y-18280D01*
X24781Y-18261D01*
X24774Y-18243D01*
X24763Y-18226D01*
X24749Y-18212D01*
X24737Y-18204D01*
X24746Y-18199D01*
X24786Y-18162D01*
X24817Y-18118D01*
X24839Y-18068D01*
X24851Y-18015D01*
X24852Y-17953D01*
X24841Y-17900D01*
X24821Y-17849D01*
X24791Y-17804D01*
X24753Y-17766D01*
X24708Y-17735D01*
X24657Y-17714D01*
X24604Y-17703D01*
X24550Y-17703D01*
X24497Y-17713D01*
X24470Y-17723D01*
X24470Y-16904D01*
X24452Y-16814D01*
X24417Y-16728D01*
X24366Y-16652D01*
X24301Y-16586D01*
X24225Y-16535D01*
X24140Y-16499D01*
X24049Y-16480D01*
X23957Y-16480D01*
X23867Y-16497D01*
X23781Y-16531D01*
X23704Y-16582D01*
X23638Y-16646D01*
X23586Y-16722D01*
X23550Y-16807D01*
X23531Y-16897D01*
X23529Y-16989D01*
X23546Y-17080D01*
X23580Y-17166D01*
X23630Y-17243D01*
X23694Y-17310D01*
X23770Y-17362D01*
X23854Y-17399D01*
X23944Y-17419D01*
X24036Y-17421D01*
X24127Y-17405D01*
X24213Y-17372D01*
X24291Y-17322D01*
X24357Y-17259D01*
X24411Y-17183D01*
X24448Y-17099D01*
X24469Y-17009D01*
X24470Y-16904D01*
X24470Y-17723D01*
X24446Y-17733D01*
X24401Y-17763D01*
X24362Y-17801D01*
X24331Y-17846D01*
X24310Y-17896D01*
X24298Y-17949D01*
X24298Y-18003D01*
X24307Y-18057D01*
X24327Y-18107D01*
X24357Y-18153D01*
X24394Y-18192D01*
X24400Y-18196D01*
X24388Y-18201D01*
X24130Y-18201D01*
X24115Y-18194D01*
X24095Y-18190D01*
X24076Y-18190D01*
X23825Y-18190D01*
X23806Y-18194D01*
X23788Y-18201D01*
X23771Y-18212D01*
X23757Y-18226D01*
X23747Y-18242D01*
X23739Y-18260D01*
X23735Y-18280D01*
X23735Y-18299D01*
X23735Y-18514D01*
X23734Y-18515D01*
X23735Y-18516D01*
X23735Y-18750D01*
X23739Y-18769D01*
X23746Y-18787D01*
X23757Y-18804D01*
X23771Y-18818D01*
X23787Y-18828D01*
X23803Y-18835D01*
X23804Y-18836D01*
X23808Y-18852D01*
X23812Y-18864D01*
X23813Y-18866D01*
X23826Y-18892D01*
X23846Y-18916D01*
X23847Y-18917D01*
X23848Y-18917D01*
X23852Y-18921D01*
X24031Y-19101D01*
X24028Y-19119D01*
X24028Y-19173D01*
X24037Y-19227D01*
X24057Y-19277D01*
X24087Y-19323D01*
X24124Y-19362D01*
X24169Y-19393D01*
X24219Y-19415D01*
X24272Y-19426D01*
X24326Y-19428D01*
X24380Y-19418D01*
X24430Y-19398D01*
X24476Y-19369D01*
X24516Y-19332D01*
X24547Y-19288D01*
X24569Y-19238D01*
X24581Y-19185D01*
X24582Y-19123D01*
X24571Y-19070D01*
X24551Y-19019D01*
X24521Y-18974D01*
X24483Y-18936D01*
X24438Y-18905D01*
X24387Y-18884D01*
X24334Y-18873D01*
X24280Y-18873D01*
X24256Y-18877D01*
X24208Y-18829D01*
X24389Y-18829D01*
X24405Y-18836D01*
X24425Y-18840D01*
X24444Y-18840D01*
X24543Y-18840D01*
X24543Y-18844D01*
X24543Y-18898D01*
X24552Y-18952D01*
X24572Y-19002D01*
X24602Y-19048D01*
X24639Y-19087D01*
X24661Y-19102D01*
X24661Y-20095D01*
X24561Y-20195D01*
X24490Y-20195D01*
X24488Y-20195D01*
X24457Y-20198D01*
X24427Y-20207D01*
X24409Y-20217D01*
X24401Y-20221D01*
X24376Y-20241D01*
X24375Y-20242D01*
X24302Y-20315D01*
X24298Y-20319D01*
X24278Y-20343D01*
X24263Y-20370D01*
X24262Y-20370D01*
X24262Y-20372D01*
X24259Y-20382D01*
X24253Y-20400D01*
X24250Y-20431D01*
X24250Y-20432D01*
X24250Y-20433D01*
X24250Y-20913D01*
X23723Y-20913D01*
X23641Y-20831D01*
X23640Y-20830D01*
X23621Y-20814D01*
X23599Y-20803D01*
X23597Y-20802D01*
X23589Y-20799D01*
X23575Y-20795D01*
X23573Y-20794D01*
X23550Y-20792D01*
X23548Y-20792D01*
X23322Y-20792D01*
X23300Y-20770D01*
X23300Y-20632D01*
X23495Y-20632D01*
X23514Y-20628D01*
X23532Y-20621D01*
X23549Y-20610D01*
X23563Y-20596D01*
X23573Y-20580D01*
X23581Y-20562D01*
X23585Y-20542D01*
X23585Y-20523D01*
X23585Y-20128D01*
X23581Y-20109D01*
X23574Y-20091D01*
X23573Y-20089D01*
X23573Y-19950D01*
X23581Y-19932D01*
X23585Y-19912D01*
X23585Y-19893D01*
X23585Y-19498D01*
X23581Y-19479D01*
X23574Y-19461D01*
X23573Y-19459D01*
X23573Y-19281D01*
X23573Y-19171D01*
X23573Y-19126D01*
X23551Y-19104D01*
X23506Y-19104D01*
X23448Y-19046D01*
X23551Y-19046D01*
X23573Y-19024D01*
X23573Y-18869D01*
X23570Y-18852D01*
X23563Y-18836D01*
X23553Y-18822D01*
X23541Y-18810D01*
X23527Y-18800D01*
X23511Y-18793D01*
X23494Y-18790D01*
X23477Y-18790D01*
X23470Y-18790D01*
X23470Y-17004D01*
X23452Y-16914D01*
X23417Y-16828D01*
X23366Y-16752D01*
X23301Y-16686D01*
X23225Y-16635D01*
X23140Y-16599D01*
X23049Y-16580D01*
X22957Y-16580D01*
X22867Y-16597D01*
X22781Y-16631D01*
X22704Y-16682D01*
X22638Y-16746D01*
X22586Y-16822D01*
X22550Y-16907D01*
X22531Y-16997D01*
X22529Y-17089D01*
X22546Y-17180D01*
X22580Y-17266D01*
X22630Y-17343D01*
X22694Y-17410D01*
X22770Y-17462D01*
X22854Y-17499D01*
X22944Y-17519D01*
X23036Y-17521D01*
X23127Y-17505D01*
X23213Y-17472D01*
X23291Y-17422D01*
X23357Y-17359D01*
X23411Y-17283D01*
X23448Y-17199D01*
X23469Y-17109D01*
X23470Y-17004D01*
X23470Y-18790D01*
X23229Y-18790D01*
X23221Y-18790D01*
X23192Y-18790D01*
X23182Y-18780D01*
X23157Y-18780D01*
X23147Y-18790D01*
X23119Y-18790D01*
X23111Y-18790D01*
X22863Y-18790D01*
X22846Y-18790D01*
X22829Y-18793D01*
X22813Y-18800D01*
X22799Y-18810D01*
X22787Y-18822D01*
X22777Y-18836D01*
X22770Y-18852D01*
X22767Y-18869D01*
X22767Y-19024D01*
X22789Y-19046D01*
X22891Y-19046D01*
X22833Y-19104D01*
X22789Y-19104D01*
X22767Y-19126D01*
X22767Y-19170D01*
X22766Y-19171D01*
X22766Y-19462D01*
X22759Y-19478D01*
X22755Y-19498D01*
X22755Y-19517D01*
X22755Y-19595D01*
X22753Y-19597D01*
X22738Y-19609D01*
X22734Y-19612D01*
X22733Y-19613D01*
X22732Y-19614D01*
X22669Y-19677D01*
X22668Y-19678D01*
X22652Y-19697D01*
X22641Y-19719D01*
X22640Y-19721D01*
X22637Y-19729D01*
X22633Y-19743D01*
X22630Y-19768D01*
X22630Y-19770D01*
X22630Y-20090D01*
X22470Y-20090D01*
X22470Y-16904D01*
X22452Y-16814D01*
X22417Y-16728D01*
X22366Y-16652D01*
X22301Y-16586D01*
X22225Y-16535D01*
X22140Y-16499D01*
X22049Y-16480D01*
X21957Y-16480D01*
X21867Y-16497D01*
X21781Y-16531D01*
X21704Y-16582D01*
X21638Y-16646D01*
X21586Y-16722D01*
X21550Y-16807D01*
X21531Y-16897D01*
X21529Y-16989D01*
X21546Y-17080D01*
X21580Y-17166D01*
X21630Y-17243D01*
X21694Y-17310D01*
X21770Y-17362D01*
X21854Y-17399D01*
X21944Y-17419D01*
X22036Y-17421D01*
X22127Y-17405D01*
X22213Y-17372D01*
X22291Y-17322D01*
X22357Y-17259D01*
X22411Y-17183D01*
X22448Y-17099D01*
X22469Y-17009D01*
X22470Y-16904D01*
X22470Y-20090D01*
X22439Y-20090D01*
X22438Y-20090D01*
X22413Y-20092D01*
X22388Y-20100D01*
X22373Y-20107D01*
X22367Y-20111D01*
X22347Y-20127D01*
X22346Y-20128D01*
X22229Y-20245D01*
X21936Y-20245D01*
X21935Y-20245D01*
X21910Y-20247D01*
X21885Y-20255D01*
X21870Y-20262D01*
X21864Y-20266D01*
X21844Y-20282D01*
X21843Y-20283D01*
X21554Y-20572D01*
X21553Y-20573D01*
X21537Y-20592D01*
X21526Y-20614D01*
X21525Y-20616D01*
X21522Y-20624D01*
X21518Y-20638D01*
X21515Y-20663D01*
X21515Y-20665D01*
X21515Y-21151D01*
X21514Y-21152D01*
X21485Y-21180D01*
X21462Y-21214D01*
X21446Y-21251D01*
X21437Y-21291D01*
X21437Y-21332D01*
X21444Y-21372D01*
X21459Y-21410D01*
X21481Y-21444D01*
X21509Y-21474D01*
X21543Y-21497D01*
X21580Y-21514D01*
X21620Y-21522D01*
X21661Y-21523D01*
X21701Y-21516D01*
X21739Y-21502D01*
X21773Y-21480D01*
X21803Y-21452D01*
X21826Y-21419D01*
X21843Y-21381D01*
X21852Y-21342D01*
X21853Y-21295D01*
X21845Y-21255D01*
X21830Y-21217D01*
X21807Y-21183D01*
X21778Y-21154D01*
X21775Y-21151D01*
X21775Y-20719D01*
X21831Y-20662D01*
X21834Y-20670D01*
X21856Y-20704D01*
X21884Y-20734D01*
X21903Y-20746D01*
X21903Y-21234D01*
X21903Y-21235D01*
X21905Y-21260D01*
X21913Y-21285D01*
X21920Y-21299D01*
X21924Y-21306D01*
X21925Y-21307D01*
X21940Y-21326D01*
X21941Y-21327D01*
X22387Y-21773D01*
X22388Y-21774D01*
X22407Y-21790D01*
X22429Y-21801D01*
X22430Y-21802D01*
X22446Y-21806D01*
X22453Y-21809D01*
X22454Y-21809D01*
X22478Y-21812D01*
X22480Y-21812D01*
X22946Y-21812D01*
X22942Y-21830D01*
X22942Y-21871D01*
X22949Y-21911D01*
X22964Y-21949D01*
X22986Y-21983D01*
X22991Y-21988D01*
X22991Y-22211D01*
X22989Y-22213D01*
X21523Y-22213D01*
X21419Y-22109D01*
X21419Y-20595D01*
X21755Y-20259D01*
X21756Y-20259D01*
X21756Y-20258D01*
X21757Y-20258D01*
X21776Y-20235D01*
X21777Y-20234D01*
X21789Y-20211D01*
X21791Y-20208D01*
X21791Y-20207D01*
X21792Y-20206D01*
X21793Y-20201D01*
X21801Y-20178D01*
X21804Y-20147D01*
X21804Y-20146D01*
X21804Y-20145D01*
X21804Y-19276D01*
X21816Y-19269D01*
X21856Y-19232D01*
X21887Y-19188D01*
X21909Y-19138D01*
X21921Y-19085D01*
X21922Y-19023D01*
X21911Y-18970D01*
X21891Y-18919D01*
X21861Y-18874D01*
X21823Y-18836D01*
X21778Y-18805D01*
X21727Y-18784D01*
X21674Y-18773D01*
X21620Y-18773D01*
X21567Y-18783D01*
X21516Y-18803D01*
X21471Y-18833D01*
X21470Y-18833D01*
X21470Y-17004D01*
X21452Y-16914D01*
X21417Y-16828D01*
X21366Y-16752D01*
X21301Y-16686D01*
X21225Y-16635D01*
X21140Y-16599D01*
X21049Y-16580D01*
X20957Y-16580D01*
X20867Y-16597D01*
X20781Y-16631D01*
X20704Y-16682D01*
X20638Y-16746D01*
X20586Y-16822D01*
X20550Y-16907D01*
X20531Y-16997D01*
X20529Y-17089D01*
X20546Y-17180D01*
X20580Y-17266D01*
X20630Y-17343D01*
X20694Y-17410D01*
X20770Y-17462D01*
X20854Y-17499D01*
X20944Y-17519D01*
X21036Y-17521D01*
X21127Y-17505D01*
X21213Y-17472D01*
X21291Y-17422D01*
X21357Y-17359D01*
X21411Y-17283D01*
X21448Y-17199D01*
X21469Y-17109D01*
X21470Y-17004D01*
X21470Y-18833D01*
X21432Y-18871D01*
X21418Y-18891D01*
X20947Y-18891D01*
X20936Y-18874D01*
X20898Y-18836D01*
X20853Y-18805D01*
X20802Y-18784D01*
X20749Y-18773D01*
X20695Y-18773D01*
X20642Y-18783D01*
X20591Y-18803D01*
X20546Y-18833D01*
X20507Y-18871D01*
X20476Y-18916D01*
X20470Y-18930D01*
X20470Y-16904D01*
X20452Y-16814D01*
X20417Y-16728D01*
X20366Y-16652D01*
X20301Y-16586D01*
X20225Y-16535D01*
X20140Y-16499D01*
X20049Y-16480D01*
X19957Y-16480D01*
X19867Y-16497D01*
X19781Y-16531D01*
X19704Y-16582D01*
X19638Y-16646D01*
X19586Y-16722D01*
X19550Y-16807D01*
X19531Y-16897D01*
X19529Y-16989D01*
X19546Y-17080D01*
X19580Y-17166D01*
X19630Y-17243D01*
X19694Y-17310D01*
X19770Y-17362D01*
X19854Y-17399D01*
X19944Y-17419D01*
X20036Y-17421D01*
X20127Y-17405D01*
X20213Y-17372D01*
X20291Y-17322D01*
X20357Y-17259D01*
X20411Y-17183D01*
X20448Y-17099D01*
X20469Y-17009D01*
X20470Y-16904D01*
X20470Y-18930D01*
X20455Y-18966D01*
X20443Y-19019D01*
X20443Y-19073D01*
X20452Y-19127D01*
X20472Y-19177D01*
X20502Y-19223D01*
X20539Y-19262D01*
X20584Y-19293D01*
X20634Y-19315D01*
X20687Y-19326D01*
X20741Y-19328D01*
X20795Y-19318D01*
X20845Y-19298D01*
X20891Y-19269D01*
X20931Y-19232D01*
X20947Y-19209D01*
X21417Y-19209D01*
X21427Y-19223D01*
X21464Y-19262D01*
X21486Y-19277D01*
X21486Y-20079D01*
X21294Y-20271D01*
X21294Y-20095D01*
X21291Y-20065D01*
X21291Y-20064D01*
X21282Y-20036D01*
X21282Y-20034D01*
X21274Y-20020D01*
X21268Y-20007D01*
X21248Y-19983D01*
X21247Y-19982D01*
X21117Y-19853D01*
X21114Y-19849D01*
X21112Y-19848D01*
X21090Y-19829D01*
X21088Y-19828D01*
X21063Y-19814D01*
X21062Y-19813D01*
X21061Y-19813D01*
X21051Y-19810D01*
X21033Y-19804D01*
X21002Y-19801D01*
X21001Y-19801D01*
X21000Y-19801D01*
X20192Y-19801D01*
X20190Y-19801D01*
X20159Y-19804D01*
X20129Y-19813D01*
X20115Y-19820D01*
X20102Y-19827D01*
X20078Y-19847D01*
X20077Y-19848D01*
X19818Y-20107D01*
X19814Y-20111D01*
X19794Y-20135D01*
X19779Y-20162D01*
X19778Y-20162D01*
X19778Y-20164D01*
X19775Y-20174D01*
X19769Y-20192D01*
X19766Y-20223D01*
X19766Y-20224D01*
X19766Y-20225D01*
X19766Y-20649D01*
X19690Y-20649D01*
X19671Y-20653D01*
X19653Y-20660D01*
X19636Y-20671D01*
X19622Y-20685D01*
X19612Y-20701D01*
X19604Y-20719D01*
X19600Y-20739D01*
X19600Y-20758D01*
X19600Y-21153D01*
X19604Y-21172D01*
X19611Y-21190D01*
X19611Y-21411D01*
X19604Y-21427D01*
X19600Y-21447D01*
X19600Y-21466D01*
X19600Y-21861D01*
X19604Y-21880D01*
X19611Y-21898D01*
X19612Y-21901D01*
X19514Y-21901D01*
X19511Y-21901D01*
X19513Y-21899D01*
X19514Y-21896D01*
X19521Y-21881D01*
X19525Y-21861D01*
X19525Y-21842D01*
X19525Y-21447D01*
X19521Y-21428D01*
X19514Y-21410D01*
X19514Y-21188D01*
X19521Y-21173D01*
X19525Y-21153D01*
X19525Y-21134D01*
X19525Y-20739D01*
X19521Y-20720D01*
X19514Y-20702D01*
X19503Y-20685D01*
X19489Y-20671D01*
X19473Y-20661D01*
X19455Y-20653D01*
X19435Y-20649D01*
X19416Y-20649D01*
X19366Y-20649D01*
X19368Y-20646D01*
X19377Y-20607D01*
X19378Y-20560D01*
X19370Y-20520D01*
X19355Y-20482D01*
X19332Y-20448D01*
X19321Y-20437D01*
X19323Y-20437D01*
X19346Y-20404D01*
X19363Y-20366D01*
X19372Y-20327D01*
X19373Y-20280D01*
X19365Y-20240D01*
X19350Y-20202D01*
X19327Y-20168D01*
X19298Y-20139D01*
X19265Y-20116D01*
X19227Y-20101D01*
X19219Y-20099D01*
X19027Y-19907D01*
X19027Y-19797D01*
X19131Y-19693D01*
X19132Y-19692D01*
X19146Y-19674D01*
X19147Y-19673D01*
X19148Y-19673D01*
X19148Y-19672D01*
X19168Y-19660D01*
X19198Y-19632D01*
X19221Y-19599D01*
X19238Y-19561D01*
X19247Y-19522D01*
X19248Y-19475D01*
X19240Y-19435D01*
X19225Y-19397D01*
X19202Y-19363D01*
X19173Y-19334D01*
X19140Y-19311D01*
X19102Y-19296D01*
X19062Y-19287D01*
X19021Y-19287D01*
X18981Y-19294D01*
X18944Y-19310D01*
X18909Y-19332D01*
X18880Y-19360D01*
X18859Y-19389D01*
X18837Y-19381D01*
X18797Y-19372D01*
X18756Y-19372D01*
X18716Y-19379D01*
X18679Y-19395D01*
X18644Y-19417D01*
X18625Y-19435D01*
X18625Y-19265D01*
X18623Y-19259D01*
X18643Y-19259D01*
X18645Y-19259D01*
X18674Y-19256D01*
X18676Y-19256D01*
X18692Y-19251D01*
X18704Y-19248D01*
X18706Y-19247D01*
X18732Y-19234D01*
X18733Y-19232D01*
X18756Y-19214D01*
X18756Y-19213D01*
X18757Y-19213D01*
X18757Y-19212D01*
X18761Y-19207D01*
X19615Y-18354D01*
X19616Y-18354D01*
X19616Y-18353D01*
X19617Y-18353D01*
X19636Y-18330D01*
X19637Y-18329D01*
X19649Y-18306D01*
X19651Y-18303D01*
X19651Y-18302D01*
X19652Y-18301D01*
X19653Y-18296D01*
X19661Y-18273D01*
X19664Y-18242D01*
X19664Y-18241D01*
X19664Y-18240D01*
X19664Y-18131D01*
X19676Y-18124D01*
X19716Y-18087D01*
X19747Y-18043D01*
X19769Y-17993D01*
X19781Y-17940D01*
X19782Y-17878D01*
X19771Y-17825D01*
X19751Y-17774D01*
X19721Y-17729D01*
X19683Y-17691D01*
X19638Y-17660D01*
X19587Y-17639D01*
X19534Y-17628D01*
X19480Y-17628D01*
X19470Y-17629D01*
X19470Y-17004D01*
X19452Y-16914D01*
X19417Y-16828D01*
X19366Y-16752D01*
X19301Y-16686D01*
X19225Y-16635D01*
X19140Y-16599D01*
X19049Y-16580D01*
X18957Y-16580D01*
X18867Y-16597D01*
X18781Y-16631D01*
X18704Y-16682D01*
X18638Y-16746D01*
X18586Y-16822D01*
X18550Y-16907D01*
X18531Y-16997D01*
X18529Y-17089D01*
X18546Y-17180D01*
X18580Y-17266D01*
X18630Y-17343D01*
X18694Y-17410D01*
X18770Y-17462D01*
X18854Y-17499D01*
X18944Y-17519D01*
X19036Y-17521D01*
X19127Y-17505D01*
X19213Y-17472D01*
X19291Y-17422D01*
X19357Y-17359D01*
X19411Y-17283D01*
X19448Y-17199D01*
X19469Y-17109D01*
X19470Y-17004D01*
X19470Y-17629D01*
X19427Y-17638D01*
X19376Y-17658D01*
X19331Y-17688D01*
X19292Y-17726D01*
X19261Y-17771D01*
X19240Y-17821D01*
X19228Y-17874D01*
X19228Y-17928D01*
X19237Y-17982D01*
X19257Y-18032D01*
X19287Y-18078D01*
X19324Y-18117D01*
X19346Y-18132D01*
X19346Y-18174D01*
X18613Y-18907D01*
X18613Y-18851D01*
X18613Y-18749D01*
X18613Y-18666D01*
X18610Y-18649D01*
X18603Y-18633D01*
X18593Y-18619D01*
X18581Y-18607D01*
X18567Y-18597D01*
X18551Y-18590D01*
X18534Y-18587D01*
X18517Y-18587D01*
X18470Y-18587D01*
X18470Y-16904D01*
X18452Y-16814D01*
X18417Y-16728D01*
X18366Y-16652D01*
X18301Y-16586D01*
X18225Y-16535D01*
X18140Y-16499D01*
X18049Y-16480D01*
X17957Y-16480D01*
X17867Y-16497D01*
X17781Y-16531D01*
X17704Y-16582D01*
X17638Y-16646D01*
X17586Y-16722D01*
X17550Y-16807D01*
X17531Y-16897D01*
X17529Y-16989D01*
X17546Y-17080D01*
X17580Y-17166D01*
X17630Y-17243D01*
X17694Y-17310D01*
X17770Y-17362D01*
X17854Y-17399D01*
X17944Y-17419D01*
X18036Y-17421D01*
X18127Y-17405D01*
X18213Y-17372D01*
X18291Y-17322D01*
X18357Y-17259D01*
X18411Y-17183D01*
X18448Y-17099D01*
X18469Y-17009D01*
X18470Y-16904D01*
X18470Y-18587D01*
X18351Y-18587D01*
X18329Y-18609D01*
X18329Y-18771D01*
X18591Y-18771D01*
X18613Y-18749D01*
X18613Y-18851D01*
X18591Y-18829D01*
X18359Y-18829D01*
X18329Y-18829D01*
X18271Y-18829D01*
X18241Y-18829D01*
X18009Y-18829D01*
X18000Y-18838D01*
X17991Y-18829D01*
X17759Y-18829D01*
X17729Y-18829D01*
X17671Y-18829D01*
X17671Y-18771D01*
X17729Y-18771D01*
X17759Y-18771D01*
X17991Y-18771D01*
X18000Y-18762D01*
X18009Y-18771D01*
X18271Y-18771D01*
X18271Y-18609D01*
X18249Y-18587D01*
X18164Y-18587D01*
X18178Y-18556D01*
X18187Y-18517D01*
X18188Y-18470D01*
X18180Y-18430D01*
X18165Y-18392D01*
X18142Y-18358D01*
X18113Y-18329D01*
X18080Y-18306D01*
X18042Y-18291D01*
X18002Y-18282D01*
X17961Y-18282D01*
X17921Y-18289D01*
X17884Y-18305D01*
X17849Y-18327D01*
X17820Y-18355D01*
X17816Y-18360D01*
X17515Y-18360D01*
X17490Y-18362D01*
X17470Y-18368D01*
X17470Y-17004D01*
X17452Y-16914D01*
X17417Y-16828D01*
X17366Y-16752D01*
X17301Y-16686D01*
X17225Y-16635D01*
X17140Y-16599D01*
X17049Y-16580D01*
X16957Y-16580D01*
X16867Y-16597D01*
X16781Y-16631D01*
X16704Y-16682D01*
X16638Y-16746D01*
X16586Y-16822D01*
X16550Y-16907D01*
X16531Y-16997D01*
X16529Y-17089D01*
X16546Y-17180D01*
X16580Y-17266D01*
X16630Y-17343D01*
X16694Y-17410D01*
X16770Y-17462D01*
X16854Y-17499D01*
X16944Y-17519D01*
X17036Y-17521D01*
X17127Y-17505D01*
X17213Y-17472D01*
X17291Y-17422D01*
X17357Y-17359D01*
X17411Y-17283D01*
X17448Y-17199D01*
X17469Y-17109D01*
X17470Y-17004D01*
X17470Y-18368D01*
X17465Y-18370D01*
X17443Y-18382D01*
X17436Y-18387D01*
X17430Y-18372D01*
X17407Y-18338D01*
X17378Y-18309D01*
X17345Y-18286D01*
X17307Y-18271D01*
X17267Y-18262D01*
X17226Y-18262D01*
X17186Y-18269D01*
X17149Y-18285D01*
X17114Y-18307D01*
X17085Y-18335D01*
X17062Y-18369D01*
X17046Y-18406D01*
X17037Y-18446D01*
X17037Y-18487D01*
X17044Y-18527D01*
X17059Y-18565D01*
X17081Y-18599D01*
X17109Y-18629D01*
X17115Y-18633D01*
X17115Y-18839D01*
X16986Y-18968D01*
X16985Y-18969D01*
X16969Y-18988D01*
X16958Y-19010D01*
X16957Y-19012D01*
X16954Y-19020D01*
X16950Y-19034D01*
X16947Y-19059D01*
X16947Y-19061D01*
X16947Y-19282D01*
X16909Y-19320D01*
X16345Y-19320D01*
X16357Y-19309D01*
X16411Y-19233D01*
X16448Y-19149D01*
X16469Y-19059D01*
X16470Y-18954D01*
X16470Y-16904D01*
X16452Y-16814D01*
X16417Y-16728D01*
X16366Y-16652D01*
X16301Y-16586D01*
X16225Y-16535D01*
X16140Y-16499D01*
X16049Y-16480D01*
X15957Y-16480D01*
X15867Y-16497D01*
X15781Y-16531D01*
X15704Y-16582D01*
X15638Y-16646D01*
X15586Y-16722D01*
X15550Y-16807D01*
X15531Y-16897D01*
X15529Y-16989D01*
X15546Y-17080D01*
X15580Y-17166D01*
X15630Y-17243D01*
X15694Y-17310D01*
X15770Y-17362D01*
X15854Y-17399D01*
X15944Y-17419D01*
X16036Y-17421D01*
X16127Y-17405D01*
X16213Y-17372D01*
X16291Y-17322D01*
X16357Y-17259D01*
X16411Y-17183D01*
X16448Y-17099D01*
X16469Y-17009D01*
X16470Y-16904D01*
X16470Y-18954D01*
X16458Y-18894D01*
X16458Y-17990D01*
X16448Y-17902D01*
X16420Y-17816D01*
X16387Y-17755D01*
X16328Y-17713D01*
X16287Y-17754D01*
X16287Y-17672D01*
X16245Y-17613D01*
X16165Y-17573D01*
X16079Y-17549D01*
X15990Y-17542D01*
X15902Y-17552D01*
X15816Y-17580D01*
X15755Y-17613D01*
X15713Y-17672D01*
X16000Y-17959D01*
X16287Y-17672D01*
X16287Y-17754D01*
X16041Y-18000D01*
X16328Y-18287D01*
X16387Y-18245D01*
X16427Y-18165D01*
X16451Y-18079D01*
X16458Y-17990D01*
X16458Y-18894D01*
X16452Y-18864D01*
X16417Y-18778D01*
X16366Y-18702D01*
X16301Y-18636D01*
X16287Y-18626D01*
X16287Y-18328D01*
X16000Y-18041D01*
X15713Y-18328D01*
X15755Y-18387D01*
X15835Y-18427D01*
X15921Y-18451D01*
X16010Y-18458D01*
X16098Y-18448D01*
X16184Y-18420D01*
X16245Y-18387D01*
X16287Y-18328D01*
X16287Y-18626D01*
X16225Y-18585D01*
X16140Y-18549D01*
X16049Y-18530D01*
X15957Y-18530D01*
X15867Y-18547D01*
X15781Y-18581D01*
X15704Y-18632D01*
X15638Y-18696D01*
X15586Y-18772D01*
X15550Y-18857D01*
X15531Y-18947D01*
X15529Y-19039D01*
X15546Y-19130D01*
X15580Y-19216D01*
X15630Y-19293D01*
X15694Y-19360D01*
X15754Y-19401D01*
X15576Y-19578D01*
X15572Y-19559D01*
X15565Y-19541D01*
X15554Y-19524D01*
X15548Y-19518D01*
X15554Y-19511D01*
X15561Y-19495D01*
X15564Y-19478D01*
X15564Y-19461D01*
X15564Y-19422D01*
X15564Y-19320D01*
X15564Y-19281D01*
X15564Y-19264D01*
X15561Y-19247D01*
X15554Y-19231D01*
X15544Y-19217D01*
X15532Y-19205D01*
X15518Y-19195D01*
X15502Y-19188D01*
X15485Y-19185D01*
X15035Y-19185D01*
X15013Y-19207D01*
X15013Y-19342D01*
X15542Y-19342D01*
X15564Y-19320D01*
X15564Y-19422D01*
X15542Y-19400D01*
X15043Y-19400D01*
X15013Y-19400D01*
X14955Y-19400D01*
X14955Y-19342D01*
X14955Y-19312D01*
X14955Y-19207D01*
X14933Y-19185D01*
X14729Y-19185D01*
X14729Y-18722D01*
X15486Y-18722D01*
X15505Y-18718D01*
X15523Y-18711D01*
X15540Y-18700D01*
X15554Y-18686D01*
X15564Y-18670D01*
X15572Y-18652D01*
X15576Y-18632D01*
X15576Y-18613D01*
X15576Y-18171D01*
X15580Y-18184D01*
X15613Y-18245D01*
X15672Y-18287D01*
X15959Y-18000D01*
X15672Y-17713D01*
X15613Y-17755D01*
X15576Y-17829D01*
X15576Y-17826D01*
X15572Y-17807D01*
X15565Y-17789D01*
X15554Y-17772D01*
X15540Y-17758D01*
X15524Y-17748D01*
X15506Y-17740D01*
X15486Y-17736D01*
X15467Y-17736D01*
X15353Y-17736D01*
X15365Y-17730D01*
X15366Y-17729D01*
X15383Y-17715D01*
X15383Y-17714D01*
X15384Y-17714D01*
X15398Y-17697D01*
X15399Y-17697D01*
X15409Y-17677D01*
X15410Y-17676D01*
X15416Y-17655D01*
X15417Y-17654D01*
X15418Y-17634D01*
X15419Y-17632D01*
X15419Y-17631D01*
X15419Y-17630D01*
X15419Y-16616D01*
X15616Y-16419D01*
X29384Y-16419D01*
X29581Y-16616D01*
X29581Y-23384D01*
X29581Y-23384D01*
G37*
G54D11*
X29581Y-23384D02*
X29470Y-23495D01*
X29470Y-23004D01*
X29452Y-22914D01*
X29417Y-22828D01*
X29366Y-22752D01*
X29301Y-22686D01*
X29225Y-22635D01*
X29140Y-22599D01*
X29049Y-22580D01*
X28957Y-22580D01*
X28867Y-22597D01*
X28781Y-22631D01*
X28704Y-22682D01*
X28638Y-22746D01*
X28586Y-22822D01*
X28550Y-22907D01*
X28531Y-22997D01*
X28529Y-23089D01*
X28546Y-23180D01*
X28580Y-23266D01*
X28630Y-23343D01*
X28694Y-23410D01*
X28770Y-23462D01*
X28854Y-23499D01*
X28944Y-23519D01*
X29036Y-23521D01*
X29127Y-23505D01*
X29213Y-23472D01*
X29291Y-23422D01*
X29357Y-23359D01*
X29411Y-23283D01*
X29448Y-23199D01*
X29469Y-23109D01*
X29470Y-23004D01*
X29470Y-23495D01*
X29384Y-23581D01*
X24786Y-23581D01*
X23573Y-23581D01*
X20470Y-23581D01*
X20470Y-22904D01*
X20452Y-22814D01*
X20417Y-22728D01*
X20366Y-22652D01*
X20301Y-22586D01*
X20239Y-22544D01*
X20225Y-22535D01*
X20140Y-22499D01*
X20049Y-22480D01*
X19957Y-22480D01*
X19867Y-22497D01*
X19781Y-22531D01*
X19704Y-22582D01*
X19638Y-22646D01*
X19586Y-22722D01*
X19550Y-22807D01*
X19531Y-22897D01*
X19529Y-22989D01*
X19546Y-23080D01*
X19580Y-23166D01*
X19630Y-23243D01*
X19694Y-23310D01*
X19770Y-23362D01*
X19854Y-23399D01*
X19944Y-23419D01*
X20036Y-23421D01*
X20127Y-23405D01*
X20213Y-23372D01*
X20239Y-23355D01*
X20291Y-23322D01*
X20357Y-23259D01*
X20411Y-23183D01*
X20448Y-23099D01*
X20469Y-23009D01*
X20470Y-22904D01*
X20470Y-23581D01*
X20239Y-23581D01*
X19514Y-23581D01*
X19470Y-23581D01*
X19470Y-23004D01*
X19452Y-22914D01*
X19417Y-22828D01*
X19366Y-22752D01*
X19301Y-22686D01*
X19225Y-22635D01*
X19140Y-22599D01*
X19049Y-22580D01*
X18957Y-22580D01*
X18867Y-22597D01*
X18781Y-22631D01*
X18704Y-22682D01*
X18638Y-22746D01*
X18586Y-22822D01*
X18550Y-22907D01*
X18531Y-22997D01*
X18529Y-23089D01*
X18546Y-23180D01*
X18580Y-23266D01*
X18630Y-23343D01*
X18694Y-23410D01*
X18770Y-23462D01*
X18854Y-23499D01*
X18944Y-23519D01*
X19036Y-23521D01*
X19127Y-23505D01*
X19213Y-23472D01*
X19291Y-23422D01*
X19357Y-23359D01*
X19411Y-23283D01*
X19448Y-23199D01*
X19469Y-23109D01*
X19470Y-23004D01*
X19470Y-23581D01*
X18470Y-23581D01*
X18470Y-22946D01*
X18452Y-22856D01*
X18417Y-22770D01*
X18366Y-22694D01*
X18301Y-22628D01*
X18225Y-22577D01*
X18140Y-22541D01*
X18049Y-22522D01*
X17957Y-22522D01*
X17867Y-22539D01*
X17781Y-22573D01*
X17704Y-22624D01*
X17638Y-22688D01*
X17586Y-22764D01*
X17550Y-22849D01*
X17531Y-22939D01*
X17529Y-23031D01*
X17546Y-23122D01*
X17580Y-23208D01*
X17630Y-23285D01*
X17694Y-23352D01*
X17770Y-23404D01*
X17854Y-23441D01*
X17944Y-23461D01*
X18036Y-23463D01*
X18127Y-23447D01*
X18213Y-23414D01*
X18291Y-23364D01*
X18357Y-23301D01*
X18411Y-23225D01*
X18448Y-23141D01*
X18469Y-23051D01*
X18470Y-22946D01*
X18470Y-23581D01*
X17458Y-23581D01*
X17458Y-23040D01*
X17448Y-22952D01*
X17420Y-22866D01*
X17387Y-22805D01*
X17328Y-22763D01*
X17287Y-22804D01*
X17287Y-22722D01*
X17245Y-22663D01*
X17165Y-22623D01*
X17079Y-22599D01*
X16990Y-22592D01*
X16902Y-22602D01*
X16816Y-22630D01*
X16755Y-22663D01*
X16713Y-22722D01*
X17000Y-23009D01*
X17287Y-22722D01*
X17287Y-22804D01*
X17041Y-23050D01*
X17328Y-23337D01*
X17387Y-23295D01*
X17427Y-23215D01*
X17451Y-23129D01*
X17458Y-23040D01*
X17458Y-23581D01*
X17287Y-23581D01*
X17287Y-23378D01*
X17000Y-23091D01*
X16959Y-23132D01*
X16959Y-23050D01*
X16672Y-22763D01*
X16613Y-22805D01*
X16573Y-22885D01*
X16549Y-22971D01*
X16542Y-23060D01*
X16552Y-23148D01*
X16580Y-23234D01*
X16613Y-23295D01*
X16672Y-23337D01*
X16959Y-23050D01*
X16959Y-23132D01*
X16713Y-23378D01*
X16755Y-23437D01*
X16835Y-23477D01*
X16921Y-23501D01*
X17010Y-23508D01*
X17098Y-23498D01*
X17184Y-23470D01*
X17245Y-23437D01*
X17287Y-23378D01*
X17287Y-23581D01*
X16470Y-23581D01*
X16470Y-22904D01*
X16452Y-22814D01*
X16417Y-22728D01*
X16366Y-22652D01*
X16301Y-22586D01*
X16225Y-22535D01*
X16140Y-22499D01*
X16049Y-22480D01*
X15957Y-22480D01*
X15867Y-22497D01*
X15781Y-22531D01*
X15704Y-22582D01*
X15638Y-22646D01*
X15586Y-22722D01*
X15550Y-22807D01*
X15531Y-22897D01*
X15529Y-22989D01*
X15546Y-23080D01*
X15580Y-23166D01*
X15630Y-23243D01*
X15694Y-23310D01*
X15770Y-23362D01*
X15854Y-23399D01*
X15944Y-23419D01*
X16036Y-23421D01*
X16127Y-23405D01*
X16213Y-23372D01*
X16291Y-23322D01*
X16357Y-23259D01*
X16411Y-23183D01*
X16448Y-23099D01*
X16469Y-23009D01*
X16470Y-22904D01*
X16470Y-23581D01*
X15616Y-23581D01*
X15419Y-23384D01*
X15419Y-22375D01*
X15419Y-22374D01*
X15417Y-22352D01*
X15417Y-22351D01*
X15410Y-22329D01*
X15400Y-22309D01*
X15399Y-22308D01*
X15385Y-22291D01*
X15384Y-22290D01*
X15367Y-22275D01*
X15347Y-22265D01*
X15346Y-22264D01*
X15486Y-22264D01*
X15505Y-22260D01*
X15523Y-22253D01*
X15540Y-22242D01*
X15554Y-22228D01*
X15564Y-22212D01*
X15571Y-22194D01*
X15580Y-22216D01*
X15630Y-22293D01*
X15694Y-22360D01*
X15770Y-22412D01*
X15854Y-22449D01*
X15944Y-22469D01*
X16036Y-22471D01*
X16127Y-22455D01*
X16213Y-22422D01*
X16291Y-22372D01*
X16357Y-22309D01*
X16411Y-22233D01*
X16448Y-22149D01*
X16467Y-22064D01*
X16737Y-22064D01*
X16740Y-22070D01*
X16751Y-22087D01*
X16765Y-22101D01*
X16781Y-22111D01*
X16799Y-22119D01*
X16819Y-22123D01*
X16838Y-22123D01*
X17113Y-22123D01*
X17091Y-22156D01*
X17070Y-22206D01*
X17058Y-22259D01*
X17058Y-22313D01*
X17067Y-22367D01*
X17087Y-22417D01*
X17117Y-22463D01*
X17154Y-22502D01*
X17199Y-22533D01*
X17249Y-22555D01*
X17302Y-22566D01*
X17356Y-22568D01*
X17410Y-22558D01*
X17460Y-22538D01*
X17506Y-22509D01*
X17546Y-22472D01*
X17577Y-22428D01*
X17598Y-22379D01*
X17981Y-22379D01*
X18000Y-22375D01*
X18018Y-22368D01*
X18035Y-22357D01*
X18049Y-22343D01*
X18059Y-22327D01*
X18062Y-22320D01*
X18176Y-22320D01*
X18173Y-22334D01*
X18173Y-22388D01*
X18182Y-22442D01*
X18202Y-22492D01*
X18232Y-22538D01*
X18269Y-22577D01*
X18314Y-22608D01*
X18364Y-22630D01*
X18417Y-22641D01*
X18471Y-22643D01*
X18525Y-22633D01*
X18575Y-22613D01*
X18621Y-22584D01*
X18661Y-22547D01*
X18692Y-22503D01*
X18714Y-22453D01*
X18726Y-22400D01*
X18726Y-22398D01*
X19205Y-22398D01*
X19212Y-22437D01*
X19232Y-22487D01*
X19262Y-22533D01*
X19299Y-22572D01*
X19344Y-22603D01*
X19394Y-22625D01*
X19447Y-22636D01*
X19501Y-22638D01*
X19514Y-22635D01*
X19555Y-22628D01*
X19605Y-22608D01*
X19651Y-22579D01*
X19691Y-22542D01*
X19722Y-22498D01*
X19744Y-22448D01*
X19756Y-22395D01*
X19757Y-22333D01*
X19746Y-22280D01*
X19726Y-22229D01*
X19719Y-22219D01*
X19863Y-22219D01*
X19865Y-22219D01*
X19894Y-22216D01*
X19896Y-22216D01*
X19912Y-22211D01*
X19924Y-22208D01*
X19926Y-22207D01*
X19952Y-22194D01*
X19953Y-22192D01*
X19976Y-22174D01*
X19976Y-22173D01*
X19977Y-22173D01*
X19977Y-22172D01*
X19981Y-22167D01*
X20035Y-22114D01*
X20036Y-22114D01*
X20036Y-22113D01*
X20037Y-22113D01*
X20056Y-22090D01*
X20057Y-22089D01*
X20061Y-22081D01*
X20071Y-22063D01*
X20071Y-22061D01*
X20081Y-22033D01*
X20084Y-22002D01*
X20084Y-22000D01*
X20084Y-21951D01*
X20160Y-21951D01*
X20179Y-21947D01*
X20197Y-21940D01*
X20214Y-21929D01*
X20228Y-21915D01*
X20238Y-21899D01*
X20239Y-21896D01*
X20246Y-21881D01*
X20250Y-21861D01*
X20250Y-21842D01*
X20250Y-21447D01*
X20246Y-21428D01*
X20239Y-21410D01*
X20239Y-21188D01*
X20246Y-21173D01*
X20250Y-21153D01*
X20250Y-21134D01*
X20250Y-20739D01*
X20246Y-20720D01*
X20239Y-20702D01*
X20228Y-20685D01*
X20214Y-20671D01*
X20198Y-20661D01*
X20180Y-20653D01*
X20160Y-20649D01*
X20141Y-20649D01*
X20084Y-20649D01*
X20084Y-20290D01*
X20255Y-20119D01*
X20696Y-20119D01*
X20691Y-20131D01*
X20682Y-20168D01*
X20544Y-20307D01*
X20543Y-20308D01*
X20527Y-20327D01*
X20516Y-20349D01*
X20515Y-20351D01*
X20512Y-20359D01*
X20508Y-20373D01*
X20505Y-20398D01*
X20505Y-20400D01*
X20505Y-20569D01*
X20505Y-20570D01*
X20507Y-20595D01*
X20515Y-20620D01*
X20522Y-20634D01*
X20526Y-20641D01*
X20527Y-20642D01*
X20542Y-20661D01*
X20543Y-20662D01*
X20678Y-20796D01*
X20678Y-22361D01*
X20678Y-22362D01*
X20680Y-22387D01*
X20688Y-22412D01*
X20695Y-22426D01*
X20699Y-22433D01*
X20700Y-22434D01*
X20715Y-22453D01*
X20716Y-22454D01*
X20861Y-22599D01*
X20781Y-22631D01*
X20704Y-22682D01*
X20638Y-22746D01*
X20586Y-22822D01*
X20550Y-22907D01*
X20531Y-22997D01*
X20529Y-23089D01*
X20546Y-23180D01*
X20580Y-23266D01*
X20630Y-23343D01*
X20694Y-23410D01*
X20770Y-23462D01*
X20854Y-23499D01*
X20944Y-23519D01*
X21036Y-23521D01*
X21127Y-23505D01*
X21213Y-23472D01*
X21291Y-23422D01*
X21357Y-23359D01*
X21411Y-23283D01*
X21448Y-23199D01*
X21469Y-23109D01*
X21470Y-23004D01*
X21452Y-22914D01*
X21418Y-22832D01*
X21581Y-22832D01*
X21550Y-22907D01*
X21531Y-22997D01*
X21529Y-23089D01*
X21546Y-23180D01*
X21580Y-23266D01*
X21630Y-23343D01*
X21694Y-23410D01*
X21770Y-23462D01*
X21854Y-23499D01*
X21944Y-23519D01*
X22036Y-23521D01*
X22127Y-23505D01*
X22213Y-23472D01*
X22291Y-23422D01*
X22357Y-23359D01*
X22411Y-23283D01*
X22448Y-23199D01*
X22469Y-23109D01*
X22470Y-23004D01*
X22452Y-22914D01*
X22417Y-22828D01*
X22366Y-22752D01*
X22324Y-22710D01*
X22675Y-22710D01*
X22638Y-22746D01*
X22586Y-22822D01*
X22550Y-22907D01*
X22531Y-22997D01*
X22529Y-23089D01*
X22546Y-23180D01*
X22580Y-23266D01*
X22630Y-23343D01*
X22694Y-23410D01*
X22770Y-23462D01*
X22854Y-23499D01*
X22944Y-23519D01*
X23036Y-23521D01*
X23127Y-23505D01*
X23213Y-23472D01*
X23291Y-23422D01*
X23357Y-23359D01*
X23411Y-23283D01*
X23448Y-23199D01*
X23469Y-23109D01*
X23470Y-23004D01*
X23452Y-22914D01*
X23417Y-22828D01*
X23366Y-22752D01*
X23324Y-22710D01*
X23573Y-22710D01*
X23594Y-22710D01*
X23586Y-22722D01*
X23573Y-22752D01*
X23550Y-22807D01*
X23531Y-22897D01*
X23529Y-22989D01*
X23546Y-23080D01*
X23573Y-23148D01*
X23580Y-23166D01*
X23630Y-23243D01*
X23694Y-23310D01*
X23770Y-23362D01*
X23854Y-23399D01*
X23944Y-23419D01*
X24036Y-23421D01*
X24127Y-23405D01*
X24213Y-23372D01*
X24291Y-23322D01*
X24357Y-23259D01*
X24411Y-23183D01*
X24448Y-23099D01*
X24469Y-23009D01*
X24470Y-22904D01*
X24452Y-22814D01*
X24417Y-22728D01*
X24366Y-22652D01*
X24330Y-22616D01*
X24786Y-22616D01*
X24818Y-22616D01*
X24786Y-22629D01*
X24781Y-22631D01*
X24704Y-22682D01*
X24638Y-22746D01*
X24586Y-22822D01*
X24550Y-22907D01*
X24531Y-22997D01*
X24529Y-23089D01*
X24546Y-23180D01*
X24580Y-23266D01*
X24630Y-23343D01*
X24694Y-23410D01*
X24770Y-23462D01*
X24786Y-23469D01*
X24854Y-23499D01*
X24944Y-23519D01*
X25036Y-23521D01*
X25127Y-23505D01*
X25213Y-23472D01*
X25291Y-23422D01*
X25357Y-23359D01*
X25411Y-23283D01*
X25448Y-23199D01*
X25469Y-23109D01*
X25470Y-23004D01*
X25452Y-22914D01*
X25417Y-22828D01*
X25366Y-22752D01*
X25301Y-22686D01*
X25225Y-22635D01*
X25180Y-22616D01*
X25668Y-22616D01*
X25638Y-22646D01*
X25586Y-22722D01*
X25550Y-22807D01*
X25531Y-22897D01*
X25529Y-22989D01*
X25546Y-23080D01*
X25580Y-23166D01*
X25630Y-23243D01*
X25694Y-23310D01*
X25770Y-23362D01*
X25854Y-23399D01*
X25944Y-23419D01*
X26036Y-23421D01*
X26127Y-23405D01*
X26213Y-23372D01*
X26291Y-23322D01*
X26357Y-23259D01*
X26411Y-23183D01*
X26448Y-23099D01*
X26469Y-23009D01*
X26470Y-22904D01*
X26452Y-22814D01*
X26417Y-22728D01*
X26366Y-22652D01*
X26320Y-22605D01*
X26322Y-22605D01*
X26324Y-22604D01*
X26350Y-22591D01*
X26351Y-22589D01*
X26374Y-22571D01*
X26374Y-22570D01*
X26375Y-22570D01*
X26375Y-22569D01*
X26379Y-22564D01*
X26648Y-22296D01*
X26649Y-22302D01*
X26664Y-22340D01*
X26686Y-22374D01*
X26714Y-22404D01*
X26748Y-22427D01*
X26785Y-22444D01*
X26825Y-22452D01*
X26866Y-22453D01*
X26870Y-22452D01*
X26870Y-22596D01*
X26867Y-22597D01*
X26781Y-22631D01*
X26704Y-22682D01*
X26638Y-22746D01*
X26586Y-22822D01*
X26550Y-22907D01*
X26531Y-22997D01*
X26529Y-23089D01*
X26546Y-23180D01*
X26580Y-23266D01*
X26630Y-23343D01*
X26694Y-23410D01*
X26770Y-23462D01*
X26854Y-23499D01*
X26944Y-23519D01*
X27036Y-23521D01*
X27127Y-23505D01*
X27213Y-23472D01*
X27291Y-23422D01*
X27357Y-23359D01*
X27411Y-23283D01*
X27448Y-23199D01*
X27469Y-23109D01*
X27470Y-23004D01*
X27452Y-22914D01*
X27417Y-22828D01*
X27366Y-22752D01*
X27301Y-22686D01*
X27225Y-22635D01*
X27140Y-22599D01*
X27130Y-22596D01*
X27130Y-22396D01*
X27130Y-22395D01*
X27128Y-22370D01*
X27124Y-22358D01*
X27385Y-22620D01*
X27386Y-22621D01*
X27387Y-22622D01*
X27410Y-22641D01*
X27411Y-22642D01*
X27433Y-22654D01*
X27437Y-22656D01*
X27439Y-22657D01*
X27444Y-22658D01*
X27467Y-22666D01*
X27498Y-22669D01*
X27499Y-22669D01*
X27500Y-22669D01*
X27723Y-22669D01*
X27704Y-22682D01*
X27638Y-22746D01*
X27586Y-22822D01*
X27550Y-22907D01*
X27531Y-22997D01*
X27529Y-23089D01*
X27546Y-23180D01*
X27580Y-23266D01*
X27630Y-23343D01*
X27694Y-23410D01*
X27770Y-23462D01*
X27854Y-23499D01*
X27944Y-23519D01*
X28036Y-23521D01*
X28127Y-23505D01*
X28213Y-23472D01*
X28291Y-23422D01*
X28357Y-23359D01*
X28411Y-23283D01*
X28448Y-23199D01*
X28469Y-23109D01*
X28470Y-23004D01*
X28452Y-22914D01*
X28417Y-22828D01*
X28366Y-22752D01*
X28301Y-22686D01*
X28275Y-22669D01*
X28538Y-22669D01*
X28540Y-22669D01*
X28569Y-22666D01*
X28571Y-22666D01*
X28587Y-22661D01*
X28599Y-22658D01*
X28601Y-22657D01*
X28627Y-22644D01*
X28628Y-22642D01*
X28651Y-22624D01*
X28651Y-22623D01*
X28652Y-22623D01*
X28652Y-22622D01*
X28656Y-22617D01*
X28849Y-22424D01*
X28904Y-22449D01*
X28994Y-22469D01*
X29086Y-22471D01*
X29177Y-22455D01*
X29263Y-22422D01*
X29341Y-22372D01*
X29407Y-22309D01*
X29461Y-22233D01*
X29498Y-22149D01*
X29519Y-22059D01*
X29520Y-21954D01*
X29520Y-19954D01*
X29520Y-17954D01*
X29502Y-17864D01*
X29470Y-17785D01*
X29470Y-17004D01*
X29452Y-16914D01*
X29417Y-16828D01*
X29366Y-16752D01*
X29301Y-16686D01*
X29225Y-16635D01*
X29140Y-16599D01*
X29049Y-16580D01*
X28957Y-16580D01*
X28867Y-16597D01*
X28781Y-16631D01*
X28704Y-16682D01*
X28638Y-16746D01*
X28586Y-16822D01*
X28550Y-16907D01*
X28531Y-16997D01*
X28529Y-17089D01*
X28546Y-17180D01*
X28580Y-17266D01*
X28630Y-17343D01*
X28694Y-17410D01*
X28770Y-17462D01*
X28854Y-17499D01*
X28944Y-17519D01*
X29036Y-17521D01*
X29127Y-17505D01*
X29213Y-17472D01*
X29291Y-17422D01*
X29357Y-17359D01*
X29411Y-17283D01*
X29448Y-17199D01*
X29469Y-17109D01*
X29470Y-17004D01*
X29470Y-17785D01*
X29467Y-17778D01*
X29416Y-17702D01*
X29351Y-17636D01*
X29275Y-17585D01*
X29190Y-17549D01*
X29099Y-17530D01*
X29007Y-17530D01*
X28917Y-17547D01*
X28831Y-17581D01*
X28754Y-17632D01*
X28688Y-17696D01*
X28636Y-17772D01*
X28600Y-17857D01*
X28581Y-17947D01*
X28579Y-18039D01*
X28596Y-18130D01*
X28630Y-18216D01*
X28680Y-18293D01*
X28744Y-18360D01*
X28820Y-18412D01*
X28904Y-18449D01*
X28994Y-18469D01*
X29086Y-18471D01*
X29177Y-18455D01*
X29263Y-18422D01*
X29341Y-18372D01*
X29407Y-18309D01*
X29461Y-18233D01*
X29498Y-18149D01*
X29519Y-18059D01*
X29520Y-17954D01*
X29520Y-19954D01*
X29502Y-19864D01*
X29467Y-19778D01*
X29420Y-19707D01*
X29420Y-18954D01*
X29402Y-18864D01*
X29367Y-18778D01*
X29316Y-18702D01*
X29251Y-18636D01*
X29175Y-18585D01*
X29090Y-18549D01*
X28999Y-18530D01*
X28907Y-18530D01*
X28817Y-18547D01*
X28731Y-18581D01*
X28654Y-18632D01*
X28588Y-18696D01*
X28536Y-18772D01*
X28520Y-18809D01*
X28520Y-17954D01*
X28502Y-17864D01*
X28470Y-17785D01*
X28470Y-16904D01*
X28452Y-16814D01*
X28417Y-16728D01*
X28366Y-16652D01*
X28301Y-16586D01*
X28225Y-16535D01*
X28140Y-16499D01*
X28049Y-16480D01*
X27957Y-16480D01*
X27867Y-16497D01*
X27781Y-16531D01*
X27704Y-16582D01*
X27638Y-16646D01*
X27586Y-16722D01*
X27550Y-16807D01*
X27531Y-16897D01*
X27529Y-16989D01*
X27546Y-17080D01*
X27580Y-17166D01*
X27630Y-17243D01*
X27694Y-17310D01*
X27770Y-17362D01*
X27854Y-17399D01*
X27944Y-17419D01*
X28036Y-17421D01*
X28127Y-17405D01*
X28213Y-17372D01*
X28291Y-17322D01*
X28357Y-17259D01*
X28411Y-17183D01*
X28448Y-17099D01*
X28469Y-17009D01*
X28470Y-16904D01*
X28470Y-17785D01*
X28467Y-17778D01*
X28416Y-17702D01*
X28351Y-17636D01*
X28275Y-17585D01*
X28190Y-17549D01*
X28099Y-17530D01*
X28007Y-17530D01*
X27917Y-17547D01*
X27831Y-17581D01*
X27754Y-17632D01*
X27688Y-17696D01*
X27636Y-17772D01*
X27600Y-17857D01*
X27581Y-17947D01*
X27579Y-18039D01*
X27596Y-18130D01*
X27630Y-18216D01*
X27680Y-18293D01*
X27744Y-18360D01*
X27820Y-18412D01*
X27904Y-18449D01*
X27994Y-18469D01*
X28086Y-18471D01*
X28177Y-18455D01*
X28263Y-18422D01*
X28341Y-18372D01*
X28407Y-18309D01*
X28461Y-18233D01*
X28498Y-18149D01*
X28519Y-18059D01*
X28520Y-17954D01*
X28520Y-18809D01*
X28500Y-18857D01*
X28481Y-18947D01*
X28479Y-19039D01*
X28496Y-19130D01*
X28530Y-19216D01*
X28580Y-19293D01*
X28644Y-19360D01*
X28720Y-19412D01*
X28804Y-19449D01*
X28894Y-19469D01*
X28986Y-19471D01*
X29077Y-19455D01*
X29163Y-19422D01*
X29241Y-19372D01*
X29307Y-19309D01*
X29361Y-19233D01*
X29398Y-19149D01*
X29419Y-19059D01*
X29420Y-18954D01*
X29420Y-19707D01*
X29416Y-19702D01*
X29351Y-19636D01*
X29275Y-19585D01*
X29190Y-19549D01*
X29099Y-19530D01*
X29007Y-19530D01*
X28917Y-19547D01*
X28831Y-19581D01*
X28754Y-19632D01*
X28688Y-19696D01*
X28636Y-19772D01*
X28600Y-19857D01*
X28581Y-19947D01*
X28579Y-20039D01*
X28596Y-20130D01*
X28630Y-20216D01*
X28680Y-20293D01*
X28744Y-20360D01*
X28820Y-20412D01*
X28904Y-20449D01*
X28994Y-20469D01*
X29086Y-20471D01*
X29177Y-20455D01*
X29263Y-20422D01*
X29341Y-20372D01*
X29407Y-20309D01*
X29461Y-20233D01*
X29498Y-20149D01*
X29519Y-20059D01*
X29520Y-19954D01*
X29520Y-21954D01*
X29502Y-21864D01*
X29467Y-21778D01*
X29420Y-21707D01*
X29420Y-20954D01*
X29402Y-20864D01*
X29367Y-20778D01*
X29316Y-20702D01*
X29251Y-20636D01*
X29175Y-20585D01*
X29090Y-20549D01*
X28999Y-20530D01*
X28907Y-20530D01*
X28817Y-20547D01*
X28731Y-20581D01*
X28654Y-20632D01*
X28588Y-20696D01*
X28536Y-20772D01*
X28500Y-20857D01*
X28481Y-20947D01*
X28479Y-21039D01*
X28496Y-21130D01*
X28530Y-21216D01*
X28580Y-21293D01*
X28644Y-21360D01*
X28720Y-21412D01*
X28804Y-21449D01*
X28894Y-21469D01*
X28986Y-21471D01*
X29077Y-21455D01*
X29163Y-21422D01*
X29241Y-21372D01*
X29307Y-21309D01*
X29361Y-21233D01*
X29398Y-21149D01*
X29419Y-21059D01*
X29420Y-20954D01*
X29420Y-21707D01*
X29416Y-21702D01*
X29351Y-21636D01*
X29275Y-21585D01*
X29190Y-21549D01*
X29099Y-21530D01*
X29007Y-21530D01*
X28917Y-21547D01*
X28831Y-21581D01*
X28754Y-21632D01*
X28688Y-21696D01*
X28636Y-21772D01*
X28600Y-21857D01*
X28581Y-21947D01*
X28579Y-22039D01*
X28596Y-22130D01*
X28624Y-22201D01*
X28474Y-22351D01*
X28363Y-22351D01*
X28407Y-22309D01*
X28461Y-22233D01*
X28498Y-22149D01*
X28519Y-22059D01*
X28520Y-21954D01*
X28502Y-21864D01*
X28467Y-21778D01*
X28416Y-21702D01*
X28351Y-21636D01*
X28275Y-21585D01*
X28190Y-21549D01*
X28099Y-21530D01*
X28007Y-21530D01*
X27917Y-21547D01*
X27831Y-21581D01*
X27754Y-21632D01*
X27688Y-21696D01*
X27636Y-21772D01*
X27600Y-21857D01*
X27581Y-21947D01*
X27579Y-22039D01*
X27596Y-22130D01*
X27630Y-22216D01*
X27680Y-22293D01*
X27735Y-22351D01*
X27565Y-22351D01*
X27092Y-21878D01*
X27089Y-21874D01*
X27087Y-21873D01*
X27065Y-21854D01*
X27063Y-21853D01*
X27038Y-21839D01*
X27037Y-21838D01*
X27036Y-21838D01*
X27026Y-21835D01*
X27008Y-21829D01*
X26977Y-21826D01*
X26976Y-21826D01*
X26975Y-21826D01*
X26836Y-21826D01*
X27034Y-21628D01*
X27101Y-21628D01*
X27102Y-21628D01*
X27127Y-21626D01*
X27150Y-21618D01*
X27152Y-21618D01*
X27166Y-21610D01*
X27173Y-21607D01*
X27174Y-21606D01*
X27193Y-21591D01*
X27194Y-21590D01*
X27335Y-21449D01*
X27351Y-21429D01*
X27352Y-21429D01*
X27363Y-21407D01*
X27364Y-21406D01*
X27368Y-21390D01*
X27371Y-21383D01*
X27371Y-21382D01*
X27374Y-21358D01*
X27374Y-21357D01*
X27374Y-21356D01*
X27374Y-21267D01*
X27500Y-21140D01*
X27530Y-21216D01*
X27580Y-21293D01*
X27644Y-21360D01*
X27720Y-21412D01*
X27804Y-21449D01*
X27894Y-21469D01*
X27986Y-21471D01*
X28077Y-21455D01*
X28163Y-21422D01*
X28241Y-21372D01*
X28307Y-21309D01*
X28361Y-21233D01*
X28398Y-21149D01*
X28419Y-21059D01*
X28420Y-20954D01*
X28402Y-20864D01*
X28367Y-20778D01*
X28316Y-20702D01*
X28251Y-20636D01*
X28175Y-20585D01*
X28090Y-20549D01*
X27999Y-20530D01*
X27932Y-20530D01*
X27993Y-20468D01*
X27994Y-20469D01*
X28086Y-20471D01*
X28177Y-20455D01*
X28263Y-20422D01*
X28341Y-20372D01*
X28407Y-20309D01*
X28461Y-20233D01*
X28498Y-20149D01*
X28519Y-20059D01*
X28520Y-19954D01*
X28502Y-19864D01*
X28467Y-19778D01*
X28416Y-19702D01*
X28408Y-19693D01*
X28408Y-18990D01*
X28398Y-18902D01*
X28370Y-18816D01*
X28337Y-18755D01*
X28278Y-18713D01*
X28237Y-18754D01*
X28237Y-18672D01*
X28195Y-18613D01*
X28115Y-18573D01*
X28029Y-18549D01*
X27940Y-18542D01*
X27852Y-18552D01*
X27766Y-18580D01*
X27705Y-18613D01*
X27663Y-18672D01*
X27950Y-18959D01*
X28237Y-18672D01*
X28237Y-18754D01*
X27991Y-19000D01*
X28278Y-19287D01*
X28337Y-19245D01*
X28377Y-19165D01*
X28401Y-19079D01*
X28408Y-18990D01*
X28408Y-19693D01*
X28351Y-19636D01*
X28275Y-19585D01*
X28237Y-19568D01*
X28237Y-19328D01*
X27950Y-19041D01*
X27909Y-19082D01*
X27909Y-19000D01*
X27622Y-18713D01*
X27563Y-18755D01*
X27523Y-18835D01*
X27499Y-18921D01*
X27492Y-19010D01*
X27502Y-19098D01*
X27530Y-19184D01*
X27563Y-19245D01*
X27622Y-19287D01*
X27909Y-19000D01*
X27909Y-19082D01*
X27663Y-19328D01*
X27705Y-19387D01*
X27785Y-19427D01*
X27871Y-19451D01*
X27960Y-19458D01*
X28048Y-19448D01*
X28134Y-19420D01*
X28195Y-19387D01*
X28237Y-19328D01*
X28237Y-19568D01*
X28190Y-19549D01*
X28099Y-19530D01*
X28007Y-19530D01*
X27917Y-19547D01*
X27831Y-19581D01*
X27754Y-19632D01*
X27688Y-19696D01*
X27636Y-19772D01*
X27600Y-19857D01*
X27581Y-19947D01*
X27579Y-20005D01*
X27470Y-19896D01*
X27470Y-17004D01*
X27452Y-16914D01*
X27417Y-16828D01*
X27366Y-16752D01*
X27301Y-16686D01*
X27225Y-16635D01*
X27140Y-16599D01*
X27049Y-16580D01*
X26957Y-16580D01*
X26867Y-16597D01*
X26781Y-16631D01*
X26704Y-16682D01*
X26638Y-16746D01*
X26586Y-16822D01*
X26550Y-16907D01*
X26531Y-16997D01*
X26529Y-17089D01*
X26546Y-17180D01*
X26580Y-17266D01*
X26630Y-17343D01*
X26694Y-17410D01*
X26770Y-17462D01*
X26854Y-17499D01*
X26944Y-17519D01*
X27036Y-17521D01*
X27127Y-17505D01*
X27213Y-17472D01*
X27291Y-17422D01*
X27357Y-17359D01*
X27411Y-17283D01*
X27448Y-17199D01*
X27469Y-17109D01*
X27470Y-17004D01*
X27470Y-19896D01*
X27467Y-19893D01*
X27466Y-19892D01*
X27447Y-19876D01*
X27425Y-19865D01*
X27423Y-19864D01*
X27415Y-19861D01*
X27401Y-19857D01*
X27376Y-19854D01*
X27374Y-19854D01*
X27190Y-19854D01*
X27189Y-19854D01*
X27164Y-19856D01*
X27139Y-19864D01*
X27117Y-19876D01*
X27102Y-19888D01*
X27098Y-19891D01*
X27097Y-19891D01*
X27097Y-19892D01*
X27092Y-19897D01*
X27087Y-19902D01*
X27087Y-19161D01*
X27087Y-19144D01*
X27087Y-18888D01*
X27087Y-18786D01*
X27087Y-18530D01*
X27087Y-18513D01*
X27084Y-18496D01*
X27082Y-18491D01*
X27082Y-18326D01*
X27082Y-18309D01*
X27082Y-18077D01*
X27082Y-17975D01*
X27082Y-17743D01*
X27082Y-17726D01*
X27079Y-17709D01*
X27072Y-17693D01*
X27062Y-17679D01*
X27050Y-17667D01*
X27036Y-17657D01*
X27020Y-17650D01*
X27003Y-17647D01*
X26930Y-17647D01*
X26908Y-17669D01*
X26908Y-17997D01*
X27060Y-17997D01*
X27082Y-17975D01*
X27082Y-18077D01*
X27060Y-18055D01*
X26908Y-18055D01*
X26908Y-18383D01*
X26930Y-18405D01*
X27003Y-18405D01*
X27020Y-18402D01*
X27036Y-18395D01*
X27050Y-18385D01*
X27062Y-18373D01*
X27072Y-18359D01*
X27079Y-18343D01*
X27082Y-18326D01*
X27082Y-18491D01*
X27077Y-18480D01*
X27067Y-18466D01*
X27055Y-18454D01*
X27041Y-18444D01*
X27025Y-18437D01*
X27008Y-18434D01*
X26930Y-18434D01*
X26908Y-18456D01*
X26908Y-18808D01*
X27065Y-18808D01*
X27087Y-18786D01*
X27087Y-18888D01*
X27065Y-18866D01*
X26908Y-18866D01*
X26908Y-19218D01*
X26930Y-19240D01*
X27008Y-19240D01*
X27025Y-19237D01*
X27041Y-19230D01*
X27055Y-19220D01*
X27067Y-19208D01*
X27077Y-19194D01*
X27084Y-19178D01*
X27087Y-19161D01*
X27087Y-19902D01*
X27056Y-19933D01*
X26850Y-19933D01*
X26850Y-19218D01*
X26850Y-18866D01*
X26850Y-18808D01*
X26850Y-18456D01*
X26850Y-18383D01*
X26850Y-18055D01*
X26850Y-17997D01*
X26850Y-17669D01*
X26828Y-17647D01*
X26755Y-17647D01*
X26738Y-17650D01*
X26722Y-17657D01*
X26708Y-17667D01*
X26696Y-17679D01*
X26686Y-17693D01*
X26679Y-17709D01*
X26676Y-17726D01*
X26676Y-17743D01*
X26676Y-17975D01*
X26698Y-17997D01*
X26850Y-17997D01*
X26850Y-18055D01*
X26698Y-18055D01*
X26676Y-18077D01*
X26676Y-18309D01*
X26676Y-18326D01*
X26679Y-18343D01*
X26686Y-18359D01*
X26696Y-18373D01*
X26708Y-18385D01*
X26722Y-18395D01*
X26738Y-18402D01*
X26755Y-18405D01*
X26828Y-18405D01*
X26850Y-18383D01*
X26850Y-18456D01*
X26828Y-18434D01*
X26750Y-18434D01*
X26733Y-18437D01*
X26717Y-18444D01*
X26703Y-18454D01*
X26691Y-18466D01*
X26681Y-18480D01*
X26674Y-18496D01*
X26671Y-18513D01*
X26671Y-18530D01*
X26671Y-18786D01*
X26693Y-18808D01*
X26850Y-18808D01*
X26850Y-18866D01*
X26693Y-18866D01*
X26671Y-18888D01*
X26671Y-19144D01*
X26671Y-19161D01*
X26674Y-19178D01*
X26681Y-19194D01*
X26691Y-19208D01*
X26703Y-19220D01*
X26717Y-19230D01*
X26733Y-19237D01*
X26750Y-19240D01*
X26828Y-19240D01*
X26850Y-19218D01*
X26850Y-19933D01*
X26834Y-19933D01*
X26809Y-19935D01*
X26784Y-19943D01*
X26762Y-19955D01*
X26747Y-19967D01*
X26743Y-19970D01*
X26742Y-19971D01*
X26741Y-19972D01*
X26418Y-20295D01*
X26382Y-20295D01*
X26382Y-19888D01*
X26382Y-19887D01*
X26380Y-19862D01*
X26372Y-19839D01*
X26372Y-19837D01*
X26364Y-19822D01*
X26361Y-19816D01*
X26360Y-19815D01*
X26345Y-19796D01*
X26344Y-19795D01*
X26009Y-19460D01*
X26009Y-19252D01*
X26028Y-19248D01*
X26046Y-19241D01*
X26063Y-19230D01*
X26077Y-19216D01*
X26087Y-19200D01*
X26095Y-19182D01*
X26099Y-19162D01*
X26099Y-19143D01*
X26099Y-19014D01*
X26106Y-19018D01*
X26146Y-19026D01*
X26159Y-19026D01*
X26159Y-19162D01*
X26163Y-19181D01*
X26170Y-19199D01*
X26181Y-19216D01*
X26195Y-19230D01*
X26211Y-19240D01*
X26229Y-19248D01*
X26249Y-19252D01*
X26268Y-19252D01*
X26509Y-19252D01*
X26528Y-19248D01*
X26546Y-19241D01*
X26563Y-19230D01*
X26577Y-19216D01*
X26587Y-19200D01*
X26595Y-19182D01*
X26599Y-19162D01*
X26599Y-19143D01*
X26599Y-18512D01*
X26595Y-18493D01*
X26588Y-18475D01*
X26577Y-18458D01*
X26563Y-18444D01*
X26547Y-18434D01*
X26529Y-18426D01*
X26509Y-18422D01*
X26509Y-18415D01*
X26523Y-18413D01*
X26541Y-18406D01*
X26558Y-18395D01*
X26572Y-18381D01*
X26582Y-18365D01*
X26590Y-18347D01*
X26594Y-18327D01*
X26594Y-18308D01*
X26594Y-17725D01*
X26590Y-17706D01*
X26583Y-17688D01*
X26572Y-17671D01*
X26558Y-17657D01*
X26542Y-17647D01*
X26524Y-17639D01*
X26504Y-17635D01*
X26485Y-17635D01*
X26470Y-17635D01*
X26470Y-16904D01*
X26452Y-16814D01*
X26417Y-16728D01*
X26366Y-16652D01*
X26301Y-16586D01*
X26225Y-16535D01*
X26140Y-16499D01*
X26049Y-16480D01*
X25957Y-16480D01*
X25867Y-16497D01*
X25781Y-16531D01*
X25704Y-16582D01*
X25638Y-16646D01*
X25586Y-16722D01*
X25550Y-16807D01*
X25531Y-16897D01*
X25529Y-16989D01*
X25546Y-17080D01*
X25580Y-17166D01*
X25630Y-17243D01*
X25694Y-17310D01*
X25770Y-17362D01*
X25854Y-17399D01*
X25944Y-17419D01*
X26036Y-17421D01*
X26127Y-17405D01*
X26213Y-17372D01*
X26291Y-17322D01*
X26357Y-17259D01*
X26411Y-17183D01*
X26448Y-17099D01*
X26469Y-17009D01*
X26470Y-16904D01*
X26470Y-17635D01*
X26254Y-17635D01*
X26235Y-17639D01*
X26217Y-17646D01*
X26200Y-17657D01*
X26186Y-17671D01*
X26176Y-17687D01*
X26168Y-17705D01*
X26164Y-17725D01*
X26164Y-17744D01*
X26164Y-18327D01*
X26168Y-18346D01*
X26175Y-18364D01*
X26186Y-18381D01*
X26200Y-18395D01*
X26216Y-18405D01*
X26234Y-18413D01*
X26249Y-18416D01*
X26249Y-18422D01*
X26230Y-18426D01*
X26212Y-18433D01*
X26195Y-18444D01*
X26181Y-18458D01*
X26171Y-18474D01*
X26163Y-18492D01*
X26159Y-18512D01*
X26159Y-18531D01*
X26159Y-18611D01*
X26152Y-18611D01*
X26112Y-18618D01*
X26099Y-18623D01*
X26099Y-18512D01*
X26095Y-18493D01*
X26088Y-18475D01*
X26077Y-18458D01*
X26063Y-18444D01*
X26047Y-18434D01*
X26029Y-18426D01*
X26009Y-18422D01*
X26009Y-18415D01*
X26023Y-18413D01*
X26041Y-18406D01*
X26058Y-18395D01*
X26072Y-18381D01*
X26082Y-18365D01*
X26090Y-18347D01*
X26094Y-18327D01*
X26094Y-18308D01*
X26094Y-17725D01*
X26090Y-17706D01*
X26083Y-17688D01*
X26072Y-17671D01*
X26058Y-17657D01*
X26042Y-17647D01*
X26024Y-17639D01*
X26004Y-17635D01*
X25985Y-17635D01*
X25754Y-17635D01*
X25735Y-17639D01*
X25717Y-17646D01*
X25700Y-17657D01*
X25686Y-17671D01*
X25676Y-17687D01*
X25668Y-17705D01*
X25664Y-17725D01*
X25664Y-17744D01*
X25664Y-18327D01*
X25668Y-18346D01*
X25675Y-18364D01*
X25686Y-18381D01*
X25700Y-18395D01*
X25716Y-18405D01*
X25734Y-18413D01*
X25749Y-18416D01*
X25749Y-18422D01*
X25730Y-18426D01*
X25712Y-18433D01*
X25695Y-18444D01*
X25681Y-18458D01*
X25671Y-18474D01*
X25663Y-18492D01*
X25659Y-18512D01*
X25659Y-18531D01*
X25659Y-18694D01*
X25649Y-18691D01*
X25609Y-18682D01*
X25599Y-18682D01*
X25599Y-18512D01*
X25595Y-18493D01*
X25588Y-18475D01*
X25577Y-18458D01*
X25563Y-18444D01*
X25547Y-18434D01*
X25529Y-18426D01*
X25509Y-18422D01*
X25509Y-18415D01*
X25523Y-18413D01*
X25541Y-18406D01*
X25558Y-18395D01*
X25572Y-18381D01*
X25582Y-18365D01*
X25590Y-18347D01*
X25594Y-18327D01*
X25594Y-18308D01*
X25594Y-17725D01*
X25590Y-17706D01*
X25583Y-17688D01*
X25572Y-17671D01*
X25558Y-17657D01*
X25542Y-17647D01*
X25524Y-17639D01*
X25504Y-17635D01*
X25485Y-17635D01*
X25470Y-17635D01*
X25470Y-17004D01*
X25452Y-16914D01*
X25417Y-16828D01*
X25366Y-16752D01*
X25301Y-16686D01*
X25225Y-16635D01*
X25140Y-16599D01*
X25049Y-16580D01*
X24957Y-16580D01*
X24867Y-16597D01*
X24781Y-16631D01*
X24704Y-16682D01*
X24638Y-16746D01*
X24586Y-16822D01*
X24550Y-16907D01*
X24531Y-16997D01*
X24529Y-17089D01*
X24546Y-17180D01*
X24580Y-17266D01*
X24630Y-17343D01*
X24694Y-17410D01*
X24770Y-17462D01*
X24854Y-17499D01*
X24944Y-17519D01*
X25036Y-17521D01*
X25127Y-17505D01*
X25213Y-17472D01*
X25291Y-17422D01*
X25357Y-17359D01*
X25411Y-17283D01*
X25448Y-17199D01*
X25469Y-17109D01*
X25470Y-17004D01*
X25470Y-17635D01*
X25254Y-17635D01*
X25235Y-17639D01*
X25217Y-17646D01*
X25200Y-17657D01*
X25186Y-17671D01*
X25176Y-17687D01*
X25168Y-17705D01*
X25164Y-17725D01*
X25164Y-17744D01*
X25164Y-18327D01*
X25168Y-18346D01*
X25175Y-18364D01*
X25186Y-18381D01*
X25200Y-18395D01*
X25216Y-18405D01*
X25234Y-18413D01*
X25249Y-18416D01*
X25249Y-18422D01*
X25230Y-18426D01*
X25212Y-18433D01*
X25195Y-18444D01*
X25181Y-18458D01*
X25171Y-18474D01*
X25163Y-18492D01*
X25159Y-18512D01*
X25159Y-18531D01*
X25159Y-19162D01*
X25163Y-19181D01*
X25170Y-19199D01*
X25181Y-19216D01*
X25195Y-19230D01*
X25211Y-19240D01*
X25229Y-19248D01*
X25249Y-19252D01*
X25268Y-19252D01*
X25509Y-19252D01*
X25528Y-19248D01*
X25537Y-19244D01*
X25544Y-19257D01*
X25548Y-19264D01*
X25549Y-19265D01*
X25564Y-19284D01*
X25565Y-19285D01*
X25627Y-19347D01*
X25627Y-19563D01*
X25627Y-19564D01*
X25629Y-19589D01*
X25637Y-19614D01*
X25644Y-19628D01*
X25648Y-19635D01*
X25649Y-19636D01*
X25664Y-19655D01*
X25665Y-19656D01*
X26000Y-19991D01*
X26000Y-20548D01*
X25990Y-20548D01*
X25749Y-20548D01*
X25730Y-20552D01*
X25712Y-20559D01*
X25695Y-20570D01*
X25681Y-20584D01*
X25671Y-20600D01*
X25663Y-20618D01*
X25659Y-20638D01*
X25659Y-20657D01*
X25659Y-20833D01*
X25599Y-20833D01*
X25599Y-20643D01*
X25611Y-20617D01*
X25620Y-20578D01*
X25621Y-20531D01*
X25613Y-20491D01*
X25598Y-20453D01*
X25575Y-20419D01*
X25546Y-20390D01*
X25513Y-20367D01*
X25475Y-20352D01*
X25435Y-20343D01*
X25394Y-20343D01*
X25354Y-20350D01*
X25317Y-20366D01*
X25282Y-20388D01*
X25253Y-20416D01*
X25230Y-20450D01*
X25214Y-20487D01*
X25205Y-20527D01*
X25205Y-20563D01*
X25195Y-20570D01*
X25181Y-20584D01*
X25171Y-20600D01*
X25163Y-20618D01*
X25159Y-20638D01*
X25159Y-20657D01*
X25159Y-20958D01*
X25079Y-21038D01*
X25078Y-21034D01*
X25077Y-21032D01*
X25077Y-20740D01*
X25077Y-20657D01*
X25055Y-20635D01*
X24793Y-20635D01*
X24793Y-20797D01*
X24815Y-20819D01*
X24981Y-20819D01*
X24998Y-20819D01*
X25015Y-20816D01*
X25031Y-20809D01*
X25045Y-20799D01*
X25057Y-20787D01*
X25067Y-20773D01*
X25074Y-20757D01*
X25077Y-20740D01*
X25077Y-21032D01*
X25067Y-21017D01*
X25053Y-21003D01*
X25037Y-20993D01*
X25019Y-20985D01*
X24999Y-20981D01*
X24980Y-20981D01*
X24786Y-20981D01*
X24568Y-20981D01*
X24568Y-20819D01*
X24713Y-20819D01*
X24735Y-20797D01*
X24735Y-20665D01*
X24735Y-20635D01*
X24735Y-20577D01*
X24793Y-20577D01*
X24823Y-20577D01*
X25055Y-20577D01*
X25077Y-20555D01*
X25077Y-20472D01*
X25074Y-20455D01*
X25067Y-20439D01*
X25057Y-20425D01*
X25045Y-20413D01*
X25031Y-20403D01*
X25015Y-20396D01*
X24998Y-20393D01*
X24981Y-20393D01*
X24823Y-20393D01*
X24815Y-20393D01*
X24812Y-20393D01*
X24930Y-20275D01*
X24931Y-20275D01*
X24931Y-20274D01*
X24932Y-20274D01*
X24951Y-20251D01*
X24952Y-20250D01*
X24956Y-20242D01*
X24966Y-20224D01*
X24966Y-20222D01*
X24976Y-20194D01*
X24979Y-20163D01*
X24979Y-20161D01*
X24979Y-19101D01*
X24991Y-19094D01*
X25031Y-19057D01*
X25062Y-19013D01*
X25084Y-18963D01*
X25096Y-18910D01*
X25097Y-18848D01*
X25086Y-18795D01*
X25066Y-18744D01*
X25036Y-18699D01*
X24998Y-18661D01*
X24953Y-18630D01*
X24902Y-18609D01*
X24849Y-18598D01*
X24795Y-18598D01*
X24786Y-18599D01*
X24785Y-18599D01*
X24785Y-18516D01*
X24786Y-18515D01*
X24785Y-18514D01*
X24785Y-18280D01*
X24781Y-18261D01*
X24774Y-18243D01*
X24763Y-18226D01*
X24749Y-18212D01*
X24737Y-18204D01*
X24746Y-18199D01*
X24786Y-18162D01*
X24817Y-18118D01*
X24839Y-18068D01*
X24851Y-18015D01*
X24852Y-17953D01*
X24841Y-17900D01*
X24821Y-17849D01*
X24791Y-17804D01*
X24753Y-17766D01*
X24708Y-17735D01*
X24657Y-17714D01*
X24604Y-17703D01*
X24550Y-17703D01*
X24497Y-17713D01*
X24470Y-17723D01*
X24470Y-16904D01*
X24452Y-16814D01*
X24417Y-16728D01*
X24366Y-16652D01*
X24301Y-16586D01*
X24225Y-16535D01*
X24140Y-16499D01*
X24049Y-16480D01*
X23957Y-16480D01*
X23867Y-16497D01*
X23781Y-16531D01*
X23704Y-16582D01*
X23638Y-16646D01*
X23586Y-16722D01*
X23550Y-16807D01*
X23531Y-16897D01*
X23529Y-16989D01*
X23546Y-17080D01*
X23580Y-17166D01*
X23630Y-17243D01*
X23694Y-17310D01*
X23770Y-17362D01*
X23854Y-17399D01*
X23944Y-17419D01*
X24036Y-17421D01*
X24127Y-17405D01*
X24213Y-17372D01*
X24291Y-17322D01*
X24357Y-17259D01*
X24411Y-17183D01*
X24448Y-17099D01*
X24469Y-17009D01*
X24470Y-16904D01*
X24470Y-17723D01*
X24446Y-17733D01*
X24401Y-17763D01*
X24362Y-17801D01*
X24331Y-17846D01*
X24310Y-17896D01*
X24298Y-17949D01*
X24298Y-18003D01*
X24307Y-18057D01*
X24327Y-18107D01*
X24357Y-18153D01*
X24394Y-18192D01*
X24400Y-18196D01*
X24388Y-18201D01*
X24130Y-18201D01*
X24115Y-18194D01*
X24095Y-18190D01*
X24076Y-18190D01*
X23825Y-18190D01*
X23806Y-18194D01*
X23788Y-18201D01*
X23771Y-18212D01*
X23757Y-18226D01*
X23747Y-18242D01*
X23739Y-18260D01*
X23735Y-18280D01*
X23735Y-18299D01*
X23735Y-18514D01*
X23734Y-18515D01*
X23735Y-18516D01*
X23735Y-18750D01*
X23739Y-18769D01*
X23746Y-18787D01*
X23757Y-18804D01*
X23771Y-18818D01*
X23787Y-18828D01*
X23803Y-18835D01*
X23804Y-18836D01*
X23808Y-18852D01*
X23812Y-18864D01*
X23813Y-18866D01*
X23826Y-18892D01*
X23846Y-18916D01*
X23847Y-18917D01*
X23848Y-18917D01*
X23852Y-18921D01*
X24031Y-19101D01*
X24028Y-19119D01*
X24028Y-19173D01*
X24037Y-19227D01*
X24057Y-19277D01*
X24087Y-19323D01*
X24124Y-19362D01*
X24169Y-19393D01*
X24219Y-19415D01*
X24272Y-19426D01*
X24326Y-19428D01*
X24380Y-19418D01*
X24430Y-19398D01*
X24476Y-19369D01*
X24516Y-19332D01*
X24547Y-19288D01*
X24569Y-19238D01*
X24581Y-19185D01*
X24582Y-19123D01*
X24571Y-19070D01*
X24551Y-19019D01*
X24521Y-18974D01*
X24483Y-18936D01*
X24438Y-18905D01*
X24387Y-18884D01*
X24334Y-18873D01*
X24280Y-18873D01*
X24256Y-18877D01*
X24208Y-18829D01*
X24389Y-18829D01*
X24405Y-18836D01*
X24425Y-18840D01*
X24444Y-18840D01*
X24543Y-18840D01*
X24543Y-18844D01*
X24543Y-18898D01*
X24552Y-18952D01*
X24572Y-19002D01*
X24602Y-19048D01*
X24639Y-19087D01*
X24661Y-19102D01*
X24661Y-20095D01*
X24561Y-20195D01*
X24490Y-20195D01*
X24488Y-20195D01*
X24457Y-20198D01*
X24427Y-20207D01*
X24409Y-20217D01*
X24401Y-20221D01*
X24376Y-20241D01*
X24375Y-20242D01*
X24302Y-20315D01*
X24298Y-20319D01*
X24278Y-20343D01*
X24263Y-20370D01*
X24262Y-20370D01*
X24262Y-20372D01*
X24259Y-20382D01*
X24253Y-20400D01*
X24250Y-20431D01*
X24250Y-20432D01*
X24250Y-20433D01*
X24250Y-20913D01*
X23723Y-20913D01*
X23641Y-20831D01*
X23640Y-20830D01*
X23621Y-20814D01*
X23599Y-20803D01*
X23597Y-20802D01*
X23589Y-20799D01*
X23575Y-20795D01*
X23573Y-20794D01*
X23550Y-20792D01*
X23548Y-20792D01*
X23322Y-20792D01*
X23300Y-20770D01*
X23300Y-20632D01*
X23495Y-20632D01*
X23514Y-20628D01*
X23532Y-20621D01*
X23549Y-20610D01*
X23563Y-20596D01*
X23573Y-20580D01*
X23581Y-20562D01*
X23585Y-20542D01*
X23585Y-20523D01*
X23585Y-20128D01*
X23581Y-20109D01*
X23574Y-20091D01*
X23573Y-20089D01*
X23573Y-19950D01*
X23581Y-19932D01*
X23585Y-19912D01*
X23585Y-19893D01*
X23585Y-19498D01*
X23581Y-19479D01*
X23574Y-19461D01*
X23573Y-19459D01*
X23573Y-19281D01*
X23573Y-19171D01*
X23573Y-19126D01*
X23551Y-19104D01*
X23506Y-19104D01*
X23448Y-19046D01*
X23551Y-19046D01*
X23573Y-19024D01*
X23573Y-18869D01*
X23570Y-18852D01*
X23563Y-18836D01*
X23553Y-18822D01*
X23541Y-18810D01*
X23527Y-18800D01*
X23511Y-18793D01*
X23494Y-18790D01*
X23477Y-18790D01*
X23470Y-18790D01*
X23470Y-17004D01*
X23452Y-16914D01*
X23417Y-16828D01*
X23366Y-16752D01*
X23301Y-16686D01*
X23225Y-16635D01*
X23140Y-16599D01*
X23049Y-16580D01*
X22957Y-16580D01*
X22867Y-16597D01*
X22781Y-16631D01*
X22704Y-16682D01*
X22638Y-16746D01*
X22586Y-16822D01*
X22550Y-16907D01*
X22531Y-16997D01*
X22529Y-17089D01*
X22546Y-17180D01*
X22580Y-17266D01*
X22630Y-17343D01*
X22694Y-17410D01*
X22770Y-17462D01*
X22854Y-17499D01*
X22944Y-17519D01*
X23036Y-17521D01*
X23127Y-17505D01*
X23213Y-17472D01*
X23291Y-17422D01*
X23357Y-17359D01*
X23411Y-17283D01*
X23448Y-17199D01*
X23469Y-17109D01*
X23470Y-17004D01*
X23470Y-18790D01*
X23229Y-18790D01*
X23221Y-18790D01*
X23192Y-18790D01*
X23182Y-18780D01*
X23157Y-18780D01*
X23147Y-18790D01*
X23119Y-18790D01*
X23111Y-18790D01*
X22863Y-18790D01*
X22846Y-18790D01*
X22829Y-18793D01*
X22813Y-18800D01*
X22799Y-18810D01*
X22787Y-18822D01*
X22777Y-18836D01*
X22770Y-18852D01*
X22767Y-18869D01*
X22767Y-19024D01*
X22789Y-19046D01*
X22891Y-19046D01*
X22833Y-19104D01*
X22789Y-19104D01*
X22767Y-19126D01*
X22767Y-19170D01*
X22766Y-19171D01*
X22766Y-19462D01*
X22759Y-19478D01*
X22755Y-19498D01*
X22755Y-19517D01*
X22755Y-19595D01*
X22753Y-19597D01*
X22738Y-19609D01*
X22734Y-19612D01*
X22733Y-19613D01*
X22732Y-19614D01*
X22669Y-19677D01*
X22668Y-19678D01*
X22652Y-19697D01*
X22641Y-19719D01*
X22640Y-19721D01*
X22637Y-19729D01*
X22633Y-19743D01*
X22630Y-19768D01*
X22630Y-19770D01*
X22630Y-20090D01*
X22470Y-20090D01*
X22470Y-16904D01*
X22452Y-16814D01*
X22417Y-16728D01*
X22366Y-16652D01*
X22301Y-16586D01*
X22225Y-16535D01*
X22140Y-16499D01*
X22049Y-16480D01*
X21957Y-16480D01*
X21867Y-16497D01*
X21781Y-16531D01*
X21704Y-16582D01*
X21638Y-16646D01*
X21586Y-16722D01*
X21550Y-16807D01*
X21531Y-16897D01*
X21529Y-16989D01*
X21546Y-17080D01*
X21580Y-17166D01*
X21630Y-17243D01*
X21694Y-17310D01*
X21770Y-17362D01*
X21854Y-17399D01*
X21944Y-17419D01*
X22036Y-17421D01*
X22127Y-17405D01*
X22213Y-17372D01*
X22291Y-17322D01*
X22357Y-17259D01*
X22411Y-17183D01*
X22448Y-17099D01*
X22469Y-17009D01*
X22470Y-16904D01*
X22470Y-20090D01*
X22439Y-20090D01*
X22438Y-20090D01*
X22413Y-20092D01*
X22388Y-20100D01*
X22373Y-20107D01*
X22367Y-20111D01*
X22347Y-20127D01*
X22346Y-20128D01*
X22229Y-20245D01*
X21936Y-20245D01*
X21935Y-20245D01*
X21910Y-20247D01*
X21885Y-20255D01*
X21870Y-20262D01*
X21864Y-20266D01*
X21844Y-20282D01*
X21843Y-20283D01*
X21554Y-20572D01*
X21553Y-20573D01*
X21537Y-20592D01*
X21526Y-20614D01*
X21525Y-20616D01*
X21522Y-20624D01*
X21518Y-20638D01*
X21515Y-20663D01*
X21515Y-20665D01*
X21515Y-21151D01*
X21514Y-21152D01*
X21485Y-21180D01*
X21462Y-21214D01*
X21446Y-21251D01*
X21437Y-21291D01*
X21437Y-21332D01*
X21444Y-21372D01*
X21459Y-21410D01*
X21481Y-21444D01*
X21509Y-21474D01*
X21543Y-21497D01*
X21580Y-21514D01*
X21620Y-21522D01*
X21661Y-21523D01*
X21701Y-21516D01*
X21739Y-21502D01*
X21773Y-21480D01*
X21803Y-21452D01*
X21826Y-21419D01*
X21843Y-21381D01*
X21852Y-21342D01*
X21853Y-21295D01*
X21845Y-21255D01*
X21830Y-21217D01*
X21807Y-21183D01*
X21778Y-21154D01*
X21775Y-21151D01*
X21775Y-20719D01*
X21831Y-20662D01*
X21834Y-20670D01*
X21856Y-20704D01*
X21884Y-20734D01*
X21903Y-20746D01*
X21903Y-21234D01*
X21903Y-21235D01*
X21905Y-21260D01*
X21913Y-21285D01*
X21920Y-21299D01*
X21924Y-21306D01*
X21925Y-21307D01*
X21940Y-21326D01*
X21941Y-21327D01*
X22387Y-21773D01*
X22388Y-21774D01*
X22407Y-21790D01*
X22429Y-21801D01*
X22430Y-21802D01*
X22446Y-21806D01*
X22453Y-21809D01*
X22454Y-21809D01*
X22478Y-21812D01*
X22480Y-21812D01*
X22946Y-21812D01*
X22942Y-21830D01*
X22942Y-21871D01*
X22949Y-21911D01*
X22964Y-21949D01*
X22986Y-21983D01*
X22991Y-21988D01*
X22991Y-22211D01*
X22989Y-22213D01*
X21523Y-22213D01*
X21419Y-22109D01*
X21419Y-20595D01*
X21755Y-20259D01*
X21756Y-20259D01*
X21756Y-20258D01*
X21757Y-20258D01*
X21776Y-20235D01*
X21777Y-20234D01*
X21789Y-20211D01*
X21791Y-20208D01*
X21791Y-20207D01*
X21792Y-20206D01*
X21793Y-20201D01*
X21801Y-20178D01*
X21804Y-20147D01*
X21804Y-20146D01*
X21804Y-20145D01*
X21804Y-19276D01*
X21816Y-19269D01*
X21856Y-19232D01*
X21887Y-19188D01*
X21909Y-19138D01*
X21921Y-19085D01*
X21922Y-19023D01*
X21911Y-18970D01*
X21891Y-18919D01*
X21861Y-18874D01*
X21823Y-18836D01*
X21778Y-18805D01*
X21727Y-18784D01*
X21674Y-18773D01*
X21620Y-18773D01*
X21567Y-18783D01*
X21516Y-18803D01*
X21471Y-18833D01*
X21470Y-18833D01*
X21470Y-17004D01*
X21452Y-16914D01*
X21417Y-16828D01*
X21366Y-16752D01*
X21301Y-16686D01*
X21225Y-16635D01*
X21140Y-16599D01*
X21049Y-16580D01*
X20957Y-16580D01*
X20867Y-16597D01*
X20781Y-16631D01*
X20704Y-16682D01*
X20638Y-16746D01*
X20586Y-16822D01*
X20550Y-16907D01*
X20531Y-16997D01*
X20529Y-17089D01*
X20546Y-17180D01*
X20580Y-17266D01*
X20630Y-17343D01*
X20694Y-17410D01*
X20770Y-17462D01*
X20854Y-17499D01*
X20944Y-17519D01*
X21036Y-17521D01*
X21127Y-17505D01*
X21213Y-17472D01*
X21291Y-17422D01*
X21357Y-17359D01*
X21411Y-17283D01*
X21448Y-17199D01*
X21469Y-17109D01*
X21470Y-17004D01*
X21470Y-18833D01*
X21432Y-18871D01*
X21418Y-18891D01*
X20947Y-18891D01*
X20936Y-18874D01*
X20898Y-18836D01*
X20853Y-18805D01*
X20802Y-18784D01*
X20749Y-18773D01*
X20695Y-18773D01*
X20642Y-18783D01*
X20591Y-18803D01*
X20546Y-18833D01*
X20507Y-18871D01*
X20476Y-18916D01*
X20470Y-18930D01*
X20470Y-16904D01*
X20452Y-16814D01*
X20417Y-16728D01*
X20366Y-16652D01*
X20301Y-16586D01*
X20225Y-16535D01*
X20140Y-16499D01*
X20049Y-16480D01*
X19957Y-16480D01*
X19867Y-16497D01*
X19781Y-16531D01*
X19704Y-16582D01*
X19638Y-16646D01*
X19586Y-16722D01*
X19550Y-16807D01*
X19531Y-16897D01*
X19529Y-16989D01*
X19546Y-17080D01*
X19580Y-17166D01*
X19630Y-17243D01*
X19694Y-17310D01*
X19770Y-17362D01*
X19854Y-17399D01*
X19944Y-17419D01*
X20036Y-17421D01*
X20127Y-17405D01*
X20213Y-17372D01*
X20291Y-17322D01*
X20357Y-17259D01*
X20411Y-17183D01*
X20448Y-17099D01*
X20469Y-17009D01*
X20470Y-16904D01*
X20470Y-18930D01*
X20455Y-18966D01*
X20443Y-19019D01*
X20443Y-19073D01*
X20452Y-19127D01*
X20472Y-19177D01*
X20502Y-19223D01*
X20539Y-19262D01*
X20584Y-19293D01*
X20634Y-19315D01*
X20687Y-19326D01*
X20741Y-19328D01*
X20795Y-19318D01*
X20845Y-19298D01*
X20891Y-19269D01*
X20931Y-19232D01*
X20947Y-19209D01*
X21417Y-19209D01*
X21427Y-19223D01*
X21464Y-19262D01*
X21486Y-19277D01*
X21486Y-20079D01*
X21294Y-20271D01*
X21294Y-20095D01*
X21291Y-20065D01*
X21291Y-20064D01*
X21282Y-20036D01*
X21282Y-20034D01*
X21274Y-20020D01*
X21268Y-20007D01*
X21248Y-19983D01*
X21247Y-19982D01*
X21117Y-19853D01*
X21114Y-19849D01*
X21112Y-19848D01*
X21090Y-19829D01*
X21088Y-19828D01*
X21063Y-19814D01*
X21062Y-19813D01*
X21061Y-19813D01*
X21051Y-19810D01*
X21033Y-19804D01*
X21002Y-19801D01*
X21001Y-19801D01*
X21000Y-19801D01*
X20192Y-19801D01*
X20190Y-19801D01*
X20159Y-19804D01*
X20129Y-19813D01*
X20115Y-19820D01*
X20102Y-19827D01*
X20078Y-19847D01*
X20077Y-19848D01*
X19818Y-20107D01*
X19814Y-20111D01*
X19794Y-20135D01*
X19779Y-20162D01*
X19778Y-20162D01*
X19778Y-20164D01*
X19775Y-20174D01*
X19769Y-20192D01*
X19766Y-20223D01*
X19766Y-20224D01*
X19766Y-20225D01*
X19766Y-20649D01*
X19690Y-20649D01*
X19671Y-20653D01*
X19653Y-20660D01*
X19636Y-20671D01*
X19622Y-20685D01*
X19612Y-20701D01*
X19604Y-20719D01*
X19600Y-20739D01*
X19600Y-20758D01*
X19600Y-21153D01*
X19604Y-21172D01*
X19611Y-21190D01*
X19611Y-21411D01*
X19604Y-21427D01*
X19600Y-21447D01*
X19600Y-21466D01*
X19600Y-21861D01*
X19604Y-21880D01*
X19611Y-21898D01*
X19612Y-21901D01*
X19514Y-21901D01*
X19511Y-21901D01*
X19513Y-21899D01*
X19514Y-21896D01*
X19521Y-21881D01*
X19525Y-21861D01*
X19525Y-21842D01*
X19525Y-21447D01*
X19521Y-21428D01*
X19514Y-21410D01*
X19514Y-21188D01*
X19521Y-21173D01*
X19525Y-21153D01*
X19525Y-21134D01*
X19525Y-20739D01*
X19521Y-20720D01*
X19514Y-20702D01*
X19503Y-20685D01*
X19489Y-20671D01*
X19473Y-20661D01*
X19455Y-20653D01*
X19435Y-20649D01*
X19416Y-20649D01*
X19366Y-20649D01*
X19368Y-20646D01*
X19377Y-20607D01*
X19378Y-20560D01*
X19370Y-20520D01*
X19355Y-20482D01*
X19332Y-20448D01*
X19321Y-20437D01*
X19323Y-20437D01*
X19346Y-20404D01*
X19363Y-20366D01*
X19372Y-20327D01*
X19373Y-20280D01*
X19365Y-20240D01*
X19350Y-20202D01*
X19327Y-20168D01*
X19298Y-20139D01*
X19265Y-20116D01*
X19227Y-20101D01*
X19219Y-20099D01*
X19027Y-19907D01*
X19027Y-19797D01*
X19131Y-19693D01*
X19132Y-19692D01*
X19146Y-19674D01*
X19147Y-19673D01*
X19148Y-19673D01*
X19148Y-19672D01*
X19168Y-19660D01*
X19198Y-19632D01*
X19221Y-19599D01*
X19238Y-19561D01*
X19247Y-19522D01*
X19248Y-19475D01*
X19240Y-19435D01*
X19225Y-19397D01*
X19202Y-19363D01*
X19173Y-19334D01*
X19140Y-19311D01*
X19102Y-19296D01*
X19062Y-19287D01*
X19021Y-19287D01*
X18981Y-19294D01*
X18944Y-19310D01*
X18909Y-19332D01*
X18880Y-19360D01*
X18859Y-19389D01*
X18837Y-19381D01*
X18797Y-19372D01*
X18756Y-19372D01*
X18716Y-19379D01*
X18679Y-19395D01*
X18644Y-19417D01*
X18625Y-19435D01*
X18625Y-19265D01*
X18623Y-19259D01*
X18643Y-19259D01*
X18645Y-19259D01*
X18674Y-19256D01*
X18676Y-19256D01*
X18692Y-19251D01*
X18704Y-19248D01*
X18706Y-19247D01*
X18732Y-19234D01*
X18733Y-19232D01*
X18756Y-19214D01*
X18756Y-19213D01*
X18757Y-19213D01*
X18757Y-19212D01*
X18761Y-19207D01*
X19615Y-18354D01*
X19616Y-18354D01*
X19616Y-18353D01*
X19617Y-18353D01*
X19636Y-18330D01*
X19637Y-18329D01*
X19649Y-18306D01*
X19651Y-18303D01*
X19651Y-18302D01*
X19652Y-18301D01*
X19653Y-18296D01*
X19661Y-18273D01*
X19664Y-18242D01*
X19664Y-18241D01*
X19664Y-18240D01*
X19664Y-18131D01*
X19676Y-18124D01*
X19716Y-18087D01*
X19747Y-18043D01*
X19769Y-17993D01*
X19781Y-17940D01*
X19782Y-17878D01*
X19771Y-17825D01*
X19751Y-17774D01*
X19721Y-17729D01*
X19683Y-17691D01*
X19638Y-17660D01*
X19587Y-17639D01*
X19534Y-17628D01*
X19480Y-17628D01*
X19470Y-17629D01*
X19470Y-17004D01*
X19452Y-16914D01*
X19417Y-16828D01*
X19366Y-16752D01*
X19301Y-16686D01*
X19225Y-16635D01*
X19140Y-16599D01*
X19049Y-16580D01*
X18957Y-16580D01*
X18867Y-16597D01*
X18781Y-16631D01*
X18704Y-16682D01*
X18638Y-16746D01*
X18586Y-16822D01*
X18550Y-16907D01*
X18531Y-16997D01*
X18529Y-17089D01*
X18546Y-17180D01*
X18580Y-17266D01*
X18630Y-17343D01*
X18694Y-17410D01*
X18770Y-17462D01*
X18854Y-17499D01*
X18944Y-17519D01*
X19036Y-17521D01*
X19127Y-17505D01*
X19213Y-17472D01*
X19291Y-17422D01*
X19357Y-17359D01*
X19411Y-17283D01*
X19448Y-17199D01*
X19469Y-17109D01*
X19470Y-17004D01*
X19470Y-17629D01*
X19427Y-17638D01*
X19376Y-17658D01*
X19331Y-17688D01*
X19292Y-17726D01*
X19261Y-17771D01*
X19240Y-17821D01*
X19228Y-17874D01*
X19228Y-17928D01*
X19237Y-17982D01*
X19257Y-18032D01*
X19287Y-18078D01*
X19324Y-18117D01*
X19346Y-18132D01*
X19346Y-18174D01*
X18613Y-18907D01*
X18613Y-18851D01*
X18613Y-18749D01*
X18613Y-18666D01*
X18610Y-18649D01*
X18603Y-18633D01*
X18593Y-18619D01*
X18581Y-18607D01*
X18567Y-18597D01*
X18551Y-18590D01*
X18534Y-18587D01*
X18517Y-18587D01*
X18470Y-18587D01*
X18470Y-16904D01*
X18452Y-16814D01*
X18417Y-16728D01*
X18366Y-16652D01*
X18301Y-16586D01*
X18225Y-16535D01*
X18140Y-16499D01*
X18049Y-16480D01*
X17957Y-16480D01*
X17867Y-16497D01*
X17781Y-16531D01*
X17704Y-16582D01*
X17638Y-16646D01*
X17586Y-16722D01*
X17550Y-16807D01*
X17531Y-16897D01*
X17529Y-16989D01*
X17546Y-17080D01*
X17580Y-17166D01*
X17630Y-17243D01*
X17694Y-17310D01*
X17770Y-17362D01*
X17854Y-17399D01*
X17944Y-17419D01*
X18036Y-17421D01*
X18127Y-17405D01*
X18213Y-17372D01*
X18291Y-17322D01*
X18357Y-17259D01*
X18411Y-17183D01*
X18448Y-17099D01*
X18469Y-17009D01*
X18470Y-16904D01*
X18470Y-18587D01*
X18351Y-18587D01*
X18329Y-18609D01*
X18329Y-18771D01*
X18591Y-18771D01*
X18613Y-18749D01*
X18613Y-18851D01*
X18591Y-18829D01*
X18359Y-18829D01*
X18329Y-18829D01*
X18271Y-18829D01*
X18241Y-18829D01*
X18009Y-18829D01*
X18000Y-18838D01*
X17991Y-18829D01*
X17759Y-18829D01*
X17729Y-18829D01*
X17671Y-18829D01*
X17671Y-18771D01*
X17729Y-18771D01*
X17759Y-18771D01*
X17991Y-18771D01*
X18000Y-18762D01*
X18009Y-18771D01*
X18271Y-18771D01*
X18271Y-18609D01*
X18249Y-18587D01*
X18164Y-18587D01*
X18178Y-18556D01*
X18187Y-18517D01*
X18188Y-18470D01*
X18180Y-18430D01*
X18165Y-18392D01*
X18142Y-18358D01*
X18113Y-18329D01*
X18080Y-18306D01*
X18042Y-18291D01*
X18002Y-18282D01*
X17961Y-18282D01*
X17921Y-18289D01*
X17884Y-18305D01*
X17849Y-18327D01*
X17820Y-18355D01*
X17816Y-18360D01*
X17515Y-18360D01*
X17490Y-18362D01*
X17470Y-18368D01*
X17470Y-17004D01*
X17452Y-16914D01*
X17417Y-16828D01*
X17366Y-16752D01*
X17301Y-16686D01*
X17225Y-16635D01*
X17140Y-16599D01*
X17049Y-16580D01*
X16957Y-16580D01*
X16867Y-16597D01*
X16781Y-16631D01*
X16704Y-16682D01*
X16638Y-16746D01*
X16586Y-16822D01*
X16550Y-16907D01*
X16531Y-16997D01*
X16529Y-17089D01*
X16546Y-17180D01*
X16580Y-17266D01*
X16630Y-17343D01*
X16694Y-17410D01*
X16770Y-17462D01*
X16854Y-17499D01*
X16944Y-17519D01*
X17036Y-17521D01*
X17127Y-17505D01*
X17213Y-17472D01*
X17291Y-17422D01*
X17357Y-17359D01*
X17411Y-17283D01*
X17448Y-17199D01*
X17469Y-17109D01*
X17470Y-17004D01*
X17470Y-18368D01*
X17465Y-18370D01*
X17443Y-18382D01*
X17436Y-18387D01*
X17430Y-18372D01*
X17407Y-18338D01*
X17378Y-18309D01*
X17345Y-18286D01*
X17307Y-18271D01*
X17267Y-18262D01*
X17226Y-18262D01*
X17186Y-18269D01*
X17149Y-18285D01*
X17114Y-18307D01*
X17085Y-18335D01*
X17062Y-18369D01*
X17046Y-18406D01*
X17037Y-18446D01*
X17037Y-18487D01*
X17044Y-18527D01*
X17059Y-18565D01*
X17081Y-18599D01*
X17109Y-18629D01*
X17115Y-18633D01*
X17115Y-18839D01*
X16986Y-18968D01*
X16985Y-18969D01*
X16969Y-18988D01*
X16958Y-19010D01*
X16957Y-19012D01*
X16954Y-19020D01*
X16950Y-19034D01*
X16947Y-19059D01*
X16947Y-19061D01*
X16947Y-19282D01*
X16909Y-19320D01*
X16345Y-19320D01*
X16357Y-19309D01*
X16411Y-19233D01*
X16448Y-19149D01*
X16469Y-19059D01*
X16470Y-18954D01*
X16470Y-16904D01*
X16452Y-16814D01*
X16417Y-16728D01*
X16366Y-16652D01*
X16301Y-16586D01*
X16225Y-16535D01*
X16140Y-16499D01*
X16049Y-16480D01*
X15957Y-16480D01*
X15867Y-16497D01*
X15781Y-16531D01*
X15704Y-16582D01*
X15638Y-16646D01*
X15586Y-16722D01*
X15550Y-16807D01*
X15531Y-16897D01*
X15529Y-16989D01*
X15546Y-17080D01*
X15580Y-17166D01*
X15630Y-17243D01*
X15694Y-17310D01*
X15770Y-17362D01*
X15854Y-17399D01*
X15944Y-17419D01*
X16036Y-17421D01*
X16127Y-17405D01*
X16213Y-17372D01*
X16291Y-17322D01*
X16357Y-17259D01*
X16411Y-17183D01*
X16448Y-17099D01*
X16469Y-17009D01*
X16470Y-16904D01*
X16470Y-18954D01*
X16458Y-18894D01*
X16458Y-17990D01*
X16448Y-17902D01*
X16420Y-17816D01*
X16387Y-17755D01*
X16328Y-17713D01*
X16287Y-17754D01*
X16287Y-17672D01*
X16245Y-17613D01*
X16165Y-17573D01*
X16079Y-17549D01*
X15990Y-17542D01*
X15902Y-17552D01*
X15816Y-17580D01*
X15755Y-17613D01*
X15713Y-17672D01*
X16000Y-17959D01*
X16287Y-17672D01*
X16287Y-17754D01*
X16041Y-18000D01*
X16328Y-18287D01*
X16387Y-18245D01*
X16427Y-18165D01*
X16451Y-18079D01*
X16458Y-17990D01*
X16458Y-18894D01*
X16452Y-18864D01*
X16417Y-18778D01*
X16366Y-18702D01*
X16301Y-18636D01*
X16287Y-18626D01*
X16287Y-18328D01*
X16000Y-18041D01*
X15713Y-18328D01*
X15755Y-18387D01*
X15835Y-18427D01*
X15921Y-18451D01*
X16010Y-18458D01*
X16098Y-18448D01*
X16184Y-18420D01*
X16245Y-18387D01*
X16287Y-18328D01*
X16287Y-18626D01*
X16225Y-18585D01*
X16140Y-18549D01*
X16049Y-18530D01*
X15957Y-18530D01*
X15867Y-18547D01*
X15781Y-18581D01*
X15704Y-18632D01*
X15638Y-18696D01*
X15586Y-18772D01*
X15550Y-18857D01*
X15531Y-18947D01*
X15529Y-19039D01*
X15546Y-19130D01*
X15580Y-19216D01*
X15630Y-19293D01*
X15694Y-19360D01*
X15754Y-19401D01*
X15576Y-19578D01*
X15572Y-19559D01*
X15565Y-19541D01*
X15554Y-19524D01*
X15548Y-19518D01*
X15554Y-19511D01*
X15561Y-19495D01*
X15564Y-19478D01*
X15564Y-19461D01*
X15564Y-19422D01*
X15564Y-19320D01*
X15564Y-19281D01*
X15564Y-19264D01*
X15561Y-19247D01*
X15554Y-19231D01*
X15544Y-19217D01*
X15532Y-19205D01*
X15518Y-19195D01*
X15502Y-19188D01*
X15485Y-19185D01*
X15035Y-19185D01*
X15013Y-19207D01*
X15013Y-19342D01*
X15542Y-19342D01*
X15564Y-19320D01*
X15564Y-19422D01*
X15542Y-19400D01*
X15043Y-19400D01*
X15013Y-19400D01*
X14955Y-19400D01*
X14955Y-19342D01*
X14955Y-19312D01*
X14955Y-19207D01*
X14933Y-19185D01*
X14729Y-19185D01*
X14729Y-18722D01*
X15486Y-18722D01*
X15505Y-18718D01*
X15523Y-18711D01*
X15540Y-18700D01*
X15554Y-18686D01*
X15564Y-18670D01*
X15572Y-18652D01*
X15576Y-18632D01*
X15576Y-18613D01*
X15576Y-18171D01*
X15580Y-18184D01*
X15613Y-18245D01*
X15672Y-18287D01*
X15959Y-18000D01*
X15672Y-17713D01*
X15613Y-17755D01*
X15576Y-17829D01*
X15576Y-17826D01*
X15572Y-17807D01*
X15565Y-17789D01*
X15554Y-17772D01*
X15540Y-17758D01*
X15524Y-17748D01*
X15506Y-17740D01*
X15486Y-17736D01*
X15467Y-17736D01*
X15353Y-17736D01*
X15365Y-17730D01*
X15366Y-17729D01*
X15383Y-17715D01*
X15383Y-17714D01*
X15384Y-17714D01*
X15398Y-17697D01*
X15399Y-17697D01*
X15409Y-17677D01*
X15410Y-17676D01*
X15416Y-17655D01*
X15417Y-17654D01*
X15418Y-17634D01*
X15419Y-17632D01*
X15419Y-17631D01*
X15419Y-17630D01*
X15419Y-16616D01*
X15616Y-16419D01*
X29384Y-16419D01*
X29581Y-16616D01*
X29581Y-23384D01*
M02*
