G04 (created by PCBNEW-RS274X (2012-03-22 BZR 3475)-stable) date Tue 28 Aug 2012 12:00:07 PM CEST*
G01*
G70*
G90*
%MOIN*%
G04 Gerber Fmt 3.4, Leading zero omitted, Abs format*
%FSLAX34Y34*%
G04 APERTURE LIST*
%ADD10C,0.006000*%
%ADD11C,0.003900*%
%ADD12R,0.062900X0.090500*%
%ADD13R,0.027500X0.075000*%
%ADD14C,0.074000*%
%ADD15R,0.295200X0.059000*%
%ADD16R,0.255900X0.039300*%
%ADD17R,0.045000X0.025000*%
%ADD18R,0.025000X0.045000*%
%ADD19R,0.031400X0.031400*%
%ADD20R,0.009800X0.059000*%
%ADD21R,0.059000X0.009800*%
%ADD22C,0.021700*%
%ADD23C,0.011800*%
%ADD24C,0.005900*%
G04 APERTURE END LIST*
G54D10*
G54D11*
X15300Y-17630D02*
X15300Y-16300D01*
X15300Y-22374D02*
X15300Y-23700D01*
X29700Y-23700D02*
X15300Y-23700D01*
X29700Y-16300D02*
X29700Y-23700D01*
X15300Y-16300D02*
X29700Y-16300D01*
X10039Y-17630D02*
X15300Y-17630D01*
X10039Y-22374D02*
X15300Y-22374D01*
X10039Y-17630D02*
X10039Y-22374D01*
G54D12*
X26600Y-18460D03*
X26600Y-20940D03*
G54D13*
X24272Y-19300D03*
X23800Y-19300D03*
X23328Y-19300D03*
G54D14*
X28050Y-18000D03*
X27950Y-19000D03*
X28050Y-20000D03*
X27950Y-21000D03*
X28050Y-22000D03*
X16000Y-16950D03*
X17000Y-17050D03*
X18000Y-16950D03*
X19000Y-17050D03*
X20000Y-16950D03*
X21000Y-17050D03*
X22000Y-16950D03*
X23000Y-17050D03*
X24000Y-16950D03*
X25000Y-17050D03*
X26000Y-16950D03*
X27000Y-17050D03*
X28000Y-16950D03*
X29000Y-17050D03*
X16000Y-22950D03*
X17000Y-23050D03*
X18000Y-22992D03*
X19000Y-23050D03*
X20000Y-22950D03*
X21000Y-23050D03*
X22000Y-23050D03*
X23000Y-23050D03*
X24000Y-22950D03*
X25000Y-23050D03*
X26000Y-22950D03*
X27000Y-23050D03*
X28000Y-23050D03*
X29000Y-23050D03*
X29050Y-18000D03*
X28950Y-19000D03*
X29050Y-20000D03*
X28950Y-21000D03*
X29050Y-22000D03*
G54D15*
X11930Y-21377D03*
X11930Y-18623D03*
G54D16*
X12126Y-20393D03*
X12126Y-19607D03*
G54D17*
X17300Y-19700D03*
X17300Y-19100D03*
X18100Y-19700D03*
X18100Y-19100D03*
G54D18*
X17800Y-18600D03*
X17200Y-18600D03*
X17800Y-18000D03*
X17200Y-18000D03*
G54D17*
X18400Y-17900D03*
X18400Y-18500D03*
X19000Y-17900D03*
X19000Y-18500D03*
X23400Y-20500D03*
X23400Y-21100D03*
X25400Y-21100D03*
X25400Y-20500D03*
X24000Y-20500D03*
X24000Y-21100D03*
G54D19*
X24700Y-21095D03*
X24700Y-20505D03*
G54D20*
X21882Y-18308D03*
X21685Y-18308D03*
X21488Y-18308D03*
X21292Y-18308D03*
X21095Y-18308D03*
X20898Y-18308D03*
X20702Y-18308D03*
X20505Y-18308D03*
X20308Y-18308D03*
X20112Y-18308D03*
X19915Y-18308D03*
X19718Y-18308D03*
G54D21*
X19108Y-18918D03*
X19108Y-19115D03*
X19108Y-19312D03*
X19108Y-19508D03*
X19108Y-19705D03*
X19108Y-19902D03*
X19108Y-20098D03*
X19108Y-20295D03*
X19108Y-20492D03*
X19108Y-20688D03*
X19108Y-20885D03*
X19108Y-21082D03*
G54D20*
X19718Y-21692D03*
X19915Y-21692D03*
X20112Y-21692D03*
X20308Y-21692D03*
X20505Y-21692D03*
X20702Y-21692D03*
X20898Y-21692D03*
X21095Y-21692D03*
X21292Y-21692D03*
X21488Y-21692D03*
X21685Y-21692D03*
X21882Y-21692D03*
G54D21*
X22492Y-21082D03*
X22492Y-20885D03*
X22492Y-20688D03*
X22492Y-20492D03*
X22492Y-20295D03*
X22492Y-20098D03*
X22492Y-19902D03*
X22492Y-19705D03*
X22492Y-19508D03*
X22492Y-19312D03*
X22492Y-19115D03*
X22492Y-18918D03*
G54D14*
X15950Y-22000D03*
X16050Y-21000D03*
X15950Y-20000D03*
X16050Y-19000D03*
X15950Y-18000D03*
G54D22*
X19730Y-20810D03*
X18540Y-20790D03*
X22550Y-21760D03*
X22340Y-21550D03*
X17210Y-19410D03*
X17740Y-19610D03*
X23100Y-20650D03*
X17800Y-20800D03*
X20680Y-19180D03*
X26030Y-21090D03*
X25930Y-19690D03*
X25790Y-20500D03*
X17480Y-18340D03*
X21990Y-19120D03*
X23700Y-20920D03*
X20930Y-21250D03*
X23630Y-18880D03*
X17920Y-21760D03*
X18700Y-18470D03*
X27200Y-18330D03*
X25130Y-18130D03*
X24670Y-18350D03*
X17530Y-17940D03*
G54D10*
X19718Y-20822D02*
X19730Y-20810D01*
X19718Y-21692D02*
X19718Y-20822D01*
X19718Y-21692D02*
X19718Y-22668D01*
X19718Y-22668D02*
X20000Y-22950D01*
X18540Y-21870D02*
X17890Y-22520D01*
X18652Y-20688D02*
X18535Y-20805D01*
X17890Y-22520D02*
X17530Y-22520D01*
X19108Y-20688D02*
X18652Y-20688D01*
X18540Y-20790D02*
X18540Y-21870D01*
X17530Y-22520D02*
X17000Y-23050D01*
X18535Y-20795D02*
X18535Y-20805D01*
X18540Y-20790D02*
X18535Y-20795D01*
X19108Y-20492D02*
X18538Y-20492D01*
X18340Y-21870D02*
X17812Y-22398D01*
X18340Y-20690D02*
X18340Y-21870D01*
X18538Y-20492D02*
X18340Y-20690D01*
X17812Y-22398D02*
X16552Y-22398D01*
X16552Y-22398D02*
X16000Y-22950D01*
X18665Y-21035D02*
X18665Y-21925D01*
X18000Y-22590D02*
X18000Y-22992D01*
X18815Y-20885D02*
X18665Y-21035D01*
X18665Y-21925D02*
X18000Y-22590D01*
X19108Y-20885D02*
X18815Y-20885D01*
G54D23*
X19525Y-17711D02*
X19935Y-17711D01*
X19935Y-17711D02*
X20112Y-17888D01*
X20112Y-17888D02*
X20112Y-18308D01*
X19336Y-17900D02*
X19525Y-17711D01*
X19000Y-17900D02*
X19336Y-17900D01*
G54D10*
X22492Y-19508D02*
X23120Y-19508D01*
X23120Y-19508D02*
X23328Y-19300D01*
X23140Y-19780D02*
X24210Y-19780D01*
X23065Y-19705D02*
X23140Y-19780D01*
X24272Y-19718D02*
X24272Y-19300D01*
X24210Y-19780D02*
X24272Y-19718D01*
X22492Y-19705D02*
X23065Y-19705D01*
X23508Y-22458D02*
X24000Y-22950D01*
X21095Y-22025D02*
X21528Y-22458D01*
X21095Y-21692D02*
X21095Y-22025D01*
X21528Y-22458D02*
X23508Y-22458D01*
X21586Y-22336D02*
X24286Y-22336D01*
X21292Y-22042D02*
X21586Y-22336D01*
X21292Y-21692D02*
X21292Y-22042D01*
X24286Y-22336D02*
X25000Y-23050D01*
X23152Y-17798D02*
X24000Y-16950D01*
X21222Y-17798D02*
X21095Y-17925D01*
X21222Y-17798D02*
X23152Y-17798D01*
X21095Y-18308D02*
X21095Y-17925D01*
X21292Y-18308D02*
X21292Y-17978D01*
X21350Y-17920D02*
X24130Y-17920D01*
X21292Y-17978D02*
X21350Y-17920D01*
X24130Y-17920D02*
X25000Y-17050D01*
X22530Y-22580D02*
X21478Y-22580D01*
X23000Y-23050D02*
X22530Y-22580D01*
X20308Y-22058D02*
X20308Y-21692D01*
X20330Y-22080D02*
X20308Y-22058D01*
X20978Y-22080D02*
X20330Y-22080D01*
X21478Y-22580D02*
X20978Y-22080D01*
X22000Y-23050D02*
X21776Y-23050D01*
X20112Y-22052D02*
X20112Y-21692D01*
X20262Y-22202D02*
X20112Y-22052D01*
X20928Y-22202D02*
X20262Y-22202D01*
X21776Y-23050D02*
X20928Y-22202D01*
X21000Y-23050D02*
X21000Y-22460D01*
X19915Y-22045D02*
X19915Y-21692D01*
X20194Y-22324D02*
X19915Y-22045D01*
X20864Y-22324D02*
X20194Y-22324D01*
X21000Y-22460D02*
X20864Y-22324D01*
X21488Y-22052D02*
X21650Y-22214D01*
X21488Y-21692D02*
X21488Y-22052D01*
X21650Y-22214D02*
X25264Y-22214D01*
X25264Y-22214D02*
X26000Y-22950D01*
X21685Y-21692D02*
X21685Y-22037D01*
X21685Y-22037D02*
X21740Y-22092D01*
X26042Y-22092D02*
X27000Y-23050D01*
X21740Y-22092D02*
X26042Y-22092D01*
X28000Y-23050D02*
X26920Y-21970D01*
X21882Y-21970D02*
X21882Y-21692D01*
X26920Y-21970D02*
X21882Y-21970D01*
X29000Y-23050D02*
X28539Y-22589D01*
X28539Y-22589D02*
X27711Y-22589D01*
X27711Y-22589D02*
X26970Y-21848D01*
X22494Y-21080D02*
X22492Y-21082D01*
X23137Y-21848D02*
X22789Y-21500D01*
X26970Y-21848D02*
X23137Y-21848D01*
X22789Y-21080D02*
X22494Y-21080D01*
X22789Y-21500D02*
X22789Y-21080D01*
X28583Y-22467D02*
X27761Y-22467D01*
X22911Y-21450D02*
X22911Y-20985D01*
X27761Y-22467D02*
X27020Y-21726D01*
X22811Y-20885D02*
X22492Y-20885D01*
X29050Y-22000D02*
X28583Y-22467D01*
X24696Y-21726D02*
X23187Y-21726D01*
X24700Y-21095D02*
X24700Y-21722D01*
X22911Y-20985D02*
X22811Y-20885D01*
X23187Y-21726D02*
X22911Y-21450D01*
X27020Y-21726D02*
X24696Y-21726D01*
X24700Y-21722D02*
X24696Y-21726D01*
X25930Y-20830D02*
X26190Y-20570D01*
X26250Y-20390D02*
X27040Y-20390D01*
X27410Y-21190D02*
X27720Y-21500D01*
X27720Y-21500D02*
X28450Y-21500D01*
X27410Y-20760D02*
X27410Y-21190D01*
X24570Y-20830D02*
X25930Y-20830D01*
X26190Y-20570D02*
X26190Y-20450D01*
X23320Y-20720D02*
X24460Y-20720D01*
X27040Y-20390D02*
X27410Y-20760D01*
X23180Y-20860D02*
X23320Y-20720D01*
X22808Y-20688D02*
X22980Y-20860D01*
X22492Y-20688D02*
X22808Y-20688D01*
X26190Y-20450D02*
X26250Y-20390D01*
X22980Y-20860D02*
X23180Y-20860D01*
X24460Y-20720D02*
X24570Y-20830D01*
X28950Y-21000D02*
X28450Y-21500D01*
X21036Y-17554D02*
X20702Y-17888D01*
X22000Y-16950D02*
X22000Y-17424D01*
X20702Y-17888D02*
X20702Y-18308D01*
X22000Y-17424D02*
X21870Y-17554D01*
X21870Y-17554D02*
X21036Y-17554D01*
X22374Y-17676D02*
X23000Y-17050D01*
X21134Y-17676D02*
X22374Y-17676D01*
X20898Y-17912D02*
X21134Y-17676D01*
X20898Y-18308D02*
X20898Y-17912D01*
X19108Y-19705D02*
X18823Y-19705D01*
X18630Y-17420D02*
X19000Y-17050D01*
X18599Y-19929D02*
X17049Y-19929D01*
X16950Y-19830D02*
X16950Y-17730D01*
X16950Y-17730D02*
X17038Y-17642D01*
X17049Y-19929D02*
X16950Y-19830D01*
X17480Y-17642D02*
X17702Y-17420D01*
X17702Y-17420D02*
X18630Y-17420D01*
X17038Y-17642D02*
X17480Y-17642D01*
X18823Y-19705D02*
X18599Y-19929D01*
X17430Y-17520D02*
X16950Y-17520D01*
X18798Y-19902D02*
X19108Y-19902D01*
X16825Y-17645D02*
X16825Y-19885D01*
X16991Y-20051D02*
X18649Y-20051D01*
X18000Y-16950D02*
X17430Y-17520D01*
X16825Y-19885D02*
X16991Y-20051D01*
X16950Y-17520D02*
X16825Y-17645D01*
X18649Y-20051D02*
X18798Y-19902D01*
X26000Y-16950D02*
X24934Y-18016D01*
X24462Y-18076D02*
X21884Y-18076D01*
X21884Y-18076D02*
X21882Y-18078D01*
X24522Y-18016D02*
X24934Y-18016D01*
X24462Y-18076D02*
X24522Y-18016D01*
X21882Y-18078D02*
X21882Y-18308D01*
X27340Y-19470D02*
X26908Y-19902D01*
X28550Y-18500D02*
X27720Y-18500D01*
X29050Y-18000D02*
X28550Y-18500D01*
X27340Y-19470D02*
X27340Y-18880D01*
X26908Y-19902D02*
X22492Y-19902D01*
X27340Y-18880D02*
X27720Y-18500D01*
X16700Y-17350D02*
X17000Y-17050D01*
X19108Y-20098D02*
X18782Y-20098D01*
X18782Y-20098D02*
X18707Y-20173D01*
X16700Y-19940D02*
X16700Y-17350D01*
X18707Y-20173D02*
X16933Y-20173D01*
X16933Y-20173D02*
X16700Y-19940D01*
X16575Y-17525D02*
X16575Y-20005D01*
X16575Y-20005D02*
X16865Y-20295D01*
X16865Y-20295D02*
X19108Y-20295D01*
X16000Y-16950D02*
X16575Y-17525D01*
X20505Y-18308D02*
X20505Y-17545D01*
X20505Y-17545D02*
X21000Y-17050D01*
X20308Y-18308D02*
X20308Y-17258D01*
X20308Y-17258D02*
X20000Y-16950D01*
X25492Y-18558D02*
X27000Y-17050D01*
X22492Y-18918D02*
X22852Y-18558D01*
X22852Y-18558D02*
X25492Y-18558D01*
X18970Y-22890D02*
X18970Y-22490D01*
X18970Y-23020D02*
X19000Y-23050D01*
X18970Y-22490D02*
X18970Y-23020D01*
X18970Y-22890D02*
X19000Y-23050D01*
X18970Y-22490D02*
X18970Y-21080D01*
X19108Y-21082D02*
X18970Y-21080D01*
X27820Y-19500D02*
X28450Y-19500D01*
X27222Y-20098D02*
X22492Y-20098D01*
X27222Y-20098D02*
X27820Y-19500D01*
X28950Y-19000D02*
X28450Y-19500D01*
X28550Y-20500D02*
X27632Y-20500D01*
X22985Y-20295D02*
X22492Y-20295D01*
X22985Y-20295D02*
X23030Y-20250D01*
X23030Y-20250D02*
X27382Y-20250D01*
X29050Y-20000D02*
X28550Y-20500D01*
X27632Y-20500D02*
X27382Y-20250D01*
X22150Y-21760D02*
X22550Y-21760D01*
X20859Y-21040D02*
X21770Y-21040D01*
X22030Y-21640D02*
X22150Y-21760D01*
X20702Y-21197D02*
X20859Y-21040D01*
X21770Y-21040D02*
X22030Y-21300D01*
X22030Y-21300D02*
X22030Y-21640D01*
X20702Y-21692D02*
X20702Y-21197D01*
X21815Y-20910D02*
X22152Y-21247D01*
X22152Y-21512D02*
X22190Y-21550D01*
X20505Y-21692D02*
X20505Y-21215D01*
X22190Y-21550D02*
X22340Y-21550D01*
X20505Y-21215D02*
X20810Y-20910D01*
X22152Y-21247D02*
X22152Y-21512D01*
X20810Y-20910D02*
X21815Y-20910D01*
X18482Y-19312D02*
X18270Y-19100D01*
X18270Y-19100D02*
X18100Y-19100D01*
X19108Y-19312D02*
X18482Y-19312D01*
X17600Y-19400D02*
X18360Y-19400D01*
X17300Y-19100D02*
X17600Y-19400D01*
X18468Y-19508D02*
X19108Y-19508D01*
X18360Y-19400D02*
X18468Y-19508D01*
X17210Y-19610D02*
X17300Y-19700D01*
X17210Y-19410D02*
X17210Y-19610D01*
X12126Y-19607D02*
X15557Y-19607D01*
X15557Y-19607D02*
X15950Y-20000D01*
X12126Y-20393D02*
X15443Y-20393D01*
X18010Y-19610D02*
X18100Y-19700D01*
X17740Y-19610D02*
X18010Y-19610D01*
X15443Y-20393D02*
X16050Y-21000D01*
G54D23*
X18010Y-18810D02*
X18340Y-18810D01*
X18447Y-18917D02*
X18447Y-19063D01*
X18447Y-19063D02*
X18499Y-19115D01*
X18499Y-19115D02*
X19108Y-19115D01*
X18340Y-18810D02*
X18447Y-18917D01*
X17800Y-18600D02*
X18010Y-18810D01*
G54D10*
X23100Y-20510D02*
X23100Y-20650D01*
X23110Y-20500D02*
X23100Y-20510D01*
X23110Y-20500D02*
X22500Y-20500D01*
X23400Y-20500D02*
X23110Y-20500D01*
X22500Y-20500D02*
X22492Y-20492D01*
G54D23*
X15950Y-22000D02*
X16600Y-22000D01*
X16600Y-22000D02*
X17800Y-20800D01*
G54D10*
X19108Y-18918D02*
X19428Y-18918D01*
G54D23*
X15327Y-21377D02*
X15950Y-22000D01*
X11930Y-21377D02*
X15327Y-21377D01*
G54D10*
X19690Y-19180D02*
X20680Y-19180D01*
X19428Y-18918D02*
X19690Y-19180D01*
X22990Y-18970D02*
X23280Y-18680D01*
X26440Y-21100D02*
X26600Y-20940D01*
X24600Y-18930D02*
X24600Y-19590D01*
X27660Y-22000D02*
X26600Y-20940D01*
X24600Y-19590D02*
X24700Y-19690D01*
X28050Y-22000D02*
X27660Y-22000D01*
X24350Y-18680D02*
X24600Y-18930D01*
X22838Y-19312D02*
X22990Y-19160D01*
X22492Y-19312D02*
X22838Y-19312D01*
X23280Y-18680D02*
X24350Y-18680D01*
X22990Y-19160D02*
X22990Y-18970D01*
X25400Y-21100D02*
X26030Y-21100D01*
X26030Y-21090D02*
X26030Y-21100D01*
X26030Y-21100D02*
X26440Y-21100D01*
X24700Y-19690D02*
X25930Y-19690D01*
G54D23*
X17200Y-18600D02*
X17220Y-18600D01*
X15673Y-18623D02*
X16050Y-19000D01*
X11930Y-18623D02*
X15673Y-18623D01*
G54D10*
X20898Y-21692D02*
X20898Y-21282D01*
G54D23*
X17220Y-18600D02*
X17480Y-18340D01*
G54D10*
X23800Y-19300D02*
X23800Y-19050D01*
X22492Y-19115D02*
X21995Y-19115D01*
X27070Y-18460D02*
X27200Y-18330D01*
X23520Y-21100D02*
X23700Y-20920D01*
X23400Y-21100D02*
X23520Y-21100D01*
X17920Y-21760D02*
X17910Y-21750D01*
X23800Y-19050D02*
X23630Y-18880D01*
X21995Y-19115D02*
X21990Y-19120D01*
X20898Y-21282D02*
X20930Y-21250D01*
X26600Y-18460D02*
X27070Y-18460D01*
G54D23*
X25400Y-20500D02*
X25790Y-20500D01*
G54D10*
X21980Y-18710D02*
X22082Y-18608D01*
X24560Y-18150D02*
X25110Y-18150D01*
X22458Y-18608D02*
X22868Y-18198D01*
X25110Y-18150D02*
X25130Y-18130D01*
X21685Y-18625D02*
X21770Y-18710D01*
X22082Y-18608D02*
X22458Y-18608D01*
X24512Y-18198D02*
X24560Y-18150D01*
X22868Y-18198D02*
X24512Y-18198D01*
X21770Y-18710D02*
X21980Y-18710D01*
X21685Y-18308D02*
X21685Y-18625D01*
X21702Y-18832D02*
X22030Y-18832D01*
X22030Y-18832D02*
X22132Y-18730D01*
X22132Y-18730D02*
X22508Y-18730D01*
X21488Y-18308D02*
X21488Y-18618D01*
X22918Y-18320D02*
X24640Y-18320D01*
X21488Y-18618D02*
X21702Y-18832D01*
X22508Y-18730D02*
X22918Y-18320D01*
X24640Y-18320D02*
X24670Y-18350D01*
X24700Y-20505D02*
X24005Y-20505D01*
X24005Y-20505D02*
X24000Y-20500D01*
G54D23*
X18400Y-17900D02*
X17900Y-17900D01*
X17900Y-17900D02*
X17800Y-18000D01*
X19915Y-18308D02*
X19915Y-17945D01*
X19860Y-17890D02*
X19915Y-17945D01*
X17530Y-17940D02*
X17590Y-18000D01*
X18470Y-17900D02*
X18400Y-17900D01*
X19600Y-17890D02*
X19860Y-17890D01*
X17590Y-18000D02*
X17800Y-18000D01*
X19600Y-17890D02*
X19340Y-18150D01*
X28050Y-18000D02*
X29000Y-17050D01*
X19340Y-18150D02*
X18720Y-18150D01*
X18720Y-18150D02*
X18470Y-17900D01*
G54D10*
G36*
X17788Y-18925D02*
X17787Y-18927D01*
X17779Y-18945D01*
X17775Y-18965D01*
X17775Y-18984D01*
X17775Y-19235D01*
X17779Y-19254D01*
X17785Y-19270D01*
X17654Y-19270D01*
X17624Y-19240D01*
X17625Y-19235D01*
X17625Y-19216D01*
X17625Y-18965D01*
X17621Y-18946D01*
X17614Y-18928D01*
X17603Y-18911D01*
X17589Y-18897D01*
X17573Y-18887D01*
X17555Y-18879D01*
X17535Y-18875D01*
X17516Y-18875D01*
X17397Y-18875D01*
X17403Y-18867D01*
X17410Y-18851D01*
X17413Y-18834D01*
X17413Y-18817D01*
X17413Y-18651D01*
X17391Y-18629D01*
X17259Y-18629D01*
X17229Y-18629D01*
X17171Y-18629D01*
X17171Y-18571D01*
X17171Y-18541D01*
X17171Y-18309D01*
X17162Y-18300D01*
X17171Y-18291D01*
X17171Y-18059D01*
X17171Y-18029D01*
X17171Y-17971D01*
X17229Y-17971D01*
X17229Y-18029D01*
X17229Y-18059D01*
X17229Y-18291D01*
X17238Y-18300D01*
X17229Y-18309D01*
X17229Y-18571D01*
X17391Y-18571D01*
X17413Y-18549D01*
X17413Y-18383D01*
X17413Y-18366D01*
X17410Y-18349D01*
X17403Y-18333D01*
X17393Y-18319D01*
X17381Y-18307D01*
X17371Y-18300D01*
X17381Y-18293D01*
X17393Y-18281D01*
X17403Y-18267D01*
X17410Y-18251D01*
X17413Y-18234D01*
X17413Y-18217D01*
X17413Y-18111D01*
X17428Y-18122D01*
X17465Y-18139D01*
X17505Y-18147D01*
X17531Y-18147D01*
X17557Y-18156D01*
X17575Y-18157D01*
X17575Y-18235D01*
X17579Y-18254D01*
X17586Y-18272D01*
X17597Y-18289D01*
X17608Y-18300D01*
X17597Y-18311D01*
X17587Y-18327D01*
X17579Y-18345D01*
X17575Y-18365D01*
X17575Y-18384D01*
X17575Y-18835D01*
X17579Y-18854D01*
X17586Y-18872D01*
X17597Y-18889D01*
X17611Y-18903D01*
X17627Y-18913D01*
X17645Y-18921D01*
X17665Y-18925D01*
X17684Y-18925D01*
X17788Y-18925D01*
X17788Y-18925D01*
G37*
G54D24*
X17788Y-18925D02*
X17787Y-18927D01*
X17779Y-18945D01*
X17775Y-18965D01*
X17775Y-18984D01*
X17775Y-19235D01*
X17779Y-19254D01*
X17785Y-19270D01*
X17654Y-19270D01*
X17624Y-19240D01*
X17625Y-19235D01*
X17625Y-19216D01*
X17625Y-18965D01*
X17621Y-18946D01*
X17614Y-18928D01*
X17603Y-18911D01*
X17589Y-18897D01*
X17573Y-18887D01*
X17555Y-18879D01*
X17535Y-18875D01*
X17516Y-18875D01*
X17397Y-18875D01*
X17403Y-18867D01*
X17410Y-18851D01*
X17413Y-18834D01*
X17413Y-18817D01*
X17413Y-18651D01*
X17391Y-18629D01*
X17259Y-18629D01*
X17229Y-18629D01*
X17171Y-18629D01*
X17171Y-18571D01*
X17171Y-18541D01*
X17171Y-18309D01*
X17162Y-18300D01*
X17171Y-18291D01*
X17171Y-18059D01*
X17171Y-18029D01*
X17171Y-17971D01*
X17229Y-17971D01*
X17229Y-18029D01*
X17229Y-18059D01*
X17229Y-18291D01*
X17238Y-18300D01*
X17229Y-18309D01*
X17229Y-18571D01*
X17391Y-18571D01*
X17413Y-18549D01*
X17413Y-18383D01*
X17413Y-18366D01*
X17410Y-18349D01*
X17403Y-18333D01*
X17393Y-18319D01*
X17381Y-18307D01*
X17371Y-18300D01*
X17381Y-18293D01*
X17393Y-18281D01*
X17403Y-18267D01*
X17410Y-18251D01*
X17413Y-18234D01*
X17413Y-18217D01*
X17413Y-18111D01*
X17428Y-18122D01*
X17465Y-18139D01*
X17505Y-18147D01*
X17531Y-18147D01*
X17557Y-18156D01*
X17575Y-18157D01*
X17575Y-18235D01*
X17579Y-18254D01*
X17586Y-18272D01*
X17597Y-18289D01*
X17608Y-18300D01*
X17597Y-18311D01*
X17587Y-18327D01*
X17579Y-18345D01*
X17575Y-18365D01*
X17575Y-18384D01*
X17575Y-18835D01*
X17579Y-18854D01*
X17586Y-18872D01*
X17597Y-18889D01*
X17611Y-18903D01*
X17627Y-18913D01*
X17645Y-18921D01*
X17665Y-18925D01*
X17684Y-18925D01*
X17788Y-18925D01*
G54D10*
G36*
X21843Y-21297D02*
X21823Y-21297D01*
X21804Y-21301D01*
X21786Y-21308D01*
X21783Y-21309D01*
X21782Y-21309D01*
X21764Y-21301D01*
X21744Y-21297D01*
X21725Y-21297D01*
X21626Y-21297D01*
X21607Y-21301D01*
X21589Y-21308D01*
X21586Y-21309D01*
X21585Y-21309D01*
X21567Y-21301D01*
X21547Y-21297D01*
X21528Y-21297D01*
X21429Y-21297D01*
X21410Y-21301D01*
X21392Y-21308D01*
X21389Y-21309D01*
X21371Y-21301D01*
X21351Y-21297D01*
X21332Y-21297D01*
X21233Y-21297D01*
X21214Y-21301D01*
X21196Y-21308D01*
X21193Y-21309D01*
X21192Y-21309D01*
X21174Y-21301D01*
X21154Y-21297D01*
X21135Y-21297D01*
X21036Y-21297D01*
X21017Y-21301D01*
X20999Y-21308D01*
X20984Y-21317D01*
X20973Y-21312D01*
X20956Y-21309D01*
X20944Y-21309D01*
X20922Y-21331D01*
X20922Y-21663D01*
X20927Y-21663D01*
X20927Y-21721D01*
X20922Y-21721D01*
X20874Y-21721D01*
X20869Y-21721D01*
X20869Y-21663D01*
X20874Y-21663D01*
X20874Y-21331D01*
X20852Y-21309D01*
X20840Y-21309D01*
X20832Y-21310D01*
X20832Y-21251D01*
X20913Y-21170D01*
X21716Y-21170D01*
X21843Y-21297D01*
X21843Y-21297D01*
G37*
G54D24*
X21843Y-21297D02*
X21823Y-21297D01*
X21804Y-21301D01*
X21786Y-21308D01*
X21783Y-21309D01*
X21782Y-21309D01*
X21764Y-21301D01*
X21744Y-21297D01*
X21725Y-21297D01*
X21626Y-21297D01*
X21607Y-21301D01*
X21589Y-21308D01*
X21586Y-21309D01*
X21585Y-21309D01*
X21567Y-21301D01*
X21547Y-21297D01*
X21528Y-21297D01*
X21429Y-21297D01*
X21410Y-21301D01*
X21392Y-21308D01*
X21389Y-21309D01*
X21371Y-21301D01*
X21351Y-21297D01*
X21332Y-21297D01*
X21233Y-21297D01*
X21214Y-21301D01*
X21196Y-21308D01*
X21193Y-21309D01*
X21192Y-21309D01*
X21174Y-21301D01*
X21154Y-21297D01*
X21135Y-21297D01*
X21036Y-21297D01*
X21017Y-21301D01*
X20999Y-21308D01*
X20984Y-21317D01*
X20973Y-21312D01*
X20956Y-21309D01*
X20944Y-21309D01*
X20922Y-21331D01*
X20922Y-21663D01*
X20927Y-21663D01*
X20927Y-21721D01*
X20922Y-21721D01*
X20874Y-21721D01*
X20869Y-21721D01*
X20869Y-21663D01*
X20874Y-21663D01*
X20874Y-21331D01*
X20852Y-21309D01*
X20840Y-21309D01*
X20832Y-21310D01*
X20832Y-21251D01*
X20913Y-21170D01*
X21716Y-21170D01*
X21843Y-21297D01*
G54D10*
G36*
X24311Y-18825D02*
X24125Y-18825D01*
X24106Y-18829D01*
X24088Y-18836D01*
X24071Y-18847D01*
X24057Y-18861D01*
X24047Y-18877D01*
X24039Y-18895D01*
X24035Y-18915D01*
X24035Y-18934D01*
X24035Y-19650D01*
X24025Y-19650D01*
X24025Y-19351D01*
X24025Y-19249D01*
X24025Y-18933D01*
X24025Y-18916D01*
X24022Y-18899D01*
X24015Y-18883D01*
X24005Y-18869D01*
X23993Y-18857D01*
X23979Y-18847D01*
X23963Y-18840D01*
X23946Y-18837D01*
X23851Y-18837D01*
X23829Y-18859D01*
X23829Y-19271D01*
X24003Y-19271D01*
X24025Y-19249D01*
X24025Y-19351D01*
X24003Y-19329D01*
X23859Y-19329D01*
X23829Y-19329D01*
X23771Y-19329D01*
X23771Y-19271D01*
X23771Y-18859D01*
X23749Y-18837D01*
X23654Y-18837D01*
X23637Y-18840D01*
X23621Y-18847D01*
X23607Y-18857D01*
X23595Y-18869D01*
X23585Y-18883D01*
X23578Y-18899D01*
X23575Y-18916D01*
X23575Y-18933D01*
X23575Y-19249D01*
X23597Y-19271D01*
X23771Y-19271D01*
X23771Y-19329D01*
X23741Y-19329D01*
X23597Y-19329D01*
X23575Y-19351D01*
X23575Y-19650D01*
X23565Y-19650D01*
X23565Y-18915D01*
X23561Y-18896D01*
X23554Y-18878D01*
X23543Y-18861D01*
X23529Y-18847D01*
X23513Y-18837D01*
X23495Y-18829D01*
X23475Y-18825D01*
X23456Y-18825D01*
X23319Y-18825D01*
X23334Y-18810D01*
X24296Y-18810D01*
X24311Y-18825D01*
X24311Y-18825D01*
G37*
G54D24*
X24311Y-18825D02*
X24125Y-18825D01*
X24106Y-18829D01*
X24088Y-18836D01*
X24071Y-18847D01*
X24057Y-18861D01*
X24047Y-18877D01*
X24039Y-18895D01*
X24035Y-18915D01*
X24035Y-18934D01*
X24035Y-19650D01*
X24025Y-19650D01*
X24025Y-19351D01*
X24025Y-19249D01*
X24025Y-18933D01*
X24025Y-18916D01*
X24022Y-18899D01*
X24015Y-18883D01*
X24005Y-18869D01*
X23993Y-18857D01*
X23979Y-18847D01*
X23963Y-18840D01*
X23946Y-18837D01*
X23851Y-18837D01*
X23829Y-18859D01*
X23829Y-19271D01*
X24003Y-19271D01*
X24025Y-19249D01*
X24025Y-19351D01*
X24003Y-19329D01*
X23859Y-19329D01*
X23829Y-19329D01*
X23771Y-19329D01*
X23771Y-19271D01*
X23771Y-18859D01*
X23749Y-18837D01*
X23654Y-18837D01*
X23637Y-18840D01*
X23621Y-18847D01*
X23607Y-18857D01*
X23595Y-18869D01*
X23585Y-18883D01*
X23578Y-18899D01*
X23575Y-18916D01*
X23575Y-18933D01*
X23575Y-19249D01*
X23597Y-19271D01*
X23771Y-19271D01*
X23771Y-19329D01*
X23741Y-19329D01*
X23597Y-19329D01*
X23575Y-19351D01*
X23575Y-19650D01*
X23565Y-19650D01*
X23565Y-18915D01*
X23561Y-18896D01*
X23554Y-18878D01*
X23543Y-18861D01*
X23529Y-18847D01*
X23513Y-18837D01*
X23495Y-18829D01*
X23475Y-18825D01*
X23456Y-18825D01*
X23319Y-18825D01*
X23334Y-18810D01*
X24296Y-18810D01*
X24311Y-18825D01*
G54D10*
G36*
X24570Y-21596D02*
X24313Y-21596D01*
X24313Y-21234D01*
X24313Y-21151D01*
X24313Y-21049D01*
X24313Y-20966D01*
X24310Y-20949D01*
X24303Y-20933D01*
X24293Y-20919D01*
X24281Y-20907D01*
X24267Y-20897D01*
X24251Y-20890D01*
X24234Y-20887D01*
X24217Y-20887D01*
X24051Y-20887D01*
X24029Y-20909D01*
X24029Y-21071D01*
X24291Y-21071D01*
X24313Y-21049D01*
X24313Y-21151D01*
X24291Y-21129D01*
X24029Y-21129D01*
X24029Y-21291D01*
X24051Y-21313D01*
X24217Y-21313D01*
X24234Y-21313D01*
X24251Y-21310D01*
X24267Y-21303D01*
X24281Y-21293D01*
X24293Y-21281D01*
X24303Y-21267D01*
X24310Y-21251D01*
X24313Y-21234D01*
X24313Y-21596D01*
X23971Y-21596D01*
X23971Y-21291D01*
X23971Y-21129D01*
X23971Y-21071D01*
X23971Y-20909D01*
X23949Y-20887D01*
X23783Y-20887D01*
X23766Y-20887D01*
X23749Y-20890D01*
X23733Y-20897D01*
X23719Y-20907D01*
X23707Y-20919D01*
X23700Y-20928D01*
X23693Y-20919D01*
X23681Y-20907D01*
X23667Y-20897D01*
X23651Y-20890D01*
X23634Y-20887D01*
X23617Y-20887D01*
X23451Y-20887D01*
X23429Y-20909D01*
X23429Y-21071D01*
X23691Y-21071D01*
X23700Y-21062D01*
X23709Y-21071D01*
X23971Y-21071D01*
X23971Y-21129D01*
X23709Y-21129D01*
X23700Y-21138D01*
X23691Y-21129D01*
X23429Y-21129D01*
X23429Y-21291D01*
X23451Y-21313D01*
X23617Y-21313D01*
X23634Y-21313D01*
X23651Y-21310D01*
X23667Y-21303D01*
X23681Y-21293D01*
X23693Y-21281D01*
X23700Y-21271D01*
X23707Y-21281D01*
X23719Y-21293D01*
X23733Y-21303D01*
X23749Y-21310D01*
X23766Y-21313D01*
X23783Y-21313D01*
X23949Y-21313D01*
X23971Y-21291D01*
X23971Y-21596D01*
X23371Y-21596D01*
X23371Y-21291D01*
X23371Y-21129D01*
X23109Y-21129D01*
X23087Y-21151D01*
X23087Y-21234D01*
X23090Y-21251D01*
X23097Y-21267D01*
X23107Y-21281D01*
X23119Y-21293D01*
X23133Y-21303D01*
X23149Y-21310D01*
X23166Y-21313D01*
X23183Y-21313D01*
X23349Y-21313D01*
X23371Y-21291D01*
X23371Y-21596D01*
X23241Y-21596D01*
X23041Y-21396D01*
X23041Y-20990D01*
X23087Y-20990D01*
X23087Y-21049D01*
X23109Y-21071D01*
X23371Y-21071D01*
X23371Y-20909D01*
X23349Y-20887D01*
X23337Y-20887D01*
X23374Y-20850D01*
X24406Y-20850D01*
X24452Y-20896D01*
X24447Y-20908D01*
X24443Y-20928D01*
X24443Y-20947D01*
X24443Y-21262D01*
X24447Y-21281D01*
X24454Y-21299D01*
X24465Y-21316D01*
X24479Y-21330D01*
X24495Y-21340D01*
X24513Y-21348D01*
X24533Y-21352D01*
X24552Y-21352D01*
X24570Y-21352D01*
X24570Y-21596D01*
X24570Y-21596D01*
G37*
G54D24*
X24570Y-21596D02*
X24313Y-21596D01*
X24313Y-21234D01*
X24313Y-21151D01*
X24313Y-21049D01*
X24313Y-20966D01*
X24310Y-20949D01*
X24303Y-20933D01*
X24293Y-20919D01*
X24281Y-20907D01*
X24267Y-20897D01*
X24251Y-20890D01*
X24234Y-20887D01*
X24217Y-20887D01*
X24051Y-20887D01*
X24029Y-20909D01*
X24029Y-21071D01*
X24291Y-21071D01*
X24313Y-21049D01*
X24313Y-21151D01*
X24291Y-21129D01*
X24029Y-21129D01*
X24029Y-21291D01*
X24051Y-21313D01*
X24217Y-21313D01*
X24234Y-21313D01*
X24251Y-21310D01*
X24267Y-21303D01*
X24281Y-21293D01*
X24293Y-21281D01*
X24303Y-21267D01*
X24310Y-21251D01*
X24313Y-21234D01*
X24313Y-21596D01*
X23971Y-21596D01*
X23971Y-21291D01*
X23971Y-21129D01*
X23971Y-21071D01*
X23971Y-20909D01*
X23949Y-20887D01*
X23783Y-20887D01*
X23766Y-20887D01*
X23749Y-20890D01*
X23733Y-20897D01*
X23719Y-20907D01*
X23707Y-20919D01*
X23700Y-20928D01*
X23693Y-20919D01*
X23681Y-20907D01*
X23667Y-20897D01*
X23651Y-20890D01*
X23634Y-20887D01*
X23617Y-20887D01*
X23451Y-20887D01*
X23429Y-20909D01*
X23429Y-21071D01*
X23691Y-21071D01*
X23700Y-21062D01*
X23709Y-21071D01*
X23971Y-21071D01*
X23971Y-21129D01*
X23709Y-21129D01*
X23700Y-21138D01*
X23691Y-21129D01*
X23429Y-21129D01*
X23429Y-21291D01*
X23451Y-21313D01*
X23617Y-21313D01*
X23634Y-21313D01*
X23651Y-21310D01*
X23667Y-21303D01*
X23681Y-21293D01*
X23693Y-21281D01*
X23700Y-21271D01*
X23707Y-21281D01*
X23719Y-21293D01*
X23733Y-21303D01*
X23749Y-21310D01*
X23766Y-21313D01*
X23783Y-21313D01*
X23949Y-21313D01*
X23971Y-21291D01*
X23971Y-21596D01*
X23371Y-21596D01*
X23371Y-21291D01*
X23371Y-21129D01*
X23109Y-21129D01*
X23087Y-21151D01*
X23087Y-21234D01*
X23090Y-21251D01*
X23097Y-21267D01*
X23107Y-21281D01*
X23119Y-21293D01*
X23133Y-21303D01*
X23149Y-21310D01*
X23166Y-21313D01*
X23183Y-21313D01*
X23349Y-21313D01*
X23371Y-21291D01*
X23371Y-21596D01*
X23241Y-21596D01*
X23041Y-21396D01*
X23041Y-20990D01*
X23087Y-20990D01*
X23087Y-21049D01*
X23109Y-21071D01*
X23371Y-21071D01*
X23371Y-20909D01*
X23349Y-20887D01*
X23337Y-20887D01*
X23374Y-20850D01*
X24406Y-20850D01*
X24452Y-20896D01*
X24447Y-20908D01*
X24443Y-20928D01*
X24443Y-20947D01*
X24443Y-21262D01*
X24447Y-21281D01*
X24454Y-21299D01*
X24465Y-21316D01*
X24479Y-21330D01*
X24495Y-21340D01*
X24513Y-21348D01*
X24533Y-21352D01*
X24552Y-21352D01*
X24570Y-21352D01*
X24570Y-21596D01*
G54D10*
G36*
X26080Y-20380D02*
X26071Y-20399D01*
X26070Y-20401D01*
X26067Y-20409D01*
X26063Y-20423D01*
X26060Y-20448D01*
X26060Y-20450D01*
X26060Y-20516D01*
X25876Y-20700D01*
X25671Y-20700D01*
X25681Y-20693D01*
X25693Y-20681D01*
X25703Y-20667D01*
X25710Y-20651D01*
X25713Y-20634D01*
X25713Y-20551D01*
X25691Y-20529D01*
X25459Y-20529D01*
X25429Y-20529D01*
X25371Y-20529D01*
X25341Y-20529D01*
X25109Y-20529D01*
X25087Y-20551D01*
X25087Y-20634D01*
X25090Y-20651D01*
X25097Y-20667D01*
X25107Y-20681D01*
X25119Y-20693D01*
X25128Y-20700D01*
X24949Y-20700D01*
X24953Y-20692D01*
X24957Y-20672D01*
X24957Y-20653D01*
X24957Y-20380D01*
X25087Y-20380D01*
X25087Y-20449D01*
X25109Y-20471D01*
X25341Y-20471D01*
X25371Y-20471D01*
X25429Y-20471D01*
X25459Y-20471D01*
X25691Y-20471D01*
X25713Y-20449D01*
X25713Y-20380D01*
X26080Y-20380D01*
X26080Y-20380D01*
G37*
G54D24*
X26080Y-20380D02*
X26071Y-20399D01*
X26070Y-20401D01*
X26067Y-20409D01*
X26063Y-20423D01*
X26060Y-20448D01*
X26060Y-20450D01*
X26060Y-20516D01*
X25876Y-20700D01*
X25671Y-20700D01*
X25681Y-20693D01*
X25693Y-20681D01*
X25703Y-20667D01*
X25710Y-20651D01*
X25713Y-20634D01*
X25713Y-20551D01*
X25691Y-20529D01*
X25459Y-20529D01*
X25429Y-20529D01*
X25371Y-20529D01*
X25341Y-20529D01*
X25109Y-20529D01*
X25087Y-20551D01*
X25087Y-20634D01*
X25090Y-20651D01*
X25097Y-20667D01*
X25107Y-20681D01*
X25119Y-20693D01*
X25128Y-20700D01*
X24949Y-20700D01*
X24953Y-20692D01*
X24957Y-20672D01*
X24957Y-20653D01*
X24957Y-20380D01*
X25087Y-20380D01*
X25087Y-20449D01*
X25109Y-20471D01*
X25341Y-20471D01*
X25371Y-20471D01*
X25429Y-20471D01*
X25459Y-20471D01*
X25691Y-20471D01*
X25713Y-20449D01*
X25713Y-20380D01*
X26080Y-20380D01*
G54D10*
G36*
X29581Y-23384D02*
X29520Y-23445D01*
X29520Y-21954D01*
X29502Y-21864D01*
X29467Y-21778D01*
X29416Y-21702D01*
X29351Y-21636D01*
X29275Y-21585D01*
X29190Y-21549D01*
X29099Y-21530D01*
X29007Y-21530D01*
X28917Y-21547D01*
X28831Y-21581D01*
X28754Y-21632D01*
X28688Y-21696D01*
X28636Y-21772D01*
X28600Y-21857D01*
X28581Y-21947D01*
X28579Y-22039D01*
X28596Y-22130D01*
X28630Y-22216D01*
X28637Y-22228D01*
X28529Y-22337D01*
X28377Y-22337D01*
X28407Y-22309D01*
X28461Y-22233D01*
X28498Y-22149D01*
X28519Y-22059D01*
X28520Y-21954D01*
X28502Y-21864D01*
X28467Y-21778D01*
X28416Y-21702D01*
X28351Y-21636D01*
X28342Y-21630D01*
X28449Y-21630D01*
X28450Y-21630D01*
X28475Y-21628D01*
X28498Y-21620D01*
X28500Y-21620D01*
X28514Y-21612D01*
X28521Y-21609D01*
X28522Y-21608D01*
X28541Y-21593D01*
X28542Y-21592D01*
X28721Y-21412D01*
X28804Y-21449D01*
X28894Y-21469D01*
X28986Y-21471D01*
X29077Y-21455D01*
X29163Y-21422D01*
X29241Y-21372D01*
X29307Y-21309D01*
X29361Y-21233D01*
X29398Y-21149D01*
X29419Y-21059D01*
X29420Y-20954D01*
X29402Y-20864D01*
X29367Y-20778D01*
X29316Y-20702D01*
X29251Y-20636D01*
X29175Y-20585D01*
X29090Y-20549D01*
X28999Y-20530D01*
X28907Y-20530D01*
X28817Y-20547D01*
X28731Y-20581D01*
X28654Y-20632D01*
X28588Y-20696D01*
X28536Y-20772D01*
X28500Y-20857D01*
X28481Y-20947D01*
X28479Y-21039D01*
X28496Y-21130D01*
X28530Y-21216D01*
X28537Y-21228D01*
X28396Y-21370D01*
X28243Y-21370D01*
X28307Y-21309D01*
X28361Y-21233D01*
X28398Y-21149D01*
X28419Y-21059D01*
X28420Y-20954D01*
X28402Y-20864D01*
X28367Y-20778D01*
X28316Y-20702D01*
X28251Y-20636D01*
X28242Y-20630D01*
X28549Y-20630D01*
X28550Y-20630D01*
X28575Y-20628D01*
X28598Y-20620D01*
X28600Y-20620D01*
X28614Y-20612D01*
X28621Y-20609D01*
X28622Y-20608D01*
X28641Y-20593D01*
X28642Y-20592D01*
X28821Y-20412D01*
X28904Y-20449D01*
X28994Y-20469D01*
X29086Y-20471D01*
X29177Y-20455D01*
X29263Y-20422D01*
X29341Y-20372D01*
X29407Y-20309D01*
X29461Y-20233D01*
X29498Y-20149D01*
X29519Y-20059D01*
X29520Y-19954D01*
X29502Y-19864D01*
X29467Y-19778D01*
X29416Y-19702D01*
X29351Y-19636D01*
X29275Y-19585D01*
X29190Y-19549D01*
X29099Y-19530D01*
X29007Y-19530D01*
X28917Y-19547D01*
X28831Y-19581D01*
X28754Y-19632D01*
X28688Y-19696D01*
X28636Y-19772D01*
X28600Y-19857D01*
X28581Y-19947D01*
X28579Y-20039D01*
X28596Y-20130D01*
X28630Y-20216D01*
X28637Y-20228D01*
X28496Y-20370D01*
X28343Y-20370D01*
X28407Y-20309D01*
X28461Y-20233D01*
X28498Y-20149D01*
X28519Y-20059D01*
X28520Y-19954D01*
X28502Y-19864D01*
X28467Y-19778D01*
X28416Y-19702D01*
X28351Y-19636D01*
X28342Y-19630D01*
X28449Y-19630D01*
X28450Y-19630D01*
X28475Y-19628D01*
X28498Y-19620D01*
X28500Y-19620D01*
X28514Y-19612D01*
X28521Y-19609D01*
X28522Y-19608D01*
X28541Y-19593D01*
X28542Y-19592D01*
X28721Y-19412D01*
X28804Y-19449D01*
X28894Y-19469D01*
X28986Y-19471D01*
X29077Y-19455D01*
X29163Y-19422D01*
X29241Y-19372D01*
X29307Y-19309D01*
X29361Y-19233D01*
X29398Y-19149D01*
X29419Y-19059D01*
X29420Y-18954D01*
X29402Y-18864D01*
X29367Y-18778D01*
X29316Y-18702D01*
X29251Y-18636D01*
X29175Y-18585D01*
X29090Y-18549D01*
X28999Y-18530D01*
X28907Y-18530D01*
X28817Y-18547D01*
X28731Y-18581D01*
X28654Y-18632D01*
X28588Y-18696D01*
X28536Y-18772D01*
X28500Y-18857D01*
X28481Y-18947D01*
X28479Y-19039D01*
X28496Y-19130D01*
X28530Y-19216D01*
X28537Y-19228D01*
X28410Y-19355D01*
X28410Y-18992D01*
X28400Y-18902D01*
X28372Y-18817D01*
X28338Y-18753D01*
X28280Y-18712D01*
X27991Y-19000D01*
X28280Y-19288D01*
X28338Y-19247D01*
X28379Y-19167D01*
X28403Y-19081D01*
X28410Y-18992D01*
X28410Y-19355D01*
X28396Y-19370D01*
X28209Y-19370D01*
X28238Y-19330D01*
X27950Y-19041D01*
X27662Y-19330D01*
X27703Y-19388D01*
X27733Y-19403D01*
X27733Y-19404D01*
X27729Y-19407D01*
X27728Y-19407D01*
X27728Y-19408D01*
X27722Y-19414D01*
X27168Y-19968D01*
X27026Y-19968D01*
X27431Y-19563D01*
X27447Y-19543D01*
X27448Y-19543D01*
X27459Y-19521D01*
X27460Y-19520D01*
X27464Y-19504D01*
X27467Y-19497D01*
X27467Y-19496D01*
X27470Y-19472D01*
X27470Y-19470D01*
X27470Y-18934D01*
X27501Y-18902D01*
X27497Y-18919D01*
X27490Y-19008D01*
X27500Y-19098D01*
X27528Y-19183D01*
X27562Y-19247D01*
X27620Y-19288D01*
X27887Y-19020D01*
X27888Y-19021D01*
X27909Y-19000D01*
X27950Y-18959D01*
X27971Y-18938D01*
X27970Y-18937D01*
X28238Y-18670D01*
X28209Y-18630D01*
X28549Y-18630D01*
X28550Y-18630D01*
X28575Y-18628D01*
X28598Y-18620D01*
X28600Y-18620D01*
X28614Y-18612D01*
X28621Y-18609D01*
X28622Y-18608D01*
X28641Y-18593D01*
X28642Y-18592D01*
X28821Y-18412D01*
X28904Y-18449D01*
X28994Y-18469D01*
X29086Y-18471D01*
X29177Y-18455D01*
X29263Y-18422D01*
X29341Y-18372D01*
X29407Y-18309D01*
X29461Y-18233D01*
X29498Y-18149D01*
X29519Y-18059D01*
X29520Y-17954D01*
X29502Y-17864D01*
X29467Y-17778D01*
X29416Y-17702D01*
X29351Y-17636D01*
X29275Y-17585D01*
X29190Y-17549D01*
X29099Y-17530D01*
X29007Y-17530D01*
X28917Y-17547D01*
X28831Y-17581D01*
X28754Y-17632D01*
X28688Y-17696D01*
X28636Y-17772D01*
X28600Y-17857D01*
X28581Y-17947D01*
X28579Y-18039D01*
X28596Y-18130D01*
X28630Y-18216D01*
X28637Y-18228D01*
X28496Y-18370D01*
X28343Y-18370D01*
X28407Y-18309D01*
X28461Y-18233D01*
X28498Y-18149D01*
X28519Y-18059D01*
X28520Y-17954D01*
X28502Y-17864D01*
X28475Y-17798D01*
X28799Y-17475D01*
X28854Y-17499D01*
X28944Y-17519D01*
X29036Y-17521D01*
X29127Y-17505D01*
X29213Y-17472D01*
X29291Y-17422D01*
X29357Y-17359D01*
X29411Y-17283D01*
X29448Y-17199D01*
X29469Y-17109D01*
X29470Y-17004D01*
X29452Y-16914D01*
X29417Y-16828D01*
X29366Y-16752D01*
X29301Y-16686D01*
X29225Y-16635D01*
X29140Y-16599D01*
X29049Y-16580D01*
X28957Y-16580D01*
X28867Y-16597D01*
X28781Y-16631D01*
X28704Y-16682D01*
X28638Y-16746D01*
X28586Y-16822D01*
X28550Y-16907D01*
X28531Y-16997D01*
X28529Y-17089D01*
X28546Y-17180D01*
X28574Y-17251D01*
X28460Y-17364D01*
X28460Y-16942D01*
X28450Y-16852D01*
X28422Y-16767D01*
X28388Y-16703D01*
X28330Y-16662D01*
X28288Y-16703D01*
X28288Y-16620D01*
X28247Y-16562D01*
X28167Y-16521D01*
X28081Y-16497D01*
X27992Y-16490D01*
X27902Y-16500D01*
X27817Y-16528D01*
X27753Y-16562D01*
X27712Y-16620D01*
X28000Y-16909D01*
X28288Y-16620D01*
X28288Y-16703D01*
X28041Y-16950D01*
X28330Y-17238D01*
X28388Y-17197D01*
X28429Y-17117D01*
X28453Y-17031D01*
X28460Y-16942D01*
X28460Y-17364D01*
X28288Y-17536D01*
X28288Y-17280D01*
X28000Y-16991D01*
X27959Y-17032D01*
X27959Y-16950D01*
X27670Y-16662D01*
X27612Y-16703D01*
X27571Y-16783D01*
X27547Y-16869D01*
X27540Y-16958D01*
X27550Y-17048D01*
X27578Y-17133D01*
X27612Y-17197D01*
X27670Y-17238D01*
X27959Y-16950D01*
X27959Y-17032D01*
X27712Y-17280D01*
X27753Y-17338D01*
X27833Y-17379D01*
X27919Y-17403D01*
X28008Y-17410D01*
X28098Y-17400D01*
X28183Y-17372D01*
X28247Y-17338D01*
X28288Y-17280D01*
X28288Y-17536D01*
X28250Y-17574D01*
X28190Y-17549D01*
X28099Y-17530D01*
X28007Y-17530D01*
X27917Y-17547D01*
X27831Y-17581D01*
X27754Y-17632D01*
X27688Y-17696D01*
X27636Y-17772D01*
X27600Y-17857D01*
X27581Y-17947D01*
X27579Y-18039D01*
X27596Y-18130D01*
X27630Y-18216D01*
X27680Y-18293D01*
X27744Y-18360D01*
X27758Y-18370D01*
X27721Y-18370D01*
X27720Y-18370D01*
X27695Y-18372D01*
X27670Y-18380D01*
X27655Y-18387D01*
X27649Y-18391D01*
X27629Y-18407D01*
X27628Y-18408D01*
X27249Y-18787D01*
X27248Y-18788D01*
X27232Y-18807D01*
X27221Y-18829D01*
X27220Y-18831D01*
X27217Y-18839D01*
X27213Y-18853D01*
X27210Y-18878D01*
X27210Y-18880D01*
X27210Y-19416D01*
X27002Y-19624D01*
X27002Y-18921D01*
X27002Y-18511D01*
X27002Y-18409D01*
X27002Y-17999D01*
X26999Y-17982D01*
X26992Y-17966D01*
X26982Y-17952D01*
X26970Y-17940D01*
X26956Y-17930D01*
X26940Y-17923D01*
X26923Y-17920D01*
X26906Y-17920D01*
X26651Y-17920D01*
X26629Y-17942D01*
X26629Y-18431D01*
X26980Y-18431D01*
X27002Y-18409D01*
X27002Y-18511D01*
X26980Y-18489D01*
X26629Y-18489D01*
X26629Y-18978D01*
X26651Y-19000D01*
X26906Y-19000D01*
X26923Y-19000D01*
X26940Y-18997D01*
X26956Y-18990D01*
X26970Y-18980D01*
X26982Y-18968D01*
X26992Y-18954D01*
X26999Y-18938D01*
X27002Y-18921D01*
X27002Y-19624D01*
X26854Y-19772D01*
X26571Y-19772D01*
X26571Y-18978D01*
X26571Y-18489D01*
X26220Y-18489D01*
X26198Y-18511D01*
X26198Y-18921D01*
X26201Y-18938D01*
X26208Y-18954D01*
X26218Y-18968D01*
X26230Y-18980D01*
X26244Y-18990D01*
X26260Y-18997D01*
X26277Y-19000D01*
X26294Y-19000D01*
X26549Y-19000D01*
X26571Y-18978D01*
X26571Y-19772D01*
X26120Y-19772D01*
X26128Y-19756D01*
X26137Y-19717D01*
X26138Y-19670D01*
X26130Y-19630D01*
X26115Y-19592D01*
X26092Y-19558D01*
X26063Y-19529D01*
X26030Y-19506D01*
X25992Y-19491D01*
X25952Y-19482D01*
X25911Y-19482D01*
X25871Y-19489D01*
X25834Y-19505D01*
X25799Y-19527D01*
X25770Y-19555D01*
X25766Y-19560D01*
X24754Y-19560D01*
X24730Y-19536D01*
X24730Y-18931D01*
X24730Y-18930D01*
X24728Y-18905D01*
X24720Y-18882D01*
X24720Y-18880D01*
X24712Y-18865D01*
X24709Y-18859D01*
X24708Y-18858D01*
X24693Y-18839D01*
X24692Y-18838D01*
X24542Y-18688D01*
X25491Y-18688D01*
X25492Y-18688D01*
X25517Y-18686D01*
X25540Y-18678D01*
X25542Y-18678D01*
X25556Y-18670D01*
X25563Y-18667D01*
X25564Y-18666D01*
X25583Y-18651D01*
X25584Y-18650D01*
X26198Y-18035D01*
X26198Y-18409D01*
X26220Y-18431D01*
X26571Y-18431D01*
X26571Y-17942D01*
X26549Y-17920D01*
X26313Y-17920D01*
X26770Y-17462D01*
X26854Y-17499D01*
X26944Y-17519D01*
X27036Y-17521D01*
X27127Y-17505D01*
X27213Y-17472D01*
X27291Y-17422D01*
X27357Y-17359D01*
X27411Y-17283D01*
X27448Y-17199D01*
X27469Y-17109D01*
X27470Y-17004D01*
X27452Y-16914D01*
X27417Y-16828D01*
X27366Y-16752D01*
X27301Y-16686D01*
X27225Y-16635D01*
X27140Y-16599D01*
X27049Y-16580D01*
X26957Y-16580D01*
X26867Y-16597D01*
X26781Y-16631D01*
X26704Y-16682D01*
X26638Y-16746D01*
X26586Y-16822D01*
X26550Y-16907D01*
X26531Y-16997D01*
X26529Y-17089D01*
X26546Y-17180D01*
X26580Y-17266D01*
X26588Y-17278D01*
X25438Y-18428D01*
X24862Y-18428D01*
X24868Y-18416D01*
X24877Y-18377D01*
X24878Y-18330D01*
X24870Y-18290D01*
X24866Y-18280D01*
X24985Y-18280D01*
X24994Y-18289D01*
X25028Y-18312D01*
X25065Y-18329D01*
X25105Y-18337D01*
X25146Y-18338D01*
X25186Y-18331D01*
X25224Y-18317D01*
X25258Y-18295D01*
X25288Y-18267D01*
X25311Y-18234D01*
X25328Y-18196D01*
X25337Y-18157D01*
X25338Y-18110D01*
X25330Y-18070D01*
X25315Y-18032D01*
X25292Y-17998D01*
X25263Y-17969D01*
X25230Y-17946D01*
X25199Y-17934D01*
X25771Y-17362D01*
X25854Y-17399D01*
X25944Y-17419D01*
X26036Y-17421D01*
X26127Y-17405D01*
X26213Y-17372D01*
X26291Y-17322D01*
X26357Y-17259D01*
X26411Y-17183D01*
X26448Y-17099D01*
X26469Y-17009D01*
X26470Y-16904D01*
X26452Y-16814D01*
X26417Y-16728D01*
X26366Y-16652D01*
X26301Y-16586D01*
X26225Y-16535D01*
X26140Y-16499D01*
X26049Y-16480D01*
X25957Y-16480D01*
X25867Y-16497D01*
X25781Y-16531D01*
X25704Y-16582D01*
X25638Y-16646D01*
X25586Y-16722D01*
X25550Y-16807D01*
X25531Y-16897D01*
X25529Y-16989D01*
X25546Y-17080D01*
X25580Y-17166D01*
X25587Y-17178D01*
X24880Y-17886D01*
X24523Y-17886D01*
X24522Y-17886D01*
X24497Y-17888D01*
X24472Y-17896D01*
X24450Y-17908D01*
X24435Y-17920D01*
X24431Y-17923D01*
X24430Y-17924D01*
X24429Y-17925D01*
X24408Y-17946D01*
X24288Y-17946D01*
X24771Y-17462D01*
X24854Y-17499D01*
X24944Y-17519D01*
X25036Y-17521D01*
X25127Y-17505D01*
X25213Y-17472D01*
X25291Y-17422D01*
X25357Y-17359D01*
X25411Y-17283D01*
X25448Y-17199D01*
X25469Y-17109D01*
X25470Y-17004D01*
X25452Y-16914D01*
X25417Y-16828D01*
X25366Y-16752D01*
X25301Y-16686D01*
X25225Y-16635D01*
X25140Y-16599D01*
X25049Y-16580D01*
X24957Y-16580D01*
X24867Y-16597D01*
X24781Y-16631D01*
X24704Y-16682D01*
X24638Y-16746D01*
X24586Y-16822D01*
X24550Y-16907D01*
X24531Y-16997D01*
X24529Y-17089D01*
X24546Y-17180D01*
X24580Y-17266D01*
X24587Y-17278D01*
X24076Y-17790D01*
X23344Y-17790D01*
X23771Y-17362D01*
X23854Y-17399D01*
X23944Y-17419D01*
X24036Y-17421D01*
X24127Y-17405D01*
X24213Y-17372D01*
X24291Y-17322D01*
X24357Y-17259D01*
X24411Y-17183D01*
X24448Y-17099D01*
X24469Y-17009D01*
X24470Y-16904D01*
X24452Y-16814D01*
X24417Y-16728D01*
X24366Y-16652D01*
X24301Y-16586D01*
X24225Y-16535D01*
X24140Y-16499D01*
X24049Y-16480D01*
X23957Y-16480D01*
X23867Y-16497D01*
X23781Y-16531D01*
X23704Y-16582D01*
X23638Y-16646D01*
X23586Y-16722D01*
X23550Y-16807D01*
X23531Y-16897D01*
X23529Y-16989D01*
X23546Y-17080D01*
X23580Y-17166D01*
X23587Y-17178D01*
X23098Y-17668D01*
X22566Y-17668D01*
X22771Y-17462D01*
X22854Y-17499D01*
X22944Y-17519D01*
X23036Y-17521D01*
X23127Y-17505D01*
X23213Y-17472D01*
X23291Y-17422D01*
X23357Y-17359D01*
X23411Y-17283D01*
X23448Y-17199D01*
X23469Y-17109D01*
X23470Y-17004D01*
X23452Y-16914D01*
X23417Y-16828D01*
X23366Y-16752D01*
X23301Y-16686D01*
X23225Y-16635D01*
X23140Y-16599D01*
X23049Y-16580D01*
X22957Y-16580D01*
X22867Y-16597D01*
X22781Y-16631D01*
X22704Y-16682D01*
X22638Y-16746D01*
X22586Y-16822D01*
X22550Y-16907D01*
X22531Y-16997D01*
X22529Y-17089D01*
X22546Y-17180D01*
X22580Y-17266D01*
X22587Y-17278D01*
X22320Y-17546D01*
X22062Y-17546D01*
X22091Y-17517D01*
X22107Y-17497D01*
X22108Y-17497D01*
X22119Y-17475D01*
X22120Y-17474D01*
X22124Y-17458D01*
X22127Y-17451D01*
X22127Y-17450D01*
X22130Y-17426D01*
X22130Y-17425D01*
X22130Y-17424D01*
X22130Y-17403D01*
X22213Y-17372D01*
X22291Y-17322D01*
X22357Y-17259D01*
X22411Y-17183D01*
X22448Y-17099D01*
X22469Y-17009D01*
X22470Y-16904D01*
X22452Y-16814D01*
X22417Y-16728D01*
X22366Y-16652D01*
X22301Y-16586D01*
X22225Y-16535D01*
X22140Y-16499D01*
X22049Y-16480D01*
X21957Y-16480D01*
X21867Y-16497D01*
X21781Y-16531D01*
X21704Y-16582D01*
X21638Y-16646D01*
X21586Y-16722D01*
X21550Y-16807D01*
X21531Y-16897D01*
X21529Y-16989D01*
X21546Y-17080D01*
X21580Y-17166D01*
X21630Y-17243D01*
X21694Y-17310D01*
X21770Y-17362D01*
X21844Y-17395D01*
X21816Y-17424D01*
X21287Y-17424D01*
X21291Y-17422D01*
X21357Y-17359D01*
X21411Y-17283D01*
X21448Y-17199D01*
X21469Y-17109D01*
X21470Y-17004D01*
X21452Y-16914D01*
X21417Y-16828D01*
X21366Y-16752D01*
X21301Y-16686D01*
X21225Y-16635D01*
X21140Y-16599D01*
X21049Y-16580D01*
X20957Y-16580D01*
X20867Y-16597D01*
X20781Y-16631D01*
X20704Y-16682D01*
X20638Y-16746D01*
X20586Y-16822D01*
X20550Y-16907D01*
X20531Y-16997D01*
X20529Y-17089D01*
X20546Y-17180D01*
X20580Y-17266D01*
X20587Y-17278D01*
X20438Y-17428D01*
X20438Y-17259D01*
X20438Y-17258D01*
X20436Y-17233D01*
X20428Y-17210D01*
X20428Y-17208D01*
X20416Y-17187D01*
X20416Y-17186D01*
X20411Y-17180D01*
X20448Y-17099D01*
X20469Y-17009D01*
X20470Y-16904D01*
X20452Y-16814D01*
X20417Y-16728D01*
X20366Y-16652D01*
X20301Y-16586D01*
X20225Y-16535D01*
X20140Y-16499D01*
X20049Y-16480D01*
X19957Y-16480D01*
X19867Y-16497D01*
X19781Y-16531D01*
X19704Y-16582D01*
X19638Y-16646D01*
X19586Y-16722D01*
X19550Y-16807D01*
X19531Y-16897D01*
X19529Y-16989D01*
X19546Y-17080D01*
X19580Y-17166D01*
X19630Y-17243D01*
X19694Y-17310D01*
X19770Y-17362D01*
X19854Y-17399D01*
X19944Y-17419D01*
X20036Y-17421D01*
X20127Y-17405D01*
X20178Y-17385D01*
X20178Y-17729D01*
X20052Y-17604D01*
X20049Y-17600D01*
X20047Y-17599D01*
X20025Y-17580D01*
X20023Y-17579D01*
X19998Y-17565D01*
X19997Y-17564D01*
X19996Y-17564D01*
X19986Y-17561D01*
X19968Y-17555D01*
X19937Y-17552D01*
X19936Y-17552D01*
X19935Y-17552D01*
X19527Y-17552D01*
X19525Y-17552D01*
X19494Y-17555D01*
X19478Y-17559D01*
X19466Y-17563D01*
X19464Y-17563D01*
X19464Y-17564D01*
X19460Y-17566D01*
X19438Y-17578D01*
X19414Y-17597D01*
X19413Y-17598D01*
X19412Y-17599D01*
X19301Y-17709D01*
X19289Y-17697D01*
X19273Y-17687D01*
X19255Y-17679D01*
X19235Y-17675D01*
X19216Y-17675D01*
X18765Y-17675D01*
X18746Y-17679D01*
X18728Y-17686D01*
X18711Y-17697D01*
X18700Y-17708D01*
X18689Y-17697D01*
X18673Y-17687D01*
X18655Y-17679D01*
X18635Y-17675D01*
X18616Y-17675D01*
X18165Y-17675D01*
X18146Y-17679D01*
X18128Y-17686D01*
X18111Y-17697D01*
X18097Y-17711D01*
X18087Y-17727D01*
X18080Y-17741D01*
X18019Y-17741D01*
X18014Y-17728D01*
X18003Y-17711D01*
X17989Y-17697D01*
X17973Y-17687D01*
X17955Y-17679D01*
X17935Y-17675D01*
X17916Y-17675D01*
X17665Y-17675D01*
X17646Y-17679D01*
X17628Y-17686D01*
X17611Y-17697D01*
X17597Y-17711D01*
X17587Y-17727D01*
X17581Y-17738D01*
X17571Y-17735D01*
X17572Y-17734D01*
X17756Y-17550D01*
X18629Y-17550D01*
X18630Y-17550D01*
X18655Y-17548D01*
X18678Y-17540D01*
X18680Y-17540D01*
X18694Y-17532D01*
X18701Y-17529D01*
X18702Y-17528D01*
X18721Y-17513D01*
X18722Y-17512D01*
X18771Y-17462D01*
X18854Y-17499D01*
X18944Y-17519D01*
X19036Y-17521D01*
X19127Y-17505D01*
X19213Y-17472D01*
X19291Y-17422D01*
X19357Y-17359D01*
X19411Y-17283D01*
X19448Y-17199D01*
X19469Y-17109D01*
X19470Y-17004D01*
X19452Y-16914D01*
X19417Y-16828D01*
X19366Y-16752D01*
X19301Y-16686D01*
X19225Y-16635D01*
X19140Y-16599D01*
X19049Y-16580D01*
X18957Y-16580D01*
X18867Y-16597D01*
X18781Y-16631D01*
X18704Y-16682D01*
X18638Y-16746D01*
X18586Y-16822D01*
X18550Y-16907D01*
X18531Y-16997D01*
X18529Y-17089D01*
X18546Y-17180D01*
X18580Y-17266D01*
X18587Y-17278D01*
X18576Y-17290D01*
X18324Y-17290D01*
X18357Y-17259D01*
X18411Y-17183D01*
X18448Y-17099D01*
X18469Y-17009D01*
X18470Y-16904D01*
X18452Y-16814D01*
X18417Y-16728D01*
X18366Y-16652D01*
X18301Y-16586D01*
X18225Y-16535D01*
X18140Y-16499D01*
X18049Y-16480D01*
X17957Y-16480D01*
X17867Y-16497D01*
X17781Y-16531D01*
X17704Y-16582D01*
X17638Y-16646D01*
X17586Y-16722D01*
X17550Y-16807D01*
X17531Y-16897D01*
X17529Y-16989D01*
X17546Y-17080D01*
X17580Y-17166D01*
X17587Y-17178D01*
X17376Y-17390D01*
X17324Y-17390D01*
X17357Y-17359D01*
X17411Y-17283D01*
X17448Y-17199D01*
X17469Y-17109D01*
X17470Y-17004D01*
X17452Y-16914D01*
X17417Y-16828D01*
X17366Y-16752D01*
X17301Y-16686D01*
X17225Y-16635D01*
X17140Y-16599D01*
X17049Y-16580D01*
X16957Y-16580D01*
X16867Y-16597D01*
X16781Y-16631D01*
X16704Y-16682D01*
X16638Y-16746D01*
X16586Y-16822D01*
X16550Y-16907D01*
X16531Y-16997D01*
X16529Y-17089D01*
X16546Y-17180D01*
X16580Y-17266D01*
X16589Y-17281D01*
X16581Y-17299D01*
X16580Y-17301D01*
X16577Y-17309D01*
X16573Y-17323D01*
X16571Y-17337D01*
X16412Y-17178D01*
X16448Y-17099D01*
X16469Y-17009D01*
X16470Y-16904D01*
X16452Y-16814D01*
X16417Y-16728D01*
X16366Y-16652D01*
X16301Y-16586D01*
X16225Y-16535D01*
X16140Y-16499D01*
X16049Y-16480D01*
X15957Y-16480D01*
X15867Y-16497D01*
X15781Y-16531D01*
X15704Y-16582D01*
X15638Y-16646D01*
X15586Y-16722D01*
X15550Y-16807D01*
X15531Y-16897D01*
X15529Y-16989D01*
X15546Y-17080D01*
X15580Y-17166D01*
X15630Y-17243D01*
X15694Y-17310D01*
X15770Y-17362D01*
X15854Y-17399D01*
X15944Y-17419D01*
X16036Y-17421D01*
X16127Y-17405D01*
X16213Y-17372D01*
X16228Y-17362D01*
X16445Y-17579D01*
X16445Y-18766D01*
X16438Y-18753D01*
X16420Y-18740D01*
X16420Y-17954D01*
X16402Y-17864D01*
X16367Y-17778D01*
X16316Y-17702D01*
X16251Y-17636D01*
X16175Y-17585D01*
X16090Y-17549D01*
X15999Y-17530D01*
X15907Y-17530D01*
X15817Y-17547D01*
X15731Y-17581D01*
X15654Y-17632D01*
X15588Y-17696D01*
X15536Y-17772D01*
X15500Y-17857D01*
X15481Y-17947D01*
X15479Y-18039D01*
X15496Y-18130D01*
X15530Y-18216D01*
X15580Y-18293D01*
X15644Y-18360D01*
X15720Y-18412D01*
X15804Y-18449D01*
X15894Y-18469D01*
X15986Y-18471D01*
X16077Y-18455D01*
X16163Y-18422D01*
X16241Y-18372D01*
X16307Y-18309D01*
X16361Y-18233D01*
X16398Y-18149D01*
X16419Y-18059D01*
X16420Y-17954D01*
X16420Y-18740D01*
X16380Y-18712D01*
X16338Y-18753D01*
X16338Y-18670D01*
X16297Y-18612D01*
X16217Y-18571D01*
X16131Y-18547D01*
X16042Y-18540D01*
X15952Y-18550D01*
X15867Y-18578D01*
X15803Y-18612D01*
X15762Y-18670D01*
X16050Y-18959D01*
X16338Y-18670D01*
X16338Y-18753D01*
X16091Y-19000D01*
X16380Y-19288D01*
X16438Y-19247D01*
X16445Y-19233D01*
X16445Y-20004D01*
X16445Y-20005D01*
X16447Y-20030D01*
X16455Y-20055D01*
X16462Y-20069D01*
X16466Y-20076D01*
X16467Y-20077D01*
X16482Y-20096D01*
X16483Y-20097D01*
X16772Y-20386D01*
X16773Y-20387D01*
X16792Y-20403D01*
X16814Y-20414D01*
X16815Y-20415D01*
X16831Y-20419D01*
X16838Y-20422D01*
X16839Y-20422D01*
X16863Y-20425D01*
X16865Y-20425D01*
X18421Y-20425D01*
X18249Y-20597D01*
X18248Y-20598D01*
X18232Y-20617D01*
X18221Y-20639D01*
X18220Y-20641D01*
X18217Y-20649D01*
X18213Y-20663D01*
X18210Y-20688D01*
X18210Y-20690D01*
X18210Y-21816D01*
X17758Y-22268D01*
X16553Y-22268D01*
X16552Y-22268D01*
X16527Y-22270D01*
X16502Y-22278D01*
X16480Y-22290D01*
X16465Y-22302D01*
X16461Y-22305D01*
X16460Y-22305D01*
X16460Y-22306D01*
X16454Y-22312D01*
X16228Y-22537D01*
X16225Y-22535D01*
X16140Y-22499D01*
X16049Y-22480D01*
X15957Y-22480D01*
X15867Y-22497D01*
X15781Y-22531D01*
X15704Y-22582D01*
X15638Y-22646D01*
X15586Y-22722D01*
X15550Y-22807D01*
X15531Y-22897D01*
X15529Y-22989D01*
X15546Y-23080D01*
X15580Y-23166D01*
X15630Y-23243D01*
X15694Y-23310D01*
X15770Y-23362D01*
X15854Y-23399D01*
X15944Y-23419D01*
X16036Y-23421D01*
X16127Y-23405D01*
X16213Y-23372D01*
X16291Y-23322D01*
X16357Y-23259D01*
X16411Y-23183D01*
X16448Y-23099D01*
X16469Y-23009D01*
X16470Y-22904D01*
X16452Y-22814D01*
X16417Y-22728D01*
X16412Y-22721D01*
X16605Y-22528D01*
X17338Y-22528D01*
X17228Y-22637D01*
X17225Y-22635D01*
X17140Y-22599D01*
X17049Y-22580D01*
X16957Y-22580D01*
X16867Y-22597D01*
X16781Y-22631D01*
X16704Y-22682D01*
X16638Y-22746D01*
X16586Y-22822D01*
X16550Y-22907D01*
X16531Y-22997D01*
X16529Y-23089D01*
X16546Y-23180D01*
X16580Y-23266D01*
X16630Y-23343D01*
X16694Y-23410D01*
X16770Y-23462D01*
X16854Y-23499D01*
X16944Y-23519D01*
X17036Y-23521D01*
X17127Y-23505D01*
X17213Y-23472D01*
X17291Y-23422D01*
X17357Y-23359D01*
X17411Y-23283D01*
X17448Y-23199D01*
X17469Y-23109D01*
X17470Y-23004D01*
X17452Y-22914D01*
X17417Y-22828D01*
X17412Y-22821D01*
X17584Y-22650D01*
X17677Y-22650D01*
X17638Y-22688D01*
X17586Y-22764D01*
X17550Y-22849D01*
X17531Y-22939D01*
X17529Y-23031D01*
X17546Y-23122D01*
X17580Y-23208D01*
X17630Y-23285D01*
X17694Y-23352D01*
X17770Y-23404D01*
X17854Y-23441D01*
X17944Y-23461D01*
X18036Y-23463D01*
X18127Y-23447D01*
X18213Y-23414D01*
X18291Y-23364D01*
X18357Y-23301D01*
X18411Y-23225D01*
X18448Y-23141D01*
X18469Y-23051D01*
X18470Y-22946D01*
X18452Y-22856D01*
X18417Y-22770D01*
X18366Y-22694D01*
X18301Y-22628D01*
X18225Y-22577D01*
X18205Y-22568D01*
X18756Y-22018D01*
X18757Y-22017D01*
X18772Y-21998D01*
X18773Y-21998D01*
X18784Y-21976D01*
X18785Y-21975D01*
X18789Y-21959D01*
X18792Y-21952D01*
X18792Y-21951D01*
X18795Y-21927D01*
X18795Y-21925D01*
X18795Y-21229D01*
X18803Y-21231D01*
X18822Y-21231D01*
X18840Y-21231D01*
X18840Y-22488D01*
X18840Y-22490D01*
X18840Y-22607D01*
X18781Y-22631D01*
X18704Y-22682D01*
X18638Y-22746D01*
X18586Y-22822D01*
X18550Y-22907D01*
X18531Y-22997D01*
X18529Y-23089D01*
X18546Y-23180D01*
X18580Y-23266D01*
X18630Y-23343D01*
X18694Y-23410D01*
X18770Y-23462D01*
X18854Y-23499D01*
X18944Y-23519D01*
X19036Y-23521D01*
X19127Y-23505D01*
X19213Y-23472D01*
X19291Y-23422D01*
X19357Y-23359D01*
X19411Y-23283D01*
X19448Y-23199D01*
X19469Y-23109D01*
X19470Y-23004D01*
X19452Y-22914D01*
X19417Y-22828D01*
X19366Y-22752D01*
X19301Y-22686D01*
X19225Y-22635D01*
X19140Y-22599D01*
X19100Y-22590D01*
X19100Y-22492D01*
X19100Y-22490D01*
X19100Y-21231D01*
X19413Y-21231D01*
X19432Y-21227D01*
X19450Y-21220D01*
X19467Y-21209D01*
X19481Y-21195D01*
X19491Y-21179D01*
X19499Y-21161D01*
X19503Y-21141D01*
X19503Y-21122D01*
X19503Y-21023D01*
X19499Y-21004D01*
X19492Y-20986D01*
X19490Y-20983D01*
X19491Y-20982D01*
X19499Y-20964D01*
X19503Y-20944D01*
X19503Y-20925D01*
X19503Y-20826D01*
X19499Y-20807D01*
X19492Y-20789D01*
X19490Y-20786D01*
X19491Y-20785D01*
X19499Y-20767D01*
X19503Y-20747D01*
X19503Y-20728D01*
X19503Y-20629D01*
X19499Y-20610D01*
X19492Y-20592D01*
X19490Y-20589D01*
X19491Y-20589D01*
X19499Y-20571D01*
X19503Y-20551D01*
X19503Y-20532D01*
X19503Y-20433D01*
X19499Y-20414D01*
X19492Y-20396D01*
X19490Y-20393D01*
X19491Y-20392D01*
X19499Y-20374D01*
X19503Y-20354D01*
X19503Y-20335D01*
X19503Y-20236D01*
X19499Y-20217D01*
X19492Y-20199D01*
X19490Y-20196D01*
X19491Y-20195D01*
X19499Y-20177D01*
X19503Y-20157D01*
X19503Y-20138D01*
X19503Y-20039D01*
X19499Y-20020D01*
X19492Y-20002D01*
X19490Y-19999D01*
X19491Y-19999D01*
X19499Y-19981D01*
X19503Y-19961D01*
X19503Y-19942D01*
X19503Y-19843D01*
X19499Y-19824D01*
X19492Y-19806D01*
X19490Y-19803D01*
X19491Y-19802D01*
X19499Y-19784D01*
X19503Y-19764D01*
X19503Y-19745D01*
X19503Y-19646D01*
X19499Y-19627D01*
X19492Y-19609D01*
X19490Y-19606D01*
X19491Y-19605D01*
X19499Y-19587D01*
X19503Y-19567D01*
X19503Y-19548D01*
X19503Y-19449D01*
X19499Y-19430D01*
X19492Y-19412D01*
X19490Y-19409D01*
X19491Y-19409D01*
X19499Y-19391D01*
X19503Y-19371D01*
X19503Y-19352D01*
X19503Y-19253D01*
X19499Y-19234D01*
X19492Y-19216D01*
X19490Y-19213D01*
X19491Y-19212D01*
X19499Y-19194D01*
X19502Y-19176D01*
X19597Y-19271D01*
X19598Y-19272D01*
X19617Y-19288D01*
X19639Y-19299D01*
X19640Y-19300D01*
X19656Y-19304D01*
X19663Y-19307D01*
X19664Y-19307D01*
X19688Y-19310D01*
X19690Y-19310D01*
X20516Y-19310D01*
X20544Y-19339D01*
X20578Y-19362D01*
X20615Y-19379D01*
X20655Y-19387D01*
X20696Y-19388D01*
X20736Y-19381D01*
X20774Y-19367D01*
X20808Y-19345D01*
X20838Y-19317D01*
X20861Y-19284D01*
X20878Y-19246D01*
X20887Y-19207D01*
X20888Y-19160D01*
X20880Y-19120D01*
X20865Y-19082D01*
X20842Y-19048D01*
X20813Y-19019D01*
X20780Y-18996D01*
X20742Y-18981D01*
X20702Y-18972D01*
X20661Y-18972D01*
X20621Y-18979D01*
X20584Y-18995D01*
X20549Y-19017D01*
X20520Y-19045D01*
X20516Y-19050D01*
X19744Y-19050D01*
X19694Y-19000D01*
X19694Y-18669D01*
X19694Y-18337D01*
X19603Y-18337D01*
X19581Y-18359D01*
X19581Y-18612D01*
X19584Y-18629D01*
X19591Y-18645D01*
X19601Y-18659D01*
X19613Y-18671D01*
X19627Y-18681D01*
X19643Y-18688D01*
X19660Y-18691D01*
X19672Y-18691D01*
X19694Y-18669D01*
X19694Y-19000D01*
X19521Y-18827D01*
X19520Y-18826D01*
X19501Y-18810D01*
X19479Y-18799D01*
X19477Y-18798D01*
X19473Y-18797D01*
X19472Y-18796D01*
X19467Y-18791D01*
X19451Y-18781D01*
X19433Y-18773D01*
X19413Y-18769D01*
X19394Y-18769D01*
X19313Y-18769D01*
X19313Y-18634D01*
X19313Y-18551D01*
X19291Y-18529D01*
X19029Y-18529D01*
X19029Y-18691D01*
X19051Y-18713D01*
X19217Y-18713D01*
X19234Y-18713D01*
X19251Y-18710D01*
X19267Y-18703D01*
X19281Y-18693D01*
X19293Y-18681D01*
X19303Y-18667D01*
X19310Y-18651D01*
X19313Y-18634D01*
X19313Y-18769D01*
X18803Y-18769D01*
X18784Y-18773D01*
X18766Y-18780D01*
X18749Y-18791D01*
X18735Y-18805D01*
X18725Y-18821D01*
X18717Y-18839D01*
X18713Y-18859D01*
X18713Y-18878D01*
X18713Y-18956D01*
X18606Y-18956D01*
X18606Y-18919D01*
X18606Y-18917D01*
X18603Y-18888D01*
X18603Y-18886D01*
X18598Y-18870D01*
X18595Y-18858D01*
X18594Y-18856D01*
X18592Y-18852D01*
X18580Y-18830D01*
X18579Y-18829D01*
X18561Y-18806D01*
X18560Y-18805D01*
X18559Y-18804D01*
X18467Y-18713D01*
X18617Y-18713D01*
X18634Y-18713D01*
X18651Y-18710D01*
X18667Y-18703D01*
X18681Y-18693D01*
X18693Y-18681D01*
X18700Y-18671D01*
X18707Y-18681D01*
X18719Y-18693D01*
X18733Y-18703D01*
X18749Y-18710D01*
X18766Y-18713D01*
X18783Y-18713D01*
X18949Y-18713D01*
X18971Y-18691D01*
X18971Y-18529D01*
X18709Y-18529D01*
X18700Y-18538D01*
X18691Y-18529D01*
X18459Y-18529D01*
X18429Y-18529D01*
X18371Y-18529D01*
X18371Y-18471D01*
X18371Y-18309D01*
X18349Y-18287D01*
X18183Y-18287D01*
X18166Y-18287D01*
X18149Y-18290D01*
X18133Y-18297D01*
X18119Y-18307D01*
X18107Y-18319D01*
X18097Y-18333D01*
X18090Y-18349D01*
X18087Y-18366D01*
X18087Y-18449D01*
X18109Y-18471D01*
X18371Y-18471D01*
X18371Y-18529D01*
X18341Y-18529D01*
X18109Y-18529D01*
X18087Y-18551D01*
X18087Y-18634D01*
X18090Y-18651D01*
X18075Y-18651D01*
X18025Y-18600D01*
X18025Y-18365D01*
X18021Y-18346D01*
X18014Y-18328D01*
X18003Y-18311D01*
X17992Y-18300D01*
X18003Y-18289D01*
X18013Y-18273D01*
X18021Y-18255D01*
X18025Y-18235D01*
X18025Y-18216D01*
X18025Y-18059D01*
X18080Y-18059D01*
X18086Y-18072D01*
X18097Y-18089D01*
X18111Y-18103D01*
X18127Y-18113D01*
X18145Y-18121D01*
X18165Y-18125D01*
X18184Y-18125D01*
X18470Y-18125D01*
X18605Y-18260D01*
X18606Y-18261D01*
X18607Y-18262D01*
X18630Y-18281D01*
X18631Y-18282D01*
X18643Y-18288D01*
X18634Y-18287D01*
X18617Y-18287D01*
X18451Y-18287D01*
X18429Y-18309D01*
X18429Y-18471D01*
X18691Y-18471D01*
X18700Y-18462D01*
X18709Y-18471D01*
X18941Y-18471D01*
X18971Y-18471D01*
X19029Y-18471D01*
X19059Y-18471D01*
X19291Y-18471D01*
X19313Y-18449D01*
X19313Y-18366D01*
X19310Y-18349D01*
X19303Y-18333D01*
X19293Y-18319D01*
X19283Y-18309D01*
X19338Y-18309D01*
X19340Y-18309D01*
X19369Y-18306D01*
X19371Y-18306D01*
X19387Y-18301D01*
X19399Y-18298D01*
X19401Y-18297D01*
X19427Y-18284D01*
X19428Y-18282D01*
X19451Y-18264D01*
X19451Y-18263D01*
X19452Y-18263D01*
X19452Y-18262D01*
X19456Y-18257D01*
X19581Y-18133D01*
X19581Y-18257D01*
X19603Y-18279D01*
X19659Y-18279D01*
X19694Y-18279D01*
X19742Y-18279D01*
X19747Y-18279D01*
X19747Y-18337D01*
X19742Y-18337D01*
X19742Y-18669D01*
X19764Y-18691D01*
X19776Y-18691D01*
X19793Y-18688D01*
X19804Y-18682D01*
X19818Y-18691D01*
X19836Y-18699D01*
X19856Y-18703D01*
X19875Y-18703D01*
X19974Y-18703D01*
X19993Y-18699D01*
X20011Y-18692D01*
X20013Y-18690D01*
X20015Y-18691D01*
X20033Y-18699D01*
X20053Y-18703D01*
X20072Y-18703D01*
X20171Y-18703D01*
X20190Y-18699D01*
X20208Y-18692D01*
X20210Y-18690D01*
X20211Y-18691D01*
X20229Y-18699D01*
X20249Y-18703D01*
X20268Y-18703D01*
X20367Y-18703D01*
X20386Y-18699D01*
X20404Y-18692D01*
X20406Y-18690D01*
X20408Y-18691D01*
X20426Y-18699D01*
X20446Y-18703D01*
X20465Y-18703D01*
X20564Y-18703D01*
X20583Y-18699D01*
X20601Y-18692D01*
X20603Y-18690D01*
X20605Y-18691D01*
X20623Y-18699D01*
X20643Y-18703D01*
X20662Y-18703D01*
X20761Y-18703D01*
X20780Y-18699D01*
X20798Y-18692D01*
X20800Y-18690D01*
X20801Y-18691D01*
X20819Y-18699D01*
X20839Y-18703D01*
X20858Y-18703D01*
X20957Y-18703D01*
X20976Y-18699D01*
X20994Y-18692D01*
X20996Y-18690D01*
X20998Y-18691D01*
X21016Y-18699D01*
X21036Y-18703D01*
X21055Y-18703D01*
X21154Y-18703D01*
X21173Y-18699D01*
X21191Y-18692D01*
X21193Y-18690D01*
X21195Y-18691D01*
X21213Y-18699D01*
X21233Y-18703D01*
X21252Y-18703D01*
X21351Y-18703D01*
X21370Y-18699D01*
X21382Y-18693D01*
X21395Y-18709D01*
X21396Y-18710D01*
X21605Y-18918D01*
X21609Y-18923D01*
X21610Y-18923D01*
X21618Y-18930D01*
X21629Y-18940D01*
X21651Y-18951D01*
X21652Y-18952D01*
X21668Y-18956D01*
X21675Y-18959D01*
X21676Y-18959D01*
X21700Y-18962D01*
X21702Y-18962D01*
X22029Y-18962D01*
X22030Y-18962D01*
X22055Y-18960D01*
X22078Y-18952D01*
X22080Y-18952D01*
X22094Y-18944D01*
X22097Y-18942D01*
X22097Y-18977D01*
X22101Y-18996D01*
X22108Y-19014D01*
X22117Y-19028D01*
X22112Y-19040D01*
X22109Y-19057D01*
X22109Y-19069D01*
X22131Y-19091D01*
X22463Y-19091D01*
X22463Y-19086D01*
X22521Y-19086D01*
X22521Y-19091D01*
X22521Y-19139D01*
X22521Y-19144D01*
X22463Y-19144D01*
X22463Y-19139D01*
X22131Y-19139D01*
X22109Y-19161D01*
X22109Y-19173D01*
X22112Y-19190D01*
X22117Y-19201D01*
X22109Y-19215D01*
X22101Y-19233D01*
X22097Y-19253D01*
X22097Y-19272D01*
X22097Y-19371D01*
X22101Y-19390D01*
X22108Y-19408D01*
X22109Y-19410D01*
X22109Y-19411D01*
X22101Y-19429D01*
X22097Y-19449D01*
X22097Y-19468D01*
X22097Y-19567D01*
X22101Y-19586D01*
X22108Y-19604D01*
X22109Y-19606D01*
X22109Y-19608D01*
X22101Y-19626D01*
X22097Y-19646D01*
X22097Y-19665D01*
X22097Y-19764D01*
X22101Y-19783D01*
X22108Y-19801D01*
X22109Y-19803D01*
X22109Y-19805D01*
X22101Y-19823D01*
X22097Y-19843D01*
X22097Y-19862D01*
X22097Y-19961D01*
X22101Y-19980D01*
X22108Y-19998D01*
X22109Y-20000D01*
X22109Y-20001D01*
X22101Y-20019D01*
X22097Y-20039D01*
X22097Y-20058D01*
X22097Y-20157D01*
X22101Y-20176D01*
X22108Y-20194D01*
X22109Y-20196D01*
X22109Y-20198D01*
X22101Y-20216D01*
X22097Y-20236D01*
X22097Y-20255D01*
X22097Y-20354D01*
X22101Y-20373D01*
X22108Y-20391D01*
X22109Y-20393D01*
X22109Y-20395D01*
X22101Y-20413D01*
X22097Y-20433D01*
X22097Y-20452D01*
X22097Y-20551D01*
X22101Y-20570D01*
X22108Y-20588D01*
X22109Y-20590D01*
X22109Y-20591D01*
X22101Y-20609D01*
X22097Y-20629D01*
X22097Y-20648D01*
X22097Y-20747D01*
X22101Y-20766D01*
X22108Y-20784D01*
X22109Y-20786D01*
X22109Y-20788D01*
X22101Y-20806D01*
X22097Y-20826D01*
X22097Y-20845D01*
X22097Y-20944D01*
X22101Y-20963D01*
X22108Y-20981D01*
X22109Y-20983D01*
X22109Y-20985D01*
X22101Y-21003D01*
X22099Y-21010D01*
X21908Y-20819D01*
X21907Y-20818D01*
X21888Y-20802D01*
X21866Y-20791D01*
X21864Y-20790D01*
X21856Y-20787D01*
X21842Y-20783D01*
X21817Y-20780D01*
X21815Y-20780D01*
X20811Y-20780D01*
X20810Y-20780D01*
X20785Y-20782D01*
X20760Y-20790D01*
X20745Y-20797D01*
X20739Y-20801D01*
X20719Y-20817D01*
X20718Y-20818D01*
X20414Y-21122D01*
X20413Y-21123D01*
X20397Y-21142D01*
X20386Y-21164D01*
X20385Y-21166D01*
X20382Y-21174D01*
X20378Y-21188D01*
X20375Y-21213D01*
X20375Y-21215D01*
X20375Y-21298D01*
X20367Y-21297D01*
X20348Y-21297D01*
X20249Y-21297D01*
X20230Y-21301D01*
X20212Y-21308D01*
X20209Y-21309D01*
X20191Y-21301D01*
X20171Y-21297D01*
X20152Y-21297D01*
X20053Y-21297D01*
X20034Y-21301D01*
X20016Y-21308D01*
X20013Y-21309D01*
X20012Y-21309D01*
X19994Y-21301D01*
X19974Y-21297D01*
X19955Y-21297D01*
X19856Y-21297D01*
X19848Y-21298D01*
X19848Y-20981D01*
X19858Y-20975D01*
X19888Y-20947D01*
X19911Y-20914D01*
X19928Y-20876D01*
X19937Y-20837D01*
X19938Y-20790D01*
X19930Y-20750D01*
X19915Y-20712D01*
X19892Y-20678D01*
X19863Y-20649D01*
X19830Y-20626D01*
X19792Y-20611D01*
X19752Y-20602D01*
X19711Y-20602D01*
X19671Y-20609D01*
X19634Y-20625D01*
X19599Y-20647D01*
X19570Y-20675D01*
X19547Y-20709D01*
X19531Y-20746D01*
X19522Y-20786D01*
X19522Y-20827D01*
X19529Y-20867D01*
X19544Y-20905D01*
X19566Y-20939D01*
X19588Y-20962D01*
X19588Y-21337D01*
X19581Y-21349D01*
X19573Y-21367D01*
X19569Y-21387D01*
X19569Y-21406D01*
X19569Y-21997D01*
X19573Y-22016D01*
X19580Y-22034D01*
X19588Y-22046D01*
X19588Y-22667D01*
X19588Y-22668D01*
X19590Y-22693D01*
X19595Y-22708D01*
X19586Y-22722D01*
X19550Y-22807D01*
X19531Y-22897D01*
X19529Y-22989D01*
X19546Y-23080D01*
X19580Y-23166D01*
X19630Y-23243D01*
X19694Y-23310D01*
X19770Y-23362D01*
X19854Y-23399D01*
X19944Y-23419D01*
X20036Y-23421D01*
X20127Y-23405D01*
X20213Y-23372D01*
X20291Y-23322D01*
X20357Y-23259D01*
X20411Y-23183D01*
X20448Y-23099D01*
X20469Y-23009D01*
X20470Y-22904D01*
X20452Y-22814D01*
X20417Y-22728D01*
X20366Y-22652D01*
X20301Y-22586D01*
X20225Y-22535D01*
X20140Y-22499D01*
X20049Y-22480D01*
X19957Y-22480D01*
X19867Y-22497D01*
X19848Y-22504D01*
X19848Y-22162D01*
X20101Y-22415D01*
X20102Y-22416D01*
X20121Y-22432D01*
X20143Y-22443D01*
X20144Y-22444D01*
X20160Y-22448D01*
X20167Y-22451D01*
X20168Y-22451D01*
X20192Y-22454D01*
X20194Y-22454D01*
X20810Y-22454D01*
X20870Y-22514D01*
X20870Y-22596D01*
X20867Y-22597D01*
X20781Y-22631D01*
X20704Y-22682D01*
X20638Y-22746D01*
X20586Y-22822D01*
X20550Y-22907D01*
X20531Y-22997D01*
X20529Y-23089D01*
X20546Y-23180D01*
X20580Y-23266D01*
X20630Y-23343D01*
X20694Y-23410D01*
X20770Y-23462D01*
X20854Y-23499D01*
X20944Y-23519D01*
X21036Y-23521D01*
X21127Y-23505D01*
X21213Y-23472D01*
X21291Y-23422D01*
X21357Y-23359D01*
X21411Y-23283D01*
X21448Y-23199D01*
X21469Y-23109D01*
X21470Y-23004D01*
X21452Y-22914D01*
X21449Y-22907D01*
X21532Y-22990D01*
X21531Y-22997D01*
X21529Y-23089D01*
X21546Y-23180D01*
X21580Y-23266D01*
X21630Y-23343D01*
X21694Y-23410D01*
X21770Y-23462D01*
X21854Y-23499D01*
X21944Y-23519D01*
X22036Y-23521D01*
X22127Y-23505D01*
X22213Y-23472D01*
X22291Y-23422D01*
X22357Y-23359D01*
X22411Y-23283D01*
X22448Y-23199D01*
X22469Y-23109D01*
X22470Y-23004D01*
X22452Y-22914D01*
X22417Y-22828D01*
X22366Y-22752D01*
X22324Y-22710D01*
X22476Y-22710D01*
X22586Y-22820D01*
X22586Y-22822D01*
X22550Y-22907D01*
X22531Y-22997D01*
X22529Y-23089D01*
X22546Y-23180D01*
X22580Y-23266D01*
X22630Y-23343D01*
X22694Y-23410D01*
X22770Y-23462D01*
X22854Y-23499D01*
X22944Y-23519D01*
X23036Y-23521D01*
X23127Y-23505D01*
X23213Y-23472D01*
X23291Y-23422D01*
X23357Y-23359D01*
X23411Y-23283D01*
X23448Y-23199D01*
X23469Y-23109D01*
X23470Y-23004D01*
X23452Y-22914D01*
X23417Y-22828D01*
X23366Y-22752D01*
X23301Y-22686D01*
X23225Y-22635D01*
X23140Y-22599D01*
X23087Y-22588D01*
X23454Y-22588D01*
X23586Y-22720D01*
X23586Y-22722D01*
X23550Y-22807D01*
X23531Y-22897D01*
X23529Y-22989D01*
X23546Y-23080D01*
X23580Y-23166D01*
X23630Y-23243D01*
X23694Y-23310D01*
X23770Y-23362D01*
X23854Y-23399D01*
X23944Y-23419D01*
X24036Y-23421D01*
X24127Y-23405D01*
X24213Y-23372D01*
X24291Y-23322D01*
X24357Y-23259D01*
X24411Y-23183D01*
X24448Y-23099D01*
X24469Y-23009D01*
X24470Y-22904D01*
X24452Y-22814D01*
X24417Y-22728D01*
X24366Y-22652D01*
X24301Y-22586D01*
X24225Y-22535D01*
X24140Y-22499D01*
X24049Y-22480D01*
X23957Y-22480D01*
X23867Y-22497D01*
X23781Y-22531D01*
X23771Y-22537D01*
X23699Y-22466D01*
X24232Y-22466D01*
X24587Y-22820D01*
X24586Y-22822D01*
X24550Y-22907D01*
X24531Y-22997D01*
X24529Y-23089D01*
X24546Y-23180D01*
X24580Y-23266D01*
X24630Y-23343D01*
X24694Y-23410D01*
X24770Y-23462D01*
X24854Y-23499D01*
X24944Y-23519D01*
X25036Y-23521D01*
X25127Y-23505D01*
X25213Y-23472D01*
X25291Y-23422D01*
X25357Y-23359D01*
X25411Y-23283D01*
X25448Y-23199D01*
X25469Y-23109D01*
X25470Y-23004D01*
X25452Y-22914D01*
X25417Y-22828D01*
X25366Y-22752D01*
X25301Y-22686D01*
X25225Y-22635D01*
X25140Y-22599D01*
X25049Y-22580D01*
X24957Y-22580D01*
X24867Y-22597D01*
X24781Y-22631D01*
X24771Y-22637D01*
X24477Y-22344D01*
X25210Y-22344D01*
X25586Y-22720D01*
X25586Y-22722D01*
X25550Y-22807D01*
X25531Y-22897D01*
X25529Y-22989D01*
X25546Y-23080D01*
X25580Y-23166D01*
X25630Y-23243D01*
X25694Y-23310D01*
X25770Y-23362D01*
X25854Y-23399D01*
X25944Y-23419D01*
X26036Y-23421D01*
X26127Y-23405D01*
X26213Y-23372D01*
X26291Y-23322D01*
X26357Y-23259D01*
X26411Y-23183D01*
X26448Y-23099D01*
X26469Y-23009D01*
X26470Y-22904D01*
X26452Y-22814D01*
X26417Y-22728D01*
X26366Y-22652D01*
X26301Y-22586D01*
X26225Y-22535D01*
X26140Y-22499D01*
X26049Y-22480D01*
X25957Y-22480D01*
X25867Y-22497D01*
X25781Y-22531D01*
X25771Y-22537D01*
X25456Y-22222D01*
X25988Y-22222D01*
X26586Y-22820D01*
X26586Y-22822D01*
X26550Y-22907D01*
X26531Y-22997D01*
X26529Y-23089D01*
X26546Y-23180D01*
X26580Y-23266D01*
X26630Y-23343D01*
X26694Y-23410D01*
X26770Y-23462D01*
X26854Y-23499D01*
X26944Y-23519D01*
X27036Y-23521D01*
X27127Y-23505D01*
X27213Y-23472D01*
X27291Y-23422D01*
X27357Y-23359D01*
X27411Y-23283D01*
X27448Y-23199D01*
X27469Y-23109D01*
X27470Y-23004D01*
X27452Y-22914D01*
X27417Y-22828D01*
X27366Y-22752D01*
X27301Y-22686D01*
X27225Y-22635D01*
X27140Y-22599D01*
X27049Y-22580D01*
X26957Y-22580D01*
X26867Y-22597D01*
X26781Y-22631D01*
X26771Y-22637D01*
X26234Y-22100D01*
X26866Y-22100D01*
X27586Y-22820D01*
X27586Y-22822D01*
X27550Y-22907D01*
X27531Y-22997D01*
X27529Y-23089D01*
X27546Y-23180D01*
X27580Y-23266D01*
X27630Y-23343D01*
X27694Y-23410D01*
X27770Y-23462D01*
X27854Y-23499D01*
X27944Y-23519D01*
X28036Y-23521D01*
X28127Y-23505D01*
X28213Y-23472D01*
X28291Y-23422D01*
X28357Y-23359D01*
X28411Y-23283D01*
X28448Y-23199D01*
X28469Y-23109D01*
X28470Y-23004D01*
X28452Y-22914D01*
X28417Y-22828D01*
X28366Y-22752D01*
X28333Y-22719D01*
X28485Y-22719D01*
X28586Y-22820D01*
X28586Y-22822D01*
X28550Y-22907D01*
X28531Y-22997D01*
X28529Y-23089D01*
X28546Y-23180D01*
X28580Y-23266D01*
X28630Y-23343D01*
X28694Y-23410D01*
X28770Y-23462D01*
X28854Y-23499D01*
X28944Y-23519D01*
X29036Y-23521D01*
X29127Y-23505D01*
X29213Y-23472D01*
X29291Y-23422D01*
X29357Y-23359D01*
X29411Y-23283D01*
X29448Y-23199D01*
X29469Y-23109D01*
X29470Y-23004D01*
X29452Y-22914D01*
X29417Y-22828D01*
X29366Y-22752D01*
X29301Y-22686D01*
X29225Y-22635D01*
X29140Y-22599D01*
X29049Y-22580D01*
X28957Y-22580D01*
X28867Y-22597D01*
X28781Y-22631D01*
X28771Y-22637D01*
X28684Y-22550D01*
X28821Y-22412D01*
X28904Y-22449D01*
X28994Y-22469D01*
X29086Y-22471D01*
X29177Y-22455D01*
X29263Y-22422D01*
X29341Y-22372D01*
X29407Y-22309D01*
X29461Y-22233D01*
X29498Y-22149D01*
X29519Y-22059D01*
X29520Y-21954D01*
X29520Y-23445D01*
X29384Y-23581D01*
X15616Y-23581D01*
X15419Y-23384D01*
X15419Y-22375D01*
X15419Y-22374D01*
X15417Y-22352D01*
X15417Y-22351D01*
X15410Y-22329D01*
X15400Y-22309D01*
X15399Y-22308D01*
X15385Y-22291D01*
X15384Y-22290D01*
X15367Y-22275D01*
X15347Y-22265D01*
X15346Y-22264D01*
X15324Y-22257D01*
X15304Y-22255D01*
X15302Y-22255D01*
X15301Y-22255D01*
X15300Y-22255D01*
X14996Y-22255D01*
X14729Y-21988D01*
X14729Y-21536D01*
X15262Y-21536D01*
X15524Y-21798D01*
X15500Y-21857D01*
X15481Y-21947D01*
X15479Y-22039D01*
X15496Y-22130D01*
X15530Y-22216D01*
X15580Y-22293D01*
X15644Y-22360D01*
X15720Y-22412D01*
X15804Y-22449D01*
X15894Y-22469D01*
X15986Y-22471D01*
X16077Y-22455D01*
X16163Y-22422D01*
X16241Y-22372D01*
X16307Y-22309D01*
X16361Y-22233D01*
X16393Y-22159D01*
X16598Y-22159D01*
X16600Y-22159D01*
X16629Y-22156D01*
X16631Y-22156D01*
X16647Y-22151D01*
X16659Y-22148D01*
X16661Y-22147D01*
X16687Y-22134D01*
X16688Y-22132D01*
X16711Y-22114D01*
X16711Y-22113D01*
X16712Y-22113D01*
X16712Y-22112D01*
X16717Y-22107D01*
X17816Y-21008D01*
X17856Y-21001D01*
X17894Y-20987D01*
X17928Y-20965D01*
X17958Y-20937D01*
X17981Y-20904D01*
X17998Y-20866D01*
X18007Y-20827D01*
X18008Y-20780D01*
X18000Y-20740D01*
X17985Y-20702D01*
X17962Y-20668D01*
X17933Y-20639D01*
X17900Y-20616D01*
X17862Y-20601D01*
X17822Y-20592D01*
X17781Y-20592D01*
X17741Y-20599D01*
X17704Y-20615D01*
X17669Y-20637D01*
X17640Y-20665D01*
X17617Y-20699D01*
X17601Y-20736D01*
X17592Y-20776D01*
X17592Y-20784D01*
X16535Y-21841D01*
X16392Y-21841D01*
X16367Y-21778D01*
X16316Y-21702D01*
X16251Y-21636D01*
X16175Y-21585D01*
X16090Y-21549D01*
X15999Y-21530D01*
X15907Y-21530D01*
X15817Y-21547D01*
X15748Y-21574D01*
X15444Y-21270D01*
X15441Y-21266D01*
X15439Y-21265D01*
X15417Y-21246D01*
X15415Y-21245D01*
X15390Y-21231D01*
X15389Y-21230D01*
X15388Y-21230D01*
X15378Y-21227D01*
X15360Y-21221D01*
X15329Y-21218D01*
X15328Y-21218D01*
X15327Y-21218D01*
X14729Y-21218D01*
X14729Y-20523D01*
X15389Y-20523D01*
X15636Y-20770D01*
X15636Y-20772D01*
X15600Y-20857D01*
X15581Y-20947D01*
X15579Y-21039D01*
X15596Y-21130D01*
X15630Y-21216D01*
X15680Y-21293D01*
X15744Y-21360D01*
X15820Y-21412D01*
X15904Y-21449D01*
X15994Y-21469D01*
X16086Y-21471D01*
X16177Y-21455D01*
X16263Y-21422D01*
X16341Y-21372D01*
X16407Y-21309D01*
X16461Y-21233D01*
X16498Y-21149D01*
X16519Y-21059D01*
X16520Y-20954D01*
X16502Y-20864D01*
X16467Y-20778D01*
X16416Y-20702D01*
X16351Y-20636D01*
X16275Y-20585D01*
X16190Y-20549D01*
X16099Y-20530D01*
X16007Y-20530D01*
X15917Y-20547D01*
X15831Y-20581D01*
X15821Y-20587D01*
X15536Y-20302D01*
X15535Y-20301D01*
X15516Y-20285D01*
X15494Y-20274D01*
X15492Y-20273D01*
X15484Y-20270D01*
X15470Y-20266D01*
X15445Y-20263D01*
X15443Y-20263D01*
X14729Y-20263D01*
X14729Y-19737D01*
X15503Y-19737D01*
X15536Y-19770D01*
X15536Y-19772D01*
X15500Y-19857D01*
X15481Y-19947D01*
X15479Y-20039D01*
X15496Y-20130D01*
X15530Y-20216D01*
X15580Y-20293D01*
X15644Y-20360D01*
X15720Y-20412D01*
X15804Y-20449D01*
X15894Y-20469D01*
X15986Y-20471D01*
X16077Y-20455D01*
X16163Y-20422D01*
X16241Y-20372D01*
X16307Y-20309D01*
X16361Y-20233D01*
X16398Y-20149D01*
X16419Y-20059D01*
X16420Y-19954D01*
X16402Y-19864D01*
X16367Y-19778D01*
X16338Y-19734D01*
X16338Y-19330D01*
X16050Y-19041D01*
X16009Y-19082D01*
X16009Y-19000D01*
X15720Y-18712D01*
X15662Y-18753D01*
X15621Y-18833D01*
X15597Y-18919D01*
X15590Y-19008D01*
X15600Y-19098D01*
X15628Y-19183D01*
X15662Y-19247D01*
X15720Y-19288D01*
X16009Y-19000D01*
X16009Y-19082D01*
X15762Y-19330D01*
X15803Y-19388D01*
X15883Y-19429D01*
X15969Y-19453D01*
X16058Y-19460D01*
X16148Y-19450D01*
X16233Y-19422D01*
X16297Y-19388D01*
X16338Y-19330D01*
X16338Y-19734D01*
X16316Y-19702D01*
X16251Y-19636D01*
X16175Y-19585D01*
X16090Y-19549D01*
X15999Y-19530D01*
X15907Y-19530D01*
X15817Y-19547D01*
X15731Y-19581D01*
X15721Y-19587D01*
X15650Y-19516D01*
X15649Y-19515D01*
X15630Y-19499D01*
X15608Y-19488D01*
X15606Y-19487D01*
X15598Y-19484D01*
X15584Y-19480D01*
X15559Y-19477D01*
X15557Y-19477D01*
X14729Y-19477D01*
X14729Y-18012D01*
X14992Y-17749D01*
X15299Y-17749D01*
X15300Y-17749D01*
X15322Y-17747D01*
X15323Y-17747D01*
X15345Y-17740D01*
X15365Y-17730D01*
X15366Y-17729D01*
X15383Y-17715D01*
X15383Y-17714D01*
X15384Y-17714D01*
X15398Y-17697D01*
X15399Y-17697D01*
X15409Y-17677D01*
X15410Y-17676D01*
X15416Y-17655D01*
X15417Y-17654D01*
X15418Y-17634D01*
X15419Y-17632D01*
X15419Y-17631D01*
X15419Y-17630D01*
X15419Y-16616D01*
X15616Y-16419D01*
X29384Y-16419D01*
X29581Y-16616D01*
X29581Y-23384D01*
X29581Y-23384D01*
G37*
G54D24*
X29581Y-23384D02*
X29520Y-23445D01*
X29520Y-21954D01*
X29502Y-21864D01*
X29467Y-21778D01*
X29416Y-21702D01*
X29351Y-21636D01*
X29275Y-21585D01*
X29190Y-21549D01*
X29099Y-21530D01*
X29007Y-21530D01*
X28917Y-21547D01*
X28831Y-21581D01*
X28754Y-21632D01*
X28688Y-21696D01*
X28636Y-21772D01*
X28600Y-21857D01*
X28581Y-21947D01*
X28579Y-22039D01*
X28596Y-22130D01*
X28630Y-22216D01*
X28637Y-22228D01*
X28529Y-22337D01*
X28377Y-22337D01*
X28407Y-22309D01*
X28461Y-22233D01*
X28498Y-22149D01*
X28519Y-22059D01*
X28520Y-21954D01*
X28502Y-21864D01*
X28467Y-21778D01*
X28416Y-21702D01*
X28351Y-21636D01*
X28342Y-21630D01*
X28449Y-21630D01*
X28450Y-21630D01*
X28475Y-21628D01*
X28498Y-21620D01*
X28500Y-21620D01*
X28514Y-21612D01*
X28521Y-21609D01*
X28522Y-21608D01*
X28541Y-21593D01*
X28542Y-21592D01*
X28721Y-21412D01*
X28804Y-21449D01*
X28894Y-21469D01*
X28986Y-21471D01*
X29077Y-21455D01*
X29163Y-21422D01*
X29241Y-21372D01*
X29307Y-21309D01*
X29361Y-21233D01*
X29398Y-21149D01*
X29419Y-21059D01*
X29420Y-20954D01*
X29402Y-20864D01*
X29367Y-20778D01*
X29316Y-20702D01*
X29251Y-20636D01*
X29175Y-20585D01*
X29090Y-20549D01*
X28999Y-20530D01*
X28907Y-20530D01*
X28817Y-20547D01*
X28731Y-20581D01*
X28654Y-20632D01*
X28588Y-20696D01*
X28536Y-20772D01*
X28500Y-20857D01*
X28481Y-20947D01*
X28479Y-21039D01*
X28496Y-21130D01*
X28530Y-21216D01*
X28537Y-21228D01*
X28396Y-21370D01*
X28243Y-21370D01*
X28307Y-21309D01*
X28361Y-21233D01*
X28398Y-21149D01*
X28419Y-21059D01*
X28420Y-20954D01*
X28402Y-20864D01*
X28367Y-20778D01*
X28316Y-20702D01*
X28251Y-20636D01*
X28242Y-20630D01*
X28549Y-20630D01*
X28550Y-20630D01*
X28575Y-20628D01*
X28598Y-20620D01*
X28600Y-20620D01*
X28614Y-20612D01*
X28621Y-20609D01*
X28622Y-20608D01*
X28641Y-20593D01*
X28642Y-20592D01*
X28821Y-20412D01*
X28904Y-20449D01*
X28994Y-20469D01*
X29086Y-20471D01*
X29177Y-20455D01*
X29263Y-20422D01*
X29341Y-20372D01*
X29407Y-20309D01*
X29461Y-20233D01*
X29498Y-20149D01*
X29519Y-20059D01*
X29520Y-19954D01*
X29502Y-19864D01*
X29467Y-19778D01*
X29416Y-19702D01*
X29351Y-19636D01*
X29275Y-19585D01*
X29190Y-19549D01*
X29099Y-19530D01*
X29007Y-19530D01*
X28917Y-19547D01*
X28831Y-19581D01*
X28754Y-19632D01*
X28688Y-19696D01*
X28636Y-19772D01*
X28600Y-19857D01*
X28581Y-19947D01*
X28579Y-20039D01*
X28596Y-20130D01*
X28630Y-20216D01*
X28637Y-20228D01*
X28496Y-20370D01*
X28343Y-20370D01*
X28407Y-20309D01*
X28461Y-20233D01*
X28498Y-20149D01*
X28519Y-20059D01*
X28520Y-19954D01*
X28502Y-19864D01*
X28467Y-19778D01*
X28416Y-19702D01*
X28351Y-19636D01*
X28342Y-19630D01*
X28449Y-19630D01*
X28450Y-19630D01*
X28475Y-19628D01*
X28498Y-19620D01*
X28500Y-19620D01*
X28514Y-19612D01*
X28521Y-19609D01*
X28522Y-19608D01*
X28541Y-19593D01*
X28542Y-19592D01*
X28721Y-19412D01*
X28804Y-19449D01*
X28894Y-19469D01*
X28986Y-19471D01*
X29077Y-19455D01*
X29163Y-19422D01*
X29241Y-19372D01*
X29307Y-19309D01*
X29361Y-19233D01*
X29398Y-19149D01*
X29419Y-19059D01*
X29420Y-18954D01*
X29402Y-18864D01*
X29367Y-18778D01*
X29316Y-18702D01*
X29251Y-18636D01*
X29175Y-18585D01*
X29090Y-18549D01*
X28999Y-18530D01*
X28907Y-18530D01*
X28817Y-18547D01*
X28731Y-18581D01*
X28654Y-18632D01*
X28588Y-18696D01*
X28536Y-18772D01*
X28500Y-18857D01*
X28481Y-18947D01*
X28479Y-19039D01*
X28496Y-19130D01*
X28530Y-19216D01*
X28537Y-19228D01*
X28410Y-19355D01*
X28410Y-18992D01*
X28400Y-18902D01*
X28372Y-18817D01*
X28338Y-18753D01*
X28280Y-18712D01*
X27991Y-19000D01*
X28280Y-19288D01*
X28338Y-19247D01*
X28379Y-19167D01*
X28403Y-19081D01*
X28410Y-18992D01*
X28410Y-19355D01*
X28396Y-19370D01*
X28209Y-19370D01*
X28238Y-19330D01*
X27950Y-19041D01*
X27662Y-19330D01*
X27703Y-19388D01*
X27733Y-19403D01*
X27733Y-19404D01*
X27729Y-19407D01*
X27728Y-19407D01*
X27728Y-19408D01*
X27722Y-19414D01*
X27168Y-19968D01*
X27026Y-19968D01*
X27431Y-19563D01*
X27447Y-19543D01*
X27448Y-19543D01*
X27459Y-19521D01*
X27460Y-19520D01*
X27464Y-19504D01*
X27467Y-19497D01*
X27467Y-19496D01*
X27470Y-19472D01*
X27470Y-19470D01*
X27470Y-18934D01*
X27501Y-18902D01*
X27497Y-18919D01*
X27490Y-19008D01*
X27500Y-19098D01*
X27528Y-19183D01*
X27562Y-19247D01*
X27620Y-19288D01*
X27887Y-19020D01*
X27888Y-19021D01*
X27909Y-19000D01*
X27950Y-18959D01*
X27971Y-18938D01*
X27970Y-18937D01*
X28238Y-18670D01*
X28209Y-18630D01*
X28549Y-18630D01*
X28550Y-18630D01*
X28575Y-18628D01*
X28598Y-18620D01*
X28600Y-18620D01*
X28614Y-18612D01*
X28621Y-18609D01*
X28622Y-18608D01*
X28641Y-18593D01*
X28642Y-18592D01*
X28821Y-18412D01*
X28904Y-18449D01*
X28994Y-18469D01*
X29086Y-18471D01*
X29177Y-18455D01*
X29263Y-18422D01*
X29341Y-18372D01*
X29407Y-18309D01*
X29461Y-18233D01*
X29498Y-18149D01*
X29519Y-18059D01*
X29520Y-17954D01*
X29502Y-17864D01*
X29467Y-17778D01*
X29416Y-17702D01*
X29351Y-17636D01*
X29275Y-17585D01*
X29190Y-17549D01*
X29099Y-17530D01*
X29007Y-17530D01*
X28917Y-17547D01*
X28831Y-17581D01*
X28754Y-17632D01*
X28688Y-17696D01*
X28636Y-17772D01*
X28600Y-17857D01*
X28581Y-17947D01*
X28579Y-18039D01*
X28596Y-18130D01*
X28630Y-18216D01*
X28637Y-18228D01*
X28496Y-18370D01*
X28343Y-18370D01*
X28407Y-18309D01*
X28461Y-18233D01*
X28498Y-18149D01*
X28519Y-18059D01*
X28520Y-17954D01*
X28502Y-17864D01*
X28475Y-17798D01*
X28799Y-17475D01*
X28854Y-17499D01*
X28944Y-17519D01*
X29036Y-17521D01*
X29127Y-17505D01*
X29213Y-17472D01*
X29291Y-17422D01*
X29357Y-17359D01*
X29411Y-17283D01*
X29448Y-17199D01*
X29469Y-17109D01*
X29470Y-17004D01*
X29452Y-16914D01*
X29417Y-16828D01*
X29366Y-16752D01*
X29301Y-16686D01*
X29225Y-16635D01*
X29140Y-16599D01*
X29049Y-16580D01*
X28957Y-16580D01*
X28867Y-16597D01*
X28781Y-16631D01*
X28704Y-16682D01*
X28638Y-16746D01*
X28586Y-16822D01*
X28550Y-16907D01*
X28531Y-16997D01*
X28529Y-17089D01*
X28546Y-17180D01*
X28574Y-17251D01*
X28460Y-17364D01*
X28460Y-16942D01*
X28450Y-16852D01*
X28422Y-16767D01*
X28388Y-16703D01*
X28330Y-16662D01*
X28288Y-16703D01*
X28288Y-16620D01*
X28247Y-16562D01*
X28167Y-16521D01*
X28081Y-16497D01*
X27992Y-16490D01*
X27902Y-16500D01*
X27817Y-16528D01*
X27753Y-16562D01*
X27712Y-16620D01*
X28000Y-16909D01*
X28288Y-16620D01*
X28288Y-16703D01*
X28041Y-16950D01*
X28330Y-17238D01*
X28388Y-17197D01*
X28429Y-17117D01*
X28453Y-17031D01*
X28460Y-16942D01*
X28460Y-17364D01*
X28288Y-17536D01*
X28288Y-17280D01*
X28000Y-16991D01*
X27959Y-17032D01*
X27959Y-16950D01*
X27670Y-16662D01*
X27612Y-16703D01*
X27571Y-16783D01*
X27547Y-16869D01*
X27540Y-16958D01*
X27550Y-17048D01*
X27578Y-17133D01*
X27612Y-17197D01*
X27670Y-17238D01*
X27959Y-16950D01*
X27959Y-17032D01*
X27712Y-17280D01*
X27753Y-17338D01*
X27833Y-17379D01*
X27919Y-17403D01*
X28008Y-17410D01*
X28098Y-17400D01*
X28183Y-17372D01*
X28247Y-17338D01*
X28288Y-17280D01*
X28288Y-17536D01*
X28250Y-17574D01*
X28190Y-17549D01*
X28099Y-17530D01*
X28007Y-17530D01*
X27917Y-17547D01*
X27831Y-17581D01*
X27754Y-17632D01*
X27688Y-17696D01*
X27636Y-17772D01*
X27600Y-17857D01*
X27581Y-17947D01*
X27579Y-18039D01*
X27596Y-18130D01*
X27630Y-18216D01*
X27680Y-18293D01*
X27744Y-18360D01*
X27758Y-18370D01*
X27721Y-18370D01*
X27720Y-18370D01*
X27695Y-18372D01*
X27670Y-18380D01*
X27655Y-18387D01*
X27649Y-18391D01*
X27629Y-18407D01*
X27628Y-18408D01*
X27249Y-18787D01*
X27248Y-18788D01*
X27232Y-18807D01*
X27221Y-18829D01*
X27220Y-18831D01*
X27217Y-18839D01*
X27213Y-18853D01*
X27210Y-18878D01*
X27210Y-18880D01*
X27210Y-19416D01*
X27002Y-19624D01*
X27002Y-18921D01*
X27002Y-18511D01*
X27002Y-18409D01*
X27002Y-17999D01*
X26999Y-17982D01*
X26992Y-17966D01*
X26982Y-17952D01*
X26970Y-17940D01*
X26956Y-17930D01*
X26940Y-17923D01*
X26923Y-17920D01*
X26906Y-17920D01*
X26651Y-17920D01*
X26629Y-17942D01*
X26629Y-18431D01*
X26980Y-18431D01*
X27002Y-18409D01*
X27002Y-18511D01*
X26980Y-18489D01*
X26629Y-18489D01*
X26629Y-18978D01*
X26651Y-19000D01*
X26906Y-19000D01*
X26923Y-19000D01*
X26940Y-18997D01*
X26956Y-18990D01*
X26970Y-18980D01*
X26982Y-18968D01*
X26992Y-18954D01*
X26999Y-18938D01*
X27002Y-18921D01*
X27002Y-19624D01*
X26854Y-19772D01*
X26571Y-19772D01*
X26571Y-18978D01*
X26571Y-18489D01*
X26220Y-18489D01*
X26198Y-18511D01*
X26198Y-18921D01*
X26201Y-18938D01*
X26208Y-18954D01*
X26218Y-18968D01*
X26230Y-18980D01*
X26244Y-18990D01*
X26260Y-18997D01*
X26277Y-19000D01*
X26294Y-19000D01*
X26549Y-19000D01*
X26571Y-18978D01*
X26571Y-19772D01*
X26120Y-19772D01*
X26128Y-19756D01*
X26137Y-19717D01*
X26138Y-19670D01*
X26130Y-19630D01*
X26115Y-19592D01*
X26092Y-19558D01*
X26063Y-19529D01*
X26030Y-19506D01*
X25992Y-19491D01*
X25952Y-19482D01*
X25911Y-19482D01*
X25871Y-19489D01*
X25834Y-19505D01*
X25799Y-19527D01*
X25770Y-19555D01*
X25766Y-19560D01*
X24754Y-19560D01*
X24730Y-19536D01*
X24730Y-18931D01*
X24730Y-18930D01*
X24728Y-18905D01*
X24720Y-18882D01*
X24720Y-18880D01*
X24712Y-18865D01*
X24709Y-18859D01*
X24708Y-18858D01*
X24693Y-18839D01*
X24692Y-18838D01*
X24542Y-18688D01*
X25491Y-18688D01*
X25492Y-18688D01*
X25517Y-18686D01*
X25540Y-18678D01*
X25542Y-18678D01*
X25556Y-18670D01*
X25563Y-18667D01*
X25564Y-18666D01*
X25583Y-18651D01*
X25584Y-18650D01*
X26198Y-18035D01*
X26198Y-18409D01*
X26220Y-18431D01*
X26571Y-18431D01*
X26571Y-17942D01*
X26549Y-17920D01*
X26313Y-17920D01*
X26770Y-17462D01*
X26854Y-17499D01*
X26944Y-17519D01*
X27036Y-17521D01*
X27127Y-17505D01*
X27213Y-17472D01*
X27291Y-17422D01*
X27357Y-17359D01*
X27411Y-17283D01*
X27448Y-17199D01*
X27469Y-17109D01*
X27470Y-17004D01*
X27452Y-16914D01*
X27417Y-16828D01*
X27366Y-16752D01*
X27301Y-16686D01*
X27225Y-16635D01*
X27140Y-16599D01*
X27049Y-16580D01*
X26957Y-16580D01*
X26867Y-16597D01*
X26781Y-16631D01*
X26704Y-16682D01*
X26638Y-16746D01*
X26586Y-16822D01*
X26550Y-16907D01*
X26531Y-16997D01*
X26529Y-17089D01*
X26546Y-17180D01*
X26580Y-17266D01*
X26588Y-17278D01*
X25438Y-18428D01*
X24862Y-18428D01*
X24868Y-18416D01*
X24877Y-18377D01*
X24878Y-18330D01*
X24870Y-18290D01*
X24866Y-18280D01*
X24985Y-18280D01*
X24994Y-18289D01*
X25028Y-18312D01*
X25065Y-18329D01*
X25105Y-18337D01*
X25146Y-18338D01*
X25186Y-18331D01*
X25224Y-18317D01*
X25258Y-18295D01*
X25288Y-18267D01*
X25311Y-18234D01*
X25328Y-18196D01*
X25337Y-18157D01*
X25338Y-18110D01*
X25330Y-18070D01*
X25315Y-18032D01*
X25292Y-17998D01*
X25263Y-17969D01*
X25230Y-17946D01*
X25199Y-17934D01*
X25771Y-17362D01*
X25854Y-17399D01*
X25944Y-17419D01*
X26036Y-17421D01*
X26127Y-17405D01*
X26213Y-17372D01*
X26291Y-17322D01*
X26357Y-17259D01*
X26411Y-17183D01*
X26448Y-17099D01*
X26469Y-17009D01*
X26470Y-16904D01*
X26452Y-16814D01*
X26417Y-16728D01*
X26366Y-16652D01*
X26301Y-16586D01*
X26225Y-16535D01*
X26140Y-16499D01*
X26049Y-16480D01*
X25957Y-16480D01*
X25867Y-16497D01*
X25781Y-16531D01*
X25704Y-16582D01*
X25638Y-16646D01*
X25586Y-16722D01*
X25550Y-16807D01*
X25531Y-16897D01*
X25529Y-16989D01*
X25546Y-17080D01*
X25580Y-17166D01*
X25587Y-17178D01*
X24880Y-17886D01*
X24523Y-17886D01*
X24522Y-17886D01*
X24497Y-17888D01*
X24472Y-17896D01*
X24450Y-17908D01*
X24435Y-17920D01*
X24431Y-17923D01*
X24430Y-17924D01*
X24429Y-17925D01*
X24408Y-17946D01*
X24288Y-17946D01*
X24771Y-17462D01*
X24854Y-17499D01*
X24944Y-17519D01*
X25036Y-17521D01*
X25127Y-17505D01*
X25213Y-17472D01*
X25291Y-17422D01*
X25357Y-17359D01*
X25411Y-17283D01*
X25448Y-17199D01*
X25469Y-17109D01*
X25470Y-17004D01*
X25452Y-16914D01*
X25417Y-16828D01*
X25366Y-16752D01*
X25301Y-16686D01*
X25225Y-16635D01*
X25140Y-16599D01*
X25049Y-16580D01*
X24957Y-16580D01*
X24867Y-16597D01*
X24781Y-16631D01*
X24704Y-16682D01*
X24638Y-16746D01*
X24586Y-16822D01*
X24550Y-16907D01*
X24531Y-16997D01*
X24529Y-17089D01*
X24546Y-17180D01*
X24580Y-17266D01*
X24587Y-17278D01*
X24076Y-17790D01*
X23344Y-17790D01*
X23771Y-17362D01*
X23854Y-17399D01*
X23944Y-17419D01*
X24036Y-17421D01*
X24127Y-17405D01*
X24213Y-17372D01*
X24291Y-17322D01*
X24357Y-17259D01*
X24411Y-17183D01*
X24448Y-17099D01*
X24469Y-17009D01*
X24470Y-16904D01*
X24452Y-16814D01*
X24417Y-16728D01*
X24366Y-16652D01*
X24301Y-16586D01*
X24225Y-16535D01*
X24140Y-16499D01*
X24049Y-16480D01*
X23957Y-16480D01*
X23867Y-16497D01*
X23781Y-16531D01*
X23704Y-16582D01*
X23638Y-16646D01*
X23586Y-16722D01*
X23550Y-16807D01*
X23531Y-16897D01*
X23529Y-16989D01*
X23546Y-17080D01*
X23580Y-17166D01*
X23587Y-17178D01*
X23098Y-17668D01*
X22566Y-17668D01*
X22771Y-17462D01*
X22854Y-17499D01*
X22944Y-17519D01*
X23036Y-17521D01*
X23127Y-17505D01*
X23213Y-17472D01*
X23291Y-17422D01*
X23357Y-17359D01*
X23411Y-17283D01*
X23448Y-17199D01*
X23469Y-17109D01*
X23470Y-17004D01*
X23452Y-16914D01*
X23417Y-16828D01*
X23366Y-16752D01*
X23301Y-16686D01*
X23225Y-16635D01*
X23140Y-16599D01*
X23049Y-16580D01*
X22957Y-16580D01*
X22867Y-16597D01*
X22781Y-16631D01*
X22704Y-16682D01*
X22638Y-16746D01*
X22586Y-16822D01*
X22550Y-16907D01*
X22531Y-16997D01*
X22529Y-17089D01*
X22546Y-17180D01*
X22580Y-17266D01*
X22587Y-17278D01*
X22320Y-17546D01*
X22062Y-17546D01*
X22091Y-17517D01*
X22107Y-17497D01*
X22108Y-17497D01*
X22119Y-17475D01*
X22120Y-17474D01*
X22124Y-17458D01*
X22127Y-17451D01*
X22127Y-17450D01*
X22130Y-17426D01*
X22130Y-17425D01*
X22130Y-17424D01*
X22130Y-17403D01*
X22213Y-17372D01*
X22291Y-17322D01*
X22357Y-17259D01*
X22411Y-17183D01*
X22448Y-17099D01*
X22469Y-17009D01*
X22470Y-16904D01*
X22452Y-16814D01*
X22417Y-16728D01*
X22366Y-16652D01*
X22301Y-16586D01*
X22225Y-16535D01*
X22140Y-16499D01*
X22049Y-16480D01*
X21957Y-16480D01*
X21867Y-16497D01*
X21781Y-16531D01*
X21704Y-16582D01*
X21638Y-16646D01*
X21586Y-16722D01*
X21550Y-16807D01*
X21531Y-16897D01*
X21529Y-16989D01*
X21546Y-17080D01*
X21580Y-17166D01*
X21630Y-17243D01*
X21694Y-17310D01*
X21770Y-17362D01*
X21844Y-17395D01*
X21816Y-17424D01*
X21287Y-17424D01*
X21291Y-17422D01*
X21357Y-17359D01*
X21411Y-17283D01*
X21448Y-17199D01*
X21469Y-17109D01*
X21470Y-17004D01*
X21452Y-16914D01*
X21417Y-16828D01*
X21366Y-16752D01*
X21301Y-16686D01*
X21225Y-16635D01*
X21140Y-16599D01*
X21049Y-16580D01*
X20957Y-16580D01*
X20867Y-16597D01*
X20781Y-16631D01*
X20704Y-16682D01*
X20638Y-16746D01*
X20586Y-16822D01*
X20550Y-16907D01*
X20531Y-16997D01*
X20529Y-17089D01*
X20546Y-17180D01*
X20580Y-17266D01*
X20587Y-17278D01*
X20438Y-17428D01*
X20438Y-17259D01*
X20438Y-17258D01*
X20436Y-17233D01*
X20428Y-17210D01*
X20428Y-17208D01*
X20416Y-17187D01*
X20416Y-17186D01*
X20411Y-17180D01*
X20448Y-17099D01*
X20469Y-17009D01*
X20470Y-16904D01*
X20452Y-16814D01*
X20417Y-16728D01*
X20366Y-16652D01*
X20301Y-16586D01*
X20225Y-16535D01*
X20140Y-16499D01*
X20049Y-16480D01*
X19957Y-16480D01*
X19867Y-16497D01*
X19781Y-16531D01*
X19704Y-16582D01*
X19638Y-16646D01*
X19586Y-16722D01*
X19550Y-16807D01*
X19531Y-16897D01*
X19529Y-16989D01*
X19546Y-17080D01*
X19580Y-17166D01*
X19630Y-17243D01*
X19694Y-17310D01*
X19770Y-17362D01*
X19854Y-17399D01*
X19944Y-17419D01*
X20036Y-17421D01*
X20127Y-17405D01*
X20178Y-17385D01*
X20178Y-17729D01*
X20052Y-17604D01*
X20049Y-17600D01*
X20047Y-17599D01*
X20025Y-17580D01*
X20023Y-17579D01*
X19998Y-17565D01*
X19997Y-17564D01*
X19996Y-17564D01*
X19986Y-17561D01*
X19968Y-17555D01*
X19937Y-17552D01*
X19936Y-17552D01*
X19935Y-17552D01*
X19527Y-17552D01*
X19525Y-17552D01*
X19494Y-17555D01*
X19478Y-17559D01*
X19466Y-17563D01*
X19464Y-17563D01*
X19464Y-17564D01*
X19460Y-17566D01*
X19438Y-17578D01*
X19414Y-17597D01*
X19413Y-17598D01*
X19412Y-17599D01*
X19301Y-17709D01*
X19289Y-17697D01*
X19273Y-17687D01*
X19255Y-17679D01*
X19235Y-17675D01*
X19216Y-17675D01*
X18765Y-17675D01*
X18746Y-17679D01*
X18728Y-17686D01*
X18711Y-17697D01*
X18700Y-17708D01*
X18689Y-17697D01*
X18673Y-17687D01*
X18655Y-17679D01*
X18635Y-17675D01*
X18616Y-17675D01*
X18165Y-17675D01*
X18146Y-17679D01*
X18128Y-17686D01*
X18111Y-17697D01*
X18097Y-17711D01*
X18087Y-17727D01*
X18080Y-17741D01*
X18019Y-17741D01*
X18014Y-17728D01*
X18003Y-17711D01*
X17989Y-17697D01*
X17973Y-17687D01*
X17955Y-17679D01*
X17935Y-17675D01*
X17916Y-17675D01*
X17665Y-17675D01*
X17646Y-17679D01*
X17628Y-17686D01*
X17611Y-17697D01*
X17597Y-17711D01*
X17587Y-17727D01*
X17581Y-17738D01*
X17571Y-17735D01*
X17572Y-17734D01*
X17756Y-17550D01*
X18629Y-17550D01*
X18630Y-17550D01*
X18655Y-17548D01*
X18678Y-17540D01*
X18680Y-17540D01*
X18694Y-17532D01*
X18701Y-17529D01*
X18702Y-17528D01*
X18721Y-17513D01*
X18722Y-17512D01*
X18771Y-17462D01*
X18854Y-17499D01*
X18944Y-17519D01*
X19036Y-17521D01*
X19127Y-17505D01*
X19213Y-17472D01*
X19291Y-17422D01*
X19357Y-17359D01*
X19411Y-17283D01*
X19448Y-17199D01*
X19469Y-17109D01*
X19470Y-17004D01*
X19452Y-16914D01*
X19417Y-16828D01*
X19366Y-16752D01*
X19301Y-16686D01*
X19225Y-16635D01*
X19140Y-16599D01*
X19049Y-16580D01*
X18957Y-16580D01*
X18867Y-16597D01*
X18781Y-16631D01*
X18704Y-16682D01*
X18638Y-16746D01*
X18586Y-16822D01*
X18550Y-16907D01*
X18531Y-16997D01*
X18529Y-17089D01*
X18546Y-17180D01*
X18580Y-17266D01*
X18587Y-17278D01*
X18576Y-17290D01*
X18324Y-17290D01*
X18357Y-17259D01*
X18411Y-17183D01*
X18448Y-17099D01*
X18469Y-17009D01*
X18470Y-16904D01*
X18452Y-16814D01*
X18417Y-16728D01*
X18366Y-16652D01*
X18301Y-16586D01*
X18225Y-16535D01*
X18140Y-16499D01*
X18049Y-16480D01*
X17957Y-16480D01*
X17867Y-16497D01*
X17781Y-16531D01*
X17704Y-16582D01*
X17638Y-16646D01*
X17586Y-16722D01*
X17550Y-16807D01*
X17531Y-16897D01*
X17529Y-16989D01*
X17546Y-17080D01*
X17580Y-17166D01*
X17587Y-17178D01*
X17376Y-17390D01*
X17324Y-17390D01*
X17357Y-17359D01*
X17411Y-17283D01*
X17448Y-17199D01*
X17469Y-17109D01*
X17470Y-17004D01*
X17452Y-16914D01*
X17417Y-16828D01*
X17366Y-16752D01*
X17301Y-16686D01*
X17225Y-16635D01*
X17140Y-16599D01*
X17049Y-16580D01*
X16957Y-16580D01*
X16867Y-16597D01*
X16781Y-16631D01*
X16704Y-16682D01*
X16638Y-16746D01*
X16586Y-16822D01*
X16550Y-16907D01*
X16531Y-16997D01*
X16529Y-17089D01*
X16546Y-17180D01*
X16580Y-17266D01*
X16589Y-17281D01*
X16581Y-17299D01*
X16580Y-17301D01*
X16577Y-17309D01*
X16573Y-17323D01*
X16571Y-17337D01*
X16412Y-17178D01*
X16448Y-17099D01*
X16469Y-17009D01*
X16470Y-16904D01*
X16452Y-16814D01*
X16417Y-16728D01*
X16366Y-16652D01*
X16301Y-16586D01*
X16225Y-16535D01*
X16140Y-16499D01*
X16049Y-16480D01*
X15957Y-16480D01*
X15867Y-16497D01*
X15781Y-16531D01*
X15704Y-16582D01*
X15638Y-16646D01*
X15586Y-16722D01*
X15550Y-16807D01*
X15531Y-16897D01*
X15529Y-16989D01*
X15546Y-17080D01*
X15580Y-17166D01*
X15630Y-17243D01*
X15694Y-17310D01*
X15770Y-17362D01*
X15854Y-17399D01*
X15944Y-17419D01*
X16036Y-17421D01*
X16127Y-17405D01*
X16213Y-17372D01*
X16228Y-17362D01*
X16445Y-17579D01*
X16445Y-18766D01*
X16438Y-18753D01*
X16420Y-18740D01*
X16420Y-17954D01*
X16402Y-17864D01*
X16367Y-17778D01*
X16316Y-17702D01*
X16251Y-17636D01*
X16175Y-17585D01*
X16090Y-17549D01*
X15999Y-17530D01*
X15907Y-17530D01*
X15817Y-17547D01*
X15731Y-17581D01*
X15654Y-17632D01*
X15588Y-17696D01*
X15536Y-17772D01*
X15500Y-17857D01*
X15481Y-17947D01*
X15479Y-18039D01*
X15496Y-18130D01*
X15530Y-18216D01*
X15580Y-18293D01*
X15644Y-18360D01*
X15720Y-18412D01*
X15804Y-18449D01*
X15894Y-18469D01*
X15986Y-18471D01*
X16077Y-18455D01*
X16163Y-18422D01*
X16241Y-18372D01*
X16307Y-18309D01*
X16361Y-18233D01*
X16398Y-18149D01*
X16419Y-18059D01*
X16420Y-17954D01*
X16420Y-18740D01*
X16380Y-18712D01*
X16338Y-18753D01*
X16338Y-18670D01*
X16297Y-18612D01*
X16217Y-18571D01*
X16131Y-18547D01*
X16042Y-18540D01*
X15952Y-18550D01*
X15867Y-18578D01*
X15803Y-18612D01*
X15762Y-18670D01*
X16050Y-18959D01*
X16338Y-18670D01*
X16338Y-18753D01*
X16091Y-19000D01*
X16380Y-19288D01*
X16438Y-19247D01*
X16445Y-19233D01*
X16445Y-20004D01*
X16445Y-20005D01*
X16447Y-20030D01*
X16455Y-20055D01*
X16462Y-20069D01*
X16466Y-20076D01*
X16467Y-20077D01*
X16482Y-20096D01*
X16483Y-20097D01*
X16772Y-20386D01*
X16773Y-20387D01*
X16792Y-20403D01*
X16814Y-20414D01*
X16815Y-20415D01*
X16831Y-20419D01*
X16838Y-20422D01*
X16839Y-20422D01*
X16863Y-20425D01*
X16865Y-20425D01*
X18421Y-20425D01*
X18249Y-20597D01*
X18248Y-20598D01*
X18232Y-20617D01*
X18221Y-20639D01*
X18220Y-20641D01*
X18217Y-20649D01*
X18213Y-20663D01*
X18210Y-20688D01*
X18210Y-20690D01*
X18210Y-21816D01*
X17758Y-22268D01*
X16553Y-22268D01*
X16552Y-22268D01*
X16527Y-22270D01*
X16502Y-22278D01*
X16480Y-22290D01*
X16465Y-22302D01*
X16461Y-22305D01*
X16460Y-22305D01*
X16460Y-22306D01*
X16454Y-22312D01*
X16228Y-22537D01*
X16225Y-22535D01*
X16140Y-22499D01*
X16049Y-22480D01*
X15957Y-22480D01*
X15867Y-22497D01*
X15781Y-22531D01*
X15704Y-22582D01*
X15638Y-22646D01*
X15586Y-22722D01*
X15550Y-22807D01*
X15531Y-22897D01*
X15529Y-22989D01*
X15546Y-23080D01*
X15580Y-23166D01*
X15630Y-23243D01*
X15694Y-23310D01*
X15770Y-23362D01*
X15854Y-23399D01*
X15944Y-23419D01*
X16036Y-23421D01*
X16127Y-23405D01*
X16213Y-23372D01*
X16291Y-23322D01*
X16357Y-23259D01*
X16411Y-23183D01*
X16448Y-23099D01*
X16469Y-23009D01*
X16470Y-22904D01*
X16452Y-22814D01*
X16417Y-22728D01*
X16412Y-22721D01*
X16605Y-22528D01*
X17338Y-22528D01*
X17228Y-22637D01*
X17225Y-22635D01*
X17140Y-22599D01*
X17049Y-22580D01*
X16957Y-22580D01*
X16867Y-22597D01*
X16781Y-22631D01*
X16704Y-22682D01*
X16638Y-22746D01*
X16586Y-22822D01*
X16550Y-22907D01*
X16531Y-22997D01*
X16529Y-23089D01*
X16546Y-23180D01*
X16580Y-23266D01*
X16630Y-23343D01*
X16694Y-23410D01*
X16770Y-23462D01*
X16854Y-23499D01*
X16944Y-23519D01*
X17036Y-23521D01*
X17127Y-23505D01*
X17213Y-23472D01*
X17291Y-23422D01*
X17357Y-23359D01*
X17411Y-23283D01*
X17448Y-23199D01*
X17469Y-23109D01*
X17470Y-23004D01*
X17452Y-22914D01*
X17417Y-22828D01*
X17412Y-22821D01*
X17584Y-22650D01*
X17677Y-22650D01*
X17638Y-22688D01*
X17586Y-22764D01*
X17550Y-22849D01*
X17531Y-22939D01*
X17529Y-23031D01*
X17546Y-23122D01*
X17580Y-23208D01*
X17630Y-23285D01*
X17694Y-23352D01*
X17770Y-23404D01*
X17854Y-23441D01*
X17944Y-23461D01*
X18036Y-23463D01*
X18127Y-23447D01*
X18213Y-23414D01*
X18291Y-23364D01*
X18357Y-23301D01*
X18411Y-23225D01*
X18448Y-23141D01*
X18469Y-23051D01*
X18470Y-22946D01*
X18452Y-22856D01*
X18417Y-22770D01*
X18366Y-22694D01*
X18301Y-22628D01*
X18225Y-22577D01*
X18205Y-22568D01*
X18756Y-22018D01*
X18757Y-22017D01*
X18772Y-21998D01*
X18773Y-21998D01*
X18784Y-21976D01*
X18785Y-21975D01*
X18789Y-21959D01*
X18792Y-21952D01*
X18792Y-21951D01*
X18795Y-21927D01*
X18795Y-21925D01*
X18795Y-21229D01*
X18803Y-21231D01*
X18822Y-21231D01*
X18840Y-21231D01*
X18840Y-22488D01*
X18840Y-22490D01*
X18840Y-22607D01*
X18781Y-22631D01*
X18704Y-22682D01*
X18638Y-22746D01*
X18586Y-22822D01*
X18550Y-22907D01*
X18531Y-22997D01*
X18529Y-23089D01*
X18546Y-23180D01*
X18580Y-23266D01*
X18630Y-23343D01*
X18694Y-23410D01*
X18770Y-23462D01*
X18854Y-23499D01*
X18944Y-23519D01*
X19036Y-23521D01*
X19127Y-23505D01*
X19213Y-23472D01*
X19291Y-23422D01*
X19357Y-23359D01*
X19411Y-23283D01*
X19448Y-23199D01*
X19469Y-23109D01*
X19470Y-23004D01*
X19452Y-22914D01*
X19417Y-22828D01*
X19366Y-22752D01*
X19301Y-22686D01*
X19225Y-22635D01*
X19140Y-22599D01*
X19100Y-22590D01*
X19100Y-22492D01*
X19100Y-22490D01*
X19100Y-21231D01*
X19413Y-21231D01*
X19432Y-21227D01*
X19450Y-21220D01*
X19467Y-21209D01*
X19481Y-21195D01*
X19491Y-21179D01*
X19499Y-21161D01*
X19503Y-21141D01*
X19503Y-21122D01*
X19503Y-21023D01*
X19499Y-21004D01*
X19492Y-20986D01*
X19490Y-20983D01*
X19491Y-20982D01*
X19499Y-20964D01*
X19503Y-20944D01*
X19503Y-20925D01*
X19503Y-20826D01*
X19499Y-20807D01*
X19492Y-20789D01*
X19490Y-20786D01*
X19491Y-20785D01*
X19499Y-20767D01*
X19503Y-20747D01*
X19503Y-20728D01*
X19503Y-20629D01*
X19499Y-20610D01*
X19492Y-20592D01*
X19490Y-20589D01*
X19491Y-20589D01*
X19499Y-20571D01*
X19503Y-20551D01*
X19503Y-20532D01*
X19503Y-20433D01*
X19499Y-20414D01*
X19492Y-20396D01*
X19490Y-20393D01*
X19491Y-20392D01*
X19499Y-20374D01*
X19503Y-20354D01*
X19503Y-20335D01*
X19503Y-20236D01*
X19499Y-20217D01*
X19492Y-20199D01*
X19490Y-20196D01*
X19491Y-20195D01*
X19499Y-20177D01*
X19503Y-20157D01*
X19503Y-20138D01*
X19503Y-20039D01*
X19499Y-20020D01*
X19492Y-20002D01*
X19490Y-19999D01*
X19491Y-19999D01*
X19499Y-19981D01*
X19503Y-19961D01*
X19503Y-19942D01*
X19503Y-19843D01*
X19499Y-19824D01*
X19492Y-19806D01*
X19490Y-19803D01*
X19491Y-19802D01*
X19499Y-19784D01*
X19503Y-19764D01*
X19503Y-19745D01*
X19503Y-19646D01*
X19499Y-19627D01*
X19492Y-19609D01*
X19490Y-19606D01*
X19491Y-19605D01*
X19499Y-19587D01*
X19503Y-19567D01*
X19503Y-19548D01*
X19503Y-19449D01*
X19499Y-19430D01*
X19492Y-19412D01*
X19490Y-19409D01*
X19491Y-19409D01*
X19499Y-19391D01*
X19503Y-19371D01*
X19503Y-19352D01*
X19503Y-19253D01*
X19499Y-19234D01*
X19492Y-19216D01*
X19490Y-19213D01*
X19491Y-19212D01*
X19499Y-19194D01*
X19502Y-19176D01*
X19597Y-19271D01*
X19598Y-19272D01*
X19617Y-19288D01*
X19639Y-19299D01*
X19640Y-19300D01*
X19656Y-19304D01*
X19663Y-19307D01*
X19664Y-19307D01*
X19688Y-19310D01*
X19690Y-19310D01*
X20516Y-19310D01*
X20544Y-19339D01*
X20578Y-19362D01*
X20615Y-19379D01*
X20655Y-19387D01*
X20696Y-19388D01*
X20736Y-19381D01*
X20774Y-19367D01*
X20808Y-19345D01*
X20838Y-19317D01*
X20861Y-19284D01*
X20878Y-19246D01*
X20887Y-19207D01*
X20888Y-19160D01*
X20880Y-19120D01*
X20865Y-19082D01*
X20842Y-19048D01*
X20813Y-19019D01*
X20780Y-18996D01*
X20742Y-18981D01*
X20702Y-18972D01*
X20661Y-18972D01*
X20621Y-18979D01*
X20584Y-18995D01*
X20549Y-19017D01*
X20520Y-19045D01*
X20516Y-19050D01*
X19744Y-19050D01*
X19694Y-19000D01*
X19694Y-18669D01*
X19694Y-18337D01*
X19603Y-18337D01*
X19581Y-18359D01*
X19581Y-18612D01*
X19584Y-18629D01*
X19591Y-18645D01*
X19601Y-18659D01*
X19613Y-18671D01*
X19627Y-18681D01*
X19643Y-18688D01*
X19660Y-18691D01*
X19672Y-18691D01*
X19694Y-18669D01*
X19694Y-19000D01*
X19521Y-18827D01*
X19520Y-18826D01*
X19501Y-18810D01*
X19479Y-18799D01*
X19477Y-18798D01*
X19473Y-18797D01*
X19472Y-18796D01*
X19467Y-18791D01*
X19451Y-18781D01*
X19433Y-18773D01*
X19413Y-18769D01*
X19394Y-18769D01*
X19313Y-18769D01*
X19313Y-18634D01*
X19313Y-18551D01*
X19291Y-18529D01*
X19029Y-18529D01*
X19029Y-18691D01*
X19051Y-18713D01*
X19217Y-18713D01*
X19234Y-18713D01*
X19251Y-18710D01*
X19267Y-18703D01*
X19281Y-18693D01*
X19293Y-18681D01*
X19303Y-18667D01*
X19310Y-18651D01*
X19313Y-18634D01*
X19313Y-18769D01*
X18803Y-18769D01*
X18784Y-18773D01*
X18766Y-18780D01*
X18749Y-18791D01*
X18735Y-18805D01*
X18725Y-18821D01*
X18717Y-18839D01*
X18713Y-18859D01*
X18713Y-18878D01*
X18713Y-18956D01*
X18606Y-18956D01*
X18606Y-18919D01*
X18606Y-18917D01*
X18603Y-18888D01*
X18603Y-18886D01*
X18598Y-18870D01*
X18595Y-18858D01*
X18594Y-18856D01*
X18592Y-18852D01*
X18580Y-18830D01*
X18579Y-18829D01*
X18561Y-18806D01*
X18560Y-18805D01*
X18559Y-18804D01*
X18467Y-18713D01*
X18617Y-18713D01*
X18634Y-18713D01*
X18651Y-18710D01*
X18667Y-18703D01*
X18681Y-18693D01*
X18693Y-18681D01*
X18700Y-18671D01*
X18707Y-18681D01*
X18719Y-18693D01*
X18733Y-18703D01*
X18749Y-18710D01*
X18766Y-18713D01*
X18783Y-18713D01*
X18949Y-18713D01*
X18971Y-18691D01*
X18971Y-18529D01*
X18709Y-18529D01*
X18700Y-18538D01*
X18691Y-18529D01*
X18459Y-18529D01*
X18429Y-18529D01*
X18371Y-18529D01*
X18371Y-18471D01*
X18371Y-18309D01*
X18349Y-18287D01*
X18183Y-18287D01*
X18166Y-18287D01*
X18149Y-18290D01*
X18133Y-18297D01*
X18119Y-18307D01*
X18107Y-18319D01*
X18097Y-18333D01*
X18090Y-18349D01*
X18087Y-18366D01*
X18087Y-18449D01*
X18109Y-18471D01*
X18371Y-18471D01*
X18371Y-18529D01*
X18341Y-18529D01*
X18109Y-18529D01*
X18087Y-18551D01*
X18087Y-18634D01*
X18090Y-18651D01*
X18075Y-18651D01*
X18025Y-18600D01*
X18025Y-18365D01*
X18021Y-18346D01*
X18014Y-18328D01*
X18003Y-18311D01*
X17992Y-18300D01*
X18003Y-18289D01*
X18013Y-18273D01*
X18021Y-18255D01*
X18025Y-18235D01*
X18025Y-18216D01*
X18025Y-18059D01*
X18080Y-18059D01*
X18086Y-18072D01*
X18097Y-18089D01*
X18111Y-18103D01*
X18127Y-18113D01*
X18145Y-18121D01*
X18165Y-18125D01*
X18184Y-18125D01*
X18470Y-18125D01*
X18605Y-18260D01*
X18606Y-18261D01*
X18607Y-18262D01*
X18630Y-18281D01*
X18631Y-18282D01*
X18643Y-18288D01*
X18634Y-18287D01*
X18617Y-18287D01*
X18451Y-18287D01*
X18429Y-18309D01*
X18429Y-18471D01*
X18691Y-18471D01*
X18700Y-18462D01*
X18709Y-18471D01*
X18941Y-18471D01*
X18971Y-18471D01*
X19029Y-18471D01*
X19059Y-18471D01*
X19291Y-18471D01*
X19313Y-18449D01*
X19313Y-18366D01*
X19310Y-18349D01*
X19303Y-18333D01*
X19293Y-18319D01*
X19283Y-18309D01*
X19338Y-18309D01*
X19340Y-18309D01*
X19369Y-18306D01*
X19371Y-18306D01*
X19387Y-18301D01*
X19399Y-18298D01*
X19401Y-18297D01*
X19427Y-18284D01*
X19428Y-18282D01*
X19451Y-18264D01*
X19451Y-18263D01*
X19452Y-18263D01*
X19452Y-18262D01*
X19456Y-18257D01*
X19581Y-18133D01*
X19581Y-18257D01*
X19603Y-18279D01*
X19659Y-18279D01*
X19694Y-18279D01*
X19742Y-18279D01*
X19747Y-18279D01*
X19747Y-18337D01*
X19742Y-18337D01*
X19742Y-18669D01*
X19764Y-18691D01*
X19776Y-18691D01*
X19793Y-18688D01*
X19804Y-18682D01*
X19818Y-18691D01*
X19836Y-18699D01*
X19856Y-18703D01*
X19875Y-18703D01*
X19974Y-18703D01*
X19993Y-18699D01*
X20011Y-18692D01*
X20013Y-18690D01*
X20015Y-18691D01*
X20033Y-18699D01*
X20053Y-18703D01*
X20072Y-18703D01*
X20171Y-18703D01*
X20190Y-18699D01*
X20208Y-18692D01*
X20210Y-18690D01*
X20211Y-18691D01*
X20229Y-18699D01*
X20249Y-18703D01*
X20268Y-18703D01*
X20367Y-18703D01*
X20386Y-18699D01*
X20404Y-18692D01*
X20406Y-18690D01*
X20408Y-18691D01*
X20426Y-18699D01*
X20446Y-18703D01*
X20465Y-18703D01*
X20564Y-18703D01*
X20583Y-18699D01*
X20601Y-18692D01*
X20603Y-18690D01*
X20605Y-18691D01*
X20623Y-18699D01*
X20643Y-18703D01*
X20662Y-18703D01*
X20761Y-18703D01*
X20780Y-18699D01*
X20798Y-18692D01*
X20800Y-18690D01*
X20801Y-18691D01*
X20819Y-18699D01*
X20839Y-18703D01*
X20858Y-18703D01*
X20957Y-18703D01*
X20976Y-18699D01*
X20994Y-18692D01*
X20996Y-18690D01*
X20998Y-18691D01*
X21016Y-18699D01*
X21036Y-18703D01*
X21055Y-18703D01*
X21154Y-18703D01*
X21173Y-18699D01*
X21191Y-18692D01*
X21193Y-18690D01*
X21195Y-18691D01*
X21213Y-18699D01*
X21233Y-18703D01*
X21252Y-18703D01*
X21351Y-18703D01*
X21370Y-18699D01*
X21382Y-18693D01*
X21395Y-18709D01*
X21396Y-18710D01*
X21605Y-18918D01*
X21609Y-18923D01*
X21610Y-18923D01*
X21618Y-18930D01*
X21629Y-18940D01*
X21651Y-18951D01*
X21652Y-18952D01*
X21668Y-18956D01*
X21675Y-18959D01*
X21676Y-18959D01*
X21700Y-18962D01*
X21702Y-18962D01*
X22029Y-18962D01*
X22030Y-18962D01*
X22055Y-18960D01*
X22078Y-18952D01*
X22080Y-18952D01*
X22094Y-18944D01*
X22097Y-18942D01*
X22097Y-18977D01*
X22101Y-18996D01*
X22108Y-19014D01*
X22117Y-19028D01*
X22112Y-19040D01*
X22109Y-19057D01*
X22109Y-19069D01*
X22131Y-19091D01*
X22463Y-19091D01*
X22463Y-19086D01*
X22521Y-19086D01*
X22521Y-19091D01*
X22521Y-19139D01*
X22521Y-19144D01*
X22463Y-19144D01*
X22463Y-19139D01*
X22131Y-19139D01*
X22109Y-19161D01*
X22109Y-19173D01*
X22112Y-19190D01*
X22117Y-19201D01*
X22109Y-19215D01*
X22101Y-19233D01*
X22097Y-19253D01*
X22097Y-19272D01*
X22097Y-19371D01*
X22101Y-19390D01*
X22108Y-19408D01*
X22109Y-19410D01*
X22109Y-19411D01*
X22101Y-19429D01*
X22097Y-19449D01*
X22097Y-19468D01*
X22097Y-19567D01*
X22101Y-19586D01*
X22108Y-19604D01*
X22109Y-19606D01*
X22109Y-19608D01*
X22101Y-19626D01*
X22097Y-19646D01*
X22097Y-19665D01*
X22097Y-19764D01*
X22101Y-19783D01*
X22108Y-19801D01*
X22109Y-19803D01*
X22109Y-19805D01*
X22101Y-19823D01*
X22097Y-19843D01*
X22097Y-19862D01*
X22097Y-19961D01*
X22101Y-19980D01*
X22108Y-19998D01*
X22109Y-20000D01*
X22109Y-20001D01*
X22101Y-20019D01*
X22097Y-20039D01*
X22097Y-20058D01*
X22097Y-20157D01*
X22101Y-20176D01*
X22108Y-20194D01*
X22109Y-20196D01*
X22109Y-20198D01*
X22101Y-20216D01*
X22097Y-20236D01*
X22097Y-20255D01*
X22097Y-20354D01*
X22101Y-20373D01*
X22108Y-20391D01*
X22109Y-20393D01*
X22109Y-20395D01*
X22101Y-20413D01*
X22097Y-20433D01*
X22097Y-20452D01*
X22097Y-20551D01*
X22101Y-20570D01*
X22108Y-20588D01*
X22109Y-20590D01*
X22109Y-20591D01*
X22101Y-20609D01*
X22097Y-20629D01*
X22097Y-20648D01*
X22097Y-20747D01*
X22101Y-20766D01*
X22108Y-20784D01*
X22109Y-20786D01*
X22109Y-20788D01*
X22101Y-20806D01*
X22097Y-20826D01*
X22097Y-20845D01*
X22097Y-20944D01*
X22101Y-20963D01*
X22108Y-20981D01*
X22109Y-20983D01*
X22109Y-20985D01*
X22101Y-21003D01*
X22099Y-21010D01*
X21908Y-20819D01*
X21907Y-20818D01*
X21888Y-20802D01*
X21866Y-20791D01*
X21864Y-20790D01*
X21856Y-20787D01*
X21842Y-20783D01*
X21817Y-20780D01*
X21815Y-20780D01*
X20811Y-20780D01*
X20810Y-20780D01*
X20785Y-20782D01*
X20760Y-20790D01*
X20745Y-20797D01*
X20739Y-20801D01*
X20719Y-20817D01*
X20718Y-20818D01*
X20414Y-21122D01*
X20413Y-21123D01*
X20397Y-21142D01*
X20386Y-21164D01*
X20385Y-21166D01*
X20382Y-21174D01*
X20378Y-21188D01*
X20375Y-21213D01*
X20375Y-21215D01*
X20375Y-21298D01*
X20367Y-21297D01*
X20348Y-21297D01*
X20249Y-21297D01*
X20230Y-21301D01*
X20212Y-21308D01*
X20209Y-21309D01*
X20191Y-21301D01*
X20171Y-21297D01*
X20152Y-21297D01*
X20053Y-21297D01*
X20034Y-21301D01*
X20016Y-21308D01*
X20013Y-21309D01*
X20012Y-21309D01*
X19994Y-21301D01*
X19974Y-21297D01*
X19955Y-21297D01*
X19856Y-21297D01*
X19848Y-21298D01*
X19848Y-20981D01*
X19858Y-20975D01*
X19888Y-20947D01*
X19911Y-20914D01*
X19928Y-20876D01*
X19937Y-20837D01*
X19938Y-20790D01*
X19930Y-20750D01*
X19915Y-20712D01*
X19892Y-20678D01*
X19863Y-20649D01*
X19830Y-20626D01*
X19792Y-20611D01*
X19752Y-20602D01*
X19711Y-20602D01*
X19671Y-20609D01*
X19634Y-20625D01*
X19599Y-20647D01*
X19570Y-20675D01*
X19547Y-20709D01*
X19531Y-20746D01*
X19522Y-20786D01*
X19522Y-20827D01*
X19529Y-20867D01*
X19544Y-20905D01*
X19566Y-20939D01*
X19588Y-20962D01*
X19588Y-21337D01*
X19581Y-21349D01*
X19573Y-21367D01*
X19569Y-21387D01*
X19569Y-21406D01*
X19569Y-21997D01*
X19573Y-22016D01*
X19580Y-22034D01*
X19588Y-22046D01*
X19588Y-22667D01*
X19588Y-22668D01*
X19590Y-22693D01*
X19595Y-22708D01*
X19586Y-22722D01*
X19550Y-22807D01*
X19531Y-22897D01*
X19529Y-22989D01*
X19546Y-23080D01*
X19580Y-23166D01*
X19630Y-23243D01*
X19694Y-23310D01*
X19770Y-23362D01*
X19854Y-23399D01*
X19944Y-23419D01*
X20036Y-23421D01*
X20127Y-23405D01*
X20213Y-23372D01*
X20291Y-23322D01*
X20357Y-23259D01*
X20411Y-23183D01*
X20448Y-23099D01*
X20469Y-23009D01*
X20470Y-22904D01*
X20452Y-22814D01*
X20417Y-22728D01*
X20366Y-22652D01*
X20301Y-22586D01*
X20225Y-22535D01*
X20140Y-22499D01*
X20049Y-22480D01*
X19957Y-22480D01*
X19867Y-22497D01*
X19848Y-22504D01*
X19848Y-22162D01*
X20101Y-22415D01*
X20102Y-22416D01*
X20121Y-22432D01*
X20143Y-22443D01*
X20144Y-22444D01*
X20160Y-22448D01*
X20167Y-22451D01*
X20168Y-22451D01*
X20192Y-22454D01*
X20194Y-22454D01*
X20810Y-22454D01*
X20870Y-22514D01*
X20870Y-22596D01*
X20867Y-22597D01*
X20781Y-22631D01*
X20704Y-22682D01*
X20638Y-22746D01*
X20586Y-22822D01*
X20550Y-22907D01*
X20531Y-22997D01*
X20529Y-23089D01*
X20546Y-23180D01*
X20580Y-23266D01*
X20630Y-23343D01*
X20694Y-23410D01*
X20770Y-23462D01*
X20854Y-23499D01*
X20944Y-23519D01*
X21036Y-23521D01*
X21127Y-23505D01*
X21213Y-23472D01*
X21291Y-23422D01*
X21357Y-23359D01*
X21411Y-23283D01*
X21448Y-23199D01*
X21469Y-23109D01*
X21470Y-23004D01*
X21452Y-22914D01*
X21449Y-22907D01*
X21532Y-22990D01*
X21531Y-22997D01*
X21529Y-23089D01*
X21546Y-23180D01*
X21580Y-23266D01*
X21630Y-23343D01*
X21694Y-23410D01*
X21770Y-23462D01*
X21854Y-23499D01*
X21944Y-23519D01*
X22036Y-23521D01*
X22127Y-23505D01*
X22213Y-23472D01*
X22291Y-23422D01*
X22357Y-23359D01*
X22411Y-23283D01*
X22448Y-23199D01*
X22469Y-23109D01*
X22470Y-23004D01*
X22452Y-22914D01*
X22417Y-22828D01*
X22366Y-22752D01*
X22324Y-22710D01*
X22476Y-22710D01*
X22586Y-22820D01*
X22586Y-22822D01*
X22550Y-22907D01*
X22531Y-22997D01*
X22529Y-23089D01*
X22546Y-23180D01*
X22580Y-23266D01*
X22630Y-23343D01*
X22694Y-23410D01*
X22770Y-23462D01*
X22854Y-23499D01*
X22944Y-23519D01*
X23036Y-23521D01*
X23127Y-23505D01*
X23213Y-23472D01*
X23291Y-23422D01*
X23357Y-23359D01*
X23411Y-23283D01*
X23448Y-23199D01*
X23469Y-23109D01*
X23470Y-23004D01*
X23452Y-22914D01*
X23417Y-22828D01*
X23366Y-22752D01*
X23301Y-22686D01*
X23225Y-22635D01*
X23140Y-22599D01*
X23087Y-22588D01*
X23454Y-22588D01*
X23586Y-22720D01*
X23586Y-22722D01*
X23550Y-22807D01*
X23531Y-22897D01*
X23529Y-22989D01*
X23546Y-23080D01*
X23580Y-23166D01*
X23630Y-23243D01*
X23694Y-23310D01*
X23770Y-23362D01*
X23854Y-23399D01*
X23944Y-23419D01*
X24036Y-23421D01*
X24127Y-23405D01*
X24213Y-23372D01*
X24291Y-23322D01*
X24357Y-23259D01*
X24411Y-23183D01*
X24448Y-23099D01*
X24469Y-23009D01*
X24470Y-22904D01*
X24452Y-22814D01*
X24417Y-22728D01*
X24366Y-22652D01*
X24301Y-22586D01*
X24225Y-22535D01*
X24140Y-22499D01*
X24049Y-22480D01*
X23957Y-22480D01*
X23867Y-22497D01*
X23781Y-22531D01*
X23771Y-22537D01*
X23699Y-22466D01*
X24232Y-22466D01*
X24587Y-22820D01*
X24586Y-22822D01*
X24550Y-22907D01*
X24531Y-22997D01*
X24529Y-23089D01*
X24546Y-23180D01*
X24580Y-23266D01*
X24630Y-23343D01*
X24694Y-23410D01*
X24770Y-23462D01*
X24854Y-23499D01*
X24944Y-23519D01*
X25036Y-23521D01*
X25127Y-23505D01*
X25213Y-23472D01*
X25291Y-23422D01*
X25357Y-23359D01*
X25411Y-23283D01*
X25448Y-23199D01*
X25469Y-23109D01*
X25470Y-23004D01*
X25452Y-22914D01*
X25417Y-22828D01*
X25366Y-22752D01*
X25301Y-22686D01*
X25225Y-22635D01*
X25140Y-22599D01*
X25049Y-22580D01*
X24957Y-22580D01*
X24867Y-22597D01*
X24781Y-22631D01*
X24771Y-22637D01*
X24477Y-22344D01*
X25210Y-22344D01*
X25586Y-22720D01*
X25586Y-22722D01*
X25550Y-22807D01*
X25531Y-22897D01*
X25529Y-22989D01*
X25546Y-23080D01*
X25580Y-23166D01*
X25630Y-23243D01*
X25694Y-23310D01*
X25770Y-23362D01*
X25854Y-23399D01*
X25944Y-23419D01*
X26036Y-23421D01*
X26127Y-23405D01*
X26213Y-23372D01*
X26291Y-23322D01*
X26357Y-23259D01*
X26411Y-23183D01*
X26448Y-23099D01*
X26469Y-23009D01*
X26470Y-22904D01*
X26452Y-22814D01*
X26417Y-22728D01*
X26366Y-22652D01*
X26301Y-22586D01*
X26225Y-22535D01*
X26140Y-22499D01*
X26049Y-22480D01*
X25957Y-22480D01*
X25867Y-22497D01*
X25781Y-22531D01*
X25771Y-22537D01*
X25456Y-22222D01*
X25988Y-22222D01*
X26586Y-22820D01*
X26586Y-22822D01*
X26550Y-22907D01*
X26531Y-22997D01*
X26529Y-23089D01*
X26546Y-23180D01*
X26580Y-23266D01*
X26630Y-23343D01*
X26694Y-23410D01*
X26770Y-23462D01*
X26854Y-23499D01*
X26944Y-23519D01*
X27036Y-23521D01*
X27127Y-23505D01*
X27213Y-23472D01*
X27291Y-23422D01*
X27357Y-23359D01*
X27411Y-23283D01*
X27448Y-23199D01*
X27469Y-23109D01*
X27470Y-23004D01*
X27452Y-22914D01*
X27417Y-22828D01*
X27366Y-22752D01*
X27301Y-22686D01*
X27225Y-22635D01*
X27140Y-22599D01*
X27049Y-22580D01*
X26957Y-22580D01*
X26867Y-22597D01*
X26781Y-22631D01*
X26771Y-22637D01*
X26234Y-22100D01*
X26866Y-22100D01*
X27586Y-22820D01*
X27586Y-22822D01*
X27550Y-22907D01*
X27531Y-22997D01*
X27529Y-23089D01*
X27546Y-23180D01*
X27580Y-23266D01*
X27630Y-23343D01*
X27694Y-23410D01*
X27770Y-23462D01*
X27854Y-23499D01*
X27944Y-23519D01*
X28036Y-23521D01*
X28127Y-23505D01*
X28213Y-23472D01*
X28291Y-23422D01*
X28357Y-23359D01*
X28411Y-23283D01*
X28448Y-23199D01*
X28469Y-23109D01*
X28470Y-23004D01*
X28452Y-22914D01*
X28417Y-22828D01*
X28366Y-22752D01*
X28333Y-22719D01*
X28485Y-22719D01*
X28586Y-22820D01*
X28586Y-22822D01*
X28550Y-22907D01*
X28531Y-22997D01*
X28529Y-23089D01*
X28546Y-23180D01*
X28580Y-23266D01*
X28630Y-23343D01*
X28694Y-23410D01*
X28770Y-23462D01*
X28854Y-23499D01*
X28944Y-23519D01*
X29036Y-23521D01*
X29127Y-23505D01*
X29213Y-23472D01*
X29291Y-23422D01*
X29357Y-23359D01*
X29411Y-23283D01*
X29448Y-23199D01*
X29469Y-23109D01*
X29470Y-23004D01*
X29452Y-22914D01*
X29417Y-22828D01*
X29366Y-22752D01*
X29301Y-22686D01*
X29225Y-22635D01*
X29140Y-22599D01*
X29049Y-22580D01*
X28957Y-22580D01*
X28867Y-22597D01*
X28781Y-22631D01*
X28771Y-22637D01*
X28684Y-22550D01*
X28821Y-22412D01*
X28904Y-22449D01*
X28994Y-22469D01*
X29086Y-22471D01*
X29177Y-22455D01*
X29263Y-22422D01*
X29341Y-22372D01*
X29407Y-22309D01*
X29461Y-22233D01*
X29498Y-22149D01*
X29519Y-22059D01*
X29520Y-21954D01*
X29520Y-23445D01*
X29384Y-23581D01*
X15616Y-23581D01*
X15419Y-23384D01*
X15419Y-22375D01*
X15419Y-22374D01*
X15417Y-22352D01*
X15417Y-22351D01*
X15410Y-22329D01*
X15400Y-22309D01*
X15399Y-22308D01*
X15385Y-22291D01*
X15384Y-22290D01*
X15367Y-22275D01*
X15347Y-22265D01*
X15346Y-22264D01*
X15324Y-22257D01*
X15304Y-22255D01*
X15302Y-22255D01*
X15301Y-22255D01*
X15300Y-22255D01*
X14996Y-22255D01*
X14729Y-21988D01*
X14729Y-21536D01*
X15262Y-21536D01*
X15524Y-21798D01*
X15500Y-21857D01*
X15481Y-21947D01*
X15479Y-22039D01*
X15496Y-22130D01*
X15530Y-22216D01*
X15580Y-22293D01*
X15644Y-22360D01*
X15720Y-22412D01*
X15804Y-22449D01*
X15894Y-22469D01*
X15986Y-22471D01*
X16077Y-22455D01*
X16163Y-22422D01*
X16241Y-22372D01*
X16307Y-22309D01*
X16361Y-22233D01*
X16393Y-22159D01*
X16598Y-22159D01*
X16600Y-22159D01*
X16629Y-22156D01*
X16631Y-22156D01*
X16647Y-22151D01*
X16659Y-22148D01*
X16661Y-22147D01*
X16687Y-22134D01*
X16688Y-22132D01*
X16711Y-22114D01*
X16711Y-22113D01*
X16712Y-22113D01*
X16712Y-22112D01*
X16717Y-22107D01*
X17816Y-21008D01*
X17856Y-21001D01*
X17894Y-20987D01*
X17928Y-20965D01*
X17958Y-20937D01*
X17981Y-20904D01*
X17998Y-20866D01*
X18007Y-20827D01*
X18008Y-20780D01*
X18000Y-20740D01*
X17985Y-20702D01*
X17962Y-20668D01*
X17933Y-20639D01*
X17900Y-20616D01*
X17862Y-20601D01*
X17822Y-20592D01*
X17781Y-20592D01*
X17741Y-20599D01*
X17704Y-20615D01*
X17669Y-20637D01*
X17640Y-20665D01*
X17617Y-20699D01*
X17601Y-20736D01*
X17592Y-20776D01*
X17592Y-20784D01*
X16535Y-21841D01*
X16392Y-21841D01*
X16367Y-21778D01*
X16316Y-21702D01*
X16251Y-21636D01*
X16175Y-21585D01*
X16090Y-21549D01*
X15999Y-21530D01*
X15907Y-21530D01*
X15817Y-21547D01*
X15748Y-21574D01*
X15444Y-21270D01*
X15441Y-21266D01*
X15439Y-21265D01*
X15417Y-21246D01*
X15415Y-21245D01*
X15390Y-21231D01*
X15389Y-21230D01*
X15388Y-21230D01*
X15378Y-21227D01*
X15360Y-21221D01*
X15329Y-21218D01*
X15328Y-21218D01*
X15327Y-21218D01*
X14729Y-21218D01*
X14729Y-20523D01*
X15389Y-20523D01*
X15636Y-20770D01*
X15636Y-20772D01*
X15600Y-20857D01*
X15581Y-20947D01*
X15579Y-21039D01*
X15596Y-21130D01*
X15630Y-21216D01*
X15680Y-21293D01*
X15744Y-21360D01*
X15820Y-21412D01*
X15904Y-21449D01*
X15994Y-21469D01*
X16086Y-21471D01*
X16177Y-21455D01*
X16263Y-21422D01*
X16341Y-21372D01*
X16407Y-21309D01*
X16461Y-21233D01*
X16498Y-21149D01*
X16519Y-21059D01*
X16520Y-20954D01*
X16502Y-20864D01*
X16467Y-20778D01*
X16416Y-20702D01*
X16351Y-20636D01*
X16275Y-20585D01*
X16190Y-20549D01*
X16099Y-20530D01*
X16007Y-20530D01*
X15917Y-20547D01*
X15831Y-20581D01*
X15821Y-20587D01*
X15536Y-20302D01*
X15535Y-20301D01*
X15516Y-20285D01*
X15494Y-20274D01*
X15492Y-20273D01*
X15484Y-20270D01*
X15470Y-20266D01*
X15445Y-20263D01*
X15443Y-20263D01*
X14729Y-20263D01*
X14729Y-19737D01*
X15503Y-19737D01*
X15536Y-19770D01*
X15536Y-19772D01*
X15500Y-19857D01*
X15481Y-19947D01*
X15479Y-20039D01*
X15496Y-20130D01*
X15530Y-20216D01*
X15580Y-20293D01*
X15644Y-20360D01*
X15720Y-20412D01*
X15804Y-20449D01*
X15894Y-20469D01*
X15986Y-20471D01*
X16077Y-20455D01*
X16163Y-20422D01*
X16241Y-20372D01*
X16307Y-20309D01*
X16361Y-20233D01*
X16398Y-20149D01*
X16419Y-20059D01*
X16420Y-19954D01*
X16402Y-19864D01*
X16367Y-19778D01*
X16338Y-19734D01*
X16338Y-19330D01*
X16050Y-19041D01*
X16009Y-19082D01*
X16009Y-19000D01*
X15720Y-18712D01*
X15662Y-18753D01*
X15621Y-18833D01*
X15597Y-18919D01*
X15590Y-19008D01*
X15600Y-19098D01*
X15628Y-19183D01*
X15662Y-19247D01*
X15720Y-19288D01*
X16009Y-19000D01*
X16009Y-19082D01*
X15762Y-19330D01*
X15803Y-19388D01*
X15883Y-19429D01*
X15969Y-19453D01*
X16058Y-19460D01*
X16148Y-19450D01*
X16233Y-19422D01*
X16297Y-19388D01*
X16338Y-19330D01*
X16338Y-19734D01*
X16316Y-19702D01*
X16251Y-19636D01*
X16175Y-19585D01*
X16090Y-19549D01*
X15999Y-19530D01*
X15907Y-19530D01*
X15817Y-19547D01*
X15731Y-19581D01*
X15721Y-19587D01*
X15650Y-19516D01*
X15649Y-19515D01*
X15630Y-19499D01*
X15608Y-19488D01*
X15606Y-19487D01*
X15598Y-19484D01*
X15584Y-19480D01*
X15559Y-19477D01*
X15557Y-19477D01*
X14729Y-19477D01*
X14729Y-18012D01*
X14992Y-17749D01*
X15299Y-17749D01*
X15300Y-17749D01*
X15322Y-17747D01*
X15323Y-17747D01*
X15345Y-17740D01*
X15365Y-17730D01*
X15366Y-17729D01*
X15383Y-17715D01*
X15383Y-17714D01*
X15384Y-17714D01*
X15398Y-17697D01*
X15399Y-17697D01*
X15409Y-17677D01*
X15410Y-17676D01*
X15416Y-17655D01*
X15417Y-17654D01*
X15418Y-17634D01*
X15419Y-17632D01*
X15419Y-17631D01*
X15419Y-17630D01*
X15419Y-16616D01*
X15616Y-16419D01*
X29384Y-16419D01*
X29581Y-16616D01*
X29581Y-23384D01*
M02*
