G04 (created by PCBNEW-RS274X (2012-03-22 BZR 3475)-stable) date Thu Sep  6 17:48:52 2012*
G01*
G70*
G90*
%MOIN*%
G04 Gerber Fmt 3.4, Leading zero omitted, Abs format*
%FSLAX34Y34*%
G04 APERTURE LIST*
%ADD10C,0.006000*%
%ADD11C,0.003900*%
%ADD12R,0.086500X0.023500*%
%ADD13R,0.082600X0.090500*%
%ADD14R,0.070800X0.090500*%
%ADD15R,0.082600X0.082600*%
%ADD16C,0.081800*%
%ADD17R,0.032800X0.032800*%
%ADD18R,0.023500X0.032800*%
%ADD19R,0.070800X0.031800*%
%ADD20R,0.066100X0.030800*%
%ADD21R,0.047200X0.052800*%
%ADD22R,0.052800X0.032800*%
%ADD23R,0.062800X0.042800*%
%ADD24R,0.052800X0.047200*%
%ADD25R,0.037800X0.037800*%
%ADD26R,0.042800X0.062800*%
%ADD27R,0.032800X0.023500*%
%ADD28R,0.033400X0.047200*%
%ADD29R,0.047200X0.033400*%
%ADD30R,0.052800X0.043200*%
%ADD31R,0.052800X0.062800*%
%ADD32R,0.106200X0.047100*%
G04 APERTURE END LIST*
G54D10*
G54D11*
X15300Y-17630D02*
X15300Y-16300D01*
X15300Y-22374D02*
X15300Y-23700D01*
X29700Y-23700D02*
X15300Y-23700D01*
X29700Y-16300D02*
X29700Y-23700D01*
X15300Y-16300D02*
X29700Y-16300D01*
X10039Y-17630D02*
X15300Y-17630D01*
X10039Y-22374D02*
X15300Y-22374D01*
X10039Y-17630D02*
X10039Y-22374D01*
G54D12*
X11771Y-20000D03*
X11771Y-20255D03*
X11771Y-19489D03*
G54D13*
X10610Y-21516D03*
X10610Y-18484D03*
G54D12*
X11771Y-19745D03*
X11771Y-20511D03*
G54D14*
X11614Y-21220D03*
X11614Y-18780D03*
G54D15*
X10610Y-20472D03*
X10610Y-19528D03*
G54D16*
X28050Y-18000D03*
X27950Y-19000D03*
X28050Y-20000D03*
X27950Y-21000D03*
X28050Y-22000D03*
X29050Y-18000D03*
X28950Y-19000D03*
X29050Y-20000D03*
X28950Y-21000D03*
X29050Y-22000D03*
X16000Y-17050D03*
X17000Y-16950D03*
X18000Y-17050D03*
X19000Y-16950D03*
X20000Y-17050D03*
X21000Y-16950D03*
X22000Y-17050D03*
X23000Y-16950D03*
X24000Y-17050D03*
X25000Y-16950D03*
X26000Y-17050D03*
X27000Y-16950D03*
X28000Y-17050D03*
X29000Y-16950D03*
X16000Y-23050D03*
X17000Y-22950D03*
X18000Y-23050D03*
X19000Y-22950D03*
X20000Y-23050D03*
X21000Y-22950D03*
X22000Y-23050D03*
X23000Y-22950D03*
X24000Y-23050D03*
X25000Y-22950D03*
X26000Y-23050D03*
X27000Y-22950D03*
X28000Y-23050D03*
X29000Y-22950D03*
G54D17*
X14683Y-19890D03*
X15037Y-19890D03*
G54D18*
X14860Y-19890D03*
G54D17*
X14683Y-20690D03*
X15037Y-20690D03*
G54D18*
X14860Y-20690D03*
G54D19*
X20437Y-19350D03*
X20437Y-18850D03*
X20437Y-18350D03*
X20437Y-17850D03*
X22563Y-17850D03*
X22563Y-18350D03*
X22563Y-18850D03*
X22563Y-19350D03*
G54D20*
X19626Y-19350D03*
X19626Y-18850D03*
X19626Y-18350D03*
X19626Y-17850D03*
G54D21*
X18554Y-18000D03*
X17846Y-18000D03*
X18200Y-18000D03*
G54D22*
X18600Y-19890D03*
X18600Y-20490D03*
G54D23*
X17100Y-17925D03*
X17100Y-18675D03*
G54D22*
X23400Y-19300D03*
X23400Y-18700D03*
G54D24*
X24000Y-20854D03*
X24000Y-20146D03*
X24000Y-20500D03*
G54D17*
X14683Y-20290D03*
X15037Y-20290D03*
G54D18*
X14860Y-20290D03*
G54D16*
X15950Y-22000D03*
X16050Y-21000D03*
X15950Y-20000D03*
X16015Y-18960D03*
X15985Y-18040D03*
G54D25*
X17100Y-20100D03*
G54D26*
X25725Y-18300D03*
X26475Y-18300D03*
G54D23*
X24700Y-19975D03*
X24700Y-19225D03*
G54D25*
X17100Y-19500D03*
G54D17*
X25300Y-19623D03*
X25300Y-19977D03*
G54D27*
X25300Y-19800D03*
G54D28*
X25725Y-19000D03*
X26475Y-19000D03*
X25725Y-20000D03*
X26100Y-19000D03*
X26475Y-20000D03*
G54D29*
X17800Y-19375D03*
X17800Y-18625D03*
X18800Y-19375D03*
X17800Y-19000D03*
X18800Y-18625D03*
G54D22*
X17100Y-20900D03*
X17100Y-21500D03*
G54D30*
X17100Y-21200D03*
G54D26*
X26450Y-20700D03*
X25700Y-20700D03*
X24950Y-20700D03*
G54D31*
X26075Y-20700D03*
X25325Y-20700D03*
G54D22*
X18000Y-22000D03*
X18000Y-21400D03*
X26800Y-22000D03*
X26800Y-21400D03*
G54D30*
X26800Y-21700D03*
G54D22*
X19400Y-20300D03*
X19400Y-20900D03*
G54D30*
X19400Y-20600D03*
G54D22*
X18600Y-20890D03*
X18600Y-21490D03*
G54D32*
X19400Y-22320D03*
X19400Y-21320D03*
M02*
