G04 (created by PCBNEW-RS274X (2012-03-22 BZR 3475)-stable) date Sat Sep  8 15:23:55 2012*
G01*
G70*
G90*
%MOIN*%
G04 Gerber Fmt 3.4, Leading zero omitted, Abs format*
%FSLAX34Y34*%
G04 APERTURE LIST*
%ADD10C,0.006000*%
%ADD11C,0.005900*%
%ADD12C,0.003900*%
%ADD13C,0.011800*%
%ADD14C,0.000100*%
%ADD15R,0.047200X0.033400*%
%ADD16R,0.037800X0.037800*%
%ADD17R,0.106200X0.047100*%
%ADD18C,0.134200*%
%ADD19R,0.086500X0.023500*%
%ADD20R,0.082600X0.090500*%
%ADD21R,0.070800X0.090500*%
%ADD22R,0.082600X0.082600*%
%ADD23C,0.081800*%
%ADD24R,0.032800X0.032800*%
%ADD25R,0.023500X0.032800*%
%ADD26R,0.070800X0.031800*%
%ADD27R,0.066100X0.030800*%
%ADD28R,0.047200X0.052800*%
%ADD29R,0.052800X0.032800*%
%ADD30R,0.062800X0.042800*%
%ADD31R,0.042800X0.062800*%
%ADD32R,0.052800X0.043200*%
%ADD33R,0.052800X0.062800*%
G04 APERTURE END LIST*
G54D10*
G54D11*
X25722Y-22043D02*
X25677Y-21689D01*
X25591Y-21942D01*
X25441Y-21689D01*
X25486Y-22043D01*
X25110Y-22010D02*
X25129Y-22026D01*
X25182Y-22043D01*
X25216Y-22043D01*
X25264Y-22026D01*
X25293Y-21993D01*
X25306Y-21959D01*
X25315Y-21892D01*
X25308Y-21841D01*
X25283Y-21774D01*
X25262Y-21740D01*
X25224Y-21706D01*
X25171Y-21689D01*
X25137Y-21689D01*
X25089Y-21706D01*
X25074Y-21723D01*
X24693Y-22043D02*
X24648Y-21689D01*
X24670Y-21858D02*
X24467Y-21858D01*
X24490Y-22043D02*
X24445Y-21689D01*
X24115Y-22010D02*
X24134Y-22026D01*
X24187Y-22043D01*
X24221Y-22043D01*
X24269Y-22026D01*
X24298Y-21993D01*
X24311Y-21959D01*
X24320Y-21892D01*
X24313Y-21841D01*
X24288Y-21774D01*
X24267Y-21740D01*
X24229Y-21706D01*
X24176Y-21689D01*
X24142Y-21689D01*
X24094Y-21706D01*
X24079Y-21723D01*
X23968Y-22043D02*
X23923Y-21689D01*
X23765Y-22043D02*
X23891Y-21841D01*
X23720Y-21689D02*
X23949Y-21892D01*
X23610Y-22010D02*
X23595Y-22026D01*
X23614Y-22043D01*
X23629Y-22026D01*
X23610Y-22010D01*
X23614Y-22043D01*
X23597Y-21908D02*
X23589Y-21706D01*
X23569Y-21689D01*
X23555Y-21706D01*
X23597Y-21908D01*
X23569Y-21689D01*
G54D12*
X15300Y-17630D02*
X15300Y-16300D01*
X15300Y-22374D02*
X15300Y-23700D01*
X29700Y-23700D02*
X15300Y-23700D01*
X29700Y-16300D02*
X29700Y-23700D01*
X15300Y-16300D02*
X29700Y-16300D01*
X10039Y-17630D02*
X15300Y-17630D01*
X10039Y-22374D02*
X15300Y-22374D01*
X10039Y-17630D02*
X10039Y-22374D01*
G54D11*
X17511Y-18400D02*
X19089Y-18400D01*
X17510Y-18400D02*
X17510Y-19600D01*
X17511Y-19600D02*
X19089Y-19600D01*
X19089Y-19600D02*
X19089Y-18400D01*
X16874Y-19726D02*
X17326Y-19726D01*
X17326Y-19726D02*
X17326Y-19274D01*
X17326Y-19274D02*
X16874Y-19274D01*
X16874Y-19274D02*
X16874Y-19726D01*
X20121Y-22539D02*
X20121Y-21121D01*
X20121Y-21121D02*
X18979Y-21121D01*
X18979Y-21121D02*
X18979Y-22539D01*
X18979Y-22539D02*
X20121Y-22539D01*
X12047Y-20807D02*
X12047Y-21752D01*
X12047Y-21752D02*
X11201Y-21752D01*
X12047Y-19193D02*
X12047Y-18248D01*
X12047Y-18248D02*
X11201Y-18248D01*
X15174Y-19697D02*
X14546Y-19697D01*
X14546Y-20083D02*
X15174Y-20083D01*
X15173Y-20082D02*
X15182Y-20080D01*
X15190Y-20077D01*
X15198Y-20073D01*
X15205Y-20069D01*
X15213Y-20065D01*
X15219Y-20059D01*
X15226Y-20053D01*
X15231Y-20047D01*
X15237Y-20040D01*
X15241Y-20032D01*
X15245Y-20025D01*
X15248Y-20017D01*
X15251Y-20008D01*
X15252Y-20000D01*
X15253Y-19991D01*
X15253Y-19984D01*
X15253Y-19975D01*
X15252Y-19967D01*
X14468Y-19966D02*
X14466Y-19974D01*
X14466Y-19983D01*
X14466Y-19991D01*
X14467Y-19999D01*
X14468Y-20008D01*
X14471Y-20016D01*
X14474Y-20024D01*
X14478Y-20032D01*
X14482Y-20040D01*
X14487Y-20047D01*
X14493Y-20053D01*
X14499Y-20059D01*
X14506Y-20065D01*
X14513Y-20070D01*
X14521Y-20074D01*
X14529Y-20078D01*
X14537Y-20080D01*
X14546Y-20082D01*
X14547Y-19698D02*
X14538Y-19700D01*
X14530Y-19703D01*
X14522Y-19707D01*
X14515Y-19711D01*
X14507Y-19715D01*
X14501Y-19721D01*
X14494Y-19727D01*
X14489Y-19733D01*
X14483Y-19740D01*
X14479Y-19748D01*
X14475Y-19755D01*
X14472Y-19763D01*
X14469Y-19772D01*
X14468Y-19780D01*
X14467Y-19789D01*
X14467Y-19796D01*
X14467Y-19805D01*
X14468Y-19813D01*
X15252Y-19814D02*
X15254Y-19806D01*
X15254Y-19797D01*
X15254Y-19789D01*
X15253Y-19781D01*
X15252Y-19772D01*
X15249Y-19764D01*
X15246Y-19756D01*
X15242Y-19748D01*
X15238Y-19740D01*
X15233Y-19733D01*
X15227Y-19727D01*
X15221Y-19721D01*
X15214Y-19715D01*
X15207Y-19710D01*
X15199Y-19706D01*
X15191Y-19702D01*
X15183Y-19700D01*
X15174Y-19698D01*
X15174Y-20497D02*
X14546Y-20497D01*
X14546Y-20883D02*
X15174Y-20883D01*
X15173Y-20882D02*
X15182Y-20880D01*
X15190Y-20877D01*
X15198Y-20873D01*
X15205Y-20869D01*
X15213Y-20865D01*
X15219Y-20859D01*
X15226Y-20853D01*
X15231Y-20847D01*
X15237Y-20840D01*
X15241Y-20832D01*
X15245Y-20825D01*
X15248Y-20817D01*
X15251Y-20808D01*
X15252Y-20800D01*
X15253Y-20791D01*
X15253Y-20784D01*
X15253Y-20775D01*
X15252Y-20767D01*
X14468Y-20766D02*
X14466Y-20774D01*
X14466Y-20783D01*
X14466Y-20791D01*
X14467Y-20799D01*
X14468Y-20808D01*
X14471Y-20816D01*
X14474Y-20824D01*
X14478Y-20832D01*
X14482Y-20840D01*
X14487Y-20847D01*
X14493Y-20853D01*
X14499Y-20859D01*
X14506Y-20865D01*
X14513Y-20870D01*
X14521Y-20874D01*
X14529Y-20878D01*
X14537Y-20880D01*
X14546Y-20882D01*
X14547Y-20498D02*
X14538Y-20500D01*
X14530Y-20503D01*
X14522Y-20507D01*
X14515Y-20511D01*
X14507Y-20515D01*
X14501Y-20521D01*
X14494Y-20527D01*
X14489Y-20533D01*
X14483Y-20540D01*
X14479Y-20548D01*
X14475Y-20555D01*
X14472Y-20563D01*
X14469Y-20572D01*
X14468Y-20580D01*
X14467Y-20589D01*
X14467Y-20596D01*
X14467Y-20605D01*
X14468Y-20613D01*
X15252Y-20614D02*
X15254Y-20606D01*
X15254Y-20597D01*
X15254Y-20589D01*
X15253Y-20581D01*
X15252Y-20572D01*
X15249Y-20564D01*
X15246Y-20556D01*
X15242Y-20548D01*
X15238Y-20540D01*
X15233Y-20533D01*
X15227Y-20527D01*
X15221Y-20521D01*
X15214Y-20515D01*
X15207Y-20510D01*
X15199Y-20506D01*
X15191Y-20502D01*
X15183Y-20500D01*
X15174Y-20498D01*
X20043Y-19565D02*
X19256Y-19565D01*
X19256Y-19565D02*
X19256Y-17635D01*
X19256Y-17635D02*
X20043Y-17635D01*
X22957Y-19565D02*
X22957Y-17635D01*
X22957Y-17635D02*
X20043Y-17635D01*
X20043Y-17635D02*
X20043Y-19565D01*
X20043Y-19565D02*
X22957Y-19565D01*
G54D13*
X20981Y-19359D02*
X20980Y-19366D01*
X20978Y-19373D01*
X20974Y-19380D01*
X20969Y-19386D01*
X20963Y-19391D01*
X20957Y-19394D01*
X20949Y-19397D01*
X20942Y-19397D01*
X20935Y-19397D01*
X20928Y-19395D01*
X20921Y-19391D01*
X20915Y-19386D01*
X20910Y-19381D01*
X20907Y-19374D01*
X20904Y-19367D01*
X20904Y-19359D01*
X20904Y-19352D01*
X20906Y-19345D01*
X20910Y-19338D01*
X20914Y-19332D01*
X20920Y-19327D01*
X20927Y-19324D01*
X20934Y-19321D01*
X20942Y-19321D01*
X20948Y-19321D01*
X20956Y-19323D01*
X20962Y-19327D01*
X20968Y-19331D01*
X20973Y-19337D01*
X20977Y-19344D01*
X20980Y-19351D01*
X20980Y-19358D01*
X20981Y-19359D01*
G54D11*
X18925Y-17700D02*
X18925Y-18300D01*
X18825Y-17700D02*
X17575Y-17700D01*
X17575Y-17700D02*
X17575Y-18300D01*
X17575Y-18300D02*
X18825Y-18300D01*
X18825Y-18300D02*
X18825Y-17700D01*
X18300Y-19690D02*
X18300Y-20690D01*
X18300Y-20690D02*
X18900Y-20690D01*
X18900Y-20690D02*
X18900Y-19690D01*
X18900Y-19690D02*
X18300Y-19690D01*
X16750Y-17675D02*
X16750Y-18925D01*
X16750Y-18925D02*
X17450Y-18925D01*
X17450Y-18925D02*
X17450Y-17675D01*
X17450Y-17675D02*
X16750Y-17675D01*
X23700Y-19500D02*
X23700Y-18500D01*
X23700Y-18500D02*
X23100Y-18500D01*
X23100Y-18500D02*
X23100Y-19500D01*
X23100Y-19500D02*
X23700Y-19500D01*
X27025Y-19800D02*
X27025Y-20400D01*
X26925Y-19800D02*
X25675Y-19800D01*
X25675Y-19800D02*
X25675Y-20400D01*
X25675Y-20400D02*
X26925Y-20400D01*
X26925Y-20400D02*
X26925Y-19800D01*
X15174Y-20097D02*
X14546Y-20097D01*
X14546Y-20483D02*
X15174Y-20483D01*
X15173Y-20482D02*
X15182Y-20480D01*
X15190Y-20477D01*
X15198Y-20473D01*
X15205Y-20469D01*
X15213Y-20465D01*
X15219Y-20459D01*
X15226Y-20453D01*
X15231Y-20447D01*
X15237Y-20440D01*
X15241Y-20432D01*
X15245Y-20425D01*
X15248Y-20417D01*
X15251Y-20408D01*
X15252Y-20400D01*
X15253Y-20391D01*
X15253Y-20384D01*
X15253Y-20375D01*
X15252Y-20367D01*
X14468Y-20366D02*
X14466Y-20374D01*
X14466Y-20383D01*
X14466Y-20391D01*
X14467Y-20399D01*
X14468Y-20408D01*
X14471Y-20416D01*
X14474Y-20424D01*
X14478Y-20432D01*
X14482Y-20440D01*
X14487Y-20447D01*
X14493Y-20453D01*
X14499Y-20459D01*
X14506Y-20465D01*
X14513Y-20470D01*
X14521Y-20474D01*
X14529Y-20478D01*
X14537Y-20480D01*
X14546Y-20482D01*
X14547Y-20098D02*
X14538Y-20100D01*
X14530Y-20103D01*
X14522Y-20107D01*
X14515Y-20111D01*
X14507Y-20115D01*
X14501Y-20121D01*
X14494Y-20127D01*
X14489Y-20133D01*
X14483Y-20140D01*
X14479Y-20148D01*
X14475Y-20155D01*
X14472Y-20163D01*
X14469Y-20172D01*
X14468Y-20180D01*
X14467Y-20189D01*
X14467Y-20196D01*
X14467Y-20205D01*
X14468Y-20213D01*
X15252Y-20214D02*
X15254Y-20206D01*
X15254Y-20197D01*
X15254Y-20189D01*
X15253Y-20181D01*
X15252Y-20172D01*
X15249Y-20164D01*
X15246Y-20156D01*
X15242Y-20148D01*
X15238Y-20140D01*
X15233Y-20133D01*
X15227Y-20127D01*
X15221Y-20121D01*
X15214Y-20115D01*
X15207Y-20110D01*
X15199Y-20106D01*
X15191Y-20102D01*
X15183Y-20100D01*
X15174Y-20098D01*
X27025Y-18950D02*
X25775Y-18950D01*
X25775Y-18950D02*
X25775Y-19650D01*
X25775Y-19650D02*
X27025Y-19650D01*
X27025Y-19650D02*
X27025Y-18950D01*
X24475Y-19650D02*
X25725Y-19650D01*
X25725Y-19650D02*
X25725Y-18950D01*
X25725Y-18950D02*
X24475Y-18950D01*
X24475Y-18950D02*
X24475Y-19650D01*
X24886Y-18793D02*
X25514Y-18793D01*
X25514Y-18407D02*
X24886Y-18407D01*
X24887Y-18408D02*
X24878Y-18410D01*
X24870Y-18413D01*
X24862Y-18417D01*
X24855Y-18421D01*
X24847Y-18425D01*
X24841Y-18431D01*
X24834Y-18437D01*
X24829Y-18443D01*
X24823Y-18450D01*
X24819Y-18458D01*
X24815Y-18465D01*
X24812Y-18473D01*
X24809Y-18482D01*
X24808Y-18490D01*
X24807Y-18499D01*
X24807Y-18506D01*
X24807Y-18515D01*
X24808Y-18523D01*
X25592Y-18524D02*
X25594Y-18516D01*
X25594Y-18507D01*
X25594Y-18499D01*
X25593Y-18491D01*
X25592Y-18482D01*
X25589Y-18474D01*
X25586Y-18466D01*
X25582Y-18458D01*
X25578Y-18450D01*
X25573Y-18443D01*
X25567Y-18437D01*
X25561Y-18431D01*
X25554Y-18425D01*
X25547Y-18420D01*
X25539Y-18416D01*
X25531Y-18412D01*
X25523Y-18410D01*
X25514Y-18408D01*
X25513Y-18792D02*
X25522Y-18790D01*
X25530Y-18787D01*
X25538Y-18783D01*
X25545Y-18779D01*
X25553Y-18775D01*
X25559Y-18769D01*
X25566Y-18763D01*
X25571Y-18757D01*
X25577Y-18750D01*
X25581Y-18742D01*
X25585Y-18735D01*
X25588Y-18727D01*
X25591Y-18718D01*
X25592Y-18710D01*
X25593Y-18701D01*
X25593Y-18694D01*
X25593Y-18685D01*
X25592Y-18677D01*
X24808Y-18676D02*
X24806Y-18684D01*
X24806Y-18693D01*
X24806Y-18701D01*
X24807Y-18709D01*
X24808Y-18718D01*
X24811Y-18726D01*
X24814Y-18734D01*
X24818Y-18742D01*
X24822Y-18750D01*
X24827Y-18757D01*
X24833Y-18763D01*
X24839Y-18769D01*
X24846Y-18775D01*
X24853Y-18780D01*
X24861Y-18784D01*
X24869Y-18788D01*
X24877Y-18790D01*
X24886Y-18792D01*
G54D14*
G36*
X21153Y-22331D02*
X21167Y-22323D01*
X21198Y-22304D01*
X21242Y-22275D01*
X21294Y-22241D01*
X21346Y-22205D01*
X21389Y-22177D01*
X21419Y-22157D01*
X21431Y-22150D01*
X21438Y-22153D01*
X21463Y-22165D01*
X21498Y-22183D01*
X21519Y-22194D01*
X21552Y-22208D01*
X21569Y-22211D01*
X21571Y-22207D01*
X21583Y-22182D01*
X21602Y-22139D01*
X21627Y-22082D01*
X21656Y-22015D01*
X21686Y-21943D01*
X21717Y-21870D01*
X21746Y-21800D01*
X21771Y-21737D01*
X21792Y-21685D01*
X21806Y-21650D01*
X21811Y-21635D01*
X21809Y-21631D01*
X21793Y-21615D01*
X21764Y-21594D01*
X21702Y-21543D01*
X21640Y-21467D01*
X21603Y-21380D01*
X21590Y-21283D01*
X21601Y-21193D01*
X21636Y-21107D01*
X21696Y-21030D01*
X21769Y-20972D01*
X21854Y-20936D01*
X21950Y-20924D01*
X22041Y-20934D01*
X22129Y-20969D01*
X22207Y-21028D01*
X22240Y-21066D01*
X22285Y-21144D01*
X22310Y-21228D01*
X22313Y-21250D01*
X22309Y-21342D01*
X22282Y-21430D01*
X22233Y-21509D01*
X22166Y-21574D01*
X22157Y-21580D01*
X22126Y-21604D01*
X22105Y-21620D01*
X22088Y-21633D01*
X22206Y-21916D01*
X22225Y-21961D01*
X22257Y-22039D01*
X22285Y-22105D01*
X22308Y-22158D01*
X22324Y-22194D01*
X22331Y-22208D01*
X22331Y-22209D01*
X22342Y-22211D01*
X22363Y-22203D01*
X22403Y-22184D01*
X22429Y-22170D01*
X22459Y-22156D01*
X22473Y-22150D01*
X22484Y-22157D01*
X22513Y-22175D01*
X22555Y-22203D01*
X22606Y-22238D01*
X22654Y-22271D01*
X22698Y-22300D01*
X22730Y-22321D01*
X22746Y-22329D01*
X22748Y-22329D01*
X22762Y-22321D01*
X22788Y-22300D01*
X22826Y-22264D01*
X22881Y-22210D01*
X22889Y-22201D01*
X22934Y-22156D01*
X22970Y-22118D01*
X22995Y-22090D01*
X23004Y-22078D01*
X23004Y-22078D01*
X22996Y-22063D01*
X22975Y-22030D01*
X22946Y-21985D01*
X22910Y-21933D01*
X22816Y-21797D01*
X22868Y-21668D01*
X22884Y-21629D01*
X22904Y-21581D01*
X22919Y-21547D01*
X22926Y-21532D01*
X22940Y-21527D01*
X22975Y-21519D01*
X23026Y-21508D01*
X23087Y-21497D01*
X23145Y-21486D01*
X23197Y-21476D01*
X23235Y-21469D01*
X23252Y-21466D01*
X23256Y-21463D01*
X23260Y-21455D01*
X23262Y-21437D01*
X23263Y-21405D01*
X23264Y-21355D01*
X23264Y-21283D01*
X23264Y-21275D01*
X23263Y-21206D01*
X23262Y-21151D01*
X23260Y-21115D01*
X23258Y-21101D01*
X23258Y-21101D01*
X23241Y-21097D01*
X23204Y-21089D01*
X23152Y-21079D01*
X23090Y-21067D01*
X23086Y-21066D01*
X23024Y-21054D01*
X22971Y-21043D01*
X22935Y-21035D01*
X22920Y-21030D01*
X22916Y-21026D01*
X22904Y-21001D01*
X22886Y-20963D01*
X22865Y-20916D01*
X22845Y-20867D01*
X22828Y-20823D01*
X22816Y-20790D01*
X22812Y-20775D01*
X22812Y-20775D01*
X22822Y-20760D01*
X22843Y-20728D01*
X22873Y-20683D01*
X22910Y-20630D01*
X22912Y-20626D01*
X22948Y-20574D01*
X22977Y-20529D01*
X22996Y-20497D01*
X23004Y-20483D01*
X23003Y-20482D01*
X22992Y-20467D01*
X22965Y-20437D01*
X22927Y-20397D01*
X22881Y-20350D01*
X22866Y-20336D01*
X22815Y-20286D01*
X22779Y-20253D01*
X22757Y-20236D01*
X22747Y-20232D01*
X22746Y-20232D01*
X22730Y-20242D01*
X22697Y-20264D01*
X22652Y-20294D01*
X22599Y-20330D01*
X22595Y-20333D01*
X22543Y-20369D01*
X22499Y-20398D01*
X22468Y-20419D01*
X22454Y-20427D01*
X22452Y-20427D01*
X22430Y-20421D01*
X22393Y-20408D01*
X22347Y-20390D01*
X22298Y-20370D01*
X22254Y-20352D01*
X22221Y-20337D01*
X22206Y-20328D01*
X22205Y-20327D01*
X22200Y-20308D01*
X22191Y-20269D01*
X22179Y-20215D01*
X22167Y-20150D01*
X22165Y-20140D01*
X22153Y-20077D01*
X22143Y-20026D01*
X22136Y-19990D01*
X22132Y-19975D01*
X22123Y-19973D01*
X22093Y-19971D01*
X22046Y-19970D01*
X21990Y-19969D01*
X21930Y-19969D01*
X21872Y-19971D01*
X21823Y-19972D01*
X21787Y-19975D01*
X21772Y-19978D01*
X21772Y-19979D01*
X21766Y-19998D01*
X21758Y-20037D01*
X21747Y-20092D01*
X21734Y-20156D01*
X21732Y-20168D01*
X21720Y-20230D01*
X21710Y-20281D01*
X21702Y-20317D01*
X21698Y-20331D01*
X21693Y-20334D01*
X21667Y-20345D01*
X21625Y-20362D01*
X21573Y-20383D01*
X21453Y-20432D01*
X21305Y-20331D01*
X21292Y-20322D01*
X21239Y-20285D01*
X21195Y-20256D01*
X21165Y-20237D01*
X21152Y-20230D01*
X21151Y-20230D01*
X21136Y-20243D01*
X21107Y-20270D01*
X21067Y-20309D01*
X21021Y-20356D01*
X20986Y-20390D01*
X20946Y-20431D01*
X20920Y-20459D01*
X20906Y-20477D01*
X20901Y-20488D01*
X20902Y-20495D01*
X20912Y-20510D01*
X20933Y-20543D01*
X20964Y-20587D01*
X21000Y-20640D01*
X21029Y-20683D01*
X21061Y-20733D01*
X21082Y-20768D01*
X21089Y-20785D01*
X21087Y-20793D01*
X21077Y-20821D01*
X21060Y-20865D01*
X21037Y-20917D01*
X20986Y-21034D01*
X20910Y-21049D01*
X20863Y-21057D01*
X20798Y-21070D01*
X20736Y-21082D01*
X20639Y-21101D01*
X20636Y-21457D01*
X20651Y-21463D01*
X20665Y-21467D01*
X20701Y-21475D01*
X20752Y-21485D01*
X20813Y-21496D01*
X20864Y-21506D01*
X20916Y-21516D01*
X20954Y-21523D01*
X20970Y-21527D01*
X20974Y-21532D01*
X20987Y-21557D01*
X21006Y-21597D01*
X21026Y-21645D01*
X21047Y-21695D01*
X21065Y-21741D01*
X21078Y-21776D01*
X21083Y-21795D01*
X21076Y-21808D01*
X21056Y-21839D01*
X21028Y-21882D01*
X20992Y-21934D01*
X20957Y-21985D01*
X20927Y-22030D01*
X20907Y-22061D01*
X20898Y-22076D01*
X20902Y-22086D01*
X20923Y-22111D01*
X20962Y-22151D01*
X21020Y-22208D01*
X21029Y-22217D01*
X21075Y-22262D01*
X21114Y-22298D01*
X21141Y-22322D01*
X21153Y-22331D01*
X21153Y-22331D01*
G37*
G54D11*
X16800Y-20700D02*
X16800Y-21700D01*
X16800Y-21700D02*
X17400Y-21700D01*
X17400Y-21700D02*
X17400Y-20700D01*
X17400Y-20700D02*
X16800Y-20700D01*
X25600Y-17650D02*
X23600Y-17650D01*
X23600Y-17650D02*
X23600Y-18350D01*
X23600Y-18350D02*
X25600Y-18350D01*
X25600Y-18350D02*
X25600Y-17650D01*
X18300Y-22200D02*
X18300Y-21200D01*
X18300Y-21200D02*
X17700Y-21200D01*
X17700Y-21200D02*
X17700Y-22200D01*
X17700Y-22200D02*
X18300Y-22200D01*
X27300Y-22200D02*
X27300Y-21200D01*
X27300Y-21200D02*
X26700Y-21200D01*
X26700Y-21200D02*
X26700Y-22200D01*
X26700Y-22200D02*
X27300Y-22200D01*
X19100Y-20100D02*
X19100Y-21100D01*
X19100Y-21100D02*
X19700Y-21100D01*
X19700Y-21100D02*
X19700Y-20100D01*
X19700Y-20100D02*
X19100Y-20100D01*
X18300Y-20690D02*
X18300Y-21690D01*
X18300Y-21690D02*
X18900Y-21690D01*
X18900Y-21690D02*
X18900Y-20690D01*
X18900Y-20690D02*
X18300Y-20690D01*
X27189Y-18800D02*
X25611Y-18800D01*
X27190Y-18800D02*
X27190Y-17600D01*
X27189Y-17600D02*
X25611Y-17600D01*
X25611Y-17600D02*
X25611Y-18800D01*
X16874Y-20326D02*
X17326Y-20326D01*
X17326Y-20326D02*
X17326Y-19874D01*
X17326Y-19874D02*
X16874Y-19874D01*
X16874Y-19874D02*
X16874Y-20326D01*
X18045Y-19689D02*
X18045Y-19976D01*
X18028Y-20010D01*
X18011Y-20026D01*
X17977Y-20043D01*
X17910Y-20043D01*
X17876Y-20026D01*
X17859Y-20010D01*
X17842Y-19976D01*
X17842Y-19689D01*
X17691Y-19723D02*
X17674Y-19706D01*
X17640Y-19689D01*
X17556Y-19689D01*
X17522Y-19706D01*
X17505Y-19723D01*
X17488Y-19757D01*
X17488Y-19790D01*
X17505Y-19841D01*
X17707Y-20043D01*
X17488Y-20043D01*
X16785Y-19198D02*
X16801Y-19181D01*
X16818Y-19130D01*
X16818Y-19096D01*
X16801Y-19046D01*
X16768Y-19012D01*
X16734Y-18995D01*
X16667Y-18978D01*
X16616Y-18978D01*
X16549Y-18995D01*
X16515Y-19012D01*
X16481Y-19046D01*
X16464Y-19096D01*
X16464Y-19130D01*
X16481Y-19181D01*
X16498Y-19198D01*
X16818Y-19349D02*
X16464Y-19349D01*
X16633Y-19349D02*
X16633Y-19552D01*
X16818Y-19552D02*
X16464Y-19552D01*
X16481Y-19906D02*
X16464Y-19872D01*
X16464Y-19821D01*
X16481Y-19771D01*
X16515Y-19737D01*
X16549Y-19720D01*
X16616Y-19703D01*
X16667Y-19703D01*
X16734Y-19720D01*
X16768Y-19737D01*
X16801Y-19771D01*
X16818Y-19821D01*
X16818Y-19855D01*
X16801Y-19906D01*
X16785Y-19923D01*
X16667Y-19923D01*
X16667Y-19855D01*
X19718Y-21805D02*
X19718Y-21973D01*
X19836Y-21619D02*
X19718Y-21805D01*
X19600Y-21619D01*
X19297Y-21973D02*
X19500Y-21973D01*
X19398Y-21973D02*
X19398Y-21619D01*
X19432Y-21670D01*
X19466Y-21704D01*
X19500Y-21720D01*
X12189Y-21082D02*
X12442Y-21082D01*
X12493Y-21066D01*
X12526Y-21032D01*
X12543Y-20981D01*
X12543Y-20948D01*
X12189Y-21218D02*
X12189Y-21437D01*
X12324Y-21319D01*
X12324Y-21369D01*
X12341Y-21403D01*
X12358Y-21420D01*
X12392Y-21437D01*
X12476Y-21437D01*
X12510Y-21420D01*
X12526Y-21403D01*
X12543Y-21369D01*
X12543Y-21268D01*
X12526Y-21234D01*
X12510Y-21218D01*
X20995Y-19689D02*
X20995Y-19976D01*
X20978Y-20010D01*
X20961Y-20026D01*
X20927Y-20043D01*
X20860Y-20043D01*
X20826Y-20026D01*
X20809Y-20010D01*
X20792Y-19976D01*
X20792Y-19689D01*
X20657Y-19689D02*
X20438Y-19689D01*
X20556Y-19824D01*
X20506Y-19824D01*
X20472Y-19841D01*
X20455Y-19858D01*
X20438Y-19892D01*
X20438Y-19976D01*
X20455Y-20010D01*
X20472Y-20026D01*
X20506Y-20043D01*
X20607Y-20043D01*
X20641Y-20026D01*
X20657Y-20010D01*
X18811Y-17693D02*
X18811Y-17339D01*
X18726Y-17339D01*
X18676Y-17356D01*
X18642Y-17390D01*
X18625Y-17424D01*
X18608Y-17491D01*
X18608Y-17542D01*
X18625Y-17609D01*
X18642Y-17643D01*
X18676Y-17676D01*
X18726Y-17693D01*
X18811Y-17693D01*
X18474Y-17373D02*
X18457Y-17356D01*
X18423Y-17339D01*
X18339Y-17339D01*
X18305Y-17356D01*
X18288Y-17373D01*
X18271Y-17407D01*
X18271Y-17440D01*
X18288Y-17491D01*
X18490Y-17693D01*
X18271Y-17693D01*
X17958Y-20543D02*
X18076Y-20375D01*
X18161Y-20543D02*
X18161Y-20189D01*
X18026Y-20189D01*
X17992Y-20206D01*
X17975Y-20223D01*
X17958Y-20257D01*
X17958Y-20307D01*
X17975Y-20341D01*
X17992Y-20358D01*
X18026Y-20375D01*
X18161Y-20375D01*
X17655Y-20307D02*
X17655Y-20543D01*
X17739Y-20172D02*
X17824Y-20425D01*
X17604Y-20425D01*
X16710Y-18342D02*
X16726Y-18325D01*
X16743Y-18274D01*
X16743Y-18240D01*
X16726Y-18190D01*
X16693Y-18156D01*
X16659Y-18139D01*
X16592Y-18122D01*
X16541Y-18122D01*
X16474Y-18139D01*
X16440Y-18156D01*
X16406Y-18190D01*
X16389Y-18240D01*
X16389Y-18274D01*
X16406Y-18325D01*
X16423Y-18342D01*
X16389Y-18460D02*
X16389Y-18696D01*
X16743Y-18544D01*
X23627Y-19910D02*
X23644Y-19926D01*
X23695Y-19943D01*
X23729Y-19943D01*
X23779Y-19926D01*
X23813Y-19893D01*
X23830Y-19859D01*
X23847Y-19792D01*
X23847Y-19741D01*
X23830Y-19674D01*
X23813Y-19640D01*
X23779Y-19606D01*
X23729Y-19589D01*
X23695Y-19589D01*
X23644Y-19606D01*
X23627Y-19623D01*
X23290Y-19943D02*
X23493Y-19943D01*
X23391Y-19943D02*
X23391Y-19589D01*
X23425Y-19640D01*
X23459Y-19674D01*
X23493Y-19690D01*
X23071Y-19589D02*
X23038Y-19589D01*
X23004Y-19606D01*
X22987Y-19623D01*
X22970Y-19657D01*
X22953Y-19724D01*
X22953Y-19808D01*
X22970Y-19876D01*
X22987Y-19910D01*
X23004Y-19926D01*
X23038Y-19943D01*
X23071Y-19943D01*
X23105Y-19926D01*
X23122Y-19910D01*
X23139Y-19876D01*
X23156Y-19808D01*
X23156Y-19724D01*
X23139Y-19657D01*
X23122Y-19623D01*
X23105Y-19606D01*
X23071Y-19589D01*
X27493Y-19939D02*
X27139Y-19939D01*
X27139Y-20024D01*
X27156Y-20074D01*
X27190Y-20108D01*
X27224Y-20125D01*
X27291Y-20142D01*
X27342Y-20142D01*
X27409Y-20125D01*
X27443Y-20108D01*
X27476Y-20074D01*
X27493Y-20024D01*
X27493Y-19939D01*
X27139Y-20260D02*
X27139Y-20479D01*
X27274Y-20361D01*
X27274Y-20411D01*
X27291Y-20445D01*
X27308Y-20462D01*
X27342Y-20479D01*
X27426Y-20479D01*
X27460Y-20462D01*
X27476Y-20445D01*
X27493Y-20411D01*
X27493Y-20310D01*
X27476Y-20276D01*
X27460Y-20260D01*
X27460Y-19073D02*
X27476Y-19056D01*
X27493Y-19005D01*
X27493Y-18971D01*
X27476Y-18921D01*
X27443Y-18887D01*
X27409Y-18870D01*
X27342Y-18853D01*
X27291Y-18853D01*
X27224Y-18870D01*
X27190Y-18887D01*
X27156Y-18921D01*
X27139Y-18971D01*
X27139Y-19005D01*
X27156Y-19056D01*
X27173Y-19073D01*
X27493Y-19410D02*
X27493Y-19207D01*
X27493Y-19309D02*
X27139Y-19309D01*
X27190Y-19275D01*
X27224Y-19241D01*
X27240Y-19207D01*
X27173Y-19544D02*
X27156Y-19561D01*
X27139Y-19595D01*
X27139Y-19679D01*
X27156Y-19713D01*
X27173Y-19730D01*
X27207Y-19747D01*
X27240Y-19747D01*
X27291Y-19730D01*
X27493Y-19528D01*
X27493Y-19747D01*
X24310Y-19173D02*
X24326Y-19156D01*
X24343Y-19105D01*
X24343Y-19071D01*
X24326Y-19021D01*
X24293Y-18987D01*
X24259Y-18970D01*
X24192Y-18953D01*
X24141Y-18953D01*
X24074Y-18970D01*
X24040Y-18987D01*
X24006Y-19021D01*
X23989Y-19071D01*
X23989Y-19105D01*
X24006Y-19156D01*
X24023Y-19173D01*
X24343Y-19510D02*
X24343Y-19307D01*
X24343Y-19409D02*
X23989Y-19409D01*
X24040Y-19375D01*
X24074Y-19341D01*
X24090Y-19307D01*
X24343Y-19847D02*
X24343Y-19644D01*
X24343Y-19746D02*
X23989Y-19746D01*
X24040Y-19712D01*
X24074Y-19678D01*
X24090Y-19644D01*
X24690Y-18749D02*
X24651Y-18762D01*
X24585Y-18762D01*
X24559Y-18749D01*
X24546Y-18735D01*
X24533Y-18709D01*
X24533Y-18683D01*
X24546Y-18657D01*
X24559Y-18643D01*
X24585Y-18630D01*
X24638Y-18617D01*
X24664Y-18604D01*
X24677Y-18591D01*
X24690Y-18565D01*
X24690Y-18538D01*
X24677Y-18512D01*
X24664Y-18499D01*
X24638Y-18486D01*
X24572Y-18486D01*
X24533Y-18499D01*
X24335Y-18486D02*
X24335Y-18683D01*
X24349Y-18722D01*
X24375Y-18749D01*
X24414Y-18762D01*
X24441Y-18762D01*
X24073Y-18486D02*
X24204Y-18486D01*
X24217Y-18617D01*
X24204Y-18604D01*
X24178Y-18591D01*
X24112Y-18591D01*
X24086Y-18604D01*
X24073Y-18617D01*
X24060Y-18643D01*
X24060Y-18709D01*
X24073Y-18735D01*
X24086Y-18749D01*
X24112Y-18762D01*
X24178Y-18762D01*
X24204Y-18749D01*
X24217Y-18735D01*
X16567Y-21370D02*
X16567Y-21278D01*
X16712Y-21278D02*
X16436Y-21278D01*
X16436Y-21409D01*
X16567Y-21607D02*
X16580Y-21646D01*
X16593Y-21659D01*
X16620Y-21672D01*
X16659Y-21672D01*
X16685Y-21659D01*
X16699Y-21646D01*
X16712Y-21620D01*
X16712Y-21515D01*
X16436Y-21515D01*
X16436Y-21607D01*
X16449Y-21633D01*
X16462Y-21646D01*
X16488Y-21659D01*
X16515Y-21659D01*
X16541Y-21646D01*
X16554Y-21633D01*
X16567Y-21607D01*
X16567Y-21515D01*
X16462Y-21778D02*
X16449Y-21791D01*
X16436Y-21817D01*
X16436Y-21883D01*
X16449Y-21909D01*
X16462Y-21922D01*
X16488Y-21935D01*
X16515Y-21935D01*
X16554Y-21922D01*
X16712Y-21764D01*
X16712Y-21935D01*
X23493Y-17941D02*
X23493Y-17772D01*
X23139Y-17772D01*
X23493Y-18245D02*
X23493Y-18042D01*
X23493Y-18144D02*
X23139Y-18144D01*
X23190Y-18110D01*
X23224Y-18076D01*
X23240Y-18042D01*
X17358Y-22310D02*
X17375Y-22326D01*
X17426Y-22343D01*
X17460Y-22343D01*
X17510Y-22326D01*
X17544Y-22293D01*
X17561Y-22259D01*
X17578Y-22192D01*
X17578Y-22141D01*
X17561Y-22074D01*
X17544Y-22040D01*
X17510Y-22006D01*
X17460Y-21989D01*
X17426Y-21989D01*
X17375Y-22006D01*
X17358Y-22023D01*
X17156Y-22141D02*
X17190Y-22124D01*
X17207Y-22107D01*
X17224Y-22074D01*
X17224Y-22057D01*
X17207Y-22023D01*
X17190Y-22006D01*
X17156Y-21989D01*
X17089Y-21989D01*
X17055Y-22006D01*
X17038Y-22023D01*
X17021Y-22057D01*
X17021Y-22074D01*
X17038Y-22107D01*
X17055Y-22124D01*
X17089Y-22141D01*
X17156Y-22141D01*
X17190Y-22158D01*
X17207Y-22175D01*
X17224Y-22208D01*
X17224Y-22276D01*
X17207Y-22310D01*
X17190Y-22326D01*
X17156Y-22343D01*
X17089Y-22343D01*
X17055Y-22326D01*
X17038Y-22310D01*
X17021Y-22276D01*
X17021Y-22208D01*
X17038Y-22175D01*
X17055Y-22158D01*
X17089Y-22141D01*
X26526Y-21295D02*
X26543Y-21346D01*
X26543Y-21430D01*
X26526Y-21464D01*
X26510Y-21481D01*
X26476Y-21498D01*
X26442Y-21498D01*
X26408Y-21481D01*
X26392Y-21464D01*
X26375Y-21430D01*
X26358Y-21363D01*
X26341Y-21329D01*
X26324Y-21312D01*
X26290Y-21295D01*
X26257Y-21295D01*
X26223Y-21312D01*
X26206Y-21329D01*
X26189Y-21363D01*
X26189Y-21447D01*
X26206Y-21498D01*
X26189Y-21750D02*
X26442Y-21750D01*
X26493Y-21734D01*
X26526Y-21700D01*
X26543Y-21649D01*
X26543Y-21616D01*
X26189Y-22071D02*
X26189Y-22004D01*
X26206Y-21970D01*
X26223Y-21953D01*
X26274Y-21919D01*
X26341Y-21902D01*
X26476Y-21902D01*
X26510Y-21919D01*
X26526Y-21936D01*
X26543Y-21970D01*
X26543Y-22037D01*
X26526Y-22071D01*
X26510Y-22088D01*
X26476Y-22105D01*
X26392Y-22105D01*
X26358Y-22088D01*
X26341Y-22071D01*
X26324Y-22037D01*
X26324Y-21970D01*
X26341Y-21936D01*
X26358Y-21919D01*
X26392Y-21902D01*
X20126Y-20195D02*
X20143Y-20246D01*
X20143Y-20330D01*
X20126Y-20364D01*
X20110Y-20381D01*
X20076Y-20398D01*
X20042Y-20398D01*
X20008Y-20381D01*
X19992Y-20364D01*
X19975Y-20330D01*
X19958Y-20263D01*
X19941Y-20229D01*
X19924Y-20212D01*
X19890Y-20195D01*
X19857Y-20195D01*
X19823Y-20212D01*
X19806Y-20229D01*
X19789Y-20263D01*
X19789Y-20347D01*
X19806Y-20398D01*
X19789Y-20650D02*
X20042Y-20650D01*
X20093Y-20634D01*
X20126Y-20600D01*
X20143Y-20549D01*
X20143Y-20516D01*
X19907Y-20971D02*
X20143Y-20971D01*
X19772Y-20887D02*
X20025Y-20802D01*
X20025Y-21022D01*
X17958Y-21010D02*
X17975Y-21026D01*
X18026Y-21043D01*
X18060Y-21043D01*
X18110Y-21026D01*
X18144Y-20993D01*
X18161Y-20959D01*
X18178Y-20892D01*
X18178Y-20841D01*
X18161Y-20774D01*
X18144Y-20740D01*
X18110Y-20706D01*
X18060Y-20689D01*
X18026Y-20689D01*
X17975Y-20706D01*
X17958Y-20723D01*
X17790Y-21043D02*
X17722Y-21043D01*
X17689Y-21026D01*
X17672Y-21010D01*
X17638Y-20959D01*
X17621Y-20892D01*
X17621Y-20757D01*
X17638Y-20723D01*
X17655Y-20706D01*
X17689Y-20689D01*
X17756Y-20689D01*
X17790Y-20706D01*
X17807Y-20723D01*
X17824Y-20757D01*
X17824Y-20841D01*
X17807Y-20875D01*
X17790Y-20892D01*
X17756Y-20908D01*
X17689Y-20908D01*
X17655Y-20892D01*
X17638Y-20875D01*
X17621Y-20841D01*
X27264Y-18130D02*
X27551Y-18130D01*
X27585Y-18147D01*
X27601Y-18164D01*
X27618Y-18198D01*
X27618Y-18265D01*
X27601Y-18299D01*
X27585Y-18316D01*
X27551Y-18333D01*
X27264Y-18333D01*
X27382Y-18653D02*
X27618Y-18653D01*
X27247Y-18569D02*
X27500Y-18484D01*
X27500Y-18704D01*
X16777Y-20493D02*
X16777Y-20139D01*
X16608Y-20493D02*
X16608Y-20139D01*
X16523Y-20139D01*
X16473Y-20156D01*
X16439Y-20190D01*
X16422Y-20224D01*
X16405Y-20291D01*
X16405Y-20342D01*
X16422Y-20409D01*
X16439Y-20443D01*
X16473Y-20476D01*
X16523Y-20493D01*
X16608Y-20493D01*
%LPC*%
G54D15*
X17800Y-19375D03*
X17800Y-18625D03*
X18800Y-19375D03*
X17800Y-19000D03*
X18800Y-18625D03*
G54D16*
X17100Y-19500D03*
G54D17*
X19550Y-22263D03*
X19550Y-21397D03*
G54D18*
X24600Y-20600D03*
G54D19*
X11771Y-20000D03*
X11771Y-20255D03*
X11771Y-19489D03*
G54D20*
X10610Y-21516D03*
X10610Y-18484D03*
G54D19*
X11771Y-19745D03*
X11771Y-20511D03*
G54D21*
X11614Y-21220D03*
X11614Y-18780D03*
G54D22*
X10610Y-20472D03*
X10610Y-19528D03*
G54D23*
X28050Y-18000D03*
X27950Y-19000D03*
X28050Y-20000D03*
X27950Y-21000D03*
X28050Y-22000D03*
X29050Y-18000D03*
X28950Y-19000D03*
X29050Y-20000D03*
X28950Y-21000D03*
X29050Y-22000D03*
X16000Y-17050D03*
X17000Y-16950D03*
X18000Y-17050D03*
X19000Y-16950D03*
X20000Y-17050D03*
X21000Y-16950D03*
X22000Y-17050D03*
X23000Y-16950D03*
X24000Y-17050D03*
X25000Y-16950D03*
X26000Y-17050D03*
X27000Y-16950D03*
X28000Y-17050D03*
X29000Y-16950D03*
X16000Y-23050D03*
X17000Y-22950D03*
X18000Y-23050D03*
X19000Y-22950D03*
X20000Y-23050D03*
X21000Y-22950D03*
X22000Y-23050D03*
X23000Y-22950D03*
X24000Y-23050D03*
X25000Y-22950D03*
X26000Y-23050D03*
X27000Y-22950D03*
X28000Y-23050D03*
X29000Y-22950D03*
G54D24*
X14683Y-19890D03*
X15037Y-19890D03*
G54D25*
X14860Y-19890D03*
G54D24*
X14683Y-20690D03*
X15037Y-20690D03*
G54D25*
X14860Y-20690D03*
G54D26*
X20437Y-19350D03*
X20437Y-18850D03*
X20437Y-18350D03*
X20437Y-17850D03*
X22563Y-17850D03*
X22563Y-18350D03*
X22563Y-18850D03*
X22563Y-19350D03*
G54D27*
X19626Y-19350D03*
X19626Y-18850D03*
X19626Y-18350D03*
X19626Y-17850D03*
G54D28*
X18554Y-18000D03*
X17846Y-18000D03*
X18200Y-18000D03*
G54D29*
X18600Y-19890D03*
X18600Y-20490D03*
G54D30*
X17100Y-17925D03*
X17100Y-18675D03*
G54D29*
X23400Y-19300D03*
X23400Y-18700D03*
G54D28*
X26654Y-20100D03*
X25946Y-20100D03*
X26300Y-20100D03*
G54D24*
X14683Y-20290D03*
X15037Y-20290D03*
G54D25*
X14860Y-20290D03*
G54D23*
X15950Y-22000D03*
X16050Y-21000D03*
X15950Y-20000D03*
X16015Y-18960D03*
X15985Y-18040D03*
G54D31*
X26775Y-19300D03*
X26025Y-19300D03*
X24725Y-19300D03*
X25475Y-19300D03*
G54D24*
X25377Y-18600D03*
X25023Y-18600D03*
G54D25*
X25200Y-18600D03*
G54D29*
X17100Y-20900D03*
X17100Y-21500D03*
G54D32*
X17100Y-21200D03*
G54D31*
X25350Y-18000D03*
X24600Y-18000D03*
X23850Y-18000D03*
G54D33*
X24975Y-18000D03*
X24225Y-18000D03*
G54D29*
X18000Y-22000D03*
X18000Y-21400D03*
X27000Y-22000D03*
X27000Y-21400D03*
G54D32*
X27000Y-21700D03*
G54D29*
X19400Y-20300D03*
X19400Y-20900D03*
G54D32*
X19400Y-20600D03*
G54D29*
X18600Y-20890D03*
X18600Y-21490D03*
G54D15*
X26900Y-17825D03*
X26900Y-18575D03*
X25900Y-17825D03*
X26900Y-18200D03*
X25900Y-18575D03*
G54D16*
X17100Y-20100D03*
M02*
