G04 (created by PCBNEW-RS274X (2012-03-22 BZR 3475)-stable) date Thu Sep  6 17:48:52 2012*
G01*
G70*
G90*
%MOIN*%
G04 Gerber Fmt 3.4, Leading zero omitted, Abs format*
%FSLAX34Y34*%
G04 APERTURE LIST*
%ADD10C,0.006000*%
%ADD11C,0.003900*%
%ADD12C,0.005900*%
%ADD13C,0.011800*%
%ADD14C,0.000100*%
%ADD15R,0.086500X0.023500*%
%ADD16R,0.082600X0.090500*%
%ADD17R,0.070800X0.090500*%
%ADD18R,0.082600X0.082600*%
%ADD19C,0.081800*%
%ADD20R,0.032800X0.032800*%
%ADD21R,0.023500X0.032800*%
%ADD22R,0.070800X0.031800*%
%ADD23R,0.066100X0.030800*%
%ADD24R,0.047200X0.052800*%
%ADD25R,0.052800X0.032800*%
%ADD26R,0.062800X0.042800*%
%ADD27R,0.052800X0.047200*%
%ADD28R,0.037800X0.037800*%
%ADD29R,0.042800X0.062800*%
%ADD30R,0.032800X0.023500*%
%ADD31R,0.033400X0.047200*%
%ADD32R,0.047200X0.033400*%
%ADD33R,0.052800X0.043200*%
%ADD34R,0.052800X0.062800*%
%ADD35R,0.106200X0.047100*%
G04 APERTURE END LIST*
G54D10*
G54D11*
X15300Y-17630D02*
X15300Y-16300D01*
X15300Y-22374D02*
X15300Y-23700D01*
X29700Y-23700D02*
X15300Y-23700D01*
X29700Y-16300D02*
X29700Y-23700D01*
X15300Y-16300D02*
X29700Y-16300D01*
X10039Y-17630D02*
X15300Y-17630D01*
X10039Y-22374D02*
X15300Y-22374D01*
X10039Y-17630D02*
X10039Y-22374D01*
G54D12*
X12047Y-20807D02*
X12047Y-21752D01*
X12047Y-21752D02*
X11201Y-21752D01*
X12047Y-19193D02*
X12047Y-18248D01*
X12047Y-18248D02*
X11201Y-18248D01*
X15174Y-19697D02*
X14546Y-19697D01*
X14546Y-20083D02*
X15174Y-20083D01*
X15173Y-20082D02*
X15182Y-20080D01*
X15190Y-20077D01*
X15198Y-20073D01*
X15205Y-20069D01*
X15213Y-20065D01*
X15219Y-20059D01*
X15226Y-20053D01*
X15231Y-20047D01*
X15237Y-20040D01*
X15241Y-20032D01*
X15245Y-20025D01*
X15248Y-20017D01*
X15251Y-20008D01*
X15252Y-20000D01*
X15253Y-19991D01*
X15253Y-19984D01*
X15253Y-19975D01*
X15252Y-19967D01*
X14468Y-19966D02*
X14466Y-19974D01*
X14466Y-19983D01*
X14466Y-19991D01*
X14467Y-19999D01*
X14468Y-20008D01*
X14471Y-20016D01*
X14474Y-20024D01*
X14478Y-20032D01*
X14482Y-20040D01*
X14487Y-20047D01*
X14493Y-20053D01*
X14499Y-20059D01*
X14506Y-20065D01*
X14513Y-20070D01*
X14521Y-20074D01*
X14529Y-20078D01*
X14537Y-20080D01*
X14546Y-20082D01*
X14547Y-19698D02*
X14538Y-19700D01*
X14530Y-19703D01*
X14522Y-19707D01*
X14515Y-19711D01*
X14507Y-19715D01*
X14501Y-19721D01*
X14494Y-19727D01*
X14489Y-19733D01*
X14483Y-19740D01*
X14479Y-19748D01*
X14475Y-19755D01*
X14472Y-19763D01*
X14469Y-19772D01*
X14468Y-19780D01*
X14467Y-19789D01*
X14467Y-19796D01*
X14467Y-19805D01*
X14468Y-19813D01*
X15252Y-19814D02*
X15254Y-19806D01*
X15254Y-19797D01*
X15254Y-19789D01*
X15253Y-19781D01*
X15252Y-19772D01*
X15249Y-19764D01*
X15246Y-19756D01*
X15242Y-19748D01*
X15238Y-19740D01*
X15233Y-19733D01*
X15227Y-19727D01*
X15221Y-19721D01*
X15214Y-19715D01*
X15207Y-19710D01*
X15199Y-19706D01*
X15191Y-19702D01*
X15183Y-19700D01*
X15174Y-19698D01*
X15174Y-20497D02*
X14546Y-20497D01*
X14546Y-20883D02*
X15174Y-20883D01*
X15173Y-20882D02*
X15182Y-20880D01*
X15190Y-20877D01*
X15198Y-20873D01*
X15205Y-20869D01*
X15213Y-20865D01*
X15219Y-20859D01*
X15226Y-20853D01*
X15231Y-20847D01*
X15237Y-20840D01*
X15241Y-20832D01*
X15245Y-20825D01*
X15248Y-20817D01*
X15251Y-20808D01*
X15252Y-20800D01*
X15253Y-20791D01*
X15253Y-20784D01*
X15253Y-20775D01*
X15252Y-20767D01*
X14468Y-20766D02*
X14466Y-20774D01*
X14466Y-20783D01*
X14466Y-20791D01*
X14467Y-20799D01*
X14468Y-20808D01*
X14471Y-20816D01*
X14474Y-20824D01*
X14478Y-20832D01*
X14482Y-20840D01*
X14487Y-20847D01*
X14493Y-20853D01*
X14499Y-20859D01*
X14506Y-20865D01*
X14513Y-20870D01*
X14521Y-20874D01*
X14529Y-20878D01*
X14537Y-20880D01*
X14546Y-20882D01*
X14547Y-20498D02*
X14538Y-20500D01*
X14530Y-20503D01*
X14522Y-20507D01*
X14515Y-20511D01*
X14507Y-20515D01*
X14501Y-20521D01*
X14494Y-20527D01*
X14489Y-20533D01*
X14483Y-20540D01*
X14479Y-20548D01*
X14475Y-20555D01*
X14472Y-20563D01*
X14469Y-20572D01*
X14468Y-20580D01*
X14467Y-20589D01*
X14467Y-20596D01*
X14467Y-20605D01*
X14468Y-20613D01*
X15252Y-20614D02*
X15254Y-20606D01*
X15254Y-20597D01*
X15254Y-20589D01*
X15253Y-20581D01*
X15252Y-20572D01*
X15249Y-20564D01*
X15246Y-20556D01*
X15242Y-20548D01*
X15238Y-20540D01*
X15233Y-20533D01*
X15227Y-20527D01*
X15221Y-20521D01*
X15214Y-20515D01*
X15207Y-20510D01*
X15199Y-20506D01*
X15191Y-20502D01*
X15183Y-20500D01*
X15174Y-20498D01*
X20043Y-19565D02*
X19256Y-19565D01*
X19256Y-19565D02*
X19256Y-17635D01*
X19256Y-17635D02*
X20043Y-17635D01*
X22957Y-19565D02*
X22957Y-17635D01*
X22957Y-17635D02*
X20043Y-17635D01*
X20043Y-17635D02*
X20043Y-19565D01*
X20043Y-19565D02*
X22957Y-19565D01*
G54D13*
X20981Y-19359D02*
X20980Y-19366D01*
X20978Y-19373D01*
X20974Y-19380D01*
X20969Y-19386D01*
X20963Y-19391D01*
X20957Y-19394D01*
X20949Y-19397D01*
X20942Y-19397D01*
X20935Y-19397D01*
X20928Y-19395D01*
X20921Y-19391D01*
X20915Y-19386D01*
X20910Y-19381D01*
X20907Y-19374D01*
X20904Y-19367D01*
X20904Y-19359D01*
X20904Y-19352D01*
X20906Y-19345D01*
X20910Y-19338D01*
X20914Y-19332D01*
X20920Y-19327D01*
X20927Y-19324D01*
X20934Y-19321D01*
X20942Y-19321D01*
X20948Y-19321D01*
X20956Y-19323D01*
X20962Y-19327D01*
X20968Y-19331D01*
X20973Y-19337D01*
X20977Y-19344D01*
X20980Y-19351D01*
X20980Y-19358D01*
X20981Y-19359D01*
G54D12*
X18925Y-17700D02*
X18925Y-18300D01*
X18825Y-17700D02*
X17575Y-17700D01*
X17575Y-17700D02*
X17575Y-18300D01*
X17575Y-18300D02*
X18825Y-18300D01*
X18825Y-18300D02*
X18825Y-17700D01*
X18300Y-19690D02*
X18300Y-20690D01*
X18300Y-20690D02*
X18900Y-20690D01*
X18900Y-20690D02*
X18900Y-19690D01*
X18900Y-19690D02*
X18300Y-19690D01*
X16750Y-17675D02*
X16750Y-18925D01*
X16750Y-18925D02*
X17450Y-18925D01*
X17450Y-18925D02*
X17450Y-17675D01*
X17450Y-17675D02*
X16750Y-17675D01*
X23700Y-19500D02*
X23700Y-18500D01*
X23700Y-18500D02*
X23100Y-18500D01*
X23100Y-18500D02*
X23100Y-19500D01*
X23100Y-19500D02*
X23700Y-19500D01*
X24300Y-21225D02*
X23700Y-21225D01*
X24300Y-21125D02*
X24300Y-19875D01*
X24300Y-19875D02*
X23700Y-19875D01*
X23700Y-19875D02*
X23700Y-21125D01*
X23700Y-21125D02*
X24300Y-21125D01*
X15174Y-20097D02*
X14546Y-20097D01*
X14546Y-20483D02*
X15174Y-20483D01*
X15173Y-20482D02*
X15182Y-20480D01*
X15190Y-20477D01*
X15198Y-20473D01*
X15205Y-20469D01*
X15213Y-20465D01*
X15219Y-20459D01*
X15226Y-20453D01*
X15231Y-20447D01*
X15237Y-20440D01*
X15241Y-20432D01*
X15245Y-20425D01*
X15248Y-20417D01*
X15251Y-20408D01*
X15252Y-20400D01*
X15253Y-20391D01*
X15253Y-20384D01*
X15253Y-20375D01*
X15252Y-20367D01*
X14468Y-20366D02*
X14466Y-20374D01*
X14466Y-20383D01*
X14466Y-20391D01*
X14467Y-20399D01*
X14468Y-20408D01*
X14471Y-20416D01*
X14474Y-20424D01*
X14478Y-20432D01*
X14482Y-20440D01*
X14487Y-20447D01*
X14493Y-20453D01*
X14499Y-20459D01*
X14506Y-20465D01*
X14513Y-20470D01*
X14521Y-20474D01*
X14529Y-20478D01*
X14537Y-20480D01*
X14546Y-20482D01*
X14547Y-20098D02*
X14538Y-20100D01*
X14530Y-20103D01*
X14522Y-20107D01*
X14515Y-20111D01*
X14507Y-20115D01*
X14501Y-20121D01*
X14494Y-20127D01*
X14489Y-20133D01*
X14483Y-20140D01*
X14479Y-20148D01*
X14475Y-20155D01*
X14472Y-20163D01*
X14469Y-20172D01*
X14468Y-20180D01*
X14467Y-20189D01*
X14467Y-20196D01*
X14467Y-20205D01*
X14468Y-20213D01*
X15252Y-20214D02*
X15254Y-20206D01*
X15254Y-20197D01*
X15254Y-20189D01*
X15253Y-20181D01*
X15252Y-20172D01*
X15249Y-20164D01*
X15246Y-20156D01*
X15242Y-20148D01*
X15238Y-20140D01*
X15233Y-20133D01*
X15227Y-20127D01*
X15221Y-20121D01*
X15214Y-20115D01*
X15207Y-20110D01*
X15199Y-20106D01*
X15191Y-20102D01*
X15183Y-20100D01*
X15174Y-20098D01*
X25475Y-18650D02*
X26725Y-18650D01*
X26725Y-18650D02*
X26725Y-17950D01*
X26725Y-17950D02*
X25475Y-17950D01*
X25475Y-17950D02*
X25475Y-18650D01*
X25050Y-20225D02*
X25050Y-18975D01*
X25050Y-18975D02*
X24350Y-18975D01*
X24350Y-18975D02*
X24350Y-20225D01*
X24350Y-20225D02*
X25050Y-20225D01*
X25493Y-20114D02*
X25493Y-19486D01*
X25107Y-19486D02*
X25107Y-20114D01*
X25108Y-20113D02*
X25110Y-20122D01*
X25113Y-20130D01*
X25117Y-20138D01*
X25121Y-20145D01*
X25125Y-20153D01*
X25131Y-20159D01*
X25137Y-20166D01*
X25143Y-20171D01*
X25150Y-20177D01*
X25158Y-20181D01*
X25165Y-20185D01*
X25173Y-20188D01*
X25182Y-20191D01*
X25190Y-20192D01*
X25199Y-20193D01*
X25206Y-20193D01*
X25215Y-20193D01*
X25223Y-20192D01*
X25224Y-19408D02*
X25216Y-19406D01*
X25207Y-19406D01*
X25199Y-19406D01*
X25191Y-19407D01*
X25182Y-19408D01*
X25174Y-19411D01*
X25166Y-19414D01*
X25158Y-19418D01*
X25150Y-19422D01*
X25143Y-19427D01*
X25137Y-19433D01*
X25131Y-19439D01*
X25125Y-19446D01*
X25120Y-19453D01*
X25116Y-19461D01*
X25112Y-19469D01*
X25110Y-19477D01*
X25108Y-19486D01*
X25492Y-19487D02*
X25490Y-19478D01*
X25487Y-19470D01*
X25483Y-19462D01*
X25479Y-19455D01*
X25475Y-19447D01*
X25469Y-19441D01*
X25463Y-19434D01*
X25457Y-19429D01*
X25450Y-19423D01*
X25442Y-19419D01*
X25435Y-19415D01*
X25427Y-19412D01*
X25418Y-19409D01*
X25410Y-19408D01*
X25401Y-19407D01*
X25394Y-19407D01*
X25385Y-19407D01*
X25377Y-19408D01*
X25376Y-20192D02*
X25384Y-20194D01*
X25393Y-20194D01*
X25401Y-20194D01*
X25409Y-20193D01*
X25418Y-20192D01*
X25426Y-20189D01*
X25434Y-20186D01*
X25442Y-20182D01*
X25450Y-20178D01*
X25457Y-20173D01*
X25463Y-20167D01*
X25469Y-20161D01*
X25475Y-20154D01*
X25480Y-20147D01*
X25484Y-20139D01*
X25488Y-20131D01*
X25490Y-20123D01*
X25492Y-20114D01*
G54D14*
G36*
X20853Y-22321D02*
X20867Y-22313D01*
X20898Y-22294D01*
X20942Y-22265D01*
X20994Y-22231D01*
X21046Y-22195D01*
X21089Y-22167D01*
X21119Y-22147D01*
X21131Y-22140D01*
X21138Y-22143D01*
X21163Y-22155D01*
X21198Y-22173D01*
X21219Y-22184D01*
X21252Y-22198D01*
X21269Y-22201D01*
X21271Y-22197D01*
X21283Y-22172D01*
X21302Y-22129D01*
X21327Y-22072D01*
X21356Y-22005D01*
X21386Y-21933D01*
X21417Y-21860D01*
X21446Y-21790D01*
X21471Y-21727D01*
X21492Y-21675D01*
X21506Y-21640D01*
X21511Y-21625D01*
X21509Y-21621D01*
X21493Y-21605D01*
X21464Y-21584D01*
X21402Y-21533D01*
X21340Y-21457D01*
X21303Y-21370D01*
X21290Y-21273D01*
X21301Y-21183D01*
X21336Y-21097D01*
X21396Y-21020D01*
X21469Y-20962D01*
X21554Y-20926D01*
X21650Y-20914D01*
X21741Y-20924D01*
X21829Y-20959D01*
X21907Y-21018D01*
X21940Y-21056D01*
X21985Y-21134D01*
X22010Y-21218D01*
X22013Y-21240D01*
X22009Y-21332D01*
X21982Y-21420D01*
X21933Y-21499D01*
X21866Y-21564D01*
X21857Y-21570D01*
X21826Y-21594D01*
X21805Y-21610D01*
X21788Y-21623D01*
X21906Y-21906D01*
X21925Y-21951D01*
X21957Y-22029D01*
X21985Y-22095D01*
X22008Y-22148D01*
X22024Y-22184D01*
X22031Y-22198D01*
X22031Y-22199D01*
X22042Y-22201D01*
X22063Y-22193D01*
X22103Y-22174D01*
X22129Y-22160D01*
X22159Y-22146D01*
X22173Y-22140D01*
X22184Y-22147D01*
X22213Y-22165D01*
X22255Y-22193D01*
X22306Y-22228D01*
X22354Y-22261D01*
X22398Y-22290D01*
X22430Y-22311D01*
X22446Y-22319D01*
X22448Y-22319D01*
X22462Y-22311D01*
X22488Y-22290D01*
X22526Y-22254D01*
X22581Y-22200D01*
X22589Y-22191D01*
X22634Y-22146D01*
X22670Y-22108D01*
X22695Y-22080D01*
X22704Y-22068D01*
X22704Y-22068D01*
X22696Y-22053D01*
X22675Y-22020D01*
X22646Y-21975D01*
X22610Y-21923D01*
X22516Y-21787D01*
X22568Y-21658D01*
X22584Y-21619D01*
X22604Y-21571D01*
X22619Y-21537D01*
X22626Y-21522D01*
X22640Y-21517D01*
X22675Y-21509D01*
X22726Y-21498D01*
X22787Y-21487D01*
X22845Y-21476D01*
X22897Y-21466D01*
X22935Y-21459D01*
X22952Y-21456D01*
X22956Y-21453D01*
X22960Y-21445D01*
X22962Y-21427D01*
X22963Y-21395D01*
X22964Y-21345D01*
X22964Y-21273D01*
X22964Y-21265D01*
X22963Y-21196D01*
X22962Y-21141D01*
X22960Y-21105D01*
X22958Y-21091D01*
X22958Y-21091D01*
X22941Y-21087D01*
X22904Y-21079D01*
X22852Y-21069D01*
X22790Y-21057D01*
X22786Y-21056D01*
X22724Y-21044D01*
X22671Y-21033D01*
X22635Y-21025D01*
X22620Y-21020D01*
X22616Y-21016D01*
X22604Y-20991D01*
X22586Y-20953D01*
X22565Y-20906D01*
X22545Y-20857D01*
X22528Y-20813D01*
X22516Y-20780D01*
X22512Y-20765D01*
X22512Y-20765D01*
X22522Y-20750D01*
X22543Y-20718D01*
X22573Y-20673D01*
X22610Y-20620D01*
X22612Y-20616D01*
X22648Y-20564D01*
X22677Y-20519D01*
X22696Y-20487D01*
X22704Y-20473D01*
X22703Y-20472D01*
X22692Y-20457D01*
X22665Y-20427D01*
X22627Y-20387D01*
X22581Y-20340D01*
X22566Y-20326D01*
X22515Y-20276D01*
X22479Y-20243D01*
X22457Y-20226D01*
X22447Y-20222D01*
X22446Y-20222D01*
X22430Y-20232D01*
X22397Y-20254D01*
X22352Y-20284D01*
X22299Y-20320D01*
X22295Y-20323D01*
X22243Y-20359D01*
X22199Y-20388D01*
X22168Y-20409D01*
X22154Y-20417D01*
X22152Y-20417D01*
X22130Y-20411D01*
X22093Y-20398D01*
X22047Y-20380D01*
X21998Y-20360D01*
X21954Y-20342D01*
X21921Y-20327D01*
X21906Y-20318D01*
X21905Y-20317D01*
X21900Y-20298D01*
X21891Y-20259D01*
X21879Y-20205D01*
X21867Y-20140D01*
X21865Y-20130D01*
X21853Y-20067D01*
X21843Y-20016D01*
X21836Y-19980D01*
X21832Y-19965D01*
X21823Y-19963D01*
X21793Y-19961D01*
X21746Y-19960D01*
X21690Y-19959D01*
X21630Y-19959D01*
X21572Y-19961D01*
X21523Y-19962D01*
X21487Y-19965D01*
X21472Y-19968D01*
X21472Y-19969D01*
X21466Y-19988D01*
X21458Y-20027D01*
X21447Y-20082D01*
X21434Y-20146D01*
X21432Y-20158D01*
X21420Y-20220D01*
X21410Y-20271D01*
X21402Y-20307D01*
X21398Y-20321D01*
X21393Y-20324D01*
X21367Y-20335D01*
X21325Y-20352D01*
X21273Y-20373D01*
X21153Y-20422D01*
X21005Y-20321D01*
X20992Y-20312D01*
X20939Y-20275D01*
X20895Y-20246D01*
X20865Y-20227D01*
X20852Y-20220D01*
X20851Y-20220D01*
X20836Y-20233D01*
X20807Y-20260D01*
X20767Y-20299D01*
X20721Y-20346D01*
X20686Y-20380D01*
X20646Y-20421D01*
X20620Y-20449D01*
X20606Y-20467D01*
X20601Y-20478D01*
X20602Y-20485D01*
X20612Y-20500D01*
X20633Y-20533D01*
X20664Y-20577D01*
X20700Y-20630D01*
X20729Y-20673D01*
X20761Y-20723D01*
X20782Y-20758D01*
X20789Y-20775D01*
X20787Y-20783D01*
X20777Y-20811D01*
X20760Y-20855D01*
X20737Y-20907D01*
X20686Y-21024D01*
X20610Y-21039D01*
X20563Y-21047D01*
X20498Y-21060D01*
X20436Y-21072D01*
X20339Y-21091D01*
X20336Y-21447D01*
X20351Y-21453D01*
X20365Y-21457D01*
X20401Y-21465D01*
X20452Y-21475D01*
X20513Y-21486D01*
X20564Y-21496D01*
X20616Y-21506D01*
X20654Y-21513D01*
X20670Y-21517D01*
X20674Y-21522D01*
X20687Y-21547D01*
X20706Y-21587D01*
X20726Y-21635D01*
X20747Y-21685D01*
X20765Y-21731D01*
X20778Y-21766D01*
X20783Y-21785D01*
X20776Y-21798D01*
X20756Y-21829D01*
X20728Y-21872D01*
X20692Y-21924D01*
X20657Y-21975D01*
X20627Y-22020D01*
X20607Y-22051D01*
X20598Y-22066D01*
X20602Y-22076D01*
X20623Y-22101D01*
X20662Y-22141D01*
X20720Y-22198D01*
X20729Y-22207D01*
X20775Y-22252D01*
X20814Y-22288D01*
X20841Y-22312D01*
X20853Y-22321D01*
X20853Y-22321D01*
G37*
G54D12*
X26700Y-20250D02*
X26700Y-18750D01*
X26700Y-18750D02*
X25500Y-18750D01*
X25500Y-18750D02*
X25500Y-20250D01*
X25500Y-20250D02*
X26700Y-20250D01*
X19050Y-18400D02*
X17550Y-18400D01*
X17550Y-18400D02*
X17550Y-19600D01*
X17550Y-19600D02*
X19050Y-19600D01*
X19050Y-19600D02*
X19050Y-18400D01*
X16800Y-20700D02*
X16800Y-21700D01*
X16800Y-21700D02*
X17400Y-21700D01*
X17400Y-21700D02*
X17400Y-20700D01*
X17400Y-20700D02*
X16800Y-20700D01*
X26700Y-20350D02*
X24700Y-20350D01*
X24700Y-20350D02*
X24700Y-21050D01*
X24700Y-21050D02*
X26700Y-21050D01*
X26700Y-21050D02*
X26700Y-20350D01*
X18300Y-22200D02*
X18300Y-21200D01*
X18300Y-21200D02*
X17700Y-21200D01*
X17700Y-21200D02*
X17700Y-22200D01*
X17700Y-22200D02*
X18300Y-22200D01*
X27100Y-22200D02*
X27100Y-21200D01*
X27100Y-21200D02*
X26500Y-21200D01*
X26500Y-21200D02*
X26500Y-22200D01*
X26500Y-22200D02*
X27100Y-22200D01*
X19100Y-20100D02*
X19100Y-21100D01*
X19100Y-21100D02*
X19700Y-21100D01*
X19700Y-21100D02*
X19700Y-20100D01*
X19700Y-20100D02*
X19100Y-20100D01*
X18300Y-20690D02*
X18300Y-21690D01*
X18300Y-21690D02*
X18900Y-21690D01*
X18900Y-21690D02*
X18900Y-20690D01*
X18900Y-20690D02*
X18300Y-20690D01*
X12189Y-21082D02*
X12442Y-21082D01*
X12493Y-21066D01*
X12526Y-21032D01*
X12543Y-20981D01*
X12543Y-20948D01*
X12189Y-21218D02*
X12189Y-21437D01*
X12324Y-21319D01*
X12324Y-21369D01*
X12341Y-21403D01*
X12358Y-21420D01*
X12392Y-21437D01*
X12476Y-21437D01*
X12510Y-21420D01*
X12526Y-21403D01*
X12543Y-21369D01*
X12543Y-21268D01*
X12526Y-21234D01*
X12510Y-21218D01*
X22870Y-19689D02*
X22870Y-19976D01*
X22853Y-20010D01*
X22836Y-20026D01*
X22802Y-20043D01*
X22735Y-20043D01*
X22701Y-20026D01*
X22684Y-20010D01*
X22667Y-19976D01*
X22667Y-19689D01*
X22532Y-19689D02*
X22313Y-19689D01*
X22431Y-19824D01*
X22381Y-19824D01*
X22347Y-19841D01*
X22330Y-19858D01*
X22313Y-19892D01*
X22313Y-19976D01*
X22330Y-20010D01*
X22347Y-20026D01*
X22381Y-20043D01*
X22482Y-20043D01*
X22516Y-20026D01*
X22532Y-20010D01*
X18811Y-17693D02*
X18811Y-17339D01*
X18726Y-17339D01*
X18676Y-17356D01*
X18642Y-17390D01*
X18625Y-17424D01*
X18608Y-17491D01*
X18608Y-17542D01*
X18625Y-17609D01*
X18642Y-17643D01*
X18676Y-17676D01*
X18726Y-17693D01*
X18811Y-17693D01*
X18474Y-17373D02*
X18457Y-17356D01*
X18423Y-17339D01*
X18339Y-17339D01*
X18305Y-17356D01*
X18288Y-17373D01*
X18271Y-17407D01*
X18271Y-17440D01*
X18288Y-17491D01*
X18490Y-17693D01*
X18271Y-17693D01*
X17958Y-20543D02*
X18076Y-20375D01*
X18161Y-20543D02*
X18161Y-20189D01*
X18026Y-20189D01*
X17992Y-20206D01*
X17975Y-20223D01*
X17958Y-20257D01*
X17958Y-20307D01*
X17975Y-20341D01*
X17992Y-20358D01*
X18026Y-20375D01*
X18161Y-20375D01*
X17655Y-20307D02*
X17655Y-20543D01*
X17739Y-20172D02*
X17824Y-20425D01*
X17604Y-20425D01*
X17508Y-17610D02*
X17525Y-17626D01*
X17576Y-17643D01*
X17610Y-17643D01*
X17660Y-17626D01*
X17694Y-17593D01*
X17711Y-17559D01*
X17728Y-17492D01*
X17728Y-17441D01*
X17711Y-17374D01*
X17694Y-17340D01*
X17660Y-17306D01*
X17610Y-17289D01*
X17576Y-17289D01*
X17525Y-17306D01*
X17508Y-17323D01*
X17390Y-17289D02*
X17154Y-17289D01*
X17306Y-17643D01*
X23727Y-18310D02*
X23744Y-18326D01*
X23795Y-18343D01*
X23829Y-18343D01*
X23879Y-18326D01*
X23913Y-18293D01*
X23930Y-18259D01*
X23947Y-18192D01*
X23947Y-18141D01*
X23930Y-18074D01*
X23913Y-18040D01*
X23879Y-18006D01*
X23829Y-17989D01*
X23795Y-17989D01*
X23744Y-18006D01*
X23727Y-18023D01*
X23390Y-18343D02*
X23593Y-18343D01*
X23491Y-18343D02*
X23491Y-17989D01*
X23525Y-18040D01*
X23559Y-18074D01*
X23593Y-18090D01*
X23171Y-17989D02*
X23138Y-17989D01*
X23104Y-18006D01*
X23087Y-18023D01*
X23070Y-18057D01*
X23053Y-18124D01*
X23053Y-18208D01*
X23070Y-18276D01*
X23087Y-18310D01*
X23104Y-18326D01*
X23138Y-18343D01*
X23171Y-18343D01*
X23205Y-18326D01*
X23222Y-18310D01*
X23239Y-18276D01*
X23256Y-18208D01*
X23256Y-18124D01*
X23239Y-18057D01*
X23222Y-18023D01*
X23205Y-18006D01*
X23171Y-17989D01*
X24261Y-21643D02*
X24261Y-21289D01*
X24176Y-21289D01*
X24126Y-21306D01*
X24092Y-21340D01*
X24075Y-21374D01*
X24058Y-21441D01*
X24058Y-21492D01*
X24075Y-21559D01*
X24092Y-21593D01*
X24126Y-21626D01*
X24176Y-21643D01*
X24261Y-21643D01*
X23940Y-21289D02*
X23721Y-21289D01*
X23839Y-21424D01*
X23789Y-21424D01*
X23755Y-21441D01*
X23738Y-21458D01*
X23721Y-21492D01*
X23721Y-21576D01*
X23738Y-21610D01*
X23755Y-21626D01*
X23789Y-21643D01*
X23890Y-21643D01*
X23924Y-21626D01*
X23940Y-21610D01*
X16827Y-20643D02*
X16827Y-20289D01*
X16658Y-20643D02*
X16658Y-20289D01*
X16573Y-20289D01*
X16523Y-20306D01*
X16489Y-20340D01*
X16472Y-20374D01*
X16455Y-20441D01*
X16455Y-20492D01*
X16472Y-20559D01*
X16489Y-20593D01*
X16523Y-20626D01*
X16573Y-20643D01*
X16658Y-20643D01*
X27227Y-17810D02*
X27244Y-17826D01*
X27295Y-17843D01*
X27329Y-17843D01*
X27379Y-17826D01*
X27413Y-17793D01*
X27430Y-17759D01*
X27447Y-17692D01*
X27447Y-17641D01*
X27430Y-17574D01*
X27413Y-17540D01*
X27379Y-17506D01*
X27329Y-17489D01*
X27295Y-17489D01*
X27244Y-17506D01*
X27227Y-17523D01*
X26890Y-17843D02*
X27093Y-17843D01*
X26991Y-17843D02*
X26991Y-17489D01*
X27025Y-17540D01*
X27059Y-17574D01*
X27093Y-17590D01*
X26756Y-17523D02*
X26739Y-17506D01*
X26705Y-17489D01*
X26621Y-17489D01*
X26587Y-17506D01*
X26570Y-17523D01*
X26553Y-17557D01*
X26553Y-17590D01*
X26570Y-17641D01*
X26772Y-17843D01*
X26553Y-17843D01*
X24927Y-18810D02*
X24944Y-18826D01*
X24995Y-18843D01*
X25029Y-18843D01*
X25079Y-18826D01*
X25113Y-18793D01*
X25130Y-18759D01*
X25147Y-18692D01*
X25147Y-18641D01*
X25130Y-18574D01*
X25113Y-18540D01*
X25079Y-18506D01*
X25029Y-18489D01*
X24995Y-18489D01*
X24944Y-18506D01*
X24927Y-18523D01*
X24590Y-18843D02*
X24793Y-18843D01*
X24691Y-18843D02*
X24691Y-18489D01*
X24725Y-18540D01*
X24759Y-18574D01*
X24793Y-18590D01*
X24253Y-18843D02*
X24456Y-18843D01*
X24354Y-18843D02*
X24354Y-18489D01*
X24388Y-18540D01*
X24422Y-18574D01*
X24456Y-18590D01*
X16760Y-19021D02*
X16776Y-19004D01*
X16793Y-18953D01*
X16793Y-18919D01*
X16776Y-18869D01*
X16743Y-18835D01*
X16709Y-18818D01*
X16642Y-18801D01*
X16591Y-18801D01*
X16524Y-18818D01*
X16490Y-18835D01*
X16456Y-18869D01*
X16439Y-18919D01*
X16439Y-18953D01*
X16456Y-19004D01*
X16473Y-19021D01*
X16793Y-19172D02*
X16439Y-19172D01*
X16608Y-19172D02*
X16608Y-19375D01*
X16793Y-19375D02*
X16439Y-19375D01*
X16793Y-19746D02*
X16625Y-19628D01*
X16793Y-19543D02*
X16439Y-19543D01*
X16439Y-19678D01*
X16456Y-19712D01*
X16473Y-19729D01*
X16507Y-19746D01*
X16557Y-19746D01*
X16591Y-19729D01*
X16608Y-19712D01*
X16625Y-19678D01*
X16625Y-19543D01*
X16456Y-20083D02*
X16439Y-20049D01*
X16439Y-19998D01*
X16456Y-19948D01*
X16490Y-19914D01*
X16524Y-19897D01*
X16591Y-19880D01*
X16642Y-19880D01*
X16709Y-19897D01*
X16743Y-19914D01*
X16776Y-19948D01*
X16793Y-19998D01*
X16793Y-20032D01*
X16776Y-20083D01*
X16760Y-20100D01*
X16642Y-20100D01*
X16642Y-20032D01*
X27370Y-19289D02*
X27370Y-19576D01*
X27353Y-19610D01*
X27336Y-19626D01*
X27302Y-19643D01*
X27235Y-19643D01*
X27201Y-19626D01*
X27184Y-19610D01*
X27167Y-19576D01*
X27167Y-19289D01*
X26847Y-19407D02*
X26847Y-19643D01*
X26931Y-19272D02*
X27016Y-19525D01*
X26796Y-19525D01*
X17970Y-19689D02*
X17970Y-19976D01*
X17953Y-20010D01*
X17936Y-20026D01*
X17902Y-20043D01*
X17835Y-20043D01*
X17801Y-20026D01*
X17784Y-20010D01*
X17767Y-19976D01*
X17767Y-19689D01*
X17616Y-19723D02*
X17599Y-19706D01*
X17565Y-19689D01*
X17481Y-19689D01*
X17447Y-19706D01*
X17430Y-19723D01*
X17413Y-19757D01*
X17413Y-19790D01*
X17430Y-19841D01*
X17632Y-20043D01*
X17413Y-20043D01*
X16558Y-21505D02*
X16558Y-21387D01*
X16743Y-21387D02*
X16389Y-21387D01*
X16389Y-21556D01*
X16558Y-21808D02*
X16575Y-21859D01*
X16592Y-21876D01*
X16625Y-21893D01*
X16676Y-21893D01*
X16710Y-21876D01*
X16726Y-21859D01*
X16743Y-21825D01*
X16743Y-21690D01*
X16389Y-21690D01*
X16389Y-21808D01*
X16406Y-21842D01*
X16423Y-21859D01*
X16457Y-21876D01*
X16490Y-21876D01*
X16524Y-21859D01*
X16541Y-21842D01*
X16558Y-21808D01*
X16558Y-21690D01*
X16423Y-22027D02*
X16406Y-22044D01*
X16389Y-22078D01*
X16389Y-22162D01*
X16406Y-22196D01*
X16423Y-22213D01*
X16457Y-22230D01*
X16490Y-22230D01*
X16541Y-22213D01*
X16743Y-22011D01*
X16743Y-22230D01*
X27059Y-20843D02*
X27228Y-20843D01*
X27228Y-20489D01*
X26755Y-20843D02*
X26958Y-20843D01*
X26856Y-20843D02*
X26856Y-20489D01*
X26890Y-20540D01*
X26924Y-20574D01*
X26958Y-20590D01*
X17358Y-22310D02*
X17375Y-22326D01*
X17426Y-22343D01*
X17460Y-22343D01*
X17510Y-22326D01*
X17544Y-22293D01*
X17561Y-22259D01*
X17578Y-22192D01*
X17578Y-22141D01*
X17561Y-22074D01*
X17544Y-22040D01*
X17510Y-22006D01*
X17460Y-21989D01*
X17426Y-21989D01*
X17375Y-22006D01*
X17358Y-22023D01*
X17156Y-22141D02*
X17190Y-22124D01*
X17207Y-22107D01*
X17224Y-22074D01*
X17224Y-22057D01*
X17207Y-22023D01*
X17190Y-22006D01*
X17156Y-21989D01*
X17089Y-21989D01*
X17055Y-22006D01*
X17038Y-22023D01*
X17021Y-22057D01*
X17021Y-22074D01*
X17038Y-22107D01*
X17055Y-22124D01*
X17089Y-22141D01*
X17156Y-22141D01*
X17190Y-22158D01*
X17207Y-22175D01*
X17224Y-22208D01*
X17224Y-22276D01*
X17207Y-22310D01*
X17190Y-22326D01*
X17156Y-22343D01*
X17089Y-22343D01*
X17055Y-22326D01*
X17038Y-22310D01*
X17021Y-22276D01*
X17021Y-22208D01*
X17038Y-22175D01*
X17055Y-22158D01*
X17089Y-22141D01*
X26326Y-21295D02*
X26343Y-21346D01*
X26343Y-21430D01*
X26326Y-21464D01*
X26310Y-21481D01*
X26276Y-21498D01*
X26242Y-21498D01*
X26208Y-21481D01*
X26192Y-21464D01*
X26175Y-21430D01*
X26158Y-21363D01*
X26141Y-21329D01*
X26124Y-21312D01*
X26090Y-21295D01*
X26057Y-21295D01*
X26023Y-21312D01*
X26006Y-21329D01*
X25989Y-21363D01*
X25989Y-21447D01*
X26006Y-21498D01*
X25989Y-21750D02*
X26242Y-21750D01*
X26293Y-21734D01*
X26326Y-21700D01*
X26343Y-21649D01*
X26343Y-21616D01*
X25989Y-22071D02*
X25989Y-22004D01*
X26006Y-21970D01*
X26023Y-21953D01*
X26074Y-21919D01*
X26141Y-21902D01*
X26276Y-21902D01*
X26310Y-21919D01*
X26326Y-21936D01*
X26343Y-21970D01*
X26343Y-22037D01*
X26326Y-22071D01*
X26310Y-22088D01*
X26276Y-22105D01*
X26192Y-22105D01*
X26158Y-22088D01*
X26141Y-22071D01*
X26124Y-22037D01*
X26124Y-21970D01*
X26141Y-21936D01*
X26158Y-21919D01*
X26192Y-21902D01*
X20126Y-20195D02*
X20143Y-20246D01*
X20143Y-20330D01*
X20126Y-20364D01*
X20110Y-20381D01*
X20076Y-20398D01*
X20042Y-20398D01*
X20008Y-20381D01*
X19992Y-20364D01*
X19975Y-20330D01*
X19958Y-20263D01*
X19941Y-20229D01*
X19924Y-20212D01*
X19890Y-20195D01*
X19857Y-20195D01*
X19823Y-20212D01*
X19806Y-20229D01*
X19789Y-20263D01*
X19789Y-20347D01*
X19806Y-20398D01*
X19789Y-20650D02*
X20042Y-20650D01*
X20093Y-20634D01*
X20126Y-20600D01*
X20143Y-20549D01*
X20143Y-20516D01*
X19907Y-20971D02*
X20143Y-20971D01*
X19772Y-20887D02*
X20025Y-20802D01*
X20025Y-21022D01*
X17958Y-21010D02*
X17975Y-21026D01*
X18026Y-21043D01*
X18060Y-21043D01*
X18110Y-21026D01*
X18144Y-20993D01*
X18161Y-20959D01*
X18178Y-20892D01*
X18178Y-20841D01*
X18161Y-20774D01*
X18144Y-20740D01*
X18110Y-20706D01*
X18060Y-20689D01*
X18026Y-20689D01*
X17975Y-20706D01*
X17958Y-20723D01*
X17790Y-21043D02*
X17722Y-21043D01*
X17689Y-21026D01*
X17672Y-21010D01*
X17638Y-20959D01*
X17621Y-20892D01*
X17621Y-20757D01*
X17638Y-20723D01*
X17655Y-20706D01*
X17689Y-20689D01*
X17756Y-20689D01*
X17790Y-20706D01*
X17807Y-20723D01*
X17824Y-20757D01*
X17824Y-20841D01*
X17807Y-20875D01*
X17790Y-20892D01*
X17756Y-20908D01*
X17689Y-20908D01*
X17655Y-20892D01*
X17638Y-20875D01*
X17621Y-20841D01*
X19568Y-21795D02*
X19568Y-21963D01*
X19686Y-21609D02*
X19568Y-21795D01*
X19450Y-21609D01*
X19147Y-21963D02*
X19350Y-21963D01*
X19248Y-21963D02*
X19248Y-21609D01*
X19282Y-21660D01*
X19316Y-21694D01*
X19350Y-21710D01*
%LPC*%
G54D15*
X11771Y-20000D03*
X11771Y-20255D03*
X11771Y-19489D03*
G54D16*
X10610Y-21516D03*
X10610Y-18484D03*
G54D15*
X11771Y-19745D03*
X11771Y-20511D03*
G54D17*
X11614Y-21220D03*
X11614Y-18780D03*
G54D18*
X10610Y-20472D03*
X10610Y-19528D03*
G54D19*
X28050Y-18000D03*
X27950Y-19000D03*
X28050Y-20000D03*
X27950Y-21000D03*
X28050Y-22000D03*
X29050Y-18000D03*
X28950Y-19000D03*
X29050Y-20000D03*
X28950Y-21000D03*
X29050Y-22000D03*
X16000Y-17050D03*
X17000Y-16950D03*
X18000Y-17050D03*
X19000Y-16950D03*
X20000Y-17050D03*
X21000Y-16950D03*
X22000Y-17050D03*
X23000Y-16950D03*
X24000Y-17050D03*
X25000Y-16950D03*
X26000Y-17050D03*
X27000Y-16950D03*
X28000Y-17050D03*
X29000Y-16950D03*
X16000Y-23050D03*
X17000Y-22950D03*
X18000Y-23050D03*
X19000Y-22950D03*
X20000Y-23050D03*
X21000Y-22950D03*
X22000Y-23050D03*
X23000Y-22950D03*
X24000Y-23050D03*
X25000Y-22950D03*
X26000Y-23050D03*
X27000Y-22950D03*
X28000Y-23050D03*
X29000Y-22950D03*
G54D20*
X14683Y-19890D03*
X15037Y-19890D03*
G54D21*
X14860Y-19890D03*
G54D20*
X14683Y-20690D03*
X15037Y-20690D03*
G54D21*
X14860Y-20690D03*
G54D22*
X20437Y-19350D03*
X20437Y-18850D03*
X20437Y-18350D03*
X20437Y-17850D03*
X22563Y-17850D03*
X22563Y-18350D03*
X22563Y-18850D03*
X22563Y-19350D03*
G54D23*
X19626Y-19350D03*
X19626Y-18850D03*
X19626Y-18350D03*
X19626Y-17850D03*
G54D24*
X18554Y-18000D03*
X17846Y-18000D03*
X18200Y-18000D03*
G54D25*
X18600Y-19890D03*
X18600Y-20490D03*
G54D26*
X17100Y-17925D03*
X17100Y-18675D03*
G54D25*
X23400Y-19300D03*
X23400Y-18700D03*
G54D27*
X24000Y-20854D03*
X24000Y-20146D03*
X24000Y-20500D03*
G54D20*
X14683Y-20290D03*
X15037Y-20290D03*
G54D21*
X14860Y-20290D03*
G54D19*
X15950Y-22000D03*
X16050Y-21000D03*
X15950Y-20000D03*
X16015Y-18960D03*
X15985Y-18040D03*
G54D28*
X17100Y-20100D03*
G54D29*
X25725Y-18300D03*
X26475Y-18300D03*
G54D26*
X24700Y-19975D03*
X24700Y-19225D03*
G54D28*
X17100Y-19500D03*
G54D20*
X25300Y-19623D03*
X25300Y-19977D03*
G54D30*
X25300Y-19800D03*
G54D31*
X25725Y-19000D03*
X26475Y-19000D03*
X25725Y-20000D03*
X26100Y-19000D03*
X26475Y-20000D03*
G54D32*
X17800Y-19375D03*
X17800Y-18625D03*
X18800Y-19375D03*
X17800Y-19000D03*
X18800Y-18625D03*
G54D25*
X17100Y-20900D03*
X17100Y-21500D03*
G54D33*
X17100Y-21200D03*
G54D29*
X26450Y-20700D03*
X25700Y-20700D03*
X24950Y-20700D03*
G54D34*
X26075Y-20700D03*
X25325Y-20700D03*
G54D25*
X18000Y-22000D03*
X18000Y-21400D03*
X26800Y-22000D03*
X26800Y-21400D03*
G54D33*
X26800Y-21700D03*
G54D25*
X19400Y-20300D03*
X19400Y-20900D03*
G54D33*
X19400Y-20600D03*
G54D25*
X18600Y-20890D03*
X18600Y-21490D03*
G54D35*
X19400Y-22320D03*
X19400Y-21320D03*
M02*
