G04 (created by PCBNEW-RS274X (2012-jan-04)-stable) date Sun 19 Feb 2012 11:53:43 PM CET*
G01*
G70*
G90*
%MOIN*%
G04 Gerber Fmt 3.4, Leading zero omitted, Abs format*
%FSLAX34Y34*%
G04 APERTURE LIST*
%ADD10C,0.006000*%
%ADD11C,0.005900*%
%ADD12C,0.008000*%
%ADD13R,0.074000X0.074000*%
%ADD14C,0.074000*%
%ADD15R,0.024000X0.086900*%
%ADD16R,0.030000X0.030000*%
%ADD17R,0.039400X0.023600*%
%ADD18R,0.055000X0.035000*%
%ADD19R,0.045000X0.025000*%
%ADD20R,0.020000X0.030000*%
%ADD21R,0.098400X0.019600*%
%ADD22R,0.098400X0.078700*%
%ADD23R,0.039400X0.063000*%
%ADD24R,0.050000X0.025000*%
%ADD25R,0.025000X0.045000*%
%ADD26C,0.021700*%
%ADD27C,0.035400*%
%ADD28C,0.011800*%
G04 APERTURE END LIST*
G54D10*
G54D11*
X22855Y-18227D02*
X22855Y-17912D01*
X22763Y-18137D01*
X22671Y-17912D01*
X22671Y-18227D01*
X22383Y-18197D02*
X22396Y-18212D01*
X22435Y-18227D01*
X22461Y-18227D01*
X22501Y-18212D01*
X22527Y-18182D01*
X22540Y-18152D01*
X22553Y-18092D01*
X22553Y-18047D01*
X22540Y-17987D01*
X22527Y-17957D01*
X22501Y-17927D01*
X22461Y-17912D01*
X22435Y-17912D01*
X22396Y-17927D01*
X22383Y-17942D01*
X22054Y-18227D02*
X22054Y-17912D01*
X22054Y-18062D02*
X21897Y-18062D01*
X21897Y-18227D02*
X21897Y-17912D01*
X21608Y-18197D02*
X21621Y-18212D01*
X21660Y-18227D01*
X21686Y-18227D01*
X21726Y-18212D01*
X21752Y-18182D01*
X21765Y-18152D01*
X21778Y-18092D01*
X21778Y-18047D01*
X21765Y-17987D01*
X21752Y-17957D01*
X21726Y-17927D01*
X21686Y-17912D01*
X21660Y-17912D01*
X21621Y-17927D01*
X21608Y-17942D01*
X21489Y-18227D02*
X21489Y-17912D01*
X21332Y-18227D02*
X21450Y-18047D01*
X21332Y-17912D02*
X21489Y-18092D01*
X22096Y-18677D02*
X22188Y-18527D01*
X22253Y-18677D02*
X22253Y-18362D01*
X22148Y-18362D01*
X22122Y-18377D01*
X22109Y-18392D01*
X22096Y-18422D01*
X22096Y-18467D01*
X22109Y-18497D01*
X22122Y-18512D01*
X22148Y-18527D01*
X22253Y-18527D01*
X21990Y-18392D02*
X21977Y-18377D01*
X21951Y-18362D01*
X21885Y-18362D01*
X21859Y-18377D01*
X21846Y-18392D01*
X21833Y-18422D01*
X21833Y-18452D01*
X21846Y-18497D01*
X22004Y-18677D01*
X21833Y-18677D01*
X22416Y-22090D02*
X21944Y-22090D01*
G54D12*
X20000Y-21050D02*
X20000Y-21350D01*
G54D11*
X24457Y-18515D02*
X24063Y-18515D01*
X19200Y-21203D02*
X19200Y-21597D01*
G54D13*
X16000Y-21000D03*
G54D14*
X16000Y-20000D03*
X16000Y-19000D03*
X16000Y-18000D03*
G54D15*
X25350Y-18270D03*
X25850Y-18270D03*
X26350Y-18270D03*
X26850Y-18270D03*
X26850Y-20330D03*
X26350Y-20330D03*
X25850Y-20330D03*
X25350Y-20330D03*
G54D16*
X18435Y-21460D03*
G54D17*
X17774Y-22161D03*
X17774Y-21649D03*
X17026Y-21905D03*
G54D14*
X29050Y-18000D03*
X28950Y-19000D03*
X29050Y-20000D03*
X28950Y-21000D03*
X29050Y-22000D03*
G54D18*
X17100Y-21175D03*
X17100Y-20425D03*
G54D19*
X17700Y-19400D03*
X17700Y-18800D03*
X18300Y-19400D03*
X18300Y-18800D03*
G54D20*
X18475Y-20900D03*
X17725Y-20900D03*
X18475Y-19900D03*
X18100Y-20900D03*
X17725Y-19900D03*
G54D21*
X14984Y-20000D03*
X14984Y-20314D03*
X14984Y-19371D03*
X14984Y-19686D03*
G54D22*
X12819Y-21771D03*
X14984Y-21771D03*
X12819Y-18229D03*
X14984Y-18229D03*
G54D21*
X14984Y-20629D03*
G54D14*
X28050Y-18000D03*
X27950Y-19000D03*
X28050Y-20000D03*
X27950Y-21000D03*
X28050Y-22000D03*
X16000Y-22950D03*
X17000Y-23050D03*
X18000Y-22992D03*
X19000Y-23050D03*
X20000Y-22950D03*
X21000Y-23050D03*
X22000Y-23050D03*
X23000Y-23050D03*
X24000Y-22950D03*
X25000Y-23050D03*
X26000Y-22950D03*
X27000Y-23050D03*
X28000Y-22950D03*
X29000Y-23050D03*
X16000Y-16950D03*
X17000Y-17050D03*
X18000Y-16950D03*
X19000Y-17050D03*
X20000Y-16950D03*
X21000Y-17050D03*
X22000Y-16950D03*
X23000Y-17050D03*
X24000Y-16950D03*
X25000Y-17050D03*
X26000Y-16950D03*
X27000Y-17050D03*
X28000Y-16950D03*
X29000Y-17050D03*
X16000Y-22000D03*
G54D23*
X22495Y-22090D03*
X21865Y-22090D03*
X21235Y-22090D03*
G54D24*
X20000Y-21000D03*
X20000Y-21400D03*
G54D25*
X23960Y-18515D03*
X24560Y-18515D03*
G54D19*
X19200Y-21700D03*
X19200Y-21100D03*
G54D26*
X21670Y-22240D03*
X25350Y-18890D03*
X22415Y-20700D03*
X27570Y-19750D03*
X22355Y-21100D03*
X27365Y-19955D03*
X22650Y-21360D03*
X22575Y-20930D03*
X26750Y-19495D03*
X26850Y-22245D03*
X21360Y-20485D03*
X21075Y-20485D03*
X21980Y-20735D03*
X22185Y-20535D03*
X19050Y-19500D03*
X19165Y-20300D03*
X19170Y-20580D03*
X18775Y-19580D03*
X16725Y-19670D03*
X17450Y-19790D03*
G54D27*
X24305Y-19150D03*
X17335Y-22290D03*
X23845Y-22055D03*
X20515Y-19850D03*
X17440Y-20600D03*
X22210Y-19245D03*
X25520Y-21850D03*
G54D26*
X23135Y-21865D03*
G54D27*
X20720Y-19050D03*
X24575Y-17980D03*
X24820Y-18875D03*
X21645Y-19050D03*
X25490Y-19820D03*
X19480Y-22360D03*
X18450Y-22365D03*
X18365Y-18190D03*
X16655Y-18290D03*
G54D10*
X21820Y-22090D02*
X21670Y-22240D01*
X21865Y-22090D02*
X21820Y-22090D01*
X22415Y-20700D02*
X22630Y-20700D01*
X26001Y-20889D02*
X26100Y-20790D01*
X25350Y-18890D02*
X25350Y-18270D01*
X26100Y-19875D02*
X25350Y-19125D01*
X25350Y-19125D02*
X25350Y-18270D01*
X26100Y-20790D02*
X26100Y-19875D01*
X22819Y-20889D02*
X26001Y-20889D01*
X22630Y-20700D02*
X22819Y-20889D01*
X26735Y-19750D02*
X26600Y-19885D01*
X25850Y-18270D02*
X25850Y-19030D01*
X26070Y-19250D02*
X27070Y-19250D01*
X26600Y-20970D02*
X26437Y-21133D01*
X25850Y-19030D02*
X26070Y-19250D01*
X22388Y-21133D02*
X22355Y-21100D01*
X26600Y-20970D02*
X26600Y-19885D01*
X27570Y-19750D02*
X26735Y-19750D01*
X26437Y-21133D02*
X22388Y-21133D01*
X27070Y-19250D02*
X27570Y-19750D01*
X22710Y-21255D02*
X26490Y-21255D01*
X27225Y-19955D02*
X26850Y-20330D01*
X26850Y-20895D02*
X26850Y-20330D01*
X22650Y-21360D02*
X22650Y-21315D01*
X27365Y-19955D02*
X27225Y-19955D01*
X26490Y-21255D02*
X26850Y-20895D01*
X22650Y-21315D02*
X22710Y-21255D01*
X26350Y-20931D02*
X26270Y-21011D01*
X26350Y-19895D02*
X26750Y-19495D01*
X26350Y-20931D02*
X26350Y-20330D01*
X22656Y-21011D02*
X22575Y-20930D01*
X26270Y-21011D02*
X22656Y-21011D01*
X26350Y-20330D02*
X26350Y-19895D01*
X27000Y-22395D02*
X26850Y-22245D01*
X27000Y-23050D02*
X27000Y-22395D01*
X22000Y-23050D02*
X21675Y-23050D01*
X21070Y-22585D02*
X20940Y-22455D01*
X21675Y-23050D02*
X21210Y-22585D01*
X20940Y-22455D02*
X20940Y-20905D01*
X21210Y-22585D02*
X21070Y-22585D01*
X20940Y-20905D02*
X21360Y-20485D01*
X21000Y-23050D02*
X20818Y-22868D01*
X20818Y-20742D02*
X21075Y-20485D01*
X20818Y-22868D02*
X20818Y-20742D01*
X21980Y-20735D02*
X21980Y-21182D01*
X22515Y-21682D02*
X22791Y-21682D01*
X22974Y-21499D02*
X26590Y-21499D01*
X26590Y-21499D02*
X27089Y-21000D01*
X27089Y-21000D02*
X27950Y-21000D01*
X22223Y-21425D02*
X22258Y-21425D01*
X22791Y-21682D02*
X22974Y-21499D01*
X22258Y-21425D02*
X22515Y-21682D01*
X21980Y-21182D02*
X22223Y-21425D01*
X22185Y-20990D02*
X22155Y-21020D01*
X22923Y-21377D02*
X26540Y-21377D01*
X22270Y-21300D02*
X22305Y-21300D01*
X27605Y-20000D02*
X28050Y-20000D01*
X27065Y-20852D02*
X27065Y-20287D01*
X22155Y-21185D02*
X22270Y-21300D01*
X22305Y-21300D02*
X22565Y-21560D01*
X27197Y-20155D02*
X27450Y-20155D01*
X27450Y-20155D02*
X27605Y-20000D01*
X27065Y-20287D02*
X27197Y-20155D01*
X26540Y-21377D02*
X27065Y-20852D01*
X22565Y-21560D02*
X22740Y-21560D01*
X22185Y-20535D02*
X22185Y-20990D01*
X22155Y-21020D02*
X22155Y-21185D01*
X22740Y-21560D02*
X22923Y-21377D01*
X19055Y-19500D02*
X19050Y-19500D01*
X19165Y-19610D02*
X19055Y-19500D01*
X19165Y-20300D02*
X19165Y-19610D01*
X19170Y-20580D02*
X19160Y-20580D01*
X19160Y-20580D02*
X18965Y-20385D01*
X18965Y-20385D02*
X18965Y-19770D01*
X18965Y-19770D02*
X18775Y-19580D01*
X16725Y-19670D02*
X16340Y-19670D01*
X16000Y-19340D02*
X16000Y-19000D01*
X16340Y-19670D02*
X16000Y-19330D01*
X16000Y-19330D02*
X16000Y-19000D01*
X14984Y-20000D02*
X15405Y-20000D01*
X15570Y-19770D02*
X16000Y-19340D01*
X15405Y-20000D02*
X15570Y-19835D01*
X15570Y-19835D02*
X15570Y-19770D01*
X16126Y-19874D02*
X16000Y-20000D01*
X17450Y-19790D02*
X17366Y-19874D01*
X14984Y-20314D02*
X15686Y-20314D01*
X17366Y-19874D02*
X16126Y-19874D01*
X15686Y-20314D02*
X16000Y-20000D01*
G54D28*
X23960Y-18805D02*
X23960Y-18515D01*
X24305Y-19150D02*
X23960Y-18805D01*
X18231Y-21881D02*
X17999Y-21649D01*
X18800Y-21736D02*
X18655Y-21881D01*
X17600Y-20025D02*
X17725Y-19900D01*
X16705Y-20025D02*
X17540Y-20025D01*
X17625Y-20170D02*
X18640Y-20170D01*
X18800Y-21100D02*
X18800Y-21736D01*
X17540Y-20025D02*
X17540Y-20085D01*
X18800Y-20330D02*
X18800Y-21100D01*
X17999Y-21649D02*
X17774Y-21649D01*
X14984Y-20629D02*
X15629Y-20629D01*
X16000Y-20730D02*
X16705Y-20025D01*
X17540Y-20085D02*
X17625Y-20170D01*
X16000Y-21000D02*
X16000Y-20730D01*
X18655Y-21881D02*
X18231Y-21881D01*
X17725Y-19425D02*
X17700Y-19400D01*
X17725Y-19900D02*
X17725Y-19425D01*
X15629Y-20629D02*
X16000Y-21000D01*
X17540Y-20025D02*
X17600Y-20025D01*
X18640Y-20170D02*
X18800Y-20330D01*
X19200Y-21100D02*
X18800Y-21100D01*
X28530Y-17480D02*
X27280Y-17480D01*
X27280Y-17480D02*
X27215Y-17545D01*
X27215Y-17545D02*
X20705Y-17545D01*
X29050Y-18000D02*
X28530Y-17480D01*
X20000Y-18250D02*
X20000Y-21000D01*
X20705Y-17545D02*
X20000Y-18250D01*
X19215Y-22060D02*
X19780Y-22060D01*
X20000Y-21840D02*
X20000Y-21400D01*
X19780Y-22060D02*
X20000Y-21840D01*
X18325Y-22060D02*
X19215Y-22060D01*
X19215Y-22060D02*
X19190Y-22060D01*
X19190Y-21710D02*
X19200Y-21700D01*
X18224Y-22161D02*
X18325Y-22060D01*
X19190Y-22060D02*
X19190Y-21710D01*
X17774Y-22161D02*
X18224Y-22161D01*
X17464Y-22161D02*
X17774Y-22161D01*
X17335Y-22290D02*
X17464Y-22161D01*
X17100Y-21050D02*
X17250Y-20900D01*
X17026Y-21249D02*
X17100Y-21175D01*
X17026Y-21905D02*
X17026Y-21249D01*
X16095Y-21905D02*
X16000Y-22000D01*
X17250Y-20900D02*
X17725Y-20900D01*
X17100Y-21175D02*
X17100Y-21050D01*
X17026Y-21905D02*
X16095Y-21905D01*
G54D10*
X21235Y-22090D02*
X21235Y-22385D01*
X17440Y-20435D02*
X17440Y-20600D01*
X21235Y-22385D02*
X21430Y-22580D01*
X21430Y-22580D02*
X21600Y-22580D01*
G54D28*
X17100Y-20425D02*
X17265Y-20425D01*
G54D10*
X17100Y-20425D02*
X17430Y-20425D01*
X17430Y-20425D02*
X17440Y-20435D01*
X18475Y-20900D02*
X18475Y-21420D01*
X18475Y-21420D02*
X18435Y-21460D01*
X18300Y-19400D02*
X18300Y-19725D01*
X18300Y-19725D02*
X18475Y-19900D01*
X23135Y-21865D02*
X22720Y-21865D01*
G54D28*
X25490Y-19545D02*
X25490Y-19820D01*
X24820Y-18875D02*
X25490Y-19545D01*
G54D10*
X22720Y-21865D02*
X22495Y-22090D01*
G54D28*
X25190Y-20738D02*
X25350Y-20578D01*
X22085Y-20305D02*
X22449Y-20305D01*
X16755Y-18190D02*
X18365Y-18190D01*
X20720Y-19050D02*
X21645Y-19050D01*
X24560Y-18615D02*
X24820Y-18875D01*
X24575Y-17980D02*
X24560Y-17995D01*
X19475Y-22365D02*
X19480Y-22360D01*
X24560Y-17995D02*
X24560Y-18515D01*
X16755Y-18190D02*
X16655Y-18290D01*
X22449Y-20305D02*
X22882Y-20738D01*
X22882Y-20738D02*
X25190Y-20738D01*
X21745Y-20645D02*
X22085Y-20305D01*
X22495Y-21911D02*
X22495Y-22090D01*
X21745Y-21161D02*
X21745Y-20645D01*
X21745Y-21161D02*
X22495Y-21911D01*
X25350Y-19960D02*
X25350Y-20330D01*
X25490Y-19820D02*
X25350Y-19960D01*
X25350Y-20330D02*
X25350Y-20578D01*
X18450Y-22365D02*
X19475Y-22365D01*
X24560Y-18515D02*
X24560Y-18615D01*
G54D10*
G36*
X18641Y-20674D02*
X18639Y-20672D01*
X18623Y-20662D01*
X18605Y-20654D01*
X18585Y-20650D01*
X18566Y-20650D01*
X18365Y-20650D01*
X18346Y-20654D01*
X18328Y-20661D01*
X18311Y-20672D01*
X18297Y-20686D01*
X18287Y-20702D01*
X18281Y-20715D01*
X18278Y-20708D01*
X18268Y-20694D01*
X18256Y-20682D01*
X18242Y-20672D01*
X18226Y-20665D01*
X18209Y-20662D01*
X18151Y-20662D01*
X18129Y-20684D01*
X18129Y-20841D01*
X18129Y-20871D01*
X18129Y-20929D01*
X18129Y-20959D01*
X18129Y-21116D01*
X18151Y-21138D01*
X18209Y-21138D01*
X18226Y-21135D01*
X18242Y-21128D01*
X18256Y-21118D01*
X18268Y-21106D01*
X18278Y-21092D01*
X18281Y-21084D01*
X18286Y-21097D01*
X18297Y-21114D01*
X18311Y-21128D01*
X18327Y-21138D01*
X18345Y-21146D01*
X18345Y-21210D01*
X18275Y-21210D01*
X18256Y-21214D01*
X18238Y-21221D01*
X18221Y-21232D01*
X18207Y-21246D01*
X18197Y-21262D01*
X18189Y-21280D01*
X18185Y-21300D01*
X18185Y-21319D01*
X18185Y-21611D01*
X18116Y-21542D01*
X18113Y-21538D01*
X18111Y-21537D01*
X18089Y-21518D01*
X18087Y-21517D01*
X18067Y-21506D01*
X18067Y-21502D01*
X18060Y-21484D01*
X18049Y-21467D01*
X18035Y-21453D01*
X18019Y-21443D01*
X18001Y-21435D01*
X17981Y-21431D01*
X17962Y-21431D01*
X17567Y-21431D01*
X17548Y-21435D01*
X17530Y-21442D01*
X17513Y-21453D01*
X17499Y-21467D01*
X17489Y-21483D01*
X17481Y-21501D01*
X17477Y-21521D01*
X17477Y-21540D01*
X17477Y-21777D01*
X17481Y-21796D01*
X17488Y-21814D01*
X17499Y-21831D01*
X17513Y-21845D01*
X17529Y-21855D01*
X17547Y-21863D01*
X17567Y-21867D01*
X17586Y-21867D01*
X17981Y-21867D01*
X17990Y-21864D01*
X18113Y-21987D01*
X18117Y-21992D01*
X18119Y-21993D01*
X18129Y-22002D01*
X18062Y-22002D01*
X18060Y-21996D01*
X18049Y-21979D01*
X18035Y-21965D01*
X18019Y-21955D01*
X18001Y-21947D01*
X17981Y-21943D01*
X17962Y-21943D01*
X17567Y-21943D01*
X17548Y-21947D01*
X17530Y-21954D01*
X17513Y-21965D01*
X17499Y-21979D01*
X17489Y-21995D01*
X17485Y-22002D01*
X17466Y-22002D01*
X17464Y-22002D01*
X17433Y-22005D01*
X17403Y-22014D01*
X17394Y-22019D01*
X17393Y-22019D01*
X17364Y-22013D01*
X17323Y-22013D01*
X17323Y-21777D01*
X17319Y-21758D01*
X17312Y-21740D01*
X17301Y-21723D01*
X17287Y-21709D01*
X17271Y-21699D01*
X17253Y-21691D01*
X17233Y-21687D01*
X17214Y-21687D01*
X17185Y-21687D01*
X17185Y-21450D01*
X17385Y-21450D01*
X17404Y-21446D01*
X17422Y-21439D01*
X17439Y-21428D01*
X17453Y-21414D01*
X17463Y-21398D01*
X17471Y-21380D01*
X17475Y-21360D01*
X17475Y-21341D01*
X17475Y-21059D01*
X17525Y-21059D01*
X17525Y-21060D01*
X17529Y-21079D01*
X17536Y-21097D01*
X17547Y-21114D01*
X17561Y-21128D01*
X17577Y-21138D01*
X17595Y-21146D01*
X17615Y-21150D01*
X17634Y-21150D01*
X17835Y-21150D01*
X17854Y-21146D01*
X17872Y-21139D01*
X17889Y-21128D01*
X17903Y-21114D01*
X17913Y-21098D01*
X17918Y-21084D01*
X17922Y-21092D01*
X17932Y-21106D01*
X17944Y-21118D01*
X17958Y-21128D01*
X17974Y-21135D01*
X17991Y-21138D01*
X18049Y-21138D01*
X18071Y-21116D01*
X18071Y-20959D01*
X18071Y-20929D01*
X18071Y-20871D01*
X18071Y-20841D01*
X18071Y-20684D01*
X18049Y-20662D01*
X17991Y-20662D01*
X17974Y-20665D01*
X17958Y-20672D01*
X17944Y-20682D01*
X17932Y-20694D01*
X17922Y-20708D01*
X17918Y-20715D01*
X17914Y-20703D01*
X17903Y-20686D01*
X17889Y-20672D01*
X17873Y-20662D01*
X17855Y-20654D01*
X17835Y-20650D01*
X17816Y-20650D01*
X17615Y-20650D01*
X17596Y-20654D01*
X17578Y-20661D01*
X17561Y-20672D01*
X17547Y-20686D01*
X17537Y-20702D01*
X17529Y-20720D01*
X17525Y-20740D01*
X17525Y-20741D01*
X17463Y-20741D01*
X17463Y-20609D01*
X17463Y-20476D01*
X17441Y-20454D01*
X17129Y-20454D01*
X17129Y-20666D01*
X17151Y-20688D01*
X17367Y-20688D01*
X17384Y-20688D01*
X17401Y-20685D01*
X17417Y-20678D01*
X17431Y-20668D01*
X17443Y-20656D01*
X17453Y-20642D01*
X17460Y-20626D01*
X17463Y-20609D01*
X17463Y-20741D01*
X17252Y-20741D01*
X17250Y-20741D01*
X17219Y-20744D01*
X17203Y-20748D01*
X17191Y-20752D01*
X17189Y-20753D01*
X17163Y-20766D01*
X17139Y-20786D01*
X17138Y-20787D01*
X17137Y-20788D01*
X17071Y-20854D01*
X17071Y-20666D01*
X17071Y-20454D01*
X16759Y-20454D01*
X16737Y-20476D01*
X16737Y-20609D01*
X16740Y-20626D01*
X16747Y-20642D01*
X16757Y-20656D01*
X16769Y-20668D01*
X16783Y-20678D01*
X16799Y-20685D01*
X16816Y-20688D01*
X16833Y-20688D01*
X17049Y-20688D01*
X17071Y-20666D01*
X17071Y-20854D01*
X17025Y-20900D01*
X16815Y-20900D01*
X16796Y-20904D01*
X16778Y-20911D01*
X16761Y-20922D01*
X16747Y-20936D01*
X16737Y-20952D01*
X16729Y-20970D01*
X16725Y-20990D01*
X16725Y-21009D01*
X16725Y-21360D01*
X16729Y-21379D01*
X16736Y-21397D01*
X16747Y-21414D01*
X16761Y-21428D01*
X16777Y-21438D01*
X16795Y-21446D01*
X16815Y-21450D01*
X16834Y-21450D01*
X16867Y-21450D01*
X16867Y-21687D01*
X16819Y-21687D01*
X16800Y-21691D01*
X16782Y-21698D01*
X16765Y-21709D01*
X16751Y-21723D01*
X16741Y-21739D01*
X16737Y-21746D01*
X16395Y-21746D01*
X16366Y-21702D01*
X16301Y-21636D01*
X16225Y-21585D01*
X16140Y-21549D01*
X16049Y-21530D01*
X15957Y-21530D01*
X15867Y-21547D01*
X15781Y-21581D01*
X15704Y-21632D01*
X15638Y-21696D01*
X15586Y-21772D01*
X15576Y-21795D01*
X15576Y-21454D01*
X15582Y-21458D01*
X15600Y-21466D01*
X15620Y-21470D01*
X15639Y-21470D01*
X16380Y-21470D01*
X16399Y-21466D01*
X16417Y-21459D01*
X16434Y-21448D01*
X16448Y-21434D01*
X16458Y-21418D01*
X16466Y-21400D01*
X16470Y-21380D01*
X16470Y-21361D01*
X16470Y-20620D01*
X16466Y-20601D01*
X16459Y-20583D01*
X16448Y-20566D01*
X16434Y-20552D01*
X16418Y-20542D01*
X16413Y-20540D01*
X16749Y-20204D01*
X16747Y-20208D01*
X16740Y-20224D01*
X16737Y-20241D01*
X16737Y-20374D01*
X16759Y-20396D01*
X17041Y-20396D01*
X17071Y-20396D01*
X17129Y-20396D01*
X17159Y-20396D01*
X17441Y-20396D01*
X17463Y-20374D01*
X17463Y-20241D01*
X17461Y-20230D01*
X17510Y-20280D01*
X17511Y-20281D01*
X17512Y-20282D01*
X17535Y-20301D01*
X17536Y-20302D01*
X17558Y-20314D01*
X17562Y-20316D01*
X17564Y-20317D01*
X17569Y-20318D01*
X17592Y-20326D01*
X17623Y-20329D01*
X17624Y-20329D01*
X17625Y-20329D01*
X18574Y-20329D01*
X18641Y-20395D01*
X18641Y-20674D01*
X18641Y-20674D01*
G37*
G54D11*
X18641Y-20674D02*
X18639Y-20672D01*
X18623Y-20662D01*
X18605Y-20654D01*
X18585Y-20650D01*
X18566Y-20650D01*
X18365Y-20650D01*
X18346Y-20654D01*
X18328Y-20661D01*
X18311Y-20672D01*
X18297Y-20686D01*
X18287Y-20702D01*
X18281Y-20715D01*
X18278Y-20708D01*
X18268Y-20694D01*
X18256Y-20682D01*
X18242Y-20672D01*
X18226Y-20665D01*
X18209Y-20662D01*
X18151Y-20662D01*
X18129Y-20684D01*
X18129Y-20841D01*
X18129Y-20871D01*
X18129Y-20929D01*
X18129Y-20959D01*
X18129Y-21116D01*
X18151Y-21138D01*
X18209Y-21138D01*
X18226Y-21135D01*
X18242Y-21128D01*
X18256Y-21118D01*
X18268Y-21106D01*
X18278Y-21092D01*
X18281Y-21084D01*
X18286Y-21097D01*
X18297Y-21114D01*
X18311Y-21128D01*
X18327Y-21138D01*
X18345Y-21146D01*
X18345Y-21210D01*
X18275Y-21210D01*
X18256Y-21214D01*
X18238Y-21221D01*
X18221Y-21232D01*
X18207Y-21246D01*
X18197Y-21262D01*
X18189Y-21280D01*
X18185Y-21300D01*
X18185Y-21319D01*
X18185Y-21611D01*
X18116Y-21542D01*
X18113Y-21538D01*
X18111Y-21537D01*
X18089Y-21518D01*
X18087Y-21517D01*
X18067Y-21506D01*
X18067Y-21502D01*
X18060Y-21484D01*
X18049Y-21467D01*
X18035Y-21453D01*
X18019Y-21443D01*
X18001Y-21435D01*
X17981Y-21431D01*
X17962Y-21431D01*
X17567Y-21431D01*
X17548Y-21435D01*
X17530Y-21442D01*
X17513Y-21453D01*
X17499Y-21467D01*
X17489Y-21483D01*
X17481Y-21501D01*
X17477Y-21521D01*
X17477Y-21540D01*
X17477Y-21777D01*
X17481Y-21796D01*
X17488Y-21814D01*
X17499Y-21831D01*
X17513Y-21845D01*
X17529Y-21855D01*
X17547Y-21863D01*
X17567Y-21867D01*
X17586Y-21867D01*
X17981Y-21867D01*
X17990Y-21864D01*
X18113Y-21987D01*
X18117Y-21992D01*
X18119Y-21993D01*
X18129Y-22002D01*
X18062Y-22002D01*
X18060Y-21996D01*
X18049Y-21979D01*
X18035Y-21965D01*
X18019Y-21955D01*
X18001Y-21947D01*
X17981Y-21943D01*
X17962Y-21943D01*
X17567Y-21943D01*
X17548Y-21947D01*
X17530Y-21954D01*
X17513Y-21965D01*
X17499Y-21979D01*
X17489Y-21995D01*
X17485Y-22002D01*
X17466Y-22002D01*
X17464Y-22002D01*
X17433Y-22005D01*
X17403Y-22014D01*
X17394Y-22019D01*
X17393Y-22019D01*
X17364Y-22013D01*
X17323Y-22013D01*
X17323Y-21777D01*
X17319Y-21758D01*
X17312Y-21740D01*
X17301Y-21723D01*
X17287Y-21709D01*
X17271Y-21699D01*
X17253Y-21691D01*
X17233Y-21687D01*
X17214Y-21687D01*
X17185Y-21687D01*
X17185Y-21450D01*
X17385Y-21450D01*
X17404Y-21446D01*
X17422Y-21439D01*
X17439Y-21428D01*
X17453Y-21414D01*
X17463Y-21398D01*
X17471Y-21380D01*
X17475Y-21360D01*
X17475Y-21341D01*
X17475Y-21059D01*
X17525Y-21059D01*
X17525Y-21060D01*
X17529Y-21079D01*
X17536Y-21097D01*
X17547Y-21114D01*
X17561Y-21128D01*
X17577Y-21138D01*
X17595Y-21146D01*
X17615Y-21150D01*
X17634Y-21150D01*
X17835Y-21150D01*
X17854Y-21146D01*
X17872Y-21139D01*
X17889Y-21128D01*
X17903Y-21114D01*
X17913Y-21098D01*
X17918Y-21084D01*
X17922Y-21092D01*
X17932Y-21106D01*
X17944Y-21118D01*
X17958Y-21128D01*
X17974Y-21135D01*
X17991Y-21138D01*
X18049Y-21138D01*
X18071Y-21116D01*
X18071Y-20959D01*
X18071Y-20929D01*
X18071Y-20871D01*
X18071Y-20841D01*
X18071Y-20684D01*
X18049Y-20662D01*
X17991Y-20662D01*
X17974Y-20665D01*
X17958Y-20672D01*
X17944Y-20682D01*
X17932Y-20694D01*
X17922Y-20708D01*
X17918Y-20715D01*
X17914Y-20703D01*
X17903Y-20686D01*
X17889Y-20672D01*
X17873Y-20662D01*
X17855Y-20654D01*
X17835Y-20650D01*
X17816Y-20650D01*
X17615Y-20650D01*
X17596Y-20654D01*
X17578Y-20661D01*
X17561Y-20672D01*
X17547Y-20686D01*
X17537Y-20702D01*
X17529Y-20720D01*
X17525Y-20740D01*
X17525Y-20741D01*
X17463Y-20741D01*
X17463Y-20609D01*
X17463Y-20476D01*
X17441Y-20454D01*
X17129Y-20454D01*
X17129Y-20666D01*
X17151Y-20688D01*
X17367Y-20688D01*
X17384Y-20688D01*
X17401Y-20685D01*
X17417Y-20678D01*
X17431Y-20668D01*
X17443Y-20656D01*
X17453Y-20642D01*
X17460Y-20626D01*
X17463Y-20609D01*
X17463Y-20741D01*
X17252Y-20741D01*
X17250Y-20741D01*
X17219Y-20744D01*
X17203Y-20748D01*
X17191Y-20752D01*
X17189Y-20753D01*
X17163Y-20766D01*
X17139Y-20786D01*
X17138Y-20787D01*
X17137Y-20788D01*
X17071Y-20854D01*
X17071Y-20666D01*
X17071Y-20454D01*
X16759Y-20454D01*
X16737Y-20476D01*
X16737Y-20609D01*
X16740Y-20626D01*
X16747Y-20642D01*
X16757Y-20656D01*
X16769Y-20668D01*
X16783Y-20678D01*
X16799Y-20685D01*
X16816Y-20688D01*
X16833Y-20688D01*
X17049Y-20688D01*
X17071Y-20666D01*
X17071Y-20854D01*
X17025Y-20900D01*
X16815Y-20900D01*
X16796Y-20904D01*
X16778Y-20911D01*
X16761Y-20922D01*
X16747Y-20936D01*
X16737Y-20952D01*
X16729Y-20970D01*
X16725Y-20990D01*
X16725Y-21009D01*
X16725Y-21360D01*
X16729Y-21379D01*
X16736Y-21397D01*
X16747Y-21414D01*
X16761Y-21428D01*
X16777Y-21438D01*
X16795Y-21446D01*
X16815Y-21450D01*
X16834Y-21450D01*
X16867Y-21450D01*
X16867Y-21687D01*
X16819Y-21687D01*
X16800Y-21691D01*
X16782Y-21698D01*
X16765Y-21709D01*
X16751Y-21723D01*
X16741Y-21739D01*
X16737Y-21746D01*
X16395Y-21746D01*
X16366Y-21702D01*
X16301Y-21636D01*
X16225Y-21585D01*
X16140Y-21549D01*
X16049Y-21530D01*
X15957Y-21530D01*
X15867Y-21547D01*
X15781Y-21581D01*
X15704Y-21632D01*
X15638Y-21696D01*
X15586Y-21772D01*
X15576Y-21795D01*
X15576Y-21454D01*
X15582Y-21458D01*
X15600Y-21466D01*
X15620Y-21470D01*
X15639Y-21470D01*
X16380Y-21470D01*
X16399Y-21466D01*
X16417Y-21459D01*
X16434Y-21448D01*
X16448Y-21434D01*
X16458Y-21418D01*
X16466Y-21400D01*
X16470Y-21380D01*
X16470Y-21361D01*
X16470Y-20620D01*
X16466Y-20601D01*
X16459Y-20583D01*
X16448Y-20566D01*
X16434Y-20552D01*
X16418Y-20542D01*
X16413Y-20540D01*
X16749Y-20204D01*
X16747Y-20208D01*
X16740Y-20224D01*
X16737Y-20241D01*
X16737Y-20374D01*
X16759Y-20396D01*
X17041Y-20396D01*
X17071Y-20396D01*
X17129Y-20396D01*
X17159Y-20396D01*
X17441Y-20396D01*
X17463Y-20374D01*
X17463Y-20241D01*
X17461Y-20230D01*
X17510Y-20280D01*
X17511Y-20281D01*
X17512Y-20282D01*
X17535Y-20301D01*
X17536Y-20302D01*
X17558Y-20314D01*
X17562Y-20316D01*
X17564Y-20317D01*
X17569Y-20318D01*
X17592Y-20326D01*
X17623Y-20329D01*
X17624Y-20329D01*
X17625Y-20329D01*
X18574Y-20329D01*
X18641Y-20395D01*
X18641Y-20674D01*
G54D10*
G36*
X29581Y-23384D02*
X29520Y-23445D01*
X29520Y-21954D01*
X29520Y-19954D01*
X29502Y-19864D01*
X29467Y-19778D01*
X29420Y-19707D01*
X29420Y-18954D01*
X29402Y-18864D01*
X29367Y-18778D01*
X29316Y-18702D01*
X29251Y-18636D01*
X29175Y-18585D01*
X29090Y-18549D01*
X28999Y-18530D01*
X28907Y-18530D01*
X28817Y-18547D01*
X28731Y-18581D01*
X28654Y-18632D01*
X28588Y-18696D01*
X28536Y-18772D01*
X28500Y-18857D01*
X28481Y-18947D01*
X28479Y-19039D01*
X28496Y-19130D01*
X28530Y-19216D01*
X28580Y-19293D01*
X28644Y-19360D01*
X28720Y-19412D01*
X28804Y-19449D01*
X28894Y-19469D01*
X28986Y-19471D01*
X29077Y-19455D01*
X29163Y-19422D01*
X29241Y-19372D01*
X29307Y-19309D01*
X29361Y-19233D01*
X29398Y-19149D01*
X29419Y-19059D01*
X29420Y-18954D01*
X29420Y-19707D01*
X29416Y-19702D01*
X29351Y-19636D01*
X29275Y-19585D01*
X29190Y-19549D01*
X29099Y-19530D01*
X29007Y-19530D01*
X28917Y-19547D01*
X28831Y-19581D01*
X28754Y-19632D01*
X28688Y-19696D01*
X28636Y-19772D01*
X28600Y-19857D01*
X28581Y-19947D01*
X28579Y-20039D01*
X28596Y-20130D01*
X28630Y-20216D01*
X28680Y-20293D01*
X28744Y-20360D01*
X28820Y-20412D01*
X28904Y-20449D01*
X28994Y-20469D01*
X29086Y-20471D01*
X29177Y-20455D01*
X29263Y-20422D01*
X29341Y-20372D01*
X29407Y-20309D01*
X29461Y-20233D01*
X29498Y-20149D01*
X29519Y-20059D01*
X29520Y-19954D01*
X29520Y-21954D01*
X29502Y-21864D01*
X29467Y-21778D01*
X29420Y-21707D01*
X29420Y-20954D01*
X29402Y-20864D01*
X29367Y-20778D01*
X29316Y-20702D01*
X29251Y-20636D01*
X29175Y-20585D01*
X29090Y-20549D01*
X28999Y-20530D01*
X28907Y-20530D01*
X28817Y-20547D01*
X28731Y-20581D01*
X28654Y-20632D01*
X28588Y-20696D01*
X28536Y-20772D01*
X28500Y-20857D01*
X28481Y-20947D01*
X28479Y-21039D01*
X28496Y-21130D01*
X28530Y-21216D01*
X28580Y-21293D01*
X28644Y-21360D01*
X28720Y-21412D01*
X28804Y-21449D01*
X28894Y-21469D01*
X28986Y-21471D01*
X29077Y-21455D01*
X29163Y-21422D01*
X29241Y-21372D01*
X29307Y-21309D01*
X29361Y-21233D01*
X29398Y-21149D01*
X29419Y-21059D01*
X29420Y-20954D01*
X29420Y-21707D01*
X29416Y-21702D01*
X29351Y-21636D01*
X29275Y-21585D01*
X29190Y-21549D01*
X29099Y-21530D01*
X29007Y-21530D01*
X28917Y-21547D01*
X28831Y-21581D01*
X28754Y-21632D01*
X28688Y-21696D01*
X28636Y-21772D01*
X28600Y-21857D01*
X28581Y-21947D01*
X28579Y-22039D01*
X28596Y-22130D01*
X28630Y-22216D01*
X28680Y-22293D01*
X28744Y-22360D01*
X28820Y-22412D01*
X28904Y-22449D01*
X28994Y-22469D01*
X29086Y-22471D01*
X29177Y-22455D01*
X29263Y-22422D01*
X29341Y-22372D01*
X29407Y-22309D01*
X29461Y-22233D01*
X29498Y-22149D01*
X29519Y-22059D01*
X29520Y-21954D01*
X29520Y-23445D01*
X29470Y-23495D01*
X29470Y-23004D01*
X29452Y-22914D01*
X29417Y-22828D01*
X29366Y-22752D01*
X29301Y-22686D01*
X29225Y-22635D01*
X29140Y-22599D01*
X29049Y-22580D01*
X28957Y-22580D01*
X28867Y-22597D01*
X28781Y-22631D01*
X28704Y-22682D01*
X28638Y-22746D01*
X28586Y-22822D01*
X28550Y-22907D01*
X28531Y-22997D01*
X28529Y-23089D01*
X28546Y-23180D01*
X28580Y-23266D01*
X28630Y-23343D01*
X28694Y-23410D01*
X28770Y-23462D01*
X28854Y-23499D01*
X28944Y-23519D01*
X29036Y-23521D01*
X29127Y-23505D01*
X29213Y-23472D01*
X29291Y-23422D01*
X29357Y-23359D01*
X29411Y-23283D01*
X29448Y-23199D01*
X29469Y-23109D01*
X29470Y-23004D01*
X29470Y-23495D01*
X29384Y-23581D01*
X28520Y-23581D01*
X28520Y-21954D01*
X28502Y-21864D01*
X28467Y-21778D01*
X28416Y-21702D01*
X28351Y-21636D01*
X28275Y-21585D01*
X28190Y-21549D01*
X28099Y-21530D01*
X28007Y-21530D01*
X27917Y-21547D01*
X27831Y-21581D01*
X27754Y-21632D01*
X27688Y-21696D01*
X27636Y-21772D01*
X27600Y-21857D01*
X27581Y-21947D01*
X27579Y-22039D01*
X27596Y-22130D01*
X27630Y-22216D01*
X27680Y-22293D01*
X27744Y-22360D01*
X27820Y-22412D01*
X27904Y-22449D01*
X27994Y-22469D01*
X28086Y-22471D01*
X28177Y-22455D01*
X28263Y-22422D01*
X28341Y-22372D01*
X28407Y-22309D01*
X28461Y-22233D01*
X28498Y-22149D01*
X28519Y-22059D01*
X28520Y-21954D01*
X28520Y-23581D01*
X28470Y-23581D01*
X28470Y-22904D01*
X28452Y-22814D01*
X28417Y-22728D01*
X28366Y-22652D01*
X28301Y-22586D01*
X28225Y-22535D01*
X28140Y-22499D01*
X28049Y-22480D01*
X27957Y-22480D01*
X27867Y-22497D01*
X27781Y-22531D01*
X27704Y-22582D01*
X27638Y-22646D01*
X27586Y-22722D01*
X27550Y-22807D01*
X27531Y-22897D01*
X27529Y-22989D01*
X27546Y-23080D01*
X27580Y-23166D01*
X27630Y-23243D01*
X27694Y-23310D01*
X27770Y-23362D01*
X27854Y-23399D01*
X27944Y-23419D01*
X28036Y-23421D01*
X28127Y-23405D01*
X28213Y-23372D01*
X28291Y-23322D01*
X28357Y-23259D01*
X28411Y-23183D01*
X28448Y-23099D01*
X28469Y-23009D01*
X28470Y-22904D01*
X28470Y-23581D01*
X27470Y-23581D01*
X27470Y-23004D01*
X27452Y-22914D01*
X27417Y-22828D01*
X27366Y-22752D01*
X27301Y-22686D01*
X27225Y-22635D01*
X27140Y-22599D01*
X27130Y-22596D01*
X27130Y-22396D01*
X27130Y-22395D01*
X27128Y-22370D01*
X27120Y-22347D01*
X27120Y-22345D01*
X27112Y-22330D01*
X27109Y-22324D01*
X27108Y-22323D01*
X27093Y-22304D01*
X27092Y-22303D01*
X27057Y-22268D01*
X27058Y-22225D01*
X27050Y-22185D01*
X27035Y-22147D01*
X27012Y-22113D01*
X26983Y-22084D01*
X26950Y-22061D01*
X26912Y-22046D01*
X26872Y-22037D01*
X26831Y-22037D01*
X26791Y-22044D01*
X26754Y-22060D01*
X26719Y-22082D01*
X26690Y-22110D01*
X26667Y-22144D01*
X26651Y-22181D01*
X26642Y-22221D01*
X26642Y-22262D01*
X26649Y-22302D01*
X26664Y-22340D01*
X26686Y-22374D01*
X26714Y-22404D01*
X26748Y-22427D01*
X26785Y-22444D01*
X26825Y-22452D01*
X26866Y-22453D01*
X26870Y-22452D01*
X26870Y-22596D01*
X26867Y-22597D01*
X26781Y-22631D01*
X26704Y-22682D01*
X26638Y-22746D01*
X26586Y-22822D01*
X26550Y-22907D01*
X26531Y-22997D01*
X26529Y-23089D01*
X26546Y-23180D01*
X26580Y-23266D01*
X26630Y-23343D01*
X26694Y-23410D01*
X26770Y-23462D01*
X26854Y-23499D01*
X26944Y-23519D01*
X27036Y-23521D01*
X27127Y-23505D01*
X27213Y-23472D01*
X27291Y-23422D01*
X27357Y-23359D01*
X27411Y-23283D01*
X27448Y-23199D01*
X27469Y-23109D01*
X27470Y-23004D01*
X27470Y-23581D01*
X26470Y-23581D01*
X26470Y-22904D01*
X26452Y-22814D01*
X26417Y-22728D01*
X26366Y-22652D01*
X26301Y-22586D01*
X26225Y-22535D01*
X26140Y-22499D01*
X26049Y-22480D01*
X25957Y-22480D01*
X25867Y-22497D01*
X25781Y-22531D01*
X25704Y-22582D01*
X25638Y-22646D01*
X25586Y-22722D01*
X25550Y-22807D01*
X25531Y-22897D01*
X25529Y-22989D01*
X25546Y-23080D01*
X25580Y-23166D01*
X25630Y-23243D01*
X25694Y-23310D01*
X25770Y-23362D01*
X25854Y-23399D01*
X25944Y-23419D01*
X26036Y-23421D01*
X26127Y-23405D01*
X26213Y-23372D01*
X26291Y-23322D01*
X26357Y-23259D01*
X26411Y-23183D01*
X26448Y-23099D01*
X26469Y-23009D01*
X26470Y-22904D01*
X26470Y-23581D01*
X25470Y-23581D01*
X25470Y-23004D01*
X25452Y-22914D01*
X25417Y-22828D01*
X25366Y-22752D01*
X25301Y-22686D01*
X25225Y-22635D01*
X25140Y-22599D01*
X25049Y-22580D01*
X24957Y-22580D01*
X24867Y-22597D01*
X24781Y-22631D01*
X24704Y-22682D01*
X24638Y-22746D01*
X24586Y-22822D01*
X24550Y-22907D01*
X24531Y-22997D01*
X24529Y-23089D01*
X24546Y-23180D01*
X24580Y-23266D01*
X24630Y-23343D01*
X24694Y-23410D01*
X24770Y-23462D01*
X24781Y-23466D01*
X24854Y-23499D01*
X24944Y-23519D01*
X25036Y-23521D01*
X25127Y-23505D01*
X25213Y-23472D01*
X25291Y-23422D01*
X25357Y-23359D01*
X25411Y-23283D01*
X25448Y-23199D01*
X25469Y-23109D01*
X25470Y-23004D01*
X25470Y-23581D01*
X24781Y-23581D01*
X24470Y-23581D01*
X24470Y-22904D01*
X24452Y-22814D01*
X24417Y-22728D01*
X24366Y-22652D01*
X24301Y-22586D01*
X24225Y-22535D01*
X24140Y-22499D01*
X24049Y-22480D01*
X23957Y-22480D01*
X23867Y-22497D01*
X23781Y-22531D01*
X23704Y-22582D01*
X23638Y-22646D01*
X23586Y-22722D01*
X23550Y-22807D01*
X23531Y-22897D01*
X23529Y-22989D01*
X23546Y-23080D01*
X23580Y-23166D01*
X23630Y-23243D01*
X23694Y-23310D01*
X23770Y-23362D01*
X23854Y-23399D01*
X23944Y-23419D01*
X24036Y-23421D01*
X24127Y-23405D01*
X24213Y-23372D01*
X24291Y-23322D01*
X24357Y-23259D01*
X24411Y-23183D01*
X24448Y-23099D01*
X24469Y-23009D01*
X24470Y-22904D01*
X24470Y-23581D01*
X23470Y-23581D01*
X23470Y-23004D01*
X23452Y-22914D01*
X23417Y-22828D01*
X23366Y-22752D01*
X23301Y-22686D01*
X23225Y-22635D01*
X23140Y-22599D01*
X23049Y-22580D01*
X22957Y-22580D01*
X22867Y-22597D01*
X22781Y-22631D01*
X22704Y-22682D01*
X22638Y-22746D01*
X22586Y-22822D01*
X22550Y-22907D01*
X22531Y-22997D01*
X22529Y-23089D01*
X22546Y-23180D01*
X22580Y-23266D01*
X22630Y-23343D01*
X22694Y-23410D01*
X22770Y-23462D01*
X22781Y-23466D01*
X22854Y-23499D01*
X22944Y-23519D01*
X23036Y-23521D01*
X23127Y-23505D01*
X23213Y-23472D01*
X23291Y-23422D01*
X23357Y-23359D01*
X23411Y-23283D01*
X23448Y-23199D01*
X23469Y-23109D01*
X23470Y-23004D01*
X23470Y-23581D01*
X22781Y-23581D01*
X20470Y-23581D01*
X20470Y-22904D01*
X20452Y-22814D01*
X20417Y-22728D01*
X20366Y-22652D01*
X20329Y-22614D01*
X20301Y-22586D01*
X20225Y-22535D01*
X20140Y-22499D01*
X20049Y-22480D01*
X19957Y-22480D01*
X19867Y-22497D01*
X19781Y-22531D01*
X19704Y-22582D01*
X19638Y-22646D01*
X19586Y-22722D01*
X19550Y-22807D01*
X19531Y-22897D01*
X19529Y-22989D01*
X19546Y-23080D01*
X19580Y-23166D01*
X19630Y-23243D01*
X19694Y-23310D01*
X19770Y-23362D01*
X19854Y-23399D01*
X19944Y-23419D01*
X20036Y-23421D01*
X20127Y-23405D01*
X20213Y-23372D01*
X20291Y-23322D01*
X20329Y-23285D01*
X20357Y-23259D01*
X20411Y-23183D01*
X20448Y-23099D01*
X20469Y-23009D01*
X20470Y-22904D01*
X20470Y-23581D01*
X20329Y-23581D01*
X19509Y-23581D01*
X19470Y-23581D01*
X19470Y-23004D01*
X19452Y-22914D01*
X19417Y-22828D01*
X19366Y-22752D01*
X19301Y-22686D01*
X19225Y-22635D01*
X19140Y-22599D01*
X19049Y-22580D01*
X18957Y-22580D01*
X18867Y-22597D01*
X18781Y-22631D01*
X18704Y-22682D01*
X18638Y-22746D01*
X18586Y-22822D01*
X18550Y-22907D01*
X18531Y-22997D01*
X18529Y-23089D01*
X18546Y-23180D01*
X18580Y-23266D01*
X18630Y-23343D01*
X18694Y-23410D01*
X18770Y-23462D01*
X18854Y-23499D01*
X18944Y-23519D01*
X19036Y-23521D01*
X19127Y-23505D01*
X19213Y-23472D01*
X19291Y-23422D01*
X19357Y-23359D01*
X19411Y-23283D01*
X19448Y-23199D01*
X19469Y-23109D01*
X19470Y-23004D01*
X19470Y-23581D01*
X18470Y-23581D01*
X18470Y-22946D01*
X18452Y-22856D01*
X18417Y-22770D01*
X18366Y-22694D01*
X18301Y-22628D01*
X18225Y-22577D01*
X18140Y-22541D01*
X18049Y-22522D01*
X17957Y-22522D01*
X17867Y-22539D01*
X17781Y-22573D01*
X17704Y-22624D01*
X17638Y-22688D01*
X17586Y-22764D01*
X17550Y-22849D01*
X17531Y-22939D01*
X17529Y-23031D01*
X17546Y-23122D01*
X17580Y-23208D01*
X17630Y-23285D01*
X17694Y-23352D01*
X17770Y-23404D01*
X17854Y-23441D01*
X17944Y-23461D01*
X18036Y-23463D01*
X18127Y-23447D01*
X18213Y-23414D01*
X18291Y-23364D01*
X18357Y-23301D01*
X18411Y-23225D01*
X18448Y-23141D01*
X18469Y-23051D01*
X18470Y-22946D01*
X18470Y-23581D01*
X17458Y-23581D01*
X17458Y-23040D01*
X17448Y-22952D01*
X17420Y-22866D01*
X17387Y-22805D01*
X17328Y-22763D01*
X17287Y-22804D01*
X17287Y-22722D01*
X17245Y-22663D01*
X17165Y-22623D01*
X17079Y-22599D01*
X16990Y-22592D01*
X16902Y-22602D01*
X16816Y-22630D01*
X16755Y-22663D01*
X16713Y-22722D01*
X17000Y-23009D01*
X17287Y-22722D01*
X17287Y-22804D01*
X17041Y-23050D01*
X17328Y-23337D01*
X17387Y-23295D01*
X17427Y-23215D01*
X17451Y-23129D01*
X17458Y-23040D01*
X17458Y-23581D01*
X17287Y-23581D01*
X17287Y-23378D01*
X17000Y-23091D01*
X16959Y-23132D01*
X16959Y-23050D01*
X16672Y-22763D01*
X16613Y-22805D01*
X16573Y-22885D01*
X16549Y-22971D01*
X16542Y-23060D01*
X16552Y-23148D01*
X16580Y-23234D01*
X16613Y-23295D01*
X16672Y-23337D01*
X16959Y-23050D01*
X16959Y-23132D01*
X16713Y-23378D01*
X16755Y-23437D01*
X16835Y-23477D01*
X16921Y-23501D01*
X17010Y-23508D01*
X17098Y-23498D01*
X17184Y-23470D01*
X17245Y-23437D01*
X17287Y-23378D01*
X17287Y-23581D01*
X16470Y-23581D01*
X16470Y-22904D01*
X16452Y-22814D01*
X16417Y-22728D01*
X16366Y-22652D01*
X16301Y-22586D01*
X16225Y-22535D01*
X16140Y-22499D01*
X16049Y-22480D01*
X15957Y-22480D01*
X15867Y-22497D01*
X15781Y-22531D01*
X15704Y-22582D01*
X15638Y-22646D01*
X15586Y-22722D01*
X15550Y-22807D01*
X15531Y-22897D01*
X15529Y-22989D01*
X15546Y-23080D01*
X15580Y-23166D01*
X15630Y-23243D01*
X15694Y-23310D01*
X15770Y-23362D01*
X15854Y-23399D01*
X15944Y-23419D01*
X16036Y-23421D01*
X16127Y-23405D01*
X16213Y-23372D01*
X16291Y-23322D01*
X16357Y-23259D01*
X16411Y-23183D01*
X16448Y-23099D01*
X16469Y-23009D01*
X16470Y-22904D01*
X16470Y-23581D01*
X15616Y-23581D01*
X15419Y-23384D01*
X15419Y-22375D01*
X15419Y-22374D01*
X15417Y-22352D01*
X15417Y-22351D01*
X15410Y-22329D01*
X15400Y-22309D01*
X15399Y-22308D01*
X15385Y-22291D01*
X15384Y-22290D01*
X15367Y-22275D01*
X15347Y-22265D01*
X15346Y-22264D01*
X15486Y-22264D01*
X15505Y-22260D01*
X15523Y-22253D01*
X15540Y-22242D01*
X15554Y-22228D01*
X15564Y-22212D01*
X15571Y-22194D01*
X15580Y-22216D01*
X15630Y-22293D01*
X15694Y-22360D01*
X15770Y-22412D01*
X15854Y-22449D01*
X15944Y-22469D01*
X16036Y-22471D01*
X16127Y-22455D01*
X16213Y-22422D01*
X16291Y-22372D01*
X16357Y-22309D01*
X16411Y-22233D01*
X16448Y-22149D01*
X16467Y-22064D01*
X16737Y-22064D01*
X16740Y-22070D01*
X16751Y-22087D01*
X16765Y-22101D01*
X16781Y-22111D01*
X16799Y-22119D01*
X16819Y-22123D01*
X16838Y-22123D01*
X17113Y-22123D01*
X17091Y-22156D01*
X17070Y-22206D01*
X17058Y-22259D01*
X17058Y-22313D01*
X17067Y-22367D01*
X17087Y-22417D01*
X17117Y-22463D01*
X17154Y-22502D01*
X17199Y-22533D01*
X17249Y-22555D01*
X17302Y-22566D01*
X17356Y-22568D01*
X17410Y-22558D01*
X17460Y-22538D01*
X17506Y-22509D01*
X17546Y-22472D01*
X17577Y-22428D01*
X17598Y-22379D01*
X17981Y-22379D01*
X18000Y-22375D01*
X18018Y-22368D01*
X18035Y-22357D01*
X18049Y-22343D01*
X18059Y-22327D01*
X18062Y-22320D01*
X18176Y-22320D01*
X18173Y-22334D01*
X18173Y-22388D01*
X18182Y-22442D01*
X18202Y-22492D01*
X18232Y-22538D01*
X18269Y-22577D01*
X18314Y-22608D01*
X18364Y-22630D01*
X18417Y-22641D01*
X18471Y-22643D01*
X18525Y-22633D01*
X18575Y-22613D01*
X18621Y-22584D01*
X18661Y-22547D01*
X18677Y-22524D01*
X19256Y-22524D01*
X19262Y-22533D01*
X19299Y-22572D01*
X19344Y-22603D01*
X19394Y-22625D01*
X19447Y-22636D01*
X19501Y-22638D01*
X19509Y-22636D01*
X19555Y-22628D01*
X19605Y-22608D01*
X19651Y-22579D01*
X19691Y-22542D01*
X19722Y-22498D01*
X19744Y-22448D01*
X19756Y-22395D01*
X19757Y-22333D01*
X19746Y-22280D01*
X19726Y-22229D01*
X19719Y-22219D01*
X19778Y-22219D01*
X19780Y-22219D01*
X19809Y-22216D01*
X19811Y-22216D01*
X19827Y-22211D01*
X19839Y-22208D01*
X19841Y-22207D01*
X19867Y-22194D01*
X19868Y-22192D01*
X19891Y-22174D01*
X19891Y-22173D01*
X19892Y-22173D01*
X19892Y-22172D01*
X19896Y-22167D01*
X20110Y-21954D01*
X20111Y-21954D01*
X20111Y-21953D01*
X20112Y-21953D01*
X20116Y-21948D01*
X20131Y-21930D01*
X20132Y-21928D01*
X20146Y-21903D01*
X20146Y-21902D01*
X20147Y-21901D01*
X20148Y-21896D01*
X20156Y-21873D01*
X20159Y-21842D01*
X20159Y-21841D01*
X20159Y-21840D01*
X20159Y-21625D01*
X20260Y-21625D01*
X20279Y-21621D01*
X20297Y-21614D01*
X20314Y-21603D01*
X20328Y-21589D01*
X20329Y-21587D01*
X20338Y-21573D01*
X20346Y-21555D01*
X20350Y-21535D01*
X20350Y-21516D01*
X20350Y-21265D01*
X20346Y-21246D01*
X20339Y-21228D01*
X20329Y-21212D01*
X20329Y-21187D01*
X20338Y-21173D01*
X20346Y-21155D01*
X20350Y-21135D01*
X20350Y-21116D01*
X20350Y-20865D01*
X20346Y-20846D01*
X20339Y-20828D01*
X20328Y-20811D01*
X20314Y-20797D01*
X20298Y-20787D01*
X20280Y-20779D01*
X20260Y-20775D01*
X20241Y-20775D01*
X20159Y-20775D01*
X20159Y-18315D01*
X20770Y-17704D01*
X21150Y-17704D01*
X21150Y-18450D01*
X21652Y-18450D01*
X21652Y-18773D01*
X21620Y-18773D01*
X21567Y-18783D01*
X21516Y-18803D01*
X21471Y-18833D01*
X21432Y-18871D01*
X21418Y-18891D01*
X20947Y-18891D01*
X20936Y-18874D01*
X20898Y-18836D01*
X20853Y-18805D01*
X20802Y-18784D01*
X20749Y-18773D01*
X20695Y-18773D01*
X20642Y-18783D01*
X20591Y-18803D01*
X20546Y-18833D01*
X20507Y-18871D01*
X20476Y-18916D01*
X20455Y-18966D01*
X20443Y-19019D01*
X20443Y-19073D01*
X20452Y-19127D01*
X20472Y-19177D01*
X20502Y-19223D01*
X20539Y-19262D01*
X20584Y-19293D01*
X20634Y-19315D01*
X20687Y-19326D01*
X20741Y-19328D01*
X20795Y-19318D01*
X20845Y-19298D01*
X20891Y-19269D01*
X20931Y-19232D01*
X20947Y-19209D01*
X21417Y-19209D01*
X21427Y-19223D01*
X21464Y-19262D01*
X21509Y-19293D01*
X21559Y-19315D01*
X21612Y-19326D01*
X21666Y-19328D01*
X21720Y-19318D01*
X21770Y-19298D01*
X21816Y-19269D01*
X21856Y-19232D01*
X21887Y-19188D01*
X21909Y-19138D01*
X21921Y-19085D01*
X21922Y-19023D01*
X21911Y-18970D01*
X21891Y-18919D01*
X21878Y-18900D01*
X22449Y-18900D01*
X22449Y-18450D01*
X23050Y-18450D01*
X23050Y-17704D01*
X24544Y-17704D01*
X24497Y-17713D01*
X24446Y-17733D01*
X24401Y-17763D01*
X24362Y-17801D01*
X24331Y-17846D01*
X24310Y-17896D01*
X24298Y-17949D01*
X24298Y-18003D01*
X24307Y-18057D01*
X24327Y-18107D01*
X24357Y-18153D01*
X24394Y-18192D01*
X24400Y-18196D01*
X24388Y-18201D01*
X24372Y-18211D01*
X24147Y-18211D01*
X24133Y-18202D01*
X24115Y-18194D01*
X24095Y-18190D01*
X24076Y-18190D01*
X23825Y-18190D01*
X23806Y-18194D01*
X23788Y-18201D01*
X23771Y-18212D01*
X23757Y-18226D01*
X23747Y-18242D01*
X23739Y-18260D01*
X23735Y-18280D01*
X23735Y-18299D01*
X23735Y-18750D01*
X23739Y-18769D01*
X23746Y-18787D01*
X23757Y-18804D01*
X23771Y-18818D01*
X23787Y-18828D01*
X23803Y-18835D01*
X23804Y-18836D01*
X23808Y-18852D01*
X23812Y-18864D01*
X23813Y-18866D01*
X23826Y-18892D01*
X23846Y-18916D01*
X23847Y-18917D01*
X23848Y-18917D01*
X23852Y-18921D01*
X24031Y-19101D01*
X24028Y-19119D01*
X24028Y-19173D01*
X24037Y-19227D01*
X24057Y-19277D01*
X24087Y-19323D01*
X24124Y-19362D01*
X24169Y-19393D01*
X24219Y-19415D01*
X24272Y-19426D01*
X24326Y-19428D01*
X24380Y-19418D01*
X24430Y-19398D01*
X24476Y-19369D01*
X24516Y-19332D01*
X24547Y-19288D01*
X24569Y-19238D01*
X24581Y-19185D01*
X24582Y-19123D01*
X24571Y-19070D01*
X24551Y-19019D01*
X24521Y-18974D01*
X24483Y-18936D01*
X24438Y-18905D01*
X24387Y-18884D01*
X24334Y-18873D01*
X24280Y-18873D01*
X24256Y-18877D01*
X24188Y-18809D01*
X24362Y-18809D01*
X24371Y-18818D01*
X24387Y-18828D01*
X24405Y-18836D01*
X24425Y-18840D01*
X24444Y-18840D01*
X24543Y-18840D01*
X24543Y-18844D01*
X24543Y-18898D01*
X24552Y-18952D01*
X24572Y-19002D01*
X24602Y-19048D01*
X24639Y-19087D01*
X24684Y-19118D01*
X24734Y-19140D01*
X24781Y-19149D01*
X24787Y-19151D01*
X24841Y-19153D01*
X24868Y-19147D01*
X25320Y-19600D01*
X25316Y-19603D01*
X25277Y-19641D01*
X25246Y-19686D01*
X25225Y-19736D01*
X25213Y-19789D01*
X25213Y-19797D01*
X25201Y-19800D01*
X25183Y-19807D01*
X25166Y-19818D01*
X25152Y-19832D01*
X25142Y-19848D01*
X25134Y-19866D01*
X25130Y-19886D01*
X25130Y-19905D01*
X25130Y-20573D01*
X25124Y-20579D01*
X24781Y-20579D01*
X22947Y-20579D01*
X22566Y-20198D01*
X22563Y-20194D01*
X22561Y-20193D01*
X22539Y-20174D01*
X22537Y-20173D01*
X22512Y-20159D01*
X22511Y-20158D01*
X22510Y-20158D01*
X22500Y-20155D01*
X22482Y-20149D01*
X22451Y-20146D01*
X22450Y-20146D01*
X22449Y-20146D01*
X22087Y-20146D01*
X22085Y-20146D01*
X22054Y-20149D01*
X22024Y-20158D01*
X22010Y-20165D01*
X21997Y-20172D01*
X21973Y-20192D01*
X21972Y-20193D01*
X21638Y-20527D01*
X21634Y-20531D01*
X21614Y-20555D01*
X21599Y-20582D01*
X21598Y-20582D01*
X21598Y-20584D01*
X21595Y-20594D01*
X21589Y-20612D01*
X21586Y-20643D01*
X21586Y-20644D01*
X21586Y-20645D01*
X21586Y-21159D01*
X21586Y-21161D01*
X21589Y-21192D01*
X21593Y-21208D01*
X21597Y-21220D01*
X21598Y-21222D01*
X21611Y-21248D01*
X21631Y-21272D01*
X21632Y-21273D01*
X21633Y-21273D01*
X21637Y-21277D01*
X22034Y-21675D01*
X21658Y-21675D01*
X21639Y-21679D01*
X21621Y-21686D01*
X21613Y-21691D01*
X21460Y-21691D01*
X21458Y-21690D01*
X21441Y-21687D01*
X21286Y-21687D01*
X21264Y-21709D01*
X21264Y-21765D01*
X21206Y-21823D01*
X21206Y-21709D01*
X21184Y-21687D01*
X21070Y-21687D01*
X21070Y-20959D01*
X21336Y-20692D01*
X21376Y-20693D01*
X21416Y-20686D01*
X21454Y-20672D01*
X21488Y-20650D01*
X21518Y-20622D01*
X21541Y-20589D01*
X21558Y-20551D01*
X21567Y-20512D01*
X21568Y-20465D01*
X21560Y-20425D01*
X21545Y-20387D01*
X21522Y-20353D01*
X21493Y-20324D01*
X21460Y-20301D01*
X21422Y-20286D01*
X21382Y-20277D01*
X21341Y-20277D01*
X21301Y-20284D01*
X21264Y-20300D01*
X21229Y-20322D01*
X21217Y-20333D01*
X21208Y-20324D01*
X21175Y-20301D01*
X21137Y-20286D01*
X21097Y-20277D01*
X21056Y-20277D01*
X21016Y-20284D01*
X20979Y-20300D01*
X20944Y-20322D01*
X20915Y-20350D01*
X20892Y-20384D01*
X20876Y-20421D01*
X20867Y-20461D01*
X20867Y-20502D01*
X20868Y-20507D01*
X20727Y-20649D01*
X20726Y-20650D01*
X20710Y-20669D01*
X20699Y-20691D01*
X20698Y-20693D01*
X20695Y-20701D01*
X20691Y-20715D01*
X20688Y-20740D01*
X20688Y-20742D01*
X20688Y-22697D01*
X20638Y-22746D01*
X20586Y-22822D01*
X20550Y-22907D01*
X20531Y-22997D01*
X20529Y-23089D01*
X20546Y-23180D01*
X20580Y-23266D01*
X20630Y-23343D01*
X20694Y-23410D01*
X20770Y-23462D01*
X20854Y-23499D01*
X20944Y-23519D01*
X21036Y-23521D01*
X21127Y-23505D01*
X21213Y-23472D01*
X21291Y-23422D01*
X21357Y-23359D01*
X21411Y-23283D01*
X21448Y-23199D01*
X21469Y-23109D01*
X21469Y-23028D01*
X21529Y-23087D01*
X21529Y-23089D01*
X21546Y-23180D01*
X21580Y-23266D01*
X21630Y-23343D01*
X21694Y-23410D01*
X21770Y-23462D01*
X21854Y-23499D01*
X21944Y-23519D01*
X22036Y-23521D01*
X22127Y-23505D01*
X22213Y-23472D01*
X22291Y-23422D01*
X22357Y-23359D01*
X22411Y-23283D01*
X22448Y-23199D01*
X22469Y-23109D01*
X22470Y-23004D01*
X22452Y-22914D01*
X22417Y-22828D01*
X22366Y-22752D01*
X22301Y-22686D01*
X22225Y-22635D01*
X22140Y-22599D01*
X22049Y-22580D01*
X21957Y-22580D01*
X21867Y-22597D01*
X21781Y-22631D01*
X21704Y-22682D01*
X21638Y-22746D01*
X21604Y-22795D01*
X21303Y-22494D01*
X21302Y-22493D01*
X21441Y-22493D01*
X21458Y-22490D01*
X21460Y-22489D01*
X21613Y-22489D01*
X21620Y-22493D01*
X21638Y-22501D01*
X21658Y-22505D01*
X21677Y-22505D01*
X22072Y-22505D01*
X22091Y-22501D01*
X22109Y-22494D01*
X22116Y-22489D01*
X22243Y-22489D01*
X22250Y-22493D01*
X22268Y-22501D01*
X22288Y-22505D01*
X22307Y-22505D01*
X22702Y-22505D01*
X22721Y-22501D01*
X22739Y-22494D01*
X22756Y-22483D01*
X22770Y-22469D01*
X22780Y-22453D01*
X22781Y-22450D01*
X22788Y-22435D01*
X22792Y-22415D01*
X22792Y-22396D01*
X22792Y-21995D01*
X22971Y-21995D01*
X22999Y-22024D01*
X23033Y-22047D01*
X23070Y-22064D01*
X23110Y-22072D01*
X23151Y-22073D01*
X23191Y-22066D01*
X23229Y-22052D01*
X23263Y-22030D01*
X23293Y-22002D01*
X23316Y-21969D01*
X23333Y-21931D01*
X23342Y-21892D01*
X23343Y-21845D01*
X23335Y-21805D01*
X23320Y-21767D01*
X23297Y-21733D01*
X23268Y-21704D01*
X23235Y-21681D01*
X23197Y-21666D01*
X23157Y-21657D01*
X23116Y-21657D01*
X23076Y-21664D01*
X23039Y-21680D01*
X23004Y-21702D01*
X22975Y-21730D01*
X22971Y-21735D01*
X22921Y-21735D01*
X23027Y-21629D01*
X24781Y-21629D01*
X26589Y-21629D01*
X26590Y-21629D01*
X26615Y-21627D01*
X26638Y-21619D01*
X26640Y-21619D01*
X26654Y-21611D01*
X26661Y-21608D01*
X26662Y-21607D01*
X26681Y-21592D01*
X26682Y-21591D01*
X27142Y-21130D01*
X27496Y-21130D01*
X27530Y-21216D01*
X27580Y-21293D01*
X27644Y-21360D01*
X27720Y-21412D01*
X27804Y-21449D01*
X27894Y-21469D01*
X27986Y-21471D01*
X28077Y-21455D01*
X28163Y-21422D01*
X28241Y-21372D01*
X28307Y-21309D01*
X28361Y-21233D01*
X28398Y-21149D01*
X28419Y-21059D01*
X28420Y-20954D01*
X28402Y-20864D01*
X28367Y-20778D01*
X28316Y-20702D01*
X28251Y-20636D01*
X28175Y-20585D01*
X28090Y-20549D01*
X27999Y-20530D01*
X27907Y-20530D01*
X27817Y-20547D01*
X27731Y-20581D01*
X27654Y-20632D01*
X27588Y-20696D01*
X27536Y-20772D01*
X27500Y-20857D01*
X27497Y-20870D01*
X27193Y-20870D01*
X27195Y-20854D01*
X27195Y-20852D01*
X27195Y-20340D01*
X27250Y-20285D01*
X27449Y-20285D01*
X27450Y-20285D01*
X27475Y-20283D01*
X27498Y-20275D01*
X27500Y-20275D01*
X27514Y-20267D01*
X27521Y-20264D01*
X27522Y-20263D01*
X27541Y-20248D01*
X27542Y-20247D01*
X27613Y-20175D01*
X27630Y-20216D01*
X27680Y-20293D01*
X27744Y-20360D01*
X27820Y-20412D01*
X27904Y-20449D01*
X27994Y-20469D01*
X28086Y-20471D01*
X28177Y-20455D01*
X28263Y-20422D01*
X28341Y-20372D01*
X28407Y-20309D01*
X28461Y-20233D01*
X28498Y-20149D01*
X28519Y-20059D01*
X28520Y-19954D01*
X28502Y-19864D01*
X28467Y-19778D01*
X28416Y-19702D01*
X28408Y-19693D01*
X28408Y-18990D01*
X28398Y-18902D01*
X28370Y-18816D01*
X28337Y-18755D01*
X28278Y-18713D01*
X28237Y-18754D01*
X28237Y-18672D01*
X28195Y-18613D01*
X28115Y-18573D01*
X28029Y-18549D01*
X27940Y-18542D01*
X27852Y-18552D01*
X27766Y-18580D01*
X27705Y-18613D01*
X27663Y-18672D01*
X27950Y-18959D01*
X28237Y-18672D01*
X28237Y-18754D01*
X27991Y-19000D01*
X28278Y-19287D01*
X28337Y-19245D01*
X28377Y-19165D01*
X28401Y-19079D01*
X28408Y-18990D01*
X28408Y-19693D01*
X28351Y-19636D01*
X28275Y-19585D01*
X28237Y-19568D01*
X28237Y-19328D01*
X27950Y-19041D01*
X27909Y-19082D01*
X27909Y-19000D01*
X27622Y-18713D01*
X27563Y-18755D01*
X27523Y-18835D01*
X27499Y-18921D01*
X27492Y-19010D01*
X27502Y-19098D01*
X27530Y-19184D01*
X27563Y-19245D01*
X27622Y-19287D01*
X27909Y-19000D01*
X27909Y-19082D01*
X27663Y-19328D01*
X27705Y-19387D01*
X27785Y-19427D01*
X27871Y-19451D01*
X27960Y-19458D01*
X28048Y-19448D01*
X28134Y-19420D01*
X28195Y-19387D01*
X28237Y-19328D01*
X28237Y-19568D01*
X28190Y-19549D01*
X28099Y-19530D01*
X28007Y-19530D01*
X27917Y-19547D01*
X27831Y-19581D01*
X27754Y-19632D01*
X27746Y-19639D01*
X27732Y-19618D01*
X27703Y-19589D01*
X27670Y-19566D01*
X27632Y-19551D01*
X27592Y-19542D01*
X27551Y-19542D01*
X27546Y-19542D01*
X27163Y-19159D01*
X27162Y-19158D01*
X27143Y-19142D01*
X27121Y-19131D01*
X27119Y-19130D01*
X27111Y-19127D01*
X27097Y-19123D01*
X27072Y-19120D01*
X27070Y-19120D01*
X27058Y-19120D01*
X27058Y-18713D01*
X27058Y-18696D01*
X27058Y-18321D01*
X27058Y-18219D01*
X27058Y-17844D01*
X27058Y-17827D01*
X27055Y-17810D01*
X27048Y-17794D01*
X27038Y-17780D01*
X27026Y-17768D01*
X27012Y-17758D01*
X26996Y-17751D01*
X26979Y-17748D01*
X26901Y-17748D01*
X26879Y-17770D01*
X26879Y-18241D01*
X27036Y-18241D01*
X27058Y-18219D01*
X27058Y-18321D01*
X27036Y-18299D01*
X26879Y-18299D01*
X26879Y-18770D01*
X26901Y-18792D01*
X26979Y-18792D01*
X26996Y-18789D01*
X27012Y-18782D01*
X27026Y-18772D01*
X27038Y-18760D01*
X27048Y-18746D01*
X27055Y-18730D01*
X27058Y-18713D01*
X27058Y-19120D01*
X26821Y-19120D01*
X26821Y-18770D01*
X26821Y-18299D01*
X26821Y-18241D01*
X26821Y-17770D01*
X26799Y-17748D01*
X26721Y-17748D01*
X26704Y-17751D01*
X26688Y-17758D01*
X26674Y-17768D01*
X26662Y-17780D01*
X26652Y-17794D01*
X26645Y-17810D01*
X26642Y-17827D01*
X26642Y-17844D01*
X26642Y-18219D01*
X26664Y-18241D01*
X26821Y-18241D01*
X26821Y-18299D01*
X26664Y-18299D01*
X26642Y-18321D01*
X26642Y-18696D01*
X26642Y-18713D01*
X26645Y-18730D01*
X26652Y-18746D01*
X26662Y-18760D01*
X26674Y-18772D01*
X26688Y-18782D01*
X26704Y-18789D01*
X26721Y-18792D01*
X26799Y-18792D01*
X26821Y-18770D01*
X26821Y-19120D01*
X26570Y-19120D01*
X26570Y-18714D01*
X26570Y-18695D01*
X26570Y-17826D01*
X26566Y-17807D01*
X26559Y-17789D01*
X26548Y-17772D01*
X26534Y-17758D01*
X26518Y-17748D01*
X26500Y-17740D01*
X26480Y-17736D01*
X26461Y-17736D01*
X26220Y-17736D01*
X26201Y-17740D01*
X26183Y-17747D01*
X26166Y-17758D01*
X26152Y-17772D01*
X26142Y-17788D01*
X26134Y-17806D01*
X26130Y-17826D01*
X26130Y-17845D01*
X26130Y-18714D01*
X26134Y-18733D01*
X26141Y-18751D01*
X26152Y-18768D01*
X26166Y-18782D01*
X26182Y-18792D01*
X26200Y-18800D01*
X26220Y-18804D01*
X26239Y-18804D01*
X26480Y-18804D01*
X26499Y-18800D01*
X26517Y-18793D01*
X26534Y-18782D01*
X26548Y-18768D01*
X26558Y-18752D01*
X26566Y-18734D01*
X26570Y-18714D01*
X26570Y-19120D01*
X26124Y-19120D01*
X25980Y-18976D01*
X25980Y-18804D01*
X25999Y-18800D01*
X26017Y-18793D01*
X26034Y-18782D01*
X26048Y-18768D01*
X26058Y-18752D01*
X26066Y-18734D01*
X26070Y-18714D01*
X26070Y-18695D01*
X26070Y-17826D01*
X26066Y-17807D01*
X26059Y-17789D01*
X26048Y-17772D01*
X26034Y-17758D01*
X26018Y-17748D01*
X26000Y-17740D01*
X25980Y-17736D01*
X25961Y-17736D01*
X25720Y-17736D01*
X25701Y-17740D01*
X25683Y-17747D01*
X25666Y-17758D01*
X25652Y-17772D01*
X25642Y-17788D01*
X25634Y-17806D01*
X25630Y-17826D01*
X25630Y-17845D01*
X25630Y-18714D01*
X25634Y-18733D01*
X25641Y-18751D01*
X25652Y-18768D01*
X25666Y-18782D01*
X25682Y-18792D01*
X25700Y-18800D01*
X25720Y-18804D01*
X25720Y-19029D01*
X25720Y-19030D01*
X25722Y-19055D01*
X25730Y-19080D01*
X25737Y-19094D01*
X25741Y-19101D01*
X25742Y-19102D01*
X25757Y-19121D01*
X25758Y-19122D01*
X25977Y-19341D01*
X25978Y-19342D01*
X25997Y-19358D01*
X26019Y-19369D01*
X26020Y-19370D01*
X26036Y-19374D01*
X26043Y-19377D01*
X26044Y-19377D01*
X26068Y-19380D01*
X26070Y-19380D01*
X26576Y-19380D01*
X26567Y-19394D01*
X26551Y-19431D01*
X26542Y-19471D01*
X26542Y-19512D01*
X26543Y-19518D01*
X26265Y-19796D01*
X26220Y-19796D01*
X26204Y-19799D01*
X26196Y-19788D01*
X26193Y-19784D01*
X26192Y-19783D01*
X26185Y-19777D01*
X25480Y-19071D01*
X25480Y-19053D01*
X25508Y-19027D01*
X25531Y-18994D01*
X25548Y-18956D01*
X25557Y-18917D01*
X25558Y-18870D01*
X25550Y-18830D01*
X25535Y-18792D01*
X25529Y-18784D01*
X25534Y-18782D01*
X25548Y-18768D01*
X25558Y-18752D01*
X25566Y-18734D01*
X25570Y-18714D01*
X25570Y-18695D01*
X25570Y-17826D01*
X25566Y-17807D01*
X25559Y-17789D01*
X25548Y-17772D01*
X25534Y-17758D01*
X25518Y-17748D01*
X25500Y-17740D01*
X25480Y-17736D01*
X25461Y-17736D01*
X25220Y-17736D01*
X25201Y-17740D01*
X25183Y-17747D01*
X25166Y-17758D01*
X25152Y-17772D01*
X25142Y-17788D01*
X25134Y-17806D01*
X25130Y-17826D01*
X25130Y-17845D01*
X25130Y-18714D01*
X25134Y-18733D01*
X25141Y-18751D01*
X25152Y-18768D01*
X25166Y-18782D01*
X25170Y-18784D01*
X25167Y-18789D01*
X25151Y-18826D01*
X25142Y-18866D01*
X25142Y-18907D01*
X25149Y-18947D01*
X25164Y-18985D01*
X25181Y-19012D01*
X25092Y-18923D01*
X25096Y-18910D01*
X25097Y-18848D01*
X25086Y-18795D01*
X25066Y-18744D01*
X25036Y-18699D01*
X24998Y-18661D01*
X24953Y-18630D01*
X24902Y-18609D01*
X24849Y-18598D01*
X24795Y-18598D01*
X24785Y-18599D01*
X24785Y-18280D01*
X24781Y-18261D01*
X24774Y-18243D01*
X24763Y-18226D01*
X24749Y-18212D01*
X24737Y-18204D01*
X24746Y-18199D01*
X24786Y-18162D01*
X24817Y-18118D01*
X24839Y-18068D01*
X24851Y-18015D01*
X24852Y-17953D01*
X24841Y-17900D01*
X24821Y-17849D01*
X24791Y-17804D01*
X24753Y-17766D01*
X24708Y-17735D01*
X24657Y-17714D01*
X24608Y-17704D01*
X27213Y-17704D01*
X27215Y-17704D01*
X27244Y-17701D01*
X27246Y-17701D01*
X27262Y-17696D01*
X27274Y-17693D01*
X27276Y-17692D01*
X27302Y-17679D01*
X27303Y-17677D01*
X27326Y-17659D01*
X27326Y-17658D01*
X27327Y-17658D01*
X27327Y-17657D01*
X27331Y-17652D01*
X27345Y-17639D01*
X27746Y-17639D01*
X27688Y-17696D01*
X27636Y-17772D01*
X27600Y-17857D01*
X27581Y-17947D01*
X27579Y-18039D01*
X27596Y-18130D01*
X27630Y-18216D01*
X27680Y-18293D01*
X27744Y-18360D01*
X27820Y-18412D01*
X27904Y-18449D01*
X27994Y-18469D01*
X28086Y-18471D01*
X28177Y-18455D01*
X28263Y-18422D01*
X28341Y-18372D01*
X28407Y-18309D01*
X28461Y-18233D01*
X28498Y-18149D01*
X28519Y-18059D01*
X28520Y-17954D01*
X28502Y-17864D01*
X28467Y-17778D01*
X28416Y-17702D01*
X28353Y-17639D01*
X28464Y-17639D01*
X28624Y-17798D01*
X28600Y-17857D01*
X28581Y-17947D01*
X28579Y-18039D01*
X28596Y-18130D01*
X28630Y-18216D01*
X28680Y-18293D01*
X28744Y-18360D01*
X28820Y-18412D01*
X28904Y-18449D01*
X28994Y-18469D01*
X29086Y-18471D01*
X29177Y-18455D01*
X29263Y-18422D01*
X29341Y-18372D01*
X29407Y-18309D01*
X29461Y-18233D01*
X29498Y-18149D01*
X29519Y-18059D01*
X29520Y-17954D01*
X29502Y-17864D01*
X29470Y-17785D01*
X29470Y-17004D01*
X29452Y-16914D01*
X29417Y-16828D01*
X29366Y-16752D01*
X29301Y-16686D01*
X29225Y-16635D01*
X29140Y-16599D01*
X29049Y-16580D01*
X28957Y-16580D01*
X28867Y-16597D01*
X28781Y-16631D01*
X28704Y-16682D01*
X28638Y-16746D01*
X28586Y-16822D01*
X28550Y-16907D01*
X28531Y-16997D01*
X28529Y-17089D01*
X28546Y-17180D01*
X28580Y-17266D01*
X28630Y-17343D01*
X28694Y-17410D01*
X28770Y-17462D01*
X28854Y-17499D01*
X28944Y-17519D01*
X29036Y-17521D01*
X29127Y-17505D01*
X29213Y-17472D01*
X29291Y-17422D01*
X29357Y-17359D01*
X29411Y-17283D01*
X29448Y-17199D01*
X29469Y-17109D01*
X29470Y-17004D01*
X29470Y-17785D01*
X29467Y-17778D01*
X29416Y-17702D01*
X29351Y-17636D01*
X29275Y-17585D01*
X29190Y-17549D01*
X29099Y-17530D01*
X29007Y-17530D01*
X28917Y-17547D01*
X28848Y-17574D01*
X28647Y-17373D01*
X28644Y-17369D01*
X28642Y-17368D01*
X28620Y-17349D01*
X28618Y-17348D01*
X28593Y-17334D01*
X28592Y-17333D01*
X28591Y-17333D01*
X28581Y-17330D01*
X28563Y-17324D01*
X28532Y-17321D01*
X28531Y-17321D01*
X28530Y-17321D01*
X28292Y-17321D01*
X28357Y-17259D01*
X28411Y-17183D01*
X28448Y-17099D01*
X28469Y-17009D01*
X28470Y-16904D01*
X28452Y-16814D01*
X28417Y-16728D01*
X28366Y-16652D01*
X28301Y-16586D01*
X28225Y-16535D01*
X28140Y-16499D01*
X28049Y-16480D01*
X27957Y-16480D01*
X27867Y-16497D01*
X27781Y-16531D01*
X27704Y-16582D01*
X27638Y-16646D01*
X27586Y-16722D01*
X27550Y-16807D01*
X27531Y-16897D01*
X27529Y-16989D01*
X27546Y-17080D01*
X27580Y-17166D01*
X27630Y-17243D01*
X27694Y-17310D01*
X27710Y-17321D01*
X27384Y-17321D01*
X27411Y-17283D01*
X27448Y-17199D01*
X27469Y-17109D01*
X27470Y-17004D01*
X27452Y-16914D01*
X27417Y-16828D01*
X27366Y-16752D01*
X27301Y-16686D01*
X27225Y-16635D01*
X27140Y-16599D01*
X27049Y-16580D01*
X26957Y-16580D01*
X26867Y-16597D01*
X26781Y-16631D01*
X26704Y-16682D01*
X26638Y-16746D01*
X26586Y-16822D01*
X26550Y-16907D01*
X26531Y-16997D01*
X26529Y-17089D01*
X26546Y-17180D01*
X26580Y-17266D01*
X26630Y-17343D01*
X26671Y-17386D01*
X26176Y-17386D01*
X26213Y-17372D01*
X26291Y-17322D01*
X26357Y-17259D01*
X26411Y-17183D01*
X26448Y-17099D01*
X26469Y-17009D01*
X26470Y-16904D01*
X26452Y-16814D01*
X26417Y-16728D01*
X26366Y-16652D01*
X26301Y-16586D01*
X26225Y-16535D01*
X26140Y-16499D01*
X26049Y-16480D01*
X25957Y-16480D01*
X25867Y-16497D01*
X25781Y-16531D01*
X25704Y-16582D01*
X25638Y-16646D01*
X25586Y-16722D01*
X25550Y-16807D01*
X25531Y-16897D01*
X25529Y-16989D01*
X25546Y-17080D01*
X25580Y-17166D01*
X25630Y-17243D01*
X25694Y-17310D01*
X25770Y-17362D01*
X25824Y-17386D01*
X25328Y-17386D01*
X25357Y-17359D01*
X25411Y-17283D01*
X25448Y-17199D01*
X25469Y-17109D01*
X25470Y-17004D01*
X25452Y-16914D01*
X25417Y-16828D01*
X25366Y-16752D01*
X25301Y-16686D01*
X25225Y-16635D01*
X25140Y-16599D01*
X25049Y-16580D01*
X24957Y-16580D01*
X24867Y-16597D01*
X24781Y-16631D01*
X24704Y-16682D01*
X24638Y-16746D01*
X24586Y-16822D01*
X24550Y-16907D01*
X24531Y-16997D01*
X24529Y-17089D01*
X24546Y-17180D01*
X24580Y-17266D01*
X24630Y-17343D01*
X24671Y-17386D01*
X24176Y-17386D01*
X24213Y-17372D01*
X24291Y-17322D01*
X24357Y-17259D01*
X24411Y-17183D01*
X24448Y-17099D01*
X24469Y-17009D01*
X24470Y-16904D01*
X24452Y-16814D01*
X24417Y-16728D01*
X24366Y-16652D01*
X24301Y-16586D01*
X24225Y-16535D01*
X24140Y-16499D01*
X24049Y-16480D01*
X23957Y-16480D01*
X23867Y-16497D01*
X23781Y-16531D01*
X23704Y-16582D01*
X23638Y-16646D01*
X23586Y-16722D01*
X23550Y-16807D01*
X23531Y-16897D01*
X23529Y-16989D01*
X23546Y-17080D01*
X23580Y-17166D01*
X23630Y-17243D01*
X23694Y-17310D01*
X23770Y-17362D01*
X23824Y-17386D01*
X23328Y-17386D01*
X23357Y-17359D01*
X23411Y-17283D01*
X23448Y-17199D01*
X23469Y-17109D01*
X23470Y-17004D01*
X23452Y-16914D01*
X23417Y-16828D01*
X23366Y-16752D01*
X23301Y-16686D01*
X23225Y-16635D01*
X23140Y-16599D01*
X23049Y-16580D01*
X22957Y-16580D01*
X22867Y-16597D01*
X22781Y-16631D01*
X22704Y-16682D01*
X22638Y-16746D01*
X22586Y-16822D01*
X22550Y-16907D01*
X22531Y-16997D01*
X22529Y-17089D01*
X22546Y-17180D01*
X22580Y-17266D01*
X22630Y-17343D01*
X22671Y-17386D01*
X22176Y-17386D01*
X22213Y-17372D01*
X22291Y-17322D01*
X22357Y-17259D01*
X22411Y-17183D01*
X22448Y-17099D01*
X22469Y-17009D01*
X22470Y-16904D01*
X22452Y-16814D01*
X22417Y-16728D01*
X22366Y-16652D01*
X22301Y-16586D01*
X22225Y-16535D01*
X22140Y-16499D01*
X22049Y-16480D01*
X21957Y-16480D01*
X21867Y-16497D01*
X21781Y-16531D01*
X21704Y-16582D01*
X21638Y-16646D01*
X21586Y-16722D01*
X21550Y-16807D01*
X21531Y-16897D01*
X21529Y-16989D01*
X21546Y-17080D01*
X21580Y-17166D01*
X21630Y-17243D01*
X21694Y-17310D01*
X21770Y-17362D01*
X21824Y-17386D01*
X21328Y-17386D01*
X21357Y-17359D01*
X21411Y-17283D01*
X21448Y-17199D01*
X21469Y-17109D01*
X21470Y-17004D01*
X21452Y-16914D01*
X21417Y-16828D01*
X21366Y-16752D01*
X21301Y-16686D01*
X21225Y-16635D01*
X21140Y-16599D01*
X21049Y-16580D01*
X20957Y-16580D01*
X20867Y-16597D01*
X20781Y-16631D01*
X20704Y-16682D01*
X20638Y-16746D01*
X20586Y-16822D01*
X20550Y-16907D01*
X20531Y-16997D01*
X20529Y-17089D01*
X20546Y-17180D01*
X20580Y-17266D01*
X20630Y-17343D01*
X20673Y-17389D01*
X20658Y-17393D01*
X20646Y-17397D01*
X20644Y-17398D01*
X20618Y-17411D01*
X20594Y-17431D01*
X20593Y-17431D01*
X20593Y-17432D01*
X20588Y-17438D01*
X20470Y-17555D01*
X20470Y-16904D01*
X20452Y-16814D01*
X20417Y-16728D01*
X20366Y-16652D01*
X20301Y-16586D01*
X20225Y-16535D01*
X20140Y-16499D01*
X20049Y-16480D01*
X19957Y-16480D01*
X19867Y-16497D01*
X19781Y-16531D01*
X19704Y-16582D01*
X19638Y-16646D01*
X19586Y-16722D01*
X19550Y-16807D01*
X19531Y-16897D01*
X19529Y-16989D01*
X19546Y-17080D01*
X19580Y-17166D01*
X19630Y-17243D01*
X19694Y-17310D01*
X19770Y-17362D01*
X19854Y-17399D01*
X19944Y-17419D01*
X20036Y-17421D01*
X20127Y-17405D01*
X20213Y-17372D01*
X20291Y-17322D01*
X20357Y-17259D01*
X20411Y-17183D01*
X20448Y-17099D01*
X20469Y-17009D01*
X20470Y-16904D01*
X20470Y-17555D01*
X19893Y-18132D01*
X19889Y-18136D01*
X19869Y-18160D01*
X19854Y-18187D01*
X19853Y-18187D01*
X19853Y-18189D01*
X19850Y-18199D01*
X19844Y-18217D01*
X19841Y-18248D01*
X19841Y-18249D01*
X19841Y-18250D01*
X19841Y-20775D01*
X19740Y-20775D01*
X19721Y-20779D01*
X19703Y-20786D01*
X19686Y-20797D01*
X19672Y-20811D01*
X19662Y-20827D01*
X19654Y-20845D01*
X19650Y-20865D01*
X19650Y-20884D01*
X19650Y-21135D01*
X19654Y-21154D01*
X19661Y-21172D01*
X19671Y-21187D01*
X19671Y-21212D01*
X19662Y-21227D01*
X19654Y-21245D01*
X19650Y-21265D01*
X19650Y-21284D01*
X19650Y-21535D01*
X19654Y-21554D01*
X19661Y-21572D01*
X19672Y-21589D01*
X19686Y-21603D01*
X19702Y-21613D01*
X19720Y-21621D01*
X19740Y-21625D01*
X19759Y-21625D01*
X19841Y-21625D01*
X19841Y-21774D01*
X19714Y-21901D01*
X19509Y-21901D01*
X19491Y-21901D01*
X19503Y-21889D01*
X19509Y-21879D01*
X19513Y-21873D01*
X19521Y-21855D01*
X19525Y-21835D01*
X19525Y-21816D01*
X19525Y-21565D01*
X19521Y-21546D01*
X19514Y-21528D01*
X19509Y-21520D01*
X19509Y-21279D01*
X19513Y-21273D01*
X19521Y-21255D01*
X19525Y-21235D01*
X19525Y-21216D01*
X19525Y-20965D01*
X19521Y-20946D01*
X19514Y-20928D01*
X19503Y-20911D01*
X19489Y-20897D01*
X19473Y-20887D01*
X19470Y-20885D01*
X19470Y-17004D01*
X19452Y-16914D01*
X19417Y-16828D01*
X19366Y-16752D01*
X19301Y-16686D01*
X19225Y-16635D01*
X19140Y-16599D01*
X19049Y-16580D01*
X18957Y-16580D01*
X18867Y-16597D01*
X18781Y-16631D01*
X18704Y-16682D01*
X18638Y-16746D01*
X18586Y-16822D01*
X18550Y-16907D01*
X18531Y-16997D01*
X18529Y-17089D01*
X18546Y-17180D01*
X18580Y-17266D01*
X18630Y-17343D01*
X18694Y-17410D01*
X18770Y-17462D01*
X18854Y-17499D01*
X18944Y-17519D01*
X19036Y-17521D01*
X19127Y-17505D01*
X19213Y-17472D01*
X19291Y-17422D01*
X19357Y-17359D01*
X19411Y-17283D01*
X19448Y-17199D01*
X19469Y-17109D01*
X19470Y-17004D01*
X19470Y-20885D01*
X19455Y-20879D01*
X19435Y-20875D01*
X19416Y-20875D01*
X18965Y-20875D01*
X18959Y-20876D01*
X18959Y-20562D01*
X18962Y-20565D01*
X18962Y-20597D01*
X18969Y-20637D01*
X18984Y-20675D01*
X19006Y-20709D01*
X19034Y-20739D01*
X19068Y-20762D01*
X19105Y-20779D01*
X19145Y-20787D01*
X19186Y-20788D01*
X19226Y-20781D01*
X19264Y-20767D01*
X19298Y-20745D01*
X19328Y-20717D01*
X19351Y-20684D01*
X19368Y-20646D01*
X19377Y-20607D01*
X19378Y-20560D01*
X19370Y-20520D01*
X19355Y-20482D01*
X19332Y-20448D01*
X19321Y-20437D01*
X19323Y-20437D01*
X19346Y-20404D01*
X19363Y-20366D01*
X19372Y-20327D01*
X19373Y-20280D01*
X19365Y-20240D01*
X19350Y-20202D01*
X19327Y-20168D01*
X19298Y-20139D01*
X19295Y-20136D01*
X19295Y-19611D01*
X19295Y-19610D01*
X19293Y-19585D01*
X19285Y-19562D01*
X19285Y-19560D01*
X19273Y-19539D01*
X19273Y-19538D01*
X19261Y-19523D01*
X19258Y-19519D01*
X19257Y-19518D01*
X19258Y-19480D01*
X19250Y-19440D01*
X19235Y-19402D01*
X19212Y-19368D01*
X19183Y-19339D01*
X19150Y-19316D01*
X19112Y-19301D01*
X19072Y-19292D01*
X19031Y-19292D01*
X18991Y-19299D01*
X18954Y-19315D01*
X18919Y-19337D01*
X18890Y-19365D01*
X18870Y-19394D01*
X18837Y-19381D01*
X18797Y-19372D01*
X18756Y-19372D01*
X18716Y-19379D01*
X18679Y-19395D01*
X18644Y-19417D01*
X18642Y-19418D01*
X18642Y-18163D01*
X18631Y-18110D01*
X18611Y-18059D01*
X18581Y-18014D01*
X18543Y-17976D01*
X18498Y-17945D01*
X18470Y-17933D01*
X18470Y-16904D01*
X18452Y-16814D01*
X18417Y-16728D01*
X18366Y-16652D01*
X18301Y-16586D01*
X18225Y-16535D01*
X18140Y-16499D01*
X18049Y-16480D01*
X17957Y-16480D01*
X17867Y-16497D01*
X17781Y-16531D01*
X17704Y-16582D01*
X17638Y-16646D01*
X17586Y-16722D01*
X17550Y-16807D01*
X17531Y-16897D01*
X17529Y-16989D01*
X17546Y-17080D01*
X17580Y-17166D01*
X17630Y-17243D01*
X17694Y-17310D01*
X17770Y-17362D01*
X17854Y-17399D01*
X17944Y-17419D01*
X18036Y-17421D01*
X18127Y-17405D01*
X18213Y-17372D01*
X18291Y-17322D01*
X18357Y-17259D01*
X18411Y-17183D01*
X18448Y-17099D01*
X18469Y-17009D01*
X18470Y-16904D01*
X18470Y-17933D01*
X18447Y-17924D01*
X18394Y-17913D01*
X18340Y-17913D01*
X18287Y-17923D01*
X18236Y-17943D01*
X18191Y-17973D01*
X18152Y-18011D01*
X18138Y-18031D01*
X17470Y-18031D01*
X17470Y-17004D01*
X17452Y-16914D01*
X17417Y-16828D01*
X17366Y-16752D01*
X17301Y-16686D01*
X17225Y-16635D01*
X17140Y-16599D01*
X17049Y-16580D01*
X16957Y-16580D01*
X16867Y-16597D01*
X16781Y-16631D01*
X16704Y-16682D01*
X16638Y-16746D01*
X16586Y-16822D01*
X16550Y-16907D01*
X16531Y-16997D01*
X16529Y-17089D01*
X16546Y-17180D01*
X16580Y-17266D01*
X16630Y-17343D01*
X16694Y-17410D01*
X16770Y-17462D01*
X16854Y-17499D01*
X16944Y-17519D01*
X17036Y-17521D01*
X17127Y-17505D01*
X17213Y-17472D01*
X17291Y-17422D01*
X17357Y-17359D01*
X17411Y-17283D01*
X17448Y-17199D01*
X17469Y-17109D01*
X17470Y-17004D01*
X17470Y-18031D01*
X16757Y-18031D01*
X16755Y-18031D01*
X16754Y-18031D01*
X16737Y-18024D01*
X16684Y-18013D01*
X16630Y-18013D01*
X16577Y-18023D01*
X16526Y-18043D01*
X16481Y-18073D01*
X16470Y-18083D01*
X16470Y-16904D01*
X16452Y-16814D01*
X16417Y-16728D01*
X16366Y-16652D01*
X16301Y-16586D01*
X16225Y-16535D01*
X16140Y-16499D01*
X16049Y-16480D01*
X15957Y-16480D01*
X15867Y-16497D01*
X15781Y-16531D01*
X15704Y-16582D01*
X15638Y-16646D01*
X15586Y-16722D01*
X15550Y-16807D01*
X15531Y-16897D01*
X15529Y-16989D01*
X15546Y-17080D01*
X15580Y-17166D01*
X15630Y-17243D01*
X15694Y-17310D01*
X15770Y-17362D01*
X15854Y-17399D01*
X15944Y-17419D01*
X16036Y-17421D01*
X16127Y-17405D01*
X16213Y-17372D01*
X16291Y-17322D01*
X16357Y-17259D01*
X16411Y-17183D01*
X16448Y-17099D01*
X16469Y-17009D01*
X16470Y-16904D01*
X16470Y-18083D01*
X16442Y-18110D01*
X16451Y-18079D01*
X16458Y-17990D01*
X16448Y-17902D01*
X16420Y-17816D01*
X16387Y-17755D01*
X16328Y-17713D01*
X16287Y-17754D01*
X16287Y-17672D01*
X16245Y-17613D01*
X16165Y-17573D01*
X16079Y-17549D01*
X15990Y-17542D01*
X15902Y-17552D01*
X15816Y-17580D01*
X15755Y-17613D01*
X15713Y-17672D01*
X16000Y-17959D01*
X16287Y-17672D01*
X16287Y-17754D01*
X16041Y-18000D01*
X16328Y-18287D01*
X16380Y-18249D01*
X16378Y-18259D01*
X16378Y-18313D01*
X16387Y-18367D01*
X16407Y-18417D01*
X16437Y-18463D01*
X16474Y-18502D01*
X16519Y-18533D01*
X16569Y-18555D01*
X16622Y-18566D01*
X16676Y-18568D01*
X16730Y-18558D01*
X16780Y-18538D01*
X16826Y-18509D01*
X16866Y-18472D01*
X16897Y-18428D01*
X16919Y-18378D01*
X16925Y-18349D01*
X18137Y-18349D01*
X18147Y-18363D01*
X18184Y-18402D01*
X18229Y-18433D01*
X18279Y-18455D01*
X18332Y-18466D01*
X18386Y-18468D01*
X18440Y-18458D01*
X18490Y-18438D01*
X18536Y-18409D01*
X18576Y-18372D01*
X18607Y-18328D01*
X18629Y-18278D01*
X18641Y-18225D01*
X18642Y-18163D01*
X18642Y-19418D01*
X18625Y-19435D01*
X18625Y-19265D01*
X18621Y-19246D01*
X18614Y-19228D01*
X18613Y-19226D01*
X18613Y-18934D01*
X18613Y-18851D01*
X18613Y-18749D01*
X18613Y-18666D01*
X18610Y-18649D01*
X18603Y-18633D01*
X18593Y-18619D01*
X18581Y-18607D01*
X18567Y-18597D01*
X18551Y-18590D01*
X18534Y-18587D01*
X18517Y-18587D01*
X18351Y-18587D01*
X18329Y-18609D01*
X18329Y-18771D01*
X18591Y-18771D01*
X18613Y-18749D01*
X18613Y-18851D01*
X18591Y-18829D01*
X18329Y-18829D01*
X18329Y-18991D01*
X18351Y-19013D01*
X18517Y-19013D01*
X18534Y-19013D01*
X18551Y-19010D01*
X18567Y-19003D01*
X18581Y-18993D01*
X18593Y-18981D01*
X18603Y-18967D01*
X18610Y-18951D01*
X18613Y-18934D01*
X18613Y-19226D01*
X18603Y-19211D01*
X18589Y-19197D01*
X18573Y-19187D01*
X18555Y-19179D01*
X18535Y-19175D01*
X18516Y-19175D01*
X18271Y-19175D01*
X18271Y-18991D01*
X18271Y-18829D01*
X18271Y-18771D01*
X18271Y-18609D01*
X18249Y-18587D01*
X18083Y-18587D01*
X18066Y-18587D01*
X18049Y-18590D01*
X18033Y-18597D01*
X18019Y-18607D01*
X18007Y-18619D01*
X18000Y-18628D01*
X17993Y-18619D01*
X17981Y-18607D01*
X17967Y-18597D01*
X17951Y-18590D01*
X17934Y-18587D01*
X17917Y-18587D01*
X17751Y-18587D01*
X17729Y-18609D01*
X17729Y-18771D01*
X17991Y-18771D01*
X18000Y-18762D01*
X18009Y-18771D01*
X18271Y-18771D01*
X18271Y-18829D01*
X18009Y-18829D01*
X18000Y-18838D01*
X17991Y-18829D01*
X17729Y-18829D01*
X17729Y-18991D01*
X17751Y-19013D01*
X17917Y-19013D01*
X17934Y-19013D01*
X17951Y-19010D01*
X17967Y-19003D01*
X17981Y-18993D01*
X17993Y-18981D01*
X18000Y-18971D01*
X18007Y-18981D01*
X18019Y-18993D01*
X18033Y-19003D01*
X18049Y-19010D01*
X18066Y-19013D01*
X18083Y-19013D01*
X18249Y-19013D01*
X18271Y-18991D01*
X18271Y-19175D01*
X18065Y-19175D01*
X18046Y-19179D01*
X18028Y-19186D01*
X18011Y-19197D01*
X18000Y-19208D01*
X17989Y-19197D01*
X17973Y-19187D01*
X17955Y-19179D01*
X17935Y-19175D01*
X17916Y-19175D01*
X17671Y-19175D01*
X17671Y-18991D01*
X17671Y-18829D01*
X17671Y-18771D01*
X17671Y-18609D01*
X17649Y-18587D01*
X17483Y-18587D01*
X17466Y-18587D01*
X17449Y-18590D01*
X17433Y-18597D01*
X17419Y-18607D01*
X17407Y-18619D01*
X17397Y-18633D01*
X17390Y-18649D01*
X17387Y-18666D01*
X17387Y-18749D01*
X17409Y-18771D01*
X17671Y-18771D01*
X17671Y-18829D01*
X17409Y-18829D01*
X17387Y-18851D01*
X17387Y-18934D01*
X17390Y-18951D01*
X17397Y-18967D01*
X17407Y-18981D01*
X17419Y-18993D01*
X17433Y-19003D01*
X17449Y-19010D01*
X17466Y-19013D01*
X17483Y-19013D01*
X17649Y-19013D01*
X17671Y-18991D01*
X17671Y-19175D01*
X17465Y-19175D01*
X17446Y-19179D01*
X17428Y-19186D01*
X17411Y-19197D01*
X17397Y-19211D01*
X17387Y-19227D01*
X17379Y-19245D01*
X17375Y-19265D01*
X17375Y-19284D01*
X17375Y-19535D01*
X17379Y-19554D01*
X17386Y-19572D01*
X17396Y-19588D01*
X17391Y-19589D01*
X17354Y-19605D01*
X17319Y-19627D01*
X17290Y-19655D01*
X17267Y-19689D01*
X17251Y-19726D01*
X17246Y-19744D01*
X16919Y-19744D01*
X16923Y-19736D01*
X16932Y-19697D01*
X16933Y-19650D01*
X16925Y-19610D01*
X16910Y-19572D01*
X16887Y-19538D01*
X16858Y-19509D01*
X16825Y-19486D01*
X16787Y-19471D01*
X16747Y-19462D01*
X16706Y-19462D01*
X16666Y-19469D01*
X16629Y-19485D01*
X16594Y-19507D01*
X16565Y-19535D01*
X16561Y-19540D01*
X16394Y-19540D01*
X16251Y-19397D01*
X16291Y-19372D01*
X16357Y-19309D01*
X16411Y-19233D01*
X16448Y-19149D01*
X16469Y-19059D01*
X16470Y-18954D01*
X16452Y-18864D01*
X16417Y-18778D01*
X16366Y-18702D01*
X16301Y-18636D01*
X16287Y-18626D01*
X16287Y-18328D01*
X16000Y-18041D01*
X15713Y-18328D01*
X15755Y-18387D01*
X15835Y-18427D01*
X15921Y-18451D01*
X16010Y-18458D01*
X16098Y-18448D01*
X16184Y-18420D01*
X16245Y-18387D01*
X16287Y-18328D01*
X16287Y-18626D01*
X16225Y-18585D01*
X16140Y-18549D01*
X16049Y-18530D01*
X15957Y-18530D01*
X15867Y-18547D01*
X15781Y-18581D01*
X15704Y-18632D01*
X15638Y-18696D01*
X15586Y-18772D01*
X15550Y-18857D01*
X15531Y-18947D01*
X15529Y-19039D01*
X15546Y-19130D01*
X15580Y-19216D01*
X15630Y-19293D01*
X15694Y-19360D01*
X15754Y-19401D01*
X15576Y-19578D01*
X15572Y-19559D01*
X15565Y-19541D01*
X15554Y-19524D01*
X15548Y-19518D01*
X15554Y-19511D01*
X15561Y-19495D01*
X15564Y-19478D01*
X15564Y-19461D01*
X15564Y-19422D01*
X15564Y-19320D01*
X15564Y-19281D01*
X15564Y-19264D01*
X15561Y-19247D01*
X15554Y-19231D01*
X15544Y-19217D01*
X15532Y-19205D01*
X15518Y-19195D01*
X15502Y-19188D01*
X15485Y-19185D01*
X15035Y-19185D01*
X15013Y-19207D01*
X15013Y-19342D01*
X15542Y-19342D01*
X15564Y-19320D01*
X15564Y-19422D01*
X15542Y-19400D01*
X15043Y-19400D01*
X15013Y-19400D01*
X14955Y-19400D01*
X14955Y-19342D01*
X14955Y-19312D01*
X14955Y-19207D01*
X14933Y-19185D01*
X14729Y-19185D01*
X14729Y-18722D01*
X15486Y-18722D01*
X15505Y-18718D01*
X15523Y-18711D01*
X15540Y-18700D01*
X15554Y-18686D01*
X15564Y-18670D01*
X15572Y-18652D01*
X15576Y-18632D01*
X15576Y-18613D01*
X15576Y-18171D01*
X15580Y-18184D01*
X15613Y-18245D01*
X15672Y-18287D01*
X15959Y-18000D01*
X15672Y-17713D01*
X15613Y-17755D01*
X15576Y-17829D01*
X15576Y-17826D01*
X15572Y-17807D01*
X15565Y-17789D01*
X15554Y-17772D01*
X15540Y-17758D01*
X15524Y-17748D01*
X15506Y-17740D01*
X15486Y-17736D01*
X15467Y-17736D01*
X15353Y-17736D01*
X15365Y-17730D01*
X15366Y-17729D01*
X15383Y-17715D01*
X15383Y-17714D01*
X15384Y-17714D01*
X15398Y-17697D01*
X15399Y-17697D01*
X15409Y-17677D01*
X15410Y-17676D01*
X15416Y-17655D01*
X15417Y-17654D01*
X15418Y-17634D01*
X15419Y-17632D01*
X15419Y-17631D01*
X15419Y-17630D01*
X15419Y-16616D01*
X15616Y-16419D01*
X29384Y-16419D01*
X29581Y-16616D01*
X29581Y-23384D01*
X29581Y-23384D01*
G37*
G54D11*
X29581Y-23384D02*
X29520Y-23445D01*
X29520Y-21954D01*
X29520Y-19954D01*
X29502Y-19864D01*
X29467Y-19778D01*
X29420Y-19707D01*
X29420Y-18954D01*
X29402Y-18864D01*
X29367Y-18778D01*
X29316Y-18702D01*
X29251Y-18636D01*
X29175Y-18585D01*
X29090Y-18549D01*
X28999Y-18530D01*
X28907Y-18530D01*
X28817Y-18547D01*
X28731Y-18581D01*
X28654Y-18632D01*
X28588Y-18696D01*
X28536Y-18772D01*
X28500Y-18857D01*
X28481Y-18947D01*
X28479Y-19039D01*
X28496Y-19130D01*
X28530Y-19216D01*
X28580Y-19293D01*
X28644Y-19360D01*
X28720Y-19412D01*
X28804Y-19449D01*
X28894Y-19469D01*
X28986Y-19471D01*
X29077Y-19455D01*
X29163Y-19422D01*
X29241Y-19372D01*
X29307Y-19309D01*
X29361Y-19233D01*
X29398Y-19149D01*
X29419Y-19059D01*
X29420Y-18954D01*
X29420Y-19707D01*
X29416Y-19702D01*
X29351Y-19636D01*
X29275Y-19585D01*
X29190Y-19549D01*
X29099Y-19530D01*
X29007Y-19530D01*
X28917Y-19547D01*
X28831Y-19581D01*
X28754Y-19632D01*
X28688Y-19696D01*
X28636Y-19772D01*
X28600Y-19857D01*
X28581Y-19947D01*
X28579Y-20039D01*
X28596Y-20130D01*
X28630Y-20216D01*
X28680Y-20293D01*
X28744Y-20360D01*
X28820Y-20412D01*
X28904Y-20449D01*
X28994Y-20469D01*
X29086Y-20471D01*
X29177Y-20455D01*
X29263Y-20422D01*
X29341Y-20372D01*
X29407Y-20309D01*
X29461Y-20233D01*
X29498Y-20149D01*
X29519Y-20059D01*
X29520Y-19954D01*
X29520Y-21954D01*
X29502Y-21864D01*
X29467Y-21778D01*
X29420Y-21707D01*
X29420Y-20954D01*
X29402Y-20864D01*
X29367Y-20778D01*
X29316Y-20702D01*
X29251Y-20636D01*
X29175Y-20585D01*
X29090Y-20549D01*
X28999Y-20530D01*
X28907Y-20530D01*
X28817Y-20547D01*
X28731Y-20581D01*
X28654Y-20632D01*
X28588Y-20696D01*
X28536Y-20772D01*
X28500Y-20857D01*
X28481Y-20947D01*
X28479Y-21039D01*
X28496Y-21130D01*
X28530Y-21216D01*
X28580Y-21293D01*
X28644Y-21360D01*
X28720Y-21412D01*
X28804Y-21449D01*
X28894Y-21469D01*
X28986Y-21471D01*
X29077Y-21455D01*
X29163Y-21422D01*
X29241Y-21372D01*
X29307Y-21309D01*
X29361Y-21233D01*
X29398Y-21149D01*
X29419Y-21059D01*
X29420Y-20954D01*
X29420Y-21707D01*
X29416Y-21702D01*
X29351Y-21636D01*
X29275Y-21585D01*
X29190Y-21549D01*
X29099Y-21530D01*
X29007Y-21530D01*
X28917Y-21547D01*
X28831Y-21581D01*
X28754Y-21632D01*
X28688Y-21696D01*
X28636Y-21772D01*
X28600Y-21857D01*
X28581Y-21947D01*
X28579Y-22039D01*
X28596Y-22130D01*
X28630Y-22216D01*
X28680Y-22293D01*
X28744Y-22360D01*
X28820Y-22412D01*
X28904Y-22449D01*
X28994Y-22469D01*
X29086Y-22471D01*
X29177Y-22455D01*
X29263Y-22422D01*
X29341Y-22372D01*
X29407Y-22309D01*
X29461Y-22233D01*
X29498Y-22149D01*
X29519Y-22059D01*
X29520Y-21954D01*
X29520Y-23445D01*
X29470Y-23495D01*
X29470Y-23004D01*
X29452Y-22914D01*
X29417Y-22828D01*
X29366Y-22752D01*
X29301Y-22686D01*
X29225Y-22635D01*
X29140Y-22599D01*
X29049Y-22580D01*
X28957Y-22580D01*
X28867Y-22597D01*
X28781Y-22631D01*
X28704Y-22682D01*
X28638Y-22746D01*
X28586Y-22822D01*
X28550Y-22907D01*
X28531Y-22997D01*
X28529Y-23089D01*
X28546Y-23180D01*
X28580Y-23266D01*
X28630Y-23343D01*
X28694Y-23410D01*
X28770Y-23462D01*
X28854Y-23499D01*
X28944Y-23519D01*
X29036Y-23521D01*
X29127Y-23505D01*
X29213Y-23472D01*
X29291Y-23422D01*
X29357Y-23359D01*
X29411Y-23283D01*
X29448Y-23199D01*
X29469Y-23109D01*
X29470Y-23004D01*
X29470Y-23495D01*
X29384Y-23581D01*
X28520Y-23581D01*
X28520Y-21954D01*
X28502Y-21864D01*
X28467Y-21778D01*
X28416Y-21702D01*
X28351Y-21636D01*
X28275Y-21585D01*
X28190Y-21549D01*
X28099Y-21530D01*
X28007Y-21530D01*
X27917Y-21547D01*
X27831Y-21581D01*
X27754Y-21632D01*
X27688Y-21696D01*
X27636Y-21772D01*
X27600Y-21857D01*
X27581Y-21947D01*
X27579Y-22039D01*
X27596Y-22130D01*
X27630Y-22216D01*
X27680Y-22293D01*
X27744Y-22360D01*
X27820Y-22412D01*
X27904Y-22449D01*
X27994Y-22469D01*
X28086Y-22471D01*
X28177Y-22455D01*
X28263Y-22422D01*
X28341Y-22372D01*
X28407Y-22309D01*
X28461Y-22233D01*
X28498Y-22149D01*
X28519Y-22059D01*
X28520Y-21954D01*
X28520Y-23581D01*
X28470Y-23581D01*
X28470Y-22904D01*
X28452Y-22814D01*
X28417Y-22728D01*
X28366Y-22652D01*
X28301Y-22586D01*
X28225Y-22535D01*
X28140Y-22499D01*
X28049Y-22480D01*
X27957Y-22480D01*
X27867Y-22497D01*
X27781Y-22531D01*
X27704Y-22582D01*
X27638Y-22646D01*
X27586Y-22722D01*
X27550Y-22807D01*
X27531Y-22897D01*
X27529Y-22989D01*
X27546Y-23080D01*
X27580Y-23166D01*
X27630Y-23243D01*
X27694Y-23310D01*
X27770Y-23362D01*
X27854Y-23399D01*
X27944Y-23419D01*
X28036Y-23421D01*
X28127Y-23405D01*
X28213Y-23372D01*
X28291Y-23322D01*
X28357Y-23259D01*
X28411Y-23183D01*
X28448Y-23099D01*
X28469Y-23009D01*
X28470Y-22904D01*
X28470Y-23581D01*
X27470Y-23581D01*
X27470Y-23004D01*
X27452Y-22914D01*
X27417Y-22828D01*
X27366Y-22752D01*
X27301Y-22686D01*
X27225Y-22635D01*
X27140Y-22599D01*
X27130Y-22596D01*
X27130Y-22396D01*
X27130Y-22395D01*
X27128Y-22370D01*
X27120Y-22347D01*
X27120Y-22345D01*
X27112Y-22330D01*
X27109Y-22324D01*
X27108Y-22323D01*
X27093Y-22304D01*
X27092Y-22303D01*
X27057Y-22268D01*
X27058Y-22225D01*
X27050Y-22185D01*
X27035Y-22147D01*
X27012Y-22113D01*
X26983Y-22084D01*
X26950Y-22061D01*
X26912Y-22046D01*
X26872Y-22037D01*
X26831Y-22037D01*
X26791Y-22044D01*
X26754Y-22060D01*
X26719Y-22082D01*
X26690Y-22110D01*
X26667Y-22144D01*
X26651Y-22181D01*
X26642Y-22221D01*
X26642Y-22262D01*
X26649Y-22302D01*
X26664Y-22340D01*
X26686Y-22374D01*
X26714Y-22404D01*
X26748Y-22427D01*
X26785Y-22444D01*
X26825Y-22452D01*
X26866Y-22453D01*
X26870Y-22452D01*
X26870Y-22596D01*
X26867Y-22597D01*
X26781Y-22631D01*
X26704Y-22682D01*
X26638Y-22746D01*
X26586Y-22822D01*
X26550Y-22907D01*
X26531Y-22997D01*
X26529Y-23089D01*
X26546Y-23180D01*
X26580Y-23266D01*
X26630Y-23343D01*
X26694Y-23410D01*
X26770Y-23462D01*
X26854Y-23499D01*
X26944Y-23519D01*
X27036Y-23521D01*
X27127Y-23505D01*
X27213Y-23472D01*
X27291Y-23422D01*
X27357Y-23359D01*
X27411Y-23283D01*
X27448Y-23199D01*
X27469Y-23109D01*
X27470Y-23004D01*
X27470Y-23581D01*
X26470Y-23581D01*
X26470Y-22904D01*
X26452Y-22814D01*
X26417Y-22728D01*
X26366Y-22652D01*
X26301Y-22586D01*
X26225Y-22535D01*
X26140Y-22499D01*
X26049Y-22480D01*
X25957Y-22480D01*
X25867Y-22497D01*
X25781Y-22531D01*
X25704Y-22582D01*
X25638Y-22646D01*
X25586Y-22722D01*
X25550Y-22807D01*
X25531Y-22897D01*
X25529Y-22989D01*
X25546Y-23080D01*
X25580Y-23166D01*
X25630Y-23243D01*
X25694Y-23310D01*
X25770Y-23362D01*
X25854Y-23399D01*
X25944Y-23419D01*
X26036Y-23421D01*
X26127Y-23405D01*
X26213Y-23372D01*
X26291Y-23322D01*
X26357Y-23259D01*
X26411Y-23183D01*
X26448Y-23099D01*
X26469Y-23009D01*
X26470Y-22904D01*
X26470Y-23581D01*
X25470Y-23581D01*
X25470Y-23004D01*
X25452Y-22914D01*
X25417Y-22828D01*
X25366Y-22752D01*
X25301Y-22686D01*
X25225Y-22635D01*
X25140Y-22599D01*
X25049Y-22580D01*
X24957Y-22580D01*
X24867Y-22597D01*
X24781Y-22631D01*
X24704Y-22682D01*
X24638Y-22746D01*
X24586Y-22822D01*
X24550Y-22907D01*
X24531Y-22997D01*
X24529Y-23089D01*
X24546Y-23180D01*
X24580Y-23266D01*
X24630Y-23343D01*
X24694Y-23410D01*
X24770Y-23462D01*
X24781Y-23466D01*
X24854Y-23499D01*
X24944Y-23519D01*
X25036Y-23521D01*
X25127Y-23505D01*
X25213Y-23472D01*
X25291Y-23422D01*
X25357Y-23359D01*
X25411Y-23283D01*
X25448Y-23199D01*
X25469Y-23109D01*
X25470Y-23004D01*
X25470Y-23581D01*
X24781Y-23581D01*
X24470Y-23581D01*
X24470Y-22904D01*
X24452Y-22814D01*
X24417Y-22728D01*
X24366Y-22652D01*
X24301Y-22586D01*
X24225Y-22535D01*
X24140Y-22499D01*
X24049Y-22480D01*
X23957Y-22480D01*
X23867Y-22497D01*
X23781Y-22531D01*
X23704Y-22582D01*
X23638Y-22646D01*
X23586Y-22722D01*
X23550Y-22807D01*
X23531Y-22897D01*
X23529Y-22989D01*
X23546Y-23080D01*
X23580Y-23166D01*
X23630Y-23243D01*
X23694Y-23310D01*
X23770Y-23362D01*
X23854Y-23399D01*
X23944Y-23419D01*
X24036Y-23421D01*
X24127Y-23405D01*
X24213Y-23372D01*
X24291Y-23322D01*
X24357Y-23259D01*
X24411Y-23183D01*
X24448Y-23099D01*
X24469Y-23009D01*
X24470Y-22904D01*
X24470Y-23581D01*
X23470Y-23581D01*
X23470Y-23004D01*
X23452Y-22914D01*
X23417Y-22828D01*
X23366Y-22752D01*
X23301Y-22686D01*
X23225Y-22635D01*
X23140Y-22599D01*
X23049Y-22580D01*
X22957Y-22580D01*
X22867Y-22597D01*
X22781Y-22631D01*
X22704Y-22682D01*
X22638Y-22746D01*
X22586Y-22822D01*
X22550Y-22907D01*
X22531Y-22997D01*
X22529Y-23089D01*
X22546Y-23180D01*
X22580Y-23266D01*
X22630Y-23343D01*
X22694Y-23410D01*
X22770Y-23462D01*
X22781Y-23466D01*
X22854Y-23499D01*
X22944Y-23519D01*
X23036Y-23521D01*
X23127Y-23505D01*
X23213Y-23472D01*
X23291Y-23422D01*
X23357Y-23359D01*
X23411Y-23283D01*
X23448Y-23199D01*
X23469Y-23109D01*
X23470Y-23004D01*
X23470Y-23581D01*
X22781Y-23581D01*
X20470Y-23581D01*
X20470Y-22904D01*
X20452Y-22814D01*
X20417Y-22728D01*
X20366Y-22652D01*
X20329Y-22614D01*
X20301Y-22586D01*
X20225Y-22535D01*
X20140Y-22499D01*
X20049Y-22480D01*
X19957Y-22480D01*
X19867Y-22497D01*
X19781Y-22531D01*
X19704Y-22582D01*
X19638Y-22646D01*
X19586Y-22722D01*
X19550Y-22807D01*
X19531Y-22897D01*
X19529Y-22989D01*
X19546Y-23080D01*
X19580Y-23166D01*
X19630Y-23243D01*
X19694Y-23310D01*
X19770Y-23362D01*
X19854Y-23399D01*
X19944Y-23419D01*
X20036Y-23421D01*
X20127Y-23405D01*
X20213Y-23372D01*
X20291Y-23322D01*
X20329Y-23285D01*
X20357Y-23259D01*
X20411Y-23183D01*
X20448Y-23099D01*
X20469Y-23009D01*
X20470Y-22904D01*
X20470Y-23581D01*
X20329Y-23581D01*
X19509Y-23581D01*
X19470Y-23581D01*
X19470Y-23004D01*
X19452Y-22914D01*
X19417Y-22828D01*
X19366Y-22752D01*
X19301Y-22686D01*
X19225Y-22635D01*
X19140Y-22599D01*
X19049Y-22580D01*
X18957Y-22580D01*
X18867Y-22597D01*
X18781Y-22631D01*
X18704Y-22682D01*
X18638Y-22746D01*
X18586Y-22822D01*
X18550Y-22907D01*
X18531Y-22997D01*
X18529Y-23089D01*
X18546Y-23180D01*
X18580Y-23266D01*
X18630Y-23343D01*
X18694Y-23410D01*
X18770Y-23462D01*
X18854Y-23499D01*
X18944Y-23519D01*
X19036Y-23521D01*
X19127Y-23505D01*
X19213Y-23472D01*
X19291Y-23422D01*
X19357Y-23359D01*
X19411Y-23283D01*
X19448Y-23199D01*
X19469Y-23109D01*
X19470Y-23004D01*
X19470Y-23581D01*
X18470Y-23581D01*
X18470Y-22946D01*
X18452Y-22856D01*
X18417Y-22770D01*
X18366Y-22694D01*
X18301Y-22628D01*
X18225Y-22577D01*
X18140Y-22541D01*
X18049Y-22522D01*
X17957Y-22522D01*
X17867Y-22539D01*
X17781Y-22573D01*
X17704Y-22624D01*
X17638Y-22688D01*
X17586Y-22764D01*
X17550Y-22849D01*
X17531Y-22939D01*
X17529Y-23031D01*
X17546Y-23122D01*
X17580Y-23208D01*
X17630Y-23285D01*
X17694Y-23352D01*
X17770Y-23404D01*
X17854Y-23441D01*
X17944Y-23461D01*
X18036Y-23463D01*
X18127Y-23447D01*
X18213Y-23414D01*
X18291Y-23364D01*
X18357Y-23301D01*
X18411Y-23225D01*
X18448Y-23141D01*
X18469Y-23051D01*
X18470Y-22946D01*
X18470Y-23581D01*
X17458Y-23581D01*
X17458Y-23040D01*
X17448Y-22952D01*
X17420Y-22866D01*
X17387Y-22805D01*
X17328Y-22763D01*
X17287Y-22804D01*
X17287Y-22722D01*
X17245Y-22663D01*
X17165Y-22623D01*
X17079Y-22599D01*
X16990Y-22592D01*
X16902Y-22602D01*
X16816Y-22630D01*
X16755Y-22663D01*
X16713Y-22722D01*
X17000Y-23009D01*
X17287Y-22722D01*
X17287Y-22804D01*
X17041Y-23050D01*
X17328Y-23337D01*
X17387Y-23295D01*
X17427Y-23215D01*
X17451Y-23129D01*
X17458Y-23040D01*
X17458Y-23581D01*
X17287Y-23581D01*
X17287Y-23378D01*
X17000Y-23091D01*
X16959Y-23132D01*
X16959Y-23050D01*
X16672Y-22763D01*
X16613Y-22805D01*
X16573Y-22885D01*
X16549Y-22971D01*
X16542Y-23060D01*
X16552Y-23148D01*
X16580Y-23234D01*
X16613Y-23295D01*
X16672Y-23337D01*
X16959Y-23050D01*
X16959Y-23132D01*
X16713Y-23378D01*
X16755Y-23437D01*
X16835Y-23477D01*
X16921Y-23501D01*
X17010Y-23508D01*
X17098Y-23498D01*
X17184Y-23470D01*
X17245Y-23437D01*
X17287Y-23378D01*
X17287Y-23581D01*
X16470Y-23581D01*
X16470Y-22904D01*
X16452Y-22814D01*
X16417Y-22728D01*
X16366Y-22652D01*
X16301Y-22586D01*
X16225Y-22535D01*
X16140Y-22499D01*
X16049Y-22480D01*
X15957Y-22480D01*
X15867Y-22497D01*
X15781Y-22531D01*
X15704Y-22582D01*
X15638Y-22646D01*
X15586Y-22722D01*
X15550Y-22807D01*
X15531Y-22897D01*
X15529Y-22989D01*
X15546Y-23080D01*
X15580Y-23166D01*
X15630Y-23243D01*
X15694Y-23310D01*
X15770Y-23362D01*
X15854Y-23399D01*
X15944Y-23419D01*
X16036Y-23421D01*
X16127Y-23405D01*
X16213Y-23372D01*
X16291Y-23322D01*
X16357Y-23259D01*
X16411Y-23183D01*
X16448Y-23099D01*
X16469Y-23009D01*
X16470Y-22904D01*
X16470Y-23581D01*
X15616Y-23581D01*
X15419Y-23384D01*
X15419Y-22375D01*
X15419Y-22374D01*
X15417Y-22352D01*
X15417Y-22351D01*
X15410Y-22329D01*
X15400Y-22309D01*
X15399Y-22308D01*
X15385Y-22291D01*
X15384Y-22290D01*
X15367Y-22275D01*
X15347Y-22265D01*
X15346Y-22264D01*
X15486Y-22264D01*
X15505Y-22260D01*
X15523Y-22253D01*
X15540Y-22242D01*
X15554Y-22228D01*
X15564Y-22212D01*
X15571Y-22194D01*
X15580Y-22216D01*
X15630Y-22293D01*
X15694Y-22360D01*
X15770Y-22412D01*
X15854Y-22449D01*
X15944Y-22469D01*
X16036Y-22471D01*
X16127Y-22455D01*
X16213Y-22422D01*
X16291Y-22372D01*
X16357Y-22309D01*
X16411Y-22233D01*
X16448Y-22149D01*
X16467Y-22064D01*
X16737Y-22064D01*
X16740Y-22070D01*
X16751Y-22087D01*
X16765Y-22101D01*
X16781Y-22111D01*
X16799Y-22119D01*
X16819Y-22123D01*
X16838Y-22123D01*
X17113Y-22123D01*
X17091Y-22156D01*
X17070Y-22206D01*
X17058Y-22259D01*
X17058Y-22313D01*
X17067Y-22367D01*
X17087Y-22417D01*
X17117Y-22463D01*
X17154Y-22502D01*
X17199Y-22533D01*
X17249Y-22555D01*
X17302Y-22566D01*
X17356Y-22568D01*
X17410Y-22558D01*
X17460Y-22538D01*
X17506Y-22509D01*
X17546Y-22472D01*
X17577Y-22428D01*
X17598Y-22379D01*
X17981Y-22379D01*
X18000Y-22375D01*
X18018Y-22368D01*
X18035Y-22357D01*
X18049Y-22343D01*
X18059Y-22327D01*
X18062Y-22320D01*
X18176Y-22320D01*
X18173Y-22334D01*
X18173Y-22388D01*
X18182Y-22442D01*
X18202Y-22492D01*
X18232Y-22538D01*
X18269Y-22577D01*
X18314Y-22608D01*
X18364Y-22630D01*
X18417Y-22641D01*
X18471Y-22643D01*
X18525Y-22633D01*
X18575Y-22613D01*
X18621Y-22584D01*
X18661Y-22547D01*
X18677Y-22524D01*
X19256Y-22524D01*
X19262Y-22533D01*
X19299Y-22572D01*
X19344Y-22603D01*
X19394Y-22625D01*
X19447Y-22636D01*
X19501Y-22638D01*
X19509Y-22636D01*
X19555Y-22628D01*
X19605Y-22608D01*
X19651Y-22579D01*
X19691Y-22542D01*
X19722Y-22498D01*
X19744Y-22448D01*
X19756Y-22395D01*
X19757Y-22333D01*
X19746Y-22280D01*
X19726Y-22229D01*
X19719Y-22219D01*
X19778Y-22219D01*
X19780Y-22219D01*
X19809Y-22216D01*
X19811Y-22216D01*
X19827Y-22211D01*
X19839Y-22208D01*
X19841Y-22207D01*
X19867Y-22194D01*
X19868Y-22192D01*
X19891Y-22174D01*
X19891Y-22173D01*
X19892Y-22173D01*
X19892Y-22172D01*
X19896Y-22167D01*
X20110Y-21954D01*
X20111Y-21954D01*
X20111Y-21953D01*
X20112Y-21953D01*
X20116Y-21948D01*
X20131Y-21930D01*
X20132Y-21928D01*
X20146Y-21903D01*
X20146Y-21902D01*
X20147Y-21901D01*
X20148Y-21896D01*
X20156Y-21873D01*
X20159Y-21842D01*
X20159Y-21841D01*
X20159Y-21840D01*
X20159Y-21625D01*
X20260Y-21625D01*
X20279Y-21621D01*
X20297Y-21614D01*
X20314Y-21603D01*
X20328Y-21589D01*
X20329Y-21587D01*
X20338Y-21573D01*
X20346Y-21555D01*
X20350Y-21535D01*
X20350Y-21516D01*
X20350Y-21265D01*
X20346Y-21246D01*
X20339Y-21228D01*
X20329Y-21212D01*
X20329Y-21187D01*
X20338Y-21173D01*
X20346Y-21155D01*
X20350Y-21135D01*
X20350Y-21116D01*
X20350Y-20865D01*
X20346Y-20846D01*
X20339Y-20828D01*
X20328Y-20811D01*
X20314Y-20797D01*
X20298Y-20787D01*
X20280Y-20779D01*
X20260Y-20775D01*
X20241Y-20775D01*
X20159Y-20775D01*
X20159Y-18315D01*
X20770Y-17704D01*
X21150Y-17704D01*
X21150Y-18450D01*
X21652Y-18450D01*
X21652Y-18773D01*
X21620Y-18773D01*
X21567Y-18783D01*
X21516Y-18803D01*
X21471Y-18833D01*
X21432Y-18871D01*
X21418Y-18891D01*
X20947Y-18891D01*
X20936Y-18874D01*
X20898Y-18836D01*
X20853Y-18805D01*
X20802Y-18784D01*
X20749Y-18773D01*
X20695Y-18773D01*
X20642Y-18783D01*
X20591Y-18803D01*
X20546Y-18833D01*
X20507Y-18871D01*
X20476Y-18916D01*
X20455Y-18966D01*
X20443Y-19019D01*
X20443Y-19073D01*
X20452Y-19127D01*
X20472Y-19177D01*
X20502Y-19223D01*
X20539Y-19262D01*
X20584Y-19293D01*
X20634Y-19315D01*
X20687Y-19326D01*
X20741Y-19328D01*
X20795Y-19318D01*
X20845Y-19298D01*
X20891Y-19269D01*
X20931Y-19232D01*
X20947Y-19209D01*
X21417Y-19209D01*
X21427Y-19223D01*
X21464Y-19262D01*
X21509Y-19293D01*
X21559Y-19315D01*
X21612Y-19326D01*
X21666Y-19328D01*
X21720Y-19318D01*
X21770Y-19298D01*
X21816Y-19269D01*
X21856Y-19232D01*
X21887Y-19188D01*
X21909Y-19138D01*
X21921Y-19085D01*
X21922Y-19023D01*
X21911Y-18970D01*
X21891Y-18919D01*
X21878Y-18900D01*
X22449Y-18900D01*
X22449Y-18450D01*
X23050Y-18450D01*
X23050Y-17704D01*
X24544Y-17704D01*
X24497Y-17713D01*
X24446Y-17733D01*
X24401Y-17763D01*
X24362Y-17801D01*
X24331Y-17846D01*
X24310Y-17896D01*
X24298Y-17949D01*
X24298Y-18003D01*
X24307Y-18057D01*
X24327Y-18107D01*
X24357Y-18153D01*
X24394Y-18192D01*
X24400Y-18196D01*
X24388Y-18201D01*
X24372Y-18211D01*
X24147Y-18211D01*
X24133Y-18202D01*
X24115Y-18194D01*
X24095Y-18190D01*
X24076Y-18190D01*
X23825Y-18190D01*
X23806Y-18194D01*
X23788Y-18201D01*
X23771Y-18212D01*
X23757Y-18226D01*
X23747Y-18242D01*
X23739Y-18260D01*
X23735Y-18280D01*
X23735Y-18299D01*
X23735Y-18750D01*
X23739Y-18769D01*
X23746Y-18787D01*
X23757Y-18804D01*
X23771Y-18818D01*
X23787Y-18828D01*
X23803Y-18835D01*
X23804Y-18836D01*
X23808Y-18852D01*
X23812Y-18864D01*
X23813Y-18866D01*
X23826Y-18892D01*
X23846Y-18916D01*
X23847Y-18917D01*
X23848Y-18917D01*
X23852Y-18921D01*
X24031Y-19101D01*
X24028Y-19119D01*
X24028Y-19173D01*
X24037Y-19227D01*
X24057Y-19277D01*
X24087Y-19323D01*
X24124Y-19362D01*
X24169Y-19393D01*
X24219Y-19415D01*
X24272Y-19426D01*
X24326Y-19428D01*
X24380Y-19418D01*
X24430Y-19398D01*
X24476Y-19369D01*
X24516Y-19332D01*
X24547Y-19288D01*
X24569Y-19238D01*
X24581Y-19185D01*
X24582Y-19123D01*
X24571Y-19070D01*
X24551Y-19019D01*
X24521Y-18974D01*
X24483Y-18936D01*
X24438Y-18905D01*
X24387Y-18884D01*
X24334Y-18873D01*
X24280Y-18873D01*
X24256Y-18877D01*
X24188Y-18809D01*
X24362Y-18809D01*
X24371Y-18818D01*
X24387Y-18828D01*
X24405Y-18836D01*
X24425Y-18840D01*
X24444Y-18840D01*
X24543Y-18840D01*
X24543Y-18844D01*
X24543Y-18898D01*
X24552Y-18952D01*
X24572Y-19002D01*
X24602Y-19048D01*
X24639Y-19087D01*
X24684Y-19118D01*
X24734Y-19140D01*
X24781Y-19149D01*
X24787Y-19151D01*
X24841Y-19153D01*
X24868Y-19147D01*
X25320Y-19600D01*
X25316Y-19603D01*
X25277Y-19641D01*
X25246Y-19686D01*
X25225Y-19736D01*
X25213Y-19789D01*
X25213Y-19797D01*
X25201Y-19800D01*
X25183Y-19807D01*
X25166Y-19818D01*
X25152Y-19832D01*
X25142Y-19848D01*
X25134Y-19866D01*
X25130Y-19886D01*
X25130Y-19905D01*
X25130Y-20573D01*
X25124Y-20579D01*
X24781Y-20579D01*
X22947Y-20579D01*
X22566Y-20198D01*
X22563Y-20194D01*
X22561Y-20193D01*
X22539Y-20174D01*
X22537Y-20173D01*
X22512Y-20159D01*
X22511Y-20158D01*
X22510Y-20158D01*
X22500Y-20155D01*
X22482Y-20149D01*
X22451Y-20146D01*
X22450Y-20146D01*
X22449Y-20146D01*
X22087Y-20146D01*
X22085Y-20146D01*
X22054Y-20149D01*
X22024Y-20158D01*
X22010Y-20165D01*
X21997Y-20172D01*
X21973Y-20192D01*
X21972Y-20193D01*
X21638Y-20527D01*
X21634Y-20531D01*
X21614Y-20555D01*
X21599Y-20582D01*
X21598Y-20582D01*
X21598Y-20584D01*
X21595Y-20594D01*
X21589Y-20612D01*
X21586Y-20643D01*
X21586Y-20644D01*
X21586Y-20645D01*
X21586Y-21159D01*
X21586Y-21161D01*
X21589Y-21192D01*
X21593Y-21208D01*
X21597Y-21220D01*
X21598Y-21222D01*
X21611Y-21248D01*
X21631Y-21272D01*
X21632Y-21273D01*
X21633Y-21273D01*
X21637Y-21277D01*
X22034Y-21675D01*
X21658Y-21675D01*
X21639Y-21679D01*
X21621Y-21686D01*
X21613Y-21691D01*
X21460Y-21691D01*
X21458Y-21690D01*
X21441Y-21687D01*
X21286Y-21687D01*
X21264Y-21709D01*
X21264Y-21765D01*
X21206Y-21823D01*
X21206Y-21709D01*
X21184Y-21687D01*
X21070Y-21687D01*
X21070Y-20959D01*
X21336Y-20692D01*
X21376Y-20693D01*
X21416Y-20686D01*
X21454Y-20672D01*
X21488Y-20650D01*
X21518Y-20622D01*
X21541Y-20589D01*
X21558Y-20551D01*
X21567Y-20512D01*
X21568Y-20465D01*
X21560Y-20425D01*
X21545Y-20387D01*
X21522Y-20353D01*
X21493Y-20324D01*
X21460Y-20301D01*
X21422Y-20286D01*
X21382Y-20277D01*
X21341Y-20277D01*
X21301Y-20284D01*
X21264Y-20300D01*
X21229Y-20322D01*
X21217Y-20333D01*
X21208Y-20324D01*
X21175Y-20301D01*
X21137Y-20286D01*
X21097Y-20277D01*
X21056Y-20277D01*
X21016Y-20284D01*
X20979Y-20300D01*
X20944Y-20322D01*
X20915Y-20350D01*
X20892Y-20384D01*
X20876Y-20421D01*
X20867Y-20461D01*
X20867Y-20502D01*
X20868Y-20507D01*
X20727Y-20649D01*
X20726Y-20650D01*
X20710Y-20669D01*
X20699Y-20691D01*
X20698Y-20693D01*
X20695Y-20701D01*
X20691Y-20715D01*
X20688Y-20740D01*
X20688Y-20742D01*
X20688Y-22697D01*
X20638Y-22746D01*
X20586Y-22822D01*
X20550Y-22907D01*
X20531Y-22997D01*
X20529Y-23089D01*
X20546Y-23180D01*
X20580Y-23266D01*
X20630Y-23343D01*
X20694Y-23410D01*
X20770Y-23462D01*
X20854Y-23499D01*
X20944Y-23519D01*
X21036Y-23521D01*
X21127Y-23505D01*
X21213Y-23472D01*
X21291Y-23422D01*
X21357Y-23359D01*
X21411Y-23283D01*
X21448Y-23199D01*
X21469Y-23109D01*
X21469Y-23028D01*
X21529Y-23087D01*
X21529Y-23089D01*
X21546Y-23180D01*
X21580Y-23266D01*
X21630Y-23343D01*
X21694Y-23410D01*
X21770Y-23462D01*
X21854Y-23499D01*
X21944Y-23519D01*
X22036Y-23521D01*
X22127Y-23505D01*
X22213Y-23472D01*
X22291Y-23422D01*
X22357Y-23359D01*
X22411Y-23283D01*
X22448Y-23199D01*
X22469Y-23109D01*
X22470Y-23004D01*
X22452Y-22914D01*
X22417Y-22828D01*
X22366Y-22752D01*
X22301Y-22686D01*
X22225Y-22635D01*
X22140Y-22599D01*
X22049Y-22580D01*
X21957Y-22580D01*
X21867Y-22597D01*
X21781Y-22631D01*
X21704Y-22682D01*
X21638Y-22746D01*
X21604Y-22795D01*
X21303Y-22494D01*
X21302Y-22493D01*
X21441Y-22493D01*
X21458Y-22490D01*
X21460Y-22489D01*
X21613Y-22489D01*
X21620Y-22493D01*
X21638Y-22501D01*
X21658Y-22505D01*
X21677Y-22505D01*
X22072Y-22505D01*
X22091Y-22501D01*
X22109Y-22494D01*
X22116Y-22489D01*
X22243Y-22489D01*
X22250Y-22493D01*
X22268Y-22501D01*
X22288Y-22505D01*
X22307Y-22505D01*
X22702Y-22505D01*
X22721Y-22501D01*
X22739Y-22494D01*
X22756Y-22483D01*
X22770Y-22469D01*
X22780Y-22453D01*
X22781Y-22450D01*
X22788Y-22435D01*
X22792Y-22415D01*
X22792Y-22396D01*
X22792Y-21995D01*
X22971Y-21995D01*
X22999Y-22024D01*
X23033Y-22047D01*
X23070Y-22064D01*
X23110Y-22072D01*
X23151Y-22073D01*
X23191Y-22066D01*
X23229Y-22052D01*
X23263Y-22030D01*
X23293Y-22002D01*
X23316Y-21969D01*
X23333Y-21931D01*
X23342Y-21892D01*
X23343Y-21845D01*
X23335Y-21805D01*
X23320Y-21767D01*
X23297Y-21733D01*
X23268Y-21704D01*
X23235Y-21681D01*
X23197Y-21666D01*
X23157Y-21657D01*
X23116Y-21657D01*
X23076Y-21664D01*
X23039Y-21680D01*
X23004Y-21702D01*
X22975Y-21730D01*
X22971Y-21735D01*
X22921Y-21735D01*
X23027Y-21629D01*
X24781Y-21629D01*
X26589Y-21629D01*
X26590Y-21629D01*
X26615Y-21627D01*
X26638Y-21619D01*
X26640Y-21619D01*
X26654Y-21611D01*
X26661Y-21608D01*
X26662Y-21607D01*
X26681Y-21592D01*
X26682Y-21591D01*
X27142Y-21130D01*
X27496Y-21130D01*
X27530Y-21216D01*
X27580Y-21293D01*
X27644Y-21360D01*
X27720Y-21412D01*
X27804Y-21449D01*
X27894Y-21469D01*
X27986Y-21471D01*
X28077Y-21455D01*
X28163Y-21422D01*
X28241Y-21372D01*
X28307Y-21309D01*
X28361Y-21233D01*
X28398Y-21149D01*
X28419Y-21059D01*
X28420Y-20954D01*
X28402Y-20864D01*
X28367Y-20778D01*
X28316Y-20702D01*
X28251Y-20636D01*
X28175Y-20585D01*
X28090Y-20549D01*
X27999Y-20530D01*
X27907Y-20530D01*
X27817Y-20547D01*
X27731Y-20581D01*
X27654Y-20632D01*
X27588Y-20696D01*
X27536Y-20772D01*
X27500Y-20857D01*
X27497Y-20870D01*
X27193Y-20870D01*
X27195Y-20854D01*
X27195Y-20852D01*
X27195Y-20340D01*
X27250Y-20285D01*
X27449Y-20285D01*
X27450Y-20285D01*
X27475Y-20283D01*
X27498Y-20275D01*
X27500Y-20275D01*
X27514Y-20267D01*
X27521Y-20264D01*
X27522Y-20263D01*
X27541Y-20248D01*
X27542Y-20247D01*
X27613Y-20175D01*
X27630Y-20216D01*
X27680Y-20293D01*
X27744Y-20360D01*
X27820Y-20412D01*
X27904Y-20449D01*
X27994Y-20469D01*
X28086Y-20471D01*
X28177Y-20455D01*
X28263Y-20422D01*
X28341Y-20372D01*
X28407Y-20309D01*
X28461Y-20233D01*
X28498Y-20149D01*
X28519Y-20059D01*
X28520Y-19954D01*
X28502Y-19864D01*
X28467Y-19778D01*
X28416Y-19702D01*
X28408Y-19693D01*
X28408Y-18990D01*
X28398Y-18902D01*
X28370Y-18816D01*
X28337Y-18755D01*
X28278Y-18713D01*
X28237Y-18754D01*
X28237Y-18672D01*
X28195Y-18613D01*
X28115Y-18573D01*
X28029Y-18549D01*
X27940Y-18542D01*
X27852Y-18552D01*
X27766Y-18580D01*
X27705Y-18613D01*
X27663Y-18672D01*
X27950Y-18959D01*
X28237Y-18672D01*
X28237Y-18754D01*
X27991Y-19000D01*
X28278Y-19287D01*
X28337Y-19245D01*
X28377Y-19165D01*
X28401Y-19079D01*
X28408Y-18990D01*
X28408Y-19693D01*
X28351Y-19636D01*
X28275Y-19585D01*
X28237Y-19568D01*
X28237Y-19328D01*
X27950Y-19041D01*
X27909Y-19082D01*
X27909Y-19000D01*
X27622Y-18713D01*
X27563Y-18755D01*
X27523Y-18835D01*
X27499Y-18921D01*
X27492Y-19010D01*
X27502Y-19098D01*
X27530Y-19184D01*
X27563Y-19245D01*
X27622Y-19287D01*
X27909Y-19000D01*
X27909Y-19082D01*
X27663Y-19328D01*
X27705Y-19387D01*
X27785Y-19427D01*
X27871Y-19451D01*
X27960Y-19458D01*
X28048Y-19448D01*
X28134Y-19420D01*
X28195Y-19387D01*
X28237Y-19328D01*
X28237Y-19568D01*
X28190Y-19549D01*
X28099Y-19530D01*
X28007Y-19530D01*
X27917Y-19547D01*
X27831Y-19581D01*
X27754Y-19632D01*
X27746Y-19639D01*
X27732Y-19618D01*
X27703Y-19589D01*
X27670Y-19566D01*
X27632Y-19551D01*
X27592Y-19542D01*
X27551Y-19542D01*
X27546Y-19542D01*
X27163Y-19159D01*
X27162Y-19158D01*
X27143Y-19142D01*
X27121Y-19131D01*
X27119Y-19130D01*
X27111Y-19127D01*
X27097Y-19123D01*
X27072Y-19120D01*
X27070Y-19120D01*
X27058Y-19120D01*
X27058Y-18713D01*
X27058Y-18696D01*
X27058Y-18321D01*
X27058Y-18219D01*
X27058Y-17844D01*
X27058Y-17827D01*
X27055Y-17810D01*
X27048Y-17794D01*
X27038Y-17780D01*
X27026Y-17768D01*
X27012Y-17758D01*
X26996Y-17751D01*
X26979Y-17748D01*
X26901Y-17748D01*
X26879Y-17770D01*
X26879Y-18241D01*
X27036Y-18241D01*
X27058Y-18219D01*
X27058Y-18321D01*
X27036Y-18299D01*
X26879Y-18299D01*
X26879Y-18770D01*
X26901Y-18792D01*
X26979Y-18792D01*
X26996Y-18789D01*
X27012Y-18782D01*
X27026Y-18772D01*
X27038Y-18760D01*
X27048Y-18746D01*
X27055Y-18730D01*
X27058Y-18713D01*
X27058Y-19120D01*
X26821Y-19120D01*
X26821Y-18770D01*
X26821Y-18299D01*
X26821Y-18241D01*
X26821Y-17770D01*
X26799Y-17748D01*
X26721Y-17748D01*
X26704Y-17751D01*
X26688Y-17758D01*
X26674Y-17768D01*
X26662Y-17780D01*
X26652Y-17794D01*
X26645Y-17810D01*
X26642Y-17827D01*
X26642Y-17844D01*
X26642Y-18219D01*
X26664Y-18241D01*
X26821Y-18241D01*
X26821Y-18299D01*
X26664Y-18299D01*
X26642Y-18321D01*
X26642Y-18696D01*
X26642Y-18713D01*
X26645Y-18730D01*
X26652Y-18746D01*
X26662Y-18760D01*
X26674Y-18772D01*
X26688Y-18782D01*
X26704Y-18789D01*
X26721Y-18792D01*
X26799Y-18792D01*
X26821Y-18770D01*
X26821Y-19120D01*
X26570Y-19120D01*
X26570Y-18714D01*
X26570Y-18695D01*
X26570Y-17826D01*
X26566Y-17807D01*
X26559Y-17789D01*
X26548Y-17772D01*
X26534Y-17758D01*
X26518Y-17748D01*
X26500Y-17740D01*
X26480Y-17736D01*
X26461Y-17736D01*
X26220Y-17736D01*
X26201Y-17740D01*
X26183Y-17747D01*
X26166Y-17758D01*
X26152Y-17772D01*
X26142Y-17788D01*
X26134Y-17806D01*
X26130Y-17826D01*
X26130Y-17845D01*
X26130Y-18714D01*
X26134Y-18733D01*
X26141Y-18751D01*
X26152Y-18768D01*
X26166Y-18782D01*
X26182Y-18792D01*
X26200Y-18800D01*
X26220Y-18804D01*
X26239Y-18804D01*
X26480Y-18804D01*
X26499Y-18800D01*
X26517Y-18793D01*
X26534Y-18782D01*
X26548Y-18768D01*
X26558Y-18752D01*
X26566Y-18734D01*
X26570Y-18714D01*
X26570Y-19120D01*
X26124Y-19120D01*
X25980Y-18976D01*
X25980Y-18804D01*
X25999Y-18800D01*
X26017Y-18793D01*
X26034Y-18782D01*
X26048Y-18768D01*
X26058Y-18752D01*
X26066Y-18734D01*
X26070Y-18714D01*
X26070Y-18695D01*
X26070Y-17826D01*
X26066Y-17807D01*
X26059Y-17789D01*
X26048Y-17772D01*
X26034Y-17758D01*
X26018Y-17748D01*
X26000Y-17740D01*
X25980Y-17736D01*
X25961Y-17736D01*
X25720Y-17736D01*
X25701Y-17740D01*
X25683Y-17747D01*
X25666Y-17758D01*
X25652Y-17772D01*
X25642Y-17788D01*
X25634Y-17806D01*
X25630Y-17826D01*
X25630Y-17845D01*
X25630Y-18714D01*
X25634Y-18733D01*
X25641Y-18751D01*
X25652Y-18768D01*
X25666Y-18782D01*
X25682Y-18792D01*
X25700Y-18800D01*
X25720Y-18804D01*
X25720Y-19029D01*
X25720Y-19030D01*
X25722Y-19055D01*
X25730Y-19080D01*
X25737Y-19094D01*
X25741Y-19101D01*
X25742Y-19102D01*
X25757Y-19121D01*
X25758Y-19122D01*
X25977Y-19341D01*
X25978Y-19342D01*
X25997Y-19358D01*
X26019Y-19369D01*
X26020Y-19370D01*
X26036Y-19374D01*
X26043Y-19377D01*
X26044Y-19377D01*
X26068Y-19380D01*
X26070Y-19380D01*
X26576Y-19380D01*
X26567Y-19394D01*
X26551Y-19431D01*
X26542Y-19471D01*
X26542Y-19512D01*
X26543Y-19518D01*
X26265Y-19796D01*
X26220Y-19796D01*
X26204Y-19799D01*
X26196Y-19788D01*
X26193Y-19784D01*
X26192Y-19783D01*
X26185Y-19777D01*
X25480Y-19071D01*
X25480Y-19053D01*
X25508Y-19027D01*
X25531Y-18994D01*
X25548Y-18956D01*
X25557Y-18917D01*
X25558Y-18870D01*
X25550Y-18830D01*
X25535Y-18792D01*
X25529Y-18784D01*
X25534Y-18782D01*
X25548Y-18768D01*
X25558Y-18752D01*
X25566Y-18734D01*
X25570Y-18714D01*
X25570Y-18695D01*
X25570Y-17826D01*
X25566Y-17807D01*
X25559Y-17789D01*
X25548Y-17772D01*
X25534Y-17758D01*
X25518Y-17748D01*
X25500Y-17740D01*
X25480Y-17736D01*
X25461Y-17736D01*
X25220Y-17736D01*
X25201Y-17740D01*
X25183Y-17747D01*
X25166Y-17758D01*
X25152Y-17772D01*
X25142Y-17788D01*
X25134Y-17806D01*
X25130Y-17826D01*
X25130Y-17845D01*
X25130Y-18714D01*
X25134Y-18733D01*
X25141Y-18751D01*
X25152Y-18768D01*
X25166Y-18782D01*
X25170Y-18784D01*
X25167Y-18789D01*
X25151Y-18826D01*
X25142Y-18866D01*
X25142Y-18907D01*
X25149Y-18947D01*
X25164Y-18985D01*
X25181Y-19012D01*
X25092Y-18923D01*
X25096Y-18910D01*
X25097Y-18848D01*
X25086Y-18795D01*
X25066Y-18744D01*
X25036Y-18699D01*
X24998Y-18661D01*
X24953Y-18630D01*
X24902Y-18609D01*
X24849Y-18598D01*
X24795Y-18598D01*
X24785Y-18599D01*
X24785Y-18280D01*
X24781Y-18261D01*
X24774Y-18243D01*
X24763Y-18226D01*
X24749Y-18212D01*
X24737Y-18204D01*
X24746Y-18199D01*
X24786Y-18162D01*
X24817Y-18118D01*
X24839Y-18068D01*
X24851Y-18015D01*
X24852Y-17953D01*
X24841Y-17900D01*
X24821Y-17849D01*
X24791Y-17804D01*
X24753Y-17766D01*
X24708Y-17735D01*
X24657Y-17714D01*
X24608Y-17704D01*
X27213Y-17704D01*
X27215Y-17704D01*
X27244Y-17701D01*
X27246Y-17701D01*
X27262Y-17696D01*
X27274Y-17693D01*
X27276Y-17692D01*
X27302Y-17679D01*
X27303Y-17677D01*
X27326Y-17659D01*
X27326Y-17658D01*
X27327Y-17658D01*
X27327Y-17657D01*
X27331Y-17652D01*
X27345Y-17639D01*
X27746Y-17639D01*
X27688Y-17696D01*
X27636Y-17772D01*
X27600Y-17857D01*
X27581Y-17947D01*
X27579Y-18039D01*
X27596Y-18130D01*
X27630Y-18216D01*
X27680Y-18293D01*
X27744Y-18360D01*
X27820Y-18412D01*
X27904Y-18449D01*
X27994Y-18469D01*
X28086Y-18471D01*
X28177Y-18455D01*
X28263Y-18422D01*
X28341Y-18372D01*
X28407Y-18309D01*
X28461Y-18233D01*
X28498Y-18149D01*
X28519Y-18059D01*
X28520Y-17954D01*
X28502Y-17864D01*
X28467Y-17778D01*
X28416Y-17702D01*
X28353Y-17639D01*
X28464Y-17639D01*
X28624Y-17798D01*
X28600Y-17857D01*
X28581Y-17947D01*
X28579Y-18039D01*
X28596Y-18130D01*
X28630Y-18216D01*
X28680Y-18293D01*
X28744Y-18360D01*
X28820Y-18412D01*
X28904Y-18449D01*
X28994Y-18469D01*
X29086Y-18471D01*
X29177Y-18455D01*
X29263Y-18422D01*
X29341Y-18372D01*
X29407Y-18309D01*
X29461Y-18233D01*
X29498Y-18149D01*
X29519Y-18059D01*
X29520Y-17954D01*
X29502Y-17864D01*
X29470Y-17785D01*
X29470Y-17004D01*
X29452Y-16914D01*
X29417Y-16828D01*
X29366Y-16752D01*
X29301Y-16686D01*
X29225Y-16635D01*
X29140Y-16599D01*
X29049Y-16580D01*
X28957Y-16580D01*
X28867Y-16597D01*
X28781Y-16631D01*
X28704Y-16682D01*
X28638Y-16746D01*
X28586Y-16822D01*
X28550Y-16907D01*
X28531Y-16997D01*
X28529Y-17089D01*
X28546Y-17180D01*
X28580Y-17266D01*
X28630Y-17343D01*
X28694Y-17410D01*
X28770Y-17462D01*
X28854Y-17499D01*
X28944Y-17519D01*
X29036Y-17521D01*
X29127Y-17505D01*
X29213Y-17472D01*
X29291Y-17422D01*
X29357Y-17359D01*
X29411Y-17283D01*
X29448Y-17199D01*
X29469Y-17109D01*
X29470Y-17004D01*
X29470Y-17785D01*
X29467Y-17778D01*
X29416Y-17702D01*
X29351Y-17636D01*
X29275Y-17585D01*
X29190Y-17549D01*
X29099Y-17530D01*
X29007Y-17530D01*
X28917Y-17547D01*
X28848Y-17574D01*
X28647Y-17373D01*
X28644Y-17369D01*
X28642Y-17368D01*
X28620Y-17349D01*
X28618Y-17348D01*
X28593Y-17334D01*
X28592Y-17333D01*
X28591Y-17333D01*
X28581Y-17330D01*
X28563Y-17324D01*
X28532Y-17321D01*
X28531Y-17321D01*
X28530Y-17321D01*
X28292Y-17321D01*
X28357Y-17259D01*
X28411Y-17183D01*
X28448Y-17099D01*
X28469Y-17009D01*
X28470Y-16904D01*
X28452Y-16814D01*
X28417Y-16728D01*
X28366Y-16652D01*
X28301Y-16586D01*
X28225Y-16535D01*
X28140Y-16499D01*
X28049Y-16480D01*
X27957Y-16480D01*
X27867Y-16497D01*
X27781Y-16531D01*
X27704Y-16582D01*
X27638Y-16646D01*
X27586Y-16722D01*
X27550Y-16807D01*
X27531Y-16897D01*
X27529Y-16989D01*
X27546Y-17080D01*
X27580Y-17166D01*
X27630Y-17243D01*
X27694Y-17310D01*
X27710Y-17321D01*
X27384Y-17321D01*
X27411Y-17283D01*
X27448Y-17199D01*
X27469Y-17109D01*
X27470Y-17004D01*
X27452Y-16914D01*
X27417Y-16828D01*
X27366Y-16752D01*
X27301Y-16686D01*
X27225Y-16635D01*
X27140Y-16599D01*
X27049Y-16580D01*
X26957Y-16580D01*
X26867Y-16597D01*
X26781Y-16631D01*
X26704Y-16682D01*
X26638Y-16746D01*
X26586Y-16822D01*
X26550Y-16907D01*
X26531Y-16997D01*
X26529Y-17089D01*
X26546Y-17180D01*
X26580Y-17266D01*
X26630Y-17343D01*
X26671Y-17386D01*
X26176Y-17386D01*
X26213Y-17372D01*
X26291Y-17322D01*
X26357Y-17259D01*
X26411Y-17183D01*
X26448Y-17099D01*
X26469Y-17009D01*
X26470Y-16904D01*
X26452Y-16814D01*
X26417Y-16728D01*
X26366Y-16652D01*
X26301Y-16586D01*
X26225Y-16535D01*
X26140Y-16499D01*
X26049Y-16480D01*
X25957Y-16480D01*
X25867Y-16497D01*
X25781Y-16531D01*
X25704Y-16582D01*
X25638Y-16646D01*
X25586Y-16722D01*
X25550Y-16807D01*
X25531Y-16897D01*
X25529Y-16989D01*
X25546Y-17080D01*
X25580Y-17166D01*
X25630Y-17243D01*
X25694Y-17310D01*
X25770Y-17362D01*
X25824Y-17386D01*
X25328Y-17386D01*
X25357Y-17359D01*
X25411Y-17283D01*
X25448Y-17199D01*
X25469Y-17109D01*
X25470Y-17004D01*
X25452Y-16914D01*
X25417Y-16828D01*
X25366Y-16752D01*
X25301Y-16686D01*
X25225Y-16635D01*
X25140Y-16599D01*
X25049Y-16580D01*
X24957Y-16580D01*
X24867Y-16597D01*
X24781Y-16631D01*
X24704Y-16682D01*
X24638Y-16746D01*
X24586Y-16822D01*
X24550Y-16907D01*
X24531Y-16997D01*
X24529Y-17089D01*
X24546Y-17180D01*
X24580Y-17266D01*
X24630Y-17343D01*
X24671Y-17386D01*
X24176Y-17386D01*
X24213Y-17372D01*
X24291Y-17322D01*
X24357Y-17259D01*
X24411Y-17183D01*
X24448Y-17099D01*
X24469Y-17009D01*
X24470Y-16904D01*
X24452Y-16814D01*
X24417Y-16728D01*
X24366Y-16652D01*
X24301Y-16586D01*
X24225Y-16535D01*
X24140Y-16499D01*
X24049Y-16480D01*
X23957Y-16480D01*
X23867Y-16497D01*
X23781Y-16531D01*
X23704Y-16582D01*
X23638Y-16646D01*
X23586Y-16722D01*
X23550Y-16807D01*
X23531Y-16897D01*
X23529Y-16989D01*
X23546Y-17080D01*
X23580Y-17166D01*
X23630Y-17243D01*
X23694Y-17310D01*
X23770Y-17362D01*
X23824Y-17386D01*
X23328Y-17386D01*
X23357Y-17359D01*
X23411Y-17283D01*
X23448Y-17199D01*
X23469Y-17109D01*
X23470Y-17004D01*
X23452Y-16914D01*
X23417Y-16828D01*
X23366Y-16752D01*
X23301Y-16686D01*
X23225Y-16635D01*
X23140Y-16599D01*
X23049Y-16580D01*
X22957Y-16580D01*
X22867Y-16597D01*
X22781Y-16631D01*
X22704Y-16682D01*
X22638Y-16746D01*
X22586Y-16822D01*
X22550Y-16907D01*
X22531Y-16997D01*
X22529Y-17089D01*
X22546Y-17180D01*
X22580Y-17266D01*
X22630Y-17343D01*
X22671Y-17386D01*
X22176Y-17386D01*
X22213Y-17372D01*
X22291Y-17322D01*
X22357Y-17259D01*
X22411Y-17183D01*
X22448Y-17099D01*
X22469Y-17009D01*
X22470Y-16904D01*
X22452Y-16814D01*
X22417Y-16728D01*
X22366Y-16652D01*
X22301Y-16586D01*
X22225Y-16535D01*
X22140Y-16499D01*
X22049Y-16480D01*
X21957Y-16480D01*
X21867Y-16497D01*
X21781Y-16531D01*
X21704Y-16582D01*
X21638Y-16646D01*
X21586Y-16722D01*
X21550Y-16807D01*
X21531Y-16897D01*
X21529Y-16989D01*
X21546Y-17080D01*
X21580Y-17166D01*
X21630Y-17243D01*
X21694Y-17310D01*
X21770Y-17362D01*
X21824Y-17386D01*
X21328Y-17386D01*
X21357Y-17359D01*
X21411Y-17283D01*
X21448Y-17199D01*
X21469Y-17109D01*
X21470Y-17004D01*
X21452Y-16914D01*
X21417Y-16828D01*
X21366Y-16752D01*
X21301Y-16686D01*
X21225Y-16635D01*
X21140Y-16599D01*
X21049Y-16580D01*
X20957Y-16580D01*
X20867Y-16597D01*
X20781Y-16631D01*
X20704Y-16682D01*
X20638Y-16746D01*
X20586Y-16822D01*
X20550Y-16907D01*
X20531Y-16997D01*
X20529Y-17089D01*
X20546Y-17180D01*
X20580Y-17266D01*
X20630Y-17343D01*
X20673Y-17389D01*
X20658Y-17393D01*
X20646Y-17397D01*
X20644Y-17398D01*
X20618Y-17411D01*
X20594Y-17431D01*
X20593Y-17431D01*
X20593Y-17432D01*
X20588Y-17438D01*
X20470Y-17555D01*
X20470Y-16904D01*
X20452Y-16814D01*
X20417Y-16728D01*
X20366Y-16652D01*
X20301Y-16586D01*
X20225Y-16535D01*
X20140Y-16499D01*
X20049Y-16480D01*
X19957Y-16480D01*
X19867Y-16497D01*
X19781Y-16531D01*
X19704Y-16582D01*
X19638Y-16646D01*
X19586Y-16722D01*
X19550Y-16807D01*
X19531Y-16897D01*
X19529Y-16989D01*
X19546Y-17080D01*
X19580Y-17166D01*
X19630Y-17243D01*
X19694Y-17310D01*
X19770Y-17362D01*
X19854Y-17399D01*
X19944Y-17419D01*
X20036Y-17421D01*
X20127Y-17405D01*
X20213Y-17372D01*
X20291Y-17322D01*
X20357Y-17259D01*
X20411Y-17183D01*
X20448Y-17099D01*
X20469Y-17009D01*
X20470Y-16904D01*
X20470Y-17555D01*
X19893Y-18132D01*
X19889Y-18136D01*
X19869Y-18160D01*
X19854Y-18187D01*
X19853Y-18187D01*
X19853Y-18189D01*
X19850Y-18199D01*
X19844Y-18217D01*
X19841Y-18248D01*
X19841Y-18249D01*
X19841Y-18250D01*
X19841Y-20775D01*
X19740Y-20775D01*
X19721Y-20779D01*
X19703Y-20786D01*
X19686Y-20797D01*
X19672Y-20811D01*
X19662Y-20827D01*
X19654Y-20845D01*
X19650Y-20865D01*
X19650Y-20884D01*
X19650Y-21135D01*
X19654Y-21154D01*
X19661Y-21172D01*
X19671Y-21187D01*
X19671Y-21212D01*
X19662Y-21227D01*
X19654Y-21245D01*
X19650Y-21265D01*
X19650Y-21284D01*
X19650Y-21535D01*
X19654Y-21554D01*
X19661Y-21572D01*
X19672Y-21589D01*
X19686Y-21603D01*
X19702Y-21613D01*
X19720Y-21621D01*
X19740Y-21625D01*
X19759Y-21625D01*
X19841Y-21625D01*
X19841Y-21774D01*
X19714Y-21901D01*
X19509Y-21901D01*
X19491Y-21901D01*
X19503Y-21889D01*
X19509Y-21879D01*
X19513Y-21873D01*
X19521Y-21855D01*
X19525Y-21835D01*
X19525Y-21816D01*
X19525Y-21565D01*
X19521Y-21546D01*
X19514Y-21528D01*
X19509Y-21520D01*
X19509Y-21279D01*
X19513Y-21273D01*
X19521Y-21255D01*
X19525Y-21235D01*
X19525Y-21216D01*
X19525Y-20965D01*
X19521Y-20946D01*
X19514Y-20928D01*
X19503Y-20911D01*
X19489Y-20897D01*
X19473Y-20887D01*
X19470Y-20885D01*
X19470Y-17004D01*
X19452Y-16914D01*
X19417Y-16828D01*
X19366Y-16752D01*
X19301Y-16686D01*
X19225Y-16635D01*
X19140Y-16599D01*
X19049Y-16580D01*
X18957Y-16580D01*
X18867Y-16597D01*
X18781Y-16631D01*
X18704Y-16682D01*
X18638Y-16746D01*
X18586Y-16822D01*
X18550Y-16907D01*
X18531Y-16997D01*
X18529Y-17089D01*
X18546Y-17180D01*
X18580Y-17266D01*
X18630Y-17343D01*
X18694Y-17410D01*
X18770Y-17462D01*
X18854Y-17499D01*
X18944Y-17519D01*
X19036Y-17521D01*
X19127Y-17505D01*
X19213Y-17472D01*
X19291Y-17422D01*
X19357Y-17359D01*
X19411Y-17283D01*
X19448Y-17199D01*
X19469Y-17109D01*
X19470Y-17004D01*
X19470Y-20885D01*
X19455Y-20879D01*
X19435Y-20875D01*
X19416Y-20875D01*
X18965Y-20875D01*
X18959Y-20876D01*
X18959Y-20562D01*
X18962Y-20565D01*
X18962Y-20597D01*
X18969Y-20637D01*
X18984Y-20675D01*
X19006Y-20709D01*
X19034Y-20739D01*
X19068Y-20762D01*
X19105Y-20779D01*
X19145Y-20787D01*
X19186Y-20788D01*
X19226Y-20781D01*
X19264Y-20767D01*
X19298Y-20745D01*
X19328Y-20717D01*
X19351Y-20684D01*
X19368Y-20646D01*
X19377Y-20607D01*
X19378Y-20560D01*
X19370Y-20520D01*
X19355Y-20482D01*
X19332Y-20448D01*
X19321Y-20437D01*
X19323Y-20437D01*
X19346Y-20404D01*
X19363Y-20366D01*
X19372Y-20327D01*
X19373Y-20280D01*
X19365Y-20240D01*
X19350Y-20202D01*
X19327Y-20168D01*
X19298Y-20139D01*
X19295Y-20136D01*
X19295Y-19611D01*
X19295Y-19610D01*
X19293Y-19585D01*
X19285Y-19562D01*
X19285Y-19560D01*
X19273Y-19539D01*
X19273Y-19538D01*
X19261Y-19523D01*
X19258Y-19519D01*
X19257Y-19518D01*
X19258Y-19480D01*
X19250Y-19440D01*
X19235Y-19402D01*
X19212Y-19368D01*
X19183Y-19339D01*
X19150Y-19316D01*
X19112Y-19301D01*
X19072Y-19292D01*
X19031Y-19292D01*
X18991Y-19299D01*
X18954Y-19315D01*
X18919Y-19337D01*
X18890Y-19365D01*
X18870Y-19394D01*
X18837Y-19381D01*
X18797Y-19372D01*
X18756Y-19372D01*
X18716Y-19379D01*
X18679Y-19395D01*
X18644Y-19417D01*
X18642Y-19418D01*
X18642Y-18163D01*
X18631Y-18110D01*
X18611Y-18059D01*
X18581Y-18014D01*
X18543Y-17976D01*
X18498Y-17945D01*
X18470Y-17933D01*
X18470Y-16904D01*
X18452Y-16814D01*
X18417Y-16728D01*
X18366Y-16652D01*
X18301Y-16586D01*
X18225Y-16535D01*
X18140Y-16499D01*
X18049Y-16480D01*
X17957Y-16480D01*
X17867Y-16497D01*
X17781Y-16531D01*
X17704Y-16582D01*
X17638Y-16646D01*
X17586Y-16722D01*
X17550Y-16807D01*
X17531Y-16897D01*
X17529Y-16989D01*
X17546Y-17080D01*
X17580Y-17166D01*
X17630Y-17243D01*
X17694Y-17310D01*
X17770Y-17362D01*
X17854Y-17399D01*
X17944Y-17419D01*
X18036Y-17421D01*
X18127Y-17405D01*
X18213Y-17372D01*
X18291Y-17322D01*
X18357Y-17259D01*
X18411Y-17183D01*
X18448Y-17099D01*
X18469Y-17009D01*
X18470Y-16904D01*
X18470Y-17933D01*
X18447Y-17924D01*
X18394Y-17913D01*
X18340Y-17913D01*
X18287Y-17923D01*
X18236Y-17943D01*
X18191Y-17973D01*
X18152Y-18011D01*
X18138Y-18031D01*
X17470Y-18031D01*
X17470Y-17004D01*
X17452Y-16914D01*
X17417Y-16828D01*
X17366Y-16752D01*
X17301Y-16686D01*
X17225Y-16635D01*
X17140Y-16599D01*
X17049Y-16580D01*
X16957Y-16580D01*
X16867Y-16597D01*
X16781Y-16631D01*
X16704Y-16682D01*
X16638Y-16746D01*
X16586Y-16822D01*
X16550Y-16907D01*
X16531Y-16997D01*
X16529Y-17089D01*
X16546Y-17180D01*
X16580Y-17266D01*
X16630Y-17343D01*
X16694Y-17410D01*
X16770Y-17462D01*
X16854Y-17499D01*
X16944Y-17519D01*
X17036Y-17521D01*
X17127Y-17505D01*
X17213Y-17472D01*
X17291Y-17422D01*
X17357Y-17359D01*
X17411Y-17283D01*
X17448Y-17199D01*
X17469Y-17109D01*
X17470Y-17004D01*
X17470Y-18031D01*
X16757Y-18031D01*
X16755Y-18031D01*
X16754Y-18031D01*
X16737Y-18024D01*
X16684Y-18013D01*
X16630Y-18013D01*
X16577Y-18023D01*
X16526Y-18043D01*
X16481Y-18073D01*
X16470Y-18083D01*
X16470Y-16904D01*
X16452Y-16814D01*
X16417Y-16728D01*
X16366Y-16652D01*
X16301Y-16586D01*
X16225Y-16535D01*
X16140Y-16499D01*
X16049Y-16480D01*
X15957Y-16480D01*
X15867Y-16497D01*
X15781Y-16531D01*
X15704Y-16582D01*
X15638Y-16646D01*
X15586Y-16722D01*
X15550Y-16807D01*
X15531Y-16897D01*
X15529Y-16989D01*
X15546Y-17080D01*
X15580Y-17166D01*
X15630Y-17243D01*
X15694Y-17310D01*
X15770Y-17362D01*
X15854Y-17399D01*
X15944Y-17419D01*
X16036Y-17421D01*
X16127Y-17405D01*
X16213Y-17372D01*
X16291Y-17322D01*
X16357Y-17259D01*
X16411Y-17183D01*
X16448Y-17099D01*
X16469Y-17009D01*
X16470Y-16904D01*
X16470Y-18083D01*
X16442Y-18110D01*
X16451Y-18079D01*
X16458Y-17990D01*
X16448Y-17902D01*
X16420Y-17816D01*
X16387Y-17755D01*
X16328Y-17713D01*
X16287Y-17754D01*
X16287Y-17672D01*
X16245Y-17613D01*
X16165Y-17573D01*
X16079Y-17549D01*
X15990Y-17542D01*
X15902Y-17552D01*
X15816Y-17580D01*
X15755Y-17613D01*
X15713Y-17672D01*
X16000Y-17959D01*
X16287Y-17672D01*
X16287Y-17754D01*
X16041Y-18000D01*
X16328Y-18287D01*
X16380Y-18249D01*
X16378Y-18259D01*
X16378Y-18313D01*
X16387Y-18367D01*
X16407Y-18417D01*
X16437Y-18463D01*
X16474Y-18502D01*
X16519Y-18533D01*
X16569Y-18555D01*
X16622Y-18566D01*
X16676Y-18568D01*
X16730Y-18558D01*
X16780Y-18538D01*
X16826Y-18509D01*
X16866Y-18472D01*
X16897Y-18428D01*
X16919Y-18378D01*
X16925Y-18349D01*
X18137Y-18349D01*
X18147Y-18363D01*
X18184Y-18402D01*
X18229Y-18433D01*
X18279Y-18455D01*
X18332Y-18466D01*
X18386Y-18468D01*
X18440Y-18458D01*
X18490Y-18438D01*
X18536Y-18409D01*
X18576Y-18372D01*
X18607Y-18328D01*
X18629Y-18278D01*
X18641Y-18225D01*
X18642Y-18163D01*
X18642Y-19418D01*
X18625Y-19435D01*
X18625Y-19265D01*
X18621Y-19246D01*
X18614Y-19228D01*
X18613Y-19226D01*
X18613Y-18934D01*
X18613Y-18851D01*
X18613Y-18749D01*
X18613Y-18666D01*
X18610Y-18649D01*
X18603Y-18633D01*
X18593Y-18619D01*
X18581Y-18607D01*
X18567Y-18597D01*
X18551Y-18590D01*
X18534Y-18587D01*
X18517Y-18587D01*
X18351Y-18587D01*
X18329Y-18609D01*
X18329Y-18771D01*
X18591Y-18771D01*
X18613Y-18749D01*
X18613Y-18851D01*
X18591Y-18829D01*
X18329Y-18829D01*
X18329Y-18991D01*
X18351Y-19013D01*
X18517Y-19013D01*
X18534Y-19013D01*
X18551Y-19010D01*
X18567Y-19003D01*
X18581Y-18993D01*
X18593Y-18981D01*
X18603Y-18967D01*
X18610Y-18951D01*
X18613Y-18934D01*
X18613Y-19226D01*
X18603Y-19211D01*
X18589Y-19197D01*
X18573Y-19187D01*
X18555Y-19179D01*
X18535Y-19175D01*
X18516Y-19175D01*
X18271Y-19175D01*
X18271Y-18991D01*
X18271Y-18829D01*
X18271Y-18771D01*
X18271Y-18609D01*
X18249Y-18587D01*
X18083Y-18587D01*
X18066Y-18587D01*
X18049Y-18590D01*
X18033Y-18597D01*
X18019Y-18607D01*
X18007Y-18619D01*
X18000Y-18628D01*
X17993Y-18619D01*
X17981Y-18607D01*
X17967Y-18597D01*
X17951Y-18590D01*
X17934Y-18587D01*
X17917Y-18587D01*
X17751Y-18587D01*
X17729Y-18609D01*
X17729Y-18771D01*
X17991Y-18771D01*
X18000Y-18762D01*
X18009Y-18771D01*
X18271Y-18771D01*
X18271Y-18829D01*
X18009Y-18829D01*
X18000Y-18838D01*
X17991Y-18829D01*
X17729Y-18829D01*
X17729Y-18991D01*
X17751Y-19013D01*
X17917Y-19013D01*
X17934Y-19013D01*
X17951Y-19010D01*
X17967Y-19003D01*
X17981Y-18993D01*
X17993Y-18981D01*
X18000Y-18971D01*
X18007Y-18981D01*
X18019Y-18993D01*
X18033Y-19003D01*
X18049Y-19010D01*
X18066Y-19013D01*
X18083Y-19013D01*
X18249Y-19013D01*
X18271Y-18991D01*
X18271Y-19175D01*
X18065Y-19175D01*
X18046Y-19179D01*
X18028Y-19186D01*
X18011Y-19197D01*
X18000Y-19208D01*
X17989Y-19197D01*
X17973Y-19187D01*
X17955Y-19179D01*
X17935Y-19175D01*
X17916Y-19175D01*
X17671Y-19175D01*
X17671Y-18991D01*
X17671Y-18829D01*
X17671Y-18771D01*
X17671Y-18609D01*
X17649Y-18587D01*
X17483Y-18587D01*
X17466Y-18587D01*
X17449Y-18590D01*
X17433Y-18597D01*
X17419Y-18607D01*
X17407Y-18619D01*
X17397Y-18633D01*
X17390Y-18649D01*
X17387Y-18666D01*
X17387Y-18749D01*
X17409Y-18771D01*
X17671Y-18771D01*
X17671Y-18829D01*
X17409Y-18829D01*
X17387Y-18851D01*
X17387Y-18934D01*
X17390Y-18951D01*
X17397Y-18967D01*
X17407Y-18981D01*
X17419Y-18993D01*
X17433Y-19003D01*
X17449Y-19010D01*
X17466Y-19013D01*
X17483Y-19013D01*
X17649Y-19013D01*
X17671Y-18991D01*
X17671Y-19175D01*
X17465Y-19175D01*
X17446Y-19179D01*
X17428Y-19186D01*
X17411Y-19197D01*
X17397Y-19211D01*
X17387Y-19227D01*
X17379Y-19245D01*
X17375Y-19265D01*
X17375Y-19284D01*
X17375Y-19535D01*
X17379Y-19554D01*
X17386Y-19572D01*
X17396Y-19588D01*
X17391Y-19589D01*
X17354Y-19605D01*
X17319Y-19627D01*
X17290Y-19655D01*
X17267Y-19689D01*
X17251Y-19726D01*
X17246Y-19744D01*
X16919Y-19744D01*
X16923Y-19736D01*
X16932Y-19697D01*
X16933Y-19650D01*
X16925Y-19610D01*
X16910Y-19572D01*
X16887Y-19538D01*
X16858Y-19509D01*
X16825Y-19486D01*
X16787Y-19471D01*
X16747Y-19462D01*
X16706Y-19462D01*
X16666Y-19469D01*
X16629Y-19485D01*
X16594Y-19507D01*
X16565Y-19535D01*
X16561Y-19540D01*
X16394Y-19540D01*
X16251Y-19397D01*
X16291Y-19372D01*
X16357Y-19309D01*
X16411Y-19233D01*
X16448Y-19149D01*
X16469Y-19059D01*
X16470Y-18954D01*
X16452Y-18864D01*
X16417Y-18778D01*
X16366Y-18702D01*
X16301Y-18636D01*
X16287Y-18626D01*
X16287Y-18328D01*
X16000Y-18041D01*
X15713Y-18328D01*
X15755Y-18387D01*
X15835Y-18427D01*
X15921Y-18451D01*
X16010Y-18458D01*
X16098Y-18448D01*
X16184Y-18420D01*
X16245Y-18387D01*
X16287Y-18328D01*
X16287Y-18626D01*
X16225Y-18585D01*
X16140Y-18549D01*
X16049Y-18530D01*
X15957Y-18530D01*
X15867Y-18547D01*
X15781Y-18581D01*
X15704Y-18632D01*
X15638Y-18696D01*
X15586Y-18772D01*
X15550Y-18857D01*
X15531Y-18947D01*
X15529Y-19039D01*
X15546Y-19130D01*
X15580Y-19216D01*
X15630Y-19293D01*
X15694Y-19360D01*
X15754Y-19401D01*
X15576Y-19578D01*
X15572Y-19559D01*
X15565Y-19541D01*
X15554Y-19524D01*
X15548Y-19518D01*
X15554Y-19511D01*
X15561Y-19495D01*
X15564Y-19478D01*
X15564Y-19461D01*
X15564Y-19422D01*
X15564Y-19320D01*
X15564Y-19281D01*
X15564Y-19264D01*
X15561Y-19247D01*
X15554Y-19231D01*
X15544Y-19217D01*
X15532Y-19205D01*
X15518Y-19195D01*
X15502Y-19188D01*
X15485Y-19185D01*
X15035Y-19185D01*
X15013Y-19207D01*
X15013Y-19342D01*
X15542Y-19342D01*
X15564Y-19320D01*
X15564Y-19422D01*
X15542Y-19400D01*
X15043Y-19400D01*
X15013Y-19400D01*
X14955Y-19400D01*
X14955Y-19342D01*
X14955Y-19312D01*
X14955Y-19207D01*
X14933Y-19185D01*
X14729Y-19185D01*
X14729Y-18722D01*
X15486Y-18722D01*
X15505Y-18718D01*
X15523Y-18711D01*
X15540Y-18700D01*
X15554Y-18686D01*
X15564Y-18670D01*
X15572Y-18652D01*
X15576Y-18632D01*
X15576Y-18613D01*
X15576Y-18171D01*
X15580Y-18184D01*
X15613Y-18245D01*
X15672Y-18287D01*
X15959Y-18000D01*
X15672Y-17713D01*
X15613Y-17755D01*
X15576Y-17829D01*
X15576Y-17826D01*
X15572Y-17807D01*
X15565Y-17789D01*
X15554Y-17772D01*
X15540Y-17758D01*
X15524Y-17748D01*
X15506Y-17740D01*
X15486Y-17736D01*
X15467Y-17736D01*
X15353Y-17736D01*
X15365Y-17730D01*
X15366Y-17729D01*
X15383Y-17715D01*
X15383Y-17714D01*
X15384Y-17714D01*
X15398Y-17697D01*
X15399Y-17697D01*
X15409Y-17677D01*
X15410Y-17676D01*
X15416Y-17655D01*
X15417Y-17654D01*
X15418Y-17634D01*
X15419Y-17632D01*
X15419Y-17631D01*
X15419Y-17630D01*
X15419Y-16616D01*
X15616Y-16419D01*
X29384Y-16419D01*
X29581Y-16616D01*
X29581Y-23384D01*
M02*
