M48
METRIC,TZ
T1C0.300
T2C0.500
T3C0.899
T4C1.016
%
G90
G05
T1
X43.802Y-46.914
X45.669Y-46.965
X47.689Y-49.733
X48.362Y-49.517
X48.679Y-51.562
X48.692Y-52.273
X52.946Y-52.032
X53.061Y-51.295
X54.978Y-54.140
X55.931Y-52.261
X56.782Y-53.594
X56.934Y-52.578
X57.341Y-51.880
X57.341Y-53.162
X57.531Y-54.254
X63.932Y-50.229
X64.389Y-47.981
X67.196Y-47.701
X67.945Y-49.517
X68.199Y-56.502
X69.507Y-50.686
X70.028Y-50.165
T2
X42.151Y-50.470
X44.031Y-56.617
X44.298Y-52.324
X46.863Y-56.807
X49.479Y-56.794
X49.543Y-45.479
X51.803Y-49.682
X52.629Y-48.387
X54.978Y-48.387
X56.413Y-48.882
X58.763Y-55.690
X60.566Y-56.020
X61.735Y-48.641
X62.421Y-45.669
X63.043Y-47.943
X64.821Y-55.499
T3
X35.560Y-48.600
X35.560Y-53.000
T4
X40.640Y-43.053
X40.640Y-45.720
X40.640Y-48.260
X40.640Y-50.800
X40.640Y-53.340
X40.640Y-55.880
X40.640Y-58.293
X43.180Y-43.307
X43.180Y-58.547
X45.720Y-43.053
X45.720Y-58.400
X48.260Y-43.307
X48.260Y-58.547
X50.800Y-43.053
X50.800Y-58.293
X53.340Y-43.307
X53.340Y-58.547
X55.880Y-43.053
X55.880Y-58.547
X58.420Y-43.307
X58.420Y-58.547
X60.960Y-43.053
X60.960Y-58.293
X63.500Y-43.307
X63.500Y-58.547
X66.040Y-43.053
X66.040Y-58.293
X68.580Y-43.307
X68.580Y-58.547
X70.993Y-48.260
X70.993Y-53.340
X71.120Y-43.053
X71.120Y-58.547
X71.247Y-45.720
X71.247Y-50.800
X71.247Y-55.880
X73.533Y-48.260
X73.533Y-53.340
X73.660Y-43.307
X73.660Y-58.547
X73.787Y-45.720
X73.787Y-50.800
X73.787Y-55.880
T0
M30
