M48
METRIC,TZ
T1C0.300
T2C1.016
%
G90
G05
T1
X43.713Y-49.301
X44.450Y-47.269
X44.475Y-46.558
X45.060Y-49.809
X45.212Y-52.832
X45.517Y-55.270
X47.092Y-52.807
X47.498Y-46.914
X50.114Y-52.857
X52.527Y-48.717
X53.162Y-53.975
X55.855Y-48.565
X56.744Y-54.737
X57.277Y-55.270
X58.674Y-52.451
X60.020Y-47.955
X60.198Y-53.137
X62.662Y-46.609
X64.719Y-45.771
X65.507Y-52.070
X65.862Y-50.013
X66.116Y-53.569
X69.088Y-46.558
T2
X40.513Y-45.720
X40.513Y-50.800
X40.513Y-55.880
X40.640Y-43.053
X40.640Y-58.293
X40.767Y-48.260
X40.767Y-53.340
X43.180Y-43.307
X43.180Y-58.547
X45.720Y-43.053
X45.720Y-58.400
X48.260Y-43.307
X48.260Y-58.547
X50.800Y-43.053
X50.800Y-58.293
X53.340Y-43.307
X53.340Y-58.547
X55.880Y-43.053
X55.880Y-58.547
X58.420Y-43.307
X58.420Y-58.547
X60.960Y-43.053
X60.960Y-58.293
X63.500Y-43.307
X63.500Y-58.547
X66.040Y-43.053
X66.040Y-58.293
X68.580Y-43.307
X68.580Y-58.547
X70.993Y-48.260
X70.993Y-53.340
X71.120Y-43.053
X71.120Y-58.547
X71.247Y-45.720
X71.247Y-50.800
X71.247Y-55.880
X73.533Y-48.260
X73.533Y-53.340
X73.660Y-43.307
X73.660Y-58.547
X73.787Y-45.720
X73.787Y-50.800
X73.787Y-55.880
T0
M30
