G04 (created by PCBNEW-RS274X (2012-03-22 BZR 3475)-stable) date Wed 22 Aug 2012 12:05:57 PM CEST*
G01*
G70*
G90*
%MOIN*%
G04 Gerber Fmt 3.4, Leading zero omitted, Abs format*
%FSLAX34Y34*%
G04 APERTURE LIST*
%ADD10C,0.006000*%
%ADD11C,0.003900*%
%ADD12R,0.032800X0.032800*%
%ADD13R,0.023500X0.032800*%
%ADD14C,0.081800*%
%ADD15R,0.070800X0.031800*%
%ADD16R,0.066100X0.030800*%
%ADD17R,0.047200X0.052800*%
%ADD18R,0.052800X0.032800*%
%ADD19R,0.052800X0.043200*%
%ADD20R,0.062800X0.042800*%
%ADD21R,0.052800X0.047200*%
%ADD22R,0.037800X0.037800*%
%ADD23R,0.027800X0.037800*%
%ADD24R,0.086500X0.023500*%
%ADD25R,0.078600X0.082600*%
%ADD26R,0.035400X0.055000*%
%ADD27R,0.035400X0.086500*%
%ADD28R,0.094400X0.118100*%
%ADD29R,0.039800X0.055000*%
G04 APERTURE END LIST*
G54D10*
G54D11*
X15300Y-17630D02*
X15300Y-16300D01*
X15300Y-22374D02*
X15300Y-23700D01*
X29700Y-23700D02*
X15300Y-23700D01*
X29700Y-16300D02*
X29700Y-23700D01*
X15300Y-16300D02*
X29700Y-16300D01*
X10039Y-17630D02*
X15300Y-17630D01*
X10039Y-22374D02*
X15300Y-22374D01*
X10039Y-17630D02*
X10039Y-22374D01*
G54D12*
X14683Y-19890D03*
X15037Y-19890D03*
G54D13*
X14860Y-19890D03*
G54D12*
X14683Y-20690D03*
X15037Y-20690D03*
G54D13*
X14860Y-20690D03*
G54D14*
X28050Y-18000D03*
X27950Y-19000D03*
X28050Y-20000D03*
X27950Y-21000D03*
X28050Y-22000D03*
G54D15*
X19263Y-20650D03*
X19263Y-21150D03*
X19263Y-21650D03*
X19263Y-22150D03*
X17137Y-22150D03*
X17137Y-21650D03*
X17137Y-21150D03*
X17137Y-20650D03*
G54D16*
X20074Y-20650D03*
X20074Y-21150D03*
X20074Y-21650D03*
X20074Y-22150D03*
G54D17*
X21746Y-18200D03*
X22454Y-18200D03*
X22100Y-18200D03*
G54D14*
X16000Y-16950D03*
X17000Y-17050D03*
X18000Y-16950D03*
X19000Y-17050D03*
X20000Y-16950D03*
X21000Y-17050D03*
X22000Y-16950D03*
X23000Y-17050D03*
X24000Y-16950D03*
X25000Y-17050D03*
X26000Y-16950D03*
X27000Y-17050D03*
X28000Y-16950D03*
X29000Y-17050D03*
X16000Y-22950D03*
X17000Y-23050D03*
X18000Y-22992D03*
X19000Y-23050D03*
X20000Y-22950D03*
X21000Y-23050D03*
X22000Y-23050D03*
X23000Y-23050D03*
X24000Y-22950D03*
X25000Y-23050D03*
X26000Y-22950D03*
X27000Y-23050D03*
X28000Y-23050D03*
X29000Y-23050D03*
X29050Y-18000D03*
X28950Y-19000D03*
X29050Y-20000D03*
X28950Y-21000D03*
X29050Y-22000D03*
G54D18*
X22200Y-19600D03*
X22200Y-20200D03*
X23400Y-20400D03*
X23400Y-19800D03*
G54D19*
X23400Y-20100D03*
G54D20*
X23200Y-18125D03*
X23200Y-18875D03*
G54D18*
X20900Y-21500D03*
X20900Y-22100D03*
G54D21*
X20100Y-18346D03*
X20100Y-19054D03*
X20100Y-18700D03*
G54D12*
X14683Y-20290D03*
X15037Y-20290D03*
G54D13*
X14860Y-20290D03*
G54D22*
X25400Y-18700D03*
G54D14*
X15950Y-22000D03*
X16050Y-21000D03*
X15950Y-20000D03*
X16050Y-19000D03*
X15950Y-18000D03*
G54D22*
X24700Y-18700D03*
G54D20*
X20900Y-18325D03*
X20900Y-19075D03*
X17100Y-18025D03*
X17100Y-18775D03*
G54D22*
X22110Y-20670D03*
G54D23*
X21575Y-20600D03*
X20825Y-20600D03*
X21575Y-19600D03*
X21200Y-20600D03*
X20825Y-19600D03*
G54D24*
X11770Y-20000D03*
X11770Y-20255D03*
X11770Y-19489D03*
G54D25*
X10609Y-21574D03*
X10609Y-18426D03*
G54D24*
X11770Y-19745D03*
X11770Y-20511D03*
G54D26*
X19291Y-19548D03*
G54D27*
X18700Y-19391D03*
G54D26*
X18109Y-19548D03*
G54D28*
X18700Y-18446D03*
G54D29*
X18405Y-19548D03*
M02*
