G04 (created by PCBNEW-RS274X (2012-03-22 BZR 3475)-stable) date Wed 29 Aug 2012 11:50:49 PM CEST*
G01*
G70*
G90*
%MOIN*%
G04 Gerber Fmt 3.4, Leading zero omitted, Abs format*
%FSLAX34Y34*%
G04 APERTURE LIST*
%ADD10C,0.006000*%
%ADD11C,0.005900*%
%ADD12C,0.003900*%
%ADD13C,0.008000*%
%ADD14C,0.007800*%
%ADD15C,0.081800*%
%ADD16R,0.070700X0.098300*%
%ADD17R,0.035300X0.082800*%
%ADD18R,0.303000X0.066800*%
%ADD19R,0.263700X0.047100*%
%ADD20R,0.052800X0.032800*%
%ADD21R,0.032800X0.052800*%
%ADD22R,0.039200X0.039200*%
%ADD23R,0.017600X0.066800*%
%ADD24R,0.066800X0.017600*%
G04 APERTURE END LIST*
G54D10*
G54D11*
X22428Y-18443D02*
X22473Y-18089D01*
X22559Y-18342D01*
X22709Y-18089D01*
X22664Y-18443D01*
X23040Y-18410D02*
X23021Y-18426D01*
X22968Y-18443D01*
X22934Y-18443D01*
X22886Y-18426D01*
X22857Y-18393D01*
X22844Y-18359D01*
X22835Y-18292D01*
X22842Y-18241D01*
X22867Y-18174D01*
X22888Y-18140D01*
X22926Y-18106D01*
X22979Y-18089D01*
X23013Y-18089D01*
X23061Y-18106D01*
X23076Y-18123D01*
X23457Y-18443D02*
X23502Y-18089D01*
X23480Y-18258D02*
X23683Y-18258D01*
X23660Y-18443D02*
X23705Y-18089D01*
X24035Y-18410D02*
X24016Y-18426D01*
X23963Y-18443D01*
X23929Y-18443D01*
X23881Y-18426D01*
X23852Y-18393D01*
X23839Y-18359D01*
X23830Y-18292D01*
X23837Y-18241D01*
X23862Y-18174D01*
X23883Y-18140D01*
X23921Y-18106D01*
X23974Y-18089D01*
X24008Y-18089D01*
X24056Y-18106D01*
X24071Y-18123D01*
X24182Y-18443D02*
X24227Y-18089D01*
X24385Y-18443D02*
X24259Y-18241D01*
X24430Y-18089D02*
X24201Y-18292D01*
X24540Y-18410D02*
X24555Y-18426D01*
X24536Y-18443D01*
X24521Y-18426D01*
X24540Y-18410D01*
X24536Y-18443D01*
X24553Y-18308D02*
X24561Y-18106D01*
X24581Y-18089D01*
X24595Y-18106D01*
X24553Y-18308D01*
X24581Y-18089D01*
X15193Y-21265D02*
X14957Y-21235D01*
X14991Y-21239D02*
X14974Y-21220D01*
X14957Y-21184D01*
X14957Y-21134D01*
X14974Y-21102D01*
X15008Y-21090D01*
X15193Y-21113D01*
X15008Y-21090D02*
X14974Y-21068D01*
X14957Y-21032D01*
X14957Y-20982D01*
X14974Y-20950D01*
X15008Y-20938D01*
X15193Y-20961D01*
X15176Y-20639D02*
X15193Y-20675D01*
X15193Y-20742D01*
X15176Y-20774D01*
X15160Y-20789D01*
X15126Y-20801D01*
X15025Y-20789D01*
X14991Y-20767D01*
X14974Y-20748D01*
X14957Y-20712D01*
X14957Y-20645D01*
X14974Y-20613D01*
X15193Y-20490D02*
X14839Y-20445D01*
X15193Y-20338D02*
X15008Y-20315D01*
X14974Y-20327D01*
X14957Y-20359D01*
X14957Y-20409D01*
X14974Y-20445D01*
X14991Y-20464D01*
X15176Y-20016D02*
X15193Y-20052D01*
X15193Y-20119D01*
X15176Y-20151D01*
X15160Y-20166D01*
X15126Y-20178D01*
X15025Y-20166D01*
X14991Y-20144D01*
X14974Y-20125D01*
X14957Y-20089D01*
X14957Y-20022D01*
X14974Y-19990D01*
X15193Y-19867D02*
X14839Y-19822D01*
X15058Y-19816D02*
X15193Y-19732D01*
X14957Y-19702D02*
X15092Y-19854D01*
X15160Y-19576D02*
X15176Y-19561D01*
X15193Y-19580D01*
X15176Y-19595D01*
X15160Y-19576D01*
X15193Y-19580D01*
X15193Y-19360D02*
X15176Y-19392D01*
X15160Y-19407D01*
X15126Y-19419D01*
X15025Y-19407D01*
X14991Y-19385D01*
X14974Y-19366D01*
X14957Y-19330D01*
X14957Y-19280D01*
X14974Y-19248D01*
X14991Y-19233D01*
X15025Y-19221D01*
X15126Y-19233D01*
X15160Y-19255D01*
X15176Y-19274D01*
X15193Y-19310D01*
X15193Y-19360D01*
X15193Y-19091D02*
X14957Y-19061D01*
X15025Y-19070D02*
X14991Y-19048D01*
X14974Y-19029D01*
X14957Y-18993D01*
X14957Y-18960D01*
X14957Y-18690D02*
X15244Y-18726D01*
X15278Y-18747D01*
X15294Y-18766D01*
X15311Y-18802D01*
X15311Y-18853D01*
X15294Y-18884D01*
X15176Y-18718D02*
X15193Y-18754D01*
X15193Y-18821D01*
X15176Y-18853D01*
X15160Y-18868D01*
X15126Y-18880D01*
X15025Y-18868D01*
X14991Y-18846D01*
X14974Y-18827D01*
X14957Y-18791D01*
X14957Y-18724D01*
X14974Y-18692D01*
G54D12*
X15300Y-17630D02*
X15300Y-16300D01*
X15300Y-22374D02*
X15300Y-23700D01*
X29700Y-23700D02*
X15300Y-23700D01*
X29700Y-16300D02*
X29700Y-23700D01*
X15300Y-16300D02*
X29700Y-16300D01*
X10039Y-17630D02*
X15300Y-17630D01*
X10039Y-22374D02*
X15300Y-22374D01*
X10039Y-17630D02*
X10039Y-22374D01*
G54D11*
X27350Y-17900D02*
X27350Y-21500D01*
X27350Y-21500D02*
X25850Y-21500D01*
X25850Y-21500D02*
X25850Y-17900D01*
X25850Y-17900D02*
X27350Y-17900D01*
X24490Y-19710D02*
X23110Y-19710D01*
X23110Y-19710D02*
X23110Y-18890D01*
X23110Y-18890D02*
X24490Y-18890D01*
X24490Y-18890D02*
X24490Y-19710D01*
X17000Y-19900D02*
X17000Y-18900D01*
X17000Y-18900D02*
X17600Y-18900D01*
X17600Y-18900D02*
X17600Y-19900D01*
X17600Y-19900D02*
X17000Y-19900D01*
X17800Y-19900D02*
X17800Y-18900D01*
X17800Y-18900D02*
X18400Y-18900D01*
X18400Y-18900D02*
X18400Y-19900D01*
X18400Y-19900D02*
X17800Y-19900D01*
X18000Y-18900D02*
X17000Y-18900D01*
X17000Y-18900D02*
X17000Y-18300D01*
X17000Y-18300D02*
X18000Y-18300D01*
X18000Y-18300D02*
X18000Y-18900D01*
X18000Y-18300D02*
X17000Y-18300D01*
X17000Y-18300D02*
X17000Y-17700D01*
X17000Y-17700D02*
X18000Y-17700D01*
X18000Y-17700D02*
X18000Y-18300D01*
X18700Y-17700D02*
X18700Y-18700D01*
X18700Y-18700D02*
X18100Y-18700D01*
X18100Y-18700D02*
X18100Y-17700D01*
X18100Y-17700D02*
X18700Y-17700D01*
X19300Y-17700D02*
X19300Y-18700D01*
X19300Y-18700D02*
X18700Y-18700D01*
X18700Y-18700D02*
X18700Y-17700D01*
X18700Y-17700D02*
X19300Y-17700D01*
X23700Y-20300D02*
X23700Y-21300D01*
X23700Y-21300D02*
X23100Y-21300D01*
X23100Y-21300D02*
X23100Y-20300D01*
X23100Y-20300D02*
X23700Y-20300D01*
X25100Y-21300D02*
X25100Y-20300D01*
X25100Y-20300D02*
X25700Y-20300D01*
X25700Y-20300D02*
X25700Y-21300D01*
X25700Y-21300D02*
X25100Y-21300D01*
X24300Y-20300D02*
X24300Y-21300D01*
X24300Y-21300D02*
X23700Y-21300D01*
X23700Y-21300D02*
X23700Y-20300D01*
X23700Y-20300D02*
X24300Y-20300D01*
X24640Y-20860D02*
X24700Y-20740D01*
X24700Y-20740D02*
X24760Y-20860D01*
X24760Y-20860D02*
X24640Y-20860D01*
X24450Y-21325D02*
X24450Y-20275D01*
X24450Y-20275D02*
X24950Y-20275D01*
X24950Y-20275D02*
X24950Y-21325D01*
X24950Y-21325D02*
X24450Y-21325D01*
X19501Y-18780D02*
X19580Y-18701D01*
X19580Y-18701D02*
X22020Y-18701D01*
X22020Y-18701D02*
X22099Y-18780D01*
X22099Y-18780D02*
X22099Y-21220D01*
X22099Y-21220D02*
X22020Y-21299D01*
X19501Y-21220D02*
X19501Y-18780D01*
X22020Y-21299D02*
X19580Y-21299D01*
X19461Y-18780D02*
X19580Y-18661D01*
X19580Y-21339D02*
X19461Y-21220D01*
X22139Y-21220D02*
X22020Y-21339D01*
X22139Y-18780D02*
X22020Y-18661D01*
G54D13*
X22299Y-18308D02*
X22298Y-18315D01*
X22295Y-18323D01*
X22292Y-18330D01*
X22287Y-18336D01*
X22280Y-18341D01*
X22273Y-18345D01*
X22266Y-18348D01*
X22258Y-18348D01*
X22251Y-18348D01*
X22243Y-18346D01*
X22236Y-18342D01*
X22230Y-18337D01*
X22225Y-18331D01*
X22221Y-18324D01*
X22218Y-18316D01*
X22218Y-18308D01*
X22218Y-18301D01*
X22220Y-18293D01*
X22224Y-18286D01*
X22229Y-18280D01*
X22235Y-18275D01*
X22242Y-18271D01*
X22250Y-18268D01*
X22258Y-18268D01*
X22265Y-18268D01*
X22272Y-18270D01*
X22279Y-18274D01*
X22286Y-18279D01*
X22291Y-18285D01*
X22295Y-18292D01*
X22297Y-18299D01*
X22298Y-18307D01*
X22299Y-18308D01*
G54D14*
X21780Y-19056D02*
X21778Y-19066D01*
X21775Y-19076D01*
X21770Y-19086D01*
X21764Y-19094D01*
X21755Y-19101D01*
X21746Y-19106D01*
X21736Y-19109D01*
X21725Y-19110D01*
X21715Y-19110D01*
X21705Y-19106D01*
X21695Y-19102D01*
X21687Y-19095D01*
X21680Y-19087D01*
X21675Y-19077D01*
X21672Y-19067D01*
X21671Y-19056D01*
X21671Y-19047D01*
X21674Y-19036D01*
X21679Y-19027D01*
X21686Y-19018D01*
X21694Y-19011D01*
X21703Y-19006D01*
X21714Y-19003D01*
X21724Y-19002D01*
X21734Y-19002D01*
X21744Y-19005D01*
X21754Y-19010D01*
X21762Y-19017D01*
X21769Y-19025D01*
X21775Y-19034D01*
X21778Y-19044D01*
X21779Y-19055D01*
X21780Y-19056D01*
G54D11*
X26330Y-19826D02*
X26381Y-19843D01*
X26465Y-19843D01*
X26499Y-19826D01*
X26516Y-19810D01*
X26533Y-19776D01*
X26533Y-19742D01*
X26516Y-19708D01*
X26499Y-19692D01*
X26465Y-19675D01*
X26398Y-19658D01*
X26364Y-19641D01*
X26347Y-19624D01*
X26330Y-19590D01*
X26330Y-19557D01*
X26347Y-19523D01*
X26364Y-19506D01*
X26398Y-19489D01*
X26482Y-19489D01*
X26533Y-19506D01*
X26870Y-19843D02*
X26667Y-19843D01*
X26769Y-19843D02*
X26769Y-19489D01*
X26735Y-19540D01*
X26701Y-19574D01*
X26667Y-19590D01*
X24732Y-19275D02*
X24732Y-19443D01*
X24614Y-19089D02*
X24732Y-19275D01*
X24850Y-19089D01*
X25153Y-19443D02*
X24950Y-19443D01*
X25052Y-19443D02*
X25052Y-19089D01*
X25018Y-19140D01*
X24984Y-19174D01*
X24950Y-19190D01*
X17242Y-20343D02*
X17124Y-20175D01*
X17039Y-20343D02*
X17039Y-19989D01*
X17174Y-19989D01*
X17208Y-20006D01*
X17225Y-20023D01*
X17242Y-20057D01*
X17242Y-20107D01*
X17225Y-20141D01*
X17208Y-20158D01*
X17174Y-20175D01*
X17039Y-20175D01*
X17376Y-20023D02*
X17393Y-20006D01*
X17427Y-19989D01*
X17511Y-19989D01*
X17545Y-20006D01*
X17562Y-20023D01*
X17579Y-20057D01*
X17579Y-20090D01*
X17562Y-20141D01*
X17360Y-20343D01*
X17579Y-20343D01*
X18042Y-20343D02*
X17924Y-20175D01*
X17839Y-20343D02*
X17839Y-19989D01*
X17974Y-19989D01*
X18008Y-20006D01*
X18025Y-20023D01*
X18042Y-20057D01*
X18042Y-20107D01*
X18025Y-20141D01*
X18008Y-20158D01*
X17974Y-20175D01*
X17839Y-20175D01*
X18379Y-20343D02*
X18176Y-20343D01*
X18278Y-20343D02*
X18278Y-19989D01*
X18244Y-20040D01*
X18210Y-20074D01*
X18176Y-20090D01*
X16910Y-19058D02*
X16926Y-19075D01*
X16943Y-19126D01*
X16943Y-19160D01*
X16926Y-19210D01*
X16893Y-19244D01*
X16859Y-19261D01*
X16792Y-19278D01*
X16741Y-19278D01*
X16674Y-19261D01*
X16640Y-19244D01*
X16606Y-19210D01*
X16589Y-19160D01*
X16589Y-19126D01*
X16606Y-19075D01*
X16623Y-19058D01*
X16623Y-18924D02*
X16606Y-18907D01*
X16589Y-18873D01*
X16589Y-18789D01*
X16606Y-18755D01*
X16623Y-18738D01*
X16657Y-18721D01*
X16690Y-18721D01*
X16741Y-18738D01*
X16943Y-18940D01*
X16943Y-18721D01*
X16910Y-18358D02*
X16926Y-18375D01*
X16943Y-18426D01*
X16943Y-18460D01*
X16926Y-18510D01*
X16893Y-18544D01*
X16859Y-18561D01*
X16792Y-18578D01*
X16741Y-18578D01*
X16674Y-18561D01*
X16640Y-18544D01*
X16606Y-18510D01*
X16589Y-18460D01*
X16589Y-18426D01*
X16606Y-18375D01*
X16623Y-18358D01*
X16589Y-18055D02*
X16589Y-18122D01*
X16606Y-18156D01*
X16623Y-18173D01*
X16674Y-18207D01*
X16741Y-18224D01*
X16876Y-18224D01*
X16910Y-18207D01*
X16926Y-18190D01*
X16943Y-18156D01*
X16943Y-18089D01*
X16926Y-18055D01*
X16910Y-18038D01*
X16876Y-18021D01*
X16792Y-18021D01*
X16758Y-18038D01*
X16741Y-18055D01*
X16724Y-18089D01*
X16724Y-18156D01*
X16741Y-18190D01*
X16758Y-18207D01*
X16792Y-18224D01*
X19642Y-17810D02*
X19625Y-17826D01*
X19574Y-17843D01*
X19540Y-17843D01*
X19490Y-17826D01*
X19456Y-17793D01*
X19439Y-17759D01*
X19422Y-17692D01*
X19422Y-17641D01*
X19439Y-17574D01*
X19456Y-17540D01*
X19490Y-17506D01*
X19540Y-17489D01*
X19574Y-17489D01*
X19625Y-17506D01*
X19642Y-17523D01*
X19979Y-17843D02*
X19776Y-17843D01*
X19878Y-17843D02*
X19878Y-17489D01*
X19844Y-17540D01*
X19810Y-17574D01*
X19776Y-17590D01*
X20342Y-17810D02*
X20325Y-17826D01*
X20274Y-17843D01*
X20240Y-17843D01*
X20190Y-17826D01*
X20156Y-17793D01*
X20139Y-17759D01*
X20122Y-17692D01*
X20122Y-17641D01*
X20139Y-17574D01*
X20156Y-17540D01*
X20190Y-17506D01*
X20240Y-17489D01*
X20274Y-17489D01*
X20325Y-17506D01*
X20342Y-17523D01*
X20460Y-17489D02*
X20679Y-17489D01*
X20561Y-17624D01*
X20611Y-17624D01*
X20645Y-17641D01*
X20662Y-17658D01*
X20679Y-17692D01*
X20679Y-17776D01*
X20662Y-17810D01*
X20645Y-17826D01*
X20611Y-17843D01*
X20510Y-17843D01*
X20476Y-17826D01*
X20460Y-17810D01*
X23342Y-20210D02*
X23325Y-20226D01*
X23274Y-20243D01*
X23240Y-20243D01*
X23190Y-20226D01*
X23156Y-20193D01*
X23139Y-20159D01*
X23122Y-20092D01*
X23122Y-20041D01*
X23139Y-19974D01*
X23156Y-19940D01*
X23190Y-19906D01*
X23240Y-19889D01*
X23274Y-19889D01*
X23325Y-19906D01*
X23342Y-19923D01*
X23645Y-20007D02*
X23645Y-20243D01*
X23561Y-19872D02*
X23476Y-20125D01*
X23696Y-20125D01*
X25342Y-20210D02*
X25325Y-20226D01*
X25274Y-20243D01*
X25240Y-20243D01*
X25190Y-20226D01*
X25156Y-20193D01*
X25139Y-20159D01*
X25122Y-20092D01*
X25122Y-20041D01*
X25139Y-19974D01*
X25156Y-19940D01*
X25190Y-19906D01*
X25240Y-19889D01*
X25274Y-19889D01*
X25325Y-19906D01*
X25342Y-19923D01*
X25662Y-19889D02*
X25493Y-19889D01*
X25476Y-20058D01*
X25493Y-20041D01*
X25527Y-20024D01*
X25611Y-20024D01*
X25645Y-20041D01*
X25662Y-20058D01*
X25679Y-20092D01*
X25679Y-20176D01*
X25662Y-20210D01*
X25645Y-20226D01*
X25611Y-20243D01*
X25527Y-20243D01*
X25493Y-20226D01*
X25476Y-20210D01*
X23942Y-20243D02*
X23824Y-20075D01*
X23739Y-20243D02*
X23739Y-19889D01*
X23874Y-19889D01*
X23908Y-19906D01*
X23925Y-19923D01*
X23942Y-19957D01*
X23942Y-20007D01*
X23925Y-20041D01*
X23908Y-20058D01*
X23874Y-20075D01*
X23739Y-20075D01*
X24245Y-20007D02*
X24245Y-20243D01*
X24161Y-19872D02*
X24076Y-20125D01*
X24296Y-20125D01*
X24439Y-20243D02*
X24439Y-19889D01*
X24524Y-19889D01*
X24574Y-19906D01*
X24608Y-19940D01*
X24625Y-19974D01*
X24642Y-20041D01*
X24642Y-20092D01*
X24625Y-20159D01*
X24608Y-20193D01*
X24574Y-20226D01*
X24524Y-20243D01*
X24439Y-20243D01*
X24979Y-20243D02*
X24776Y-20243D01*
X24878Y-20243D02*
X24878Y-19889D01*
X24844Y-19940D01*
X24810Y-19974D01*
X24776Y-19990D01*
X20530Y-19789D02*
X20530Y-20076D01*
X20547Y-20110D01*
X20564Y-20126D01*
X20598Y-20143D01*
X20665Y-20143D01*
X20699Y-20126D01*
X20716Y-20110D01*
X20733Y-20076D01*
X20733Y-19789D01*
X21087Y-20143D02*
X20884Y-20143D01*
X20986Y-20143D02*
X20986Y-19789D01*
X20952Y-19840D01*
X20918Y-19874D01*
X20884Y-19890D01*
%LPC*%
G54D15*
X28050Y-18000D03*
X27950Y-19000D03*
X28050Y-20000D03*
X27950Y-21000D03*
X28050Y-22000D03*
X29050Y-18000D03*
X28950Y-19000D03*
X29050Y-20000D03*
X28950Y-21000D03*
X29050Y-22000D03*
X16000Y-16950D03*
X17000Y-17050D03*
X18000Y-16950D03*
X19000Y-17050D03*
X20000Y-16950D03*
X21000Y-17050D03*
X22000Y-16950D03*
X23000Y-17050D03*
X24000Y-16950D03*
X25000Y-17050D03*
X26000Y-16950D03*
X27000Y-17050D03*
X28000Y-16950D03*
X29000Y-17050D03*
X16000Y-23050D03*
X17000Y-22950D03*
X18000Y-23050D03*
X19000Y-22950D03*
X20000Y-23050D03*
X21000Y-22950D03*
X22000Y-23050D03*
X23000Y-22950D03*
X24000Y-23050D03*
X25000Y-22950D03*
X26000Y-23050D03*
X27000Y-22950D03*
X28000Y-23050D03*
X29000Y-22950D03*
G54D16*
X26600Y-18460D03*
X26600Y-20940D03*
G54D17*
X24272Y-19300D03*
X23800Y-19300D03*
X23328Y-19300D03*
G54D18*
X11930Y-21377D03*
X11930Y-18623D03*
G54D19*
X12126Y-20393D03*
X12126Y-19607D03*
G54D20*
X17300Y-19700D03*
X17300Y-19100D03*
X18100Y-19700D03*
X18100Y-19100D03*
G54D21*
X17800Y-18600D03*
X17200Y-18600D03*
X17800Y-18000D03*
X17200Y-18000D03*
G54D20*
X18400Y-17900D03*
X18400Y-18500D03*
X19000Y-17900D03*
X19000Y-18500D03*
X23400Y-20500D03*
X23400Y-21100D03*
X25400Y-21100D03*
X25400Y-20500D03*
X24000Y-20500D03*
X24000Y-21100D03*
G54D22*
X24700Y-21095D03*
X24700Y-20505D03*
G54D23*
X21882Y-18308D03*
X21685Y-18308D03*
X21488Y-18308D03*
X21292Y-18308D03*
X21095Y-18308D03*
X20898Y-18308D03*
X20702Y-18308D03*
X20505Y-18308D03*
X20308Y-18308D03*
X20112Y-18308D03*
X19915Y-18308D03*
X19718Y-18308D03*
G54D24*
X19108Y-18918D03*
X19108Y-19115D03*
X19108Y-19312D03*
X19108Y-19508D03*
X19108Y-19705D03*
X19108Y-19902D03*
X19108Y-20098D03*
X19108Y-20295D03*
X19108Y-20492D03*
X19108Y-20688D03*
X19108Y-20885D03*
X19108Y-21082D03*
G54D23*
X19718Y-21692D03*
X19915Y-21692D03*
X20112Y-21692D03*
X20308Y-21692D03*
X20505Y-21692D03*
X20702Y-21692D03*
X20898Y-21692D03*
X21095Y-21692D03*
X21292Y-21692D03*
X21488Y-21692D03*
X21685Y-21692D03*
X21882Y-21692D03*
G54D24*
X22492Y-21082D03*
X22492Y-20885D03*
X22492Y-20688D03*
X22492Y-20492D03*
X22492Y-20295D03*
X22492Y-20098D03*
X22492Y-19902D03*
X22492Y-19705D03*
X22492Y-19508D03*
X22492Y-19312D03*
X22492Y-19115D03*
X22492Y-18918D03*
G54D15*
X15950Y-22000D03*
X16050Y-21000D03*
X15950Y-20000D03*
X16015Y-18960D03*
X15985Y-18040D03*
M02*
