G04 (created by PCBNEW-RS274X (2012-03-22 BZR 3475)-stable) date Sat Sep  8 15:23:55 2012*
G01*
G70*
G90*
%MOIN*%
G04 Gerber Fmt 3.4, Leading zero omitted, Abs format*
%FSLAX34Y34*%
G04 APERTURE LIST*
%ADD10C,0.006000*%
%ADD11C,0.011800*%
%ADD12C,0.012000*%
%ADD13C,0.003900*%
G04 APERTURE END LIST*
G54D10*
G54D11*
X17705Y-13061D02*
X17705Y-13586D01*
X17564Y-12762D02*
X17424Y-13324D01*
X17789Y-13324D01*
X18043Y-13586D02*
X18155Y-13586D01*
X18212Y-13549D01*
X18240Y-13511D01*
X18296Y-13399D01*
X18324Y-13249D01*
X18324Y-12949D01*
X18296Y-12874D01*
X18268Y-12837D01*
X18212Y-12799D01*
X18099Y-12799D01*
X18043Y-12837D01*
X18015Y-12874D01*
X17987Y-12949D01*
X17987Y-13136D01*
X18015Y-13211D01*
X18043Y-13249D01*
X18099Y-13286D01*
X18212Y-13286D01*
X18268Y-13249D01*
X18296Y-13211D01*
X18324Y-13136D01*
X18578Y-13511D02*
X18606Y-13549D01*
X18578Y-13586D01*
X18550Y-13549D01*
X18578Y-13511D01*
X18578Y-13586D01*
X18887Y-13586D02*
X18999Y-13586D01*
X19056Y-13549D01*
X19084Y-13511D01*
X19140Y-13399D01*
X19168Y-13249D01*
X19168Y-12949D01*
X19140Y-12874D01*
X19112Y-12837D01*
X19056Y-12799D01*
X18943Y-12799D01*
X18887Y-12837D01*
X18859Y-12874D01*
X18831Y-12949D01*
X18831Y-13136D01*
X18859Y-13211D01*
X18887Y-13249D01*
X18943Y-13286D01*
X19056Y-13286D01*
X19112Y-13249D01*
X19140Y-13211D01*
X19168Y-13136D01*
X19703Y-12799D02*
X19422Y-12799D01*
X19394Y-13174D01*
X19422Y-13136D01*
X19478Y-13099D01*
X19619Y-13099D01*
X19675Y-13136D01*
X19703Y-13174D01*
X19731Y-13249D01*
X19731Y-13436D01*
X19703Y-13511D01*
X19675Y-13549D01*
X19619Y-13586D01*
X19478Y-13586D01*
X19422Y-13549D01*
X19394Y-13511D01*
X19957Y-12874D02*
X19985Y-12837D01*
X20041Y-12799D01*
X20182Y-12799D01*
X20238Y-12837D01*
X20266Y-12874D01*
X20294Y-12949D01*
X20294Y-13024D01*
X20266Y-13136D01*
X19928Y-13586D01*
X20294Y-13586D01*
X20998Y-13586D02*
X20998Y-13061D01*
X20998Y-13136D02*
X21026Y-13099D01*
X21082Y-13061D01*
X21167Y-13061D01*
X21223Y-13099D01*
X21251Y-13174D01*
X21251Y-13586D01*
X21251Y-13174D02*
X21279Y-13099D01*
X21335Y-13061D01*
X21420Y-13061D01*
X21476Y-13099D01*
X21504Y-13174D01*
X21504Y-13586D01*
X21786Y-13586D02*
X21786Y-13061D01*
X21786Y-13136D02*
X21814Y-13099D01*
X21870Y-13061D01*
X21955Y-13061D01*
X22011Y-13099D01*
X22039Y-13174D01*
X22039Y-13586D01*
X22039Y-13174D02*
X22067Y-13099D01*
X22123Y-13061D01*
X22208Y-13061D01*
X22264Y-13099D01*
X22292Y-13174D01*
X22292Y-13586D01*
X10039Y-14017D02*
X29705Y-14017D01*
X10039Y-17638D02*
X10039Y-13465D01*
X29705Y-17638D02*
X29705Y-13465D01*
X29705Y-14017D02*
X29262Y-14247D01*
X29705Y-14017D02*
X29262Y-13787D01*
X10039Y-14017D02*
X10482Y-14247D01*
X10039Y-14017D02*
X10482Y-13787D01*
G54D12*
X19986Y-25467D02*
X20357Y-25467D01*
X20158Y-25772D01*
X20244Y-25772D01*
X20301Y-25810D01*
X20330Y-25848D01*
X20358Y-25924D01*
X20358Y-26114D01*
X20330Y-26191D01*
X20302Y-26229D01*
X20245Y-26267D01*
X20073Y-26267D01*
X20016Y-26229D01*
X19987Y-26191D01*
X20871Y-25466D02*
X20757Y-25466D01*
X20700Y-25504D01*
X20671Y-25542D01*
X20615Y-25656D01*
X20586Y-25809D01*
X20586Y-26113D01*
X20615Y-26190D01*
X20644Y-26228D01*
X20702Y-26266D01*
X20816Y-26266D01*
X20873Y-26228D01*
X20901Y-26190D01*
X20929Y-26113D01*
X20929Y-25923D01*
X20901Y-25847D01*
X20872Y-25809D01*
X20815Y-25771D01*
X20701Y-25771D01*
X20643Y-25809D01*
X20615Y-25847D01*
X20586Y-25923D01*
X21186Y-26189D02*
X21215Y-26227D01*
X21187Y-26265D01*
X21158Y-26227D01*
X21186Y-26189D01*
X21187Y-26265D01*
X21757Y-25464D02*
X21471Y-25465D01*
X21443Y-25846D01*
X21472Y-25808D01*
X21529Y-25770D01*
X21672Y-25769D01*
X21729Y-25807D01*
X21758Y-25845D01*
X21786Y-25921D01*
X21786Y-26111D01*
X21758Y-26188D01*
X21730Y-26226D01*
X21673Y-26264D01*
X21530Y-26265D01*
X21473Y-26227D01*
X21443Y-26189D01*
X21985Y-25464D02*
X22385Y-25463D01*
X22130Y-26264D01*
X22870Y-25462D02*
X22756Y-25463D01*
X22699Y-25501D01*
X22670Y-25539D01*
X22614Y-25653D01*
X22585Y-25806D01*
X22585Y-26110D01*
X22614Y-26187D01*
X22642Y-26225D01*
X22701Y-26263D01*
X22815Y-26262D01*
X22871Y-26224D01*
X22900Y-26186D01*
X22928Y-26109D01*
X22928Y-25919D01*
X22900Y-25843D01*
X22871Y-25805D01*
X22814Y-25767D01*
X22700Y-25768D01*
X22642Y-25806D01*
X22614Y-25844D01*
X22585Y-25920D01*
X23643Y-26261D02*
X23642Y-25727D01*
X23642Y-25804D02*
X23670Y-25766D01*
X23728Y-25727D01*
X23813Y-25727D01*
X23870Y-25766D01*
X23899Y-25842D01*
X23900Y-26261D01*
X23899Y-25842D02*
X23928Y-25766D01*
X23985Y-25726D01*
X24070Y-25726D01*
X24128Y-25765D01*
X24156Y-25841D01*
X24157Y-26260D01*
X24443Y-26260D02*
X24442Y-25726D01*
X24442Y-25803D02*
X24470Y-25765D01*
X24528Y-25725D01*
X24613Y-25725D01*
X24670Y-25764D01*
X24699Y-25840D01*
X24700Y-26259D01*
X24699Y-25840D02*
X24728Y-25764D01*
X24785Y-25725D01*
X24870Y-25725D01*
X24928Y-25764D01*
X24956Y-25840D01*
X24957Y-26259D01*
X29700Y-25299D02*
X15300Y-25299D01*
X29700Y-23700D02*
X29700Y-26579D01*
X15300Y-23700D02*
X15300Y-26579D01*
X15300Y-25299D02*
X15743Y-25069D01*
X15300Y-25299D02*
X15743Y-25529D01*
X29700Y-25299D02*
X29257Y-25069D01*
X29700Y-25299D02*
X29257Y-25529D01*
X31911Y-17859D02*
X31911Y-17516D01*
X31911Y-17688D02*
X32711Y-17686D01*
X32597Y-17629D01*
X32521Y-17572D01*
X32483Y-17515D01*
X32369Y-18201D02*
X32407Y-18143D01*
X32446Y-18115D01*
X32522Y-18086D01*
X32560Y-18085D01*
X32636Y-18114D01*
X32674Y-18142D01*
X32712Y-18200D01*
X32712Y-18314D01*
X32674Y-18371D01*
X32636Y-18400D01*
X32560Y-18428D01*
X32522Y-18429D01*
X32446Y-18401D01*
X32407Y-18372D01*
X32369Y-18315D01*
X32369Y-18201D01*
X32331Y-18143D01*
X32293Y-18115D01*
X32217Y-18086D01*
X32065Y-18086D01*
X31988Y-18115D01*
X31950Y-18144D01*
X31912Y-18202D01*
X31912Y-18316D01*
X31950Y-18373D01*
X31988Y-18401D01*
X32065Y-18429D01*
X32217Y-18429D01*
X32293Y-18401D01*
X32331Y-18372D01*
X32369Y-18315D01*
X31989Y-18686D02*
X31951Y-18715D01*
X31913Y-18687D01*
X31951Y-18658D01*
X31989Y-18686D01*
X31913Y-18687D01*
X32713Y-18914D02*
X32714Y-19314D01*
X31913Y-19059D01*
X31914Y-19572D02*
X31914Y-19687D01*
X31953Y-19743D01*
X31991Y-19771D01*
X32106Y-19829D01*
X32258Y-19857D01*
X32563Y-19856D01*
X32639Y-19828D01*
X32677Y-19799D01*
X32715Y-19742D01*
X32714Y-19628D01*
X32676Y-19570D01*
X32638Y-19542D01*
X32562Y-19513D01*
X32371Y-19514D01*
X32295Y-19543D01*
X32257Y-19571D01*
X32219Y-19629D01*
X32220Y-19743D01*
X32258Y-19800D01*
X32296Y-19829D01*
X32372Y-19857D01*
X32716Y-20370D02*
X32715Y-20256D01*
X32677Y-20199D01*
X32639Y-20170D01*
X32525Y-20114D01*
X32372Y-20085D01*
X32068Y-20085D01*
X31991Y-20114D01*
X31953Y-20142D01*
X31915Y-20201D01*
X31916Y-20315D01*
X31954Y-20371D01*
X31992Y-20400D01*
X32069Y-20428D01*
X32259Y-20428D01*
X32335Y-20400D01*
X32373Y-20371D01*
X32411Y-20314D01*
X32410Y-20200D01*
X32372Y-20142D01*
X32334Y-20114D01*
X32258Y-20085D01*
X31917Y-21143D02*
X32451Y-21142D01*
X32374Y-21142D02*
X32412Y-21170D01*
X32451Y-21228D01*
X32451Y-21313D01*
X32412Y-21370D01*
X32336Y-21399D01*
X31917Y-21400D01*
X32336Y-21399D02*
X32412Y-21428D01*
X32452Y-21485D01*
X32452Y-21570D01*
X32413Y-21628D01*
X32337Y-21656D01*
X31918Y-21657D01*
X31918Y-21943D02*
X32452Y-21942D01*
X32375Y-21942D02*
X32413Y-21970D01*
X32453Y-22028D01*
X32453Y-22113D01*
X32414Y-22170D01*
X32338Y-22199D01*
X31919Y-22200D01*
X32338Y-22199D02*
X32414Y-22228D01*
X32453Y-22285D01*
X32453Y-22370D01*
X32414Y-22428D01*
X32338Y-22456D01*
X31919Y-22457D01*
X31599Y-16300D02*
X31599Y-23700D01*
X29700Y-16300D02*
X32879Y-16300D01*
X29700Y-23700D02*
X32879Y-23700D01*
X31599Y-23700D02*
X31369Y-23257D01*
X31599Y-23700D02*
X31829Y-23257D01*
X31599Y-16300D02*
X31369Y-16743D01*
X31599Y-16300D02*
X31829Y-16743D01*
G54D13*
X15300Y-17630D02*
X15300Y-16300D01*
X15300Y-22374D02*
X15300Y-23700D01*
X29700Y-23700D02*
X15300Y-23700D01*
X29700Y-16300D02*
X29700Y-23700D01*
X15300Y-16300D02*
X29700Y-16300D01*
X10039Y-17630D02*
X15300Y-17630D01*
X10039Y-22374D02*
X15300Y-22374D01*
X10039Y-17630D02*
X10039Y-22374D01*
G54D12*
X10204Y-15878D02*
X09861Y-15878D01*
X10033Y-15878D02*
X10033Y-15078D01*
X09976Y-15192D01*
X09918Y-15268D01*
X09861Y-15306D01*
X10775Y-15878D02*
X10432Y-15878D01*
X10604Y-15878D02*
X10604Y-15078D01*
X10547Y-15192D01*
X10489Y-15268D01*
X10432Y-15306D01*
X11032Y-15802D02*
X11060Y-15840D01*
X11032Y-15878D01*
X11003Y-15840D01*
X11032Y-15802D01*
X11032Y-15878D01*
X11261Y-15078D02*
X11661Y-15078D01*
X11404Y-15878D01*
X11917Y-15878D02*
X12032Y-15878D01*
X12089Y-15840D01*
X12117Y-15802D01*
X12175Y-15687D01*
X12203Y-15535D01*
X12203Y-15230D01*
X12175Y-15154D01*
X12146Y-15116D01*
X12089Y-15078D01*
X11975Y-15078D01*
X11917Y-15116D01*
X11889Y-15154D01*
X11860Y-15230D01*
X11860Y-15421D01*
X11889Y-15497D01*
X11917Y-15535D01*
X11975Y-15573D01*
X12089Y-15573D01*
X12146Y-15535D01*
X12175Y-15497D01*
X12203Y-15421D01*
X12546Y-15421D02*
X12488Y-15383D01*
X12460Y-15344D01*
X12431Y-15268D01*
X12431Y-15230D01*
X12460Y-15154D01*
X12488Y-15116D01*
X12546Y-15078D01*
X12660Y-15078D01*
X12717Y-15116D01*
X12746Y-15154D01*
X12774Y-15230D01*
X12774Y-15268D01*
X12746Y-15344D01*
X12717Y-15383D01*
X12660Y-15421D01*
X12546Y-15421D01*
X12488Y-15459D01*
X12460Y-15497D01*
X12431Y-15573D01*
X12431Y-15725D01*
X12460Y-15802D01*
X12488Y-15840D01*
X12546Y-15878D01*
X12660Y-15878D01*
X12717Y-15840D01*
X12746Y-15802D01*
X12774Y-15725D01*
X12774Y-15573D01*
X12746Y-15497D01*
X12717Y-15459D01*
X12660Y-15421D01*
X13488Y-15878D02*
X13488Y-15344D01*
X13488Y-15421D02*
X13516Y-15383D01*
X13574Y-15344D01*
X13659Y-15344D01*
X13716Y-15383D01*
X13745Y-15459D01*
X13745Y-15878D01*
X13745Y-15459D02*
X13774Y-15383D01*
X13831Y-15344D01*
X13916Y-15344D01*
X13974Y-15383D01*
X14002Y-15459D01*
X14002Y-15878D01*
X14288Y-15878D02*
X14288Y-15344D01*
X14288Y-15421D02*
X14316Y-15383D01*
X14374Y-15344D01*
X14459Y-15344D01*
X14516Y-15383D01*
X14545Y-15459D01*
X14545Y-15878D01*
X14545Y-15459D02*
X14574Y-15383D01*
X14631Y-15344D01*
X14716Y-15344D01*
X14774Y-15383D01*
X14802Y-15459D01*
X14802Y-15878D01*
X10024Y-16194D02*
X14669Y-16194D01*
X10024Y-17650D02*
X10024Y-14914D01*
X14669Y-17650D02*
X14669Y-14914D01*
X14669Y-16194D02*
X14226Y-16424D01*
X14669Y-16194D02*
X14226Y-15964D01*
X10024Y-16194D02*
X10467Y-16424D01*
X10024Y-16194D02*
X10467Y-15964D01*
X08050Y-22135D02*
X08050Y-22478D01*
X08050Y-22306D02*
X07250Y-22304D01*
X07364Y-22361D01*
X07440Y-22419D01*
X07478Y-22477D01*
X07327Y-21905D02*
X07289Y-21876D01*
X07251Y-21819D01*
X07251Y-21676D01*
X07289Y-21619D01*
X07327Y-21590D01*
X07403Y-21562D01*
X07479Y-21563D01*
X07594Y-21591D01*
X08051Y-21935D01*
X08051Y-21564D01*
X07976Y-21306D02*
X08014Y-21278D01*
X08052Y-21307D01*
X08014Y-21335D01*
X07976Y-21306D01*
X08052Y-21307D01*
X08053Y-20707D02*
X08052Y-21050D01*
X08052Y-20878D02*
X07252Y-20876D01*
X07366Y-20933D01*
X07442Y-20991D01*
X07480Y-21049D01*
X07253Y-20334D02*
X07254Y-20277D01*
X07292Y-20220D01*
X07330Y-20191D01*
X07406Y-20162D01*
X07559Y-20135D01*
X07749Y-20135D01*
X07901Y-20163D01*
X07978Y-20192D01*
X08016Y-20221D01*
X08054Y-20279D01*
X08053Y-20336D01*
X08015Y-20392D01*
X07977Y-20421D01*
X07900Y-20449D01*
X07748Y-20478D01*
X07558Y-20478D01*
X07405Y-20448D01*
X07329Y-20420D01*
X07291Y-20391D01*
X07253Y-20334D01*
X08055Y-19565D02*
X08054Y-19908D01*
X08054Y-19736D02*
X07254Y-19734D01*
X07368Y-19791D01*
X07444Y-19850D01*
X07482Y-19907D01*
X08056Y-18851D02*
X07522Y-18850D01*
X07599Y-18850D02*
X07561Y-18822D01*
X07522Y-18764D01*
X07522Y-18679D01*
X07561Y-18622D01*
X07637Y-18593D01*
X08056Y-18594D01*
X07637Y-18593D02*
X07561Y-18564D01*
X07523Y-18507D01*
X07523Y-18422D01*
X07562Y-18364D01*
X07638Y-18336D01*
X08057Y-18337D01*
X08057Y-18051D02*
X07523Y-18050D01*
X07600Y-18050D02*
X07562Y-18022D01*
X07524Y-17964D01*
X07524Y-17879D01*
X07563Y-17822D01*
X07639Y-17793D01*
X08058Y-17794D01*
X07639Y-17793D02*
X07563Y-17764D01*
X07524Y-17707D01*
X07524Y-17622D01*
X07563Y-17564D01*
X07639Y-17536D01*
X08058Y-17537D01*
X08370Y-22374D02*
X08370Y-17610D01*
X10024Y-22374D02*
X07090Y-22374D01*
X10024Y-17610D02*
X07090Y-17610D01*
X08370Y-17610D02*
X08600Y-18053D01*
X08370Y-17610D02*
X08140Y-18053D01*
X08370Y-22374D02*
X08600Y-21931D01*
X08370Y-22374D02*
X08140Y-21931D01*
M02*
