G04 (created by PCBNEW-RS274X (2012-03-22 BZR 3475)-stable) date Thu Sep  6 17:48:52 2012*
G01*
G70*
G90*
%MOIN*%
G04 Gerber Fmt 3.4, Leading zero omitted, Abs format*
%FSLAX34Y34*%
G04 APERTURE LIST*
%ADD10C,0.006000*%
%ADD11C,0.003900*%
%ADD12C,0.005900*%
%ADD13C,0.074000*%
%ADD14R,0.295200X0.059000*%
%ADD15R,0.255900X0.039300*%
%ADD16R,0.025000X0.045000*%
%ADD17R,0.031400X0.031400*%
%ADD18R,0.059000X0.009800*%
%ADD19R,0.009800X0.059000*%
%ADD20R,0.045000X0.025000*%
%ADD21R,0.039400X0.066900*%
%ADD22C,0.021700*%
%ADD23C,0.011800*%
G04 APERTURE END LIST*
G54D10*
G54D11*
X15300Y-17630D02*
X15300Y-16300D01*
X15300Y-22374D02*
X15300Y-23700D01*
X29700Y-23700D02*
X15300Y-23700D01*
X29700Y-16300D02*
X29700Y-23700D01*
X15300Y-16300D02*
X29700Y-16300D01*
X10039Y-17630D02*
X15300Y-17630D01*
X10039Y-22374D02*
X15300Y-22374D01*
X10039Y-17630D02*
X10039Y-22374D01*
G54D12*
X17100Y-18303D02*
X17100Y-18697D01*
G54D13*
X28050Y-18000D03*
X27950Y-19000D03*
X28050Y-20000D03*
X27950Y-21000D03*
X28050Y-22000D03*
X29050Y-18000D03*
X28950Y-19000D03*
X29050Y-20000D03*
X28950Y-21000D03*
X29050Y-22000D03*
X16000Y-17050D03*
X17000Y-16950D03*
X18000Y-17050D03*
X19000Y-16950D03*
X20000Y-17050D03*
X21000Y-16950D03*
X22000Y-17050D03*
X23000Y-16950D03*
X24000Y-17050D03*
X25000Y-16950D03*
X26000Y-17050D03*
X27000Y-16950D03*
X28000Y-17050D03*
X29000Y-16950D03*
X16000Y-23050D03*
X17000Y-22950D03*
X18000Y-23050D03*
X19000Y-22950D03*
X20000Y-23050D03*
X21000Y-22950D03*
X22000Y-23050D03*
X23000Y-22950D03*
X24000Y-23050D03*
X25000Y-22950D03*
X26000Y-23050D03*
X27000Y-22950D03*
X28000Y-23050D03*
X29000Y-22950D03*
G54D14*
X11930Y-21377D03*
X11930Y-18623D03*
G54D15*
X12126Y-20393D03*
X12126Y-19607D03*
G54D16*
X16900Y-19500D03*
X17500Y-19500D03*
X16900Y-20100D03*
X17500Y-20100D03*
X18700Y-18300D03*
X18100Y-18300D03*
X17500Y-20700D03*
X16900Y-20700D03*
X21900Y-21700D03*
X22500Y-21700D03*
X18700Y-21700D03*
X18100Y-21700D03*
X26800Y-18500D03*
X26200Y-18500D03*
X24600Y-18600D03*
X25200Y-18600D03*
G54D17*
X23305Y-18600D03*
X23895Y-18600D03*
G54D18*
X18608Y-18918D03*
X18608Y-19115D03*
X18608Y-19312D03*
X18608Y-19508D03*
X18608Y-19705D03*
X18608Y-19902D03*
X18608Y-20098D03*
X18608Y-20295D03*
X18608Y-20492D03*
X18608Y-20688D03*
X18608Y-20885D03*
X18608Y-21082D03*
G54D19*
X19218Y-21692D03*
X19415Y-21692D03*
X19612Y-21692D03*
X19808Y-21692D03*
X20005Y-21692D03*
X20202Y-21692D03*
X20398Y-21692D03*
X20595Y-21692D03*
X20792Y-21692D03*
X20988Y-21692D03*
X21185Y-21692D03*
X21382Y-21692D03*
G54D18*
X21992Y-21082D03*
X21992Y-20885D03*
X21992Y-20688D03*
X21992Y-20492D03*
X21992Y-20295D03*
X21992Y-20098D03*
X21992Y-19902D03*
X21992Y-19705D03*
X21992Y-19508D03*
X21992Y-19312D03*
X21992Y-19115D03*
X21992Y-18918D03*
G54D19*
X21382Y-18308D03*
X21185Y-18308D03*
X20988Y-18308D03*
X20792Y-18308D03*
X20595Y-18308D03*
X20398Y-18308D03*
X20202Y-18308D03*
X20005Y-18308D03*
X19808Y-18308D03*
X19612Y-18308D03*
X19415Y-18308D03*
X19218Y-18308D03*
G54D13*
X15950Y-22000D03*
X16050Y-21000D03*
X15950Y-20000D03*
X16015Y-18960D03*
X15985Y-18040D03*
G54D20*
X17100Y-18800D03*
X17100Y-18200D03*
G54D16*
X17500Y-21300D03*
X16900Y-21300D03*
G54D21*
X26835Y-19235D03*
X26165Y-19235D03*
X26835Y-21165D03*
X26165Y-21165D03*
G54D22*
X20970Y-19010D03*
X18390Y-18630D03*
X18970Y-21760D03*
X21660Y-21760D03*
X19050Y-20440D03*
X21490Y-21000D03*
X19310Y-20000D03*
X17981Y-20130D03*
X21410Y-22090D03*
X27320Y-19090D03*
X20020Y-19150D03*
X20010Y-18700D03*
X20340Y-21100D03*
X23910Y-21890D03*
X27530Y-22150D03*
X20800Y-21220D03*
X24160Y-22010D03*
X23660Y-21760D03*
X21200Y-21040D03*
X19130Y-19780D03*
X17250Y-20660D03*
X22450Y-20900D03*
X23410Y-20420D03*
X16610Y-17630D03*
X19030Y-20720D03*
X19570Y-21260D03*
X19420Y-22080D03*
X17570Y-22430D03*
X27490Y-19720D03*
X16500Y-21490D03*
X19910Y-20540D03*
X21840Y-18460D03*
X18340Y-21270D03*
G54D23*
X19080Y-20440D02*
X19050Y-20440D01*
X20988Y-21370D02*
X20988Y-21362D01*
X18970Y-21760D02*
X18760Y-21760D01*
X19040Y-18400D02*
X19040Y-18650D01*
X18998Y-20492D02*
X19050Y-20440D01*
X19120Y-18730D02*
X19270Y-18730D01*
X19050Y-20440D02*
X19110Y-20440D01*
X18940Y-18300D02*
X19040Y-18400D01*
X21660Y-21760D02*
X21840Y-21760D01*
G54D10*
X20988Y-21692D02*
X20988Y-21370D01*
G54D23*
X18530Y-18300D02*
X18390Y-18440D01*
X18390Y-18440D02*
X18390Y-18630D01*
X19040Y-18650D02*
X19120Y-18730D01*
X18700Y-18300D02*
X18530Y-18300D01*
X18700Y-21690D02*
X18700Y-21700D01*
G54D10*
X18938Y-20492D02*
X18608Y-20492D01*
G54D23*
X21080Y-21270D02*
X20988Y-21362D01*
X20120Y-19380D02*
X20490Y-19010D01*
X19260Y-20960D02*
X19260Y-20590D01*
X21840Y-21760D02*
X21900Y-21700D01*
X21500Y-21270D02*
X21080Y-21270D01*
X18700Y-21520D02*
X18700Y-21700D01*
X18700Y-18300D02*
X18940Y-18300D01*
X21900Y-21670D02*
X21500Y-21270D01*
X18700Y-18300D02*
X18700Y-18850D01*
X19110Y-20440D02*
X19260Y-20590D01*
X18938Y-20492D02*
X18998Y-20492D01*
X19270Y-18730D02*
X19920Y-19380D01*
X18760Y-21760D02*
X18700Y-21700D01*
X20490Y-19010D02*
X20970Y-19010D01*
G54D10*
X18700Y-18850D02*
X18632Y-18918D01*
X18632Y-18918D02*
X18608Y-18918D01*
G54D23*
X21900Y-21670D02*
X21900Y-21700D01*
X19920Y-19380D02*
X20120Y-19380D01*
X19260Y-20960D02*
X18700Y-21520D01*
X20110Y-20870D02*
X20646Y-20870D01*
X21031Y-20869D02*
X21090Y-20810D01*
X20647Y-20869D02*
X21031Y-20869D01*
X19810Y-21370D02*
X19810Y-21170D01*
X21300Y-20810D02*
X21490Y-21000D01*
X19810Y-21170D02*
X20110Y-20870D01*
X21090Y-20810D02*
X21300Y-20810D01*
G54D10*
X19808Y-21372D02*
X19810Y-21370D01*
X19808Y-21692D02*
X19808Y-21372D01*
G54D23*
X20646Y-20870D02*
X20647Y-20869D01*
X17929Y-20541D02*
X17750Y-20720D01*
X16800Y-22000D02*
X17500Y-21300D01*
X15950Y-22000D02*
X16800Y-22000D01*
X18209Y-19902D02*
X17981Y-20130D01*
X17981Y-20130D02*
X17929Y-20182D01*
G54D10*
X18608Y-19902D02*
X18922Y-19902D01*
G54D23*
X18282Y-19902D02*
X18209Y-19902D01*
X19030Y-20010D02*
X19300Y-20010D01*
X15327Y-21377D02*
X15950Y-22000D01*
X17750Y-21050D02*
X17500Y-21300D01*
G54D10*
X18922Y-19902D02*
X19030Y-20010D01*
G54D23*
X19300Y-20010D02*
X19310Y-20000D01*
X11930Y-21377D02*
X15327Y-21377D01*
X17750Y-20720D02*
X17750Y-21050D01*
G54D10*
X18608Y-19902D02*
X18282Y-19902D01*
G54D23*
X17929Y-20182D02*
X17929Y-20541D01*
G54D10*
X16230Y-23050D02*
X16000Y-23050D01*
X17901Y-20783D02*
X17901Y-21113D01*
X18608Y-20098D02*
X18312Y-20098D01*
X18312Y-20098D02*
X18092Y-20318D01*
X17720Y-21294D02*
X17720Y-21560D01*
X18092Y-20318D02*
X18092Y-20592D01*
X17720Y-21560D02*
X16230Y-23050D01*
X18092Y-20592D02*
X17901Y-20783D01*
X17901Y-21113D02*
X17720Y-21294D01*
X23482Y-22580D02*
X24630Y-22580D01*
X21992Y-20295D02*
X22479Y-20295D01*
X23086Y-20902D02*
X23086Y-22184D01*
X24980Y-22950D02*
X25000Y-22950D01*
X24630Y-22580D02*
X25000Y-22950D01*
X22479Y-20295D02*
X23086Y-20902D01*
X23086Y-22184D02*
X23482Y-22580D01*
X23532Y-22458D02*
X25408Y-22458D01*
X25408Y-22458D02*
X26000Y-23050D01*
X21992Y-20098D02*
X22454Y-20098D01*
X23208Y-22134D02*
X23532Y-22458D01*
X22454Y-20098D02*
X23208Y-20852D01*
X23208Y-20852D02*
X23208Y-22134D01*
X23582Y-22336D02*
X25458Y-22336D01*
X22420Y-19902D02*
X22430Y-19902D01*
X25692Y-22570D02*
X26620Y-22570D01*
X26620Y-22570D02*
X27000Y-22950D01*
X22420Y-19902D02*
X22422Y-19902D01*
X21992Y-19902D02*
X22420Y-19902D01*
X23330Y-22084D02*
X23582Y-22336D01*
X25458Y-22336D02*
X25692Y-22570D01*
X22430Y-19902D02*
X23330Y-20802D01*
X23330Y-20802D02*
X23330Y-22084D01*
X18325Y-20295D02*
X18220Y-20400D01*
X18220Y-20400D02*
X18220Y-20636D01*
X18608Y-20295D02*
X18325Y-20295D01*
X18220Y-20636D02*
X18023Y-20833D01*
X17842Y-21344D02*
X17842Y-21610D01*
X17000Y-22452D02*
X17000Y-22950D01*
X18023Y-20833D02*
X18023Y-21163D01*
X17842Y-21610D02*
X17000Y-22452D01*
X18023Y-21163D02*
X17842Y-21344D01*
X19218Y-21832D02*
X18000Y-23050D01*
X19218Y-21692D02*
X19218Y-21832D01*
X19230Y-22950D02*
X19000Y-22950D01*
X20202Y-21978D02*
X19230Y-22950D01*
X20202Y-21692D02*
X20202Y-21978D01*
X20792Y-21692D02*
X20792Y-22258D01*
X20792Y-22258D02*
X20000Y-23050D01*
X21382Y-21692D02*
X21382Y-22062D01*
X21382Y-22062D02*
X21410Y-22090D01*
X22720Y-21440D02*
X22720Y-22330D01*
X22720Y-22330D02*
X22000Y-23050D01*
X21992Y-21082D02*
X22362Y-21082D01*
X22362Y-21082D02*
X22720Y-21440D01*
X22842Y-21002D02*
X22842Y-22792D01*
X22842Y-22792D02*
X23000Y-22950D01*
X22528Y-20688D02*
X22842Y-21002D01*
X21992Y-20688D02*
X22528Y-20688D01*
X23780Y-23050D02*
X24000Y-23050D01*
X22964Y-20952D02*
X22964Y-22234D01*
X22504Y-20492D02*
X22964Y-20952D01*
X21992Y-20492D02*
X22504Y-20492D01*
X22964Y-22234D02*
X23780Y-23050D01*
X23002Y-18152D02*
X24658Y-18152D01*
X27870Y-18500D02*
X28230Y-18500D01*
X24902Y-17908D02*
X27278Y-17908D01*
X28450Y-18720D02*
X28450Y-19600D01*
X21992Y-19312D02*
X22308Y-19312D01*
X27278Y-17908D02*
X27870Y-18500D01*
X28230Y-18500D02*
X28450Y-18720D01*
X22864Y-18290D02*
X23002Y-18152D01*
X24658Y-18152D02*
X24902Y-17908D01*
X22864Y-18756D02*
X22864Y-18290D01*
X22308Y-19312D02*
X22864Y-18756D01*
X28450Y-19600D02*
X28050Y-20000D01*
X21992Y-19508D02*
X22302Y-19508D01*
X24952Y-18030D02*
X27228Y-18030D01*
X23300Y-18595D02*
X23300Y-18274D01*
X22986Y-18824D02*
X22986Y-18340D01*
X23052Y-18274D02*
X23300Y-18274D01*
X27228Y-18030D02*
X27480Y-18282D01*
X23300Y-18274D02*
X24708Y-18274D01*
X23305Y-18600D02*
X23300Y-18595D01*
X24708Y-18274D02*
X24952Y-18030D01*
X27480Y-18930D02*
X27320Y-19090D01*
X22986Y-18340D02*
X23052Y-18274D01*
X22302Y-19508D02*
X22986Y-18824D01*
X27480Y-18282D02*
X27480Y-18930D01*
X25508Y-22214D02*
X25742Y-22448D01*
X23452Y-20752D02*
X23452Y-22034D01*
X27602Y-22448D02*
X28050Y-22000D01*
X21992Y-19705D02*
X22405Y-19705D01*
X23632Y-22214D02*
X25508Y-22214D01*
X23452Y-22034D02*
X23632Y-22214D01*
X25742Y-22448D02*
X27602Y-22448D01*
X22405Y-19705D02*
X23452Y-20752D01*
X17442Y-17664D02*
X17198Y-17420D01*
X17198Y-17420D02*
X16370Y-17420D01*
X19218Y-18308D02*
X19218Y-17812D01*
X16370Y-17420D02*
X16000Y-17050D01*
X19218Y-17812D02*
X19070Y-17664D01*
X19070Y-17664D02*
X17442Y-17664D01*
X22508Y-17786D02*
X22752Y-17542D01*
X22752Y-17542D02*
X24408Y-17542D01*
X20988Y-17892D02*
X21094Y-17786D01*
X24408Y-17542D02*
X25000Y-16950D01*
X20988Y-18308D02*
X20988Y-17892D01*
X21094Y-17786D02*
X22508Y-17786D01*
X22802Y-17664D02*
X24458Y-17664D01*
X21222Y-17908D02*
X22558Y-17908D01*
X24702Y-17420D02*
X25630Y-17420D01*
X21185Y-18308D02*
X21185Y-17945D01*
X25630Y-17420D02*
X26000Y-17050D01*
X22558Y-17908D02*
X22802Y-17664D01*
X24458Y-17664D02*
X24702Y-17420D01*
X21185Y-17945D02*
X21222Y-17908D01*
X21382Y-18308D02*
X21382Y-18088D01*
X21382Y-18088D02*
X21440Y-18030D01*
X22608Y-18030D02*
X22852Y-17786D01*
X24508Y-17786D02*
X24752Y-17542D01*
X21440Y-18030D02*
X22608Y-18030D01*
X26408Y-17542D02*
X27000Y-16950D01*
X22852Y-17786D02*
X24508Y-17786D01*
X24752Y-17542D02*
X26408Y-17542D01*
X22310Y-18918D02*
X22620Y-18608D01*
X24802Y-17664D02*
X27386Y-17664D01*
X27386Y-17664D02*
X28000Y-17050D01*
X22620Y-18190D02*
X22902Y-17908D01*
X22902Y-17908D02*
X24558Y-17908D01*
X21992Y-18918D02*
X22310Y-18918D01*
X24558Y-17908D02*
X24802Y-17664D01*
X22620Y-18608D02*
X22620Y-18190D01*
X22305Y-19115D02*
X22742Y-18678D01*
X22742Y-18240D02*
X22952Y-18030D01*
X28430Y-17520D02*
X29000Y-16950D01*
X21992Y-19115D02*
X22285Y-19115D01*
X24608Y-18030D02*
X24852Y-17786D01*
X27860Y-17520D02*
X28430Y-17520D01*
X27594Y-17786D02*
X27860Y-17520D01*
X22952Y-18030D02*
X24608Y-18030D01*
X22742Y-18678D02*
X22742Y-18240D01*
X24852Y-17786D02*
X27594Y-17786D01*
X21992Y-19115D02*
X22305Y-19115D01*
X19148Y-17542D02*
X17492Y-17542D01*
X17492Y-17542D02*
X17000Y-17050D01*
X19415Y-18308D02*
X19415Y-17809D01*
X19415Y-17809D02*
X19148Y-17542D01*
X17000Y-16950D02*
X17000Y-17050D01*
X19198Y-17420D02*
X18470Y-17420D01*
X18000Y-17050D02*
X18000Y-16950D01*
X18470Y-17420D02*
X18000Y-16950D01*
X19612Y-18308D02*
X19612Y-17834D01*
X19612Y-17834D02*
X19198Y-17420D01*
X19808Y-18938D02*
X20020Y-19150D01*
X19000Y-16950D02*
X19000Y-17050D01*
X19808Y-17858D02*
X19000Y-17050D01*
X19808Y-18308D02*
X19808Y-17858D01*
X19808Y-18308D02*
X19808Y-18938D01*
X20000Y-17050D02*
X20000Y-18303D01*
X20000Y-18303D02*
X20005Y-18308D01*
X20005Y-18308D02*
X20005Y-18695D01*
X20005Y-18695D02*
X20010Y-18700D01*
X20202Y-17748D02*
X21000Y-16950D01*
X20202Y-18308D02*
X20202Y-17748D01*
X20398Y-17802D02*
X20780Y-17420D01*
X20780Y-17420D02*
X21630Y-17420D01*
X21630Y-17420D02*
X22000Y-17050D01*
X20398Y-18308D02*
X20398Y-17802D01*
X20595Y-17845D02*
X20898Y-17542D01*
X22408Y-17542D02*
X23000Y-16950D01*
X20595Y-18308D02*
X20595Y-17845D01*
X20898Y-17542D02*
X22408Y-17542D01*
X20792Y-17868D02*
X20996Y-17664D01*
X22702Y-17420D02*
X23630Y-17420D01*
X20792Y-18308D02*
X20792Y-17868D01*
X23630Y-17420D02*
X24000Y-17050D01*
X20996Y-17664D02*
X22458Y-17664D01*
X22458Y-17664D02*
X22702Y-17420D01*
X24410Y-21970D02*
X25608Y-21970D01*
X24250Y-21810D02*
X24410Y-21970D01*
X23910Y-21890D02*
X23990Y-21810D01*
X25608Y-21970D02*
X25842Y-22204D01*
X28420Y-21530D02*
X27860Y-21530D01*
X27860Y-21530D02*
X27186Y-22204D01*
X20005Y-21189D02*
X20005Y-21692D01*
X20094Y-21100D02*
X20340Y-21100D01*
X28950Y-21000D02*
X28420Y-21530D01*
X20005Y-21189D02*
X20094Y-21100D01*
X27186Y-22204D02*
X25842Y-22204D01*
X23990Y-21810D02*
X24250Y-21810D01*
X25558Y-22092D02*
X25792Y-22326D01*
X24160Y-22010D02*
X24242Y-22092D01*
X27354Y-22326D02*
X25792Y-22326D01*
X27530Y-22150D02*
X27354Y-22326D01*
X24242Y-22092D02*
X25558Y-22092D01*
X20595Y-21415D02*
X20595Y-21692D01*
X20595Y-21415D02*
X20790Y-21220D01*
X20790Y-21220D02*
X20800Y-21220D01*
X20398Y-21332D02*
X20398Y-21692D01*
X23660Y-21760D02*
X23732Y-21688D01*
X29050Y-20000D02*
X28550Y-20500D01*
X25658Y-21848D02*
X25892Y-22082D01*
X27470Y-20780D02*
X27470Y-21748D01*
X21180Y-21020D02*
X21200Y-21040D01*
X20398Y-21332D02*
X20710Y-21020D01*
X20710Y-21020D02*
X21180Y-21020D01*
X25892Y-22082D02*
X27136Y-22082D01*
X27750Y-20500D02*
X27470Y-20780D01*
X23732Y-21688D02*
X24300Y-21688D01*
X28550Y-20500D02*
X27750Y-20500D01*
X24460Y-21848D02*
X25658Y-21848D01*
X24300Y-21688D02*
X24460Y-21848D01*
X27470Y-21748D02*
X27136Y-22082D01*
X18608Y-19508D02*
X18028Y-19508D01*
X17500Y-20036D02*
X17500Y-20100D01*
X18028Y-19508D02*
X17500Y-20036D01*
X18608Y-19312D02*
X17688Y-19312D01*
X17688Y-19312D02*
X17500Y-19500D01*
X18608Y-19705D02*
X18285Y-19705D01*
G54D23*
X18045Y-19705D02*
X17750Y-20000D01*
X17750Y-20000D02*
X17750Y-20450D01*
X18285Y-19705D02*
X18045Y-19705D01*
X18925Y-19705D02*
X19055Y-19705D01*
X17500Y-20700D02*
X17290Y-20700D01*
G54D10*
X18608Y-19705D02*
X18925Y-19705D01*
G54D23*
X17750Y-20450D02*
X17500Y-20700D01*
X19130Y-19780D02*
X19055Y-19705D01*
X17290Y-20700D02*
X17250Y-20660D01*
G54D10*
X26800Y-18500D02*
X26800Y-19200D01*
X26890Y-19290D02*
X27660Y-19290D01*
X26835Y-19235D02*
X26890Y-19290D01*
X26800Y-19200D02*
X26835Y-19235D01*
X24780Y-18920D02*
X24820Y-18880D01*
X23292Y-20420D02*
X22506Y-19634D01*
X22872Y-19110D02*
X23062Y-18920D01*
X22435Y-20885D02*
X22450Y-20900D01*
X23410Y-20420D02*
X23292Y-20420D01*
X26702Y-18152D02*
X26800Y-18250D01*
X26800Y-19200D02*
X26835Y-19235D01*
X27660Y-19290D02*
X27950Y-19000D01*
X25002Y-18152D02*
X26702Y-18152D01*
X26800Y-18500D02*
X26800Y-18250D01*
X22506Y-19634D02*
X22506Y-19476D01*
X22435Y-20885D02*
X21992Y-20885D01*
X24820Y-18334D02*
X25002Y-18152D01*
X22506Y-19476D02*
X22872Y-19110D01*
X24820Y-18880D02*
X24820Y-18334D01*
X23062Y-18920D02*
X24780Y-18920D01*
X15557Y-19607D02*
X15950Y-20000D01*
X15950Y-20000D02*
X16400Y-20000D01*
X12126Y-19607D02*
X15557Y-19607D01*
X16400Y-20000D02*
X16900Y-19500D01*
X12126Y-20393D02*
X15443Y-20393D01*
X15443Y-20393D02*
X16050Y-21000D01*
X16050Y-20950D02*
X16900Y-20100D01*
X16050Y-21000D02*
X16050Y-20950D01*
G54D23*
X15678Y-18623D02*
X16015Y-18960D01*
X16940Y-18960D02*
X17100Y-18800D01*
X11930Y-18623D02*
X15678Y-18623D01*
X16015Y-18960D02*
X16940Y-18960D01*
X16480Y-17760D02*
X16610Y-17630D01*
X16015Y-18960D02*
X16480Y-18495D01*
X16480Y-18495D02*
X16480Y-17760D01*
X18998Y-20688D02*
X19030Y-20720D01*
X18938Y-20688D02*
X18998Y-20688D01*
G54D10*
X18608Y-20688D02*
X18938Y-20688D01*
X19612Y-21692D02*
X19612Y-21302D01*
X19612Y-21302D02*
X19570Y-21260D01*
X23895Y-18600D02*
X24600Y-18600D01*
X23895Y-18600D02*
X24400Y-18600D01*
X19415Y-21692D02*
X19415Y-22075D01*
X19415Y-22075D02*
X19420Y-22080D01*
X18290Y-20890D02*
X18295Y-20885D01*
X18290Y-21080D02*
X18292Y-21082D01*
X17690Y-22310D02*
X17690Y-22300D01*
X18280Y-19110D02*
X18285Y-19115D01*
X16900Y-21300D02*
X16620Y-21300D01*
X17670Y-18300D02*
X18100Y-18300D01*
X19910Y-19880D02*
X19910Y-20540D01*
G54D23*
X18100Y-19010D02*
X18200Y-19110D01*
G54D10*
X19910Y-20540D02*
X21340Y-19110D01*
G54D23*
X18100Y-21700D02*
X18100Y-21300D01*
G54D10*
X18285Y-19115D02*
X18608Y-19115D01*
G54D23*
X18100Y-21300D02*
X18174Y-21226D01*
G54D10*
X21340Y-18960D02*
X21840Y-18460D01*
G54D23*
X18220Y-20890D02*
X18290Y-20890D01*
G54D10*
X18608Y-19115D02*
X19145Y-19115D01*
X17570Y-18200D02*
X17670Y-18300D01*
G54D23*
X18340Y-21270D02*
X18296Y-21226D01*
X18174Y-20936D02*
X18220Y-20890D01*
G54D10*
X19145Y-19115D02*
X19910Y-19880D01*
X16500Y-21420D02*
X16500Y-21490D01*
X18292Y-21082D02*
X18608Y-21082D01*
G54D23*
X18174Y-21226D02*
X18174Y-21080D01*
G54D10*
X18295Y-20885D02*
X18608Y-20885D01*
X17570Y-22430D02*
X17690Y-22310D01*
X17100Y-18200D02*
X17570Y-18200D01*
G54D23*
X18174Y-21080D02*
X18174Y-20936D01*
X18174Y-21080D02*
X18290Y-21080D01*
X18200Y-19110D02*
X18280Y-19110D01*
X18100Y-18300D02*
X18100Y-19010D01*
G54D10*
X21340Y-19110D02*
X21340Y-18960D01*
X16620Y-21300D02*
X16500Y-21420D01*
G54D23*
X18296Y-21226D02*
X18174Y-21226D01*
G54D10*
G36*
X17308Y-21000D02*
X17297Y-21011D01*
X17287Y-21027D01*
X17279Y-21045D01*
X17275Y-21065D01*
X17275Y-21084D01*
X17275Y-21300D01*
X17113Y-21462D01*
X17113Y-21351D01*
X17091Y-21329D01*
X16929Y-21329D01*
X16929Y-21591D01*
X16951Y-21613D01*
X16962Y-21613D01*
X16871Y-21704D01*
X16871Y-21591D01*
X16871Y-21329D01*
X16871Y-21271D01*
X16871Y-21009D01*
X16862Y-21000D01*
X16871Y-20991D01*
X16871Y-20729D01*
X16709Y-20729D01*
X16687Y-20751D01*
X16687Y-20917D01*
X16687Y-20934D01*
X16690Y-20951D01*
X16697Y-20967D01*
X16707Y-20981D01*
X16719Y-20993D01*
X16728Y-21000D01*
X16719Y-21007D01*
X16707Y-21019D01*
X16697Y-21033D01*
X16690Y-21049D01*
X16687Y-21066D01*
X16687Y-21083D01*
X16687Y-21249D01*
X16709Y-21271D01*
X16871Y-21271D01*
X16871Y-21329D01*
X16709Y-21329D01*
X16687Y-21351D01*
X16687Y-21517D01*
X16687Y-21534D01*
X16690Y-21551D01*
X16697Y-21567D01*
X16707Y-21581D01*
X16719Y-21593D01*
X16733Y-21603D01*
X16749Y-21610D01*
X16766Y-21613D01*
X16849Y-21613D01*
X16871Y-21591D01*
X16871Y-21704D01*
X16734Y-21841D01*
X16392Y-21841D01*
X16367Y-21778D01*
X16316Y-21702D01*
X16251Y-21636D01*
X16175Y-21585D01*
X16090Y-21549D01*
X15999Y-21530D01*
X15907Y-21530D01*
X15817Y-21547D01*
X15748Y-21574D01*
X15444Y-21270D01*
X15441Y-21266D01*
X15439Y-21265D01*
X15417Y-21246D01*
X15415Y-21245D01*
X15390Y-21231D01*
X15389Y-21230D01*
X15388Y-21230D01*
X15378Y-21227D01*
X15360Y-21221D01*
X15329Y-21218D01*
X15328Y-21218D01*
X15327Y-21218D01*
X14729Y-21218D01*
X14729Y-20523D01*
X15389Y-20523D01*
X15636Y-20770D01*
X15636Y-20772D01*
X15600Y-20857D01*
X15581Y-20947D01*
X15579Y-21039D01*
X15596Y-21130D01*
X15630Y-21216D01*
X15680Y-21293D01*
X15744Y-21360D01*
X15820Y-21412D01*
X15904Y-21449D01*
X15994Y-21469D01*
X16086Y-21471D01*
X16177Y-21455D01*
X16263Y-21422D01*
X16341Y-21372D01*
X16407Y-21309D01*
X16461Y-21233D01*
X16498Y-21149D01*
X16519Y-21059D01*
X16520Y-20954D01*
X16502Y-20864D01*
X16467Y-20778D01*
X16442Y-20741D01*
X16687Y-20497D01*
X16687Y-20649D01*
X16709Y-20671D01*
X16841Y-20671D01*
X16871Y-20671D01*
X16929Y-20671D01*
X16929Y-20729D01*
X16929Y-20759D01*
X16929Y-20991D01*
X16938Y-21000D01*
X16929Y-21009D01*
X16929Y-21271D01*
X17091Y-21271D01*
X17113Y-21249D01*
X17113Y-21083D01*
X17113Y-21066D01*
X17110Y-21049D01*
X17103Y-21033D01*
X17093Y-21019D01*
X17081Y-21007D01*
X17071Y-21000D01*
X17081Y-20993D01*
X17093Y-20981D01*
X17103Y-20967D01*
X17110Y-20951D01*
X17113Y-20934D01*
X17113Y-20917D01*
X17113Y-20817D01*
X17114Y-20819D01*
X17148Y-20842D01*
X17185Y-20859D01*
X17225Y-20867D01*
X17266Y-20868D01*
X17275Y-20866D01*
X17275Y-20935D01*
X17279Y-20954D01*
X17286Y-20972D01*
X17297Y-20989D01*
X17308Y-21000D01*
X17308Y-21000D01*
G37*
G54D12*
X17308Y-21000D02*
X17297Y-21011D01*
X17287Y-21027D01*
X17279Y-21045D01*
X17275Y-21065D01*
X17275Y-21084D01*
X17275Y-21300D01*
X17113Y-21462D01*
X17113Y-21351D01*
X17091Y-21329D01*
X16929Y-21329D01*
X16929Y-21591D01*
X16951Y-21613D01*
X16962Y-21613D01*
X16871Y-21704D01*
X16871Y-21591D01*
X16871Y-21329D01*
X16871Y-21271D01*
X16871Y-21009D01*
X16862Y-21000D01*
X16871Y-20991D01*
X16871Y-20729D01*
X16709Y-20729D01*
X16687Y-20751D01*
X16687Y-20917D01*
X16687Y-20934D01*
X16690Y-20951D01*
X16697Y-20967D01*
X16707Y-20981D01*
X16719Y-20993D01*
X16728Y-21000D01*
X16719Y-21007D01*
X16707Y-21019D01*
X16697Y-21033D01*
X16690Y-21049D01*
X16687Y-21066D01*
X16687Y-21083D01*
X16687Y-21249D01*
X16709Y-21271D01*
X16871Y-21271D01*
X16871Y-21329D01*
X16709Y-21329D01*
X16687Y-21351D01*
X16687Y-21517D01*
X16687Y-21534D01*
X16690Y-21551D01*
X16697Y-21567D01*
X16707Y-21581D01*
X16719Y-21593D01*
X16733Y-21603D01*
X16749Y-21610D01*
X16766Y-21613D01*
X16849Y-21613D01*
X16871Y-21591D01*
X16871Y-21704D01*
X16734Y-21841D01*
X16392Y-21841D01*
X16367Y-21778D01*
X16316Y-21702D01*
X16251Y-21636D01*
X16175Y-21585D01*
X16090Y-21549D01*
X15999Y-21530D01*
X15907Y-21530D01*
X15817Y-21547D01*
X15748Y-21574D01*
X15444Y-21270D01*
X15441Y-21266D01*
X15439Y-21265D01*
X15417Y-21246D01*
X15415Y-21245D01*
X15390Y-21231D01*
X15389Y-21230D01*
X15388Y-21230D01*
X15378Y-21227D01*
X15360Y-21221D01*
X15329Y-21218D01*
X15328Y-21218D01*
X15327Y-21218D01*
X14729Y-21218D01*
X14729Y-20523D01*
X15389Y-20523D01*
X15636Y-20770D01*
X15636Y-20772D01*
X15600Y-20857D01*
X15581Y-20947D01*
X15579Y-21039D01*
X15596Y-21130D01*
X15630Y-21216D01*
X15680Y-21293D01*
X15744Y-21360D01*
X15820Y-21412D01*
X15904Y-21449D01*
X15994Y-21469D01*
X16086Y-21471D01*
X16177Y-21455D01*
X16263Y-21422D01*
X16341Y-21372D01*
X16407Y-21309D01*
X16461Y-21233D01*
X16498Y-21149D01*
X16519Y-21059D01*
X16520Y-20954D01*
X16502Y-20864D01*
X16467Y-20778D01*
X16442Y-20741D01*
X16687Y-20497D01*
X16687Y-20649D01*
X16709Y-20671D01*
X16841Y-20671D01*
X16871Y-20671D01*
X16929Y-20671D01*
X16929Y-20729D01*
X16929Y-20759D01*
X16929Y-20991D01*
X16938Y-21000D01*
X16929Y-21009D01*
X16929Y-21271D01*
X17091Y-21271D01*
X17113Y-21249D01*
X17113Y-21083D01*
X17113Y-21066D01*
X17110Y-21049D01*
X17103Y-21033D01*
X17093Y-21019D01*
X17081Y-21007D01*
X17071Y-21000D01*
X17081Y-20993D01*
X17093Y-20981D01*
X17103Y-20967D01*
X17110Y-20951D01*
X17113Y-20934D01*
X17113Y-20917D01*
X17113Y-20817D01*
X17114Y-20819D01*
X17148Y-20842D01*
X17185Y-20859D01*
X17225Y-20867D01*
X17266Y-20868D01*
X17275Y-20866D01*
X17275Y-20935D01*
X17279Y-20954D01*
X17286Y-20972D01*
X17297Y-20989D01*
X17308Y-21000D01*
G54D10*
G36*
X22494Y-18160D02*
X22493Y-18163D01*
X22490Y-18188D01*
X22490Y-18190D01*
X22490Y-18554D01*
X22275Y-18769D01*
X21687Y-18769D01*
X21668Y-18773D01*
X21650Y-18780D01*
X21633Y-18791D01*
X21619Y-18805D01*
X21609Y-18821D01*
X21601Y-18839D01*
X21597Y-18859D01*
X21597Y-18878D01*
X21597Y-18977D01*
X21601Y-18996D01*
X21608Y-19014D01*
X21609Y-19016D01*
X21609Y-19018D01*
X21601Y-19036D01*
X21597Y-19056D01*
X21597Y-19075D01*
X21597Y-19174D01*
X21601Y-19193D01*
X21608Y-19211D01*
X21609Y-19213D01*
X21609Y-19215D01*
X21601Y-19233D01*
X21597Y-19253D01*
X21597Y-19272D01*
X21597Y-19371D01*
X21601Y-19390D01*
X21608Y-19408D01*
X21609Y-19410D01*
X21609Y-19411D01*
X21601Y-19429D01*
X21597Y-19449D01*
X21597Y-19468D01*
X21597Y-19567D01*
X21601Y-19586D01*
X21608Y-19604D01*
X21609Y-19606D01*
X21609Y-19608D01*
X21601Y-19626D01*
X21597Y-19646D01*
X21597Y-19665D01*
X21597Y-19764D01*
X21601Y-19783D01*
X21608Y-19801D01*
X21609Y-19803D01*
X21609Y-19805D01*
X21601Y-19823D01*
X21597Y-19843D01*
X21597Y-19862D01*
X21597Y-19961D01*
X21601Y-19980D01*
X21608Y-19998D01*
X21609Y-20000D01*
X21609Y-20001D01*
X21601Y-20019D01*
X21597Y-20039D01*
X21597Y-20058D01*
X21597Y-20157D01*
X21601Y-20176D01*
X21608Y-20194D01*
X21609Y-20196D01*
X21609Y-20198D01*
X21601Y-20216D01*
X21597Y-20236D01*
X21597Y-20255D01*
X21597Y-20354D01*
X21601Y-20373D01*
X21608Y-20391D01*
X21609Y-20393D01*
X21609Y-20395D01*
X21601Y-20413D01*
X21597Y-20433D01*
X21597Y-20452D01*
X21597Y-20551D01*
X21601Y-20570D01*
X21608Y-20588D01*
X21609Y-20590D01*
X21609Y-20591D01*
X21601Y-20609D01*
X21597Y-20629D01*
X21597Y-20648D01*
X21597Y-20747D01*
X21601Y-20766D01*
X21608Y-20784D01*
X21609Y-20786D01*
X21609Y-20788D01*
X21601Y-20806D01*
X21597Y-20821D01*
X21590Y-20816D01*
X21552Y-20801D01*
X21512Y-20792D01*
X21506Y-20792D01*
X21417Y-20703D01*
X21414Y-20699D01*
X21412Y-20698D01*
X21390Y-20679D01*
X21388Y-20678D01*
X21363Y-20664D01*
X21362Y-20663D01*
X21361Y-20663D01*
X21351Y-20660D01*
X21333Y-20654D01*
X21302Y-20651D01*
X21301Y-20651D01*
X21300Y-20651D01*
X21092Y-20651D01*
X21090Y-20651D01*
X21059Y-20654D01*
X21029Y-20663D01*
X21011Y-20673D01*
X21003Y-20677D01*
X20979Y-20696D01*
X20978Y-20697D01*
X20977Y-20698D01*
X20965Y-20710D01*
X20649Y-20710D01*
X20647Y-20710D01*
X20636Y-20711D01*
X20112Y-20711D01*
X20110Y-20711D01*
X20079Y-20714D01*
X20063Y-20718D01*
X20051Y-20722D01*
X20049Y-20722D01*
X20049Y-20723D01*
X20045Y-20725D01*
X20023Y-20737D01*
X19999Y-20756D01*
X19998Y-20757D01*
X19997Y-20758D01*
X19703Y-21052D01*
X19699Y-21056D01*
X19679Y-21080D01*
X19678Y-21081D01*
X19670Y-21076D01*
X19632Y-21061D01*
X19592Y-21052D01*
X19551Y-21052D01*
X19511Y-21059D01*
X19474Y-21075D01*
X19439Y-21097D01*
X19410Y-21125D01*
X19387Y-21159D01*
X19371Y-21196D01*
X19362Y-21236D01*
X19362Y-21277D01*
X19365Y-21297D01*
X19356Y-21297D01*
X19337Y-21301D01*
X19319Y-21308D01*
X19316Y-21309D01*
X19315Y-21309D01*
X19297Y-21301D01*
X19277Y-21297D01*
X19258Y-21297D01*
X19159Y-21297D01*
X19144Y-21300D01*
X19370Y-21074D01*
X19371Y-21074D01*
X19371Y-21073D01*
X19372Y-21073D01*
X19391Y-21050D01*
X19392Y-21049D01*
X19396Y-21041D01*
X19406Y-21023D01*
X19406Y-21021D01*
X19416Y-20993D01*
X19419Y-20962D01*
X19419Y-20960D01*
X19419Y-20592D01*
X19419Y-20590D01*
X19416Y-20561D01*
X19416Y-20559D01*
X19411Y-20543D01*
X19408Y-20531D01*
X19407Y-20529D01*
X19394Y-20503D01*
X19374Y-20479D01*
X19373Y-20478D01*
X19372Y-20477D01*
X19232Y-20338D01*
X19212Y-20308D01*
X19183Y-20279D01*
X19150Y-20256D01*
X19112Y-20241D01*
X19072Y-20232D01*
X19031Y-20232D01*
X19003Y-20236D01*
X18999Y-20217D01*
X18992Y-20199D01*
X18990Y-20196D01*
X18991Y-20195D01*
X18999Y-20177D01*
X19001Y-20166D01*
X19028Y-20169D01*
X19030Y-20169D01*
X19188Y-20169D01*
X19208Y-20182D01*
X19245Y-20199D01*
X19285Y-20207D01*
X19326Y-20208D01*
X19366Y-20201D01*
X19404Y-20187D01*
X19438Y-20165D01*
X19468Y-20137D01*
X19491Y-20104D01*
X19508Y-20066D01*
X19517Y-20027D01*
X19518Y-19980D01*
X19510Y-19940D01*
X19495Y-19902D01*
X19472Y-19868D01*
X19443Y-19839D01*
X19410Y-19816D01*
X19372Y-19801D01*
X19337Y-19793D01*
X19338Y-19760D01*
X19330Y-19720D01*
X19315Y-19682D01*
X19292Y-19648D01*
X19263Y-19619D01*
X19230Y-19596D01*
X19192Y-19581D01*
X19152Y-19572D01*
X19141Y-19572D01*
X19118Y-19559D01*
X19117Y-19558D01*
X19116Y-19558D01*
X19106Y-19555D01*
X19088Y-19549D01*
X19057Y-19546D01*
X19056Y-19546D01*
X19055Y-19546D01*
X19003Y-19546D01*
X19003Y-19449D01*
X18999Y-19430D01*
X18992Y-19412D01*
X18990Y-19409D01*
X18991Y-19409D01*
X18999Y-19391D01*
X19003Y-19371D01*
X19003Y-19352D01*
X19003Y-19253D01*
X18999Y-19234D01*
X18992Y-19216D01*
X18982Y-19201D01*
X18988Y-19190D01*
X18991Y-19173D01*
X18991Y-19161D01*
X18969Y-19139D01*
X18637Y-19139D01*
X18637Y-19144D01*
X18579Y-19144D01*
X18579Y-19139D01*
X18247Y-19139D01*
X18225Y-19161D01*
X18225Y-19173D01*
X18226Y-19182D01*
X18071Y-19182D01*
X18071Y-18591D01*
X18071Y-18329D01*
X18071Y-18271D01*
X18071Y-18009D01*
X18049Y-17987D01*
X17966Y-17987D01*
X17949Y-17990D01*
X17933Y-17997D01*
X17919Y-18007D01*
X17907Y-18019D01*
X17897Y-18033D01*
X17890Y-18049D01*
X17887Y-18066D01*
X17887Y-18083D01*
X17887Y-18249D01*
X17909Y-18271D01*
X18071Y-18271D01*
X18071Y-18329D01*
X17909Y-18329D01*
X17887Y-18351D01*
X17887Y-18517D01*
X17887Y-18534D01*
X17890Y-18551D01*
X17897Y-18567D01*
X17907Y-18581D01*
X17919Y-18593D01*
X17933Y-18603D01*
X17949Y-18610D01*
X17966Y-18613D01*
X18049Y-18613D01*
X18071Y-18591D01*
X18071Y-19182D01*
X17688Y-19182D01*
X17665Y-19183D01*
X17655Y-19179D01*
X17635Y-19175D01*
X17616Y-19175D01*
X17419Y-19175D01*
X17365Y-19175D01*
X17346Y-19179D01*
X17328Y-19186D01*
X17311Y-19197D01*
X17297Y-19211D01*
X17287Y-19227D01*
X17279Y-19245D01*
X17275Y-19265D01*
X17275Y-19284D01*
X17275Y-19735D01*
X17279Y-19754D01*
X17286Y-19772D01*
X17297Y-19789D01*
X17308Y-19800D01*
X17297Y-19811D01*
X17287Y-19827D01*
X17279Y-19845D01*
X17275Y-19865D01*
X17275Y-19884D01*
X17275Y-20335D01*
X17279Y-20354D01*
X17286Y-20372D01*
X17297Y-20389D01*
X17308Y-20400D01*
X17297Y-20411D01*
X17287Y-20427D01*
X17279Y-20445D01*
X17277Y-20453D01*
X17272Y-20452D01*
X17231Y-20452D01*
X17191Y-20459D01*
X17154Y-20475D01*
X17119Y-20497D01*
X17113Y-20502D01*
X17113Y-20483D01*
X17113Y-20466D01*
X17110Y-20449D01*
X17103Y-20433D01*
X17093Y-20419D01*
X17081Y-20407D01*
X17089Y-20403D01*
X17103Y-20389D01*
X17113Y-20373D01*
X17121Y-20355D01*
X17125Y-20335D01*
X17125Y-20316D01*
X17125Y-19865D01*
X17121Y-19846D01*
X17114Y-19828D01*
X17103Y-19811D01*
X17092Y-19800D01*
X17103Y-19789D01*
X17113Y-19773D01*
X17121Y-19755D01*
X17125Y-19735D01*
X17125Y-19716D01*
X17125Y-19265D01*
X17121Y-19246D01*
X17114Y-19228D01*
X17103Y-19211D01*
X17089Y-19197D01*
X17073Y-19187D01*
X17055Y-19179D01*
X17035Y-19175D01*
X17016Y-19175D01*
X16765Y-19175D01*
X16746Y-19179D01*
X16728Y-19186D01*
X16711Y-19197D01*
X16697Y-19211D01*
X16687Y-19227D01*
X16679Y-19245D01*
X16675Y-19265D01*
X16675Y-19284D01*
X16675Y-19541D01*
X16387Y-19828D01*
X16367Y-19778D01*
X16316Y-19702D01*
X16251Y-19636D01*
X16175Y-19585D01*
X16090Y-19549D01*
X15999Y-19530D01*
X15907Y-19530D01*
X15817Y-19547D01*
X15731Y-19581D01*
X15721Y-19587D01*
X15650Y-19516D01*
X15649Y-19515D01*
X15630Y-19499D01*
X15608Y-19488D01*
X15606Y-19487D01*
X15598Y-19484D01*
X15584Y-19480D01*
X15559Y-19477D01*
X15557Y-19477D01*
X14729Y-19477D01*
X14729Y-18782D01*
X15579Y-18782D01*
X15565Y-18817D01*
X15546Y-18907D01*
X15544Y-18999D01*
X15561Y-19090D01*
X15595Y-19176D01*
X15645Y-19253D01*
X15709Y-19320D01*
X15785Y-19372D01*
X15869Y-19409D01*
X15959Y-19429D01*
X16051Y-19431D01*
X16142Y-19415D01*
X16228Y-19382D01*
X16306Y-19332D01*
X16372Y-19269D01*
X16426Y-19193D01*
X16458Y-19119D01*
X16938Y-19119D01*
X16940Y-19119D01*
X16969Y-19116D01*
X16971Y-19116D01*
X16987Y-19111D01*
X16999Y-19108D01*
X17001Y-19107D01*
X17027Y-19094D01*
X17028Y-19092D01*
X17051Y-19074D01*
X17051Y-19073D01*
X17052Y-19073D01*
X17052Y-19072D01*
X17056Y-19067D01*
X17096Y-19027D01*
X17100Y-19031D01*
X17106Y-19025D01*
X17335Y-19025D01*
X17354Y-19021D01*
X17372Y-19014D01*
X17389Y-19003D01*
X17403Y-18989D01*
X17413Y-18973D01*
X17419Y-18959D01*
X17421Y-18955D01*
X17425Y-18935D01*
X17425Y-18916D01*
X17425Y-18665D01*
X17421Y-18646D01*
X17419Y-18640D01*
X17419Y-18288D01*
X17413Y-18282D01*
X17413Y-18251D01*
X17391Y-18229D01*
X17360Y-18229D01*
X17302Y-18171D01*
X17391Y-18171D01*
X17413Y-18149D01*
X17413Y-18066D01*
X17410Y-18049D01*
X17403Y-18033D01*
X17393Y-18019D01*
X17381Y-18007D01*
X17367Y-17997D01*
X17351Y-17990D01*
X17334Y-17987D01*
X17317Y-17987D01*
X17159Y-17987D01*
X17151Y-17987D01*
X17118Y-17987D01*
X17100Y-17969D01*
X17081Y-17987D01*
X17049Y-17987D01*
X17041Y-17987D01*
X16883Y-17987D01*
X16866Y-17987D01*
X16849Y-17990D01*
X16833Y-17997D01*
X16819Y-18007D01*
X16807Y-18019D01*
X16797Y-18033D01*
X16790Y-18049D01*
X16787Y-18066D01*
X16787Y-18149D01*
X16809Y-18171D01*
X16898Y-18171D01*
X16840Y-18229D01*
X16809Y-18229D01*
X16787Y-18251D01*
X16787Y-18282D01*
X16781Y-18288D01*
X16781Y-18640D01*
X16779Y-18645D01*
X16775Y-18665D01*
X16775Y-18684D01*
X16775Y-18801D01*
X16457Y-18801D01*
X16440Y-18759D01*
X16590Y-18609D01*
X16591Y-18609D01*
X16591Y-18608D01*
X16592Y-18608D01*
X16611Y-18585D01*
X16612Y-18584D01*
X16624Y-18561D01*
X16626Y-18558D01*
X16626Y-18557D01*
X16627Y-18556D01*
X16628Y-18550D01*
X16636Y-18528D01*
X16639Y-18497D01*
X16639Y-18496D01*
X16639Y-18495D01*
X16639Y-17835D01*
X16666Y-17831D01*
X16704Y-17817D01*
X16738Y-17795D01*
X16768Y-17767D01*
X16791Y-17734D01*
X16808Y-17696D01*
X16817Y-17657D01*
X16818Y-17610D01*
X16810Y-17570D01*
X16802Y-17550D01*
X17144Y-17550D01*
X17349Y-17755D01*
X17350Y-17756D01*
X17369Y-17772D01*
X17391Y-17783D01*
X17392Y-17784D01*
X17408Y-17788D01*
X17415Y-17791D01*
X17416Y-17791D01*
X17440Y-17794D01*
X17442Y-17794D01*
X19016Y-17794D01*
X19088Y-17866D01*
X19088Y-17953D01*
X19081Y-17965D01*
X19073Y-17983D01*
X19069Y-18003D01*
X19069Y-18022D01*
X19069Y-18204D01*
X19057Y-18193D01*
X19054Y-18189D01*
X19052Y-18188D01*
X19030Y-18169D01*
X19028Y-18168D01*
X19003Y-18154D01*
X19002Y-18153D01*
X19001Y-18153D01*
X18991Y-18150D01*
X18973Y-18144D01*
X18942Y-18141D01*
X18941Y-18141D01*
X18940Y-18141D01*
X18925Y-18141D01*
X18925Y-18065D01*
X18921Y-18046D01*
X18914Y-18028D01*
X18903Y-18011D01*
X18889Y-17997D01*
X18873Y-17987D01*
X18855Y-17979D01*
X18835Y-17975D01*
X18816Y-17975D01*
X18565Y-17975D01*
X18546Y-17979D01*
X18528Y-17986D01*
X18511Y-17997D01*
X18497Y-18011D01*
X18487Y-18027D01*
X18479Y-18045D01*
X18475Y-18065D01*
X18475Y-18084D01*
X18475Y-18151D01*
X18469Y-18153D01*
X18455Y-18160D01*
X18442Y-18167D01*
X18418Y-18187D01*
X18417Y-18188D01*
X18313Y-18292D01*
X18313Y-18249D01*
X18313Y-18241D01*
X18313Y-18083D01*
X18313Y-18066D01*
X18310Y-18049D01*
X18303Y-18033D01*
X18293Y-18019D01*
X18281Y-18007D01*
X18267Y-17997D01*
X18251Y-17990D01*
X18234Y-17987D01*
X18151Y-17987D01*
X18129Y-18009D01*
X18129Y-18241D01*
X18129Y-18271D01*
X18129Y-18329D01*
X18129Y-18359D01*
X18129Y-18591D01*
X18151Y-18613D01*
X18182Y-18613D01*
X18182Y-18647D01*
X18189Y-18687D01*
X18204Y-18725D01*
X18226Y-18759D01*
X18253Y-18788D01*
X18249Y-18791D01*
X18235Y-18805D01*
X18225Y-18821D01*
X18217Y-18839D01*
X18213Y-18859D01*
X18213Y-18878D01*
X18213Y-18977D01*
X18217Y-18996D01*
X18224Y-19014D01*
X18233Y-19028D01*
X18228Y-19040D01*
X18225Y-19057D01*
X18225Y-19069D01*
X18247Y-19091D01*
X18579Y-19091D01*
X18579Y-19086D01*
X18637Y-19086D01*
X18637Y-19091D01*
X18969Y-19091D01*
X18991Y-19069D01*
X18991Y-19057D01*
X18988Y-19040D01*
X18982Y-19028D01*
X18991Y-19015D01*
X18999Y-18997D01*
X19003Y-18977D01*
X19003Y-18958D01*
X19003Y-18859D01*
X18999Y-18840D01*
X18995Y-18829D01*
X19005Y-18840D01*
X19006Y-18841D01*
X19007Y-18842D01*
X19012Y-18846D01*
X19030Y-18861D01*
X19032Y-18862D01*
X19057Y-18876D01*
X19059Y-18877D01*
X19064Y-18878D01*
X19087Y-18886D01*
X19118Y-18889D01*
X19119Y-18889D01*
X19120Y-18889D01*
X19204Y-18889D01*
X19805Y-19490D01*
X19806Y-19491D01*
X19807Y-19492D01*
X19830Y-19511D01*
X19831Y-19512D01*
X19853Y-19524D01*
X19857Y-19526D01*
X19859Y-19527D01*
X19864Y-19528D01*
X19887Y-19536D01*
X19918Y-19539D01*
X19919Y-19539D01*
X19920Y-19539D01*
X20118Y-19539D01*
X20120Y-19539D01*
X20149Y-19536D01*
X20151Y-19536D01*
X20167Y-19531D01*
X20179Y-19528D01*
X20181Y-19527D01*
X20207Y-19514D01*
X20208Y-19512D01*
X20231Y-19494D01*
X20231Y-19493D01*
X20232Y-19493D01*
X20232Y-19492D01*
X20236Y-19487D01*
X20555Y-19169D01*
X20834Y-19169D01*
X20868Y-19192D01*
X20905Y-19209D01*
X20945Y-19217D01*
X20986Y-19218D01*
X21026Y-19211D01*
X21064Y-19197D01*
X21098Y-19175D01*
X21128Y-19147D01*
X21151Y-19114D01*
X21168Y-19076D01*
X21177Y-19037D01*
X21178Y-18990D01*
X21170Y-18950D01*
X21155Y-18912D01*
X21132Y-18878D01*
X21103Y-18849D01*
X21070Y-18826D01*
X21032Y-18811D01*
X20992Y-18802D01*
X20951Y-18802D01*
X20911Y-18809D01*
X20874Y-18825D01*
X20839Y-18847D01*
X20834Y-18851D01*
X20492Y-18851D01*
X20490Y-18851D01*
X20459Y-18854D01*
X20443Y-18858D01*
X20431Y-18862D01*
X20429Y-18862D01*
X20429Y-18863D01*
X20425Y-18865D01*
X20403Y-18877D01*
X20379Y-18896D01*
X20378Y-18897D01*
X20377Y-18898D01*
X20210Y-19065D01*
X20205Y-19052D01*
X20182Y-19018D01*
X20153Y-18989D01*
X20120Y-18966D01*
X20082Y-18951D01*
X20042Y-18942D01*
X20001Y-18942D01*
X19996Y-18942D01*
X19954Y-18900D01*
X19985Y-18907D01*
X20026Y-18908D01*
X20066Y-18901D01*
X20104Y-18887D01*
X20138Y-18865D01*
X20168Y-18837D01*
X20191Y-18804D01*
X20208Y-18766D01*
X20217Y-18727D01*
X20217Y-18703D01*
X20261Y-18703D01*
X20280Y-18699D01*
X20298Y-18692D01*
X20300Y-18690D01*
X20301Y-18691D01*
X20319Y-18699D01*
X20339Y-18703D01*
X20358Y-18703D01*
X20457Y-18703D01*
X20476Y-18699D01*
X20494Y-18692D01*
X20496Y-18690D01*
X20498Y-18691D01*
X20516Y-18699D01*
X20536Y-18703D01*
X20555Y-18703D01*
X20654Y-18703D01*
X20673Y-18699D01*
X20691Y-18692D01*
X20693Y-18690D01*
X20695Y-18691D01*
X20713Y-18699D01*
X20733Y-18703D01*
X20752Y-18703D01*
X20851Y-18703D01*
X20870Y-18699D01*
X20888Y-18692D01*
X20890Y-18690D01*
X20891Y-18691D01*
X20909Y-18699D01*
X20929Y-18703D01*
X20948Y-18703D01*
X21047Y-18703D01*
X21066Y-18699D01*
X21084Y-18692D01*
X21086Y-18690D01*
X21088Y-18691D01*
X21106Y-18699D01*
X21126Y-18703D01*
X21145Y-18703D01*
X21244Y-18703D01*
X21263Y-18699D01*
X21281Y-18692D01*
X21283Y-18690D01*
X21285Y-18691D01*
X21303Y-18699D01*
X21323Y-18703D01*
X21342Y-18703D01*
X21441Y-18703D01*
X21460Y-18699D01*
X21478Y-18692D01*
X21495Y-18681D01*
X21509Y-18667D01*
X21519Y-18651D01*
X21527Y-18633D01*
X21531Y-18613D01*
X21531Y-18594D01*
X21531Y-18160D01*
X22494Y-18160D01*
X22494Y-18160D01*
G37*
G54D12*
X22494Y-18160D02*
X22493Y-18163D01*
X22490Y-18188D01*
X22490Y-18190D01*
X22490Y-18554D01*
X22275Y-18769D01*
X21687Y-18769D01*
X21668Y-18773D01*
X21650Y-18780D01*
X21633Y-18791D01*
X21619Y-18805D01*
X21609Y-18821D01*
X21601Y-18839D01*
X21597Y-18859D01*
X21597Y-18878D01*
X21597Y-18977D01*
X21601Y-18996D01*
X21608Y-19014D01*
X21609Y-19016D01*
X21609Y-19018D01*
X21601Y-19036D01*
X21597Y-19056D01*
X21597Y-19075D01*
X21597Y-19174D01*
X21601Y-19193D01*
X21608Y-19211D01*
X21609Y-19213D01*
X21609Y-19215D01*
X21601Y-19233D01*
X21597Y-19253D01*
X21597Y-19272D01*
X21597Y-19371D01*
X21601Y-19390D01*
X21608Y-19408D01*
X21609Y-19410D01*
X21609Y-19411D01*
X21601Y-19429D01*
X21597Y-19449D01*
X21597Y-19468D01*
X21597Y-19567D01*
X21601Y-19586D01*
X21608Y-19604D01*
X21609Y-19606D01*
X21609Y-19608D01*
X21601Y-19626D01*
X21597Y-19646D01*
X21597Y-19665D01*
X21597Y-19764D01*
X21601Y-19783D01*
X21608Y-19801D01*
X21609Y-19803D01*
X21609Y-19805D01*
X21601Y-19823D01*
X21597Y-19843D01*
X21597Y-19862D01*
X21597Y-19961D01*
X21601Y-19980D01*
X21608Y-19998D01*
X21609Y-20000D01*
X21609Y-20001D01*
X21601Y-20019D01*
X21597Y-20039D01*
X21597Y-20058D01*
X21597Y-20157D01*
X21601Y-20176D01*
X21608Y-20194D01*
X21609Y-20196D01*
X21609Y-20198D01*
X21601Y-20216D01*
X21597Y-20236D01*
X21597Y-20255D01*
X21597Y-20354D01*
X21601Y-20373D01*
X21608Y-20391D01*
X21609Y-20393D01*
X21609Y-20395D01*
X21601Y-20413D01*
X21597Y-20433D01*
X21597Y-20452D01*
X21597Y-20551D01*
X21601Y-20570D01*
X21608Y-20588D01*
X21609Y-20590D01*
X21609Y-20591D01*
X21601Y-20609D01*
X21597Y-20629D01*
X21597Y-20648D01*
X21597Y-20747D01*
X21601Y-20766D01*
X21608Y-20784D01*
X21609Y-20786D01*
X21609Y-20788D01*
X21601Y-20806D01*
X21597Y-20821D01*
X21590Y-20816D01*
X21552Y-20801D01*
X21512Y-20792D01*
X21506Y-20792D01*
X21417Y-20703D01*
X21414Y-20699D01*
X21412Y-20698D01*
X21390Y-20679D01*
X21388Y-20678D01*
X21363Y-20664D01*
X21362Y-20663D01*
X21361Y-20663D01*
X21351Y-20660D01*
X21333Y-20654D01*
X21302Y-20651D01*
X21301Y-20651D01*
X21300Y-20651D01*
X21092Y-20651D01*
X21090Y-20651D01*
X21059Y-20654D01*
X21029Y-20663D01*
X21011Y-20673D01*
X21003Y-20677D01*
X20979Y-20696D01*
X20978Y-20697D01*
X20977Y-20698D01*
X20965Y-20710D01*
X20649Y-20710D01*
X20647Y-20710D01*
X20636Y-20711D01*
X20112Y-20711D01*
X20110Y-20711D01*
X20079Y-20714D01*
X20063Y-20718D01*
X20051Y-20722D01*
X20049Y-20722D01*
X20049Y-20723D01*
X20045Y-20725D01*
X20023Y-20737D01*
X19999Y-20756D01*
X19998Y-20757D01*
X19997Y-20758D01*
X19703Y-21052D01*
X19699Y-21056D01*
X19679Y-21080D01*
X19678Y-21081D01*
X19670Y-21076D01*
X19632Y-21061D01*
X19592Y-21052D01*
X19551Y-21052D01*
X19511Y-21059D01*
X19474Y-21075D01*
X19439Y-21097D01*
X19410Y-21125D01*
X19387Y-21159D01*
X19371Y-21196D01*
X19362Y-21236D01*
X19362Y-21277D01*
X19365Y-21297D01*
X19356Y-21297D01*
X19337Y-21301D01*
X19319Y-21308D01*
X19316Y-21309D01*
X19315Y-21309D01*
X19297Y-21301D01*
X19277Y-21297D01*
X19258Y-21297D01*
X19159Y-21297D01*
X19144Y-21300D01*
X19370Y-21074D01*
X19371Y-21074D01*
X19371Y-21073D01*
X19372Y-21073D01*
X19391Y-21050D01*
X19392Y-21049D01*
X19396Y-21041D01*
X19406Y-21023D01*
X19406Y-21021D01*
X19416Y-20993D01*
X19419Y-20962D01*
X19419Y-20960D01*
X19419Y-20592D01*
X19419Y-20590D01*
X19416Y-20561D01*
X19416Y-20559D01*
X19411Y-20543D01*
X19408Y-20531D01*
X19407Y-20529D01*
X19394Y-20503D01*
X19374Y-20479D01*
X19373Y-20478D01*
X19372Y-20477D01*
X19232Y-20338D01*
X19212Y-20308D01*
X19183Y-20279D01*
X19150Y-20256D01*
X19112Y-20241D01*
X19072Y-20232D01*
X19031Y-20232D01*
X19003Y-20236D01*
X18999Y-20217D01*
X18992Y-20199D01*
X18990Y-20196D01*
X18991Y-20195D01*
X18999Y-20177D01*
X19001Y-20166D01*
X19028Y-20169D01*
X19030Y-20169D01*
X19188Y-20169D01*
X19208Y-20182D01*
X19245Y-20199D01*
X19285Y-20207D01*
X19326Y-20208D01*
X19366Y-20201D01*
X19404Y-20187D01*
X19438Y-20165D01*
X19468Y-20137D01*
X19491Y-20104D01*
X19508Y-20066D01*
X19517Y-20027D01*
X19518Y-19980D01*
X19510Y-19940D01*
X19495Y-19902D01*
X19472Y-19868D01*
X19443Y-19839D01*
X19410Y-19816D01*
X19372Y-19801D01*
X19337Y-19793D01*
X19338Y-19760D01*
X19330Y-19720D01*
X19315Y-19682D01*
X19292Y-19648D01*
X19263Y-19619D01*
X19230Y-19596D01*
X19192Y-19581D01*
X19152Y-19572D01*
X19141Y-19572D01*
X19118Y-19559D01*
X19117Y-19558D01*
X19116Y-19558D01*
X19106Y-19555D01*
X19088Y-19549D01*
X19057Y-19546D01*
X19056Y-19546D01*
X19055Y-19546D01*
X19003Y-19546D01*
X19003Y-19449D01*
X18999Y-19430D01*
X18992Y-19412D01*
X18990Y-19409D01*
X18991Y-19409D01*
X18999Y-19391D01*
X19003Y-19371D01*
X19003Y-19352D01*
X19003Y-19253D01*
X18999Y-19234D01*
X18992Y-19216D01*
X18982Y-19201D01*
X18988Y-19190D01*
X18991Y-19173D01*
X18991Y-19161D01*
X18969Y-19139D01*
X18637Y-19139D01*
X18637Y-19144D01*
X18579Y-19144D01*
X18579Y-19139D01*
X18247Y-19139D01*
X18225Y-19161D01*
X18225Y-19173D01*
X18226Y-19182D01*
X18071Y-19182D01*
X18071Y-18591D01*
X18071Y-18329D01*
X18071Y-18271D01*
X18071Y-18009D01*
X18049Y-17987D01*
X17966Y-17987D01*
X17949Y-17990D01*
X17933Y-17997D01*
X17919Y-18007D01*
X17907Y-18019D01*
X17897Y-18033D01*
X17890Y-18049D01*
X17887Y-18066D01*
X17887Y-18083D01*
X17887Y-18249D01*
X17909Y-18271D01*
X18071Y-18271D01*
X18071Y-18329D01*
X17909Y-18329D01*
X17887Y-18351D01*
X17887Y-18517D01*
X17887Y-18534D01*
X17890Y-18551D01*
X17897Y-18567D01*
X17907Y-18581D01*
X17919Y-18593D01*
X17933Y-18603D01*
X17949Y-18610D01*
X17966Y-18613D01*
X18049Y-18613D01*
X18071Y-18591D01*
X18071Y-19182D01*
X17688Y-19182D01*
X17665Y-19183D01*
X17655Y-19179D01*
X17635Y-19175D01*
X17616Y-19175D01*
X17419Y-19175D01*
X17365Y-19175D01*
X17346Y-19179D01*
X17328Y-19186D01*
X17311Y-19197D01*
X17297Y-19211D01*
X17287Y-19227D01*
X17279Y-19245D01*
X17275Y-19265D01*
X17275Y-19284D01*
X17275Y-19735D01*
X17279Y-19754D01*
X17286Y-19772D01*
X17297Y-19789D01*
X17308Y-19800D01*
X17297Y-19811D01*
X17287Y-19827D01*
X17279Y-19845D01*
X17275Y-19865D01*
X17275Y-19884D01*
X17275Y-20335D01*
X17279Y-20354D01*
X17286Y-20372D01*
X17297Y-20389D01*
X17308Y-20400D01*
X17297Y-20411D01*
X17287Y-20427D01*
X17279Y-20445D01*
X17277Y-20453D01*
X17272Y-20452D01*
X17231Y-20452D01*
X17191Y-20459D01*
X17154Y-20475D01*
X17119Y-20497D01*
X17113Y-20502D01*
X17113Y-20483D01*
X17113Y-20466D01*
X17110Y-20449D01*
X17103Y-20433D01*
X17093Y-20419D01*
X17081Y-20407D01*
X17089Y-20403D01*
X17103Y-20389D01*
X17113Y-20373D01*
X17121Y-20355D01*
X17125Y-20335D01*
X17125Y-20316D01*
X17125Y-19865D01*
X17121Y-19846D01*
X17114Y-19828D01*
X17103Y-19811D01*
X17092Y-19800D01*
X17103Y-19789D01*
X17113Y-19773D01*
X17121Y-19755D01*
X17125Y-19735D01*
X17125Y-19716D01*
X17125Y-19265D01*
X17121Y-19246D01*
X17114Y-19228D01*
X17103Y-19211D01*
X17089Y-19197D01*
X17073Y-19187D01*
X17055Y-19179D01*
X17035Y-19175D01*
X17016Y-19175D01*
X16765Y-19175D01*
X16746Y-19179D01*
X16728Y-19186D01*
X16711Y-19197D01*
X16697Y-19211D01*
X16687Y-19227D01*
X16679Y-19245D01*
X16675Y-19265D01*
X16675Y-19284D01*
X16675Y-19541D01*
X16387Y-19828D01*
X16367Y-19778D01*
X16316Y-19702D01*
X16251Y-19636D01*
X16175Y-19585D01*
X16090Y-19549D01*
X15999Y-19530D01*
X15907Y-19530D01*
X15817Y-19547D01*
X15731Y-19581D01*
X15721Y-19587D01*
X15650Y-19516D01*
X15649Y-19515D01*
X15630Y-19499D01*
X15608Y-19488D01*
X15606Y-19487D01*
X15598Y-19484D01*
X15584Y-19480D01*
X15559Y-19477D01*
X15557Y-19477D01*
X14729Y-19477D01*
X14729Y-18782D01*
X15579Y-18782D01*
X15565Y-18817D01*
X15546Y-18907D01*
X15544Y-18999D01*
X15561Y-19090D01*
X15595Y-19176D01*
X15645Y-19253D01*
X15709Y-19320D01*
X15785Y-19372D01*
X15869Y-19409D01*
X15959Y-19429D01*
X16051Y-19431D01*
X16142Y-19415D01*
X16228Y-19382D01*
X16306Y-19332D01*
X16372Y-19269D01*
X16426Y-19193D01*
X16458Y-19119D01*
X16938Y-19119D01*
X16940Y-19119D01*
X16969Y-19116D01*
X16971Y-19116D01*
X16987Y-19111D01*
X16999Y-19108D01*
X17001Y-19107D01*
X17027Y-19094D01*
X17028Y-19092D01*
X17051Y-19074D01*
X17051Y-19073D01*
X17052Y-19073D01*
X17052Y-19072D01*
X17056Y-19067D01*
X17096Y-19027D01*
X17100Y-19031D01*
X17106Y-19025D01*
X17335Y-19025D01*
X17354Y-19021D01*
X17372Y-19014D01*
X17389Y-19003D01*
X17403Y-18989D01*
X17413Y-18973D01*
X17419Y-18959D01*
X17421Y-18955D01*
X17425Y-18935D01*
X17425Y-18916D01*
X17425Y-18665D01*
X17421Y-18646D01*
X17419Y-18640D01*
X17419Y-18288D01*
X17413Y-18282D01*
X17413Y-18251D01*
X17391Y-18229D01*
X17360Y-18229D01*
X17302Y-18171D01*
X17391Y-18171D01*
X17413Y-18149D01*
X17413Y-18066D01*
X17410Y-18049D01*
X17403Y-18033D01*
X17393Y-18019D01*
X17381Y-18007D01*
X17367Y-17997D01*
X17351Y-17990D01*
X17334Y-17987D01*
X17317Y-17987D01*
X17159Y-17987D01*
X17151Y-17987D01*
X17118Y-17987D01*
X17100Y-17969D01*
X17081Y-17987D01*
X17049Y-17987D01*
X17041Y-17987D01*
X16883Y-17987D01*
X16866Y-17987D01*
X16849Y-17990D01*
X16833Y-17997D01*
X16819Y-18007D01*
X16807Y-18019D01*
X16797Y-18033D01*
X16790Y-18049D01*
X16787Y-18066D01*
X16787Y-18149D01*
X16809Y-18171D01*
X16898Y-18171D01*
X16840Y-18229D01*
X16809Y-18229D01*
X16787Y-18251D01*
X16787Y-18282D01*
X16781Y-18288D01*
X16781Y-18640D01*
X16779Y-18645D01*
X16775Y-18665D01*
X16775Y-18684D01*
X16775Y-18801D01*
X16457Y-18801D01*
X16440Y-18759D01*
X16590Y-18609D01*
X16591Y-18609D01*
X16591Y-18608D01*
X16592Y-18608D01*
X16611Y-18585D01*
X16612Y-18584D01*
X16624Y-18561D01*
X16626Y-18558D01*
X16626Y-18557D01*
X16627Y-18556D01*
X16628Y-18550D01*
X16636Y-18528D01*
X16639Y-18497D01*
X16639Y-18496D01*
X16639Y-18495D01*
X16639Y-17835D01*
X16666Y-17831D01*
X16704Y-17817D01*
X16738Y-17795D01*
X16768Y-17767D01*
X16791Y-17734D01*
X16808Y-17696D01*
X16817Y-17657D01*
X16818Y-17610D01*
X16810Y-17570D01*
X16802Y-17550D01*
X17144Y-17550D01*
X17349Y-17755D01*
X17350Y-17756D01*
X17369Y-17772D01*
X17391Y-17783D01*
X17392Y-17784D01*
X17408Y-17788D01*
X17415Y-17791D01*
X17416Y-17791D01*
X17440Y-17794D01*
X17442Y-17794D01*
X19016Y-17794D01*
X19088Y-17866D01*
X19088Y-17953D01*
X19081Y-17965D01*
X19073Y-17983D01*
X19069Y-18003D01*
X19069Y-18022D01*
X19069Y-18204D01*
X19057Y-18193D01*
X19054Y-18189D01*
X19052Y-18188D01*
X19030Y-18169D01*
X19028Y-18168D01*
X19003Y-18154D01*
X19002Y-18153D01*
X19001Y-18153D01*
X18991Y-18150D01*
X18973Y-18144D01*
X18942Y-18141D01*
X18941Y-18141D01*
X18940Y-18141D01*
X18925Y-18141D01*
X18925Y-18065D01*
X18921Y-18046D01*
X18914Y-18028D01*
X18903Y-18011D01*
X18889Y-17997D01*
X18873Y-17987D01*
X18855Y-17979D01*
X18835Y-17975D01*
X18816Y-17975D01*
X18565Y-17975D01*
X18546Y-17979D01*
X18528Y-17986D01*
X18511Y-17997D01*
X18497Y-18011D01*
X18487Y-18027D01*
X18479Y-18045D01*
X18475Y-18065D01*
X18475Y-18084D01*
X18475Y-18151D01*
X18469Y-18153D01*
X18455Y-18160D01*
X18442Y-18167D01*
X18418Y-18187D01*
X18417Y-18188D01*
X18313Y-18292D01*
X18313Y-18249D01*
X18313Y-18241D01*
X18313Y-18083D01*
X18313Y-18066D01*
X18310Y-18049D01*
X18303Y-18033D01*
X18293Y-18019D01*
X18281Y-18007D01*
X18267Y-17997D01*
X18251Y-17990D01*
X18234Y-17987D01*
X18151Y-17987D01*
X18129Y-18009D01*
X18129Y-18241D01*
X18129Y-18271D01*
X18129Y-18329D01*
X18129Y-18359D01*
X18129Y-18591D01*
X18151Y-18613D01*
X18182Y-18613D01*
X18182Y-18647D01*
X18189Y-18687D01*
X18204Y-18725D01*
X18226Y-18759D01*
X18253Y-18788D01*
X18249Y-18791D01*
X18235Y-18805D01*
X18225Y-18821D01*
X18217Y-18839D01*
X18213Y-18859D01*
X18213Y-18878D01*
X18213Y-18977D01*
X18217Y-18996D01*
X18224Y-19014D01*
X18233Y-19028D01*
X18228Y-19040D01*
X18225Y-19057D01*
X18225Y-19069D01*
X18247Y-19091D01*
X18579Y-19091D01*
X18579Y-19086D01*
X18637Y-19086D01*
X18637Y-19091D01*
X18969Y-19091D01*
X18991Y-19069D01*
X18991Y-19057D01*
X18988Y-19040D01*
X18982Y-19028D01*
X18991Y-19015D01*
X18999Y-18997D01*
X19003Y-18977D01*
X19003Y-18958D01*
X19003Y-18859D01*
X18999Y-18840D01*
X18995Y-18829D01*
X19005Y-18840D01*
X19006Y-18841D01*
X19007Y-18842D01*
X19012Y-18846D01*
X19030Y-18861D01*
X19032Y-18862D01*
X19057Y-18876D01*
X19059Y-18877D01*
X19064Y-18878D01*
X19087Y-18886D01*
X19118Y-18889D01*
X19119Y-18889D01*
X19120Y-18889D01*
X19204Y-18889D01*
X19805Y-19490D01*
X19806Y-19491D01*
X19807Y-19492D01*
X19830Y-19511D01*
X19831Y-19512D01*
X19853Y-19524D01*
X19857Y-19526D01*
X19859Y-19527D01*
X19864Y-19528D01*
X19887Y-19536D01*
X19918Y-19539D01*
X19919Y-19539D01*
X19920Y-19539D01*
X20118Y-19539D01*
X20120Y-19539D01*
X20149Y-19536D01*
X20151Y-19536D01*
X20167Y-19531D01*
X20179Y-19528D01*
X20181Y-19527D01*
X20207Y-19514D01*
X20208Y-19512D01*
X20231Y-19494D01*
X20231Y-19493D01*
X20232Y-19493D01*
X20232Y-19492D01*
X20236Y-19487D01*
X20555Y-19169D01*
X20834Y-19169D01*
X20868Y-19192D01*
X20905Y-19209D01*
X20945Y-19217D01*
X20986Y-19218D01*
X21026Y-19211D01*
X21064Y-19197D01*
X21098Y-19175D01*
X21128Y-19147D01*
X21151Y-19114D01*
X21168Y-19076D01*
X21177Y-19037D01*
X21178Y-18990D01*
X21170Y-18950D01*
X21155Y-18912D01*
X21132Y-18878D01*
X21103Y-18849D01*
X21070Y-18826D01*
X21032Y-18811D01*
X20992Y-18802D01*
X20951Y-18802D01*
X20911Y-18809D01*
X20874Y-18825D01*
X20839Y-18847D01*
X20834Y-18851D01*
X20492Y-18851D01*
X20490Y-18851D01*
X20459Y-18854D01*
X20443Y-18858D01*
X20431Y-18862D01*
X20429Y-18862D01*
X20429Y-18863D01*
X20425Y-18865D01*
X20403Y-18877D01*
X20379Y-18896D01*
X20378Y-18897D01*
X20377Y-18898D01*
X20210Y-19065D01*
X20205Y-19052D01*
X20182Y-19018D01*
X20153Y-18989D01*
X20120Y-18966D01*
X20082Y-18951D01*
X20042Y-18942D01*
X20001Y-18942D01*
X19996Y-18942D01*
X19954Y-18900D01*
X19985Y-18907D01*
X20026Y-18908D01*
X20066Y-18901D01*
X20104Y-18887D01*
X20138Y-18865D01*
X20168Y-18837D01*
X20191Y-18804D01*
X20208Y-18766D01*
X20217Y-18727D01*
X20217Y-18703D01*
X20261Y-18703D01*
X20280Y-18699D01*
X20298Y-18692D01*
X20300Y-18690D01*
X20301Y-18691D01*
X20319Y-18699D01*
X20339Y-18703D01*
X20358Y-18703D01*
X20457Y-18703D01*
X20476Y-18699D01*
X20494Y-18692D01*
X20496Y-18690D01*
X20498Y-18691D01*
X20516Y-18699D01*
X20536Y-18703D01*
X20555Y-18703D01*
X20654Y-18703D01*
X20673Y-18699D01*
X20691Y-18692D01*
X20693Y-18690D01*
X20695Y-18691D01*
X20713Y-18699D01*
X20733Y-18703D01*
X20752Y-18703D01*
X20851Y-18703D01*
X20870Y-18699D01*
X20888Y-18692D01*
X20890Y-18690D01*
X20891Y-18691D01*
X20909Y-18699D01*
X20929Y-18703D01*
X20948Y-18703D01*
X21047Y-18703D01*
X21066Y-18699D01*
X21084Y-18692D01*
X21086Y-18690D01*
X21088Y-18691D01*
X21106Y-18699D01*
X21126Y-18703D01*
X21145Y-18703D01*
X21244Y-18703D01*
X21263Y-18699D01*
X21281Y-18692D01*
X21283Y-18690D01*
X21285Y-18691D01*
X21303Y-18699D01*
X21323Y-18703D01*
X21342Y-18703D01*
X21441Y-18703D01*
X21460Y-18699D01*
X21478Y-18692D01*
X21495Y-18681D01*
X21509Y-18667D01*
X21519Y-18651D01*
X21527Y-18633D01*
X21531Y-18613D01*
X21531Y-18594D01*
X21531Y-18160D01*
X22494Y-18160D01*
G54D10*
G36*
X28320Y-19546D02*
X28279Y-19587D01*
X28275Y-19585D01*
X28190Y-19549D01*
X28099Y-19530D01*
X28007Y-19530D01*
X27917Y-19547D01*
X27831Y-19581D01*
X27754Y-19632D01*
X27688Y-19696D01*
X27636Y-19772D01*
X27600Y-19857D01*
X27581Y-19947D01*
X27579Y-20039D01*
X27596Y-20130D01*
X27630Y-20216D01*
X27680Y-20293D01*
X27744Y-20360D01*
X27758Y-20370D01*
X27750Y-20370D01*
X27725Y-20372D01*
X27700Y-20380D01*
X27678Y-20392D01*
X27663Y-20404D01*
X27659Y-20407D01*
X27658Y-20408D01*
X27657Y-20409D01*
X27379Y-20687D01*
X27378Y-20688D01*
X27362Y-20707D01*
X27351Y-20729D01*
X27350Y-20731D01*
X27347Y-20739D01*
X27343Y-20753D01*
X27340Y-20778D01*
X27340Y-20780D01*
X27340Y-21694D01*
X27132Y-21902D01*
X27132Y-21509D01*
X27132Y-21490D01*
X27132Y-20821D01*
X27128Y-20802D01*
X27121Y-20784D01*
X27110Y-20767D01*
X27096Y-20753D01*
X27080Y-20743D01*
X27062Y-20735D01*
X27042Y-20731D01*
X27023Y-20731D01*
X26628Y-20731D01*
X26609Y-20735D01*
X26591Y-20742D01*
X26574Y-20753D01*
X26560Y-20767D01*
X26550Y-20783D01*
X26542Y-20801D01*
X26538Y-20821D01*
X26538Y-20840D01*
X26538Y-21509D01*
X26542Y-21528D01*
X26549Y-21546D01*
X26560Y-21563D01*
X26574Y-21577D01*
X26590Y-21587D01*
X26608Y-21595D01*
X26628Y-21599D01*
X26647Y-21599D01*
X27042Y-21599D01*
X27061Y-21595D01*
X27079Y-21588D01*
X27096Y-21577D01*
X27110Y-21563D01*
X27120Y-21547D01*
X27128Y-21529D01*
X27132Y-21509D01*
X27132Y-21902D01*
X27082Y-21952D01*
X26450Y-21952D01*
X26450Y-21508D01*
X26450Y-21216D01*
X26450Y-21114D01*
X26450Y-20822D01*
X26450Y-19578D01*
X26450Y-19286D01*
X26450Y-19184D01*
X26450Y-18892D01*
X26447Y-18875D01*
X26440Y-18859D01*
X26430Y-18845D01*
X26418Y-18833D01*
X26404Y-18823D01*
X26388Y-18816D01*
X26371Y-18813D01*
X26354Y-18813D01*
X26334Y-18813D01*
X26351Y-18810D01*
X26367Y-18803D01*
X26381Y-18793D01*
X26393Y-18781D01*
X26403Y-18767D01*
X26410Y-18751D01*
X26413Y-18734D01*
X26413Y-18717D01*
X26413Y-18551D01*
X26391Y-18529D01*
X26229Y-18529D01*
X26229Y-18791D01*
X26251Y-18813D01*
X26216Y-18813D01*
X26194Y-18835D01*
X26194Y-19206D01*
X26428Y-19206D01*
X26450Y-19184D01*
X26450Y-19286D01*
X26428Y-19264D01*
X26194Y-19264D01*
X26194Y-19635D01*
X26216Y-19657D01*
X26354Y-19657D01*
X26371Y-19657D01*
X26388Y-19654D01*
X26404Y-19647D01*
X26418Y-19637D01*
X26430Y-19625D01*
X26440Y-19611D01*
X26447Y-19595D01*
X26450Y-19578D01*
X26450Y-20822D01*
X26447Y-20805D01*
X26440Y-20789D01*
X26430Y-20775D01*
X26418Y-20763D01*
X26404Y-20753D01*
X26388Y-20746D01*
X26371Y-20743D01*
X26354Y-20743D01*
X26216Y-20743D01*
X26194Y-20765D01*
X26194Y-21136D01*
X26428Y-21136D01*
X26450Y-21114D01*
X26450Y-21216D01*
X26428Y-21194D01*
X26194Y-21194D01*
X26194Y-21565D01*
X26216Y-21587D01*
X26354Y-21587D01*
X26371Y-21587D01*
X26388Y-21584D01*
X26404Y-21577D01*
X26418Y-21567D01*
X26430Y-21555D01*
X26440Y-21541D01*
X26447Y-21525D01*
X26450Y-21508D01*
X26450Y-21952D01*
X26171Y-21952D01*
X26171Y-18791D01*
X26171Y-18529D01*
X26009Y-18529D01*
X25987Y-18551D01*
X25987Y-18717D01*
X25987Y-18734D01*
X25990Y-18751D01*
X25997Y-18767D01*
X26007Y-18781D01*
X26019Y-18793D01*
X26033Y-18803D01*
X26049Y-18810D01*
X26066Y-18813D01*
X25976Y-18813D01*
X25959Y-18813D01*
X25942Y-18816D01*
X25926Y-18823D01*
X25912Y-18833D01*
X25900Y-18845D01*
X25890Y-18859D01*
X25883Y-18875D01*
X25880Y-18892D01*
X25880Y-19184D01*
X25902Y-19206D01*
X26136Y-19206D01*
X26136Y-18835D01*
X26114Y-18813D01*
X26149Y-18813D01*
X26171Y-18791D01*
X26171Y-21952D01*
X26136Y-21952D01*
X26136Y-21565D01*
X26136Y-21194D01*
X26136Y-21136D01*
X26136Y-20765D01*
X26136Y-19635D01*
X26136Y-19264D01*
X25902Y-19264D01*
X25880Y-19286D01*
X25880Y-19578D01*
X25883Y-19595D01*
X25890Y-19611D01*
X25900Y-19625D01*
X25912Y-19637D01*
X25926Y-19647D01*
X25942Y-19654D01*
X25959Y-19657D01*
X25976Y-19657D01*
X26114Y-19657D01*
X26136Y-19635D01*
X26136Y-20765D01*
X26114Y-20743D01*
X25976Y-20743D01*
X25959Y-20743D01*
X25942Y-20746D01*
X25926Y-20753D01*
X25912Y-20763D01*
X25900Y-20775D01*
X25890Y-20789D01*
X25883Y-20805D01*
X25880Y-20822D01*
X25880Y-21114D01*
X25902Y-21136D01*
X26136Y-21136D01*
X26136Y-21194D01*
X25902Y-21194D01*
X25880Y-21216D01*
X25880Y-21508D01*
X25883Y-21525D01*
X25890Y-21541D01*
X25900Y-21555D01*
X25912Y-21567D01*
X25926Y-21577D01*
X25942Y-21584D01*
X25959Y-21587D01*
X25976Y-21587D01*
X26114Y-21587D01*
X26136Y-21565D01*
X26136Y-21952D01*
X25946Y-21952D01*
X25751Y-21757D01*
X25750Y-21756D01*
X25731Y-21740D01*
X25709Y-21729D01*
X25707Y-21728D01*
X25699Y-21725D01*
X25685Y-21721D01*
X25660Y-21718D01*
X25658Y-21718D01*
X25413Y-21718D01*
X25413Y-18834D01*
X25413Y-18817D01*
X25413Y-18651D01*
X25413Y-18549D01*
X25413Y-18383D01*
X25413Y-18366D01*
X25410Y-18349D01*
X25403Y-18333D01*
X25393Y-18319D01*
X25381Y-18307D01*
X25367Y-18297D01*
X25351Y-18290D01*
X25334Y-18287D01*
X25251Y-18287D01*
X25229Y-18309D01*
X25229Y-18571D01*
X25391Y-18571D01*
X25413Y-18549D01*
X25413Y-18651D01*
X25391Y-18629D01*
X25229Y-18629D01*
X25229Y-18891D01*
X25251Y-18913D01*
X25334Y-18913D01*
X25351Y-18910D01*
X25367Y-18903D01*
X25381Y-18893D01*
X25393Y-18881D01*
X25403Y-18867D01*
X25410Y-18851D01*
X25413Y-18834D01*
X25413Y-21718D01*
X25171Y-21718D01*
X25171Y-18891D01*
X25171Y-18629D01*
X25009Y-18629D01*
X24987Y-18651D01*
X24987Y-18817D01*
X24987Y-18834D01*
X24990Y-18851D01*
X24997Y-18867D01*
X25007Y-18881D01*
X25019Y-18893D01*
X25033Y-18903D01*
X25049Y-18910D01*
X25066Y-18913D01*
X25149Y-18913D01*
X25171Y-18891D01*
X25171Y-21718D01*
X24514Y-21718D01*
X24393Y-21597D01*
X24392Y-21596D01*
X24373Y-21580D01*
X24351Y-21569D01*
X24349Y-21568D01*
X24341Y-21565D01*
X24327Y-21561D01*
X24302Y-21558D01*
X24300Y-21558D01*
X23733Y-21558D01*
X23732Y-21558D01*
X23716Y-21559D01*
X23714Y-21559D01*
X23682Y-21552D01*
X23641Y-21552D01*
X23601Y-21559D01*
X23582Y-21567D01*
X23582Y-20753D01*
X23582Y-20752D01*
X23580Y-20727D01*
X23572Y-20703D01*
X23572Y-20702D01*
X23560Y-20681D01*
X23560Y-20680D01*
X23548Y-20665D01*
X23545Y-20661D01*
X23544Y-20660D01*
X23537Y-20654D01*
X23493Y-20610D01*
X23504Y-20607D01*
X23538Y-20585D01*
X23568Y-20557D01*
X23591Y-20524D01*
X23608Y-20486D01*
X23617Y-20447D01*
X23618Y-20400D01*
X23610Y-20360D01*
X23595Y-20322D01*
X23572Y-20288D01*
X23543Y-20259D01*
X23510Y-20236D01*
X23472Y-20221D01*
X23432Y-20212D01*
X23391Y-20212D01*
X23351Y-20219D01*
X23314Y-20235D01*
X23299Y-20243D01*
X22636Y-19580D01*
X22636Y-19529D01*
X22958Y-19206D01*
X22963Y-19203D01*
X22963Y-19202D01*
X22964Y-19202D01*
X23115Y-19050D01*
X24779Y-19050D01*
X24780Y-19050D01*
X24805Y-19048D01*
X24828Y-19040D01*
X24830Y-19040D01*
X24844Y-19032D01*
X24851Y-19029D01*
X24852Y-19028D01*
X24871Y-19013D01*
X24872Y-19012D01*
X24911Y-18973D01*
X24912Y-18972D01*
X24927Y-18953D01*
X24928Y-18953D01*
X24939Y-18931D01*
X24940Y-18930D01*
X24944Y-18914D01*
X24947Y-18907D01*
X24947Y-18906D01*
X24950Y-18882D01*
X24950Y-18880D01*
X24950Y-18388D01*
X24990Y-18347D01*
X24990Y-18349D01*
X24987Y-18366D01*
X24987Y-18383D01*
X24987Y-18549D01*
X25009Y-18571D01*
X25171Y-18571D01*
X25171Y-18309D01*
X25149Y-18287D01*
X25066Y-18287D01*
X25049Y-18290D01*
X25047Y-18290D01*
X25056Y-18282D01*
X25987Y-18282D01*
X25987Y-18283D01*
X25987Y-18449D01*
X26009Y-18471D01*
X26141Y-18471D01*
X26171Y-18471D01*
X26229Y-18471D01*
X26259Y-18471D01*
X26391Y-18471D01*
X26413Y-18449D01*
X26413Y-18283D01*
X26413Y-18282D01*
X26575Y-18282D01*
X26575Y-18284D01*
X26575Y-18735D01*
X26579Y-18754D01*
X26586Y-18772D01*
X26597Y-18789D01*
X26611Y-18803D01*
X26612Y-18804D01*
X26609Y-18805D01*
X26591Y-18812D01*
X26574Y-18823D01*
X26560Y-18837D01*
X26550Y-18853D01*
X26542Y-18871D01*
X26538Y-18891D01*
X26538Y-18910D01*
X26538Y-19579D01*
X26542Y-19598D01*
X26549Y-19616D01*
X26560Y-19633D01*
X26574Y-19647D01*
X26590Y-19657D01*
X26608Y-19665D01*
X26628Y-19669D01*
X26647Y-19669D01*
X27042Y-19669D01*
X27061Y-19665D01*
X27079Y-19658D01*
X27096Y-19647D01*
X27110Y-19633D01*
X27120Y-19617D01*
X27128Y-19599D01*
X27132Y-19579D01*
X27132Y-19560D01*
X27132Y-19420D01*
X27659Y-19420D01*
X27660Y-19420D01*
X27685Y-19418D01*
X27708Y-19410D01*
X27710Y-19410D01*
X27713Y-19407D01*
X27720Y-19412D01*
X27804Y-19449D01*
X27894Y-19469D01*
X27986Y-19471D01*
X28077Y-19455D01*
X28163Y-19422D01*
X28241Y-19372D01*
X28307Y-19309D01*
X28320Y-19290D01*
X28320Y-19546D01*
X28320Y-19546D01*
G37*
G54D12*
X28320Y-19546D02*
X28279Y-19587D01*
X28275Y-19585D01*
X28190Y-19549D01*
X28099Y-19530D01*
X28007Y-19530D01*
X27917Y-19547D01*
X27831Y-19581D01*
X27754Y-19632D01*
X27688Y-19696D01*
X27636Y-19772D01*
X27600Y-19857D01*
X27581Y-19947D01*
X27579Y-20039D01*
X27596Y-20130D01*
X27630Y-20216D01*
X27680Y-20293D01*
X27744Y-20360D01*
X27758Y-20370D01*
X27750Y-20370D01*
X27725Y-20372D01*
X27700Y-20380D01*
X27678Y-20392D01*
X27663Y-20404D01*
X27659Y-20407D01*
X27658Y-20408D01*
X27657Y-20409D01*
X27379Y-20687D01*
X27378Y-20688D01*
X27362Y-20707D01*
X27351Y-20729D01*
X27350Y-20731D01*
X27347Y-20739D01*
X27343Y-20753D01*
X27340Y-20778D01*
X27340Y-20780D01*
X27340Y-21694D01*
X27132Y-21902D01*
X27132Y-21509D01*
X27132Y-21490D01*
X27132Y-20821D01*
X27128Y-20802D01*
X27121Y-20784D01*
X27110Y-20767D01*
X27096Y-20753D01*
X27080Y-20743D01*
X27062Y-20735D01*
X27042Y-20731D01*
X27023Y-20731D01*
X26628Y-20731D01*
X26609Y-20735D01*
X26591Y-20742D01*
X26574Y-20753D01*
X26560Y-20767D01*
X26550Y-20783D01*
X26542Y-20801D01*
X26538Y-20821D01*
X26538Y-20840D01*
X26538Y-21509D01*
X26542Y-21528D01*
X26549Y-21546D01*
X26560Y-21563D01*
X26574Y-21577D01*
X26590Y-21587D01*
X26608Y-21595D01*
X26628Y-21599D01*
X26647Y-21599D01*
X27042Y-21599D01*
X27061Y-21595D01*
X27079Y-21588D01*
X27096Y-21577D01*
X27110Y-21563D01*
X27120Y-21547D01*
X27128Y-21529D01*
X27132Y-21509D01*
X27132Y-21902D01*
X27082Y-21952D01*
X26450Y-21952D01*
X26450Y-21508D01*
X26450Y-21216D01*
X26450Y-21114D01*
X26450Y-20822D01*
X26450Y-19578D01*
X26450Y-19286D01*
X26450Y-19184D01*
X26450Y-18892D01*
X26447Y-18875D01*
X26440Y-18859D01*
X26430Y-18845D01*
X26418Y-18833D01*
X26404Y-18823D01*
X26388Y-18816D01*
X26371Y-18813D01*
X26354Y-18813D01*
X26334Y-18813D01*
X26351Y-18810D01*
X26367Y-18803D01*
X26381Y-18793D01*
X26393Y-18781D01*
X26403Y-18767D01*
X26410Y-18751D01*
X26413Y-18734D01*
X26413Y-18717D01*
X26413Y-18551D01*
X26391Y-18529D01*
X26229Y-18529D01*
X26229Y-18791D01*
X26251Y-18813D01*
X26216Y-18813D01*
X26194Y-18835D01*
X26194Y-19206D01*
X26428Y-19206D01*
X26450Y-19184D01*
X26450Y-19286D01*
X26428Y-19264D01*
X26194Y-19264D01*
X26194Y-19635D01*
X26216Y-19657D01*
X26354Y-19657D01*
X26371Y-19657D01*
X26388Y-19654D01*
X26404Y-19647D01*
X26418Y-19637D01*
X26430Y-19625D01*
X26440Y-19611D01*
X26447Y-19595D01*
X26450Y-19578D01*
X26450Y-20822D01*
X26447Y-20805D01*
X26440Y-20789D01*
X26430Y-20775D01*
X26418Y-20763D01*
X26404Y-20753D01*
X26388Y-20746D01*
X26371Y-20743D01*
X26354Y-20743D01*
X26216Y-20743D01*
X26194Y-20765D01*
X26194Y-21136D01*
X26428Y-21136D01*
X26450Y-21114D01*
X26450Y-21216D01*
X26428Y-21194D01*
X26194Y-21194D01*
X26194Y-21565D01*
X26216Y-21587D01*
X26354Y-21587D01*
X26371Y-21587D01*
X26388Y-21584D01*
X26404Y-21577D01*
X26418Y-21567D01*
X26430Y-21555D01*
X26440Y-21541D01*
X26447Y-21525D01*
X26450Y-21508D01*
X26450Y-21952D01*
X26171Y-21952D01*
X26171Y-18791D01*
X26171Y-18529D01*
X26009Y-18529D01*
X25987Y-18551D01*
X25987Y-18717D01*
X25987Y-18734D01*
X25990Y-18751D01*
X25997Y-18767D01*
X26007Y-18781D01*
X26019Y-18793D01*
X26033Y-18803D01*
X26049Y-18810D01*
X26066Y-18813D01*
X25976Y-18813D01*
X25959Y-18813D01*
X25942Y-18816D01*
X25926Y-18823D01*
X25912Y-18833D01*
X25900Y-18845D01*
X25890Y-18859D01*
X25883Y-18875D01*
X25880Y-18892D01*
X25880Y-19184D01*
X25902Y-19206D01*
X26136Y-19206D01*
X26136Y-18835D01*
X26114Y-18813D01*
X26149Y-18813D01*
X26171Y-18791D01*
X26171Y-21952D01*
X26136Y-21952D01*
X26136Y-21565D01*
X26136Y-21194D01*
X26136Y-21136D01*
X26136Y-20765D01*
X26136Y-19635D01*
X26136Y-19264D01*
X25902Y-19264D01*
X25880Y-19286D01*
X25880Y-19578D01*
X25883Y-19595D01*
X25890Y-19611D01*
X25900Y-19625D01*
X25912Y-19637D01*
X25926Y-19647D01*
X25942Y-19654D01*
X25959Y-19657D01*
X25976Y-19657D01*
X26114Y-19657D01*
X26136Y-19635D01*
X26136Y-20765D01*
X26114Y-20743D01*
X25976Y-20743D01*
X25959Y-20743D01*
X25942Y-20746D01*
X25926Y-20753D01*
X25912Y-20763D01*
X25900Y-20775D01*
X25890Y-20789D01*
X25883Y-20805D01*
X25880Y-20822D01*
X25880Y-21114D01*
X25902Y-21136D01*
X26136Y-21136D01*
X26136Y-21194D01*
X25902Y-21194D01*
X25880Y-21216D01*
X25880Y-21508D01*
X25883Y-21525D01*
X25890Y-21541D01*
X25900Y-21555D01*
X25912Y-21567D01*
X25926Y-21577D01*
X25942Y-21584D01*
X25959Y-21587D01*
X25976Y-21587D01*
X26114Y-21587D01*
X26136Y-21565D01*
X26136Y-21952D01*
X25946Y-21952D01*
X25751Y-21757D01*
X25750Y-21756D01*
X25731Y-21740D01*
X25709Y-21729D01*
X25707Y-21728D01*
X25699Y-21725D01*
X25685Y-21721D01*
X25660Y-21718D01*
X25658Y-21718D01*
X25413Y-21718D01*
X25413Y-18834D01*
X25413Y-18817D01*
X25413Y-18651D01*
X25413Y-18549D01*
X25413Y-18383D01*
X25413Y-18366D01*
X25410Y-18349D01*
X25403Y-18333D01*
X25393Y-18319D01*
X25381Y-18307D01*
X25367Y-18297D01*
X25351Y-18290D01*
X25334Y-18287D01*
X25251Y-18287D01*
X25229Y-18309D01*
X25229Y-18571D01*
X25391Y-18571D01*
X25413Y-18549D01*
X25413Y-18651D01*
X25391Y-18629D01*
X25229Y-18629D01*
X25229Y-18891D01*
X25251Y-18913D01*
X25334Y-18913D01*
X25351Y-18910D01*
X25367Y-18903D01*
X25381Y-18893D01*
X25393Y-18881D01*
X25403Y-18867D01*
X25410Y-18851D01*
X25413Y-18834D01*
X25413Y-21718D01*
X25171Y-21718D01*
X25171Y-18891D01*
X25171Y-18629D01*
X25009Y-18629D01*
X24987Y-18651D01*
X24987Y-18817D01*
X24987Y-18834D01*
X24990Y-18851D01*
X24997Y-18867D01*
X25007Y-18881D01*
X25019Y-18893D01*
X25033Y-18903D01*
X25049Y-18910D01*
X25066Y-18913D01*
X25149Y-18913D01*
X25171Y-18891D01*
X25171Y-21718D01*
X24514Y-21718D01*
X24393Y-21597D01*
X24392Y-21596D01*
X24373Y-21580D01*
X24351Y-21569D01*
X24349Y-21568D01*
X24341Y-21565D01*
X24327Y-21561D01*
X24302Y-21558D01*
X24300Y-21558D01*
X23733Y-21558D01*
X23732Y-21558D01*
X23716Y-21559D01*
X23714Y-21559D01*
X23682Y-21552D01*
X23641Y-21552D01*
X23601Y-21559D01*
X23582Y-21567D01*
X23582Y-20753D01*
X23582Y-20752D01*
X23580Y-20727D01*
X23572Y-20703D01*
X23572Y-20702D01*
X23560Y-20681D01*
X23560Y-20680D01*
X23548Y-20665D01*
X23545Y-20661D01*
X23544Y-20660D01*
X23537Y-20654D01*
X23493Y-20610D01*
X23504Y-20607D01*
X23538Y-20585D01*
X23568Y-20557D01*
X23591Y-20524D01*
X23608Y-20486D01*
X23617Y-20447D01*
X23618Y-20400D01*
X23610Y-20360D01*
X23595Y-20322D01*
X23572Y-20288D01*
X23543Y-20259D01*
X23510Y-20236D01*
X23472Y-20221D01*
X23432Y-20212D01*
X23391Y-20212D01*
X23351Y-20219D01*
X23314Y-20235D01*
X23299Y-20243D01*
X22636Y-19580D01*
X22636Y-19529D01*
X22958Y-19206D01*
X22963Y-19203D01*
X22963Y-19202D01*
X22964Y-19202D01*
X23115Y-19050D01*
X24779Y-19050D01*
X24780Y-19050D01*
X24805Y-19048D01*
X24828Y-19040D01*
X24830Y-19040D01*
X24844Y-19032D01*
X24851Y-19029D01*
X24852Y-19028D01*
X24871Y-19013D01*
X24872Y-19012D01*
X24911Y-18973D01*
X24912Y-18972D01*
X24927Y-18953D01*
X24928Y-18953D01*
X24939Y-18931D01*
X24940Y-18930D01*
X24944Y-18914D01*
X24947Y-18907D01*
X24947Y-18906D01*
X24950Y-18882D01*
X24950Y-18880D01*
X24950Y-18388D01*
X24990Y-18347D01*
X24990Y-18349D01*
X24987Y-18366D01*
X24987Y-18383D01*
X24987Y-18549D01*
X25009Y-18571D01*
X25171Y-18571D01*
X25171Y-18309D01*
X25149Y-18287D01*
X25066Y-18287D01*
X25049Y-18290D01*
X25047Y-18290D01*
X25056Y-18282D01*
X25987Y-18282D01*
X25987Y-18283D01*
X25987Y-18449D01*
X26009Y-18471D01*
X26141Y-18471D01*
X26171Y-18471D01*
X26229Y-18471D01*
X26259Y-18471D01*
X26391Y-18471D01*
X26413Y-18449D01*
X26413Y-18283D01*
X26413Y-18282D01*
X26575Y-18282D01*
X26575Y-18284D01*
X26575Y-18735D01*
X26579Y-18754D01*
X26586Y-18772D01*
X26597Y-18789D01*
X26611Y-18803D01*
X26612Y-18804D01*
X26609Y-18805D01*
X26591Y-18812D01*
X26574Y-18823D01*
X26560Y-18837D01*
X26550Y-18853D01*
X26542Y-18871D01*
X26538Y-18891D01*
X26538Y-18910D01*
X26538Y-19579D01*
X26542Y-19598D01*
X26549Y-19616D01*
X26560Y-19633D01*
X26574Y-19647D01*
X26590Y-19657D01*
X26608Y-19665D01*
X26628Y-19669D01*
X26647Y-19669D01*
X27042Y-19669D01*
X27061Y-19665D01*
X27079Y-19658D01*
X27096Y-19647D01*
X27110Y-19633D01*
X27120Y-19617D01*
X27128Y-19599D01*
X27132Y-19579D01*
X27132Y-19560D01*
X27132Y-19420D01*
X27659Y-19420D01*
X27660Y-19420D01*
X27685Y-19418D01*
X27708Y-19410D01*
X27710Y-19410D01*
X27713Y-19407D01*
X27720Y-19412D01*
X27804Y-19449D01*
X27894Y-19469D01*
X27986Y-19471D01*
X28077Y-19455D01*
X28163Y-19422D01*
X28241Y-19372D01*
X28307Y-19309D01*
X28320Y-19290D01*
X28320Y-19546D01*
G54D10*
G36*
X29581Y-23384D02*
X29520Y-23445D01*
X29520Y-21954D01*
X29502Y-21864D01*
X29467Y-21778D01*
X29416Y-21702D01*
X29351Y-21636D01*
X29275Y-21585D01*
X29190Y-21549D01*
X29099Y-21530D01*
X29007Y-21530D01*
X28917Y-21547D01*
X28831Y-21581D01*
X28754Y-21632D01*
X28688Y-21696D01*
X28636Y-21772D01*
X28600Y-21857D01*
X28581Y-21947D01*
X28579Y-22039D01*
X28596Y-22130D01*
X28630Y-22216D01*
X28680Y-22293D01*
X28744Y-22360D01*
X28820Y-22412D01*
X28904Y-22449D01*
X28994Y-22469D01*
X29086Y-22471D01*
X29177Y-22455D01*
X29263Y-22422D01*
X29341Y-22372D01*
X29407Y-22309D01*
X29461Y-22233D01*
X29498Y-22149D01*
X29519Y-22059D01*
X29520Y-21954D01*
X29520Y-23445D01*
X29470Y-23495D01*
X29470Y-22904D01*
X29452Y-22814D01*
X29417Y-22728D01*
X29366Y-22652D01*
X29301Y-22586D01*
X29225Y-22535D01*
X29140Y-22499D01*
X29049Y-22480D01*
X28957Y-22480D01*
X28867Y-22497D01*
X28781Y-22531D01*
X28704Y-22582D01*
X28638Y-22646D01*
X28586Y-22722D01*
X28550Y-22807D01*
X28531Y-22897D01*
X28529Y-22989D01*
X28546Y-23080D01*
X28580Y-23166D01*
X28630Y-23243D01*
X28694Y-23310D01*
X28770Y-23362D01*
X28854Y-23399D01*
X28944Y-23419D01*
X29036Y-23421D01*
X29127Y-23405D01*
X29213Y-23372D01*
X29291Y-23322D01*
X29357Y-23259D01*
X29411Y-23183D01*
X29448Y-23099D01*
X29469Y-23009D01*
X29470Y-22904D01*
X29470Y-23495D01*
X29384Y-23581D01*
X28460Y-23581D01*
X28460Y-23042D01*
X28450Y-22952D01*
X28422Y-22867D01*
X28388Y-22803D01*
X28330Y-22762D01*
X28288Y-22803D01*
X28288Y-22720D01*
X28247Y-22662D01*
X28167Y-22621D01*
X28081Y-22597D01*
X27992Y-22590D01*
X27902Y-22600D01*
X27817Y-22628D01*
X27753Y-22662D01*
X27712Y-22720D01*
X28000Y-23009D01*
X28288Y-22720D01*
X28288Y-22803D01*
X28041Y-23050D01*
X28330Y-23338D01*
X28388Y-23297D01*
X28429Y-23217D01*
X28453Y-23131D01*
X28460Y-23042D01*
X28460Y-23581D01*
X28288Y-23581D01*
X28288Y-23380D01*
X28000Y-23091D01*
X27959Y-23132D01*
X27959Y-23050D01*
X27670Y-22762D01*
X27612Y-22803D01*
X27571Y-22883D01*
X27547Y-22969D01*
X27540Y-23058D01*
X27550Y-23148D01*
X27578Y-23233D01*
X27612Y-23297D01*
X27670Y-23338D01*
X27959Y-23050D01*
X27959Y-23132D01*
X27712Y-23380D01*
X27753Y-23438D01*
X27833Y-23479D01*
X27919Y-23503D01*
X28008Y-23510D01*
X28098Y-23500D01*
X28183Y-23472D01*
X28247Y-23438D01*
X28288Y-23380D01*
X28288Y-23581D01*
X21470Y-23581D01*
X21470Y-22904D01*
X21452Y-22814D01*
X21417Y-22728D01*
X21366Y-22652D01*
X21301Y-22586D01*
X21225Y-22535D01*
X21140Y-22499D01*
X21049Y-22480D01*
X20957Y-22480D01*
X20867Y-22497D01*
X20781Y-22531D01*
X20704Y-22582D01*
X20638Y-22646D01*
X20586Y-22722D01*
X20550Y-22807D01*
X20531Y-22897D01*
X20529Y-22989D01*
X20546Y-23080D01*
X20580Y-23166D01*
X20630Y-23243D01*
X20694Y-23310D01*
X20770Y-23362D01*
X20854Y-23399D01*
X20944Y-23419D01*
X21036Y-23421D01*
X21127Y-23405D01*
X21213Y-23372D01*
X21291Y-23322D01*
X21357Y-23259D01*
X21411Y-23183D01*
X21448Y-23099D01*
X21469Y-23009D01*
X21470Y-22904D01*
X21470Y-23581D01*
X17419Y-23581D01*
X15616Y-23581D01*
X15419Y-23384D01*
X15419Y-22375D01*
X15419Y-22374D01*
X15417Y-22352D01*
X15417Y-22351D01*
X15410Y-22329D01*
X15400Y-22309D01*
X15399Y-22308D01*
X15385Y-22291D01*
X15384Y-22290D01*
X15367Y-22275D01*
X15347Y-22265D01*
X15346Y-22264D01*
X15324Y-22257D01*
X15304Y-22255D01*
X15302Y-22255D01*
X15301Y-22255D01*
X15300Y-22255D01*
X14996Y-22255D01*
X14729Y-21988D01*
X14729Y-21536D01*
X15262Y-21536D01*
X15524Y-21798D01*
X15500Y-21857D01*
X15481Y-21947D01*
X15479Y-22039D01*
X15496Y-22130D01*
X15530Y-22216D01*
X15580Y-22293D01*
X15644Y-22360D01*
X15720Y-22412D01*
X15804Y-22449D01*
X15894Y-22469D01*
X15986Y-22471D01*
X16077Y-22455D01*
X16163Y-22422D01*
X16241Y-22372D01*
X16307Y-22309D01*
X16361Y-22233D01*
X16393Y-22159D01*
X16798Y-22159D01*
X16800Y-22159D01*
X16829Y-22156D01*
X16831Y-22156D01*
X16847Y-22151D01*
X16859Y-22148D01*
X16861Y-22147D01*
X16887Y-22134D01*
X16888Y-22132D01*
X16911Y-22114D01*
X16911Y-22113D01*
X16912Y-22113D01*
X16912Y-22112D01*
X16916Y-22107D01*
X17399Y-21625D01*
X17419Y-21625D01*
X17471Y-21625D01*
X17419Y-21677D01*
X16355Y-22740D01*
X16301Y-22686D01*
X16225Y-22635D01*
X16140Y-22599D01*
X16049Y-22580D01*
X15957Y-22580D01*
X15867Y-22597D01*
X15781Y-22631D01*
X15704Y-22682D01*
X15638Y-22746D01*
X15586Y-22822D01*
X15550Y-22907D01*
X15531Y-22997D01*
X15529Y-23089D01*
X15546Y-23180D01*
X15580Y-23266D01*
X15630Y-23343D01*
X15694Y-23410D01*
X15770Y-23462D01*
X15854Y-23499D01*
X15944Y-23519D01*
X16036Y-23521D01*
X16127Y-23505D01*
X16213Y-23472D01*
X16291Y-23422D01*
X16357Y-23359D01*
X16411Y-23283D01*
X16448Y-23199D01*
X16469Y-23109D01*
X16470Y-23004D01*
X16468Y-22995D01*
X16530Y-22933D01*
X16529Y-22989D01*
X16546Y-23080D01*
X16580Y-23166D01*
X16630Y-23243D01*
X16694Y-23310D01*
X16770Y-23362D01*
X16854Y-23399D01*
X16944Y-23419D01*
X17036Y-23421D01*
X17127Y-23405D01*
X17213Y-23372D01*
X17291Y-23322D01*
X17357Y-23259D01*
X17411Y-23183D01*
X17419Y-23164D01*
X17448Y-23099D01*
X17469Y-23009D01*
X17470Y-22904D01*
X17452Y-22814D01*
X17419Y-22732D01*
X17417Y-22728D01*
X17366Y-22652D01*
X17301Y-22586D01*
X17225Y-22535D01*
X17140Y-22499D01*
X17137Y-22498D01*
X17419Y-22216D01*
X17887Y-21747D01*
X17887Y-21751D01*
X17887Y-21759D01*
X17887Y-21917D01*
X17887Y-21934D01*
X17890Y-21951D01*
X17897Y-21967D01*
X17907Y-21981D01*
X17919Y-21993D01*
X17933Y-22003D01*
X17949Y-22010D01*
X17966Y-22013D01*
X18049Y-22013D01*
X18071Y-21991D01*
X18071Y-21759D01*
X18071Y-21729D01*
X18071Y-21671D01*
X18071Y-21641D01*
X18071Y-21409D01*
X18049Y-21387D01*
X17983Y-21387D01*
X18114Y-21256D01*
X18130Y-21237D01*
X18130Y-21236D01*
X18142Y-21214D01*
X18143Y-21213D01*
X18147Y-21197D01*
X18150Y-21190D01*
X18150Y-21189D01*
X18153Y-21165D01*
X18153Y-21163D01*
X18153Y-20886D01*
X18227Y-20811D01*
X18225Y-20827D01*
X18225Y-20839D01*
X18247Y-20861D01*
X18579Y-20861D01*
X18579Y-20856D01*
X18637Y-20856D01*
X18637Y-20861D01*
X18637Y-20909D01*
X18637Y-20944D01*
X18637Y-20967D01*
X18637Y-21000D01*
X18637Y-21023D01*
X18637Y-21058D01*
X18637Y-21106D01*
X18637Y-21141D01*
X18637Y-21197D01*
X18659Y-21219D01*
X18776Y-21219D01*
X18620Y-21375D01*
X18579Y-21375D01*
X18579Y-21197D01*
X18579Y-21106D01*
X18579Y-21058D01*
X18579Y-21000D01*
X18579Y-20967D01*
X18579Y-20909D01*
X18247Y-20909D01*
X18225Y-20931D01*
X18225Y-20943D01*
X18228Y-20960D01*
X18235Y-20976D01*
X18240Y-20983D01*
X18235Y-20991D01*
X18228Y-21007D01*
X18225Y-21024D01*
X18225Y-21036D01*
X18247Y-21058D01*
X18579Y-21058D01*
X18579Y-21106D01*
X18247Y-21106D01*
X18225Y-21128D01*
X18225Y-21140D01*
X18228Y-21157D01*
X18235Y-21173D01*
X18245Y-21187D01*
X18257Y-21199D01*
X18271Y-21209D01*
X18287Y-21216D01*
X18304Y-21219D01*
X18557Y-21219D01*
X18579Y-21197D01*
X18579Y-21375D01*
X18565Y-21375D01*
X18546Y-21379D01*
X18528Y-21386D01*
X18511Y-21397D01*
X18497Y-21411D01*
X18487Y-21427D01*
X18479Y-21445D01*
X18475Y-21465D01*
X18475Y-21484D01*
X18475Y-21935D01*
X18479Y-21954D01*
X18486Y-21972D01*
X18497Y-21989D01*
X18511Y-22003D01*
X18527Y-22013D01*
X18545Y-22021D01*
X18565Y-22025D01*
X18584Y-22025D01*
X18835Y-22025D01*
X18842Y-22023D01*
X18313Y-22552D01*
X18313Y-21934D01*
X18313Y-21917D01*
X18313Y-21751D01*
X18313Y-21649D01*
X18313Y-21483D01*
X18313Y-21466D01*
X18310Y-21449D01*
X18303Y-21433D01*
X18293Y-21419D01*
X18281Y-21407D01*
X18267Y-21397D01*
X18251Y-21390D01*
X18234Y-21387D01*
X18151Y-21387D01*
X18129Y-21409D01*
X18129Y-21671D01*
X18291Y-21671D01*
X18313Y-21649D01*
X18313Y-21751D01*
X18291Y-21729D01*
X18129Y-21729D01*
X18129Y-21991D01*
X18151Y-22013D01*
X18234Y-22013D01*
X18251Y-22010D01*
X18267Y-22003D01*
X18281Y-21993D01*
X18293Y-21981D01*
X18303Y-21967D01*
X18310Y-21951D01*
X18313Y-21934D01*
X18313Y-22552D01*
X18228Y-22637D01*
X18225Y-22635D01*
X18140Y-22599D01*
X18071Y-22584D01*
X18049Y-22580D01*
X17957Y-22580D01*
X17867Y-22597D01*
X17781Y-22631D01*
X17704Y-22682D01*
X17638Y-22746D01*
X17586Y-22822D01*
X17550Y-22907D01*
X17531Y-22997D01*
X17529Y-23089D01*
X17546Y-23180D01*
X17580Y-23266D01*
X17630Y-23343D01*
X17694Y-23410D01*
X17770Y-23462D01*
X17854Y-23499D01*
X17944Y-23519D01*
X18036Y-23521D01*
X18127Y-23505D01*
X18213Y-23472D01*
X18291Y-23422D01*
X18357Y-23359D01*
X18411Y-23283D01*
X18448Y-23199D01*
X18469Y-23109D01*
X18470Y-23004D01*
X18452Y-22914D01*
X18417Y-22828D01*
X18412Y-22821D01*
X19149Y-22085D01*
X19159Y-22087D01*
X19178Y-22087D01*
X19212Y-22087D01*
X19212Y-22097D01*
X19219Y-22137D01*
X19234Y-22175D01*
X19256Y-22209D01*
X19284Y-22239D01*
X19318Y-22262D01*
X19355Y-22279D01*
X19395Y-22287D01*
X19436Y-22288D01*
X19476Y-22281D01*
X19514Y-22267D01*
X19548Y-22245D01*
X19578Y-22217D01*
X19601Y-22184D01*
X19618Y-22146D01*
X19627Y-22107D01*
X19627Y-22087D01*
X19671Y-22087D01*
X19690Y-22083D01*
X19708Y-22076D01*
X19710Y-22074D01*
X19711Y-22075D01*
X19729Y-22083D01*
X19749Y-22087D01*
X19768Y-22087D01*
X19867Y-22087D01*
X19886Y-22083D01*
X19904Y-22076D01*
X19906Y-22074D01*
X19908Y-22075D01*
X19917Y-22079D01*
X19355Y-22641D01*
X19301Y-22586D01*
X19225Y-22535D01*
X19140Y-22499D01*
X19049Y-22480D01*
X18957Y-22480D01*
X18867Y-22497D01*
X18781Y-22531D01*
X18704Y-22582D01*
X18638Y-22646D01*
X18586Y-22722D01*
X18550Y-22807D01*
X18531Y-22897D01*
X18529Y-22989D01*
X18546Y-23080D01*
X18580Y-23166D01*
X18630Y-23243D01*
X18694Y-23310D01*
X18770Y-23362D01*
X18854Y-23399D01*
X18944Y-23419D01*
X19036Y-23421D01*
X19127Y-23405D01*
X19213Y-23372D01*
X19291Y-23322D01*
X19357Y-23259D01*
X19411Y-23183D01*
X19448Y-23099D01*
X19469Y-23009D01*
X19470Y-22904D01*
X19468Y-22895D01*
X20280Y-22083D01*
X20280Y-22082D01*
X20298Y-22076D01*
X20300Y-22074D01*
X20301Y-22075D01*
X20319Y-22083D01*
X20339Y-22087D01*
X20358Y-22087D01*
X20457Y-22087D01*
X20476Y-22083D01*
X20494Y-22076D01*
X20496Y-22074D01*
X20498Y-22075D01*
X20516Y-22083D01*
X20536Y-22087D01*
X20555Y-22087D01*
X20654Y-22087D01*
X20662Y-22085D01*
X20662Y-22204D01*
X20228Y-22637D01*
X20225Y-22635D01*
X20140Y-22599D01*
X20049Y-22580D01*
X19957Y-22580D01*
X19867Y-22597D01*
X19781Y-22631D01*
X19704Y-22682D01*
X19638Y-22746D01*
X19586Y-22822D01*
X19550Y-22907D01*
X19531Y-22997D01*
X19529Y-23089D01*
X19546Y-23180D01*
X19580Y-23266D01*
X19630Y-23343D01*
X19694Y-23410D01*
X19770Y-23462D01*
X19854Y-23499D01*
X19944Y-23519D01*
X20036Y-23521D01*
X20127Y-23505D01*
X20213Y-23472D01*
X20291Y-23422D01*
X20357Y-23359D01*
X20411Y-23283D01*
X20448Y-23199D01*
X20469Y-23109D01*
X20470Y-23004D01*
X20452Y-22914D01*
X20417Y-22828D01*
X20412Y-22821D01*
X20883Y-22351D01*
X20884Y-22350D01*
X20899Y-22331D01*
X20900Y-22331D01*
X20911Y-22309D01*
X20912Y-22308D01*
X20915Y-22295D01*
X20919Y-22285D01*
X20919Y-22283D01*
X20922Y-22260D01*
X20922Y-22258D01*
X20922Y-22085D01*
X20929Y-22087D01*
X20948Y-22087D01*
X21047Y-22087D01*
X21066Y-22083D01*
X21084Y-22076D01*
X21098Y-22066D01*
X21110Y-22072D01*
X21127Y-22075D01*
X21139Y-22075D01*
X21161Y-22053D01*
X21161Y-21721D01*
X21156Y-21721D01*
X21156Y-21663D01*
X21161Y-21663D01*
X21209Y-21663D01*
X21214Y-21663D01*
X21214Y-21721D01*
X21209Y-21721D01*
X21209Y-22034D01*
X21202Y-22066D01*
X21202Y-22107D01*
X21209Y-22147D01*
X21224Y-22185D01*
X21246Y-22219D01*
X21274Y-22249D01*
X21308Y-22272D01*
X21345Y-22289D01*
X21385Y-22297D01*
X21426Y-22298D01*
X21466Y-22291D01*
X21504Y-22277D01*
X21538Y-22255D01*
X21568Y-22227D01*
X21591Y-22194D01*
X21608Y-22156D01*
X21617Y-22117D01*
X21618Y-22070D01*
X21610Y-22030D01*
X21595Y-21992D01*
X21572Y-21958D01*
X21551Y-21937D01*
X21558Y-21942D01*
X21595Y-21959D01*
X21635Y-21967D01*
X21676Y-21968D01*
X21683Y-21966D01*
X21686Y-21972D01*
X21697Y-21989D01*
X21711Y-22003D01*
X21727Y-22013D01*
X21745Y-22021D01*
X21765Y-22025D01*
X21784Y-22025D01*
X22035Y-22025D01*
X22054Y-22021D01*
X22072Y-22014D01*
X22089Y-22003D01*
X22103Y-21989D01*
X22113Y-21973D01*
X22121Y-21955D01*
X22125Y-21935D01*
X22125Y-21916D01*
X22125Y-21465D01*
X22121Y-21446D01*
X22114Y-21428D01*
X22103Y-21411D01*
X22089Y-21397D01*
X22073Y-21387D01*
X22055Y-21379D01*
X22035Y-21375D01*
X22016Y-21375D01*
X21829Y-21375D01*
X21684Y-21230D01*
X21687Y-21231D01*
X21706Y-21231D01*
X22297Y-21231D01*
X22316Y-21227D01*
X22321Y-21225D01*
X22483Y-21387D01*
X22449Y-21387D01*
X22441Y-21387D01*
X22366Y-21387D01*
X22349Y-21390D01*
X22333Y-21397D01*
X22319Y-21407D01*
X22307Y-21419D01*
X22297Y-21433D01*
X22290Y-21449D01*
X22287Y-21466D01*
X22287Y-21483D01*
X22287Y-21649D01*
X22309Y-21671D01*
X22441Y-21671D01*
X22471Y-21671D01*
X22529Y-21671D01*
X22529Y-21729D01*
X22529Y-21759D01*
X22529Y-21991D01*
X22551Y-22013D01*
X22590Y-22013D01*
X22590Y-22276D01*
X22471Y-22394D01*
X22471Y-21991D01*
X22471Y-21729D01*
X22309Y-21729D01*
X22287Y-21751D01*
X22287Y-21917D01*
X22287Y-21934D01*
X22290Y-21951D01*
X22297Y-21967D01*
X22307Y-21981D01*
X22319Y-21993D01*
X22333Y-22003D01*
X22349Y-22010D01*
X22366Y-22013D01*
X22449Y-22013D01*
X22471Y-21991D01*
X22471Y-22394D01*
X22228Y-22637D01*
X22225Y-22635D01*
X22140Y-22599D01*
X22049Y-22580D01*
X21957Y-22580D01*
X21867Y-22597D01*
X21781Y-22631D01*
X21704Y-22682D01*
X21638Y-22746D01*
X21586Y-22822D01*
X21550Y-22907D01*
X21531Y-22997D01*
X21529Y-23089D01*
X21546Y-23180D01*
X21580Y-23266D01*
X21630Y-23343D01*
X21694Y-23410D01*
X21770Y-23462D01*
X21854Y-23499D01*
X21944Y-23519D01*
X22036Y-23521D01*
X22127Y-23505D01*
X22213Y-23472D01*
X22291Y-23422D01*
X22357Y-23359D01*
X22411Y-23283D01*
X22448Y-23199D01*
X22469Y-23109D01*
X22470Y-23004D01*
X22452Y-22914D01*
X22417Y-22828D01*
X22412Y-22821D01*
X22712Y-22522D01*
X22712Y-22576D01*
X22704Y-22582D01*
X22638Y-22646D01*
X22586Y-22722D01*
X22550Y-22807D01*
X22531Y-22897D01*
X22529Y-22989D01*
X22546Y-23080D01*
X22580Y-23166D01*
X22630Y-23243D01*
X22694Y-23310D01*
X22770Y-23362D01*
X22854Y-23399D01*
X22944Y-23419D01*
X23036Y-23421D01*
X23127Y-23405D01*
X23213Y-23372D01*
X23291Y-23322D01*
X23357Y-23259D01*
X23411Y-23183D01*
X23448Y-23099D01*
X23469Y-23009D01*
X23469Y-22923D01*
X23533Y-22987D01*
X23531Y-22997D01*
X23529Y-23089D01*
X23546Y-23180D01*
X23580Y-23266D01*
X23630Y-23343D01*
X23694Y-23410D01*
X23770Y-23462D01*
X23854Y-23499D01*
X23944Y-23519D01*
X24036Y-23521D01*
X24127Y-23505D01*
X24213Y-23472D01*
X24291Y-23422D01*
X24357Y-23359D01*
X24411Y-23283D01*
X24448Y-23199D01*
X24469Y-23109D01*
X24470Y-23004D01*
X24452Y-22914D01*
X24417Y-22828D01*
X24366Y-22752D01*
X24324Y-22710D01*
X24576Y-22710D01*
X24586Y-22720D01*
X24586Y-22722D01*
X24550Y-22807D01*
X24531Y-22897D01*
X24529Y-22989D01*
X24546Y-23080D01*
X24580Y-23166D01*
X24630Y-23243D01*
X24694Y-23310D01*
X24770Y-23362D01*
X24854Y-23399D01*
X24944Y-23419D01*
X25036Y-23421D01*
X25127Y-23405D01*
X25213Y-23372D01*
X25291Y-23322D01*
X25357Y-23259D01*
X25411Y-23183D01*
X25448Y-23099D01*
X25469Y-23009D01*
X25470Y-22904D01*
X25452Y-22814D01*
X25417Y-22728D01*
X25366Y-22652D01*
X25302Y-22588D01*
X25354Y-22588D01*
X25586Y-22820D01*
X25586Y-22822D01*
X25550Y-22907D01*
X25531Y-22997D01*
X25529Y-23089D01*
X25546Y-23180D01*
X25580Y-23266D01*
X25630Y-23343D01*
X25694Y-23410D01*
X25770Y-23462D01*
X25854Y-23499D01*
X25944Y-23519D01*
X26036Y-23521D01*
X26127Y-23505D01*
X26213Y-23472D01*
X26291Y-23422D01*
X26357Y-23359D01*
X26411Y-23283D01*
X26448Y-23199D01*
X26469Y-23109D01*
X26470Y-23004D01*
X26452Y-22914D01*
X26417Y-22828D01*
X26366Y-22752D01*
X26314Y-22700D01*
X26566Y-22700D01*
X26586Y-22720D01*
X26586Y-22722D01*
X26550Y-22807D01*
X26531Y-22897D01*
X26529Y-22989D01*
X26546Y-23080D01*
X26580Y-23166D01*
X26630Y-23243D01*
X26694Y-23310D01*
X26770Y-23362D01*
X26854Y-23399D01*
X26944Y-23419D01*
X27036Y-23421D01*
X27127Y-23405D01*
X27213Y-23372D01*
X27291Y-23322D01*
X27357Y-23259D01*
X27411Y-23183D01*
X27448Y-23099D01*
X27469Y-23009D01*
X27470Y-22904D01*
X27452Y-22814D01*
X27417Y-22728D01*
X27366Y-22652D01*
X27301Y-22586D01*
X27289Y-22578D01*
X27601Y-22578D01*
X27602Y-22578D01*
X27627Y-22576D01*
X27650Y-22568D01*
X27652Y-22568D01*
X27666Y-22560D01*
X27673Y-22557D01*
X27674Y-22556D01*
X27693Y-22541D01*
X27694Y-22540D01*
X27821Y-22412D01*
X27904Y-22449D01*
X27994Y-22469D01*
X28086Y-22471D01*
X28177Y-22455D01*
X28263Y-22422D01*
X28341Y-22372D01*
X28407Y-22309D01*
X28461Y-22233D01*
X28498Y-22149D01*
X28519Y-22059D01*
X28520Y-21954D01*
X28502Y-21864D01*
X28467Y-21778D01*
X28416Y-21702D01*
X28374Y-21660D01*
X28419Y-21660D01*
X28420Y-21660D01*
X28445Y-21658D01*
X28468Y-21650D01*
X28470Y-21650D01*
X28484Y-21642D01*
X28491Y-21639D01*
X28492Y-21638D01*
X28511Y-21623D01*
X28512Y-21622D01*
X28721Y-21412D01*
X28804Y-21449D01*
X28894Y-21469D01*
X28986Y-21471D01*
X29077Y-21455D01*
X29163Y-21422D01*
X29241Y-21372D01*
X29307Y-21309D01*
X29361Y-21233D01*
X29398Y-21149D01*
X29419Y-21059D01*
X29420Y-20954D01*
X29402Y-20864D01*
X29367Y-20778D01*
X29316Y-20702D01*
X29251Y-20636D01*
X29175Y-20585D01*
X29090Y-20549D01*
X28999Y-20530D01*
X28907Y-20530D01*
X28817Y-20547D01*
X28731Y-20581D01*
X28654Y-20632D01*
X28588Y-20696D01*
X28536Y-20772D01*
X28500Y-20857D01*
X28481Y-20947D01*
X28479Y-21039D01*
X28496Y-21130D01*
X28530Y-21216D01*
X28537Y-21228D01*
X28366Y-21400D01*
X28197Y-21400D01*
X28241Y-21372D01*
X28307Y-21309D01*
X28361Y-21233D01*
X28398Y-21149D01*
X28419Y-21059D01*
X28420Y-20954D01*
X28402Y-20864D01*
X28367Y-20778D01*
X28316Y-20702D01*
X28251Y-20636D01*
X28242Y-20630D01*
X28549Y-20630D01*
X28550Y-20630D01*
X28575Y-20628D01*
X28598Y-20620D01*
X28600Y-20620D01*
X28614Y-20612D01*
X28621Y-20609D01*
X28622Y-20608D01*
X28641Y-20593D01*
X28642Y-20592D01*
X28821Y-20412D01*
X28904Y-20449D01*
X28994Y-20469D01*
X29086Y-20471D01*
X29177Y-20455D01*
X29263Y-20422D01*
X29341Y-20372D01*
X29407Y-20309D01*
X29461Y-20233D01*
X29498Y-20149D01*
X29519Y-20059D01*
X29520Y-19954D01*
X29520Y-17954D01*
X29502Y-17864D01*
X29467Y-17778D01*
X29416Y-17702D01*
X29351Y-17636D01*
X29275Y-17585D01*
X29190Y-17549D01*
X29099Y-17530D01*
X29007Y-17530D01*
X28917Y-17547D01*
X28831Y-17581D01*
X28754Y-17632D01*
X28688Y-17696D01*
X28636Y-17772D01*
X28600Y-17857D01*
X28581Y-17947D01*
X28579Y-18039D01*
X28596Y-18130D01*
X28630Y-18216D01*
X28680Y-18293D01*
X28744Y-18360D01*
X28820Y-18412D01*
X28904Y-18449D01*
X28994Y-18469D01*
X29086Y-18471D01*
X29177Y-18455D01*
X29263Y-18422D01*
X29341Y-18372D01*
X29407Y-18309D01*
X29461Y-18233D01*
X29498Y-18149D01*
X29519Y-18059D01*
X29520Y-17954D01*
X29520Y-19954D01*
X29502Y-19864D01*
X29467Y-19778D01*
X29416Y-19702D01*
X29410Y-19695D01*
X29410Y-18992D01*
X29400Y-18902D01*
X29372Y-18817D01*
X29338Y-18753D01*
X29280Y-18712D01*
X29238Y-18753D01*
X29238Y-18670D01*
X29197Y-18612D01*
X29117Y-18571D01*
X29031Y-18547D01*
X28942Y-18540D01*
X28852Y-18550D01*
X28767Y-18578D01*
X28703Y-18612D01*
X28662Y-18670D01*
X28950Y-18959D01*
X29238Y-18670D01*
X29238Y-18753D01*
X28991Y-19000D01*
X29280Y-19288D01*
X29338Y-19247D01*
X29379Y-19167D01*
X29403Y-19081D01*
X29410Y-18992D01*
X29410Y-19695D01*
X29351Y-19636D01*
X29275Y-19585D01*
X29238Y-19569D01*
X29238Y-19330D01*
X28950Y-19041D01*
X28662Y-19330D01*
X28703Y-19388D01*
X28783Y-19429D01*
X28869Y-19453D01*
X28958Y-19460D01*
X29048Y-19450D01*
X29133Y-19422D01*
X29197Y-19388D01*
X29238Y-19330D01*
X29238Y-19569D01*
X29190Y-19549D01*
X29099Y-19530D01*
X29007Y-19530D01*
X28917Y-19547D01*
X28831Y-19581D01*
X28754Y-19632D01*
X28688Y-19696D01*
X28636Y-19772D01*
X28600Y-19857D01*
X28581Y-19947D01*
X28579Y-20039D01*
X28596Y-20130D01*
X28630Y-20216D01*
X28637Y-20228D01*
X28496Y-20370D01*
X28343Y-20370D01*
X28407Y-20309D01*
X28461Y-20233D01*
X28498Y-20149D01*
X28519Y-20059D01*
X28520Y-19954D01*
X28502Y-19864D01*
X28467Y-19778D01*
X28462Y-19770D01*
X28536Y-19696D01*
X28541Y-19693D01*
X28541Y-19692D01*
X28548Y-19683D01*
X28557Y-19673D01*
X28558Y-19673D01*
X28569Y-19651D01*
X28570Y-19650D01*
X28574Y-19634D01*
X28577Y-19627D01*
X28577Y-19626D01*
X28580Y-19602D01*
X28580Y-19600D01*
X28580Y-19259D01*
X28620Y-19288D01*
X28909Y-19000D01*
X28620Y-18712D01*
X28580Y-18740D01*
X28580Y-18721D01*
X28580Y-18720D01*
X28578Y-18695D01*
X28570Y-18672D01*
X28570Y-18670D01*
X28562Y-18655D01*
X28559Y-18649D01*
X28558Y-18648D01*
X28543Y-18629D01*
X28542Y-18628D01*
X28323Y-18409D01*
X28322Y-18408D01*
X28305Y-18394D01*
X28341Y-18372D01*
X28407Y-18309D01*
X28461Y-18233D01*
X28498Y-18149D01*
X28519Y-18059D01*
X28520Y-17954D01*
X28502Y-17864D01*
X28467Y-17778D01*
X28416Y-17702D01*
X28364Y-17650D01*
X28429Y-17650D01*
X28430Y-17650D01*
X28455Y-17648D01*
X28478Y-17640D01*
X28480Y-17640D01*
X28494Y-17632D01*
X28501Y-17629D01*
X28502Y-17628D01*
X28521Y-17613D01*
X28522Y-17612D01*
X28771Y-17362D01*
X28854Y-17399D01*
X28944Y-17419D01*
X29036Y-17421D01*
X29127Y-17405D01*
X29213Y-17372D01*
X29291Y-17322D01*
X29357Y-17259D01*
X29411Y-17183D01*
X29448Y-17099D01*
X29469Y-17009D01*
X29470Y-16904D01*
X29452Y-16814D01*
X29417Y-16728D01*
X29366Y-16652D01*
X29301Y-16586D01*
X29225Y-16535D01*
X29140Y-16499D01*
X29049Y-16480D01*
X28957Y-16480D01*
X28867Y-16497D01*
X28781Y-16531D01*
X28704Y-16582D01*
X28638Y-16646D01*
X28586Y-16722D01*
X28550Y-16807D01*
X28531Y-16897D01*
X28529Y-16989D01*
X28546Y-17080D01*
X28580Y-17166D01*
X28587Y-17178D01*
X28376Y-17390D01*
X28324Y-17390D01*
X28357Y-17359D01*
X28411Y-17283D01*
X28448Y-17199D01*
X28469Y-17109D01*
X28470Y-17004D01*
X28452Y-16914D01*
X28417Y-16828D01*
X28366Y-16752D01*
X28301Y-16686D01*
X28225Y-16635D01*
X28140Y-16599D01*
X28049Y-16580D01*
X27957Y-16580D01*
X27867Y-16597D01*
X27781Y-16631D01*
X27704Y-16682D01*
X27638Y-16746D01*
X27586Y-16822D01*
X27550Y-16907D01*
X27531Y-16997D01*
X27529Y-17089D01*
X27546Y-17180D01*
X27580Y-17266D01*
X27587Y-17278D01*
X27332Y-17534D01*
X26600Y-17534D01*
X26771Y-17362D01*
X26854Y-17399D01*
X26944Y-17419D01*
X27036Y-17421D01*
X27127Y-17405D01*
X27213Y-17372D01*
X27291Y-17322D01*
X27357Y-17259D01*
X27411Y-17183D01*
X27448Y-17099D01*
X27469Y-17009D01*
X27470Y-16904D01*
X27452Y-16814D01*
X27417Y-16728D01*
X27366Y-16652D01*
X27301Y-16586D01*
X27225Y-16535D01*
X27140Y-16499D01*
X27049Y-16480D01*
X26957Y-16480D01*
X26867Y-16497D01*
X26781Y-16531D01*
X26704Y-16582D01*
X26638Y-16646D01*
X26586Y-16722D01*
X26550Y-16807D01*
X26531Y-16897D01*
X26529Y-16989D01*
X26546Y-17080D01*
X26580Y-17166D01*
X26587Y-17178D01*
X26354Y-17412D01*
X26301Y-17412D01*
X26357Y-17359D01*
X26411Y-17283D01*
X26448Y-17199D01*
X26469Y-17109D01*
X26470Y-17004D01*
X26452Y-16914D01*
X26417Y-16828D01*
X26366Y-16752D01*
X26301Y-16686D01*
X26225Y-16635D01*
X26140Y-16599D01*
X26049Y-16580D01*
X25957Y-16580D01*
X25867Y-16597D01*
X25781Y-16631D01*
X25704Y-16682D01*
X25638Y-16746D01*
X25586Y-16822D01*
X25550Y-16907D01*
X25531Y-16997D01*
X25529Y-17089D01*
X25546Y-17180D01*
X25580Y-17266D01*
X25587Y-17278D01*
X25576Y-17290D01*
X25324Y-17290D01*
X25357Y-17259D01*
X25411Y-17183D01*
X25448Y-17099D01*
X25469Y-17009D01*
X25470Y-16904D01*
X25452Y-16814D01*
X25417Y-16728D01*
X25366Y-16652D01*
X25301Y-16586D01*
X25225Y-16535D01*
X25140Y-16499D01*
X25049Y-16480D01*
X24957Y-16480D01*
X24867Y-16497D01*
X24781Y-16531D01*
X24704Y-16582D01*
X24638Y-16646D01*
X24586Y-16722D01*
X24550Y-16807D01*
X24531Y-16897D01*
X24529Y-16989D01*
X24546Y-17080D01*
X24580Y-17166D01*
X24587Y-17178D01*
X24354Y-17412D01*
X24301Y-17412D01*
X24357Y-17359D01*
X24411Y-17283D01*
X24448Y-17199D01*
X24469Y-17109D01*
X24470Y-17004D01*
X24452Y-16914D01*
X24417Y-16828D01*
X24366Y-16752D01*
X24301Y-16686D01*
X24225Y-16635D01*
X24140Y-16599D01*
X24049Y-16580D01*
X23957Y-16580D01*
X23867Y-16597D01*
X23781Y-16631D01*
X23704Y-16682D01*
X23638Y-16746D01*
X23586Y-16822D01*
X23550Y-16907D01*
X23531Y-16997D01*
X23529Y-17089D01*
X23546Y-17180D01*
X23580Y-17266D01*
X23587Y-17278D01*
X23576Y-17290D01*
X23324Y-17290D01*
X23357Y-17259D01*
X23411Y-17183D01*
X23448Y-17099D01*
X23469Y-17009D01*
X23470Y-16904D01*
X23452Y-16814D01*
X23417Y-16728D01*
X23366Y-16652D01*
X23301Y-16586D01*
X23225Y-16535D01*
X23140Y-16499D01*
X23049Y-16480D01*
X22957Y-16480D01*
X22867Y-16497D01*
X22781Y-16531D01*
X22704Y-16582D01*
X22638Y-16646D01*
X22586Y-16722D01*
X22550Y-16807D01*
X22531Y-16897D01*
X22529Y-16989D01*
X22546Y-17080D01*
X22580Y-17166D01*
X22587Y-17178D01*
X22354Y-17412D01*
X22301Y-17412D01*
X22357Y-17359D01*
X22411Y-17283D01*
X22448Y-17199D01*
X22469Y-17109D01*
X22470Y-17004D01*
X22452Y-16914D01*
X22417Y-16828D01*
X22366Y-16752D01*
X22301Y-16686D01*
X22225Y-16635D01*
X22140Y-16599D01*
X22049Y-16580D01*
X21957Y-16580D01*
X21867Y-16597D01*
X21781Y-16631D01*
X21704Y-16682D01*
X21638Y-16746D01*
X21586Y-16822D01*
X21550Y-16907D01*
X21531Y-16997D01*
X21529Y-17089D01*
X21546Y-17180D01*
X21580Y-17266D01*
X21587Y-17278D01*
X21576Y-17290D01*
X21324Y-17290D01*
X21357Y-17259D01*
X21411Y-17183D01*
X21448Y-17099D01*
X21469Y-17009D01*
X21470Y-16904D01*
X21452Y-16814D01*
X21417Y-16728D01*
X21366Y-16652D01*
X21301Y-16586D01*
X21225Y-16535D01*
X21140Y-16499D01*
X21049Y-16480D01*
X20957Y-16480D01*
X20867Y-16497D01*
X20781Y-16531D01*
X20704Y-16582D01*
X20638Y-16646D01*
X20586Y-16722D01*
X20550Y-16807D01*
X20531Y-16897D01*
X20529Y-16989D01*
X20546Y-17080D01*
X20580Y-17166D01*
X20587Y-17178D01*
X20130Y-17636D01*
X20130Y-17503D01*
X20213Y-17472D01*
X20291Y-17422D01*
X20357Y-17359D01*
X20411Y-17283D01*
X20448Y-17199D01*
X20469Y-17109D01*
X20470Y-17004D01*
X20452Y-16914D01*
X20417Y-16828D01*
X20366Y-16752D01*
X20301Y-16686D01*
X20225Y-16635D01*
X20140Y-16599D01*
X20049Y-16580D01*
X19957Y-16580D01*
X19867Y-16597D01*
X19781Y-16631D01*
X19704Y-16682D01*
X19638Y-16746D01*
X19586Y-16822D01*
X19550Y-16907D01*
X19531Y-16997D01*
X19529Y-17089D01*
X19546Y-17180D01*
X19580Y-17266D01*
X19630Y-17343D01*
X19694Y-17410D01*
X19770Y-17462D01*
X19854Y-17499D01*
X19870Y-17502D01*
X19870Y-17736D01*
X19371Y-17238D01*
X19411Y-17183D01*
X19448Y-17099D01*
X19469Y-17009D01*
X19470Y-16904D01*
X19452Y-16814D01*
X19417Y-16728D01*
X19366Y-16652D01*
X19301Y-16586D01*
X19225Y-16535D01*
X19140Y-16499D01*
X19049Y-16480D01*
X18957Y-16480D01*
X18867Y-16497D01*
X18781Y-16531D01*
X18704Y-16582D01*
X18638Y-16646D01*
X18586Y-16722D01*
X18550Y-16807D01*
X18531Y-16897D01*
X18529Y-16989D01*
X18546Y-17080D01*
X18580Y-17166D01*
X18630Y-17243D01*
X18674Y-17290D01*
X18523Y-17290D01*
X18443Y-17209D01*
X18448Y-17199D01*
X18469Y-17109D01*
X18470Y-17004D01*
X18452Y-16914D01*
X18417Y-16828D01*
X18366Y-16752D01*
X18301Y-16686D01*
X18225Y-16635D01*
X18140Y-16599D01*
X18049Y-16580D01*
X17957Y-16580D01*
X17867Y-16597D01*
X17781Y-16631D01*
X17704Y-16682D01*
X17638Y-16746D01*
X17586Y-16822D01*
X17550Y-16907D01*
X17531Y-16997D01*
X17529Y-17089D01*
X17546Y-17180D01*
X17580Y-17266D01*
X17630Y-17343D01*
X17694Y-17410D01*
X17696Y-17412D01*
X17545Y-17412D01*
X17371Y-17238D01*
X17411Y-17183D01*
X17448Y-17099D01*
X17469Y-17009D01*
X17470Y-16904D01*
X17452Y-16814D01*
X17417Y-16728D01*
X17366Y-16652D01*
X17301Y-16586D01*
X17225Y-16535D01*
X17140Y-16499D01*
X17049Y-16480D01*
X16957Y-16480D01*
X16867Y-16497D01*
X16781Y-16531D01*
X16704Y-16582D01*
X16638Y-16646D01*
X16586Y-16722D01*
X16550Y-16807D01*
X16531Y-16897D01*
X16529Y-16989D01*
X16546Y-17080D01*
X16580Y-17166D01*
X16630Y-17243D01*
X16674Y-17290D01*
X16424Y-17290D01*
X16412Y-17278D01*
X16448Y-17199D01*
X16469Y-17109D01*
X16470Y-17004D01*
X16452Y-16914D01*
X16417Y-16828D01*
X16366Y-16752D01*
X16301Y-16686D01*
X16225Y-16635D01*
X16140Y-16599D01*
X16049Y-16580D01*
X15957Y-16580D01*
X15867Y-16597D01*
X15781Y-16631D01*
X15704Y-16682D01*
X15638Y-16746D01*
X15586Y-16822D01*
X15550Y-16907D01*
X15531Y-16997D01*
X15529Y-17089D01*
X15546Y-17180D01*
X15580Y-17266D01*
X15630Y-17343D01*
X15694Y-17410D01*
X15770Y-17462D01*
X15854Y-17499D01*
X15944Y-17519D01*
X16036Y-17521D01*
X16127Y-17505D01*
X16213Y-17472D01*
X16228Y-17462D01*
X16277Y-17511D01*
X16278Y-17512D01*
X16297Y-17528D01*
X16319Y-17539D01*
X16320Y-17540D01*
X16336Y-17544D01*
X16343Y-17547D01*
X16344Y-17547D01*
X16368Y-17550D01*
X16370Y-17550D01*
X16417Y-17550D01*
X16411Y-17566D01*
X16402Y-17606D01*
X16402Y-17613D01*
X16373Y-17642D01*
X16369Y-17646D01*
X16349Y-17670D01*
X16334Y-17697D01*
X16333Y-17697D01*
X16333Y-17699D01*
X16330Y-17709D01*
X16327Y-17717D01*
X16286Y-17676D01*
X16210Y-17625D01*
X16125Y-17589D01*
X16034Y-17570D01*
X15942Y-17570D01*
X15852Y-17587D01*
X15766Y-17621D01*
X15689Y-17672D01*
X15623Y-17736D01*
X15571Y-17812D01*
X15535Y-17897D01*
X15516Y-17987D01*
X15514Y-18079D01*
X15531Y-18170D01*
X15565Y-18256D01*
X15615Y-18333D01*
X15679Y-18400D01*
X15755Y-18452D01*
X15839Y-18489D01*
X15902Y-18503D01*
X15882Y-18507D01*
X15813Y-18534D01*
X15795Y-18516D01*
X15792Y-18512D01*
X15790Y-18511D01*
X15768Y-18492D01*
X15766Y-18491D01*
X15741Y-18477D01*
X15740Y-18476D01*
X15739Y-18476D01*
X15729Y-18473D01*
X15711Y-18467D01*
X15680Y-18464D01*
X15679Y-18464D01*
X15678Y-18464D01*
X14729Y-18464D01*
X14729Y-18012D01*
X14992Y-17749D01*
X15299Y-17749D01*
X15300Y-17749D01*
X15322Y-17747D01*
X15323Y-17747D01*
X15345Y-17740D01*
X15365Y-17730D01*
X15366Y-17729D01*
X15383Y-17715D01*
X15383Y-17714D01*
X15384Y-17714D01*
X15398Y-17697D01*
X15399Y-17697D01*
X15409Y-17677D01*
X15410Y-17676D01*
X15416Y-17655D01*
X15417Y-17654D01*
X15418Y-17634D01*
X15419Y-17632D01*
X15419Y-17631D01*
X15419Y-17630D01*
X15419Y-16616D01*
X15616Y-16419D01*
X29384Y-16419D01*
X29581Y-16616D01*
X29581Y-23384D01*
X29581Y-23384D01*
G37*
G54D12*
X29581Y-23384D02*
X29520Y-23445D01*
X29520Y-21954D01*
X29502Y-21864D01*
X29467Y-21778D01*
X29416Y-21702D01*
X29351Y-21636D01*
X29275Y-21585D01*
X29190Y-21549D01*
X29099Y-21530D01*
X29007Y-21530D01*
X28917Y-21547D01*
X28831Y-21581D01*
X28754Y-21632D01*
X28688Y-21696D01*
X28636Y-21772D01*
X28600Y-21857D01*
X28581Y-21947D01*
X28579Y-22039D01*
X28596Y-22130D01*
X28630Y-22216D01*
X28680Y-22293D01*
X28744Y-22360D01*
X28820Y-22412D01*
X28904Y-22449D01*
X28994Y-22469D01*
X29086Y-22471D01*
X29177Y-22455D01*
X29263Y-22422D01*
X29341Y-22372D01*
X29407Y-22309D01*
X29461Y-22233D01*
X29498Y-22149D01*
X29519Y-22059D01*
X29520Y-21954D01*
X29520Y-23445D01*
X29470Y-23495D01*
X29470Y-22904D01*
X29452Y-22814D01*
X29417Y-22728D01*
X29366Y-22652D01*
X29301Y-22586D01*
X29225Y-22535D01*
X29140Y-22499D01*
X29049Y-22480D01*
X28957Y-22480D01*
X28867Y-22497D01*
X28781Y-22531D01*
X28704Y-22582D01*
X28638Y-22646D01*
X28586Y-22722D01*
X28550Y-22807D01*
X28531Y-22897D01*
X28529Y-22989D01*
X28546Y-23080D01*
X28580Y-23166D01*
X28630Y-23243D01*
X28694Y-23310D01*
X28770Y-23362D01*
X28854Y-23399D01*
X28944Y-23419D01*
X29036Y-23421D01*
X29127Y-23405D01*
X29213Y-23372D01*
X29291Y-23322D01*
X29357Y-23259D01*
X29411Y-23183D01*
X29448Y-23099D01*
X29469Y-23009D01*
X29470Y-22904D01*
X29470Y-23495D01*
X29384Y-23581D01*
X28460Y-23581D01*
X28460Y-23042D01*
X28450Y-22952D01*
X28422Y-22867D01*
X28388Y-22803D01*
X28330Y-22762D01*
X28288Y-22803D01*
X28288Y-22720D01*
X28247Y-22662D01*
X28167Y-22621D01*
X28081Y-22597D01*
X27992Y-22590D01*
X27902Y-22600D01*
X27817Y-22628D01*
X27753Y-22662D01*
X27712Y-22720D01*
X28000Y-23009D01*
X28288Y-22720D01*
X28288Y-22803D01*
X28041Y-23050D01*
X28330Y-23338D01*
X28388Y-23297D01*
X28429Y-23217D01*
X28453Y-23131D01*
X28460Y-23042D01*
X28460Y-23581D01*
X28288Y-23581D01*
X28288Y-23380D01*
X28000Y-23091D01*
X27959Y-23132D01*
X27959Y-23050D01*
X27670Y-22762D01*
X27612Y-22803D01*
X27571Y-22883D01*
X27547Y-22969D01*
X27540Y-23058D01*
X27550Y-23148D01*
X27578Y-23233D01*
X27612Y-23297D01*
X27670Y-23338D01*
X27959Y-23050D01*
X27959Y-23132D01*
X27712Y-23380D01*
X27753Y-23438D01*
X27833Y-23479D01*
X27919Y-23503D01*
X28008Y-23510D01*
X28098Y-23500D01*
X28183Y-23472D01*
X28247Y-23438D01*
X28288Y-23380D01*
X28288Y-23581D01*
X21470Y-23581D01*
X21470Y-22904D01*
X21452Y-22814D01*
X21417Y-22728D01*
X21366Y-22652D01*
X21301Y-22586D01*
X21225Y-22535D01*
X21140Y-22499D01*
X21049Y-22480D01*
X20957Y-22480D01*
X20867Y-22497D01*
X20781Y-22531D01*
X20704Y-22582D01*
X20638Y-22646D01*
X20586Y-22722D01*
X20550Y-22807D01*
X20531Y-22897D01*
X20529Y-22989D01*
X20546Y-23080D01*
X20580Y-23166D01*
X20630Y-23243D01*
X20694Y-23310D01*
X20770Y-23362D01*
X20854Y-23399D01*
X20944Y-23419D01*
X21036Y-23421D01*
X21127Y-23405D01*
X21213Y-23372D01*
X21291Y-23322D01*
X21357Y-23259D01*
X21411Y-23183D01*
X21448Y-23099D01*
X21469Y-23009D01*
X21470Y-22904D01*
X21470Y-23581D01*
X17419Y-23581D01*
X15616Y-23581D01*
X15419Y-23384D01*
X15419Y-22375D01*
X15419Y-22374D01*
X15417Y-22352D01*
X15417Y-22351D01*
X15410Y-22329D01*
X15400Y-22309D01*
X15399Y-22308D01*
X15385Y-22291D01*
X15384Y-22290D01*
X15367Y-22275D01*
X15347Y-22265D01*
X15346Y-22264D01*
X15324Y-22257D01*
X15304Y-22255D01*
X15302Y-22255D01*
X15301Y-22255D01*
X15300Y-22255D01*
X14996Y-22255D01*
X14729Y-21988D01*
X14729Y-21536D01*
X15262Y-21536D01*
X15524Y-21798D01*
X15500Y-21857D01*
X15481Y-21947D01*
X15479Y-22039D01*
X15496Y-22130D01*
X15530Y-22216D01*
X15580Y-22293D01*
X15644Y-22360D01*
X15720Y-22412D01*
X15804Y-22449D01*
X15894Y-22469D01*
X15986Y-22471D01*
X16077Y-22455D01*
X16163Y-22422D01*
X16241Y-22372D01*
X16307Y-22309D01*
X16361Y-22233D01*
X16393Y-22159D01*
X16798Y-22159D01*
X16800Y-22159D01*
X16829Y-22156D01*
X16831Y-22156D01*
X16847Y-22151D01*
X16859Y-22148D01*
X16861Y-22147D01*
X16887Y-22134D01*
X16888Y-22132D01*
X16911Y-22114D01*
X16911Y-22113D01*
X16912Y-22113D01*
X16912Y-22112D01*
X16916Y-22107D01*
X17399Y-21625D01*
X17419Y-21625D01*
X17471Y-21625D01*
X17419Y-21677D01*
X16355Y-22740D01*
X16301Y-22686D01*
X16225Y-22635D01*
X16140Y-22599D01*
X16049Y-22580D01*
X15957Y-22580D01*
X15867Y-22597D01*
X15781Y-22631D01*
X15704Y-22682D01*
X15638Y-22746D01*
X15586Y-22822D01*
X15550Y-22907D01*
X15531Y-22997D01*
X15529Y-23089D01*
X15546Y-23180D01*
X15580Y-23266D01*
X15630Y-23343D01*
X15694Y-23410D01*
X15770Y-23462D01*
X15854Y-23499D01*
X15944Y-23519D01*
X16036Y-23521D01*
X16127Y-23505D01*
X16213Y-23472D01*
X16291Y-23422D01*
X16357Y-23359D01*
X16411Y-23283D01*
X16448Y-23199D01*
X16469Y-23109D01*
X16470Y-23004D01*
X16468Y-22995D01*
X16530Y-22933D01*
X16529Y-22989D01*
X16546Y-23080D01*
X16580Y-23166D01*
X16630Y-23243D01*
X16694Y-23310D01*
X16770Y-23362D01*
X16854Y-23399D01*
X16944Y-23419D01*
X17036Y-23421D01*
X17127Y-23405D01*
X17213Y-23372D01*
X17291Y-23322D01*
X17357Y-23259D01*
X17411Y-23183D01*
X17419Y-23164D01*
X17448Y-23099D01*
X17469Y-23009D01*
X17470Y-22904D01*
X17452Y-22814D01*
X17419Y-22732D01*
X17417Y-22728D01*
X17366Y-22652D01*
X17301Y-22586D01*
X17225Y-22535D01*
X17140Y-22499D01*
X17137Y-22498D01*
X17419Y-22216D01*
X17887Y-21747D01*
X17887Y-21751D01*
X17887Y-21759D01*
X17887Y-21917D01*
X17887Y-21934D01*
X17890Y-21951D01*
X17897Y-21967D01*
X17907Y-21981D01*
X17919Y-21993D01*
X17933Y-22003D01*
X17949Y-22010D01*
X17966Y-22013D01*
X18049Y-22013D01*
X18071Y-21991D01*
X18071Y-21759D01*
X18071Y-21729D01*
X18071Y-21671D01*
X18071Y-21641D01*
X18071Y-21409D01*
X18049Y-21387D01*
X17983Y-21387D01*
X18114Y-21256D01*
X18130Y-21237D01*
X18130Y-21236D01*
X18142Y-21214D01*
X18143Y-21213D01*
X18147Y-21197D01*
X18150Y-21190D01*
X18150Y-21189D01*
X18153Y-21165D01*
X18153Y-21163D01*
X18153Y-20886D01*
X18227Y-20811D01*
X18225Y-20827D01*
X18225Y-20839D01*
X18247Y-20861D01*
X18579Y-20861D01*
X18579Y-20856D01*
X18637Y-20856D01*
X18637Y-20861D01*
X18637Y-20909D01*
X18637Y-20944D01*
X18637Y-20967D01*
X18637Y-21000D01*
X18637Y-21023D01*
X18637Y-21058D01*
X18637Y-21106D01*
X18637Y-21141D01*
X18637Y-21197D01*
X18659Y-21219D01*
X18776Y-21219D01*
X18620Y-21375D01*
X18579Y-21375D01*
X18579Y-21197D01*
X18579Y-21106D01*
X18579Y-21058D01*
X18579Y-21000D01*
X18579Y-20967D01*
X18579Y-20909D01*
X18247Y-20909D01*
X18225Y-20931D01*
X18225Y-20943D01*
X18228Y-20960D01*
X18235Y-20976D01*
X18240Y-20983D01*
X18235Y-20991D01*
X18228Y-21007D01*
X18225Y-21024D01*
X18225Y-21036D01*
X18247Y-21058D01*
X18579Y-21058D01*
X18579Y-21106D01*
X18247Y-21106D01*
X18225Y-21128D01*
X18225Y-21140D01*
X18228Y-21157D01*
X18235Y-21173D01*
X18245Y-21187D01*
X18257Y-21199D01*
X18271Y-21209D01*
X18287Y-21216D01*
X18304Y-21219D01*
X18557Y-21219D01*
X18579Y-21197D01*
X18579Y-21375D01*
X18565Y-21375D01*
X18546Y-21379D01*
X18528Y-21386D01*
X18511Y-21397D01*
X18497Y-21411D01*
X18487Y-21427D01*
X18479Y-21445D01*
X18475Y-21465D01*
X18475Y-21484D01*
X18475Y-21935D01*
X18479Y-21954D01*
X18486Y-21972D01*
X18497Y-21989D01*
X18511Y-22003D01*
X18527Y-22013D01*
X18545Y-22021D01*
X18565Y-22025D01*
X18584Y-22025D01*
X18835Y-22025D01*
X18842Y-22023D01*
X18313Y-22552D01*
X18313Y-21934D01*
X18313Y-21917D01*
X18313Y-21751D01*
X18313Y-21649D01*
X18313Y-21483D01*
X18313Y-21466D01*
X18310Y-21449D01*
X18303Y-21433D01*
X18293Y-21419D01*
X18281Y-21407D01*
X18267Y-21397D01*
X18251Y-21390D01*
X18234Y-21387D01*
X18151Y-21387D01*
X18129Y-21409D01*
X18129Y-21671D01*
X18291Y-21671D01*
X18313Y-21649D01*
X18313Y-21751D01*
X18291Y-21729D01*
X18129Y-21729D01*
X18129Y-21991D01*
X18151Y-22013D01*
X18234Y-22013D01*
X18251Y-22010D01*
X18267Y-22003D01*
X18281Y-21993D01*
X18293Y-21981D01*
X18303Y-21967D01*
X18310Y-21951D01*
X18313Y-21934D01*
X18313Y-22552D01*
X18228Y-22637D01*
X18225Y-22635D01*
X18140Y-22599D01*
X18071Y-22584D01*
X18049Y-22580D01*
X17957Y-22580D01*
X17867Y-22597D01*
X17781Y-22631D01*
X17704Y-22682D01*
X17638Y-22746D01*
X17586Y-22822D01*
X17550Y-22907D01*
X17531Y-22997D01*
X17529Y-23089D01*
X17546Y-23180D01*
X17580Y-23266D01*
X17630Y-23343D01*
X17694Y-23410D01*
X17770Y-23462D01*
X17854Y-23499D01*
X17944Y-23519D01*
X18036Y-23521D01*
X18127Y-23505D01*
X18213Y-23472D01*
X18291Y-23422D01*
X18357Y-23359D01*
X18411Y-23283D01*
X18448Y-23199D01*
X18469Y-23109D01*
X18470Y-23004D01*
X18452Y-22914D01*
X18417Y-22828D01*
X18412Y-22821D01*
X19149Y-22085D01*
X19159Y-22087D01*
X19178Y-22087D01*
X19212Y-22087D01*
X19212Y-22097D01*
X19219Y-22137D01*
X19234Y-22175D01*
X19256Y-22209D01*
X19284Y-22239D01*
X19318Y-22262D01*
X19355Y-22279D01*
X19395Y-22287D01*
X19436Y-22288D01*
X19476Y-22281D01*
X19514Y-22267D01*
X19548Y-22245D01*
X19578Y-22217D01*
X19601Y-22184D01*
X19618Y-22146D01*
X19627Y-22107D01*
X19627Y-22087D01*
X19671Y-22087D01*
X19690Y-22083D01*
X19708Y-22076D01*
X19710Y-22074D01*
X19711Y-22075D01*
X19729Y-22083D01*
X19749Y-22087D01*
X19768Y-22087D01*
X19867Y-22087D01*
X19886Y-22083D01*
X19904Y-22076D01*
X19906Y-22074D01*
X19908Y-22075D01*
X19917Y-22079D01*
X19355Y-22641D01*
X19301Y-22586D01*
X19225Y-22535D01*
X19140Y-22499D01*
X19049Y-22480D01*
X18957Y-22480D01*
X18867Y-22497D01*
X18781Y-22531D01*
X18704Y-22582D01*
X18638Y-22646D01*
X18586Y-22722D01*
X18550Y-22807D01*
X18531Y-22897D01*
X18529Y-22989D01*
X18546Y-23080D01*
X18580Y-23166D01*
X18630Y-23243D01*
X18694Y-23310D01*
X18770Y-23362D01*
X18854Y-23399D01*
X18944Y-23419D01*
X19036Y-23421D01*
X19127Y-23405D01*
X19213Y-23372D01*
X19291Y-23322D01*
X19357Y-23259D01*
X19411Y-23183D01*
X19448Y-23099D01*
X19469Y-23009D01*
X19470Y-22904D01*
X19468Y-22895D01*
X20280Y-22083D01*
X20280Y-22082D01*
X20298Y-22076D01*
X20300Y-22074D01*
X20301Y-22075D01*
X20319Y-22083D01*
X20339Y-22087D01*
X20358Y-22087D01*
X20457Y-22087D01*
X20476Y-22083D01*
X20494Y-22076D01*
X20496Y-22074D01*
X20498Y-22075D01*
X20516Y-22083D01*
X20536Y-22087D01*
X20555Y-22087D01*
X20654Y-22087D01*
X20662Y-22085D01*
X20662Y-22204D01*
X20228Y-22637D01*
X20225Y-22635D01*
X20140Y-22599D01*
X20049Y-22580D01*
X19957Y-22580D01*
X19867Y-22597D01*
X19781Y-22631D01*
X19704Y-22682D01*
X19638Y-22746D01*
X19586Y-22822D01*
X19550Y-22907D01*
X19531Y-22997D01*
X19529Y-23089D01*
X19546Y-23180D01*
X19580Y-23266D01*
X19630Y-23343D01*
X19694Y-23410D01*
X19770Y-23462D01*
X19854Y-23499D01*
X19944Y-23519D01*
X20036Y-23521D01*
X20127Y-23505D01*
X20213Y-23472D01*
X20291Y-23422D01*
X20357Y-23359D01*
X20411Y-23283D01*
X20448Y-23199D01*
X20469Y-23109D01*
X20470Y-23004D01*
X20452Y-22914D01*
X20417Y-22828D01*
X20412Y-22821D01*
X20883Y-22351D01*
X20884Y-22350D01*
X20899Y-22331D01*
X20900Y-22331D01*
X20911Y-22309D01*
X20912Y-22308D01*
X20915Y-22295D01*
X20919Y-22285D01*
X20919Y-22283D01*
X20922Y-22260D01*
X20922Y-22258D01*
X20922Y-22085D01*
X20929Y-22087D01*
X20948Y-22087D01*
X21047Y-22087D01*
X21066Y-22083D01*
X21084Y-22076D01*
X21098Y-22066D01*
X21110Y-22072D01*
X21127Y-22075D01*
X21139Y-22075D01*
X21161Y-22053D01*
X21161Y-21721D01*
X21156Y-21721D01*
X21156Y-21663D01*
X21161Y-21663D01*
X21209Y-21663D01*
X21214Y-21663D01*
X21214Y-21721D01*
X21209Y-21721D01*
X21209Y-22034D01*
X21202Y-22066D01*
X21202Y-22107D01*
X21209Y-22147D01*
X21224Y-22185D01*
X21246Y-22219D01*
X21274Y-22249D01*
X21308Y-22272D01*
X21345Y-22289D01*
X21385Y-22297D01*
X21426Y-22298D01*
X21466Y-22291D01*
X21504Y-22277D01*
X21538Y-22255D01*
X21568Y-22227D01*
X21591Y-22194D01*
X21608Y-22156D01*
X21617Y-22117D01*
X21618Y-22070D01*
X21610Y-22030D01*
X21595Y-21992D01*
X21572Y-21958D01*
X21551Y-21937D01*
X21558Y-21942D01*
X21595Y-21959D01*
X21635Y-21967D01*
X21676Y-21968D01*
X21683Y-21966D01*
X21686Y-21972D01*
X21697Y-21989D01*
X21711Y-22003D01*
X21727Y-22013D01*
X21745Y-22021D01*
X21765Y-22025D01*
X21784Y-22025D01*
X22035Y-22025D01*
X22054Y-22021D01*
X22072Y-22014D01*
X22089Y-22003D01*
X22103Y-21989D01*
X22113Y-21973D01*
X22121Y-21955D01*
X22125Y-21935D01*
X22125Y-21916D01*
X22125Y-21465D01*
X22121Y-21446D01*
X22114Y-21428D01*
X22103Y-21411D01*
X22089Y-21397D01*
X22073Y-21387D01*
X22055Y-21379D01*
X22035Y-21375D01*
X22016Y-21375D01*
X21829Y-21375D01*
X21684Y-21230D01*
X21687Y-21231D01*
X21706Y-21231D01*
X22297Y-21231D01*
X22316Y-21227D01*
X22321Y-21225D01*
X22483Y-21387D01*
X22449Y-21387D01*
X22441Y-21387D01*
X22366Y-21387D01*
X22349Y-21390D01*
X22333Y-21397D01*
X22319Y-21407D01*
X22307Y-21419D01*
X22297Y-21433D01*
X22290Y-21449D01*
X22287Y-21466D01*
X22287Y-21483D01*
X22287Y-21649D01*
X22309Y-21671D01*
X22441Y-21671D01*
X22471Y-21671D01*
X22529Y-21671D01*
X22529Y-21729D01*
X22529Y-21759D01*
X22529Y-21991D01*
X22551Y-22013D01*
X22590Y-22013D01*
X22590Y-22276D01*
X22471Y-22394D01*
X22471Y-21991D01*
X22471Y-21729D01*
X22309Y-21729D01*
X22287Y-21751D01*
X22287Y-21917D01*
X22287Y-21934D01*
X22290Y-21951D01*
X22297Y-21967D01*
X22307Y-21981D01*
X22319Y-21993D01*
X22333Y-22003D01*
X22349Y-22010D01*
X22366Y-22013D01*
X22449Y-22013D01*
X22471Y-21991D01*
X22471Y-22394D01*
X22228Y-22637D01*
X22225Y-22635D01*
X22140Y-22599D01*
X22049Y-22580D01*
X21957Y-22580D01*
X21867Y-22597D01*
X21781Y-22631D01*
X21704Y-22682D01*
X21638Y-22746D01*
X21586Y-22822D01*
X21550Y-22907D01*
X21531Y-22997D01*
X21529Y-23089D01*
X21546Y-23180D01*
X21580Y-23266D01*
X21630Y-23343D01*
X21694Y-23410D01*
X21770Y-23462D01*
X21854Y-23499D01*
X21944Y-23519D01*
X22036Y-23521D01*
X22127Y-23505D01*
X22213Y-23472D01*
X22291Y-23422D01*
X22357Y-23359D01*
X22411Y-23283D01*
X22448Y-23199D01*
X22469Y-23109D01*
X22470Y-23004D01*
X22452Y-22914D01*
X22417Y-22828D01*
X22412Y-22821D01*
X22712Y-22522D01*
X22712Y-22576D01*
X22704Y-22582D01*
X22638Y-22646D01*
X22586Y-22722D01*
X22550Y-22807D01*
X22531Y-22897D01*
X22529Y-22989D01*
X22546Y-23080D01*
X22580Y-23166D01*
X22630Y-23243D01*
X22694Y-23310D01*
X22770Y-23362D01*
X22854Y-23399D01*
X22944Y-23419D01*
X23036Y-23421D01*
X23127Y-23405D01*
X23213Y-23372D01*
X23291Y-23322D01*
X23357Y-23259D01*
X23411Y-23183D01*
X23448Y-23099D01*
X23469Y-23009D01*
X23469Y-22923D01*
X23533Y-22987D01*
X23531Y-22997D01*
X23529Y-23089D01*
X23546Y-23180D01*
X23580Y-23266D01*
X23630Y-23343D01*
X23694Y-23410D01*
X23770Y-23462D01*
X23854Y-23499D01*
X23944Y-23519D01*
X24036Y-23521D01*
X24127Y-23505D01*
X24213Y-23472D01*
X24291Y-23422D01*
X24357Y-23359D01*
X24411Y-23283D01*
X24448Y-23199D01*
X24469Y-23109D01*
X24470Y-23004D01*
X24452Y-22914D01*
X24417Y-22828D01*
X24366Y-22752D01*
X24324Y-22710D01*
X24576Y-22710D01*
X24586Y-22720D01*
X24586Y-22722D01*
X24550Y-22807D01*
X24531Y-22897D01*
X24529Y-22989D01*
X24546Y-23080D01*
X24580Y-23166D01*
X24630Y-23243D01*
X24694Y-23310D01*
X24770Y-23362D01*
X24854Y-23399D01*
X24944Y-23419D01*
X25036Y-23421D01*
X25127Y-23405D01*
X25213Y-23372D01*
X25291Y-23322D01*
X25357Y-23259D01*
X25411Y-23183D01*
X25448Y-23099D01*
X25469Y-23009D01*
X25470Y-22904D01*
X25452Y-22814D01*
X25417Y-22728D01*
X25366Y-22652D01*
X25302Y-22588D01*
X25354Y-22588D01*
X25586Y-22820D01*
X25586Y-22822D01*
X25550Y-22907D01*
X25531Y-22997D01*
X25529Y-23089D01*
X25546Y-23180D01*
X25580Y-23266D01*
X25630Y-23343D01*
X25694Y-23410D01*
X25770Y-23462D01*
X25854Y-23499D01*
X25944Y-23519D01*
X26036Y-23521D01*
X26127Y-23505D01*
X26213Y-23472D01*
X26291Y-23422D01*
X26357Y-23359D01*
X26411Y-23283D01*
X26448Y-23199D01*
X26469Y-23109D01*
X26470Y-23004D01*
X26452Y-22914D01*
X26417Y-22828D01*
X26366Y-22752D01*
X26314Y-22700D01*
X26566Y-22700D01*
X26586Y-22720D01*
X26586Y-22722D01*
X26550Y-22807D01*
X26531Y-22897D01*
X26529Y-22989D01*
X26546Y-23080D01*
X26580Y-23166D01*
X26630Y-23243D01*
X26694Y-23310D01*
X26770Y-23362D01*
X26854Y-23399D01*
X26944Y-23419D01*
X27036Y-23421D01*
X27127Y-23405D01*
X27213Y-23372D01*
X27291Y-23322D01*
X27357Y-23259D01*
X27411Y-23183D01*
X27448Y-23099D01*
X27469Y-23009D01*
X27470Y-22904D01*
X27452Y-22814D01*
X27417Y-22728D01*
X27366Y-22652D01*
X27301Y-22586D01*
X27289Y-22578D01*
X27601Y-22578D01*
X27602Y-22578D01*
X27627Y-22576D01*
X27650Y-22568D01*
X27652Y-22568D01*
X27666Y-22560D01*
X27673Y-22557D01*
X27674Y-22556D01*
X27693Y-22541D01*
X27694Y-22540D01*
X27821Y-22412D01*
X27904Y-22449D01*
X27994Y-22469D01*
X28086Y-22471D01*
X28177Y-22455D01*
X28263Y-22422D01*
X28341Y-22372D01*
X28407Y-22309D01*
X28461Y-22233D01*
X28498Y-22149D01*
X28519Y-22059D01*
X28520Y-21954D01*
X28502Y-21864D01*
X28467Y-21778D01*
X28416Y-21702D01*
X28374Y-21660D01*
X28419Y-21660D01*
X28420Y-21660D01*
X28445Y-21658D01*
X28468Y-21650D01*
X28470Y-21650D01*
X28484Y-21642D01*
X28491Y-21639D01*
X28492Y-21638D01*
X28511Y-21623D01*
X28512Y-21622D01*
X28721Y-21412D01*
X28804Y-21449D01*
X28894Y-21469D01*
X28986Y-21471D01*
X29077Y-21455D01*
X29163Y-21422D01*
X29241Y-21372D01*
X29307Y-21309D01*
X29361Y-21233D01*
X29398Y-21149D01*
X29419Y-21059D01*
X29420Y-20954D01*
X29402Y-20864D01*
X29367Y-20778D01*
X29316Y-20702D01*
X29251Y-20636D01*
X29175Y-20585D01*
X29090Y-20549D01*
X28999Y-20530D01*
X28907Y-20530D01*
X28817Y-20547D01*
X28731Y-20581D01*
X28654Y-20632D01*
X28588Y-20696D01*
X28536Y-20772D01*
X28500Y-20857D01*
X28481Y-20947D01*
X28479Y-21039D01*
X28496Y-21130D01*
X28530Y-21216D01*
X28537Y-21228D01*
X28366Y-21400D01*
X28197Y-21400D01*
X28241Y-21372D01*
X28307Y-21309D01*
X28361Y-21233D01*
X28398Y-21149D01*
X28419Y-21059D01*
X28420Y-20954D01*
X28402Y-20864D01*
X28367Y-20778D01*
X28316Y-20702D01*
X28251Y-20636D01*
X28242Y-20630D01*
X28549Y-20630D01*
X28550Y-20630D01*
X28575Y-20628D01*
X28598Y-20620D01*
X28600Y-20620D01*
X28614Y-20612D01*
X28621Y-20609D01*
X28622Y-20608D01*
X28641Y-20593D01*
X28642Y-20592D01*
X28821Y-20412D01*
X28904Y-20449D01*
X28994Y-20469D01*
X29086Y-20471D01*
X29177Y-20455D01*
X29263Y-20422D01*
X29341Y-20372D01*
X29407Y-20309D01*
X29461Y-20233D01*
X29498Y-20149D01*
X29519Y-20059D01*
X29520Y-19954D01*
X29520Y-17954D01*
X29502Y-17864D01*
X29467Y-17778D01*
X29416Y-17702D01*
X29351Y-17636D01*
X29275Y-17585D01*
X29190Y-17549D01*
X29099Y-17530D01*
X29007Y-17530D01*
X28917Y-17547D01*
X28831Y-17581D01*
X28754Y-17632D01*
X28688Y-17696D01*
X28636Y-17772D01*
X28600Y-17857D01*
X28581Y-17947D01*
X28579Y-18039D01*
X28596Y-18130D01*
X28630Y-18216D01*
X28680Y-18293D01*
X28744Y-18360D01*
X28820Y-18412D01*
X28904Y-18449D01*
X28994Y-18469D01*
X29086Y-18471D01*
X29177Y-18455D01*
X29263Y-18422D01*
X29341Y-18372D01*
X29407Y-18309D01*
X29461Y-18233D01*
X29498Y-18149D01*
X29519Y-18059D01*
X29520Y-17954D01*
X29520Y-19954D01*
X29502Y-19864D01*
X29467Y-19778D01*
X29416Y-19702D01*
X29410Y-19695D01*
X29410Y-18992D01*
X29400Y-18902D01*
X29372Y-18817D01*
X29338Y-18753D01*
X29280Y-18712D01*
X29238Y-18753D01*
X29238Y-18670D01*
X29197Y-18612D01*
X29117Y-18571D01*
X29031Y-18547D01*
X28942Y-18540D01*
X28852Y-18550D01*
X28767Y-18578D01*
X28703Y-18612D01*
X28662Y-18670D01*
X28950Y-18959D01*
X29238Y-18670D01*
X29238Y-18753D01*
X28991Y-19000D01*
X29280Y-19288D01*
X29338Y-19247D01*
X29379Y-19167D01*
X29403Y-19081D01*
X29410Y-18992D01*
X29410Y-19695D01*
X29351Y-19636D01*
X29275Y-19585D01*
X29238Y-19569D01*
X29238Y-19330D01*
X28950Y-19041D01*
X28662Y-19330D01*
X28703Y-19388D01*
X28783Y-19429D01*
X28869Y-19453D01*
X28958Y-19460D01*
X29048Y-19450D01*
X29133Y-19422D01*
X29197Y-19388D01*
X29238Y-19330D01*
X29238Y-19569D01*
X29190Y-19549D01*
X29099Y-19530D01*
X29007Y-19530D01*
X28917Y-19547D01*
X28831Y-19581D01*
X28754Y-19632D01*
X28688Y-19696D01*
X28636Y-19772D01*
X28600Y-19857D01*
X28581Y-19947D01*
X28579Y-20039D01*
X28596Y-20130D01*
X28630Y-20216D01*
X28637Y-20228D01*
X28496Y-20370D01*
X28343Y-20370D01*
X28407Y-20309D01*
X28461Y-20233D01*
X28498Y-20149D01*
X28519Y-20059D01*
X28520Y-19954D01*
X28502Y-19864D01*
X28467Y-19778D01*
X28462Y-19770D01*
X28536Y-19696D01*
X28541Y-19693D01*
X28541Y-19692D01*
X28548Y-19683D01*
X28557Y-19673D01*
X28558Y-19673D01*
X28569Y-19651D01*
X28570Y-19650D01*
X28574Y-19634D01*
X28577Y-19627D01*
X28577Y-19626D01*
X28580Y-19602D01*
X28580Y-19600D01*
X28580Y-19259D01*
X28620Y-19288D01*
X28909Y-19000D01*
X28620Y-18712D01*
X28580Y-18740D01*
X28580Y-18721D01*
X28580Y-18720D01*
X28578Y-18695D01*
X28570Y-18672D01*
X28570Y-18670D01*
X28562Y-18655D01*
X28559Y-18649D01*
X28558Y-18648D01*
X28543Y-18629D01*
X28542Y-18628D01*
X28323Y-18409D01*
X28322Y-18408D01*
X28305Y-18394D01*
X28341Y-18372D01*
X28407Y-18309D01*
X28461Y-18233D01*
X28498Y-18149D01*
X28519Y-18059D01*
X28520Y-17954D01*
X28502Y-17864D01*
X28467Y-17778D01*
X28416Y-17702D01*
X28364Y-17650D01*
X28429Y-17650D01*
X28430Y-17650D01*
X28455Y-17648D01*
X28478Y-17640D01*
X28480Y-17640D01*
X28494Y-17632D01*
X28501Y-17629D01*
X28502Y-17628D01*
X28521Y-17613D01*
X28522Y-17612D01*
X28771Y-17362D01*
X28854Y-17399D01*
X28944Y-17419D01*
X29036Y-17421D01*
X29127Y-17405D01*
X29213Y-17372D01*
X29291Y-17322D01*
X29357Y-17259D01*
X29411Y-17183D01*
X29448Y-17099D01*
X29469Y-17009D01*
X29470Y-16904D01*
X29452Y-16814D01*
X29417Y-16728D01*
X29366Y-16652D01*
X29301Y-16586D01*
X29225Y-16535D01*
X29140Y-16499D01*
X29049Y-16480D01*
X28957Y-16480D01*
X28867Y-16497D01*
X28781Y-16531D01*
X28704Y-16582D01*
X28638Y-16646D01*
X28586Y-16722D01*
X28550Y-16807D01*
X28531Y-16897D01*
X28529Y-16989D01*
X28546Y-17080D01*
X28580Y-17166D01*
X28587Y-17178D01*
X28376Y-17390D01*
X28324Y-17390D01*
X28357Y-17359D01*
X28411Y-17283D01*
X28448Y-17199D01*
X28469Y-17109D01*
X28470Y-17004D01*
X28452Y-16914D01*
X28417Y-16828D01*
X28366Y-16752D01*
X28301Y-16686D01*
X28225Y-16635D01*
X28140Y-16599D01*
X28049Y-16580D01*
X27957Y-16580D01*
X27867Y-16597D01*
X27781Y-16631D01*
X27704Y-16682D01*
X27638Y-16746D01*
X27586Y-16822D01*
X27550Y-16907D01*
X27531Y-16997D01*
X27529Y-17089D01*
X27546Y-17180D01*
X27580Y-17266D01*
X27587Y-17278D01*
X27332Y-17534D01*
X26600Y-17534D01*
X26771Y-17362D01*
X26854Y-17399D01*
X26944Y-17419D01*
X27036Y-17421D01*
X27127Y-17405D01*
X27213Y-17372D01*
X27291Y-17322D01*
X27357Y-17259D01*
X27411Y-17183D01*
X27448Y-17099D01*
X27469Y-17009D01*
X27470Y-16904D01*
X27452Y-16814D01*
X27417Y-16728D01*
X27366Y-16652D01*
X27301Y-16586D01*
X27225Y-16535D01*
X27140Y-16499D01*
X27049Y-16480D01*
X26957Y-16480D01*
X26867Y-16497D01*
X26781Y-16531D01*
X26704Y-16582D01*
X26638Y-16646D01*
X26586Y-16722D01*
X26550Y-16807D01*
X26531Y-16897D01*
X26529Y-16989D01*
X26546Y-17080D01*
X26580Y-17166D01*
X26587Y-17178D01*
X26354Y-17412D01*
X26301Y-17412D01*
X26357Y-17359D01*
X26411Y-17283D01*
X26448Y-17199D01*
X26469Y-17109D01*
X26470Y-17004D01*
X26452Y-16914D01*
X26417Y-16828D01*
X26366Y-16752D01*
X26301Y-16686D01*
X26225Y-16635D01*
X26140Y-16599D01*
X26049Y-16580D01*
X25957Y-16580D01*
X25867Y-16597D01*
X25781Y-16631D01*
X25704Y-16682D01*
X25638Y-16746D01*
X25586Y-16822D01*
X25550Y-16907D01*
X25531Y-16997D01*
X25529Y-17089D01*
X25546Y-17180D01*
X25580Y-17266D01*
X25587Y-17278D01*
X25576Y-17290D01*
X25324Y-17290D01*
X25357Y-17259D01*
X25411Y-17183D01*
X25448Y-17099D01*
X25469Y-17009D01*
X25470Y-16904D01*
X25452Y-16814D01*
X25417Y-16728D01*
X25366Y-16652D01*
X25301Y-16586D01*
X25225Y-16535D01*
X25140Y-16499D01*
X25049Y-16480D01*
X24957Y-16480D01*
X24867Y-16497D01*
X24781Y-16531D01*
X24704Y-16582D01*
X24638Y-16646D01*
X24586Y-16722D01*
X24550Y-16807D01*
X24531Y-16897D01*
X24529Y-16989D01*
X24546Y-17080D01*
X24580Y-17166D01*
X24587Y-17178D01*
X24354Y-17412D01*
X24301Y-17412D01*
X24357Y-17359D01*
X24411Y-17283D01*
X24448Y-17199D01*
X24469Y-17109D01*
X24470Y-17004D01*
X24452Y-16914D01*
X24417Y-16828D01*
X24366Y-16752D01*
X24301Y-16686D01*
X24225Y-16635D01*
X24140Y-16599D01*
X24049Y-16580D01*
X23957Y-16580D01*
X23867Y-16597D01*
X23781Y-16631D01*
X23704Y-16682D01*
X23638Y-16746D01*
X23586Y-16822D01*
X23550Y-16907D01*
X23531Y-16997D01*
X23529Y-17089D01*
X23546Y-17180D01*
X23580Y-17266D01*
X23587Y-17278D01*
X23576Y-17290D01*
X23324Y-17290D01*
X23357Y-17259D01*
X23411Y-17183D01*
X23448Y-17099D01*
X23469Y-17009D01*
X23470Y-16904D01*
X23452Y-16814D01*
X23417Y-16728D01*
X23366Y-16652D01*
X23301Y-16586D01*
X23225Y-16535D01*
X23140Y-16499D01*
X23049Y-16480D01*
X22957Y-16480D01*
X22867Y-16497D01*
X22781Y-16531D01*
X22704Y-16582D01*
X22638Y-16646D01*
X22586Y-16722D01*
X22550Y-16807D01*
X22531Y-16897D01*
X22529Y-16989D01*
X22546Y-17080D01*
X22580Y-17166D01*
X22587Y-17178D01*
X22354Y-17412D01*
X22301Y-17412D01*
X22357Y-17359D01*
X22411Y-17283D01*
X22448Y-17199D01*
X22469Y-17109D01*
X22470Y-17004D01*
X22452Y-16914D01*
X22417Y-16828D01*
X22366Y-16752D01*
X22301Y-16686D01*
X22225Y-16635D01*
X22140Y-16599D01*
X22049Y-16580D01*
X21957Y-16580D01*
X21867Y-16597D01*
X21781Y-16631D01*
X21704Y-16682D01*
X21638Y-16746D01*
X21586Y-16822D01*
X21550Y-16907D01*
X21531Y-16997D01*
X21529Y-17089D01*
X21546Y-17180D01*
X21580Y-17266D01*
X21587Y-17278D01*
X21576Y-17290D01*
X21324Y-17290D01*
X21357Y-17259D01*
X21411Y-17183D01*
X21448Y-17099D01*
X21469Y-17009D01*
X21470Y-16904D01*
X21452Y-16814D01*
X21417Y-16728D01*
X21366Y-16652D01*
X21301Y-16586D01*
X21225Y-16535D01*
X21140Y-16499D01*
X21049Y-16480D01*
X20957Y-16480D01*
X20867Y-16497D01*
X20781Y-16531D01*
X20704Y-16582D01*
X20638Y-16646D01*
X20586Y-16722D01*
X20550Y-16807D01*
X20531Y-16897D01*
X20529Y-16989D01*
X20546Y-17080D01*
X20580Y-17166D01*
X20587Y-17178D01*
X20130Y-17636D01*
X20130Y-17503D01*
X20213Y-17472D01*
X20291Y-17422D01*
X20357Y-17359D01*
X20411Y-17283D01*
X20448Y-17199D01*
X20469Y-17109D01*
X20470Y-17004D01*
X20452Y-16914D01*
X20417Y-16828D01*
X20366Y-16752D01*
X20301Y-16686D01*
X20225Y-16635D01*
X20140Y-16599D01*
X20049Y-16580D01*
X19957Y-16580D01*
X19867Y-16597D01*
X19781Y-16631D01*
X19704Y-16682D01*
X19638Y-16746D01*
X19586Y-16822D01*
X19550Y-16907D01*
X19531Y-16997D01*
X19529Y-17089D01*
X19546Y-17180D01*
X19580Y-17266D01*
X19630Y-17343D01*
X19694Y-17410D01*
X19770Y-17462D01*
X19854Y-17499D01*
X19870Y-17502D01*
X19870Y-17736D01*
X19371Y-17238D01*
X19411Y-17183D01*
X19448Y-17099D01*
X19469Y-17009D01*
X19470Y-16904D01*
X19452Y-16814D01*
X19417Y-16728D01*
X19366Y-16652D01*
X19301Y-16586D01*
X19225Y-16535D01*
X19140Y-16499D01*
X19049Y-16480D01*
X18957Y-16480D01*
X18867Y-16497D01*
X18781Y-16531D01*
X18704Y-16582D01*
X18638Y-16646D01*
X18586Y-16722D01*
X18550Y-16807D01*
X18531Y-16897D01*
X18529Y-16989D01*
X18546Y-17080D01*
X18580Y-17166D01*
X18630Y-17243D01*
X18674Y-17290D01*
X18523Y-17290D01*
X18443Y-17209D01*
X18448Y-17199D01*
X18469Y-17109D01*
X18470Y-17004D01*
X18452Y-16914D01*
X18417Y-16828D01*
X18366Y-16752D01*
X18301Y-16686D01*
X18225Y-16635D01*
X18140Y-16599D01*
X18049Y-16580D01*
X17957Y-16580D01*
X17867Y-16597D01*
X17781Y-16631D01*
X17704Y-16682D01*
X17638Y-16746D01*
X17586Y-16822D01*
X17550Y-16907D01*
X17531Y-16997D01*
X17529Y-17089D01*
X17546Y-17180D01*
X17580Y-17266D01*
X17630Y-17343D01*
X17694Y-17410D01*
X17696Y-17412D01*
X17545Y-17412D01*
X17371Y-17238D01*
X17411Y-17183D01*
X17448Y-17099D01*
X17469Y-17009D01*
X17470Y-16904D01*
X17452Y-16814D01*
X17417Y-16728D01*
X17366Y-16652D01*
X17301Y-16586D01*
X17225Y-16535D01*
X17140Y-16499D01*
X17049Y-16480D01*
X16957Y-16480D01*
X16867Y-16497D01*
X16781Y-16531D01*
X16704Y-16582D01*
X16638Y-16646D01*
X16586Y-16722D01*
X16550Y-16807D01*
X16531Y-16897D01*
X16529Y-16989D01*
X16546Y-17080D01*
X16580Y-17166D01*
X16630Y-17243D01*
X16674Y-17290D01*
X16424Y-17290D01*
X16412Y-17278D01*
X16448Y-17199D01*
X16469Y-17109D01*
X16470Y-17004D01*
X16452Y-16914D01*
X16417Y-16828D01*
X16366Y-16752D01*
X16301Y-16686D01*
X16225Y-16635D01*
X16140Y-16599D01*
X16049Y-16580D01*
X15957Y-16580D01*
X15867Y-16597D01*
X15781Y-16631D01*
X15704Y-16682D01*
X15638Y-16746D01*
X15586Y-16822D01*
X15550Y-16907D01*
X15531Y-16997D01*
X15529Y-17089D01*
X15546Y-17180D01*
X15580Y-17266D01*
X15630Y-17343D01*
X15694Y-17410D01*
X15770Y-17462D01*
X15854Y-17499D01*
X15944Y-17519D01*
X16036Y-17521D01*
X16127Y-17505D01*
X16213Y-17472D01*
X16228Y-17462D01*
X16277Y-17511D01*
X16278Y-17512D01*
X16297Y-17528D01*
X16319Y-17539D01*
X16320Y-17540D01*
X16336Y-17544D01*
X16343Y-17547D01*
X16344Y-17547D01*
X16368Y-17550D01*
X16370Y-17550D01*
X16417Y-17550D01*
X16411Y-17566D01*
X16402Y-17606D01*
X16402Y-17613D01*
X16373Y-17642D01*
X16369Y-17646D01*
X16349Y-17670D01*
X16334Y-17697D01*
X16333Y-17697D01*
X16333Y-17699D01*
X16330Y-17709D01*
X16327Y-17717D01*
X16286Y-17676D01*
X16210Y-17625D01*
X16125Y-17589D01*
X16034Y-17570D01*
X15942Y-17570D01*
X15852Y-17587D01*
X15766Y-17621D01*
X15689Y-17672D01*
X15623Y-17736D01*
X15571Y-17812D01*
X15535Y-17897D01*
X15516Y-17987D01*
X15514Y-18079D01*
X15531Y-18170D01*
X15565Y-18256D01*
X15615Y-18333D01*
X15679Y-18400D01*
X15755Y-18452D01*
X15839Y-18489D01*
X15902Y-18503D01*
X15882Y-18507D01*
X15813Y-18534D01*
X15795Y-18516D01*
X15792Y-18512D01*
X15790Y-18511D01*
X15768Y-18492D01*
X15766Y-18491D01*
X15741Y-18477D01*
X15740Y-18476D01*
X15739Y-18476D01*
X15729Y-18473D01*
X15711Y-18467D01*
X15680Y-18464D01*
X15679Y-18464D01*
X15678Y-18464D01*
X14729Y-18464D01*
X14729Y-18012D01*
X14992Y-17749D01*
X15299Y-17749D01*
X15300Y-17749D01*
X15322Y-17747D01*
X15323Y-17747D01*
X15345Y-17740D01*
X15365Y-17730D01*
X15366Y-17729D01*
X15383Y-17715D01*
X15383Y-17714D01*
X15384Y-17714D01*
X15398Y-17697D01*
X15399Y-17697D01*
X15409Y-17677D01*
X15410Y-17676D01*
X15416Y-17655D01*
X15417Y-17654D01*
X15418Y-17634D01*
X15419Y-17632D01*
X15419Y-17631D01*
X15419Y-17630D01*
X15419Y-16616D01*
X15616Y-16419D01*
X29384Y-16419D01*
X29581Y-16616D01*
X29581Y-23384D01*
M02*
