G04 (created by PCBNEW-RS274X (2012-jan-04)-stable) date Sun 19 Feb 2012 11:53:43 PM CET*
G01*
G70*
G90*
%MOIN*%
G04 Gerber Fmt 3.4, Leading zero omitted, Abs format*
%FSLAX34Y34*%
G04 APERTURE LIST*
%ADD10C,0.006000*%
%ADD11C,0.002600*%
%ADD12C,0.004000*%
%ADD13C,0.005000*%
%ADD14C,0.008000*%
%ADD15C,0.005900*%
%ADD16C,0.003900*%
%ADD17R,0.080200X0.080200*%
%ADD18C,0.080200*%
%ADD19R,0.030200X0.093100*%
%ADD20R,0.036200X0.036200*%
%ADD21R,0.045600X0.029800*%
%ADD22R,0.061200X0.041200*%
%ADD23R,0.051200X0.031200*%
%ADD24R,0.026200X0.036200*%
%ADD25R,0.104600X0.025800*%
%ADD26R,0.104600X0.084900*%
%ADD27C,0.041600*%
%ADD28R,0.045600X0.069200*%
%ADD29R,0.124300X0.069200*%
%ADD30R,0.056200X0.031200*%
%ADD31R,0.056200X0.071200*%
%ADD32R,0.031200X0.051200*%
%ADD33R,0.041600X0.051200*%
%ADD34R,0.051200X0.041600*%
G04 APERTURE END LIST*
G54D10*
G54D11*
X25280Y-18170D02*
X25420Y-18170D01*
X25420Y-18170D02*
X25420Y-18570D01*
X25280Y-18570D02*
X25420Y-18570D01*
X25280Y-18170D02*
X25280Y-18570D01*
X25780Y-18170D02*
X25920Y-18170D01*
X25920Y-18170D02*
X25920Y-18570D01*
X25780Y-18570D02*
X25920Y-18570D01*
X25780Y-18170D02*
X25780Y-18570D01*
X26280Y-18170D02*
X26420Y-18170D01*
X26420Y-18170D02*
X26420Y-18570D01*
X26280Y-18570D02*
X26420Y-18570D01*
X26280Y-18170D02*
X26280Y-18570D01*
X26780Y-18170D02*
X26920Y-18170D01*
X26920Y-18170D02*
X26920Y-18570D01*
X26780Y-18570D02*
X26920Y-18570D01*
X26780Y-18170D02*
X26780Y-18570D01*
X25280Y-20030D02*
X25420Y-20030D01*
X25420Y-20030D02*
X25420Y-20430D01*
X25280Y-20430D02*
X25420Y-20430D01*
X25280Y-20030D02*
X25280Y-20430D01*
X25780Y-20030D02*
X25920Y-20030D01*
X25920Y-20030D02*
X25920Y-20430D01*
X25780Y-20430D02*
X25920Y-20430D01*
X25780Y-20030D02*
X25780Y-20430D01*
X26280Y-20030D02*
X26420Y-20030D01*
X26420Y-20030D02*
X26420Y-20430D01*
X26280Y-20430D02*
X26420Y-20430D01*
X26280Y-20030D02*
X26280Y-20430D01*
X26780Y-20030D02*
X26920Y-20030D01*
X26920Y-20030D02*
X26920Y-20430D01*
X26780Y-20430D02*
X26920Y-20430D01*
X26780Y-20030D02*
X26780Y-20430D01*
G54D10*
X25171Y-18591D02*
X27029Y-18591D01*
X27029Y-18591D02*
X27029Y-20009D01*
X27029Y-20009D02*
X25171Y-20009D01*
X25171Y-20009D02*
X25171Y-18591D01*
G54D12*
X25430Y-18910D02*
X25429Y-18917D01*
X25427Y-18924D01*
X25423Y-18931D01*
X25418Y-18937D01*
X25412Y-18942D01*
X25406Y-18945D01*
X25398Y-18948D01*
X25391Y-18948D01*
X25384Y-18948D01*
X25377Y-18946D01*
X25370Y-18942D01*
X25364Y-18937D01*
X25359Y-18932D01*
X25356Y-18925D01*
X25353Y-18918D01*
X25353Y-18910D01*
X25353Y-18903D01*
X25355Y-18896D01*
X25359Y-18889D01*
X25363Y-18883D01*
X25369Y-18878D01*
X25376Y-18875D01*
X25383Y-18872D01*
X25391Y-18872D01*
X25397Y-18872D01*
X25405Y-18874D01*
X25411Y-18878D01*
X25417Y-18882D01*
X25422Y-18888D01*
X25426Y-18895D01*
X25429Y-18902D01*
X25429Y-18909D01*
X25430Y-18910D01*
G54D13*
X17200Y-21805D02*
X17200Y-21555D01*
X17200Y-21555D02*
X17600Y-21555D01*
X17600Y-22255D02*
X17200Y-22255D01*
X17200Y-22255D02*
X17200Y-22005D01*
X17150Y-21805D02*
X17200Y-21805D01*
X17200Y-22005D02*
X17150Y-22005D01*
X17600Y-21555D02*
X17600Y-22255D01*
X17150Y-22005D02*
X17150Y-21805D01*
X16850Y-21450D02*
X16849Y-21459D01*
X16846Y-21469D01*
X16841Y-21477D01*
X16835Y-21485D01*
X16827Y-21491D01*
X16819Y-21496D01*
X16810Y-21498D01*
X16800Y-21499D01*
X16791Y-21499D01*
X16782Y-21496D01*
X16773Y-21491D01*
X16766Y-21485D01*
X16759Y-21478D01*
X16755Y-21469D01*
X16752Y-21460D01*
X16751Y-21450D01*
X16751Y-21441D01*
X16754Y-21432D01*
X16758Y-21423D01*
X16765Y-21416D01*
X16772Y-21409D01*
X16780Y-21405D01*
X16790Y-21402D01*
X16799Y-21401D01*
X16808Y-21401D01*
X16818Y-21404D01*
X16826Y-21408D01*
X16834Y-21414D01*
X16840Y-21422D01*
X16845Y-21430D01*
X16848Y-21439D01*
X16849Y-21449D01*
X16850Y-21450D01*
X16800Y-21000D02*
X16800Y-21400D01*
X16800Y-21400D02*
X17400Y-21400D01*
X17400Y-21400D02*
X17400Y-21000D01*
X17400Y-20600D02*
X17400Y-20200D01*
X17400Y-20200D02*
X16800Y-20200D01*
X16800Y-20200D02*
X16800Y-20600D01*
X17950Y-19550D02*
X17950Y-18650D01*
X17950Y-18650D02*
X17450Y-18650D01*
X17450Y-18650D02*
X17450Y-19550D01*
X17450Y-19550D02*
X17950Y-19550D01*
X18550Y-19550D02*
X18550Y-18650D01*
X18550Y-18650D02*
X18050Y-18650D01*
X18050Y-18650D02*
X18050Y-19550D01*
X18050Y-19550D02*
X18550Y-19550D01*
X17500Y-20050D02*
X17500Y-20750D01*
X17500Y-20750D02*
X18700Y-20750D01*
X18700Y-20750D02*
X18700Y-20050D01*
X18700Y-20050D02*
X17500Y-20050D01*
G54D14*
X13489Y-21496D02*
X14314Y-21496D01*
X15299Y-21220D02*
X15299Y-20866D01*
X15299Y-19134D02*
X15299Y-18780D01*
X14314Y-18504D02*
X13489Y-18504D01*
X11678Y-21496D02*
X11678Y-18504D01*
X11678Y-18504D02*
X12229Y-18504D01*
X11678Y-21496D02*
X12229Y-21496D01*
G54D10*
X21015Y-22490D02*
X22715Y-22490D01*
X20915Y-22390D02*
X20915Y-21790D01*
X22815Y-22390D02*
X22815Y-21790D01*
X22715Y-21690D02*
X21015Y-21690D01*
X21165Y-22090D02*
X20965Y-22090D01*
X22565Y-22090D02*
X22765Y-22090D01*
X21865Y-21790D02*
X21865Y-21690D01*
X21865Y-22490D02*
X21865Y-22390D01*
G54D14*
X20400Y-21525D02*
X20400Y-20875D01*
X19600Y-20875D02*
X19600Y-21525D01*
X19600Y-21525D02*
X19601Y-21533D01*
X19602Y-21542D01*
X19604Y-21550D01*
X19607Y-21559D01*
X19610Y-21567D01*
X19614Y-21575D01*
X19619Y-21582D01*
X19624Y-21589D01*
X19630Y-21595D01*
X19636Y-21601D01*
X19643Y-21606D01*
X19650Y-21611D01*
X19658Y-21615D01*
X19666Y-21618D01*
X19675Y-21621D01*
X19683Y-21623D01*
X19692Y-21624D01*
X19700Y-21625D01*
X19700Y-20775D02*
X19692Y-20776D01*
X19683Y-20777D01*
X19675Y-20779D01*
X19666Y-20782D01*
X19658Y-20785D01*
X19651Y-20789D01*
X19643Y-20794D01*
X19636Y-20799D01*
X19630Y-20805D01*
X19624Y-20811D01*
X19619Y-20818D01*
X19614Y-20826D01*
X19610Y-20833D01*
X19607Y-20841D01*
X19604Y-20850D01*
X19602Y-20858D01*
X19601Y-20867D01*
X19600Y-20875D01*
X20400Y-20875D02*
X20399Y-20867D01*
X20398Y-20858D01*
X20396Y-20850D01*
X20393Y-20841D01*
X20390Y-20833D01*
X20386Y-20826D01*
X20381Y-20818D01*
X20376Y-20811D01*
X20370Y-20805D01*
X20364Y-20799D01*
X20357Y-20794D01*
X20350Y-20789D01*
X20342Y-20785D01*
X20334Y-20782D01*
X20325Y-20779D01*
X20317Y-20777D01*
X20308Y-20776D01*
X20300Y-20775D01*
X20300Y-21625D02*
X20308Y-21624D01*
X20317Y-21623D01*
X20325Y-21621D01*
X20334Y-21618D01*
X20342Y-21615D01*
X20350Y-21611D01*
X20357Y-21606D01*
X20364Y-21601D01*
X20370Y-21595D01*
X20376Y-21589D01*
X20381Y-21582D01*
X20386Y-21574D01*
X20390Y-21567D01*
X20393Y-21559D01*
X20396Y-21550D01*
X20398Y-21542D01*
X20399Y-21533D01*
X20400Y-21525D01*
G54D13*
X23810Y-18765D02*
X24710Y-18765D01*
X24710Y-18765D02*
X24710Y-18265D01*
X24710Y-18265D02*
X23810Y-18265D01*
X23810Y-18265D02*
X23810Y-18765D01*
G54D15*
X19436Y-21951D02*
X18964Y-21951D01*
G54D13*
X19450Y-21850D02*
X19450Y-20950D01*
X19450Y-20950D02*
X18950Y-20950D01*
X18950Y-20950D02*
X18950Y-21850D01*
X18950Y-21850D02*
X19450Y-21850D01*
G54D16*
X24786Y-19340D02*
X25009Y-19340D01*
X25035Y-19353D01*
X25049Y-19366D01*
X25062Y-19392D01*
X25062Y-19445D01*
X25049Y-19471D01*
X25035Y-19484D01*
X25009Y-19497D01*
X24786Y-19497D01*
X24812Y-19616D02*
X24799Y-19629D01*
X24786Y-19655D01*
X24786Y-19721D01*
X24799Y-19747D01*
X24812Y-19760D01*
X24838Y-19773D01*
X24865Y-19773D01*
X24904Y-19760D01*
X25062Y-19602D01*
X25062Y-19773D01*
X17726Y-21438D02*
X17753Y-21425D01*
X17779Y-21399D01*
X17818Y-21359D01*
X17845Y-21346D01*
X17871Y-21346D01*
X17858Y-21412D02*
X17884Y-21399D01*
X17910Y-21372D01*
X17923Y-21320D01*
X17923Y-21228D01*
X17910Y-21175D01*
X17884Y-21149D01*
X17858Y-21136D01*
X17805Y-21136D01*
X17779Y-21149D01*
X17753Y-21175D01*
X17739Y-21228D01*
X17739Y-21320D01*
X17753Y-21372D01*
X17779Y-21399D01*
X17805Y-21412D01*
X17858Y-21412D01*
X17477Y-21412D02*
X17634Y-21412D01*
X17556Y-21412D02*
X17556Y-21136D01*
X17582Y-21175D01*
X17608Y-21201D01*
X17634Y-21215D01*
X17146Y-20085D02*
X17159Y-20099D01*
X17198Y-20112D01*
X17224Y-20112D01*
X17264Y-20099D01*
X17290Y-20072D01*
X17303Y-20046D01*
X17316Y-19993D01*
X17316Y-19954D01*
X17303Y-19901D01*
X17290Y-19875D01*
X17264Y-19849D01*
X17224Y-19836D01*
X17198Y-19836D01*
X17159Y-19849D01*
X17146Y-19862D01*
X16909Y-19836D02*
X16962Y-19836D01*
X16988Y-19849D01*
X17001Y-19862D01*
X17027Y-19901D01*
X17040Y-19954D01*
X17040Y-20059D01*
X17027Y-20085D01*
X17014Y-20099D01*
X16988Y-20112D01*
X16935Y-20112D01*
X16909Y-20099D01*
X16896Y-20085D01*
X16883Y-20059D01*
X16883Y-19993D01*
X16896Y-19967D01*
X16909Y-19954D01*
X16935Y-19941D01*
X16988Y-19941D01*
X17014Y-19954D01*
X17027Y-19967D01*
X17040Y-19993D01*
X17746Y-18562D02*
X17838Y-18430D01*
X17903Y-18562D02*
X17903Y-18286D01*
X17798Y-18286D01*
X17772Y-18299D01*
X17759Y-18312D01*
X17746Y-18338D01*
X17746Y-18378D01*
X17759Y-18404D01*
X17772Y-18417D01*
X17798Y-18430D01*
X17903Y-18430D01*
X17496Y-18286D02*
X17627Y-18286D01*
X17640Y-18417D01*
X17627Y-18404D01*
X17601Y-18391D01*
X17535Y-18391D01*
X17509Y-18404D01*
X17496Y-18417D01*
X17483Y-18443D01*
X17483Y-18509D01*
X17496Y-18535D01*
X17509Y-18549D01*
X17535Y-18562D01*
X17601Y-18562D01*
X17627Y-18549D01*
X17640Y-18535D01*
X18346Y-18562D02*
X18438Y-18430D01*
X18503Y-18562D02*
X18503Y-18286D01*
X18398Y-18286D01*
X18372Y-18299D01*
X18359Y-18312D01*
X18346Y-18338D01*
X18346Y-18378D01*
X18359Y-18404D01*
X18372Y-18417D01*
X18398Y-18430D01*
X18503Y-18430D01*
X18109Y-18286D02*
X18162Y-18286D01*
X18188Y-18299D01*
X18201Y-18312D01*
X18227Y-18351D01*
X18240Y-18404D01*
X18240Y-18509D01*
X18227Y-18535D01*
X18214Y-18549D01*
X18188Y-18562D01*
X18135Y-18562D01*
X18109Y-18549D01*
X18096Y-18535D01*
X18083Y-18509D01*
X18083Y-18443D01*
X18096Y-18417D01*
X18109Y-18404D01*
X18135Y-18391D01*
X18188Y-18391D01*
X18214Y-18404D01*
X18227Y-18417D01*
X18240Y-18443D01*
X18836Y-20190D02*
X19059Y-20190D01*
X19085Y-20203D01*
X19099Y-20216D01*
X19112Y-20242D01*
X19112Y-20295D01*
X19099Y-20321D01*
X19085Y-20334D01*
X19059Y-20347D01*
X18836Y-20347D01*
X18836Y-20452D02*
X18836Y-20623D01*
X18941Y-20531D01*
X18941Y-20571D01*
X18954Y-20597D01*
X18967Y-20610D01*
X18993Y-20623D01*
X19059Y-20623D01*
X19085Y-20610D01*
X19099Y-20597D01*
X19112Y-20571D01*
X19112Y-20492D01*
X19099Y-20466D01*
X19085Y-20452D01*
X12991Y-20416D02*
X12991Y-20613D01*
X13005Y-20652D01*
X13031Y-20679D01*
X13070Y-20692D01*
X13097Y-20692D01*
X12873Y-20442D02*
X12860Y-20429D01*
X12834Y-20416D01*
X12768Y-20416D01*
X12742Y-20429D01*
X12729Y-20442D01*
X12716Y-20468D01*
X12716Y-20495D01*
X12729Y-20534D01*
X12887Y-20692D01*
X12716Y-20692D01*
X13867Y-20192D02*
X13867Y-19916D01*
X13775Y-20113D01*
X13683Y-19916D01*
X13683Y-20192D01*
X13552Y-20192D02*
X13552Y-19916D01*
X13421Y-20192D02*
X13421Y-19916D01*
X13264Y-20192D01*
X13264Y-19916D01*
X13132Y-20192D02*
X13132Y-19916D01*
X13067Y-20218D02*
X12857Y-20218D01*
X12791Y-19916D02*
X12791Y-20139D01*
X12778Y-20165D01*
X12765Y-20179D01*
X12739Y-20192D01*
X12686Y-20192D01*
X12660Y-20179D01*
X12647Y-20165D01*
X12634Y-20139D01*
X12634Y-19916D01*
X12515Y-20179D02*
X12476Y-20192D01*
X12410Y-20192D01*
X12384Y-20179D01*
X12371Y-20165D01*
X12358Y-20139D01*
X12358Y-20113D01*
X12371Y-20087D01*
X12384Y-20073D01*
X12410Y-20060D01*
X12463Y-20047D01*
X12489Y-20034D01*
X12502Y-20021D01*
X12515Y-19995D01*
X12515Y-19968D01*
X12502Y-19942D01*
X12489Y-19929D01*
X12463Y-19916D01*
X12397Y-19916D01*
X12358Y-19929D01*
X12147Y-20047D02*
X12108Y-20060D01*
X12095Y-20073D01*
X12082Y-20100D01*
X12082Y-20139D01*
X12095Y-20165D01*
X12108Y-20179D01*
X12134Y-20192D01*
X12239Y-20192D01*
X12239Y-19916D01*
X12147Y-19916D01*
X12121Y-19929D01*
X12108Y-19942D01*
X12095Y-19968D01*
X12095Y-19995D01*
X12108Y-20021D01*
X12121Y-20034D01*
X12147Y-20047D01*
X12239Y-20047D01*
X23712Y-18454D02*
X23712Y-18323D01*
X23436Y-18323D01*
X23712Y-18690D02*
X23712Y-18533D01*
X23712Y-18611D02*
X23436Y-18611D01*
X23475Y-18585D01*
X23501Y-18559D01*
X23515Y-18533D01*
X19403Y-22312D02*
X19403Y-22036D01*
X19338Y-22036D01*
X19298Y-22049D01*
X19272Y-22075D01*
X19259Y-22101D01*
X19246Y-22154D01*
X19246Y-22193D01*
X19259Y-22246D01*
X19272Y-22272D01*
X19298Y-22299D01*
X19338Y-22312D01*
X19403Y-22312D01*
X19140Y-22062D02*
X19127Y-22049D01*
X19101Y-22036D01*
X19035Y-22036D01*
X19009Y-22049D01*
X18996Y-22062D01*
X18983Y-22088D01*
X18983Y-22115D01*
X18996Y-22154D01*
X19154Y-22312D01*
X18983Y-22312D01*
%LPC*%
G54D17*
X16000Y-21000D03*
G54D18*
X16000Y-20000D03*
X16000Y-19000D03*
X16000Y-18000D03*
G54D19*
X25350Y-18270D03*
X25850Y-18270D03*
X26350Y-18270D03*
X26850Y-18270D03*
X26850Y-20330D03*
X26350Y-20330D03*
X25850Y-20330D03*
X25350Y-20330D03*
G54D20*
X18435Y-21460D03*
G54D21*
X17774Y-22161D03*
X17774Y-21649D03*
X17026Y-21905D03*
G54D22*
X17100Y-21175D03*
X17100Y-20425D03*
G54D23*
X17700Y-19400D03*
X17700Y-18800D03*
X18300Y-19400D03*
X18300Y-18800D03*
G54D24*
X18475Y-20900D03*
X17725Y-20900D03*
X18475Y-19900D03*
X18100Y-20900D03*
X17725Y-19900D03*
G54D25*
X14984Y-20000D03*
X14984Y-20314D03*
X14984Y-19371D03*
X14984Y-19686D03*
G54D26*
X12819Y-21771D03*
X14984Y-21771D03*
X12819Y-18229D03*
X14984Y-18229D03*
G54D25*
X14984Y-20629D03*
G54D27*
X14000Y-20866D03*
X14000Y-19134D03*
G54D28*
X22495Y-22090D03*
X21865Y-22090D03*
X21235Y-22090D03*
G54D29*
X21865Y-22090D03*
G54D30*
X20000Y-21000D03*
X20000Y-21400D03*
G54D31*
X20000Y-21200D03*
G54D32*
X23960Y-18515D03*
X24560Y-18515D03*
G54D33*
X24260Y-18515D03*
G54D23*
X19200Y-21700D03*
X19200Y-21100D03*
G54D34*
X19200Y-21400D03*
M02*
